<svg viewBox="-81.4 76.7 1125.55 444.3" width="1125.55" height="444.3" version="1.1" baseProfile="full" xmlns="http://www.w3.org/2000/svg" class="js-draw--autoresize"><style id="js-draw-style-sheet">path{stroke-linecap:round;stroke-linejoin:round;}text{white-space:pre;}</style><g class="js-draw-image-background js-draw-image-background-grid js-draw-image-background-grid-25"><path d="M1044.15,521l0-444.3l-1125.55,1.4210854715202004e-14l0,444.3l1125.55,0" fill="#03035e"></path><path d="M-81.75,100l1126.25,0m-1126.25,25l1126.25,0m-1126.25,25l1126.25,0m-1126.25,25l1126.25,0m-1126.25,25l1126.25,0m-1126.25,25l1126.25,0m-1126.25,25l1126.25,0m-1126.25,25l1126.25,0m-1126.25,25l1126.25,0m-1126.25,25l1126.25,0m-1126.25,25l1126.25,0m-1126.25,25l1126.25,0m-1126.25,25l1126.25,0m-1126.25,25l1126.25,0m-1126.25,25l1126.25,0m-1126.25,25l1126.25,0m-1126.25,25l1126.25,0m-1119.5-423.65l0,445m25-445l0,445m25-445l0,445m25-445l0,445m25-445l0,445m25-445l0,445m25-445l0,445m25-445l0,445m25-445l0,445m25-445l0,445m25-445l0,445m25-445l0,445m25-445l0,445m25-445l0,445m25-445l0,445m25-445l0,445m25-445l0,445m25-445l0,445m25-445l0,445m25-445l0,445m25-445l0,445m25-445l0,445m25-445l0,445m25-445l0,445m25-445l0,445m25-445l0,445m25-445l0,445m25-445l0,445m25-445l0,445m25-445l0,445m25-445l0,445m25-445l0,445m25-445l0,445m25-445l0,445m25-445l0,445m25-445l0,445m25-445l0,445m25-445l0,445m25-445l0,445m25-445l0,445m25-445l0,445m25-445l0,445m25-445l0,445m25-445l0,445m25-445l0,445" fill="none" stroke="#fcfca133" stroke-width=".7"></path></g><path d="M-59,97q-7.4-.1 -5,6.2q5.4,11.3 10,20.4q4.4,8.5 -3.9,8.9q-6.6,.3 4.7-32q2.4-6.8 -1.6-7.1q-1.3,1.1 -2.2,2.6" fill="none" stroke="#ffffff" stroke-width="2.6"></path><path d="M-50,80q3.1-1.7 6.9,1.9q4.1,5.4 7.1,10.1" fill="none" stroke="#ffffff" stroke-width="2.6"></path><path d="M-29,78q-6,3.2 -12.7,14.8" fill="none" stroke="#ffffff" stroke-width="2.6"></path><path d="M-10,94Q-9.6,103.4 -9,111" fill="none" stroke="#ffffff" stroke-width="2.6"></path><path d="M-18,110q6.6-1.1 12-2" fill="none" stroke="#ffffff" stroke-width="2.6"></path><path d="M21,98q-5.6-3.8 -4.6,1.8q5.8,10.5 12.1,18.4q3,3.9 -1.3,4.9q-4.1,1 -7.8-11q-3.4-11.4 7.9-18.6q-1.9,.4 -5.3,1.5" fill="none" stroke="#ffffff" stroke-width="2.6"></path><path d="M32,85q3.2,5 6,9" fill="none" stroke="#ffffff" stroke-width="2.6"></path><path d="M46,82q-7.9,5.7 -14,11" fill="none" stroke="#ffffff" stroke-width="2.6"></path><path d="M71,102q9.8-1.4 18-2" fill="none" stroke="#ffffff" stroke-width="2.6"></path><path d="M74,109q2.6-3 14.3-3.5" fill="none" stroke="#ffffff" stroke-width="2.6"></path><path d="M126,94q-18,10.7 -14.6,17.7q5.3,.2 10.6-1.7" fill="none" stroke="#ffffff" stroke-width="2.6"></path><path d="M125,106q-4.3-3.4 -8-6" fill="none" stroke="#ffffff" stroke-width="2.6"></path><path d="M149,95q-13.2,10.1 -8.2,12.8q3.3-.5 6.2-1.8" fill="none" stroke="#ffffff" stroke-width="2.6"></path><path d="M154,97q-3,12 -5,22" fill="none" stroke="#ffffff" stroke-width="2.6"></path><path d="M235,95q-.3,14.3 -1,26" fill="none" stroke="#ffffff" stroke-width="2.6"></path><path d="M-73,177q1-4.6 -1.1-3.5q-6,3.2 5.7,17.7q6.7,8.2 -2.1,7q-5.4-.7 5.2-16.5q4-6 0-10.7q-.3-.5 -2.7,1" fill="none" stroke="#ffffff" stroke-width="2.6"></path><path d="M-60,164q4.9,5.6 9,10" fill="none" stroke="#ffffff" stroke-width="2.6"></path><path d="M-47,164q-7.3,5.9 -13,11" fill="none" stroke="#ffffff" stroke-width="2.6"></path><path d="M-28,172q-8,6.7 -9.8,17.8q-1.3,7.7 3.5,7" fill="none" stroke="#ffffff" stroke-width="2.6"></path><path d="M-28,186q7.4-9.1 8.9-5.3q.9,6.2 1.1,11.3" fill="none" stroke="#ffffff" stroke-width="2.6"></path><path d="M-4,176Q-4.2,191.1 -4,191" fill="none" stroke="#ffffff" stroke-width="2.6"></path><path d="M-5,186Q-4.4,186 -4,186" fill="none" stroke="#ffffff" stroke-width="2.6"></path><path d="M6,186Q15.7,176.4 17,181.4Q17,181.6 17,190" fill="none" stroke="#ffffff" stroke-width="2.6"></path><path d="M29,174q5.2,11.6 4,20.8" fill="none" stroke="#ffffff" stroke-width="2.6"></path><path d="M74,184q8.3-4.4 15-8" fill="none" stroke="#ffffff" stroke-width="2.6"></path><path d="M78,188q7.1,0 13,0" fill="none" stroke="#ffffff" stroke-width="2.6"></path><path d="M125,175q-8.8,23.3 -.3,21q5.2-1.4 2.8-9.7q-1.2,.3 -2.5,1.2" fill="none" stroke="#ffffff" stroke-width="2.6"></path><path d="M141,178q-.6-.6 -1-1" fill="none" stroke="#ffffff" stroke-width="2.6"></path><path d="M148,174q-20.7,12.8 -9.2,14.3q1.9,.3 9.2-1.3" fill="none" stroke="#ffffff" stroke-width="2.6"></path><path d="M152,174q-5,19.9 -5,24" fill="none" stroke="#ffffff" stroke-width="2.6"></path><path d="M238,173q-2.2,7.7 -4,14" fill="none" stroke="#ffffff" stroke-width="2.6"></path><path d="M286,174q.4,0 2,0" fill="none" stroke="#ffffff" stroke-width="2.6"></path><path d="M286,187q0,.6 0,1" fill="none" stroke="#ffffff" stroke-width="2.6"></path><path d="M306,180q4.7-5.2 4.3,1.9q-.6,10.4 -.2,10.6q3.2,.1 5.9-.5" fill="none" stroke="#ffffff" stroke-width="2.6"></path><path d="M-16,244q-5.1-4.3 -2.4,8q3.3,10.6 6.3,19.3q-1.3,.4 -3.2,.2q-1.4-.2 6.5-24q2-6.2 -4.2-5.6q-.8,1.9 -1,4.1" fill="none" stroke="#ffffff" stroke-width="2.6"></path><path d="M-6,243Q.7,249 6,254" fill="none" stroke="#ffffff" stroke-width="2.6"></path><path d="M8,242Q.1,248.9 -6,255" fill="none" stroke="#ffffff" stroke-width="2.6"></path><path d="M66,256q11.5-1.4 21-2" fill="none" stroke="#ffffff" stroke-width="2.6"></path><path d="M72,262q6.6,0 12,0" fill="none" stroke="#ffffff" stroke-width="2.6"></path><path d="M124,257q1.6-10.5 6.8-6.1q4.1,3.6 -1.3,11.3q-.3-.3 -.6-.8q-2.2-4 7.9,3.8q2.7,2.2 -4.8,5.3q-1.7,.7 -9-1.5" fill="none" stroke="#ffffff" stroke-width="2.6"></path><path d="M142,253q6.3-.5 7.8,3.7q-1.7,6.2 -4.6,11.2q5.1,1.2 12.8,.1" fill="none" stroke="#ffffff" stroke-width="2.6"></path><path d="M240,250q.6,8.8 1,16" fill="none" stroke="#ffffff" stroke-width="2.6"></path><path d="M-35,334q2.9-6 5.5-.6q-.5,6.3 -2.2,11.6q-.5,1.5 7.7-1" fill="none" stroke="#ffffff" stroke-width="2.6"></path><path d="M-20,321q5.8-.1 4.6,4.6q-.6,.9 -1.1,1.5q-.3,3.4 .3,6.3q-2.5,1.3 -5.8,1.6" fill="none" stroke="#ffffff" stroke-width="2.6"></path><path d="M-7,321Q1.4,325.6 1,333" fill="none" stroke="#ffffff" stroke-width="2.6"></path><path d="M4,321q-14.9,12.1 -15,14" fill="none" stroke="#ffffff" stroke-width="2.6"></path><path d="M60,331q18.3,.9 16,2" fill="none" stroke="#ffffff" stroke-width="2.6"></path><path d="M62,340q7.6-1.4 14-2" fill="none" stroke="#ffffff" stroke-width="2.6"></path><path d="M114,335q16.8-8.2 12.2,3.3q-1.7,3.3 -3.2,5.9q-.5,.9 5,.8" fill="none" stroke="#ffffff" stroke-width="2.6"></path><path d="M146,323q-1.6,2.5 .6,3.4q4.9,1.9 -.9,8.8" fill="none" stroke="#ffffff" stroke-width="2.6"></path><path d="M144,321q4.9-1.1 9-2" fill="none" stroke="#ffffff" stroke-width="2.6"></path><path d="M-9,401q1.5-5.6 7.5-1.1q4.6,3.4 -.8,11.7q-.4,.4 -.7,.7q.9,2.5 3,4.7q2.2,2.5 -6.1,3.4q-4.4-1 -7.9-2.4" fill="none" stroke="#ffffff" stroke-width="2.6"></path><path d="M3,410Q13,414.8 21,419" fill="none" stroke="#ffffff" stroke-width="2.6"></path><path d="M20,412Q11,417.7 4,423" fill="none" stroke="#ffffff" stroke-width="2.6"></path><path d="M52,409q7.6-1.5 14-2" fill="none" stroke="#ffffff" stroke-width="2.6"></path><path d="M54,414q9.8-4.2 16-1" fill="none" stroke="#ffffff" stroke-width="2.6"></path><path d="M114,405q-3.4,6.8 1.3,9q6.3,2.9 3.2,6.4q-1.1,1.2 -8.5,.6" fill="none" stroke="#ffffff" stroke-width="2.6"></path><path d="M113,399q11.5,.3 21,1" fill="none" stroke="#ffffff" stroke-width="2.6"></path><path d="M240,403q.9,9.4 1,14" fill="none" stroke="#ffffff" stroke-width="2.6"></path><path d="M278,408q0-.6 0-1" fill="none" stroke="#ffffff" stroke-width="2.6"></path><path d="M279,423q0-.2 0-1" fill="none" stroke="#ffffff" stroke-width="2.6"></path><path d="M312,407q14.4-.5 9,5.3q-.7,.7 -.7,.7q13.2,3.5 1,9.7q-6.1-.2 -11.3-1.7" fill="none" stroke="#ffffff" stroke-width="2.6"></path><path d="M-2,483Q4.7,487.1 10,491" fill="none" stroke="#ffffff" stroke-width="2.6"></path><path d="M20,485Q4.9,490.9 1.7,496.6" fill="none" stroke="#ffffff" stroke-width="2.6"></path><path d="M43,485q8.8-1.1 16-2" fill="none" stroke="#ffffff" stroke-width="2.6"></path><path d="M47,489q-.9-.3 -1.7-.7q4.6,.3 12.7,1.7" fill="none" stroke="#ffffff" stroke-width="2.6"></path><path d="M106,482q-6.8,2.4 1.6,5q11,3.4 .1,8.3" fill="none" stroke="#ffffff" stroke-width="2.6"></path><path d="M96,481q10.9-1.4 20-2" fill="none" stroke="#ffffff" stroke-width="2.6"></path><path d="M95,502q27.6-5.1 25-3" fill="none" stroke="#ffffff" stroke-width="2.6"></path><path d="M109,505q8.6,1.1 5.7,4q-.9,.9 -1.7,1.5q.7,2.7 2.6,5.3q3,3.9 -17.3,2.1" fill="none" stroke="#ffffff" stroke-width="2.6"></path><path d="M599.5,99.4q-13.8,9.4 -6.9,10.1" fill="none" stroke="#ffffff" stroke-width="2.1"></path><path d="M599.5,99.4q-2.9,8.5 -4.2,18.6" fill="none" stroke="#ffffff" stroke-width="2.1"></path><path d="M609.6,86.7q4.4,4.1 8,7.4" fill="none" stroke="#ffffff" stroke-width="2.1"></path><path d="M620.8,86.2q-6.7,3.7 -12.2,6.9" fill="none" stroke="#ffffff" stroke-width="2.1"></path><path d="M636.7,100.5q-2,7.9 -3.7,14.3" fill="none" stroke="#ffffff" stroke-width="2.1"></path><path d="M631.9,107.9q3.2,.6 5.9,1.1" fill="none" stroke="#ffffff" stroke-width="2.1"></path><path d="M670.2,103.2q-11.2,3.9 -9.6,10.6" fill="none" stroke="#ffffff" stroke-width="2.1"></path><path d="M667,105.8q-1.7,13.1 -.6,14.3" fill="none" stroke="#ffffff" stroke-width="2.1"></path><path d="M679.7,88.3q2.1,6.5 5.3,11.1" fill="none" stroke="#ffffff" stroke-width="2.1"></path><path d="M689.3,89.9q-6.5,4.5 -11.7,8.5" fill="none" stroke="#ffffff" stroke-width="2.1"></path><path d="M713.2,103.7q-3,4.5 -4.8,11.1" fill="none" stroke="#ffffff" stroke-width="2.1"></path><path d="M706.8,111.7q2.3,.3 4.2,.5" fill="none" stroke="#ffffff" stroke-width="2.1"></path><path d="M738.1,104.7q-12.2,2.6 -8.5,8.5" fill="none" stroke="#ffffff" stroke-width="2.1"></path><path d="M738.1,106.3q-3.4,11 -1.6,13.8" fill="none" stroke="#ffffff" stroke-width="2.1"></path><path d="M749.8,90.4q3.9,6.1 6.9,11.2" fill="none" stroke="#ffffff" stroke-width="2.1"></path><path d="M764.7,93.1q-8,3.4 -14.4,6.9" fill="none" stroke="#ffffff" stroke-width="2.1"></path><path d="M794.9,106.3q7.6,.6 13.8,1.1" fill="none" stroke="#ffffff" stroke-width="2.1"></path><path d="M793.3,113.8q7.6,0 13.8,0" fill="none" stroke="#ffffff" stroke-width="2.1"></path><path d="M837,105.8q12.6-3.3 12.4,.9q-.7,12.6 -2.3,10.8" fill="none" stroke="#ffffff" stroke-width="2.1"></path><path d="M864.1,102.6q-5.1,7.4 -.6,8.1q3.3,.5 3.6-5.9q-.6-.1 -1.3,.1q-.7,4.7 .5,9.8q.9,3.6 -3.9,4.8q-.4,0 -1.5-2.5" fill="none" stroke="#ffffff" stroke-width="2.1"></path><path d="M880,104.2q1.7,3.8 -1.4,10.8q-2.5,5.4 10.9,4.6" fill="none" stroke="#ffffff" stroke-width="2.1"></path><path d="M646.6,158.3q8.4-3.9 10.8,1.3q1.6,3.3 -7.9,2.6q2.2,1.9 6.7,4.3q1.8,1 -1.9,2.6q-3.8-.3 -7.1-1.2" fill="none" stroke="#ffffff" stroke-width="2.1"></path><path d="M681.6,154.6q-8.6,7.3 -4.7,8.5" fill="none" stroke="#ffffff" stroke-width="2.1"></path><path d="M684.8,154.1q-2,13.6 -.5,15.9" fill="none" stroke="#ffffff" stroke-width="2.1"></path><path d="M689.6,146.1q3.9,4.3 6.9,8" fill="none" stroke="#ffffff" stroke-width="2.1"></path><path d="M699.1,146.7q-6.5,3.6 -11.6,6.9" fill="none" stroke="#ffffff" stroke-width="2.1"></path><path d="M793,159.4q2.6,0 4.8,0" fill="none" stroke="#ffffff" stroke-width="2.1"></path><path d="M793,164.2q5.8-1.2 10.6-2.2" fill="none" stroke="#ffffff" stroke-width="2.1"></path><path d="M836,163.6q10.6-6.6 10.2-3.2q-2.6,4.6 -5.5,8" fill="none" stroke="#ffffff" stroke-width="2.1"></path><path d="M860.4,156.2q-10.4,5.4 -7.1,7.9q4.4-.9 8.1-3.1" fill="none" stroke="#ffffff" stroke-width="2.1"></path><path d="M863,157.3q.7,8.7 -1,10.9q-.7,.9 -5.9-.3" fill="none" stroke="#ffffff" stroke-width="2.1"></path><path d="M874.7,153q2.6,2.3 1.9,6.4q-1,4.3 -2,7.8q3.2,1.5 7.5,1.7" fill="none" stroke="#ffffff" stroke-width="2.1"></path><path d="M952.6,148.8q-.2,9.9 -.5,18" fill="none" stroke="#ffffff" stroke-width="2.1"></path><path d="M1006.2,149.8q.1,.3 .5,1.6" fill="none" stroke="#ffffff" stroke-width="2.1"></path><path d="M1005.7,166.3q-.1-.3 -.6-1.6" fill="none" stroke="#ffffff" stroke-width="2.1"></path><path d="M1025.8,152q17.3,7.5 9.8,9.1q-.7,.2 -.6,.2q4,3.6 -.5,5.6q-6.7,1.4 -12.4,2" fill="none" stroke="#ffffff" stroke-width="2.1"></path><path d="M684.3,206.6q1.1-1.2 .5-1.2q-4.6-.1 -9.4,6.9q1.4,.6 3.6,.7" fill="none" stroke="#ffffff" stroke-width="2.1"></path><path d="M684.8,207.1q-1,15 .5,15.9" fill="none" stroke="#ffffff" stroke-width="2.1"></path><path d="M692.2,196.5q5.3,5.9 9.6,10.6" fill="none" stroke="#ffffff" stroke-width="2.1"></path><path d="M705.5,196.5q-8.2,6.3 -14.8,11.7" fill="none" stroke="#ffffff" stroke-width="2.1"></path><path d="M789.3,206.1q3.8,.3 6.9,.5" fill="none" stroke="#ffffff" stroke-width="2.1"></path><path d="M789.8,213.5q4.4,0 8,0" fill="none" stroke="#ffffff" stroke-width="2.1"></path><path d="M828.5,210.8q9.8-7.7 9.6-2.5q-.6,6.1 -1.1,11" fill="none" stroke="#ffffff" stroke-width="2.1"></path><path d="M851.3,206.6q-2.9,2.6 -1.4,3.2q2.4-.9 4.3-2.2q1-.7 2.3,9.2q.7,4.7 -4.3,6.4q-1.5-1.1 -2.5-2.8" fill="none" stroke="#ffffff" stroke-width="2.1"></path><path d="M863.5,206.1q9-1.5 8.6,2.3q-2.1,5.5 -4.2,9.9q2.3,1.2 5.7,1.5" fill="none" stroke="#ffffff" stroke-width="2.1"></path><path d="M830.1,223.6q45.9,4.2 47.2,1.6" fill="none" stroke="#ffffff" stroke-width="2.1"></path><path d="M848.7,232q15.8,2 12.8,5.6q-4.1,.8 -8,.3q2.1,1.5 6.2,3.5q7.8,3.8 -4.5,6.7q-2.3,.6 -11.8-.1" fill="none" stroke="#ffffff" stroke-width="2.1"></path><path d="M690.7,279.8q-10.8,5.3 -6.4,9.5" fill="none" stroke="#ffffff" stroke-width="2.1"></path><path d="M689.6,280.8q-.1,10.5 0,19.1" fill="none" stroke="#ffffff" stroke-width="2.1"></path><path d="M701.8,268.1q4.1,5.2 7.4,9.6" fill="none" stroke="#ffffff" stroke-width="2.1"></path><path d="M710.8,267q-8.3,7.3 -14.8,13.8" fill="none" stroke="#ffffff" stroke-width="2.1"></path><path d="M780.8,281.4q7.9-2 10.6-1.1" fill="none" stroke="#ffffff" stroke-width="2.1"></path><path d="M781.9,286.7q4.1,1.4 7.4,2.6" fill="none" stroke="#ffffff" stroke-width="2.1"></path><path d="M848.2,277.7q-7.9,18.8 -2.3,20.3q3.2,.8 3-8.5q0-3.4 -3-4.2" fill="none" stroke="#ffffff" stroke-width="2.1"></path><path d="M865.1,279.8q-9.2,4.9 -6.6,7.6q.9,1 6.6-1.3" fill="none" stroke="#ffffff" stroke-width="2.1"></path><path d="M867.2,281.4q-1.7,12.3 -.5,15.3" fill="none" stroke="#ffffff" stroke-width="2.1"></path><path d="M773.9,332.8q7.9,.4 14.3,.5" fill="none" stroke="#ffffff" stroke-width="2"></path><path d="M775.5,337.5q2.9-.3 5.3-.5" fill="none" stroke="#ffffff" stroke-width="2"></path><path d="M684.3,334.9q5.7-2.7 5.8,1.7q-.6,6.4 -1.4,11.7q2.9,.1 6.6-1.3" fill="none" stroke="#ffffff" stroke-width="2"></path><path d="M695.9,321.7q3.7-1.3 3.4,1.8q-.4,4 -.7,7.2q-.1,.8 2.5-2.7" fill="none" stroke="#ffffff" stroke-width="2"></path><path d="M704.8,320.7q10.6,5.2 10.6,5.2" fill="none" stroke="#ffffff" stroke-width="2"></path><path d="M715.4,320.7q-11.1,4.9 -11.1,7.3" fill="none" stroke="#ffffff" stroke-width="2"></path><path d="M844.1,333.3q4.5-5.6 5.2-.4q-1.2,6.9 -3.2,12.6q4,1.1 9.6,.5" fill="none" stroke="#ffffff" stroke-width="2"></path><path d="M859.9,320.7q-2,13.1 1.4,9.3q1.4-1.5 .5-4.6q-.1-.5 -1.9,1.1" fill="none" stroke="#ffffff" stroke-width="2"></path><path d="M700.6,384q3.8-3.7 3.8,.9q.2,11.5 2.2,13.1q2.4-.1 4.6-.9" fill="none" stroke="#ffffff" stroke-width="2"></path><path d="M715.9,387.1q6.6,4.5 12.1,7.9" fill="none" stroke="#ffffff" stroke-width="2"></path><path d="M728,386.1q-6.4,6.3 -11.6,11.6" fill="none" stroke="#ffffff" stroke-width="2"></path><path d="M775,381.8q5.2,.3 9.5,.6" fill="none" stroke="#ffffff" stroke-width="2"></path><path d="M774.4,389.8q8.7-.8 15.9-1.1" fill="none" stroke="#ffffff" stroke-width="2"></path><path d="M842,380.3q-7.6,8.5 -3,14.1q3.7,4.6 8.9-2.6q2.7-3.8 -5.4-2.6" fill="none" stroke="#ffffff" stroke-width="2"></path><path d="M944.3,377.6q-.5,17.8 .5,19" fill="none" stroke="#ffffff" stroke-width="2"></path><path d="M967.5,382.4q7.7-.9 9.3,2.5q.3,6 -.3,11.1q-.2,1.9 9.4-1" fill="none" stroke="#ffffff" stroke-width="2"></path><path d="M959,381.9q.2,.2 0,.2q-.2,0 -.2-.2q0-.2 .2-.2q.2,0 .2,.2" fill="none" stroke="#ffffff" stroke-width="1.7"></path><path d="M961.2,396.6q-.2-.3 -.4-.5" fill="none" stroke="#ffffff" stroke-width="1.7"></path><path d="M716.8,430.8q5.4,6.6 9.7,12" fill="none" stroke="#ffffff" stroke-width="1.7"></path><path d="M727.4,435.7q-5.9,5.6 -10.6,10.2" fill="none" stroke="#ffffff" stroke-width="1.7"></path><path d="M774.1,434.8q12.8-1.2 13.3-.5" fill="none" stroke="#ffffff" stroke-width="1.7"></path><path d="M774.1,442.8q12.3-1.9 13.3-.5" fill="none" stroke="#ffffff" stroke-width="1.7"></path><path d="M838.5,432.6q1.2-2.7 6.4-.6q4.8,2.1 1.3,5.7q-.5,.5 -1,.9q.9,1.8 3,3.4q4,3.2 -5.5,4.6q-5.2-.2 -9.5-.7" fill="none" stroke="#ffffff" stroke-width="1.7"></path></svg>