<svg viewBox="-155.3 -162.8 868.3 219.8" width="868.3" height="219.8" version="1.1" baseProfile="full" xmlns="http://www.w3.org/2000/svg" class="js-draw--autoresize"><style id="js-draw-style-sheet">path{stroke-linecap:round;stroke-linejoin:round;}text{white-space:pre;}</style><g class="js-draw-image-background js-draw-image-background-grid js-draw-image-background-grid-25"><path d="M713,57l0-219.8l-868.3,0l0,219.8l868.3,0" fill="#03035e"></path><path d="M-155.65,-150l869,0m-869,25l869,0m-869,25l869,0m-869,25l869,0m-869,25l869,0m-869,25l869,0m-869,25l869,0m-869,25l869,0m-869,25l869,0m-863.35-213.15l0,220.5m25-220.5l0,220.5m25-220.5l0,220.5m25-220.5l0,220.5m25-220.5l0,220.5m25-220.5l0,220.5m25-220.5l0,220.5m25-220.5l0,220.5m25-220.5l0,220.5m25-220.5l0,220.5m25-220.5l0,220.5m25-220.5l0,220.5m25-220.5l0,220.5m25-220.5l0,220.5m25-220.5l0,220.5m25-220.5l0,220.5m25-220.5l0,220.5m25-220.5l0,220.5m25-220.5l0,220.5m25-220.5l0,220.5m25-220.5l0,220.5m25-220.5l0,220.5m25-220.5l0,220.5m25-220.5l0,220.5m25-220.5l0,220.5m25-220.5l0,220.5m25-220.5l0,220.5m25-220.5l0,220.5m25-220.5l0,220.5m25-220.5l0,220.5m25-220.5l0,220.5m25-220.5l0,220.5m25-220.5l0,220.5m25-220.5l0,220.5m25-220.5l0,220.5" fill="none" stroke="#fcfca133" stroke-width=".7"></path></g><path d="M-154,-105q13.5-56.5 18.7-38.5q2.7,14.5 4.3,26.5" fill="none" stroke="#ffffff" stroke-width="2.6"></path><path d="M-149,-121q16.7,1.2 15,2" fill="none" stroke="#ffffff" stroke-width="2.6"></path><path d="M-116,-148q1.5,16.5 3,30" fill="none" stroke="#ffffff" stroke-width="2.6"></path><path d="M-95,-127q-6.5-1.4 -12.9,6.6q-6.5,8.1 6.3,8.8q5.3-1.5 9.6-3.4" fill="none" stroke="#ffffff" stroke-width="2.6"></path><path d="M-77,-150q-2,21.8 -2,35" fill="none" stroke="#ffffff" stroke-width="2.6"></path><path d="M-82,-118q5.3-3 10-5" fill="none" stroke="#ffffff" stroke-width="2.6"></path><path d="M-59,-119q-.4,11.6 -1,21" fill="none" stroke="#ffffff" stroke-width="2.6"></path><path d="M-58,-144q-.2-.2 -1-1" fill="none" stroke="#ffffff" stroke-width="2.6"></path><path d="M-46,-121q9.8,14.8 12.4,11.9q13.6-14.9 5.6-18.9" fill="none" stroke="#ffffff" stroke-width="2.6"></path><path d="M-25,-115q13.9-5.4 13.2-8.5q-1.6-7.1 -5.4,9.7q-1.7,7.6 13.5,9" fill="none" stroke="#ffffff" stroke-width="2.6"></path><path d="M35,-137q12.1-1.7 17.3,1.5" fill="none" stroke="#ffffff" stroke-width="2.6"></path><path d="M47,-119q-.9,5.1 .5,6.5q4,.3 7.5-.5" fill="none" stroke="#ffffff" stroke-width="2.6"></path><path d="M72,-119q12,8.5 16.4-.2q1.1-2.2 3.4-.4q1.2,.9 7.2,2.6" fill="none" stroke="#ffffff" stroke-width="2.6"></path><path d="M112,-116q11.9-8.4 5.6-10.2q-6.4-1.8 -9.9,14.2q1,.7 2.3,1" fill="none" stroke="#ffffff" stroke-width="2.6"></path><path d="M134,-119q-.8,4.4 -2,8" fill="none" stroke="#ffffff" stroke-width="2.6"></path><path d="M130,-150q.5,2.8 1,5" fill="none" stroke="#ffffff" stroke-width="2.6"></path><path d="M142,-108q2.5-13 10.6-16q5.3-1.9 6.4,4.3q-4.6,4.7 -10.7,7.6q-5.4,2.5 -5.3,20.6" fill="none" stroke="#ffffff" stroke-width="2.6"></path><path d="M170,-116q4.3-10.7 6.9-5.3q4.3,9 -7.7,15.9q-3.8,2.2 -7.5-4.8" fill="none" stroke="#ffffff" stroke-width="2.6"></path><path d="M186,-142q2.4,19.2 4,35" fill="none" stroke="#ffffff" stroke-width="2.6"></path><path d="M207,-117q6-4.2 5.6-9.6q-.6-8.7 -9.3,4.6q-8,12.2 3.6,18.6q5-2 9.1-5.6" fill="none" stroke="#ffffff" stroke-width="2.6"></path><path d="M-135,-57q-4.3,9.3 0,22.8" fill="none" stroke="#ffffff" stroke-width="2.6"></path><path d="M-136,-75q-1.1,2.2 -2,4" fill="none" stroke="#ffffff" stroke-width="2.6"></path><path d="M-113,-44q-3.4,11 3.9,7.6q11.8-5.4 11.4-37.2q-.3,.3 -.7,1q.3,13.2 3.4,24.6" fill="none" stroke="#ffffff" stroke-width="2.6"></path><path d="M-94,-41q13-6.8 7.5-7.7q-3.6-.6 -5,8.2q-.7,4.5 11.8,5" fill="none" stroke="#ffffff" stroke-width="2.6"></path><path d="M-64,-46q-15,8.9 -6.3,14.2q6.6-3.4 11.7-9.3q2.7,6 3.6,16.1" fill="none" stroke="#ffffff" stroke-width="2.6"></path><path d="M-39,-70q-3.6,32.9 -1,29" fill="none" stroke="#ffffff" stroke-width="2.6"></path><path d="M-32,-43q.7-.8 1.1-1.6q-1.2,3.1 -3.7,8.6q-3,6.8 14.9,5.2" fill="none" stroke="#ffffff" stroke-width="2.6"></path><path d="M22,-37q11.6-22.4 19.9-24.5q9-2.3 7.7,14.5q-.8,9.6 -17.1,15.9q-6.9,2.6 -12.5-5.9" fill="none" stroke="#ffffff" stroke-width="2.6"></path><path d="M31,-40q7.9,1.5 18,15.2" fill="none" stroke="#ffffff" stroke-width="2.6"></path><path d="M62,-39q4.2,13 7.9,10.4q3.1-5.6 4.6-10.9q.6-1.8 2.8,1.9q1,1.5 2.7,8.6" fill="none" stroke="#ffffff" stroke-width="2.6"></path><path d="M90,-41q-4.2,2.8 -4.7,13.4" fill="none" stroke="#ffffff" stroke-width="2.6"></path><path d="M105,-55q-4,21.7 -4,28" fill="none" stroke="#ffffff" stroke-width="2.6"></path><path d="M112,-62q-1.2,13.2 -2,24" fill="none" stroke="#ffffff" stroke-width="2.6"></path><path d="M124,-43q6.7-4.7 5.3-6.8q-2.5-3.9 -7.6,16.2q-1.6,6.5 2,5.4" fill="none" stroke="#ffffff" stroke-width="2.6"></path><path d="M142,-47q3.1,2 2.5,6.5q-.8,5.6 .2,5.2q8.1-3.5 15.6,8.5" fill="none" stroke="#ffffff" stroke-width="2.6"></path><path d="M-138,16q9.5,36.7 6.1,34q-.3-10.8 2.9-21" fill="none" stroke="#ffffff" stroke-width="2.6"></path><path d="M-125,33q26-1.3 21.9-6q-4.4-5 -10.9,11.9q-2.6,6.8 4,10.1" fill="none" stroke="#ffffff" stroke-width="2.6"></path><path d="M-90,32q-7.4,18.6 0,13.7q6.1-7.8 10.2-15q3.3,4.7 5.8,13.3" fill="none" stroke="#ffffff" stroke-width="2.6"></path><path d="M-62,10Q-66.4,37.2 -64,36" fill="none" stroke="#ffffff" stroke-width="2.6"></path><path d="M-50,31q-1.8-2.9 -2.8,1.7q-1,4.8 15.1,13.1" fill="none" stroke="#ffffff" stroke-width="2.6"></path><path d="M15,37Q21.5,10.8 35,27.9Q41.5,36.2 30.6,47.1Q25.2,52.5 7.7,47.2" fill="none" stroke="#ffffff" stroke-width="2.6"></path><path d="M22,37q7.8,9.8 14,18" fill="none" stroke="#ffffff" stroke-width="2.6"></path><path d="M48,35q4.5,13.9 11.6,13q6.3-7.4 10-15.8q1.6,4.5 2.4,12.8" fill="none" stroke="#ffffff" stroke-width="2.6"></path><path d="M77,40q11.3-5 7.5-7q-5.2-2.7 -6.9,11.4q-.6,5.6 8.7,8.1" fill="none" stroke="#ffffff" stroke-width="2.6"></path><path d="M98,22q-4.3,31.1 -2,30" fill="none" stroke="#ffffff" stroke-width="2.6"></path><path d="M109,18q.3,15.9 1,29" fill="none" stroke="#ffffff" stroke-width="2.6"></path><path d="M123,37q3.2-6 1.4-5.7q-2.8,.3 -2,12q.9,11.2 17.1-10.4q4.6-6.1 5-2.7q.4,3.4 -6.5,10.1q1.4-1.3 4-3.7q3.7-3.5 19,7.9" fill="none" stroke="#ffffff" stroke-width="2.6"></path><path d="M243,-137q11.5-3.3 12,2.4q-2,19.6 -5.3,35.6q-4.3,20.6 7.8,39.8q5.8,9.2 26.8,3.6q.4-.1 .7-.2q-1.1,3.1 -4.4,7.5q-4.4,5.9 7.7,47.6q16.3,56.4 -36,38.5" fill="none" stroke="#ffffff" stroke-width="2.6"></path><path d="M345,-77q4,31.5 4,44" fill="none" stroke="#ffffff" stroke-width="2.6"></path><path d="M348,-65q12.6-8.2 19.2-5.7q7.3,2.7 -2.3,18.1q-9.8,15.5 -24.6,6.4" fill="none" stroke="#ffffff" stroke-width="2.6"></path><path d="M375,-58q4.5,38.6 -3.1,32.7q1.1-10.1 6.1-19.7" fill="none" stroke="#ffffff" stroke-width="2.6"></path><path d="M388,-45q-3.6,12.8 6.3,18.9q.9,.5 9.7-3.9" fill="none" stroke="#ffffff" stroke-width="2.6"></path><path d="M396,-55q3.3,3.3 6,6" fill="none" stroke="#ffffff" stroke-width="2.6"></path><path d="M431,-71q-9.1,12.6 -12.1,25.5q-.9,11.8 -.9,21.5" fill="none" stroke="#ffffff" stroke-width="2.6"></path><path d="M402,-33q22.9-1.6 20-3" fill="none" stroke="#ffffff" stroke-width="2.6"></path><path d="M432,-41q.1,14.9 5,14.8" fill="none" stroke="#ffffff" stroke-width="2.6"></path><path d="M451,-43q6.9,16.9 5,14" fill="none" stroke="#ffffff" stroke-width="2.6"></path><path d="M456,-41q.2,9.9 0,18" fill="none" stroke="#ffffff" stroke-width="2.6"></path><path d="M463,-28q8.1-6.7 13.4-3.5q2.7,2.9 4.6,5.5" fill="none" stroke="#ffffff" stroke-width="2.6"></path><path d="M494,-41q-6.6,13 -5.7,17.5" fill="none" stroke="#ffffff" stroke-width="2.6"></path><path d="M492,-26q12.3-6.5 15.5,2.2q3.1,8.5 -17.5,18.8" fill="none" stroke="#ffffff" stroke-width="2.6"></path><path d="M524,-36q1.9-1.7 1.5-1.9q-6.2-2.3 -11.2,14.2q.3,9 1.7,16.5q-3.4-.9 -8-3.8" fill="none" stroke="#ffffff" stroke-width="2.6"></path><path d="M540,-33q7.1,15.4 7.1,15.4q4.6-13.1 9.9-23.4" fill="none" stroke="#ffffff" stroke-width="2.6"></path><path d="M562,-29q3.8-12.1 .9-12.1q-3.3,0 -1.6,17.7q1.7,4.7 3.7,8.4" fill="none" stroke="#ffffff" stroke-width="2.6"></path><path d="M582,-59q0,19.8 0,36" fill="none" stroke="#ffffff" stroke-width="2.6"></path><path d="M603,-40q3.2-2.5 2.7-2.3q-7.8,3.2 -5.4,19.5" fill="none" stroke="#ffffff" stroke-width="2.6"></path><path d="M616,-41q4.1,20.7 10.1,19.5q9.8-11.3 15.6-24" fill="none" stroke="#ffffff" stroke-width="2.6"></path><path d="M649,-44q-17,17.1 -15.4,26.4q.7,3.7 9.3-6.1q10.8-12.3 11.2-12.3q1.9,4.4 1.9,10" fill="none" stroke="#ffffff" stroke-width="2.6"></path><path d="M670,-33q-2.6,8.9 -1.9,8.6q7,.1 12.9,1.4" fill="none" stroke="#ffffff" stroke-width="2.6"></path><path d="M694,-61q-7.8,37.9 -8,38" fill="none" stroke="#ffffff" stroke-width="2.6"></path><path d="M672,-28q21.4,.4 39.7-4.8" fill="none" stroke="#ffffff" stroke-width="2.6"></path></svg>