<svg viewBox="-97.8 -5 424.6 176.8" width="424.6" height="176.8" version="1.1" baseProfile="full" xmlns="http://www.w3.org/2000/svg" class="js-draw--autoresize"><style id="js-draw-style-sheet">path{stroke-linecap:round;stroke-linejoin:round;}text{white-space:pre;}</style><g class="js-draw-image-background js-draw-image-background-grid js-draw-image-background-grid-25"><path d="M326.8,171.8L326.8,-5L-97.8,-5L-97.8,171.8L326.8,171.8" fill="#03035e"></path><path d="M-98.15,0L327.15,0M-98.15,25L327.15,25M-98.15,50L327.15,50M-98.15,75L327.15,75M-98.15,100L327.15,100M-98.15,125L327.15,125M-98.15,150L327.15,150M-75,-5.35L-75,172.15M-50,-5.35L-50,172.15M-25,-5.35L-25,172.15M0,-5.35L0,172.15M25,-5.35L25,172.15M50,-5.35L50,172.15M75,-5.35L75,172.15M100,-5.35L100,172.15M125,-5.35L125,172.15M150,-5.35L150,172.15M175,-5.35L175,172.15M200,-5.35L200,172.15M225,-5.35L225,172.15M250,-5.35L250,172.15M275,-5.35L275,172.15M300,-5.35L300,172.15M325,-5.35L325,172.15" fill="none" stroke="#fcfca133" stroke-width=".7"></path></g><path d="M-93,-1Q-96.7,33.1 -95.6,45.2" fill="none" stroke="#f0f0f0" stroke-width="1.6"></path><path d="M-97,12Q-91,-4.2 -83.2,-1.9Q-77.6,-.3 -77.9,11.8Q-78,21.1 -92.1,17.9Q-93.1,17.6 -81.3,32.9Q-76.6,40.5 -73,47" fill="none" stroke="#f0f0f0" stroke-width="1.6"></path><path d="M-56,33q-.6,11 -1,20" fill="none" stroke="#f0f0f0" stroke-width="1.6"></path><path d="M-58,13q.6-.6 1-1" fill="none" stroke="#f0f0f0" stroke-width="1.6"></path><path d="M-39,16q10.4-.9 19-1" fill="none" stroke="#f0f0f0" stroke-width="1.6"></path><path d="M-33,27q9-4.3 18-6" fill="none" stroke="#f0f0f0" stroke-width="1.6"></path><path d="M36,8Q35.9,23.4 36,36" fill="none" stroke="#f0f0f0" stroke-width="1.6"></path><path d="M35,16Q55.2,9.6 52,13Q36.5,29.4 60.3,41.8" fill="none" stroke="#f0f0f0" stroke-width="1.6"></path><path d="M92,14q2.8,11.8 .3,22.5" fill="none" stroke="#f0f0f0" stroke-width="1.6"></path><path d="M90,25q8.8,.5 16,1" fill="none" stroke="#f0f0f0" stroke-width="1.6"></path><path d="M121,15q10.8,.8 11.7,7.3q-3.3,7.9 -7.8,14q2.8,0 7.1-1.3" fill="none" stroke="#f0f0f0" stroke-width="1.6"></path><path d="M162,15q-.9,25.6 -2,25" fill="none" stroke="#f0f0f0" stroke-width="1.6"></path><path d="M160,21q8.5-8.3 18.7-3.1q1.7,.8 -10.1,8.6q-15.4,10.1 12.4,13.3" fill="none" stroke="#f0f0f0" stroke-width="1.6"></path><path d="M204,24q14.3-2.9 26-5" fill="none" stroke="#f0f0f0" stroke-width="1.6"></path><path d="M216,29q6.2-2.3 15-2" fill="none" stroke="#f0f0f0" stroke-width="1.6"></path><path d="M272,14q19.9-3.5 13.4,4.6q-8.7,3.7 -17,5.1q6.3,3.6 18.1,7.1q4.5,1.4 1.1,3.6q-2.3,1.5 -29.9,1.4" fill="none" stroke="#f0f0f0" stroke-width="1.6"></path><path d="M308,14q-3.1,12.1 -6,22" fill="none" stroke="#f0f0f0" stroke-width="1.6"></path><path d="M306,13q11.1-.9 15,9q3.5,8.8 -11.1,9.5q-2.1-1 -3.7-2.2q7.1,4.3 19.8,12.7" fill="none" stroke="#f0f0f0" stroke-width="1.6"></path><path d="M-89,112q-6.8,17.3 0,31.4q4.5,9.2 11.3-.1q6.5-8.8 4.3-26.6q2.1,5.4 5,15.6q.6,1.9 4.4,8.7" fill="none" stroke="#f0f0f0" stroke-width="1.6"></path><path d="M-49,131q-5.5-1.8 -6.9,10.5q-1.7,15.4 9,4.4q3.1-6 4.9-11.4q.3-1 1.6,11.7q.4,13.6 .4,24.8" fill="none" stroke="#f0f0f0" stroke-width="1.6"></path><path d="M-20,122q15-2.1 15-1" fill="none" stroke="#f0f0f0" stroke-width="1.6"></path><path d="M-18,128q9.3-.7 17-1" fill="none" stroke="#f0f0f0" stroke-width="1.6"></path></svg>