<svg viewBox="4.7 66.8 1050.6 446.7" width="1050.6" height="446.7" version="1.1" baseProfile="full" xmlns="http://www.w3.org/2000/svg" class="js-draw--autoresize"><style id="js-draw-style-sheet">path{stroke-linecap:round;stroke-linejoin:round;}text{white-space:pre;}</style><g class="js-draw-image-background js-draw-image-background-grid js-draw-image-background-grid-25"><path d="M1055.3,513.5L1055.3,66.8L4.7,66.8L4.7,513.5L1055.3,513.5" fill="#03035e"></path><path d="M4.35,75L1055.65,75M4.35,100L1055.65,100M4.35,125L1055.65,125M4.35,150L1055.65,150M4.35,175L1055.65,175M4.35,200L1055.65,200M4.35,225L1055.65,225M4.35,250L1055.65,250M4.35,275L1055.65,275M4.35,300L1055.65,300M4.35,325L1055.65,325M4.35,350L1055.65,350M4.35,375L1055.65,375M4.35,400L1055.65,400M4.35,425L1055.65,425M4.35,450L1055.65,450M4.35,475L1055.65,475M4.35,500L1055.65,500M25,66.45L25,513.85M50,66.45L50,513.85M75,66.45L75,513.85M100,66.45L100,513.85M125,66.45L125,513.85M150,66.45L150,513.85M175,66.45L175,513.85M200,66.45L200,513.85M225,66.45L225,513.85M250,66.45L250,513.85M275,66.45L275,513.85M300,66.45L300,513.85M325,66.45L325,513.85M350,66.45L350,513.85M375,66.45L375,513.85M400,66.45L400,513.85M425,66.45L425,513.85M450,66.45L450,513.85M475,66.45L475,513.85M500,66.45L500,513.85M525,66.45L525,513.85M550,66.45L550,513.85M575,66.45L575,513.85M600,66.45L600,513.85M625,66.45L625,513.85M650,66.45L650,513.85M675,66.45L675,513.85M700,66.45L700,513.85M725,66.45L725,513.85M750,66.45L750,513.85M775,66.45L775,513.85M800,66.45L800,513.85M825,66.45L825,513.85M850,66.45L850,513.85M875,66.45L875,513.85M900,66.45L900,513.85M925,66.45L925,513.85M950,66.45L950,513.85M975,66.45L975,513.85M1000,66.45L1000,513.85M1025,66.45L1025,513.85M1050,66.45L1050,513.85" fill="none" stroke="#fcfca133" stroke-width=".7"></path></g><path d="M248,90q1-9.4 12.3-21.4q.4-.5 3.3,8.5q1.7,5.3 -14.2,3.5q-2-.3 -6.2,22.1q-3.1,11.3 -6,20.4q1.2-.2 2.8-1.1" fill="none" stroke="#ffffff" stroke-width="2.6"></path><path d="M307,82q.2-2.6 7.3-1.8q2.5,.3 12.7,1.8" fill="none" stroke="#ffffff" stroke-width="2.6"></path><path d="M307,93q11.6,.4 21,1" fill="none" stroke="#ffffff" stroke-width="2.6"></path><path d="M392,93q14.4-23.9 18.1-18.2q10.8,16.4 3.6,18.8q-4.1,1.3 -19.4-2.1" fill="none" stroke="#ffffff" stroke-width="2.6"></path><path d="M432,87q-.4-11.3 6.9-13.3q7.7-2 11,9.7q2.2,7.7 -11.4,8q-4.2,.1 -6.5-3.4" fill="none" stroke="#ffffff" stroke-width="2.6"></path><path d="M440,88q22.7,6.6 16,10" fill="none" stroke="#ffffff" stroke-width="2.6"></path><path d="M374,111q83.1,1.2 79.5,6.8q-.7-.6 -1.3-1.6q-1.3-2.1 23.3-1.3q6.4,.2 6.5,.1" fill="none" stroke="#ffffff" stroke-width="2.6"></path><path d="M383,159q7.8-10.3 14-18.9q1.7-2.3 3.8,22.3q1.2,13.9 -12.5,4.5q-3.8-2.6 -2.3-4.9" fill="none" stroke="#ffffff" stroke-width="2.6"></path><path d="M434,147q8.2,22.5 13.1,21.9q.8-.1 9.2-19.8q1.1-2.6 7.7-12.1" fill="none" stroke="#ffffff" stroke-width="2.6"></path><path d="M6,247Q8.8,259 16.2,265.9Q23.5,272.6 23.2,253Q23,244.1 24.6,243.3" fill="none" stroke="#ffffff" stroke-width="2.6"></path><path d="M38,257q-.2,9.9 0,18" fill="none" stroke="#ffffff" stroke-width="2.6"></path><path d="M37,264q1.2-10.6 13.6,.5q10.7,9.6 -6.2,17q-1.1,.4 -5.4-2.5" fill="none" stroke="#ffffff" stroke-width="2.6"></path><path d="M90,255q21.9-4.2 15,2" fill="none" stroke="#ffffff" stroke-width="2.6"></path><path d="M93,261q8.8,.3 16,1" fill="none" stroke="#ffffff" stroke-width="2.6"></path><path d="M183,243q.9,4.1 1.7,15.5q.3,4.7 -11.4,.2" fill="none" stroke="#ffffff" stroke-width="2.6"></path><path d="M186,227q.5-1.1 1-2" fill="none" stroke="#ffffff" stroke-width="2.6"></path><path d="M127,277q71-1 110,3.3" fill="none" stroke="#ffffff" stroke-width="2.6"></path><path d="M133,299q5.3,21.9 9.7,17.3q9-9.6 14.2-10.5q4.2-.8 9.1,11.5" fill="none" stroke="#ffffff" stroke-width="2.6"></path><path d="M183,313q0,.6 0,1" fill="none" stroke="#ffffff" stroke-width="2.6"></path><path d="M209,315q15.6-13 11.1-14.3q-5.5-1.5 -8.9,12.8q-1.7,7.2 24.8,6.5" fill="none" stroke="#ffffff" stroke-width="2.6"></path><path d="M691,89q12.8,29 16.2,17.9q6.2-20.6 5.8-20.9" fill="none" stroke="#ffffff" stroke-width="2.7"></path><path d="M724,106q-.4,13.6 -1,13" fill="none" stroke="#ffffff" stroke-width="2.7"></path><path d="M724,111q3-4.4 8.7-2.6q16.6,5.2 8.1,18.4q-7.5,2.7 -14.8,3.2" fill="none" stroke="#ffffff" stroke-width="2.7"></path><path d="M769,103q25.1-5.3 22-2" fill="none" stroke="#ffffff" stroke-width="2.7"></path><path d="M771,112q21-1.7 20,0" fill="none" stroke="#ffffff" stroke-width="2.7"></path><path d="M862,78q-1,12.1 -2,22" fill="none" stroke="#ffffff" stroke-width="2.7"></path><path d="M821,118q-2.2-.1 -1.3-.5q18.3-6.7 70.5-5.8q2.6,0 12.6,3.4" fill="none" stroke="#ffffff" stroke-width="2.7"></path><path d="M823,161q9.8-14.7 17.7-26.8q2.1,6.1 2.7,16.6q0,1.6 -.4,8.2" fill="none" stroke="#ffffff" stroke-width="2.7"></path><path d="M828,157q16.5-4.7 17-2" fill="none" stroke="#ffffff" stroke-width="2.7"></path><path d="M862,147q1.6-1.1 3-2" fill="none" stroke="#ffffff" stroke-width="2.7"></path><path d="M880,151q1.5-12.7 12.9-10.2q6.4,1.5 .6,7.1q-10.2,2.8 -19.5,3.1q-.2,0 -8.5,18.9q-3,6.2 -5.5,11.1" fill="none" stroke="#ffffff" stroke-width="2.7"></path><path d="M933,106q14,.4 13,0" fill="none" stroke="#ffffff" stroke-width="2.6"></path><path d="M933,112q24.4,.5 23,0" fill="none" stroke="#ffffff" stroke-width="2.6"></path><path d="M1020,94q-.3-2.6 -.2-2q3.5,15.6 2.7,18.8q-2.7,10.3 -16.3-3" fill="none" stroke="#ffffff" stroke-width="2.6"></path><path d="M1017,79q-.2-.2 -1-1" fill="none" stroke="#ffffff" stroke-width="2.6"></path><path d="M978,128q70.6,1.2 76,5" fill="none" stroke="#ffffff" stroke-width="2.6"></path><path d="M996,196q1.7-40.7 9.1-48.4q6.9-7.1 14.7,16.2q1.4,4.1 -14.2,4.7" fill="none" stroke="#ffffff" stroke-width="2.6"></path><path d="M295,261q18.7-.5 18,0" fill="none" stroke="#ffffff" stroke-width="2.9"></path><path d="M300,268q7.7,2.7 14,5" fill="none" stroke="#ffffff" stroke-width="2.9"></path><path d="M392,258q3,13.4 -.6,17.2q-1.2,1.2 -4.4-7.2" fill="none" stroke="#ffffff" stroke-width="2.9"></path><path d="M390,235q1.1,0 2,0" fill="none" stroke="#ffffff" stroke-width="2.9"></path><path d="M365,283q52.8-3.4 36,1" fill="none" stroke="#ffffff" stroke-width="2.9"></path><path d="M386,310q-9.3-9.2 -.6-13.5q8.4-4.2 16.3,5.9q7.2,9.3 -19,16.1q-9.7,2.5 -10,30.1" fill="none" stroke="#ffffff" stroke-width="2.9"></path><path d="M113,507q-1,5 -1,4q-3-3 1-29q4-21 22-20q11,0 3,16q-6,15 -18,3" fill="none" stroke="#ffffff" stroke-width="3"></path><path d="M157,473q32-5 27-3" fill="none" stroke="#ffffff" stroke-width="3"></path><path d="M158,478q24-1 31,0" fill="none" stroke="#ffffff" stroke-width="3"></path><path d="M237,464q1,31 1,28q2-17 20-15q4,4 6,9" fill="none" stroke="#ffffff" stroke-width="3"></path><path d="M275,481q-1,1 -1,1" fill="none" stroke="#ffffff" stroke-width="3"></path><path d="M305,476q23-2 25-8q1-6 -15,8q-16,14 0,21q11-1 20-4" fill="none" stroke="#ffffff" stroke-width="3"></path></svg>