<svg viewBox="-470.8 -263.25 1012.4 445.85" width="1012.4" height="445.85" version="1.1" baseProfile="full" xmlns="http://www.w3.org/2000/svg" class="js-draw--autoresize"><style id="js-draw-style-sheet">path{stroke-linecap:round;stroke-linejoin:round;}text{white-space:pre;}</style><g class="js-draw-image-background js-draw-image-background-grid js-draw-image-background-grid-25"><path d="M541.6,182.6l0-445.85l-1012.4,0l0,445.85l1012.4,0" fill="#03035e"></path><path d="M-471.15,-250l1013.1,0m-1013.1,25l1013.1,0m-1013.1,25l1013.1,0m-1013.1,25l1013.1,0m-1013.1,25l1013.1,0m-1013.1,25l1013.1,0m-1013.1,25l1013.1,0m-1013.1,25l1013.1,0m-1013.1,25l1013.1,0m-1013.1,25l1013.1,0m-1013.1,25l1013.1,0m-1013.1,25l1013.1,0m-1013.1,25l1013.1,0m-1013.1,25l1013.1,0m-1013.1,25l1013.1,0m-1013.1,25l1013.1,0m-1013.1,25l1013.1,0m-1013.1,25l1013.1,0m-991.95-438.6l0,446.55m25-446.55l0,446.55m25-446.55l0,446.55m25-446.55l0,446.55m25-446.55l0,446.55m25-446.55l0,446.55m25-446.55l0,446.55m25-446.55l0,446.55m25-446.55l0,446.55m25-446.55l0,446.55m25-446.55l0,446.55m25-446.55l0,446.55m25-446.55l0,446.55m25-446.55l0,446.55m25-446.55l0,446.55m25-446.55l0,446.55m25-446.55l0,446.55m25-446.55l0,446.55m25-446.55l0,446.55m25-446.55l0,446.55m25-446.55l0,446.55m25-446.55l0,446.55m25-446.55l0,446.55m25-446.55l0,446.55m25-446.55l0,446.55m25-446.55l0,446.55m25-446.55l0,446.55m25-446.55l0,446.55m25-446.55l0,446.55m25-446.55l0,446.55m25-446.55l0,446.55m25-446.55l0,446.55m25-446.55l0,446.55m25-446.55l0,446.55m25-446.55l0,446.55m25-446.55l0,446.55m25-446.55l0,446.55m25-446.55l0,446.55m25-446.55l0,446.55m25-446.55l0,446.55" fill="none" stroke="#fcfca133" stroke-width=".7"></path></g><path d="M248,-262q.2,.2 0,.2q-.2,0 -.2-.2q0-.2 .2-.2q.2,0 .2,.2" fill="none" stroke="#f0f0f0" stroke-width="2.1"></path><path d="M-470,-4Q-467.8,26.8 -467,21.9Q-463,-1 -453.2,5.6Q-452.2,6.2 -450.3,19.2" fill="none" stroke="#f0f0f0" stroke-width="1.6"></path><path d="M-442,16q.9,5.5 1.6,10q1.4-2.8 2.8-8.1q1.6,1.7 3.3,5.1q.2,1.1 .3,1.9q1.5-1.3 3.3-4q5.5,1.3 10.7,5.1" fill="none" stroke="#f0f0f0" stroke-width="1.6"></path><path d="M-412,18q-6.8,4.9 -3.6,8.7q2.5-1.6 4.6-4.6q5.3,2.5 10,7.9" fill="none" stroke="#f0f0f0" stroke-width="1.6"></path><path d="M-402,20q5.9,4.6 11,8" fill="none" stroke="#f0f0f0" stroke-width="1.6"></path><path d="M-386,19q-7.9,7.5 -14,14" fill="none" stroke="#f0f0f0" stroke-width="1.6"></path><path d="M-378,12Q-357.2,8.6 -362,11" fill="none" stroke="#f0f0f0" stroke-width="1.6"></path><path d="M-377,17q12.1-.7 22-1" fill="none" stroke="#f0f0f0" stroke-width="1.6"></path><path d="M-337,-1Q-331.7,17.7 -331.7,17.6Q-328.5,10.4 -323,12.5Q-320.9,13.3 -313,18" fill="none" stroke="#f0f0f0" stroke-width="1.6"></path><path d="M-310,17q-.6-3.9 4.5-2.1q12.7,4.5 6.5,8.8q-6.1,4.2 -10-6.5" fill="none" stroke="#f0f0f0" stroke-width="1.6"></path><path d="M-287,2Q-279,18.5 -278,18" fill="none" stroke="#f0f0f0" stroke-width="1.6"></path><path d="M-288,9Q-281.4,9.6 -276,10" fill="none" stroke="#f0f0f0" stroke-width="1.6"></path><path d="M-250,0Q-238.3,17.5 -238.3,17.3Q-235.2,6.2 -233,-3" fill="none" stroke="#f0f0f0" stroke-width="1.6"></path><path d="M-230,18q6.7-7.6 13.6-1.4q2.8,2.5 -5.1,3q-.9,.1 -4.5-1.6" fill="none" stroke="#f0f0f0" stroke-width="1.6"></path><path d="M-216,16q6.6,4.4 12,8" fill="none" stroke="#f0f0f0" stroke-width="1.6"></path><path d="M-199,18q-7.6,17.1 -7,18" fill="none" stroke="#f0f0f0" stroke-width="1.6"></path><path d="M-216,-22q8.9,.4 7,3.7q-3.7,6.6 -2.2,9.5q4.6,2.6 9.2,3.8" fill="none" stroke="#f0f0f0" stroke-width="1.6"></path><path d="M-255,35q33,5.1 60,9" fill="none" stroke="#f0f0f0" stroke-width="1.6"></path><path d="M-242,57q9.4-1 8.4,9.9q-.9,6.7 -1.6,12.1q4-.4 9.2-3" fill="none" stroke="#f0f0f0" stroke-width="1.6"></path><path d="M-208,69q-11.1,1.8 -6.9,6.5q3.6,4.1 11.4-1.8q.9-2 1.2-3.9q2.3,6.7 4.2,19.1q1,6.3 -17.6,4.9" fill="none" stroke="#f0f0f0" stroke-width="1.6"></path><path d="M21,0Q24.6,17 28.6,15.8Q39.3,18 48,22" fill="none" stroke="#f0f0f0" stroke-width="1.6"></path><path d="M55,16q1.9,8 3.8,4.8q5.1-8.6 7.9,1.1q.5,1.7 2.2,.5q9.2-1.1 17.1-.4" fill="none" stroke="#f0f0f0" stroke-width="1.6"></path><path d="M91,18q-6.2,8.3 .2,7.2q1.2-2.1 1.5-4.4q5.8,2.6 12.3,9.2" fill="none" stroke="#f0f0f0" stroke-width="1.6"></path><path d="M101,21q10,3.1 10,5" fill="none" stroke="#f0f0f0" stroke-width="1.6"></path><path d="M115,18q-8.8,8.8 -16,16" fill="none" stroke="#f0f0f0" stroke-width="1.6"></path><path d="M142,5Q147.5,5 152,5" fill="none" stroke="#f0f0f0" stroke-width="1.6"></path><path d="M152,10Q147.3,9.4 147.6,9.3Q156,9.7 163,11" fill="none" stroke="#f0f0f0" stroke-width="1.6"></path><path d="M208,2Q203.5,5 206.5,14.9Q209.4,24.5 211.1,19.1Q212.4,15.3 220.3,15.8" fill="none" stroke="#f0f0f0" stroke-width="1.6"></path><path d="M230,21q.7-2.8 11-1.8" fill="none" stroke="#f0f0f0" stroke-width="1.6"></path><path d="M245,29q-16-1.8 -16-5" fill="none" stroke="#f0f0f0" stroke-width="1.6"></path><path d="M266,11q1,10.9 1,9" fill="none" stroke="#f0f0f0" stroke-width="1.6"></path><path d="M261,16q8.3,.5 15,1" fill="none" stroke="#f0f0f0" stroke-width="1.6"></path><path d="M318,9Q324.7,-6 332,-.2Q334,7.1 334,14" fill="none" stroke="#f0f0f0" stroke-width="1.6"></path><path d="M322,17q20.5-.2 20,0" fill="none" stroke="#f0f0f0" stroke-width="1.6"></path><path d="M327,25q19.1,2.6 8.6,10.8q-3.9,3 -2.9,3.9q2,1.8 13.3-1.7" fill="none" stroke="#f0f0f0" stroke-width="1.6"></path><path d="M365,12q-.6,.6 -1,1" fill="none" stroke="#f0f0f0" stroke-width="1.6"></path><path d="M388,12q-5.8,1.9 -4.5,2.9q4,.6 7.5,.3q3.8-.3 8.6,14.3q2.8,8.5 -7.6,5q-1.8-1.7 -3-3.5" fill="none" stroke="#f0f0f0" stroke-width="1.6"></path><path d="M414,19q.5-1.1 1-2" fill="none" stroke="#f0f0f0" stroke-width="1.6"></path><path d="M444,2Q455.8,18.3 460.3,18.8Q464.5,10.1 465,-1" fill="none" stroke="#f0f0f0" stroke-width="1.6"></path><path d="M478,16Q478.3,9.9 485.5,10.9Q496.6,12.5 491.8,19.2Q484.8,19.3 478,17" fill="none" stroke="#f0f0f0" stroke-width="1.6"></path><path d="M499,15q7.2,3.8 13,7" fill="none" stroke="#f0f0f0" stroke-width="1.6"></path><path d="M515,16q-4.1,10.3 -7,19" fill="none" stroke="#f0f0f0" stroke-width="1.6"></path><path d="M500,-15q14-6.5 13,2.9q-1,4.7 -1.9,8.5q8,1.7 18.9-.4" fill="none" stroke="#f0f0f0" stroke-width="1.6"></path><path d="M443,27q38.8,4.8 70.7,7.5" fill="none" stroke="#f0f0f0" stroke-width="1.6"></path><path d="M481,40q-7.8,10.5 -2,11.1q3.4-3.1 5.6-7.1q.8-1.6 6.5,7.1q3.6,5.7 -7.8,11.6q-1.6,.8 -9.3,.3" fill="none" stroke="#f0f0f0" stroke-width="1.6"></path><path d="M433,5Q435.4,1.8 435.7,2.4Q432.9,12.1 427.8,20Q422.2,28.9 431,49.4Q433.3,54.8 443,54.5" fill="none" stroke="#f0f0f0" stroke-width="1.6"></path><path d="M520,17Q523.4,8.7 532.5,22.6Q540.8,35.3 529.8,54.5Q526.9,56.7 524,58" fill="none" stroke="#f0f0f0" stroke-width="1.6"></path><path d="M138,95q6.5-1.3 12-2" fill="none" stroke="#f0f0f0" stroke-width="1.6"></path><path d="M136,110q9.9-.1 18,0" fill="none" stroke="#f0f0f0" stroke-width="1.6"></path><path d="M438,100q17.9,21.4 19.8,16.2q.5-5.4 .5-9.8q-.1-1.8 4.7-7.4" fill="none" stroke="#f0f0f0" stroke-width="1.6"></path><path d="M470,120q-1-5.7 6.8-6.7q11.2-1.4 10.1,7.6q-.5,4.5 -15.2,3.6" fill="none" stroke="#f0f0f0" stroke-width="1.6"></path><path d="M486,113q8.5,9.1 16,16" fill="none" stroke="#f0f0f0" stroke-width="1.6"></path><path d="M507,118q-13.5,27.2 -11,26" fill="none" stroke="#f0f0f0" stroke-width="1.6"></path><path d="M513,89q14-2.7 11.1,6.4q-2,6 1.2,9.6q2,2.2 14.7,0" fill="none" stroke="#f0f0f0" stroke-width="1.6"></path><path d="M437,143q29.5-2.2 68,1.5" fill="none" stroke="#f0f0f0" stroke-width="1.6"></path><path d="M476,155q-11.4,12.9 -4.8,13.5q6.7-4 11.6-9.1q3.9-4.1 5.6,9.6q1.3,10.9 -19.4,12.8" fill="none" stroke="#f0f0f0" stroke-width="1.6"></path><path d="M365,115q14.5-11.7 17.4-10.2q1.7,8 .6,16.2" fill="none" stroke="#f0f0f0" stroke-width="1.6"></path><path d="M366,131q32.8-5.4 26-2" fill="none" stroke="#f0f0f0" stroke-width="1.6"></path><path d="M376,138q16.6-1.3 20.8,7.7q-6.5,9.1 -16.7,15.7q8,2.8 21.9,3.6" fill="none" stroke="#f0f0f0" stroke-width="1.6"></path></svg>