<svg viewBox="-157.3 -140.85 1579.2 2514.75" width="1579.2" height="2514.75" version="1.1" baseProfile="full" xmlns="http://www.w3.org/2000/svg" class="js-draw--autoresize"><style id="js-draw-style-sheet">path{stroke-linecap:round;stroke-linejoin:round;}text{white-space:pre;}</style><g class="js-draw-image-background js-draw-image-background-grid js-draw-image-background-grid-25"><path d="M1421.9,2373.9l0-2514.75l-1579.2-8.526512829121202e-14l0,2514.75l1579.2,0" fill="#03035e"></path><path d="M-157.65,-125l1579.9,0m-1579.9,25l1579.9,0m-1579.9,25l1579.9,0m-1579.9,25l1579.9,0m-1579.9,25l1579.9,0m-1579.9,25l1579.9,0m-1579.9,25l1579.9,0m-1579.9,25l1579.9,0m-1579.9,25l1579.9,0m-1579.9,25l1579.9,0m-1579.9,25l1579.9,0m-1579.9,25l1579.9,0m-1579.9,25l1579.9,0m-1579.9,25l1579.9,0m-1579.9,25l1579.9,0m-1579.9,25l1579.9,0m-1579.9,25l1579.9,0m-1579.9,25l1579.9,0m-1579.9,25l1579.9,0m-1579.9,25l1579.9,0m-1579.9,25l1579.9,0m-1579.9,25l1579.9,0m-1579.9,25l1579.9,0m-1579.9,25l1579.9,0m-1579.9,25l1579.9,0m-1579.9,25l1579.9,0m-1579.9,25l1579.9,0m-1579.9,25l1579.9,0m-1579.9,25l1579.9,0m-1579.9,25l1579.9,0m-1579.9,25l1579.9,0m-1579.9,25l1579.9,0m-1579.9,25l1579.9,0m-1579.9,25l1579.9,0m-1579.9,25l1579.9,0m-1579.9,25l1579.9,0m-1579.9,25l1579.9,0m-1579.9,25l1579.9,0m-1579.9,25l1579.9,0m-1579.9,25l1579.9,0m-1579.9,25l1579.9,0m-1579.9,25l1579.9,0m-1579.9,25l1579.9,0m-1579.9,25l1579.9,0m-1579.9,25l1579.9,0m-1579.9,25l1579.9,0m-1579.9,25l1579.9,0m-1579.9,25l1579.9,0m-1579.9,25l1579.9,0m-1579.9,25l1579.9,0m-1579.9,25l1579.9,0m-1579.9,25l1579.9,0m-1579.9,25l1579.9,0m-1579.9,25l1579.9,0m-1579.9,25l1579.9,0m-1579.9,25l1579.9,0m-1579.9,25l1579.9,0m-1579.9,25l1579.9,0m-1579.9,25l1579.9,0m-1579.9,25l1579.9,0m-1579.9,25l1579.9,0m-1579.9,25l1579.9,0m-1579.9,25l1579.9,0m-1579.9,25l1579.9,0m-1579.9,25l1579.9,0m-1579.9,25l1579.9,0m-1579.9,25l1579.9,0m-1579.9,25l1579.9,0m-1579.9,25l1579.9,0m-1579.9,25l1579.9,0m-1579.9,25l1579.9,0m-1579.9,25l1579.9,0m-1579.9,25l1579.9,0m-1579.9,25l1579.9,0m-1579.9,25l1579.9,0m-1579.9,25l1579.9,0m-1579.9,25l1579.9,0m-1579.9,25l1579.9,0m-1579.9,25l1579.9,0m-1579.9,25l1579.9,0m-1579.9,25l1579.9,0m-1579.9,25l1579.9,0m-1579.9,25l1579.9,0m-1579.9,25l1579.9,0m-1579.9,25l1579.9,0m-1579.9,25l1579.9,0m-1579.9,25l1579.9,0m-1579.9,25l1579.9,0m-1579.9,25l1579.9,0m-1579.9,25l1579.9,0m-1579.9,25l1579.9,0m-1579.9,25l1579.9,0m-1579.9,25l1579.9,0m-1579.9,25l1579.9,0m-1579.9,25l1579.9,0m-1579.9,25l1579.9,0m-1579.9,25l1579.9,0m-1579.9,25l1579.9,0m-1579.9,25l1579.9,0m-1579.9,25l1579.9,0m-1572.25-2491.2l0,2515.45m25-2515.45l0,2515.45m25-2515.45l0,2515.45m25-2515.45l0,2515.45m25-2515.45l0,2515.45m25-2515.45l0,2515.45m25-2515.45l0,2515.45m25-2515.45l0,2515.45m25-2515.45l0,2515.45m25-2515.45l0,2515.45m25-2515.45l0,2515.45m25-2515.45l0,2515.45m25-2515.45l0,2515.45m25-2515.45l0,2515.45m25-2515.45l0,2515.45m25-2515.45l0,2515.45m25-2515.45l0,2515.45m25-2515.45l0,2515.45m25-2515.45l0,2515.45m25-2515.45l0,2515.45m25-2515.45l0,2515.45m25-2515.45l0,2515.45m25-2515.45l0,2515.45m25-2515.45l0,2515.45m25-2515.45l0,2515.45m25-2515.45l0,2515.45m25-2515.45l0,2515.45m25-2515.45l0,2515.45m25-2515.45l0,2515.45m25-2515.45l0,2515.45m25-2515.45l0,2515.45m25-2515.45l0,2515.45m25-2515.45l0,2515.45m25-2515.45l0,2515.45m25-2515.45l0,2515.45m25-2515.45l0,2515.45m25-2515.45l0,2515.45m25-2515.45l0,2515.45m25-2515.45l0,2515.45m25-2515.45l0,2515.45m25-2515.45l0,2515.45m25-2515.45l0,2515.45m25-2515.45l0,2515.45m25-2515.45l0,2515.45m25-2515.45l0,2515.45m25-2515.45l0,2515.45m25-2515.45l0,2515.45m25-2515.45l0,2515.45m25-2515.45l0,2515.45m25-2515.45l0,2515.45m25-2515.45l0,2515.45m25-2515.45l0,2515.45m25-2515.45l0,2515.45m25-2515.45l0,2515.45m25-2515.45l0,2515.45m25-2515.45l0,2515.45m25-2515.45l0,2515.45m25-2515.45l0,2515.45m25-2515.45l0,2515.45m25-2515.45l0,2515.45m25-2515.45l0,2515.45m25-2515.45l0,2515.45m25-2515.45l0,2515.45" fill="none" stroke="#fcfca133" stroke-width=".7"></path></g><path d="M-119,-46.8q-1.1,21.5 -1.6,21.1" fill="none" stroke="#f0f0f0" stroke-width="2"></path><path d="M-126.7,-55.6q18.3-1.4 18-.5" fill="none" stroke="#f0f0f0" stroke-width="2"></path><path d="M-128.8,-21.1q9.6,.2 17.5,.6" fill="none" stroke="#f0f0f0" stroke-width="2"></path><path d="M-88.1,-42.7q15-3.5 15.4-2.6" fill="none" stroke="#f0f0f0" stroke-width="2"></path><path d="M-85.5,-35.5q6.8-1.7 12.3-3.1" fill="none" stroke="#f0f0f0" stroke-width="2"></path><path d="M2.5,-42.8Q2.6,-23.9 9.5,-24.5Q15.1,-25 14.9,-43.7Q16.6,-38.1 18.8,-27.5" fill="none" stroke="#f0f0f0" stroke-width="2"></path><path d="M30.9,-28q-7.6,7.3 -3.3,9q7.3,2.8 6.5-9q0-.6 -2.6-1.6" fill="none" stroke="#f0f0f0" stroke-width="2"></path><path d="M50.4,-32.2q3.3-1.1 12.6-1.1" fill="none" stroke="#f0f0f0" stroke-width="2"></path><path d="M93.1,-47.5q1.3,13.6 8.4,14.9q5.6,1.1 2.8-12.8q-.1,0 -.2,0" fill="none" stroke="#f0f0f0" stroke-width="2"></path><path d="M107.3,-30.1q8.3-5.4 10.3-1.8q.8,5.8 .7,10.7" fill="none" stroke="#f0f0f0" stroke-width="2"></path><path d="M141.5,-43.8q1.7,10.5 1.1,10.5" fill="none" stroke="#f0f0f0" stroke-width="2"></path><path d="M136.8,-38q4.3,.6 7.9,1" fill="none" stroke="#f0f0f0" stroke-width="2"></path><path d="M160.5,-43.3q3.4,9.3 10.3,10.1q7.7,.9 6.6-11.4q-.2-.1 -.5,0q-1.7,.3 3,8.1" fill="none" stroke="#f0f0f0" stroke-width="2"></path><path d="M187.8,-33.3q3.9-2 4.5,2.8q.3,3.4 .4,6.2q0,.7 3.6-.6" fill="none" stroke="#f0f0f0" stroke-width="2"></path><path d="M219.4,-40.7q7.5-1.2 16.4,1.6" fill="none" stroke="#f0f0f0" stroke-width="2"></path><path d="M224.2,-36.5q6.9,.6 12.6,1.1" fill="none" stroke="#f0f0f0" stroke-width="2"></path><path d="M262.6,-37q3.6-7 6.9-5.7q5.8,2.3 2.9,10.4q-1.8,5 -8.4-.5q-.6-.5 .2-3.7" fill="none" stroke="#f0f0f0" stroke-width="2"></path><path d="M-122.7,127q-.4,18.3 1,18.4" fill="none" stroke="#f0f0f0" stroke-width="2"></path><path d="M-109.5,122.8q-.6,11.3 -1.1,20.5" fill="none" stroke="#f0f0f0" stroke-width="2"></path><path d="M-129,118q30.8-1 33.1,0" fill="none" stroke="#f0f0f0" stroke-width="2"></path><path d="M-122.7,147q20.2-.1 22.6,.5" fill="none" stroke="#f0f0f0" stroke-width="2"></path><path d="M-80.6,122.2q8.7,1.7 15.8,3.2" fill="none" stroke="#f0f0f0" stroke-width="2"></path><path d="M-71.1,130.7q9.6,1.1 17.4,2.1" fill="none" stroke="#f0f0f0" stroke-width="2"></path><path d="M-1.1,132.8Q9.9,133.1 11,134.3" fill="none" stroke="#f0f0f0" stroke-width="2"></path><path d="M26.3,121.7q-2.6,6.7 .1,14.6q4,12.1 12.1,3.6q3.8-4.2 2.1-16.3q-.8-.9 -1.7-1.4q1.5,3.5 5.3,9" fill="none" stroke="#f0f0f0" stroke-width="2"></path><path d="M45.8,146.5q3.9,.4 3.4,5.2q-.9,7.2 2.4,6.9" fill="none" stroke="#f0f0f0" stroke-width="2"></path><path d="M64.7,132.8q14-2.3 12.2-.6" fill="none" stroke="#f0f0f0" stroke-width="2"></path><path d="M107.4,124.9q1.2,11.7 9,15q6.9,2.9 7.3-11.2q.2-6.1 -1-4.4" fill="none" stroke="#f0f0f0" stroke-width="2"></path><path d="M127.4,143.3q3.1-1.5 4.8,.7q4,4.8 -.9,5.2q.2,2.6 1.8,5.8q1.5,2.8 -4,3.7q-1.4-1.2 -2.2-2.8" fill="none" stroke="#f0f0f0" stroke-width="2"></path><path d="M153.7,133.3q5.2,9.4 5.3,11" fill="none" stroke="#f0f0f0" stroke-width="2"></path><path d="M155.3,136.5q4.3-.3 7.9-.6" fill="none" stroke="#f0f0f0" stroke-width="2"></path><path d="M181.6,127.5q2,10.4 10.6,11.9q5.7,.9 7.3-13" fill="none" stroke="#f0f0f0" stroke-width="2"></path><path d="M214.8,136.5q-11,10 -7.1,11.1q2.2-.9 4-2.2" fill="none" stroke="#f0f0f0" stroke-width="2"></path><path d="M219,137.5q-.9,12.7 2.7,21.6" fill="none" stroke="#f0f0f0" stroke-width="2"></path><path d="M249,128.6q21.6-3.7 20.1-2.2" fill="none" stroke="#f0f0f0" stroke-width="2"></path><path d="M256.4,133.3q4.3,0 7.9,0" fill="none" stroke="#f0f0f0" stroke-width="2"></path><path d="M287,133.8q-.8-7.2 5.1-6.9q6.6,.3 4.8,6.7q-4,.5 -8.4-.8" fill="none" stroke="#f0f0f0" stroke-width="2"></path><path d="M-33,-124.2q8.4,.9 15.2,1.7" fill="none" stroke="#f0f0f0" stroke-width="2.3"></path><path d="M12,-133.6Q8.3,-110 12,-112.5" fill="none" stroke="#f0f0f0" stroke-width="2.3"></path><path d="M2.7,-139.4Q16.4,-139.7 27.8,-138.8" fill="none" stroke="#f0f0f0" stroke-width="2.3"></path><path d="M5.6,-110.2Q19,-108.1 17.9,-109" fill="none" stroke="#f0f0f0" stroke-width="2.3"></path><path d="M33.1,-110.2q0-.7 0-1.2" fill="none" stroke="#f0f0f0" stroke-width="2.3"></path><path d="M46,-117.2q.5,18.7 -.6,17" fill="none" stroke="#f0f0f0" stroke-width="2.3"></path><path d="M75.2,-133q.3,7.4 .6,13.5" fill="none" stroke="#f0f0f0" stroke-width="2.3"></path><path d="M68.2,-121.9q6.7-1.2 12.3-1.7" fill="none" stroke="#f0f0f0" stroke-width="2.3"></path><path d="M110.3,-129.5q.6,9.4 1.2,17" fill="none" stroke="#f0f0f0" stroke-width="2.3"></path><path d="M100.4,-136.5q15.4-3.1 14.6-1.8" fill="none" stroke="#f0f0f0" stroke-width="2.3"></path><path d="M108.5,-102.6q11.2-.9 20.5-1.1" fill="none" stroke="#f0f0f0" stroke-width="2.3"></path><path d="M138.4,-106.7q10.6-3.4 10.8,2.3q-1.6,5.4 -3.8,9.6q2.2,.9 5.3,1" fill="none" stroke="#f0f0f0" stroke-width="2.3"></path><path d="M177,-127.1q6,12.1 4.7,12.8" fill="none" stroke="#f0f0f0" stroke-width="2.3"></path><path d="M176.4,-119.5q7.1-.7 12.9-1.2" fill="none" stroke="#f0f0f0" stroke-width="2.3"></path><path d="M213.2,-128.9q.5,7.4 1.2,13.5" fill="none" stroke="#f0f0f0" stroke-width="2.3"></path><path d="M205.6,-135.3q2-1.9 14.1-1.2" fill="none" stroke="#f0f0f0" stroke-width="2.3"></path><path d="M208,-110.8q7.7,1.6 14,3" fill="none" stroke="#f0f0f0" stroke-width="2.3"></path><path d="M237.2,-124.2q6.8-2.7 10.2,3q2.1,3.5 -5,5q2,1.7 6,3.4q5.1,2.1 .2,9.1q-1.9,2.6 -10.2,0" fill="none" stroke="#f0f0f0" stroke-width="2.3"></path><path d="M277.6,-128.3q9.2-1.7 21,.6" fill="none" stroke="#f0f0f0" stroke-width="2.3"></path><path d="M279.9,-121.9q4.5,0 8.2,0" fill="none" stroke="#f0f0f0" stroke-width="2.3"></path><path d="M304.5,-119.5q1.2-7.3 6.4-9.8q7.2-3.3 10.6,8.4q1.9,6.9 -9.1,6.2q-1.9-.1 -8.5-4.3" fill="none" stroke="#f0f0f0" stroke-width="2.3"></path><path d="M-119.2,-123q-.9,12.4 -2.1,22.5" fill="none" stroke="#f0f0f0" stroke-width="2"></path><path d="M-128.1,-131.9q12.3-1.5 22.5-2.1" fill="none" stroke="#f0f0f0" stroke-width="2"></path><path d="M-129.2,-92.1q14.5,.5 18.9,2.1" fill="none" stroke="#f0f0f0" stroke-width="2"></path><path d="M-86.2,-120.4q5.8,.7 10.5,2.1" fill="none" stroke="#f0f0f0" stroke-width="2"></path><path d="M-86.7,-112.5q4.9,1.1 8.9,2.1" fill="none" stroke="#f0f0f0" stroke-width="2"></path><path d="M-67.3,-120.9q7.6,3.2 7.7,8.1q-2.7,3.5 -6.1,6" fill="none" stroke="#f0f0f0" stroke-width="2"></path><path d="M-112.9,-47.5q.8-1.2 .6-.7q-3.5,7.8 -2.7,29" fill="none" stroke="#f0f0f0" stroke-width="2"></path><path d="M-69.9,-50.1q8.7,.9 11,5.7q3.1,6.4 -9.4,12.6" fill="none" stroke="#f0f0f0" stroke-width="2"></path><path d="M-23.4,-32.1q4.6-.3 8.3-.5" fill="none" stroke="#f0f0f0" stroke-width="1.9"></path><path d="M-118,121.9q-1.3,21 1,23.6" fill="none" stroke="#f0f0f0" stroke-width="2"></path><path d="M54.5,-42.9q3.1,13.4 4.9,24.5" fill="none" stroke="#f0f0f0" stroke-width="1.9"></path><path d="M-51.9,119.8q11.8,8.2 10.7,17.7q-.8,7 -6.5,7.5" fill="none" stroke="#f0f0f0" stroke-width="2"></path><path d="M-16.6,7.1Q-16.1,6.2 -15.7,12.5Q-14.9,18.5 -14.1,23.3" fill="none" stroke="#f0f0f0" stroke-width="1.9"></path><path d="M-16.6,6.1Q-12,2.5 -7.1,6.4Q-5,8 -8.8,15.7Q-11.9,22.1 -.4,22.3" fill="none" stroke="#f0f0f0" stroke-width="1.9"></path><path d="M4,23.7Q11.5,17.8 10.8,24.7Q10.4,26.9 9.9,28.6" fill="none" stroke="#f0f0f0" stroke-width="1.9"></path><path d="M23.6,17.9q1.5-1 3-1.5" fill="none" stroke="#f0f0f0" stroke-width="1.9"></path><path d="M53.5,10Q57.2,22.9 56.5,22.3" fill="none" stroke="#f0f0f0" stroke-width="1.9"></path><path d="M49.6,5.6Q56.6,4.5 62.4,3.6" fill="none" stroke="#f0f0f0" stroke-width="1.9"></path><path d="M51.1,25.7q13.6-1.7 10.8-.5" fill="none" stroke="#f0f0f0" stroke-width="1.9"></path><path d="M66.8,24.7q8.7-4 9.2-1.5q.3,1.3 -1.4,6.9" fill="none" stroke="#f0f0f0" stroke-width="1.9"></path><path d="M93.2,9Q93.9,19 94.7,20.3" fill="none" stroke="#f0f0f0" stroke-width="1.9"></path><path d="M88.8,14.9q13.1-2.1 14.2-1" fill="none" stroke="#f0f0f0" stroke-width="1.9"></path><path d="M132,8.5Q132.8,24.2 133.9,22.8" fill="none" stroke="#f0f0f0" stroke-width="1.9"></path><path d="M129.5,8.1Q137.6,7.4 137.5,12.1Q137,16 136.4,19.1Q138.7,20.9 141.8,21.8" fill="none" stroke="#f0f0f0" stroke-width="1.9"></path><path d="M144.2,19.8q3.5-.8 4.9,1.9q-.4,4.9 -1.8,9.2q3,2.1 7.2,3.1" fill="none" stroke="#f0f0f0" stroke-width="1.9"></path><path d="M166.8,15.4q-.4-1 .5-1" fill="none" stroke="#f0f0f0" stroke-width="1.9"></path><path d="M186.4,11q1.2,7.2 1.9,13.2" fill="none" stroke="#f0f0f0" stroke-width="1.9"></path><path d="M179.5,9.5Q185.4,8.7 190.3,8.1" fill="none" stroke="#f0f0f0" stroke-width="1.9"></path><path d="M184.4,27.7q5.4-.8 9.8-1.5" fill="none" stroke="#f0f0f0" stroke-width="1.9"></path><path d="M201.1,22.3q9.1,0 8.1,3.6q-1.2,3.4 -2.3,6.2q-.2,.6 3-.5" fill="none" stroke="#f0f0f0" stroke-width="1.9"></path><path d="M233.4,11.5q2.4-.4 10.8-.5" fill="none" stroke="#f0f0f0" stroke-width="1.9"></path><path d="M234.4,15.9q13.5-.7 14.2-.5" fill="none" stroke="#f0f0f0" stroke-width="1.9"></path><path d="M276.1,9Q276.7,20.5 284.5,22.1Q290.1,23.3 290.4,12.3Q290.5,8.3 287.6,9.2Q289,12.2 292.3,15.4" fill="none" stroke="#f0f0f0" stroke-width="1.9"></path><path d="M303.1,20.8q3-4.3 7.1,0q3.4,3.5 -2.6,4.7q-2.3-.7 -4.1-1.8" fill="none" stroke="#f0f0f0" stroke-width="1.9"></path><path d="M69.3,124.3q2,10.2 3.6,18.5" fill="none" stroke="#f0f0f0" stroke-width="2"></path><path d="M-6.9,189.1Q5,189.1 14.8,189.1" fill="none" stroke="#f0f0f0" stroke-width="2"></path><path d="M32.8,184q1.3,19 2,20" fill="none" stroke="#f0f0f0" stroke-width="2"></path><path d="M32.3,190.2q3.1-8.5 4.6-3.8q.7,6.4 .6,11.8q0,5.6 8.7,3.8" fill="none" stroke="#f0f0f0" stroke-width="2"></path><path d="M49.2,194.3q8.9,.7 9.1,7.4q-.6,5 -1.4,9.1q2.7,.4 6.2-.6" fill="none" stroke="#f0f0f0" stroke-width="2"></path><path d="M81.2,192.7q-.2,0 -.9,0" fill="none" stroke="#f0f0f0" stroke-width="2"></path><path d="M115.1,188.1q1.9,16.8 1.6,16.5" fill="none" stroke="#f0f0f0" stroke-width="2"></path><path d="M107.4,183.5q11.2-5.3 14.9-1.1" fill="none" stroke="#f0f0f0" stroke-width="2"></path><path d="M111.5,208.2q10.5-1.1 10.8-.6" fill="none" stroke="#f0f0f0" stroke-width="2"></path><path d="M133.1,199.9q5.5,1 6.4,4q-1,4.5 -2.8,8.2q3.8,.9 9.3,.2" fill="none" stroke="#f0f0f0" stroke-width="2"></path><path d="M162,189.1q-.2,6.2 0,11.3" fill="none" stroke="#f0f0f0" stroke-width="2"></path><path d="M160.9,192.2q7.9,1.1 14.4,2.1" fill="none" stroke="#f0f0f0" stroke-width="2"></path><path d="M200,187.1q-1.7,15.2 0,15.9" fill="none" stroke="#f0f0f0" stroke-width="2"></path><path d="M195.9,187.1q7.7-2.7 9.8,2.3q-.3,5.8 -1.6,10.7q-1,3.8 8.3,1.4" fill="none" stroke="#f0f0f0" stroke-width="2"></path><path d="M221.7,195.8q.3,0 .9,.2q7.4,2 4.7,9.1q-2.1,.4 -4.3,.1q1.3,2.2 4.3,5.1q2.2,2.2 -5.1,5.2q-.9,.4 -4.7-1.2" fill="none" stroke="#f0f0f0" stroke-width="2"></path><path d="M243.8,193.8q.2,.2 0,.2q-.2,0 -.2-.2q0-.2 .2-.2q.2,0 .2,.2" fill="none" stroke="#f0f0f0" stroke-width="2"></path><path d="M261.3,191.2q3.9,14.7 3.6,13.9" fill="none" stroke="#f0f0f0" stroke-width="2"></path><path d="M255.6,186.5q3.1-1.1 5.7-2" fill="none" stroke="#f0f0f0" stroke-width="2"></path><path d="M259.2,209.7q7.1-1.2 12.9-2.1" fill="none" stroke="#f0f0f0" stroke-width="2"></path><path d="M285.5,202q6.2,4.4 2.1,6q.8,2.9 3.3,6q3.5,4.3 -5.9,3.4" fill="none" stroke="#f0f0f0" stroke-width="2"></path><path d="M314.8,187.1q.1-1.2 .2-1.1q.7,4.6 .3,8.8" fill="none" stroke="#f0f0f0" stroke-width="2"></path><path d="M307.1,192.2q10.4-1 19-1.5" fill="none" stroke="#f0f0f0" stroke-width="2"></path><path d="M353,182.5q2.5,2.4 2.4,8.7q.1,3.8 .3,7" fill="none" stroke="#f0f0f0" stroke-width="2.1"></path><path d="M352.4,183.1q8.3-2.6 10.2,3.2q0,6.3 -.6,11.5q3.8,.8 8.8-.2" fill="none" stroke="#f0f0f0" stroke-width="2.1"></path><path d="M385.9,194.4q-15.1,5.3 -8.9,7.6q2.5-.1 4.6-.6" fill="none" stroke="#f0f0f0" stroke-width="2.1"></path><path d="M384.2,195.5q-2.3,5.7 2.2,17.2" fill="none" stroke="#f0f0f0" stroke-width="2.1"></path><path d="M406.3,191.2q-.3-.6 -.5-1.1" fill="none" stroke="#f0f0f0" stroke-width="2.1"></path><path d="M426.8,184.7q.5,14.7 -.5,17.8" fill="none" stroke="#f0f0f0" stroke-width="2.1"></path><path d="M420.9,182.5q-.5-1.5 2.6-1.8q6,0 10.9,.2" fill="none" stroke="#f0f0f0" stroke-width="2.1"></path><path d="M425.8,207.9q7.1-.3 12.9-.6" fill="none" stroke="#f0f0f0" stroke-width="2.1"></path><path d="M451.1,197.1q6.6,4.5 4.2,8.9q-.6,.7 -1.1,1.4q1.9,1.8 5.1,3.2q3.4,1.3 -2,4.6q-3.6-.2 -6.8-1.4" fill="none" stroke="#f0f0f0" stroke-width="2.1"></path><path d="M486.7,190.1q14.5-4.4 17.7-.6" fill="none" stroke="#f0f0f0" stroke-width="2.1"></path><path d="M494.7,193.9q7.8,0 14.1,0" fill="none" stroke="#f0f0f0" stroke-width="2.1"></path><path d="M529.2,193.3q6.1-4.8 10.7-1.3q4.5,3.3 -1,9q-2.7,2.8 -11.3-6.1" fill="none" stroke="#f0f0f0" stroke-width="2.1"></path><path d="M-21,315q-16.5-4.9 -20-2.5q-3.3,19.9 -.2,39.3q.1,.5 -4.2,67.2q-.7,8.3 -1.3,15.2q-.3,3.6 24,5.2" fill="none" stroke="#f0f0f0" stroke-width="2.6"></path><path d="M13,328q2.2,1.6 4,3" fill="none" stroke="#f0f0f0" stroke-width="2.6"></path><path d="M33,331q7.1-11.1 11.8-4.8q1,7.9 .2,14.8" fill="none" stroke="#f0f0f0" stroke-width="2.6"></path><path d="M87,324q.5,9.4 1,17" fill="none" stroke="#f0f0f0" stroke-width="2.6"></path><path d="M85,335q3.8,1.1 7,2" fill="none" stroke="#f0f0f0" stroke-width="2.6"></path><path d="M107,333q10.7-5.9 12.9-.5q3.5,8.1 1.1,10.5" fill="none" stroke="#f0f0f0" stroke-width="2.6"></path><path d="M161,325q4.2,18 2,16" fill="none" stroke="#f0f0f0" stroke-width="2.6"></path><path d="M159,338q.8,.2 4,1" fill="none" stroke="#f0f0f0" stroke-width="2.6"></path><path d="M186,334q12.1-8.8 14.1-3.5q.2,.4 .5,14.2" fill="none" stroke="#f0f0f0" stroke-width="2.6"></path><path d="M17,362q-.9,17.9 0,18" fill="none" stroke="#f0f0f0" stroke-width="2.6"></path><path d="M15,365q9.5-4 11.2,2.9q-.6,6.9 -2,12.6q2.9,.4 6.8-.5" fill="none" stroke="#f0f0f0" stroke-width="2.6"></path><path d="M35,379q10.9-5.1 12.7,.8q.4,1.2 .3,6.2" fill="none" stroke="#f0f0f0" stroke-width="2.6"></path><path d="M91,363q.5,18.9 2,19" fill="none" stroke="#f0f0f0" stroke-width="2.6"></path><path d="M90,368q7-4.4 7.2,3.1q-.6,5.9 -1.4,10.7q-.3,1.7 8.2-.8" fill="none" stroke="#f0f0f0" stroke-width="2.6"></path><path d="M109,377q11.8-.3 8.1,7q-4.3,8.2 8.2,6.7" fill="none" stroke="#f0f0f0" stroke-width="2.6"></path><path d="M176,378q1.5-11.8 6.3-10.2q5.5,1.8 2.7,12.9q-2.1,8.4 -10.4,3.5q-1.2-2.6 -1.6-5.2" fill="none" stroke="#f0f0f0" stroke-width="2.6"></path><path d="M8,423Q7.8,414.6 16,415.6Q26.7,416.9 20.6,429Q18.7,432.7 13.1,430.3Q12.3,429.9 13,426" fill="none" stroke="#f0f0f0" stroke-width="2.6"></path><path d="M60,421q5.5,0 10,0" fill="none" stroke="#f0f0f0" stroke-width="2.6"></path><path d="M97,419q.4,8.3 1,15" fill="none" stroke="#f0f0f0" stroke-width="2.6"></path><path d="M93,418q10.2-3 11.1,3.2q-.1,7.3 -.8,13.3q2.5,.3 5.7-.5" fill="none" stroke="#f0f0f0" stroke-width="2.6"></path><path d="M113,429q7.3-3.8 8.9,1.5q-.4,5.2 -1.5,9.5q2,.9 4.6,1" fill="none" stroke="#f0f0f0" stroke-width="2.6"></path><path d="M167,419q.3,13.2 3.6,19" fill="none" stroke="#f0f0f0" stroke-width="2.6"></path><path d="M165,426q4.8-8.1 9.4-3.3q1.7,7.9 1.5,15q-.1,.9 4.1-.7" fill="none" stroke="#f0f0f0" stroke-width="2.6"></path><path d="M187,437q7.9-4 9.1,1q2.3,9.7 -.1,12" fill="none" stroke="#f0f0f0" stroke-width="2.6"></path><path d="M211,420q0,10.4 0,19" fill="none" stroke="#f0f0f0" stroke-width="2.6"></path><path d="M205,432q11.7-4.7 10-3" fill="none" stroke="#f0f0f0" stroke-width="2.6"></path><path d="M227,422q.1,9.3 0,17" fill="none" stroke="#f0f0f0" stroke-width="2.6"></path><path d="M227,423q7.7-3.5 6.2,4.1q-1.3,4 -2.6,7.2q4.7,2.8 11.4,3.7" fill="none" stroke="#f0f0f0" stroke-width="2.6"></path><path d="M253,423q-8.4,12.9 -1,11" fill="none" stroke="#f0f0f0" stroke-width="2.6"></path><path d="M257,423q1.3,12.1 3,22" fill="none" stroke="#f0f0f0" stroke-width="2.6"></path><path d="M265,325q10.9-1.5 17.2,5.8q3.1,3.5 5.4,53.9q2,44.8 14.1,65.4q1.8,2.9 .1,12.1q-1.1,6.5 -27.2,10.5" fill="none" stroke="#f0f0f0" stroke-width="2.6"></path><path d="M330,377q3.6-2.3 2.4-1.8" fill="none" stroke="#f0f0f0" stroke-width="2.6"></path><path d="M401,328q1.8-2.8 -.2-2.1q-24,8.5 -21.7,4.2q1.2,16.7 -2.1,46q-1.2,42.5 -.7,77.3q-.5,8.7 -1.1,15.8q-.6,7.4 18.8,6.2" fill="none" stroke="#f0f0f0" stroke-width="2.6"></path><path d="M435,329q-.1,12.1 0,22" fill="none" stroke="#f0f0f0" stroke-width="2.6"></path><path d="M432,325q7.1-.8 13-1" fill="none" stroke="#f0f0f0" stroke-width="2.6"></path><path d="M431,349q5.5,1.6 10,3" fill="none" stroke="#f0f0f0" stroke-width="2.6"></path><path d="M453,351q6.3-6.4 8.9-1.6q.7,1.4 -1.3,14.6" fill="none" stroke="#f0f0f0" stroke-width="2.6"></path><path d="M433,393q.1,11.5 0,21" fill="none" stroke="#f0f0f0" stroke-width="2.6"></path><path d="M425,388q8.1-2.6 15-4" fill="none" stroke="#f0f0f0" stroke-width="2.6"></path><path d="M427,417q13.6-3.6 11-1" fill="none" stroke="#f0f0f0" stroke-width="2.6"></path><path d="M447,413q7.4-.6 4.7,6q-2.3,5.4 4.9,6.4" fill="none" stroke="#f0f0f0" stroke-width="2.6"></path><path d="M433,449q-.4,20.4 0,20" fill="none" stroke="#f0f0f0" stroke-width="2.6"></path><path d="M417,443q15.3-1.6 28-2" fill="none" stroke="#f0f0f0" stroke-width="2.6"></path><path d="M431,473q7.5,1.6 14,2" fill="none" stroke="#f0f0f0" stroke-width="2.6"></path><path d="M459,471q9.9,1 5.9,3.7q-1.4,.7 -2.7,1.1q1.2,2.3 3.9,4.7q3,2.6 -3.4,5.9q-4.2,.2 -7.7-.4" fill="none" stroke="#f0f0f0" stroke-width="2.6"></path><path d="M485,333q9.3-4.5 11.3,4.1q1.2,29.6 0,54q-.6,11.7 11.5,78.7q3.1,17 -7.9,22.7q-3.7,1 -6.9,1.5" fill="none" stroke="#f0f0f0" stroke-width="2.6"></path><path d="M535,371q5.5-.5 10-1" fill="none" stroke="#f0f0f0" stroke-width="2.6"></path><path d="M543,379q5.5-.5 10-1" fill="none" stroke="#f0f0f0" stroke-width="2.6"></path><path d="M613,339q-31.7-3.6 -31.5-3.3q1.5,3.1 1.2,25.4q-3.2,73 -6.7,132.8q8.5,1.9 19,.1" fill="none" stroke="#f0f0f0" stroke-width="2.6"></path><path d="M645,337q2.2-8.4 6.6-3.6q6.1,6.7 .3,21.3q-3.8,9.4 -9.8-4.3q-.7-1.6 .9-8.4" fill="none" stroke="#f0f0f0" stroke-width="2.6"></path><path d="M639,397q-.4,23 8.9,21.2q2.7-8.5 2.1-18.2" fill="none" stroke="#f0f0f0" stroke-width="2.6"></path><path d="M655,420q3.5-3.2 4.1,1.4q.4,2.8 -5.9,1.1" fill="none" stroke="#f0f0f0" stroke-width="2.6"></path><path d="M637,474q2-8.9 8-5.4q7.1,4.2 1.6,11.9q-5.9,8.3 -12.1-4.7" fill="none" stroke="#f0f0f0" stroke-width="2.6"></path><path d="M675,340q17.5-4.9 18.5,3.3q-.5,28.9 -2.6,52.5q-2,22.2 -2.2,72.9q.8,19.6 1.7,35.6q.4,6.7 -18.6,6.2" fill="none" stroke="#f0f0f0" stroke-width="2.6"></path><path d="M39,544q.2,10.4 .4,18.9q1,0 2.1-.4q2.2,5 2.3,12q-4,.2 -8.8-1.5" fill="none" stroke="#f0f0f0" stroke-width="2.6"></path><path d="M63,559q8.8,.4 16,1" fill="none" stroke="#f0f0f0" stroke-width="2.6"></path><path d="M69,566q6,1.1 11,2" fill="none" stroke="#f0f0f0" stroke-width="2.6"></path><path d="M113,558q1.7,16.7 2,16.3q2.4-4 4-7.5q6,1.2 12,5.2" fill="none" stroke="#f0f0f0" stroke-width="2.6"></path><path d="M136,570q-.1-9.4 6.8-7.8q6.8,1.6 7.6,9.6q-4.9,2.3 -11.1,2.6q-5.3,.2 2,12.5" fill="none" stroke="#f0f0f0" stroke-width="2.6"></path><path d="M154,574q.3,.3 0,.3q-.3,0 -.3-.3q0-.3 .3-.3q.3,0 .3,.3" fill="none" stroke="#f0f0f0" stroke-width="2.6"></path><path d="M180,544q-3.5,14 .4,30.1" fill="none" stroke="#f0f0f0" stroke-width="2.6"></path><path d="M171,562q7.7,1.6 14,3" fill="none" stroke="#f0f0f0" stroke-width="2.6"></path><path d="M189,566q1.6,5.8 3,10.6q-.2-3.8 -1-10.6" fill="none" stroke="#f0f0f0" stroke-width="2.6"></path><path d="M206,564q-7.3,11.4 -.1,10.1q1.9-4.2 2.2-9.1q3.2,3.3 6.9,10" fill="none" stroke="#f0f0f0" stroke-width="2.6"></path><path d="M220,568q-.1,8.4 .8,7q.4-.7 8.2-4" fill="none" stroke="#f0f0f0" stroke-width="2.6"></path><path d="M242,563q-8.5,0 -4.7,5.3q5.5,7.8 3,8.4q-2.5,.6 -12.3-2.7" fill="none" stroke="#f0f0f0" stroke-width="2.6"></path><path d="M254,570q2-12 5.7-8.2q5.2,5.4 -2.9,11.1q-4.8,1.7 -8.9,2.6q-4.1,.8 1.6,7.3q4.9,2.7 9.5,4.2" fill="none" stroke="#f0f0f0" stroke-width="2.6"></path><path d="M263,574q10.1-10.6 16-5.3q5.7,5 -1.4,8.1q-2.4,1.1 -7.6-5.8" fill="none" stroke="#f0f0f0" stroke-width="2.6"></path><path d="M291,565q-9.8-2.2 -6.4,3.8q3.3,4.1 6.3,7.3q2.4,2.6 -4.6,1.9q-1-.1 -3.3-4" fill="none" stroke="#f0f0f0" stroke-width="2.6"></path><path d="M299,570q-1.5-4.4 -3.5,3.5q6.2,2.6 14.5,2.5" fill="none" stroke="#f0f0f0" stroke-width="2.6"></path><path d="M333,560q-4.3,6.1 -4,12.2q.1,.9 3,3.8" fill="none" stroke="#f0f0f0" stroke-width="2.6"></path><path d="M349,558q-.5,16.8 .1,15.5q3.3-8.2 7.4,.3q1.8,3.5 -3.3,3.7q-1.9-1.1 -3.2-2.5" fill="none" stroke="#f0f0f0" stroke-width="2.6"></path><path d="M371,556q10.4,44.3 -1,29" fill="none" stroke="#f0f0f0" stroke-width="2.6"></path><path d="M116,611q1.5,13.9 1.8,12.4q3.7-18.1 16.1-1.2" fill="none" stroke="#f0f0f0" stroke-width="2.6"></path><path d="M139,619q10.2-6.9 13.4,.8q1.3,3.3 -5.8,1.7q-5.8-1.3 -1.4,13q.4,1.4 3.8,6.5" fill="none" stroke="#f0f0f0" stroke-width="2.6"></path><path d="M165,622q0,.5 0,1" fill="none" stroke="#f0f0f0" stroke-width="2.6"></path><path d="M193,613q-5.9,9.6 .2,11.7q4.8,1.7 11.2-24.4q2.7,9 4.6,25.7" fill="none" stroke="#f0f0f0" stroke-width="2.6"></path><path d="M211,618q1.4-4.8 5.8-5.1q11.6-.9 5.3,9.7q-3.7,6.4 -8.2-4.4" fill="none" stroke="#f0f0f0" stroke-width="2.6"></path><path d="M235,600q3.4,25.5 3,25" fill="none" stroke="#f0f0f0" stroke-width="2.6"></path><path d="M231,615q4.9,0 9,0" fill="none" stroke="#f0f0f0" stroke-width="2.6"></path><path d="M259,602q-5.7,13.7 -3.1,27.6" fill="none" stroke="#f0f0f0" stroke-width="2.6"></path><path d="M277,614q2.1,8.3 3.1,7.1q3.7-4.4 13.4,1.1" fill="none" stroke="#f0f0f0" stroke-width="2.6"></path><path d="M299,621q1.4-5.1 8.7-3.6q8,1.7 3.5,6.2q-5.6,.9 -10.8,.2q-6.4-.9 1.1,16.4" fill="none" stroke="#f0f0f0" stroke-width="2.6"></path><path d="M331,616q.2-.2 1-1" fill="none" stroke="#f0f0f0" stroke-width="2.6"></path><path d="M366,608q.9,8.8 2,16" fill="none" stroke="#f0f0f0" stroke-width="2.6"></path><path d="M380,618q.9,5.5 2,10" fill="none" stroke="#f0f0f0" stroke-width="2.6"></path><path d="M381,614q0-.5 0-1" fill="none" stroke="#f0f0f0" stroke-width="2.6"></path><path d="M386,617q.7,6.6 .8,6.3q4.3-11.8 11.4,1.6" fill="none" stroke="#f0f0f0" stroke-width="2.6"></path><path d="M416,618q-14.8,2.9 -9,5.7q7.3-1.7 13.3-5.3q.9-.5 3.7,3.6" fill="none" stroke="#f0f0f0" stroke-width="2.6"></path><path d="M428,610q-.8,6.3 3.5,12.9" fill="none" stroke="#f0f0f0" stroke-width="2.6"></path><path d="M439,616q-.2,4.4 2.1,2.2q5.4-4.8 2.8,13.1q-.7,5.4 -9.7,2.9" fill="none" stroke="#f0f0f0" stroke-width="2.6"></path><path d="M475,624q.5-1.1 1-2" fill="none" stroke="#f0f0f0" stroke-width="2.6"></path><path d="M496,620q1,4.4 2,8" fill="none" stroke="#f0f0f0" stroke-width="2.6"></path><path d="M498,610q-.4-.8 -.8-1.5" fill="none" stroke="#f0f0f0" stroke-width="2.6"></path><path d="M510,616q.2,6.2 2.2,4.3q3.5-3.6 10,2.6" fill="none" stroke="#f0f0f0" stroke-width="2.6"></path><path d="M529,618q1.7,5.6 5,2.9q.9-.9 4-4.9" fill="none" stroke="#f0f0f0" stroke-width="2.6"></path><path d="M562,601q-9.8,10.3 -1.8,23.9" fill="none" stroke="#f0f0f0" stroke-width="2.6"></path><path d="M571,622q9-8.3 14.9-20q1,7.2 .1,20" fill="none" stroke="#f0f0f0" stroke-width="2.6"></path><path d="M582,617q.8-.2 4-1" fill="none" stroke="#f0f0f0" stroke-width="2.6"></path><path d="M598,600q5.5,27.8 .2,30.2" fill="none" stroke="#f0f0f0" stroke-width="2.6"></path><path d="M618,620q-.2,7.7 0,14" fill="none" stroke="#f0f0f0" stroke-width="2.6"></path><path d="M633,601q-5.4,18.7 -4.5,18q8.7-6.8 12.2-.2q2.4,4.6 -6.1,3.2q-1-1.4 -1.6-3" fill="none" stroke="#f0f0f0" stroke-width="2.6"></path><path d="M656,600q4.9,15.4 2.6,26.6q-.2,1.3 -3.6,5.4" fill="none" stroke="#f0f0f0" stroke-width="2.6"></path><path d="M-142,721q1.9,22.7 3,25" fill="none" stroke="#f0f0f0" stroke-width="2.6"></path><path d="M-139,721q4.6-4.5 8-2.7q8.1,4.3 -3.9,15.6q-2.1,1.9 7.2,6.2q2.3,1 10.7,5.9" fill="none" stroke="#f0f0f0" stroke-width="2.6"></path><path d="M-108,740q7,.5 6.1,5q-2,9.5 .2,11.4q4.1-1.4 7.7-4.4" fill="none" stroke="#f0f0f0" stroke-width="2.6"></path><path d="M-84,742q3-.9 2.2,.8q-1,2.1 2.5,3q6.3,1.5 1.1,7.6q-2.8,3.3 -3.3-1.8" fill="none" stroke="#f0f0f0" stroke-width="2.6"></path><path d="M-62,740q-8.2,4.1 -8.5,8.3q3.8,1.6 8.5,1.7" fill="none" stroke="#f0f0f0" stroke-width="2.6"></path><path d="M-57,740q-1.8,18.4 1,20" fill="none" stroke="#f0f0f0" stroke-width="2.6"></path><path d="M-24,726q13.8-4.4 15-2" fill="none" stroke="#f0f0f0" stroke-width="2.6"></path><path d="M-17,730q6.6,0 12,0" fill="none" stroke="#f0f0f0" stroke-width="2.6"></path><path d="M40,722q3.1,10 6,18" fill="none" stroke="#f0f0f0" stroke-width="2.6"></path><path d="M38,721q16.7-5.1 15.8,2.4q-2.2,3 -4.8,5.1q6.8,7.1 19,12.5" fill="none" stroke="#f0f0f0" stroke-width="2.6"></path><path d="M73,733q5.2,3.5 3.8,7.9q-2.3,7.5 8.3,6.7" fill="none" stroke="#f0f0f0" stroke-width="2.6"></path><path d="M106,733q.2,.2 1,1" fill="none" stroke="#f0f0f0" stroke-width="2.6"></path><path d="M142,720q-7,.9 -6.9,13.3q0,2.4 5.9,10.7" fill="none" stroke="#f0f0f0" stroke-width="2.6"></path><path d="M164,722q3.9,19.6 5,19" fill="none" stroke="#f0f0f0" stroke-width="2.6"></path><path d="M167,722q9-1 8.9,5q-.6,6.7 -1.2,12.2q5.8,2.6 13.3,2.8" fill="none" stroke="#f0f0f0" stroke-width="2.6"></path><path d="M194,742q8.3-2.8 7.7,2.1q-1.9,1.7 -4.2,2.7q2.2,2.4 6.5,4.6q4.9,2.6 -1.4,5.4q-3.3-2.3 -5.6-5.8" fill="none" stroke="#f0f0f0" stroke-width="2.6"></path><path d="M219,728q.7,20 2,16" fill="none" stroke="#f0f0f0" stroke-width="2.6"></path><path d="M219,740q9.2-3 11-2" fill="none" stroke="#f0f0f0" stroke-width="2.6"></path><path d="M249,727q0,17.1 0,17" fill="none" stroke="#f0f0f0" stroke-width="2.6"></path><path d="M248,728q3.1-5.6 4.6-.5q.9,6.9 1.2,12.6q4.7,2.4 10.2,2.9" fill="none" stroke="#f0f0f0" stroke-width="2.6"></path><path d="M287,740q-12.7,4.1 -9.3,7.7q.9,1 6.3-1.7" fill="none" stroke="#f0f0f0" stroke-width="2.6"></path><path d="M288,740q-.5,19.4 2,19" fill="none" stroke="#f0f0f0" stroke-width="2.6"></path><path d="M303,725q7.3,15.4 5.2,27.8q-.2,1.1 -3.2,4.2" fill="none" stroke="#f0f0f0" stroke-width="2.6"></path><path d="M48,766q58.8,5.4 189.4,2.6q36.1,.5 65.6,1.4" fill="none" stroke="#f0f0f0" stroke-width="2.6"></path><path d="M64,785q-2,8.8 -.4,20.6" fill="none" stroke="#f0f0f0" stroke-width="2.6"></path><path d="M62,786q12.4,1.2 10.6,12.2q-1,6.4 7.7,5.4" fill="none" stroke="#f0f0f0" stroke-width="2.6"></path><path d="M83,799q7.1-5.7 10.6,.6q.7,6.3 .4,11.7q-.1,.9 4-2.3" fill="none" stroke="#f0f0f0" stroke-width="2.6"></path><path d="M118,790q-1.3,14.7 0,16" fill="none" stroke="#f0f0f0" stroke-width="2.6"></path><path d="M114,799q1.3-.5 14-2" fill="none" stroke="#f0f0f0" stroke-width="2.6"></path><path d="M159,792q0,7.1 0,13" fill="none" stroke="#f0f0f0" stroke-width="2.6"></path><path d="M152,790q17.5-1.9 13.6,5.2q-6.4,11.7 7.3,9.8" fill="none" stroke="#f0f0f0" stroke-width="2.6"></path><path d="M186,802q.8-3.8 3-2q4.6,3.8 -.3,8.3q1.2,2.3 3.7,4.2q2.6,2.1 -4.6,2.5q-2.7-1.3 -4.8-3" fill="none" stroke="#f0f0f0" stroke-width="2.6"></path><path d="M212,790q0,9.3 0,17" fill="none" stroke="#f0f0f0" stroke-width="2.6"></path><path d="M210,797q19-1.2 19-1" fill="none" stroke="#f0f0f0" stroke-width="2.6"></path><path d="M243,789q.6,10.4 1,19" fill="none" stroke="#f0f0f0" stroke-width="2.6"></path><path d="M242,790q14.1-.1 12.9,7.2q-2.8,4.9 -5.8,8.5q5.4,1.2 13.9,.3" fill="none" stroke="#f0f0f0" stroke-width="2.6"></path><path d="M288,793q-12.5,9.7 -7.1,13.3" fill="none" stroke="#f0f0f0" stroke-width="2.6"></path><path d="M286,794q2.4,16 8,22" fill="none" stroke="#f0f0f0" stroke-width="2.6"></path><path d="M347,753q8.8,.5 16,1" fill="none" stroke="#f0f0f0" stroke-width="2.6"></path><path d="M348,761q7.8-2.3 22-4" fill="none" stroke="#f0f0f0" stroke-width="2.6"></path><path d="M406,750q4.5-5.4 4-3.2q-2.2,6.6 -4.4,11.9q-2.2,5.5 8.4,4.3" fill="none" stroke="#f0f0f0" stroke-width="2.6"></path><path d="M437,758q-7.8-8.2 -.7-10.1q6.9-1.8 10.9,8.1q2.3,5.8 -9.4,5.9q-1.3,.1 -5.8-2.9" fill="none" stroke="#f0f0f0" stroke-width="2.6"></path><path d="M460,767q15.2-3.6 27.7-6.4q-2-2.7 -6.3-5.6q-4.5-3.1 3.6-6.3q8.9-3.4 12.1,8.2q-.2,8.3 -1.3,15.1q10.5,1.5 24.2-2" fill="none" stroke="#f0f0f0" stroke-width="2.6"></path><path d="M-154,849q.4,14.3 1,26" fill="none" stroke="#f0f0f0" stroke-width="2.6"></path><path d="M-156,854q8.1-3.6 8.2,3.2q.2,14 .9,15.1q1.3,2 10.9,.7" fill="none" stroke="#f0f0f0" stroke-width="2.6"></path><path d="M-131,874q3.4-8.1 4.6-3q2,8.4 1.4,8" fill="none" stroke="#f0f0f0" stroke-width="2.6"></path><path d="M-120,872q7-2.9 7,2q-.2,7.9 1,8.6q3.2-.8 6-2.6" fill="none" stroke="#f0f0f0" stroke-width="2.6"></path><path d="M-100,872q-.8-3.7 3-.5q.6,2.9 .3,5.7q.9,2.7 2.1,4.8q.3,.4 -2.4,1" fill="none" stroke="#f0f0f0" stroke-width="2.6"></path><path d="M-80,870q-13.5,4.3 -9.2,6.9q4.4,0 8.2-.9" fill="none" stroke="#f0f0f0" stroke-width="2.6"></path><path d="M-79,872q.9,9.9 2,18" fill="none" stroke="#f0f0f0" stroke-width="2.6"></path><path d="M-36,860q12.3-1.8 14,0" fill="none" stroke="#f0f0f0" stroke-width="2.6"></path><path d="M-39,868q10.4,0 19,0" fill="none" stroke="#f0f0f0" stroke-width="2.6"></path><path d="M33,857q-.7,10.4 -1,19" fill="none" stroke="#f0f0f0" stroke-width="2.6"></path><path d="M32,858q11.2-2.4 14.3,4.2q.2,7.7 -.9,14.3q3.3,.1 7.6-1.5" fill="none" stroke="#f0f0f0" stroke-width="2.6"></path><path d="M64,871q10.1-7.8 14.4-.8q1.3,5.8 1.6,10.8" fill="none" stroke="#f0f0f0" stroke-width="2.6"></path><path d="M104,862q-.7,7.7 -1,14" fill="none" stroke="#f0f0f0" stroke-width="2.6"></path><path d="M100,871q.6,0 3,0" fill="none" stroke="#f0f0f0" stroke-width="2.6"></path><path d="M144,862q5.1,13.4 6,15" fill="none" stroke="#f0f0f0" stroke-width="2.6"></path><path d="M144,867q10.7-8 11.2-2.7q-1.6,5.9 -3.6,10.6q3.4,1.7 8.4,2.1" fill="none" stroke="#f0f0f0" stroke-width="2.6"></path><path d="M164,873q5.1-2.2 7.1,.4q.5,.8 .5,7.4q0,.5 2.4,.2" fill="none" stroke="#f0f0f0" stroke-width="2.6"></path><path d="M186,872q8.4,2.8 1.9,6q1,1.1 2.9,2.1q4.8,2.4 -2.2,8.3q-1.4-.5 -2.6-1.4" fill="none" stroke="#f0f0f0" stroke-width="2.6"></path><path d="M208,873q-10.7,5 -4.8,7.1q2.1-.8 3.8-2.1" fill="none" stroke="#f0f0f0" stroke-width="2.6"></path><path d="M207,874q.4,10.5 1,19" fill="none" stroke="#f0f0f0" stroke-width="2.6"></path><path d="M-146.6,959.7q18.7,.9 19.1,1.4" fill="none" stroke="#f0f0f0" stroke-width="1.9"></path><path d="M-126,955.8q9.6,6.2 6.7,9q-3,.7 -5.7,.7" fill="none" stroke="#f0f0f0" stroke-width="1.9"></path><path d="M-75.6,956.2q-1.3-2.6 -1.2-2.4q3.5,9 5.1,17.1" fill="none" stroke="#f0f0f0" stroke-width="1.9"></path><path d="M-81.5,957.2q-2-3.2 12.7,.5" fill="none" stroke="#f0f0f0" stroke-width="1.9"></path><path d="M-76.6,971.9q5.4,.5 9.8,1" fill="none" stroke="#f0f0f0" stroke-width="1.9"></path><path d="M-59.9,972.9q7.2-3.9 6.8,6.3" fill="none" stroke="#f0f0f0" stroke-width="1.9"></path><path d="M-25.7,961.6q5.4-.3 9.8-.5" fill="none" stroke="#f0f0f0" stroke-width="1.9"></path><path d="M-18.4,965.5q3.8-.5 6.9-.9" fill="none" stroke="#f0f0f0" stroke-width="1.9"></path><path d="M45.7,953.3q1.1,12 7.7,15.5q4.3,2.4 3.1-12.7q1.9,.4 4.4,2.1" fill="none" stroke="#f0f0f0" stroke-width="1.9"></path><path d="M67.7,968q-1.6-3 .5-4.6q3.8-2.6 7.8,3.8q1.8,2.9 -3.1,3.8q-1.4,.2 -6.6-3" fill="none" stroke="#f0f0f0" stroke-width="1.9"></path><path d="M31.5,976.3q-4.1-.6 -2.7-1.4q.9-.6 34.4,1.1q25.9,1.3 33.9,3.7" fill="none" stroke="#f0f0f0" stroke-width="1.9"></path><path d="M34,988.5q-2.4,12.9 -.5,16.2" fill="none" stroke="#f0f0f0" stroke-width="1.9"></path><path d="M30.6,992q5.6-.6 7.5,3.2q2,7 3.1,12.9q2.4-.4 5-2" fill="none" stroke="#f0f0f0" stroke-width="1.9"></path><path d="M49.2,1002.7q3.1-1.4 3.8,1.2q.6,3.9 1,7.1" fill="none" stroke="#f0f0f0" stroke-width="1.9"></path><path d="M54.5,1003.2q6.6-1.4 6.9,3.2q.2,3.3 .4,6q.1,.9 4-.9" fill="none" stroke="#f0f0f0" stroke-width="1.9"></path><path d="M69.7,1004.7q-.6-2.3 4-1.4q6.6,1.4 .5,5.2q1.7,1.1 4.8,1.8q2.9,.6 -.7,3.2q-2.3-.2 -4.2-1" fill="none" stroke="#f0f0f0" stroke-width="1.9"></path><path d="M88.3,1002.7q-7.3,5.7 -2.5,8.1q2.4-.5 4.5-1.7" fill="none" stroke="#f0f0f0" stroke-width="1.9"></path><path d="M91.7,1000.8q-.1,17.6 .5,17.1" fill="none" stroke="#f0f0f0" stroke-width="1.9"></path><path d="M262.1,871.1q12.7-.3 23.1-.4" fill="none" stroke="#f0f0f0" stroke-width="1.8"></path><path d="M278.4,875.2q16.3-1.6 19.9-.9" fill="none" stroke="#f0f0f0" stroke-width="1.8"></path><path d="M357.3,868.9q-8.3,.9 -9.5,4.6q-.5,1.5 6.3,4.9" fill="none" stroke="#f0f0f0" stroke-width="1.8"></path><path d="M359.5,869.3q-.5,6.3 -.9,11.4" fill="none" stroke="#f0f0f0" stroke-width="1.8"></path><path d="M369.5,879.3q.5-11.1 5.7-10.3q6.9,1.2 3.6,10.1q-1,2.9 -8.4,1.6" fill="none" stroke="#f0f0f0" stroke-width="1.8"></path><path d="M394.4,882.5q17.4,1.9 16.6,.9q-9.8-12.9 4.5-12.8q11.4,.1 6,12.4q-1.3,3 7.7,2q6.8-.9 12.3-1.6" fill="none" stroke="#f0f0f0" stroke-width="1.8"></path><path d="M139.4,969.9q.5-.9 11.4,0" fill="none" stroke="#f0f0f0" stroke-width="1.8"></path><path d="M144.2,978.5q4.7-.3 8.5-.5" fill="none" stroke="#f0f0f0" stroke-width="1.8"></path><path d="M205,966.6q.8-5.8 7.1-5.5q3,.1 1.9,13.6" fill="none" stroke="#f0f0f0" stroke-width="1.8"></path><path d="M216.9,964.2q8.6-2 9.7,3.1q.2,2.9 .2,5.3q3,.5 6.7-.3" fill="none" stroke="#f0f0f0" stroke-width="1.8"></path><path d="M251.5,966.1q2.5,3.4 4.8,1.4q3.8-2.4 7.1-4.2" fill="none" stroke="#f0f0f0" stroke-width="1.8"></path><path d="M214.5,981.3q43.8,0 44.6-.9" fill="none" stroke="#f0f0f0" stroke-width="1.8"></path><path d="M225.9,988.4q-4.1,5.5 -3.7,9.2q1.5,.9 3.2,1.3" fill="none" stroke="#f0f0f0" stroke-width="1.8"></path><path d="M229.2,990.8q-1.7,8.6 -.5,9.5" fill="none" stroke="#f0f0f0" stroke-width="1.8"></path><path d="M235.4,1002.7q.4-8 6.1-9.3q5.8-1.3 4.4,5.4q-3,2.9 -6.2,4.8" fill="none" stroke="#f0f0f0" stroke-width="1.8"></path><path d="M257.2,1003.2q5.4-.7 9.9-1.3q-1-2.1 -3.3-4.5q-2.3-2.3 2-4.6q5.1-2.7 3.1,6.2q-1.1,4.7 .5,5.1q7.4-.2 13.5-1.4" fill="none" stroke="#f0f0f0" stroke-width="1.8"></path><path d="M304.1,973q5.3,.2 9.6,.5" fill="none" stroke="#f0f0f0" stroke-width="1.7"></path><path d="M308.9,979.1q13.7-1.8 15.3,.9" fill="none" stroke="#f0f0f0" stroke-width="1.7"></path><path d="M358.7,963.8q10.3-2 4.6,5.7q-.7,.8 -1.3,1.5q1.7,1.2 4.5,1.8q-1.5,1.2 -4.5,2.4q-.5,.2 -2.4-1.7" fill="none" stroke="#f0f0f0" stroke-width="1.7"></path><path d="M373.2,972.6q-2.9-7.3 3-7.3q3.4,0 5.4,5.8q.8,2.3 -5.2,2.3q-1,0 -4.6-2.1" fill="none" stroke="#f0f0f0" stroke-width="1.7"></path><path d="M384.1,972.6q.3-7 7.1-7.8q4.1-.4 5.3,4.5q.5,2 -5,1.8q-3.7-1.5 -6.5-3.3" fill="none" stroke="#f0f0f0" stroke-width="1.7"></path><path d="M406.4,970.8q1.5,4.5 1.7,2.9q.7-3.8 5.7-2.1q.3,.5 .5,1q3.2,.2 6.8-1.1q4.1,.4 7.6,1.5" fill="none" stroke="#f0f0f0" stroke-width="1.7"></path><path d="M434.3,973.9q7.1-8.5 10.5-16.1q.4-.8 .4,11.5q-.3,2.6 -.8,4.6" fill="none" stroke="#f0f0f0" stroke-width="2.1"></path><path d="M435.7,969.1q16.9-1.5 18.3,1.7" fill="none" stroke="#f0f0f0" stroke-width="1.7"></path><path d="M-151.6,1086.1q9.5,.1 17.2,0" fill="none" stroke="#f0f0f0" stroke-width="1.8"></path><path d="M-134.9,1083q16.4,2.5 7.9,7q-1,.5 -5.6-.3" fill="none" stroke="#f0f0f0" stroke-width="1.8"></path><path d="M-82.5,1082.1q2.9,11.1 5,12.6" fill="none" stroke="#f0f0f0" stroke-width="1.8"></path><path d="M-87.4,1075.3q15.4-1.8 14-.5" fill="none" stroke="#f0f0f0" stroke-width="1.8"></path><path d="M-87,1097.9q9,.3 16.3,.4" fill="none" stroke="#f0f0f0" stroke-width="1.8"></path><path d="M-66.7,1095.6q8.9-.7 8.1,4.1q-.6,2.7 -1,4.9q-.2,.9 4.7-.4" fill="none" stroke="#f0f0f0" stroke-width="1.8"></path><path d="M-33.7,1086.6q14-1.5 12.7-.5" fill="none" stroke="#f0f0f0" stroke-width="1.8"></path><path d="M-34.6,1094.7q7.7-1.2 14-2.2" fill="none" stroke="#f0f0f0" stroke-width="1.8"></path><path d="M36.8,1080.7q2.2,17.2 2.2,17.2" fill="none" stroke="#f0f0f0" stroke-width="1.8"></path><path d="M28.6,1074.8q10.7,.8 19.5,1.4" fill="none" stroke="#f0f0f0" stroke-width="1.8"></path><path d="M29.1,1097.9q9.2,.3 16.7,.4" fill="none" stroke="#f0f0f0" stroke-width="1.8"></path><path d="M55.7,1100.6q7-6.9 10.2-1q.1,4.7 -.7,8.7" fill="none" stroke="#f0f0f0" stroke-width="1.8"></path><path d="M90.5,1091.6q.2,.2 0,.2q-.2,0 -.2-.2q0-.2 .2-.2q.2,0 .2,.2" fill="none" stroke="#f0f0f0" stroke-width="1.8"></path><path d="M136.6,1084.3q.6,8.2 1.4,14.9" fill="none" stroke="#f0f0f0" stroke-width="1.8"></path><path d="M134.8,1082.1q2.1-2.4 4.2-.7q3.7,7.6 5.6,14.7q1.2,4.6 6,1.8" fill="none" stroke="#f0f0f0" stroke-width="1.8"></path><path d="M159.2,1096.5q1.2-2.6 3.5,.5q3.1,4.3 -1.6,4.5q1.7,1.2 5.1,2.6q3.2,1.3 -.7,4.5q-1.7,1.4 -5-3.5" fill="none" stroke="#f0f0f0" stroke-width="1.8"></path><path d="M181.8,1095.6q-6.3,0 -6.5,4.6q2.1,.8 4.7,.8" fill="none" stroke="#f0f0f0" stroke-width="1.8"></path><path d="M183.1,1092.5q1.7,8.4 3.2,15.3" fill="none" stroke="#f0f0f0" stroke-width="1.8"></path><path d="M122.6,1123.2q55.8-9.8 78.2-5.5q2.6,1.5 4.5,3.2" fill="none" stroke="#f0f0f0" stroke-width="1.8"></path><path d="M130,1133.6q1.1,8.6 2.2,15.7" fill="none" stroke="#f0f0f0" stroke-width="1.7"></path><path d="M129.6,1134.9q3.4-2.8 3.7,.3q-.3,5.9 -.8,10.7q-.5,4.5 8.8,2.5" fill="none" stroke="#f0f0f0" stroke-width="1.7"></path><path d="M143,1146.7q2.3,.3 2,2.8q-1,7.4 7.2,6.3" fill="none" stroke="#f0f0f0" stroke-width="1.7"></path><path d="M163.5,1135.3q.7,7 1.3,12.7" fill="none" stroke="#f0f0f0" stroke-width="1.7"></path><path d="M156.1,1145.8q6.2-2.2 11.3-3.9" fill="none" stroke="#f0f0f0" stroke-width="1.7"></path><path d="M180.5,1135.3q1.1,12.3 1.7,11.4" fill="none" stroke="#f0f0f0" stroke-width="1.7"></path><path d="M179.6,1136.2q6.2-2.9 8.2,.7q.5,5.5 0,10.3q-.1,.6 3.1,.8" fill="none" stroke="#f0f0f0" stroke-width="1.7"></path><path d="M197,1137.1q4.9-1.5 4.8,2.2q-.8,2 -1.7,3.6q1.6,1.8 4.2,3q2.3,1.1 -1.1,3.7q-1.9-.3 -3.6-1.2" fill="none" stroke="#f0f0f0" stroke-width="1.7"></path><path d="M217,1137.1q-5.2,.4 -5.1,6.6q0,.8 3,2.5" fill="none" stroke="#f0f0f0" stroke-width="1.7"></path><path d="M219.7,1137.1q1.7,18.6 2.1,18.3" fill="none" stroke="#f0f0f0" stroke-width="1.7"></path><path d="M232.9,1101.9q15.1-2.8 15-2.1" fill="none" stroke="#f0f0f0" stroke-width="1.6"></path><path d="M240,1105.7q-2,.1 -1.5,0q5.6-.4 10.2-.5" fill="none" stroke="#f0f0f0" stroke-width="1.6"></path><path d="M-76.4,1265.2q-9.6-2.7 -14.5,1.5q-4.2,3.6 16.5,24.8q12.1,12.4 -3,16.1q-11.8,2.9 -17-12.9" fill="none" stroke="#f0f0f0" stroke-width="2.2"></path><path d="M-64.8,1257.7q1.2,26.9 3.4,48.6" fill="none" stroke="#f0f0f0" stroke-width="2.2"></path><path d="M-69.5,1291.8q29.9-1.4 29.9-9.8q0-6.5 -7.6,6.8q-5.4,9.5 6.3,14.3q2.9,1.1 9.1-6.6" fill="none" stroke="#f0f0f0" stroke-width="2.2"></path><path d="M-30.1,1286.6q8,19.3 4.6,17.6q.1-9.6 4.1-19.3" fill="none" stroke="#f0f0f0" stroke-width="2.2"></path><path d="M-12.7,1282q-.1,11.3 -.3,20.6q1.9-3.2 4.3-9.3q2.2-5.6 11,.2q5.1,7.5 8.2,14.6" fill="none" stroke="#f0f0f0" stroke-width="2.2"></path><path d="M44.6,1291.8q10.5,1.6 19.1,2.9" fill="none" stroke="#f0f0f0" stroke-width="2.2"></path><path d="M129.8,1263.5q.9,17.5 2.3,31.8" fill="none" stroke="#f0f0f0" stroke-width="2.2"></path><path d="M129.2,1262.3q14.5,4.9 21.5,17.4q4.2,7.6 -5.7,16.1q-6,5.1 -10.6-4" fill="none" stroke="#f0f0f0" stroke-width="2.2"></path><path d="M165.1,1283.2q6.6,20.1 7,17.8q1.4-10.3 5.9-16.4q4.7-1.9 9.1-2.6" fill="none" stroke="#f0f0f0" stroke-width="2.2"></path><path d="M192.3,1282q-6.5-.2 -5,6.9q.7,3.3 7.4,3.5" fill="none" stroke="#f0f0f0" stroke-width="2.2"></path><path d="M204.5,1284.3q1,7.9 2.3,10.4" fill="none" stroke="#f0f0f0" stroke-width="2.2"></path><path d="M205.1,1262.3q-.1,.3 -.6,1.7" fill="none" stroke="#f0f0f0" stroke-width="2.2"></path><path d="M235.2,1279.1q-13.3-1 -19.8,6.7q-7.2,8.6 17.5,6" fill="none" stroke="#f0f0f0" stroke-width="2.2"></path><path d="M240.4,1276.2q-8.6,11.2 -3.1,19q.9,1.3 7.7-1" fill="none" stroke="#f0f0f0" stroke-width="2.2"></path><path d="M257.2,1247.8q-4.3,49.1 2.9,42.9" fill="none" stroke="#f0f0f0" stroke-width="2.2"></path><path d="M269.4,1273.9q-14.3,14.7 -8.7,21.5q5.4,0 10.4-1.8" fill="none" stroke="#f0f0f0" stroke-width="2.2"></path><path d="M-64,1379q1.2,29.7 2,42" fill="none" stroke="#f0f0f0" stroke-width="2.6"></path><path d="M-67,1386q8.6-6.1 14.6-2.6q4.1,15.1 3.3,30.1q-.2,4.9 5.8,7.6q1.9-1.2 3.3-3.1" fill="none" stroke="#f0f0f0" stroke-width="2.6"></path><path d="M-73,1360q6.5,7.6 13.3,5.8q17.3-2.6 31.7-3.8" fill="none" stroke="#f0f0f0" stroke-width="2.6"></path><path d="M-13,1387q15.4,1.4 28,3" fill="none" stroke="#f0f0f0" stroke-width="2.6"></path><path d="M-7,1400Q4,1398.9 13,1398" fill="none" stroke="#f0f0f0" stroke-width="2.6"></path><path d="M60,1388q-3.2,7.5 0,28.3" fill="none" stroke="#f0f0f0" stroke-width="2.6"></path><path d="M56,1386q7.4-2 10.5,1q2.8,12.2 2.4,23.5q-.2,5.9 14.4-.2" fill="none" stroke="#f0f0f0" stroke-width="2.6"></path><path d="M101,1407q-7.3,6.8 -2.9,12.6q1.7,2.2 5.9-10.9q6.9,3 14,10.3" fill="none" stroke="#f0f0f0" stroke-width="2.6"></path><path d="M123,1387q1.9,38.2 7.6,30q4.8-6.8 5.8-6.8q5.5,.3 -1.2,9q-1,1.3 -8.2,1.8" fill="none" stroke="#f0f0f0" stroke-width="2.6"></path><path d="M182,1391q.3-.4 .6-.7q2.2,8.6 1.4,22.7" fill="none" stroke="#f0f0f0" stroke-width="2.6"></path><path d="M171,1400q29.6-10.4 32-7" fill="none" stroke="#f0f0f0" stroke-width="2.6"></path><path d="M233,1387q3.4,15.2 5,28" fill="none" stroke="#f0f0f0" stroke-width="2.6"></path><path d="M230,1391q17.4-4.8 22.6,1.9q.1,.1 -9.8,12q-7.6,9 13.7,9.7" fill="none" stroke="#f0f0f0" stroke-width="2.6"></path><path d="M273,1407q-12.8,2.8 -7,7.6q4.7,3.8 10.1-3.2q-.3-1.9 -1.3-3.5q1.6,1.7 4.2,5.1" fill="none" stroke="#f0f0f0" stroke-width="2.6"></path><path d="M296,1407q-11.1,6.5 -4.1,10.5q6,1.2 11.1,1.5" fill="none" stroke="#f0f0f0" stroke-width="2.6"></path><path d="M340,1393q2.5,9.3 4,17" fill="none" stroke="#f0f0f0" stroke-width="2.6"></path><path d="M330,1401q15.3-2.6 28-4" fill="none" stroke="#f0f0f0" stroke-width="2.6"></path><path d="M390,1380q3.6-1.5 2.9,3.8q-3.9,29 -2.9,33.2" fill="none" stroke="#f0f0f0" stroke-width="2.6"></path><path d="M393,1387q5.7-10.8 9.7-6.5q1,14.9 -2.2,28.4q-3.4,15 17.3,3.7" fill="none" stroke="#f0f0f0" stroke-width="2.6"></path><path d="M422,1398q6.3,46.4 2.7,28.4q-2.2-11 10.4-10.5q8.4,.3 3,11.7q-1.6,3.3 -9.6-.4" fill="none" stroke="#f0f0f0" stroke-width="2.6"></path><path d="M448,1417q-5.3,9.6 -2.5,13.3q4.4,1.4 8.5,1.7" fill="none" stroke="#f0f0f0" stroke-width="2.6"></path><path d="M-2,1488Q.8,1485.2 19.1,1484.7" fill="none" stroke="#f0f0f0" stroke-width="2.7"></path><path d="M-2,1498Q7.9,1497.3 16,1497" fill="none" stroke="#f0f0f0" stroke-width="2.7"></path><path d="M33,1481q18.6,9.5 13.7,14.9q-5.6,2.2 -10.7,3.1" fill="none" stroke="#f0f0f0" stroke-width="2.7"></path><path d="M93,1476q1.1,10.4 2,19" fill="none" stroke="#f0f0f0" stroke-width="2.7"></path><path d="M93,1475q9.6,1.8 10.9,7.3q.7,6.6 1,12.1q.2,4.8 12.4,.1" fill="none" stroke="#f0f0f0" stroke-width="2.7"></path><path d="M151,1478q1.7,11.5 3,21" fill="none" stroke="#f0f0f0" stroke-width="2.7"></path><path d="M151,1490q2.2-.6 4-1" fill="none" stroke="#f0f0f0" stroke-width="2.7"></path><path d="M187,1478q1.1,12.1 2,22" fill="none" stroke="#f0f0f0" stroke-width="2.7"></path><path d="M189,1479q2,1.9 3.1,11.6q.5,4.2 14.8,6.1" fill="none" stroke="#f0f0f0" stroke-width="2.7"></path><path d="M268,1480q1.7,11.5 3,21" fill="none" stroke="#f0f0f0" stroke-width="2.7"></path><path d="M257,1494q27.4-8.1 21-2" fill="none" stroke="#f0f0f0" stroke-width="2.7"></path><path d="M309,1482q-.8,12.1 -1,22" fill="none" stroke="#f0f0f0" stroke-width="2.7"></path><path d="M303,1485q6.7-5 7.5,1.5q.3,7.2 .3,13.1q6.9,4.1 15.2,5.4" fill="none" stroke="#f0f0f0" stroke-width="2.7"></path><path d="M473,1474q11-.4 20,0" fill="none" stroke="#f0f0f0" stroke-width="2.6"></path><path d="M475,1481q13.8-.5 25-1" fill="none" stroke="#f0f0f0" stroke-width="2.6"></path><path d="M549,1472q-.1-3.7 4.9-3.6q10.5,.1 8.3,7.4q-5.2,2.2 -11,2.5q4.9,3.6 14.3,7.7q8.1,3.6 -1.5,8.2q-9.7-.2 -18-2.2" fill="none" stroke="#f0f0f0" stroke-width="2.6"></path><path d="M584,1476q-2.1,12.1 -4,22" fill="none" stroke="#f0f0f0" stroke-width="2.6"></path><path d="M579,1473q18.4,4.9 17.7,14.2q-5,3.5 -11,5.1q6.7,4 19.3,7.7" fill="none" stroke="#f0f0f0" stroke-width="2.6"></path><path d="M-76,1566q-.3,17 0,31" fill="none" stroke="#f0f0f0" stroke-width="2.7"></path><path d="M-76,1573q12.9-8.5 20.5-6.4q5.7,1.6 -2.9,23q-3.2,7.9 8.2,2.7" fill="none" stroke="#f0f0f0" stroke-width="2.7"></path><path d="M-31,1590q-5.7,10.2 2.8,11.2q5.6-2 10-4.8q.9,1.3 1.4,3.4q2.3,2 4.8,3.2" fill="none" stroke="#f0f0f0" stroke-width="2.7"></path><path d="M5,1577Q18.8,1578.7 30,1581" fill="none" stroke="#f0f0f0" stroke-width="2.7"></path><path d="M16,1586q9.4,1.6 17,3" fill="none" stroke="#f0f0f0" stroke-width="2.7"></path><path d="M134,1552q-.3,19.2 0,35" fill="none" stroke="#f0f0f0" stroke-width="2.7"></path><path d="M141,1557q12.5-1.2 9.1,8.2q-4.2,6.7 -8.2,11.9q-3.4,4.3 24.7,7.5" fill="none" stroke="#f0f0f0" stroke-width="2.7"></path><path d="M189,1570q-1.4,.3 -1,2" fill="none" stroke="#f0f0f0" stroke-width="2.7"></path><path d="M214,1568q.3,9.3 1,17" fill="none" stroke="#f0f0f0" stroke-width="2.7"></path><path d="M216,1566q8.6-8.3 13.8-3.9q-.2,8.8 -3.4,17.1q10.6,6 25.6,7.8" fill="none" stroke="#f0f0f0" stroke-width="2.7"></path><path d="M124,1606q91.1-10.6 95.7-10.7q10.2,2.4 18.4,5.6" fill="none" stroke="#f0f0f0" stroke-width="2.7"></path><path d="M155,1626q5.8-3.7 13.6,.6q6.6,3.6 -3.2,6.1q-.8,0 -1.4-.1q3.7,4.5 11.7,10.4q5.9,4.3 -2.2,10.1q-9.3-.3 -17.5-3.1" fill="none" stroke="#f0f0f0" stroke-width="2.7"></path><path d="M194,1627q.7,13.2 1,24" fill="none" stroke="#f0f0f0" stroke-width="2.7"></path><path d="M193,1629q8.3-5.1 16.8-4.4q11.9,1 7.8,12.9q-4.5,4.4 -9.2,7.2q4.4,2.6 12.1,4.1q7,3.1 12.5,6.2" fill="none" stroke="#f0f0f0" stroke-width="2.7"></path><path d="M287,1589q7.2-1.9 21-3" fill="none" stroke="#f0f0f0" stroke-width="2.7"></path><path d="M288,1602q14.6-14.1 20-6" fill="none" stroke="#f0f0f0" stroke-width="2.7"></path><path d="M381,1556q.3,26.7 -1,33" fill="none" stroke="#f0f0f0" stroke-width="2.7"></path><path d="M382,1564q5.7-7.1 7.6-3.5q3.2,9.8 5.1,18.2q.3,1.6 7.3,3.3" fill="none" stroke="#f0f0f0" stroke-width="2.7"></path><path d="M403,1549q17.6-.9 19.2,8.1q.1,1 -7.9,13.4q-2.9,4.6 6.3,7.1" fill="none" stroke="#f0f0f0" stroke-width="2.7"></path><path d="M368,1606q25.6-3.3 51.9-2.5" fill="none" stroke="#f0f0f0" stroke-width="2.7"></path><path d="M380,1622q6.4-4.3 12.1-2.1q11.4,4.4 -4.9,10.3q-1.7,.2 -3.1,.3q3.2,2.6 9.6,5.7q7.2,3.5 0,11.6q-6.5,.6 -12.7-.8" fill="none" stroke="#f0f0f0" stroke-width="2.7"></path><path d="M414,1626q-2.4,8.9 -5,16" fill="none" stroke="#f0f0f0" stroke-width="2.7"></path><path d="M409,1625q16.6,2.5 23.6,10.2q4.5,8.4 7.4,15.8" fill="none" stroke="#f0f0f0" stroke-width="2.7"></path><path d="M467,1593q14.3,2.1 26,4" fill="none" stroke="#f0f0f0" stroke-width="2.6"></path><path d="M476,1605q46.4-3.1 48,1" fill="none" stroke="#f0f0f0" stroke-width="2.6"></path><path d="M566,1567q3.1,18.7 4,21" fill="none" stroke="#f0f0f0" stroke-width="2.6"></path><path d="M565,1569q22.3-5.2 19.8,1.2q-6.5,5.2 -13.2,8.3q-3.1,1.5 3.8,3.3q16.2,2.2 29.6,3.2" fill="none" stroke="#f0f0f0" stroke-width="2.6"></path><path d="M560,1605q26.9-1.4 49-2" fill="none" stroke="#f0f0f0" stroke-width="2.6"></path><path d="M570,1624q19.2,2.3 17.9,9.7q-2.1,1.1 -4.6,1.4q3.7,1.5 10.7,3q9.1,2 -12.1,5.9q-12.6,1.7 -22.9,3" fill="none" stroke="#f0f0f0" stroke-width="2.6"></path><path d="M45,1849q0,33 0,33" fill="none" stroke="#f0f0f0" stroke-width="3"></path><path d="M48,1845q11-1 22,8q10,9 -10,8q-6-2 -10-4" fill="none" stroke="#f0f0f0" stroke-width="3"></path><path d="M86,1857q19,0 21,1" fill="none" stroke="#f0f0f0" stroke-width="3"></path><path d="M88,1871q14-2 25-3" fill="none" stroke="#f0f0f0" stroke-width="3"></path><path d="M145,1859q-2,16 -4,29" fill="none" stroke="#f0f0f0" stroke-width="3"></path><path d="M136,1857q14-1 16,10q2,12 2,21q0,1 4-1" fill="none" stroke="#f0f0f0" stroke-width="3"></path><path d="M173,1880q1,9 1,17" fill="none" stroke="#f0f0f0" stroke-width="3"></path><path d="M172,1861q1-1 1-1" fill="none" stroke="#f0f0f0" stroke-width="3"></path><path d="M210,1868q7,23 5,24" fill="none" stroke="#f0f0f0" stroke-width="3"></path><path d="M197,1850q14,1 26,2" fill="none" stroke="#f0f0f0" stroke-width="3"></path><path d="M206,1902q11-3 20-5" fill="none" stroke="#f0f0f0" stroke-width="3"></path><path d="M234,1829q11,2 13,8q-1,10 -3,17q-3,11 20,3" fill="none" stroke="#f0f0f0" stroke-width="3"></path><path d="M269,1876q.3,.3 0,.3q-.3,0 -.3-.3q0-.3 .3-.3q.3,0 .3,.3" fill="none" stroke="#f0f0f0" stroke-width="3"></path><path d="M326,1859q14,3 25,5" fill="none" stroke="#f0f0f0" stroke-width="3"></path><path d="M328,1875q14,0 26,0" fill="none" stroke="#f0f0f0" stroke-width="3"></path><path d="M510,1849q-10,13 -9,54q1,21 17,37" fill="none" stroke="#f0f0f0" stroke-width="3"></path><path d="M579,1851q4,31 14,29q5,0 10-25" fill="none" stroke="#f0f0f0" stroke-width="3"></path><path d="M614,1872q-2-10 4-12q8-2 14,13q1,1 -2,7" fill="none" stroke="#f0f0f0" stroke-width="3"></path><path d="M516,1890q8-1 36,0q87,2 158,3" fill="none" stroke="#f0f0f0" stroke-width="3"></path><path d="M550,1909q8,31 8,31" fill="none" stroke="#f0f0f0" stroke-width="3"></path><path d="M546,1914q13-4 17,5q1,11 0,20q-1,6 14,1" fill="none" stroke="#f0f0f0" stroke-width="3"></path><path d="M584,1930q1,8 2,14" fill="none" stroke="#f0f0f0" stroke-width="3"></path><path d="M584,1912q0,0 2,0" fill="none" stroke="#f0f0f0" stroke-width="3"></path><path d="M610,1919q-1,8 -1,15" fill="none" stroke="#f0f0f0" stroke-width="3"></path><path d="M604,1925q8,0 15,0" fill="none" stroke="#f0f0f0" stroke-width="3"></path><path d="M639,1921q0,13 1,23" fill="none" stroke="#f0f0f0" stroke-width="3"></path><path d="M633,1924q12-5 17,2q0,9 -2,18q0,1 6,0" fill="none" stroke="#f0f0f0" stroke-width="3"></path><path d="M673,1918q-3,24 3,30q7,1 13,0" fill="none" stroke="#f0f0f0" stroke-width="3"></path><path d="M717,1852q8,6 15,23q9,25 7,66q-1,2 -7,7" fill="none" stroke="#f0f0f0" stroke-width="3"></path><path d="M759,1834q6-4 7-1q-2,14 -7,25q-2,4 18-1" fill="none" stroke="#f0f0f0" stroke-width="3"></path><path d="M452,1873q2-3 2,1q0,20 4,24q6,0 12-2" fill="none" stroke="#f0f0f0" stroke-width="3"></path><path d="M419,1869q4,23 4,23" fill="none" stroke="#f0f0f0" stroke-width="3"></path><path d="M417,1865q26-2 20,8q-4,4 -7,7q4,7 11,13" fill="none" stroke="#f0f0f0" stroke-width="3"></path><path d="M362,2132q-18-34 -18-34" fill="none" stroke="#f0f0f0" stroke-width="6"></path><path d="M158.7,2192.8q9.2-16.4 16.2-14.6q1.7,15.3 -3.1,32.3" fill="none" stroke="#f0f0f0" stroke-width="2.5"></path><path d="M198,2187.6q9.9-12.5 9.9-3.9q-.9,7.8 -1.9,14.1q-1.1,6.1 18.8,2.9" fill="none" stroke="#f0f0f0" stroke-width="2.5"></path><path d="M192.8,2202.7q-8,6.7 -9.2,13" fill="none" stroke="#f0f0f0" stroke-width="2.5"></path><path d="M243.8,2179.8q.5-.3 .8-.6q-.8,3.6 -3.7,9.2q-2,4.1 6.2,6.4" fill="none" stroke="#f0f0f0" stroke-width="2.5"></path><path d="M247.7,2179.1q.1,11.2 0,20.3" fill="none" stroke="#f0f0f0" stroke-width="2.5"></path><path d="M234,2196.8q-4.3,13.7 -7.9,24.8" fill="none" stroke="#f0f0f0" stroke-width="2.5"></path><path d="M270,2198.7q-1.1,6.2 -2,11.2" fill="none" stroke="#f0f0f0" stroke-width="2.5"></path><path d="M281.8,2196.1q9-10.9 11-6.4q-.9,10.9 -3.8,20.2" fill="none" stroke="#f0f0f0" stroke-width="2.5"></path><path d="M309.9,2191.5q6.6-9.8 10.8-3.8q7.3,10.6 -7.2,14.8q-1.3,.3 -8.8-5.7" fill="none" stroke="#f0f0f0" stroke-width="2.5"></path><path d="M342.6,2194.8q-9,10.4 -16.3,19" fill="none" stroke="#f0f0f0" stroke-width="2.5"></path><path d="M375.3,2179.8q9.4-.8 12,3.1q-2.6,8.4 -7.8,15.5q2.2,.6 5.7,.3" fill="none" stroke="#f0f0f0" stroke-width="2.5"></path><path d="M396.3,2194.2q13.4-21.6 16.2-7.3q1.7,8.6 -14.9,19" fill="none" stroke="#f0f0f0" stroke-width="2.5"></path><path d="M428.4,2203.3q-7,13.1 -9.2,11.8" fill="none" stroke="#f0f0f0" stroke-width="2.5"></path><path d="M461.7,2179.1q-5.9,1.6 -10.2,8.1q-1.5,2.1 -2.9,12.8" fill="none" stroke="#f0f0f0" stroke-width="2.5"></path><path d="M463,2181.7q-1.4,10.1 -2.6,18.3" fill="none" stroke="#f0f0f0" stroke-width="2.5"></path><path d="M475.5,2193.5q2.2-13.3 8.1-10.6q8.4,3.7 -.6,13.9q-2.6,1.3 -4.9,1.9" fill="none" stroke="#f0f0f0" stroke-width="2.5"></path><path d="M496.4,2196.1q-10.2,17.8 -11.1,15.1" fill="none" stroke="#f0f0f0" stroke-width="2.5"></path><path d="M516.7,2195.5q7.7-13.2 9.5-6.8q2.5,8.3 -4.9,14.6" fill="none" stroke="#f0f0f0" stroke-width="2.5"></path><path d="M541.6,2194.2q-4.8-5.9 2.3-6q10,0 6.6,6.9q-6.7,1.7 -13.5,1" fill="none" stroke="#f0f0f0" stroke-width="2.5"></path><path d="M556,2191.5q-2.2-7.2 6.5-5.8q10.9,1.7 4.9,8.7q-4.9,1.5 -9.5,1.7" fill="none" stroke="#f0f0f0" stroke-width="2.5"></path><path d="M574.9,2196.1q-7,20.4 -6.5,15.1" fill="none" stroke="#f0f0f0" stroke-width="2.5"></path><path d="M592.6,2190.2q7.7-2.9 7,1.4q-1.1,6.4 -2,11.7q2,2.4 4.8,3.9" fill="none" stroke="#f0f0f0" stroke-width="2.5"></path><path d="M620.8,2198.1q2.1-11.9 10.7-11q11.1,1 2.5,13.1q-2.8,4 -10-.2" fill="none" stroke="#f0f0f0" stroke-width="2.5"></path><path d="M643.7,2195.5q9.2-11.3 17.6-6.1q7.3,4.4 -9.8,15.9" fill="none" stroke="#f0f0f0" stroke-width="2.5"></path><path d="M679.7,2198.7q-2.2,8.3 -4,15.1" fill="none" stroke="#f0f0f0" stroke-width="2.5"></path><path d="M707.1,2186.3q-9.7,3.2 -12.8,10.1q-.9,6.9 -.9,12.8" fill="none" stroke="#f0f0f0" stroke-width="2.5"></path><path d="M711.1,2189.6q-1.4,14 -2.6,25.5" fill="none" stroke="#f0f0f0" stroke-width="2.5"></path><path d="M716.3,2196.8q8.4-10 16.2-8.9q10.7,1.4 2.3,16.2q-2,3.5 -19.1,5.1" fill="none" stroke="#f0f0f0" stroke-width="2.5"></path><path d="M744.4,2198.1q-.1-5.4 9.8-3.2q9.4,2.1 .1,10.7q-6.5,2.2 -12.5,2.9" fill="none" stroke="#f0f0f0" stroke-width="2.5"></path><path d="M705.2,2188.9q-14,8 -10.8,11.3q11.1,.9 21.3-1.5" fill="none" stroke="#f0f0f0" stroke-width="2.5"></path><path d="M966,2161.4q-1.6,24.3 5.3,34.8q7.6,11.7 14-24.3q1.3-7.7 3.9-4.3q2.6,7.5 3.8,14.1" fill="none" stroke="#f0f0f0" stroke-width="2.2"></path><path d="M1004.2,2180q18.8-7.5 20.2-5.7" fill="none" stroke="#f0f0f0" stroke-width="2.2"></path><path d="M1013.2,2185q5.9-1.8 10.7-3.3" fill="none" stroke="#f0f0f0" stroke-width="2.2"></path><path d="M1045.2,2174.9q2.2,5.3 4,9.6" fill="none" stroke="#f0f0f0" stroke-width="2.2"></path><path d="M1039.6,2172.7q7.9-2.5 13.8,.5q4.1,5.7 6.5,11.4q3.5,.9 7.2,.4" fill="none" stroke="#f0f0f0" stroke-width="2.2"></path><path d="M1072.8,2178.8q.6,.6 2.8,2.9" fill="none" stroke="#f0f0f0" stroke-width="2.2"></path><path d="M1093.6,2169.3q8.4,33.4 4.5,33.7" fill="none" stroke="#f0f0f0" stroke-width="2.2"></path><path d="M1175.2,2259.9q10.2,16.4 5.3,17.3" fill="none" stroke="#f0f0f0" stroke-width="1.9"></path><path d="M1192,2263.8q11.3-1.5 20.6-2.4" fill="none" stroke="#f0f0f0" stroke-width="1.9"></path><path d="M1204,2266.2q12.2-2.1 13.4-1" fill="none" stroke="#f0f0f0" stroke-width="1.9"></path><path d="M1248.1,2259.4q2.2,6.3 6.5,7q3.2,.5 10.6-9.7q3.9-5.5 5.5,3.7" fill="none" stroke="#f0f0f0" stroke-width="1.9"></path><path d="M1248.1,2273.4q24.3-4.9 24.5-3.9" fill="none" stroke="#f0f0f0" stroke-width="1.9"></path><path d="M1258.2,2282.5q1.2,11.9 .5,13.4" fill="none" stroke="#f0f0f0" stroke-width="1.9"></path><path d="M1259.2,2281q20.7-2.3 12.4,3.7q-4.3,1.5 -8,2.3q-1.2,.2 3,3.2q7.1,3.7 13.2,6.2" fill="none" stroke="#f0f0f0" stroke-width="1.9"></path><path d="M1343.3,2333.5q-1.2,11.2 -1.8,20.5" fill="none" stroke="#f0f0f0" stroke-width="1.8"></path><path d="M1340.6,2333.5q1.2-4 4.1-4q8.2,.1 8.5,10.7q-.6,3.8 -1.4,6.9q2.6,1.2 6,1.4" fill="none" stroke="#f0f0f0" stroke-width="1.8"></path><path d="M1371,2334q26.1-.7 17.7,0" fill="none" stroke="#f0f0f0" stroke-width="1.8"></path><path d="M1368.7,2343.5q11.5-5.1 19.5-3.6" fill="none" stroke="#f0f0f0" stroke-width="1.8"></path><path d="M1406.8,2335.8q1.2,9.8 6.6,10.5q1.7,.2 7.6-11.8" fill="none" stroke="#f0f0f0" stroke-width="1.8"></path><path d="M1402.3,2352.6q9-1.8 16.3-3.2" fill="none" stroke="#f0f0f0" stroke-width="1.8"></path><path d="M1416.4,2356.7q-.2,9 -.5,16.3" fill="none" stroke="#f0f0f0" stroke-width="1.8"></path></svg>