<svg viewBox="-116.7 92.5 871.1 260.6" width="871.1" height="260.6" version="1.1" baseProfile="full" xmlns="http://www.w3.org/2000/svg" class="js-draw--autoresize"><style id="js-draw-style-sheet">path{stroke-linecap:round;stroke-linejoin:round;}text{white-space:pre;}</style><g class="js-draw-image-background js-draw-image-background-grid js-draw-image-background-grid-25"><path d="M754.4,353.1l0-260.6l-871.1,0l0,260.6l871.1,0" fill="#03035e"></path><path d="M-117.05,100l871.8,0m-871.8,25l871.8,0m-871.8,25l871.8,0m-871.8,25l871.8,0m-871.8,25l871.8,0m-871.8,25l871.8,0m-871.8,25l871.8,0m-871.8,25l871.8,0m-871.8,25l871.8,0m-871.8,25l871.8,0m-871.8,25l871.8,0m-854.75-257.85l0,261.3m25-261.3l0,261.3m25-261.3l0,261.3m25-261.3l0,261.3m25-261.3l0,261.3m25-261.3l0,261.3m25-261.3l0,261.3m25-261.3l0,261.3m25-261.3l0,261.3m25-261.3l0,261.3m25-261.3l0,261.3m25-261.3l0,261.3m25-261.3l0,261.3m25-261.3l0,261.3m25-261.3l0,261.3m25-261.3l0,261.3m25-261.3l0,261.3m25-261.3l0,261.3m25-261.3l0,261.3m25-261.3l0,261.3m25-261.3l0,261.3m25-261.3l0,261.3m25-261.3l0,261.3m25-261.3l0,261.3m25-261.3l0,261.3m25-261.3l0,261.3m25-261.3l0,261.3m25-261.3l0,261.3m25-261.3l0,261.3m25-261.3l0,261.3m25-261.3l0,261.3m25-261.3l0,261.3m25-261.3l0,261.3m25-261.3l0,261.3m25-261.3l0,261.3" fill="none" stroke="#fcfca133" stroke-width=".7"></path></g><path d="M-106,116q-.2-.5 -.6-.8q-2.2-2.4 -5.7,19.5q-3.1,19.3 8.6,17.5" fill="none" stroke="#f0f0f0" stroke-width="2.6"></path><path d="M-98,136q7.6-1.4 14-2" fill="none" stroke="#f0f0f0" stroke-width="2.6"></path><path d="M-74,128q2.2,10.4 3.9,18.8q1.6-3 3.1-8.8q.8-3.2 10-13" fill="none" stroke="#f0f0f0" stroke-width="2.6"></path><path d="M-29,130q1.2-3.5 .8-3.3q-8.8,4 -3.4,19.5q3.3,9.3 8.8-1.2q.9-5.9 1-10.9q.5,2.9 1,8.3q.9,9.2 13.3,4.1q4.8-2 1.8-14.3" fill="none" stroke="#f0f0f0" stroke-width="2.6"></path><path d="M-4,112Q4.6,108.1 3.5,112.4Q1.3,121 4.9,122.4Q9.3,122.5 13,122" fill="none" stroke="#f0f0f0" stroke-width="2.6"></path><path d="M54,132q-1.7,4.8 -.5,7.3q4.3,3 8.5,4.7" fill="none" stroke="#f0f0f0" stroke-width="2.6"></path><path d="M67,138q.5-6.7 3.4-3.5q5.3,5.6 -2,13.5" fill="none" stroke="#f0f0f0" stroke-width="2.6"></path><path d="M90,131q-7.9,.2 -4.1,5.9q7.9,12 -1.5,10.7q-3.6-1.7 -6.4-3.6" fill="none" stroke="#f0f0f0" stroke-width="2.6"></path><path d="M108,119q-6,13.8 -4.9,23.2q.2,2 5.9,7.8" fill="none" stroke="#f0f0f0" stroke-width="2.6"></path><path d="M122,131q-2.3,19 2.5,14q.5-1.9 .7-3.6q1.6,2.4 3.6,7.1q1.5,3.5 10.1-1.2q2.3-4.7 3.1-9.3" fill="none" stroke="#f0f0f0" stroke-width="2.6"></path><path d="M150,118q1,16.5 2,30" fill="none" stroke="#f0f0f0" stroke-width="2.6"></path><path d="M145,135q7.7-1.6 14-3" fill="none" stroke="#f0f0f0" stroke-width="2.6"></path><path d="M178,126q0,8.2 0,15" fill="none" stroke="#f0f0f0" stroke-width="2.6"></path><path d="M173,134q3.9,1.1 7,2" fill="none" stroke="#f0f0f0" stroke-width="2.6"></path><path d="M196,138q20.5-2.4 23.4-8.9q1.8-4 -2.7-5.9q-3-1.2 -9.1,15.7q-5.2,14.5 6.7,16.6" fill="none" stroke="#f0f0f0" stroke-width="2.6"></path><path d="M234,120q3.8,14.6 1.3,25.2q-.4,1.8 -5.3,7.8" fill="none" stroke="#f0f0f0" stroke-width="2.6"></path><path d="M254,114q9.1,10.7 8.6,23.8q-.3,6.2 -8.9,13" fill="none" stroke="#f0f0f0" stroke-width="2.6"></path><path d="M277,98q1-4.2 3.4-2.4q3.3,2.5 -1.2,16.7q-.7,2.1 -.5,2.2q1,.7 6.3-.5" fill="none" stroke="#f0f0f0" stroke-width="2.6"></path><path d="M319,118q.7,9.3 1,17" fill="none" stroke="#f0f0f0" stroke-width="2.6"></path><path d="M311,128q11-1.8 20-3" fill="none" stroke="#f0f0f0" stroke-width="2.6"></path><path d="M375,118q-5.7,25.1 -1,24" fill="none" stroke="#f0f0f0" stroke-width="2.6"></path><path d="M400,132q3.9,.6 7,1" fill="none" stroke="#f0f0f0" stroke-width="2.6"></path><path d="M422,130q.1-5.2 .5-3.3q.5,6.1 .7,11.1q2.2-4.4 4.8-12.8" fill="none" stroke="#f0f0f0" stroke-width="2.6"></path><path d="M455,133q-4.8,12.2 .4,10.2q3.1-3.9 5-7.9q.8,2.7 1.1,7.5q.4,7.4 9,.5q.7-.6 -.5-4.3" fill="none" stroke="#f0f0f0" stroke-width="2.6"></path><path d="M472,118q9.3-2.2 9.7,2.5q-1,4.4 -2.3,8q1.4,1.5 3.6,2.5" fill="none" stroke="#f0f0f0" stroke-width="2.6"></path><path d="M533,126q-7.9,4.4 -3.1,14.9q4,9 -5.7,3.5q-1.8-1.8 -3.2-3.4" fill="none" stroke="#f0f0f0" stroke-width="2.6"></path><path d="M544,140q-2.1,7.1 -2,7" fill="none" stroke="#f0f0f0" stroke-width="2.6"></path><path d="M546,122q0,.6 0,3" fill="none" stroke="#f0f0f0" stroke-width="2.6"></path><path d="M554,137q.4,7.4 -.3,8.5q-.6,.8 2.3-4.5" fill="none" stroke="#f0f0f0" stroke-width="2.6"></path><path d="M566,138q2.6,7 4,13" fill="none" stroke="#f0f0f0" stroke-width="2.6"></path><path d="M589,126q-6,10.2 -6.2,17.5q1.9,3.2 4.2,5.5" fill="none" stroke="#f0f0f0" stroke-width="2.6"></path><path d="M604,133q-5.8,8.4 -1.5,13q4,4.2 5.4-6.3q1,2.1 2,6.1q1,4.2 9.5-.9q1.4-.9 2.6-7.9" fill="none" stroke="#f0f0f0" stroke-width="2.6"></path><path d="M641,123q-1.3,16.5 -2,30" fill="none" stroke="#f0f0f0" stroke-width="2.6"></path><path d="M632,141q4.4-.6 8-1" fill="none" stroke="#f0f0f0" stroke-width="2.6"></path><path d="M662,137q.6,5.5 1,10" fill="none" stroke="#f0f0f0" stroke-width="2.6"></path><path d="M658,140q6.6,.9 12,2" fill="none" stroke="#f0f0f0" stroke-width="2.6"></path><path d="M685,139q22.4-.6 15.8-6.9q-4.5-4.3 -8.8,10.7q-1.9,6.6 8,12.2" fill="none" stroke="#f0f0f0" stroke-width="2.6"></path><path d="M718,121q5.8,16.6 .6,28.4q-2.4,3.2 -4.6,5.6" fill="none" stroke="#f0f0f0" stroke-width="2.6"></path><path d="M730,106q8.2-6.2 11.6-1.9q-.7,7.1 -3.5,13.4q6.1,2.5 14.9,2.5" fill="none" stroke="#f0f0f0" stroke-width="2.8"></path><path d="M-30.1,236.2q9.2-.2 16.7,0" fill="none" stroke="#f0f0f0" stroke-width="2.2"></path><path d="M-.7,232.7Q1.2,239.5 3,245Q4.4,239.3 5.1,228.7" fill="none" stroke="#f0f0f0" stroke-width="2.2"></path><path d="M31.7,229.8q-6.3,3.2 -2.9,9.8q3,5.7 9.3-2q2.9-3.5 1.1-7.2q-.1,2.4 .4,6.6q.7,5.5 13,2.5q3.2-.8 1.6-7.9" fill="none" stroke="#f0f0f0" stroke-width="2.2"></path><path d="M53.1,210.8q17.1-8 14-.7q-2.4,5.9 -1.5,6.6q1.4,1.1 8.8-.7" fill="none" stroke="#f0f0f0" stroke-width="2.2"></path><path d="M107.3,217.1q-4.9,1.1 -8.5,9.6q-6,14.4 3.9,21.6" fill="none" stroke="#f0f0f0" stroke-width="2.2"></path><path d="M140.3,227.5q-16.2,8.7 -9.8,14.1q7.6,1.1 14.4,.3" fill="none" stroke="#f0f0f0" stroke-width="2.2"></path><path d="M147.8,239.1q4-8.2 11.4-5.4q8.5,3.3 .5,8.5q-2.1,1.4 -7.7-1.7q-.9-.4 3.3-3.2" fill="none" stroke="#f0f0f0" stroke-width="2.2"></path><path d="M178.4,228.7q-5-2.3 -4,3.5q2.6,6.3 5.3,11.3q2.2,4.1 -16.3-1" fill="none" stroke="#f0f0f0" stroke-width="2.2"></path><path d="M209,220q-12.7,8.5 -15.2,19.1q-2,8.1 8.7,10.5q.8,.2 3.6-1.9" fill="none" stroke="#f0f0f0" stroke-width="2.2"></path><path d="M220.5,228.7q-4.7,9.4 .7,14q3.3,2.9 6.4-4.9q.1,.3 .1,.7q.9,6.8 15,0q.6-.2 1.5-2.9" fill="none" stroke="#f0f0f0" stroke-width="2.2"></path><path d="M256.3,215.4q-.4,26.8 0,27.1" fill="none" stroke="#f0f0f0" stroke-width="2.2"></path><path d="M251.1,235.6q3.9-1.4 7.5-1.7" fill="none" stroke="#f0f0f0" stroke-width="2.2"></path><path d="M275.4,226.9q-.3,6.4 -.6,11.6" fill="none" stroke="#f0f0f0" stroke-width="2.2"></path><path d="M287.5,236.8q14-2.5 18.7-9.6q2.8-4.3 -2.7-2.5q-10.4,3.5 -7.9,22.2" fill="none" stroke="#f0f0f0" stroke-width="2.2"></path><path d="M315.2,214.2q7.2,20.3 3.5,30.1" fill="none" stroke="#f0f0f0" stroke-width="2.2"></path><path d="M328.5,210.8q9.4-1.4 8.4,3.3q-1.5,5.2 -3,9.4q4.7,1.6 11.4,1.1" fill="none" stroke="#f0f0f0" stroke-width="2.2"></path><path d="M366.6,222.3q.9,8.3 1.8,15" fill="none" stroke="#f0f0f0" stroke-width="2.2"></path><path d="M363.2,228.1q7.9,.2 14.4,.6" fill="none" stroke="#f0f0f0" stroke-width="2.2"></path><path d="M414,223.5q-6.4,3.6 -5,8.2q3,5.7 5.9,10.2q1.8,3 -10.7-1.1" fill="none" stroke="#f0f0f0" stroke-width="2.2"></path><path d="M430.2,236.2q-.1,4.5 0,8.1" fill="none" stroke="#f0f0f0" stroke-width="2.2"></path><path d="M430.2,223.5q.6,.6 1.1,1.1" fill="none" stroke="#f0f0f0" stroke-width="2.2"></path><path d="M442.3,232.1q1.9,11.4 2.7,10.7q11.7-9.9 16.4,3.2" fill="none" stroke="#f0f0f0" stroke-width="2.2"></path><path d="M493.7,220q-11.6,10.4 -13.9,19.8q-2.3,9.5 11,7.3" fill="none" stroke="#f0f0f0" stroke-width="2.2"></path><path d="M507.6,229.2q-3.7,12.4 2,14.6q3.6,1.5 7.3-6.6q-.3,1 -1.1,2.7q-1.1,2.6 7,3.4q6.3,.6 6.2-5.5q-.3,0 -.7,.1" fill="none" stroke="#f0f0f0" stroke-width="2.2"></path><path d="M550.9,217.1q-.1,16.5 0,30" fill="none" stroke="#f0f0f0" stroke-width="2.2"></path><path d="M541.6,236.8q8,.3 14.5,.5" fill="none" stroke="#f0f0f0" stroke-width="2.2"></path><path d="M575.1,228.1q-1,7.3 -1.7,13.3" fill="none" stroke="#f0f0f0" stroke-width="2.2"></path><path d="M571.1,237.3q10.7-2.3 13.8,0" fill="none" stroke="#f0f0f0" stroke-width="2.2"></path><path d="M593.6,239.1q25.7-.7 24.1-10.5q-1.1-6.8 -12,6.4q-5.3,6.4 -.2,16.6q5,2 10,2.5" fill="none" stroke="#f0f0f0" stroke-width="2.2"></path><path d="M628.8,223.5q4.2,9.3 3,21.5q-.1,.9 -3.5,3.3" fill="none" stroke="#f0f0f0" stroke-width="2.2"></path><path d="M638.1,211.3q9.8-1.7 9.9,4.3q-.3,5.5 -.8,10q3.1,1.1 7,.8" fill="none" stroke="#f0f0f0" stroke-width="2.2"></path><path d="M676.2,213.1q4.8,9.5 2.4,23.7q-1.7,10.2 -14.5,16.1" fill="none" stroke="#f0f0f0" stroke-width="2.2"></path><path d="M-30.7,319.3q10.5-1.2 19.1-1.7" fill="none" stroke="#f0f0f0" stroke-width="2.2"></path><path d="M4.5,310.1Q8.1,327.7 10.8,329Q11.4,323 9.2,314.1" fill="none" stroke="#f0f0f0" stroke-width="2.2"></path><path d="M37.5,313.6q-1.8-5.8 -2.8-3.4q-4.7,10.4 3.5,18q4.2,3.8 13.3-12.1q1.7,1.9 3.1,5.5q1.2,3 10.2-1.1q3.9-1.8 1.6-7.9q-1.7-.4 -3.5-.2" fill="none" stroke="#f0f0f0" stroke-width="2.2"></path><path d="M10,294Q24.5,287.4 21.7,297.1Q19.6,302.4 17.7,306.8Q21.1,307.2 26,306" fill="none" stroke="#f0f0f0" stroke-width="2.6"></path><path d="M72,285q4.2-.6 1.5,2.2q-14.4,15 -2.4,14.8q5-1.8 8.9-4" fill="none" stroke="#f0f0f0" stroke-width="2.6"></path><path d="M78,287q-.7,11.5 -1,21" fill="none" stroke="#f0f0f0" stroke-width="2.6"></path><path d="M-52,317q-.9-1.3 .3,2.5q9.8,32.3 11,28.7q-.3-20.9 -3.7-38.5q-3.9-20.8 29.5-23.9q64.8-6.7 117.7-12.4q-1.4,1.5 -4.2,3.3q.7,7.8 4.4,15.3" fill="none" stroke="#f0f0f0" stroke-width="2.6"></path><path d="M136,304q6.6,4.4 12,8" fill="none" stroke="#f0f0f0" stroke-width="2.6"></path><path d="M125,321q15.9-.3 29,0" fill="none" stroke="#f0f0f0" stroke-width="2.6"></path><path d="M258,313q4.3,19.1 6.9,20.7q.5-3.5 -.4-8.8q3.6-6.8 8.5-11.9" fill="none" stroke="#f0f0f0" stroke-width="2.6"></path><path d="M289,316q-.1,19.3 8.4,11.1q1.8-4.4 2.7-8.5q1.9,2.5 3.8,7.5q2.4,6.2 11.7,2.4q4.9-2 1.5-12.6q-2.9-2 -6.1-2.9" fill="none" stroke="#f0f0f0" stroke-width="2.6"></path><path d="M320,295q11.2-4.7 10.4,.4q-1.2,4.8 -2.4,8.7q-.5,1.7 6,6.9" fill="none" stroke="#f0f0f0" stroke-width="2.6"></path></svg>