<svg viewBox="83.75 206.35 643.55 251.05" width="643.55" height="251.05" version="1.1" baseProfile="full" xmlns="http://www.w3.org/2000/svg" class="js-draw--autoresize"><style id="js-draw-style-sheet">path{stroke-linecap:round;stroke-linejoin:round;}text{white-space:pre;}</style><g class="js-draw-image-background js-draw-image-background-grid js-draw-image-background-grid-25"><path d="M727.3,457.4l0-251.05l-643.55,0l0,251.05l643.55,0" fill="#03035e"></path><path d="M83.4,225l644.25,0m-644.25,25l644.25,0m-644.25,25l644.25,0m-644.25,25l644.25,0m-644.25,25l644.25,0m-644.25,25l644.25,0m-644.25,25l644.25,0m-644.25,25l644.25,0m-644.25,25l644.25,0m-644.25,25l644.25,0m-627.65-244l0,251.75m25-251.75l0,251.75m25-251.75l0,251.75m25-251.75l0,251.75m25-251.75l0,251.75m25-251.75l0,251.75m25-251.75l0,251.75m25-251.75l0,251.75m25-251.75l0,251.75m25-251.75l0,251.75m25-251.75l0,251.75m25-251.75l0,251.75m25-251.75l0,251.75m25-251.75l0,251.75m25-251.75l0,251.75m25-251.75l0,251.75m25-251.75l0,251.75m25-251.75l0,251.75m25-251.75l0,251.75m25-251.75l0,251.75m25-251.75l0,251.75m25-251.75l0,251.75m25-251.75l0,251.75m25-251.75l0,251.75m25-251.75l0,251.75m25-251.75l0,251.75" fill="none" stroke="#fcfca133" stroke-width=".7"></path></g><path d="M237.5,211.5q.5-1.6 2.3-3.1q2.2-1.8 1,3q-1.8,7 -1.2,8.7" fill="none" stroke="#ffffff" stroke-width=".5"></path><path d="M233.7,222.6q4.7-.6 10,.2" fill="none" stroke="#ffffff" stroke-width=".5"></path><path d="M237.2,230.7q2.8-.7 4.7,.1q1.6,.6 .8,2.9q-.5,1.5 -3.6,.8q0-.2 .1-.4q.3-1 3.8,2.2q2.1,2 -1.5,3.2q-.8,.3 -5.3,.5" fill="none" stroke="#ffffff" stroke-width=".5"></path><path d="M274.7,223.1q3.7-1.4 4.9-1.4" fill="none" stroke="#ffffff" stroke-width=".6"></path><path d="M276.1,226.7q1.7,.2 3.1,.3" fill="none" stroke="#ffffff" stroke-width=".6"></path><path d="M312.1,225.7q-1.8-2.4 -1.3-4.4q1-3.5 6.1-1.4q3.1,1.3 .7,7.7q-1.4,3.5 -7.1,2.1q-.5-.3 -.8-.7" fill="none" stroke="#ffffff" stroke-width=".6"></path><path d="M326,232.6q-1.3-.2 -2.4-.3" fill="none" stroke="#ffffff" stroke-width=".6"></path><path d="M337.1,219.6q2.7-2.5 5.3-1.5q2.8,1.2 .8,6.2q-.7,1.8 -3.5,1.3q-1-.2 -.2-.7q1.9-1.3 5.5,4.2q1.4,2.1 -1.6,4q-1.8,1.2 -5.7-2.1" fill="none" stroke="#ffffff" stroke-width=".6"></path><path d="M353.1,219.9q4,1.4 4.6,4.4q.5,2.6 -4.3,2.1q-1.3-.1 -1.1-.9q.2-1.1 4.6,1q4.3,2.1 1.2,5.7q-1.5,1.7 -6.2-.1" fill="none" stroke="#ffffff" stroke-width=".6"></path><path d="M366.1,221.9q.6,3.2 2.9,4.5q3.5,2.1 4,3.3q.6,1.8 -5.7,3q-.4-.1 -.7-.4q-1.2-.9 5.9,.4q3.1,.6 1.3,2.8q-5,2 -9.7,2.7" fill="none" stroke="#ffffff" stroke-width=".6"></path><path d="M274.7,279.4q3.9,.3 7,.5" fill="none" stroke="#ffffff" stroke-width=".9"></path><path d="M275.2,283.8q5.6-.2 7.6,.2" fill="none" stroke="#ffffff" stroke-width=".9"></path><path d="M324.7,275.2q-14.5,.1 -16.9,1.4q-1.7,.9 9.3,6.6q7.3,3.8 4.9,4.9q-13.4,6.7 -14.8,8.7q-.3,.6 8.6,.7q13.7,.2 15,1.2" fill="none" stroke="#ffffff" stroke-width=".6"></path><path d="M308.2,301q-.2,6.9 .1,7.9" fill="none" stroke="#ffffff" stroke-width=".6"></path><path d="M310.6,304.7q-2.2,1.4 -1.5,3q.3,.8 2.9,0" fill="none" stroke="#ffffff" stroke-width=".6"></path><path d="M313.4,304.6q2.3-.1 4.2-.2" fill="none" stroke="#ffffff" stroke-width=".6"></path><path d="M315.5,306.3q.9-.1 1.6-.1" fill="none" stroke="#ffffff" stroke-width=".6"></path><path d="M321.1,305.9q3.5-1.6 4-.9q0,2.2 -.4,4.2" fill="none" stroke="#ffffff" stroke-width=".6"></path><path d="M317.4,267.7q-1.3,3.8 -3,4.5q-2.2,.9 -2.2-1.1q0-1.8 3.9,.5q3.1,1.8 4.7-.1q.7-.8 -2.1-2.4q-.4-.2 -2-.1" fill="none" stroke="#ffffff" stroke-width=".6"></path><path d="M348,282.7q2.2-1.6 4-.9q2.6,.9 1.1,4.1q-.7,.3 -1.3,.4q.8,.7 2.5,1.5q3.5,1.6 2,5.2q-.7,1.5 -5.7-1.5" fill="none" stroke="#ffffff" stroke-width=".7"></path><path d="M361.5,288.7q-.1-.4 -.2-.7" fill="none" stroke="#ffffff" stroke-width=".7"></path><path d="M371.7,287.1q5.3-6.1 5.5-2.6q-.6,4.4 -1.4,8q.2,1 .6,1.9" fill="none" stroke="#ffffff" stroke-width=".7"></path><path d="M380.4,288.7q.5-3.2 2-3.6q2-.6 2.8,3.6q.7,3.4 -3.2,4.5q-1.9,.4 -2.5-2.6" fill="none" stroke="#ffffff" stroke-width=".7"></path><path d="M387.8,280.2q5.8,.5 5.1,.9" fill="none" stroke="#ffffff" stroke-width=".7"></path><path d="M396.7,275.7q.5,6.4 .8,7.9q.2,.2 .4,.3" fill="none" stroke="#ffffff" stroke-width=".7"></path><path d="M400.2,279.7q-1.6,1.7 -.9,2.5q2.2,1 4.3,1.4" fill="none" stroke="#ffffff" stroke-width=".7"></path><path d="M409.2,285.3q-.4-.6 2.2-.3q2,.4 3.6,.7" fill="none" stroke="#ffffff" stroke-width=".7"></path><path d="M410,288.7q.7-.6 6.5,0" fill="none" stroke="#ffffff" stroke-width=".7"></path><path d="M438.1,285.3q-.3-2.6 1.9-2.3q2.4,.2 3.3,4.4q.4,1.8 -1.3,2.2q.6,.7 1.9,1.5q1.3,.9 -.9,3.5q-2.2,2.7 -4.2-2.4" fill="none" stroke="#ffffff" stroke-width=".7"></path><path d="M450.9,289.5q-.2,.1 -1.2,.4" fill="none" stroke="#ffffff" stroke-width=".7"></path><path d="M459.3,289.7q4.9-6.4 6.3-4q-.2,4.7 -1.6,8.7" fill="none" stroke="#ffffff" stroke-width=".7"></path><path d="M467.5,290.1q2.3-3.4 4.4-3.1q2.4,.4 1.2,5q-.8,3.2 -4.8,1.7q-.6-.2 -1.6-2.8" fill="none" stroke="#ffffff" stroke-width=".7"></path><path d="M473,280.9q1.8,.1 3.3,.2" fill="none" stroke="#ffffff" stroke-width=".7"></path><path d="M480.2,279q2.4-.4 3.6,1.6q.3,1.5 .4,2.8" fill="none" stroke="#ffffff" stroke-width=".7"></path><path d="M510.9,284.8q1.1,6.8 .5,6.1" fill="none" stroke="#ffffff" stroke-width=".6"></path><path d="M506.9,288.8q1-1.2 3-1.6q2.7,.1 5,.3" fill="none" stroke="#ffffff" stroke-width=".6"></path><path d="M542.6,285.4q-.1-3.2 2.7-3.8q2.8-.6 2.8,3.3q.1,2.3 -2.6,1.9q.9,.6 2.6,1.4q3.3,1.5 .8,5.2q-1.5,2.3 -5.5,.2q-.4-.7 -.6-1.4" fill="none" stroke="#ffffff" stroke-width=".6"></path><path d="M555.7,288.6q-.5,.2 -.9,.4" fill="none" stroke="#ffffff" stroke-width=".6"></path><path d="M564.3,287.6q7.4-6 6.2-2q-1,3.9 -1.9,7.1" fill="none" stroke="#ffffff" stroke-width=".6"></path><path d="M572.5,290q3-4.8 5.9-4.8q2.9-.1 1.1,4.5q-1.2,2.9 -6.5,2.4q-1.2-.9 -2-1.9" fill="none" stroke="#ffffff" stroke-width=".6"></path><path d="M581.5,280.5q2.2-.1 4-.1" fill="none" stroke="#ffffff" stroke-width=".6"></path><path d="M590.1,277.2q3-.1 3.6,1.3q-1.3,3.5 -3.5,6.3q-.9,1.2 3.9,.5" fill="none" stroke="#ffffff" stroke-width=".6"></path><path d="M619.4,282.1q-1.5,8.3 -2.8,7.8q-.2-.8 -.2-1.5" fill="none" stroke="#ffffff" stroke-width=".7"></path><path d="M614.9,287.3q3.9-.7 7.1-1.3" fill="none" stroke="#ffffff" stroke-width=".7"></path><path d="M644.4,281.5q3.1-1.6 5,.6q1.4,1.7 -2.3,3.2q-.9,.1 -1.6,0q1,.7 3,1.4q2,.9 2,4.5q0,2.7 -6.2,.6q-.8-.5 -1.4-.9" fill="none" stroke="#ffffff" stroke-width=".7"></path><path d="M655.4,287.5q-.2,.3 -.9,1.3" fill="none" stroke="#ffffff" stroke-width=".7"></path><path d="M667.6,286.4q8-8 7.8-2.9q-1.6,4.9 -3.4,8.9" fill="none" stroke="#ffffff" stroke-width=".7"></path><path d="M677.8,286.8q2.9-2.5 5.2-1.2q3.2,1.7 -.5,5.3q-1.1,1.2 -4.7,.4q-.6-.7 -.9-1.5" fill="none" stroke="#ffffff" stroke-width=".7"></path><path d="M686.2,280q.7,.1 1.2,.2" fill="none" stroke="#ffffff" stroke-width=".7"></path><path d="M695.2,275.9q3.5,3.9 1.3,4.4q-.1-.1 -.2-.1q.5,.9 1.5,2.4q1.9,2.6 -6,2.3" fill="none" stroke="#ffffff" stroke-width=".7"></path><path d="M262.8,333.3q-.8-1.5 -.9-.8q-.6,12.8 1.1,12.2" fill="none" stroke="#ffffff" stroke-width=".8"></path><path d="M268.2,342.6q-.1,.8 -.2,1.5" fill="none" stroke="#ffffff" stroke-width=".8"></path><path d="M267,333.8q-.1,0 -.3-.1" fill="none" stroke="#ffffff" stroke-width=".8"></path><path d="M271.3,339.5q.7,5.3 1.2,3.9q1.7-4.7 3.5-1.2q0,.5 0,1q.5-.4 1.3-1.3q1.5-1.6 4.1,3.2" fill="none" stroke="#ffffff" stroke-width=".8"></path><path d="M257.7,351.7q1.8,5.6 1.5,5q-1-1.7 1.8-3q1.1-.5 2.7,2.8" fill="none" stroke="#ffffff" stroke-width=".5"></path><path d="M266.9,353.9q2.3,.4 4.2,.6" fill="none" stroke="#ffffff" stroke-width=".5"></path><path d="M273.5,352.4q2,1.1 2.2,2.9q.1,1.2 -2.7,1.9" fill="none" stroke="#ffffff" stroke-width=".5"></path><path d="M285.1,353.1q-1.2,3.5 -3.2,4.2q-1.8,.7 -2.3-1.7q-.4-1.6 3.5-.3q5.3,1.7 5.5-.7q.1-.8 -3.5-1.7" fill="none" stroke="#ffffff" stroke-width=".5"></path><path d="M323.8,332q-3.9,.1 -10.3,1.5q-2,.4 -3.7,.8q-.7,.2 8.2,5.9q4.4,2.9 2.4,3.5q-5.1,1.4 -13.9,10.4q-2.1,2.2 4.2,1.6q15.4-1.4 14.8,.1" fill="none" stroke="#ffffff" stroke-width=".5"></path><path d="M313.1,323q.5,4.9 .8,4.3q2.1-4.1 4.5-1.9q.6,.6 1.1,3.6" fill="none" stroke="#ffffff" stroke-width=".5"></path><path d="M306.1,358.7q.5,6.5 .4,8.3q-.1,.3 -.2,.5" fill="none" stroke="#ffffff" stroke-width=".5"></path><path d="M310,361q-1.7,2.9 -.4,4.2q1.5,.2 3-.1" fill="none" stroke="#ffffff" stroke-width=".5"></path><path d="M313.8,361.1q1.7,0 3.1,0" fill="none" stroke="#ffffff" stroke-width=".5"></path><path d="M314.1,362.5q1.2,0 2.2,0" fill="none" stroke="#ffffff" stroke-width=".5"></path><path d="M319.1,362.1q2.6-1.4 3.1-.4q.5,1.1 .1,3.4" fill="none" stroke="#ffffff" stroke-width=".5"></path><path d="M350.3,339q2-2.1 4.5-1.6q1.6,.3 1.3,2.7q-.3,1.9 -3,1.7q.9,.9 2.7,2q1.5,.9 1.6,4.6q0,2.4 -4.3,1.5q-.3-.1 -1.4-1.1" fill="none" stroke="#ffffff" stroke-width=".6"></path><path d="M361.4,344.7q-.1,0 -.2,0" fill="none" stroke="#ffffff" stroke-width=".6"></path><path d="M371.6,342.1q4-4.6 5.1-3.1q.2,5.1 -.8,9.6" fill="none" stroke="#ffffff" stroke-width=".6"></path><path d="M381,345.2q-.4-2.1 .3-3.3q1.3-2 4.2,1.2q2.1,2.4 -1.3,5q-1.7,1.3 -4.5-1.6" fill="none" stroke="#ffffff" stroke-width=".6"></path><path d="M386.8,336.8q.7-.4 4.1,0" fill="none" stroke="#ffffff" stroke-width=".6"></path><path d="M395.7,331.9q.8,6.6 .6,6.5" fill="none" stroke="#ffffff" stroke-width=".6"></path><path d="M400.4,334.2q-2,1.9 -1.6,2.9q1.3,.7 2.7,.9" fill="none" stroke="#ffffff" stroke-width=".6"></path><path d="M411.5,338.1q6-.9 6.1,.1" fill="none" stroke="#ffffff" stroke-width=".6"></path><path d="M413.3,340.8q4-.1 7.2-.1" fill="none" stroke="#ffffff" stroke-width=".6"></path><path d="M440.5,335.5q3-2.3 5-2.6q3-.5 2.8,7.9" fill="none" stroke="#ffffff" stroke-width=".6"></path><path d="M437.6,345.3q14.2,.1 18,.5" fill="none" stroke="#ffffff" stroke-width=".6"></path><path d="M443.4,351.5q2.5-.9 4.8,1q2.3,1.9 -2,3.3q-.8-.1 -1.6-.4q1.2,.4 3.2,1.1q4.2,1.5 2,5.3q-1.1,2 -8.4-.5" fill="none" stroke="#ffffff" stroke-width=".6"></path><path d="M84.3,430.2q.2,10.7 .3,19.4" fill="none" stroke="#ffffff" stroke-width="1.1"></path><path d="M84.3,427.7q2.2,0 4.9,3.9q4.5,6.5 2.9,17.1q-.7,4.6 -6.4-1.3" fill="none" stroke="#ffffff" stroke-width="1.1"></path><path d="M97.1,446.3q4.5-7 3.1-7.2q-2.3-.3 -2.1,7.3q.2,5.7 4.5,1.5" fill="none" stroke="#ffffff" stroke-width="1.1"></path><path d="M105.7,444.3q2.1,7.4 1.3,5.8q-1.4-2.4 3.1-9.6" fill="none" stroke="#ffffff" stroke-width="1.1"></path><path d="M144.8,430.8q-4.2-.8 -7.3,1.7q-6.5,5.1 -3.7,13.9q1,3.2 5.2,2.5q2.9-.5 2.8-9.9q1.4,2.6 3.1,7.7q.1,.4 2.1,.7" fill="none" stroke="#ffffff" stroke-width="1.1"></path><path d="M149.2,442.1q1.4,3.4 2.5,6.2q.2-1.6 .1-4.5q-.2-4.9 7.9-3.9q-1.4,1.1 -4.2,2.2q-2.3,.9 -.2,5.1q1.2,2.2 6.7-.4" fill="none" stroke="#ffffff" stroke-width="1.1"></path><path d="M163.6,439.6q-.4,9 -.2,8.8q.5-1.8 .5-3.5" fill="none" stroke="#ffffff" stroke-width="1.1"></path><path d="M166.7,441q4.9,7.9 7.4,5.6" fill="none" stroke="#ffffff" stroke-width="1.1"></path><path d="M174.4,442.1q3.2-2.5 5.5-.1q1.6,1.7 -.9,7.3q-.4,.8 5.4-1.1" fill="none" stroke="#ffffff" stroke-width="1.1"></path><path d="M186.3,440.2q3,8.2 3.4,6.2q.8-4 2.4-2.5q3.4,3.2 7.3-.4" fill="none" stroke="#ffffff" stroke-width="1.1"></path><path d="M201,441q-2.3,5 -.2,6.7q1.3,1.1 4.1-3.4" fill="none" stroke="#ffffff" stroke-width="1.1"></path><path d="M205.2,440.7q1.3,7.6 2.2,8.5q1.3-3 1.7-7.9" fill="none" stroke="#ffffff" stroke-width="1.1"></path><path d="M213.5,434.4q.7,7.8 1.4,14.1" fill="none" stroke="#ffffff" stroke-width="1.1"></path><path d="M211.6,442.1q2.6,.8 4.7,1.4" fill="none" stroke="#ffffff" stroke-width="1.1"></path><path d="M237.6,440.7q.3,7.1 1.9,5.9q1.5-2 2.5-3.8q1.8,1 3.4,3.2" fill="none" stroke="#ffffff" stroke-width="1.1"></path><path d="M250.4,443.5q.6,2 1.1,3.6" fill="none" stroke="#ffffff" stroke-width="1.1"></path><path d="M250.1,437.4q0,.3 0,1.4" fill="none" stroke="#ffffff" stroke-width="1.1"></path><path d="M254,443.5q2.9,4.9 2.7,4.3q0-3.7 .6-6.8" fill="none" stroke="#ffffff" stroke-width="1.1"></path><path d="M263.7,440.5q-3,2.3 -3.6,5.2q-1.1,4.5 3.8,1.1q1.7-3.5 2.5-6.9" fill="none" stroke="#ffffff" stroke-width="1.1"></path><path d="M266.2,432.4q.5,7.5 2.1,12.5q1.4,2 2.8,3.6" fill="none" stroke="#ffffff" stroke-width="1.1"></path><path d="M285.3,441.3q.9,9 1.9,5.7q2.1-7.4 7.8,.7" fill="none" stroke="#ffffff" stroke-width="1.1"></path><path d="M297.5,443.5q.3,4.4 .5,4.2" fill="none" stroke="#ffffff" stroke-width="1.1"></path><path d="M296.9,433.8q.1,.4 .3,2.2" fill="none" stroke="#ffffff" stroke-width="1.1"></path><path d="M305.2,442.7q.4-1.5 -.3-1.1q-2.4,1.1 2.3,6.1" fill="none" stroke="#ffffff" stroke-width="1.1"></path><path d="M326.6,446q1.4-3.4 2.6-6.2q-.3,1.5 -1.2,4.3q-.6,2.1 5.8,3.3" fill="none" stroke="#ffffff" stroke-width="1.1"></path><path d="M336.8,441.3q.9,3.8 1.6,6.9q-.4-2.6 -1.3-7.5" fill="none" stroke="#ffffff" stroke-width="1.1"></path><path d="M342.4,441.3q1.3,7.5 1.3,6.6q.5-4 1.2-7.2" fill="none" stroke="#ffffff" stroke-width="1.1"></path><path d="M350.4,441q-1.9-.9 -1.7,3.1q.1,2.8 4.2,2.2" fill="none" stroke="#ffffff" stroke-width="1.1"></path><path d="M356.2,441.3q-.6,6.3 0,6.1" fill="none" stroke="#ffffff" stroke-width="1.1"></path><path d="M355.4,431q.1,.1 0,.1q-.1,0 -.1-.1q0-.1 .1-.1q.1,0 .1,.1" fill="none" stroke="#ffffff" stroke-width="1.1"></path><path d="M365.7,438.8q-3.9,1.9 -5.5,5.9q-1.5,3.7 3.7,3.5q5.2-3.3 9-7.2" fill="none" stroke="#ffffff" stroke-width="1.1"></path><path d="M371.8,431.6q-.2,8.9 -.4,16.2q.7-2 1.4-5.8q1.1-5.2 5.1,2.4q1.1,2 2.2-1.7" fill="none" stroke="#ffffff" stroke-width="1.1"></path><path d="M385.9,425.8q-2.2,12.1 -.8,22.8q0,.3 .3,1.3" fill="none" stroke="#ffffff" stroke-width="1.1"></path><path d="M381.5,439.6q2.4,0 4.4,0" fill="none" stroke="#ffffff" stroke-width="1.1"></path><path d="M392.8,446.6q0-.3 0-.6" fill="none" stroke="#ffffff" stroke-width="1.4"></path><path d="M425,448.5q5.1-16.5 5.1-15.9q.6,14.9 2.6,15.3q.2,0 1.8-13.8q.4-3 .6-1.8q2.5,12.7 2.6,13q.2,.6 1.8,2.5" fill="none" stroke="#ffffff" stroke-width="1"></path><path d="M441.7,440.4q-2.4,4.7 -.4,7.4q2.2,2.8 4-4.9q-.2-.6 -.5-1.1q.6,1.4 1.8,4.1q.8-.5 1.6-1.6" fill="none" stroke="#ffffff" stroke-width="1"></path><path d="M447.9,441.4q.3,7.5 .6,6.2q1.4-6 6.6-1.4q.7,.6 2.4,3.8" fill="none" stroke="#ffffff" stroke-width="1"></path><path d="M470.6,441.6q-3.7,4.2 -2.6,6.1q1.1,1.8 4.1-6.2q.4-1.1 2.1,6.9q1.3,6.2 -3,3.7q-1.7-1.6 -2.9-3.1" fill="none" stroke="#ffffff" stroke-width="1"></path><path d="M479.9,440.9q-4.1,5.4 -1.9,7.6q1.7,1.8 7.8-6.9" fill="none" stroke="#ffffff" stroke-width="1"></path><path d="M484.3,434q-2.3,18.9 -.2,16.8q1.9-4 2.8-7.7q1-3.6 3.2,0q.7,2.2 1.2,4.1q.5,2 1.2-3.4" fill="none" stroke="#ffffff" stroke-width="1"></path><path d="M494.2,431.5q.5,9.8 .9,17.8" fill="none" stroke="#ffffff" stroke-width="1"></path><path d="M493,443.6q3.5-.6 6.4-1" fill="none" stroke="#ffffff" stroke-width="1"></path><path d="M526.2,441.1q.2,10.6 .7,7.4q1.6-10.2 8.4,.5q.2,.1 .3,.2" fill="none" stroke="#ffffff" stroke-width="1"></path><path d="M537.8,445.5q-.1,3.5 1.1,3.1q1.7-1 3.1-2.1q.6,.3 1,.9q.2,.3 1.5-.4" fill="none" stroke="#ffffff" stroke-width="1"></path><path d="M546.3,446.3q1.2,2.3 1.4,2.2" fill="none" stroke="#ffffff" stroke-width="1"></path><path d="M546.7,444.8q1,1.6 1.9,2.9q0-.6 -.3-1.7q-.2-.8 1.4-3.7" fill="none" stroke="#ffffff" stroke-width="1"></path><path d="M566.8,435.9q.3,15.8 -.9,17.4q-1.5,2.1 -.2-4.7q1.1-6.3 5.7-4.9q2.5,.7 -.1,4.7q-2.5,1.6 -4.8,2.6" fill="none" stroke="#ffffff" stroke-width="1"></path><path d="M576.4,446q4.6-2.1 3.7-3.2q-.8-1 -1.9,4.2q-1,4.9 6.4,.7" fill="none" stroke="#ffffff" stroke-width="1"></path><path d="M586.1,434.6q-.5,11.5 .3,15.2" fill="none" stroke="#ffffff" stroke-width="1"></path><path d="M590.3,444.8q.4,1.8 .7,3.2" fill="none" stroke="#ffffff" stroke-width="1"></path><path d="M590.5,438.6q.2,.3 .3,.5" fill="none" stroke="#ffffff" stroke-width="1"></path><path d="M593.2,445.5q3.9-4.1 2.2-3.5q-2.5,.7 -1.2,5.4q.6,2.5 5-.6" fill="none" stroke="#ffffff" stroke-width="1"></path><path d="M600.7,435.1q-2.3,13.3 -2.2,13.2q1-5.7 4.7-5q3,.5 -.4,3.8q-1.6,.5 -3.1,.6" fill="none" stroke="#ffffff" stroke-width="1"></path><path d="M605.9,445q0,1.4 0,2.5" fill="none" stroke="#ffffff" stroke-width="1"></path><path d="M605.4,436.9q0,1.5 0,2.7" fill="none" stroke="#ffffff" stroke-width="1"></path><path d="M611.1,440.8q-2.9,7.2 -.7,6.9q1.2-1.4 1.9-3.1q.3-.6 2.3,5.4q2.4,6.9 -7,4.4" fill="none" stroke="#ffffff" stroke-width="1"></path><path d="M638,440.6q-2,7.1 -.9,6.9q1.5-1.9 2.3-4.1q1.1-3.1 5-.8q.8,2.3 .8,4.7" fill="none" stroke="#ffffff" stroke-width="1"></path><path d="M649.6,440.8q-5.6,7.1 -1.1,6.4q1.7-1.5 2.9-3.2" fill="none" stroke="#ffffff" stroke-width="1"></path><path d="M651.4,441.8q1.6,5.9 2.4,5" fill="none" stroke="#ffffff" stroke-width="1"></path><path d="M654.6,435.4q-.8,13.4 -.7,13.1q3.2-7.2 8.2-3.6q1,.8 1.9,1.4" fill="none" stroke="#ffffff" stroke-width="1"></path><path d="M666,441.1q-2.6,3.5 -1.8,5.7q.3,1 7.9,.7" fill="none" stroke="#ffffff" stroke-width="1"></path><path d="M696.1,442.1q-4.4,2.4 -3.9,5.8q.4,3.1 4.4-3.6q3.4-5.7 1-12.2q-.6-1.7 -1.5,.7q-1.8,4.5 4.2,13.2" fill="none" stroke="#ffffff" stroke-width="1"></path><path d="M703.3,440.3q1.9,10.7 1.9,8.5q-.1-3.7 -.2-6.7" fill="none" stroke="#ffffff" stroke-width="1"></path><path d="M710.2,441.8q-4.2,3.9 -2.3,5.5q2.7,2.3 5.3-4.9q0-1.2 -.1-2.2q.4,1.1 1,3.1q.2,.7 3.1,2" fill="none" stroke="#ffffff" stroke-width="1"></path><path d="M718.1,441.6q.3,5.8 .4,5.1q.6-2.9 4.6,.6" fill="none" stroke="#ffffff" stroke-width="1"></path><path d="M726.8,447.3q-.3-.2 -.5-.3" fill="none" stroke="#ffffff" stroke-width="1"></path></svg>