<svg viewBox="-335.6 -152.2 1690.6 433.7" width="1690.6" height="433.7" version="1.1" baseProfile="full" xmlns="http://www.w3.org/2000/svg" class="js-draw--autoresize"><style id="js-draw-style-sheet">path{stroke-linecap:round;stroke-linejoin:round;}text{white-space:pre;}</style><g class="js-draw-image-background js-draw-image-background-grid js-draw-image-background-grid-25"><path d="M1355,281.5l0-433.7l-1690.6,2.842170943040401e-14l0,433.7l1690.6,0" fill="#03035e"></path><path d="M-335.95,-150l1691.3,0m-1691.3,25l1691.3,0m-1691.3,25l1691.3,0m-1691.3,25l1691.3,0m-1691.3,25l1691.3,0m-1691.3,25l1691.3,0m-1691.3,25l1691.3,0m-1691.3,25l1691.3,0m-1691.3,25l1691.3,0m-1691.3,25l1691.3,0m-1691.3,25l1691.3,0m-1691.3,25l1691.3,0m-1691.3,25l1691.3,0m-1691.3,25l1691.3,0m-1691.3,25l1691.3,0m-1691.3,25l1691.3,0m-1691.3,25l1691.3,0m-1691.3,25l1691.3,0m-1680.35-427.55l0,434.4m25-434.4l0,434.4m25-434.4l0,434.4m25-434.4l0,434.4m25-434.4l0,434.4m25-434.4l0,434.4m25-434.4l0,434.4m25-434.4l0,434.4m25-434.4l0,434.4m25-434.4l0,434.4m25-434.4l0,434.4m25-434.4l0,434.4m25-434.4l0,434.4m25-434.4l0,434.4m25-434.4l0,434.4m25-434.4l0,434.4m25-434.4l0,434.4m25-434.4l0,434.4m25-434.4l0,434.4m25-434.4l0,434.4m25-434.4l0,434.4m25-434.4l0,434.4m25-434.4l0,434.4m25-434.4l0,434.4m25-434.4l0,434.4m25-434.4l0,434.4m25-434.4l0,434.4m25-434.4l0,434.4m25-434.4l0,434.4m25-434.4l0,434.4m25-434.4l0,434.4m25-434.4l0,434.4m25-434.4l0,434.4m25-434.4l0,434.4m25-434.4l0,434.4m25-434.4l0,434.4m25-434.4l0,434.4m25-434.4l0,434.4m25-434.4l0,434.4m25-434.4l0,434.4m25-434.4l0,434.4m25-434.4l0,434.4m25-434.4l0,434.4m25-434.4l0,434.4m25-434.4l0,434.4m25-434.4l0,434.4m25-434.4l0,434.4m25-434.4l0,434.4m25-434.4l0,434.4m25-434.4l0,434.4m25-434.4l0,434.4m25-434.4l0,434.4m25-434.4l0,434.4m25-434.4l0,434.4m25-434.4l0,434.4m25-434.4l0,434.4m25-434.4l0,434.4m25-434.4l0,434.4m25-434.4l0,434.4m25-434.4l0,434.4m25-434.4l0,434.4m25-434.4l0,434.4m25-434.4l0,434.4m25-434.4l0,434.4m25-434.4l0,434.4m25-434.4l0,434.4m25-434.4l0,434.4m25-434.4l0,434.4" fill="none" stroke="#fcfca133" stroke-width=".7"></path></g><path d="M-172,-125q-3.4,47.9 0,53" fill="none" stroke="#f0f0f0" stroke-width="2.6"></path><path d="M-172,-126q4.7-3.9 12.7,1.7q9.3,6.6 2,18.9q-3.8,6.4 -13.7,.2" fill="none" stroke="#f0f0f0" stroke-width="2.6"></path><path d="M-136,-98q3.7,28.1 4,19.3q.1-14.5 0-26.3" fill="none" stroke="#f0f0f0" stroke-width="2.6"></path><path d="M-113,-87q4.3-10.2 13.9-7.2q9.9,3.2 5.4,17.3q-1.8,5.4 -14.1,3.7q-1.8-.3 -6.2-6.8" fill="none" stroke="#f0f0f0" stroke-width="2.6"></path><path d="M-80,-120q1,43.8 -3.8,39.1q-3.4-3.4 8.4-8.6q11.5-5.1 14.6,7.6q1.4,6.1 -14.2,7.4" fill="none" stroke="#f0f0f0" stroke-width="2.6"></path><path d="M-60,-87q20.9-4 14.4-8.2q-5.6-3.5 -9.3,10.8q-3.4,12.9 18.6,9.9" fill="none" stroke="#f0f0f0" stroke-width="2.6"></path><path d="M-2,-98Q7.5,-111.8 12,-103.9Q13.4,-101.3 11.7,-73.2" fill="none" stroke="#f0f0f0" stroke-width="2.6"></path><path d="M36,-108q0,.6 0,1" fill="none" stroke="#f0f0f0" stroke-width="2.6"></path><path d="M40,-78q.3,.3 0,.3q-.3,0 -.3-.3q0-.3 .3-.3q.3,0 .3,.3" fill="none" stroke="#f0f0f0" stroke-width="2.6"></path><path d="M-176,4Q-173.2,2.3 -172,8.4Q-171.8,27.9 -173,44" fill="none" stroke="#f0f0f0" stroke-width="2.6"></path><path d="M-170,12Q-162.5,-.7 -151.4,-.3Q-142,0 -146.8,12.9Q-148.9,18.5 -165,18.8" fill="none" stroke="#f0f0f0" stroke-width="2.6"></path><path d="M-131,39q.4,9.2 -.5,7.8q-.7-13.3 1.5-24.8" fill="none" stroke="#f0f0f0" stroke-width="2.6"></path><path d="M-109,42q-.7-8.9 3.4-13.1q7-7.1 9.1,6.2q1.6,10 -19.8,15.1" fill="none" stroke="#f0f0f0" stroke-width="2.6"></path><path d="M-92,4Q-88.6,22.7 -85.8,38Q-81.3,35.4 -76.2,29.4Q-71.7,24.2 -71,34.3Q-70.4,42 -90.3,42.2" fill="none" stroke="#f0f0f0" stroke-width="2.6"></path><path d="M-68,38q20.2-13.5 15.2-19.1q-1.7-2 -4.8,6.1q-5.5,14.6 16.6,17.8" fill="none" stroke="#f0f0f0" stroke-width="2.6"></path><path d="M-4,19Q4.7,16.7 10.8,20.7Q15.2,23.5 13,46.7Q11.9,58.2 18.1,58.8Q21,59.1 27,47" fill="none" stroke="#f0f0f0" stroke-width="2.6"></path><path d="M36,16q.4-.4 2-2" fill="none" stroke="#f0f0f0" stroke-width="2.6"></path><path d="M50,48q0,1.1 0,2" fill="none" stroke="#f0f0f0" stroke-width="2.8"></path><path d="M-318,-114q-14.5-2.7 -15.8,1.2q5.5,11.7 13.9,20.7q6.9,7.5 -1.1,17.5q-3.1,3.9 -13.3-1.9" fill="none" stroke="#f0f0f0" stroke-width="2.6"></path><path d="M-298,-124q4,41 6,42" fill="none" stroke="#f0f0f0" stroke-width="2.6"></path><path d="M-305,-94q8.8,.5 16,1" fill="none" stroke="#f0f0f0" stroke-width="2.6"></path><path d="M-276,-97q-3.6,14.2 1.6,12.2q2-3.7 2.8-7.5q4.6,3.3 9.6,10.3" fill="none" stroke="#f0f0f0" stroke-width="2.6"></path><path d="M-260,-112q1.9,16.2 3.4,29.4q1.8-4 3.7-11.6q1-3.8 6.4-.6q2,4.9 2.5,9.8" fill="none" stroke="#f0f0f0" stroke-width="2.6"></path><path d="M-239,-124q1.2,19.8 2,36" fill="none" stroke="#f0f0f0" stroke-width="2.6"></path><path d="M-220,-92q9.9,0 18,0" fill="none" stroke="#f0f0f0" stroke-width="2.6"></path><path d="M141,-112q-5.3-5.4 -10.5,1.5q2.4,16.7 9.9,31.3q5.2,10.3 -5.8,7.6q-4.4-1.1 5.8-39.3q4.2-15.6 -8.1-5.6" fill="none" stroke="#f0f0f0" stroke-width="2.6"></path><path d="M161,-86q-1.7,7.1 -3,13" fill="none" stroke="#f0f0f0" stroke-width="2.6"></path><path d="M186,-92q-4.9-13.2 3.2-17.5q10.4-5.6 9.8,18.2q-.3,11.8 -13.6,11.6q-5-3.8 -8.4-8.3" fill="none" stroke="#f0f0f0" stroke-width="2.6"></path><path d="M218,-106q-2.7,8.8 -5,16" fill="none" stroke="#f0f0f0" stroke-width="2.6"></path><path d="M214,-90q23.8-1.6 20.6,3.7q-8.9,3.5 -17.6,4.3" fill="none" stroke="#f0f0f0" stroke-width="2.6"></path><path d="M214,-112q15.4-1.9 28-3" fill="none" stroke="#f0f0f0" stroke-width="2.6"></path><path d="M268,-83q-7.7,14.8 -14,27" fill="none" stroke="#f0f0f0" stroke-width="2.6"></path><path d="M318,-111q12.2-11.8 20.9,13.7q.9,2.5 1.1,13.3" fill="none" stroke="#f0f0f0" stroke-width="3"></path><path d="M322,-94q17.4,15.4 19,10" fill="none" stroke="#f0f0f0" stroke-width="3"></path><path d="M362,-82q-3.3,9.3 -6,17" fill="none" stroke="#f0f0f0" stroke-width="3"></path><path d="M402,-122q-12.4,10.5 -7.5,22q3.7,8.6 10.5-4.6q1.6-3.3 2.9-5.9q1.8-3.7 2,20q.2,16.2 -13.8,16.3q-3.6-2.6 -6.1-5.8" fill="none" stroke="#f0f0f0" stroke-width="3"></path><path d="M428,-97q19.8-20.6 21.8-6.3q-1.4,11.2 -3.8,20.3" fill="none" stroke="#f0f0f0" stroke-width="3"></path><path d="M320,-111q-.2-6.1 6.5-5.8q15.5,.7 13.3,30.7q-1.5,19.7 -10.8,21.1" fill="none" stroke="#f0f0f0" stroke-width="3"></path><path d="M322,-86q12.1,1.1 22,2" fill="none" stroke="#f0f0f0" stroke-width="3"></path><path d="M489,-84q-10.2,20.2 -10,20" fill="none" stroke="#f0f0f0" stroke-width="3"></path><path d="M559,-118q-11.6-8.3 -1.2,16.6q11.4,27.4 11.5,30.4q.2,6.6 -7.6,.6q-8.3-6.2 1.7-37.3q3.2-10.2 -4.5-7.6" fill="none" stroke="#f0f0f0" stroke-width="3"></path><path d="M591,-74q-4.1,3.5 -7,9" fill="none" stroke="#f0f0f0" stroke-width="3"></path><path d="M616,-87q1.5-33.5 15.2-22.4q9.5,7.8 .1,33.5q-3.8,10.3 -17.2,1.9q-4.5-2.8 -4.3-18.1" fill="none" stroke="#f0f0f0" stroke-width="3"></path><path d="M660,-98q-5.4-7.4 5-8.1q10.8-.7 11.6,15.7q.4,6.7 -13.3,5.6q-6.1-5.2 -10.3-11.2" fill="none" stroke="#f0f0f0" stroke-width="3"></path><path d="M706,-65q-1.5-9.9 -3.5-9.1q-3.4,6.9 -4.5,14.1" fill="none" stroke="#f0f0f0" stroke-width="3"></path><path d="M750,-112q14-6 20,2q4,12 5,24" fill="none" stroke="#f0f0f0" stroke-width="3"></path><path d="M763,-98q9,2 17,4" fill="none" stroke="#f0f0f0" stroke-width="3"></path><path d="M806,-85q-2,7 -4,12" fill="none" stroke="#f0f0f0" stroke-width="3"></path><path d="M838,-115q-9,27 2,20q4-7 6-15q0,0 4,9q10,28 -14,21" fill="none" stroke="#f0f0f0" stroke-width="3"></path><path d="M856,-109q5-3 10,0q5,13 5,26q0,1 6,0" fill="none" stroke="#f0f0f0" stroke-width="3"></path><path d="M902,-88q-7,21 -7,21" fill="none" stroke="#f0f0f0" stroke-width="3"></path><path d="M483.8,-138.8l.4-2.4q-2.7-.5 -6.1-1.1q-36.1-4.5 -171.1-9.9l0,2.4q134.8,5.4 170.7,9.9q3.3,.6 6.1,1.1" fill="#00ff8c"></path><path d="M127,9Q126,2 134,-1Q153,-10 157,15Q156,20 154,25" fill="none" stroke="#f0f0f0" stroke-width="3"></path><path d="M148,22q11,4 21,6" fill="none" stroke="#f0f0f0" stroke-width="3"></path><path d="M193,38q-4,5 -8,10" fill="none" stroke="#f0f0f0" stroke-width="3"></path><path d="M222,4Q219,18 225,21Q233,25 239,6Q239,4 240,6Q251,31 251,36Q251,46 237,42Q234,40 231,38" fill="none" stroke="#f0f0f0" stroke-width="3"></path><path d="M275,10Q275,3 271,9Q276,21 285,32Q293,40 287,46Q285,48 283,35Q283,19 284,7Q284,-3 270,10" fill="none" stroke="#f0f0f0" stroke-width="3"></path><path d="M129,-1Q160,2 160,2Q153,25 137,45" fill="none" stroke="#f0f0f0" stroke-width="3"></path><path d="M307.8,86.2l.4-2.4q-29.1-4.7 -64.6-9.8q-69.2-8 -115.7-5.2l.2,2.4q46.2-2.8 115.2,5.2q35.5,5.2 64.5,9.8" fill="#00ff8c"></path><path d="M328,41q-2,7 -3,12" fill="none" stroke="#f0f0f0" stroke-width="3"></path><path d="M369,3Q370,-2 383,7Q394,15 391,34" fill="none" stroke="#f0f0f0" stroke-width="3"></path><path d="M375,30q14-6 30-6" fill="none" stroke="#f0f0f0" stroke-width="3"></path><path d="M413,42q-1,9 -2,16" fill="none" stroke="#f0f0f0" stroke-width="3"></path><path d="M441,12Q437,26 444,23Q449,14 451,4Q452,-1 459,19Q469,47 448,42Q444,39 441,37" fill="none" stroke="#f0f0f0" stroke-width="3"></path><path d="M476,14q11-2 12,8q-2,12 -5,22q-3,7 19,2" fill="none" stroke="#f0f0f0" stroke-width="3"></path><path d="M541,44q-6,10 -11,18" fill="none" stroke="#f0f0f0" stroke-width="3"></path><path d="M574,4Q600,-3 611,8Q615,13 609,43" fill="none" stroke="#f0f0f0" stroke-width="3"></path><path d="M597,32q8,3 15,6" fill="none" stroke="#f0f0f0" stroke-width="3"></path><path d="M638,42q-8,24 -8,24" fill="none" stroke="#f0f0f0" stroke-width="3"></path><path d="M676,15q-1,24 4,16q1-6 0-12q5,10 11,27q3,8 -6,13q-3-1 -5-2" fill="none" stroke="#f0f0f0" stroke-width="3"></path><path d="M707,15q-5,15 7,19q7,3 7-12q0-1 -1-1q1,8 7,22q5,12 -15,17" fill="none" stroke="#f0f0f0" stroke-width="3"></path><path d="M770,42q-5,5 -8,11" fill="none" stroke="#f0f0f0" stroke-width="3"></path><path d="M822,0Q818,-3 815,2Q811,34 812,61Q811,59 810,56Q817,23 831,-4Q833,-9 827,-9Q822,-4 818,2" fill="none" stroke="#f0f0f0" stroke-width="3"></path><path d="M849,41q-3,10 -6,19" fill="none" stroke="#f0f0f0" stroke-width="3"></path><path d="M865,30Q864,0 882,15Q892,22 882,43Q875,56 869,42" fill="none" stroke="#f0f0f0" stroke-width="3"></path><path d="M910,17q4,17 12,26q7,8 -21,5" fill="none" stroke="#f0f0f0" stroke-width="3"></path><path d="M895,17q37-2 40,1" fill="none" stroke="#f0f0f0" stroke-width="3"></path><path d="M1063,-115q-18,27 3,33q13,4 19-21q3-10 -8-18q-5,2 -8,5" fill="none" stroke="#f0f0f0" stroke-width="4"></path><path d="M1040,-126q18,8 31,22q16,17 30,31" fill="none" stroke="#f0f0f0" stroke-width="4"></path><path d="M1068,17q-1-4 -6-2q-15,6 1,23q11,12 28-2q8-6 0-17q-2-2 -12-3" fill="none" stroke="#f0f0f0" stroke-width="4"></path><path d="M1057,1Q1104,61 1105,58" fill="none" stroke="#f0f0f0" stroke-width="4"></path><path d="M1152,-122q37-5 43,0q1,2 -14,42" fill="none" stroke="#f0f0f0" stroke-width="3"></path><path d="M1177,-89q1-7 11-8" fill="none" stroke="#f0f0f0" stroke-width="3"></path><path d="M1221,-85q-7,10 -13,19" fill="none" stroke="#f0f0f0" stroke-width="3"></path><path d="M1255,-125q-12,15 -9,26q1,6 8-8q4-10 6,10q3,23 -8,21q-2-1 -3-7" fill="none" stroke="#f0f0f0" stroke-width="3"></path><path d="M1276,-117q14-7 21-1q4,3 -9,39" fill="none" stroke="#f0f0f0" stroke-width="3"></path><path d="M1277,-91q8-2 22,1q3,1 14,5" fill="none" stroke="#f0f0f0" stroke-width="3"></path><path d="M1149,3q27-15 41-7q9,5 -25,55" fill="none" stroke="#f0f0f0" stroke-width="4"></path><path d="M1166,31q19-4 18,1" fill="none" stroke="#f0f0f0" stroke-width="4"></path><path d="M1210,53q-1,1 -5,7" fill="none" stroke="#f0f0f0" stroke-width="4"></path><path d="M1254,3Q1249,4 1253,10Q1259,11 1264,11Q1270,11 1275,37Q1279,56 1262,56Q1257,56 1252,40" fill="none" stroke="#f0f0f0" stroke-width="4"></path><path d="M1294,8Q1294,3 1289,7Q1287,8 1297,41Q1301,54 1291,58Q1285,60 1299,12Q1301,6 1302,1" fill="none" stroke="#f0f0f0" stroke-width="4"></path><path d="M1325,19q1-6 2-4q10,37 6,38q-1,1 -5-7" fill="none" stroke="#f0f0f0" stroke-width="4"></path><path d="M1321,10Q1339,8 1353,7" fill="none" stroke="#f0f0f0" stroke-width="4"></path><path d="M-89,222q2-3 3,1q0,31 2,40q5,17 20,7q2-1 11-6" fill="none" stroke="#f0f0f0" stroke-width="3"></path><path d="M-36,267q3-11 27,0q-7,5 -20,9q-7,2 -5-8" fill="none" stroke="#f0f0f0" stroke-width="3"></path><path d="M19,248q21-2 38-3" fill="none" stroke="#f0f0f0" stroke-width="3"></path><path d="M25,259q9,1 17,2" fill="none" stroke="#f0f0f0" stroke-width="3"></path><path d="M126,239q5-3 6,2q9,35 -2,28q-6-7 -10-14" fill="none" stroke="#f0f0f0" stroke-width="3"></path><path d="M126,241q9-3 17-5" fill="none" stroke="#f0f0f0" stroke-width="3"></path><path d="M163,250q2-7 8-8q10-1 6,16q-2,14 -18,6q-5-2 -1-17" fill="none" stroke="#f0f0f0" stroke-width="3"></path><path d="M230,252q-1,21 0,19q9-18 15-10q-1,2 -2,5q4-3 9-10q8-9 20,14" fill="none" stroke="#f0f0f0" stroke-width="3"></path><path d="M279,250q-1,20 -1,19q3-23 9-11q0,4 -1,8q6-3 14-10q6-6 23,15" fill="none" stroke="#f0f0f0" stroke-width="3"></path></svg>