<svg viewBox="-542.35 -146.5 1362.7 1391.6" width="1362.7" height="1391.6" version="1.1" baseProfile="full" xmlns="http://www.w3.org/2000/svg" class="js-draw--autoresize"><style id="js-draw-style-sheet">path{stroke-linecap:round;stroke-linejoin:round;}text{white-space:pre;}</style><g class="js-draw-image-background js-draw-image-background-grid js-draw-image-background-grid-25"><path d="M820.35,1245.1l0-1391.6l-1362.7,0l0,1391.6l1362.7,0" fill="#03035e"></path><path d="M-542.7,-125l1363.4,0m-1363.4,25l1363.4,0m-1363.4,25l1363.4,0m-1363.4,25l1363.4,0m-1363.4,25l1363.4,0m-1363.4,25l1363.4,0m-1363.4,25l1363.4,0m-1363.4,25l1363.4,0m-1363.4,25l1363.4,0m-1363.4,25l1363.4,0m-1363.4,25l1363.4,0m-1363.4,25l1363.4,0m-1363.4,25l1363.4,0m-1363.4,25l1363.4,0m-1363.4,25l1363.4,0m-1363.4,25l1363.4,0m-1363.4,25l1363.4,0m-1363.4,25l1363.4,0m-1363.4,25l1363.4,0m-1363.4,25l1363.4,0m-1363.4,25l1363.4,0m-1363.4,25l1363.4,0m-1363.4,25l1363.4,0m-1363.4,25l1363.4,0m-1363.4,25l1363.4,0m-1363.4,25l1363.4,0m-1363.4,25l1363.4,0m-1363.4,25l1363.4,0m-1363.4,25l1363.4,0m-1363.4,25l1363.4,0m-1363.4,25l1363.4,0m-1363.4,25l1363.4,0m-1363.4,25l1363.4,0m-1363.4,25l1363.4,0m-1363.4,25l1363.4,0m-1363.4,25l1363.4,0m-1363.4,25l1363.4,0m-1363.4,25l1363.4,0m-1363.4,25l1363.4,0m-1363.4,25l1363.4,0m-1363.4,25l1363.4,0m-1363.4,25l1363.4,0m-1363.4,25l1363.4,0m-1363.4,25l1363.4,0m-1363.4,25l1363.4,0m-1363.4,25l1363.4,0m-1363.4,25l1363.4,0m-1363.4,25l1363.4,0m-1363.4,25l1363.4,0m-1363.4,25l1363.4,0m-1363.4,25l1363.4,0m-1363.4,25l1363.4,0m-1363.4,25l1363.4,0m-1363.4,25l1363.4,0m-1363.4,25l1363.4,0m-1345.7-1371.85l0,1392.3m25-1392.3l0,1392.3m25-1392.3l0,1392.3m25-1392.3l0,1392.3m25-1392.3l0,1392.3m25-1392.3l0,1392.3m25-1392.3l0,1392.3m25-1392.3l0,1392.3m25-1392.3l0,1392.3m25-1392.3l0,1392.3m25-1392.3l0,1392.3m25-1392.3l0,1392.3m25-1392.3l0,1392.3m25-1392.3l0,1392.3m25-1392.3l0,1392.3m25-1392.3l0,1392.3m25-1392.3l0,1392.3m25-1392.3l0,1392.3m25-1392.3l0,1392.3m25-1392.3l0,1392.3m25-1392.3l0,1392.3m25-1392.3l0,1392.3m25-1392.3l0,1392.3m25-1392.3l0,1392.3m25-1392.3l0,1392.3m25-1392.3l0,1392.3m25-1392.3l0,1392.3m25-1392.3l0,1392.3m25-1392.3l0,1392.3m25-1392.3l0,1392.3m25-1392.3l0,1392.3m25-1392.3l0,1392.3m25-1392.3l0,1392.3m25-1392.3l0,1392.3m25-1392.3l0,1392.3m25-1392.3l0,1392.3m25-1392.3l0,1392.3m25-1392.3l0,1392.3m25-1392.3l0,1392.3m25-1392.3l0,1392.3m25-1392.3l0,1392.3m25-1392.3l0,1392.3m25-1392.3l0,1392.3m25-1392.3l0,1392.3m25-1392.3l0,1392.3m25-1392.3l0,1392.3m25-1392.3l0,1392.3m25-1392.3l0,1392.3m25-1392.3l0,1392.3m25-1392.3l0,1392.3m25-1392.3l0,1392.3m25-1392.3l0,1392.3m25-1392.3l0,1392.3m25-1392.3l0,1392.3" fill="none" stroke="#fcfca133" stroke-width=".7"></path></g><path d="M-94,-64q-3.2,153.4 -3.1,159.2q.8,91.7 1.3,95.7q4.3,17.2 8.8,31.1" fill="none" stroke="#ffffff" stroke-width="2.6"></path><path d="M-96,229q105-15.8 186.8-15.1q93.8-.5 170.5-1.5q25.2,.7 45.7,1.6" fill="none" stroke="#ffffff" stroke-width="2.6"></path><path d="M333,206q-.9-.5 -1.6-.9q3.6,1.5 10.1,4.6q7.2,3.5 -3.5,5.6q-1.5,.3 -8-.3" fill="none" stroke="#ffffff" stroke-width="2.6"></path><path d="M314,240q-.1-5.2 -4.5-1.2q-11,9.9 .9,9.3q2.2-.2 2.1,0q-13.6,16.6 13.2,14.7" fill="none" stroke="#ffffff" stroke-width="2.6"></path><path d="M374.2,152.9q2.8,12.1 5,22" fill="none" stroke="#ffffff" stroke-width="2.6"></path><path d="M375.2,161.9q9.1-6.4 13.8,.1q7.3,9.7 -5.8,12.1q-2.7-.4 -5-1.2" fill="none" stroke="#ffffff" stroke-width="2.6"></path><path d="M397.2,173.9q7.5-8.6 3.3-7.8q-6.1,1.3 -3.1,8.3q1.3,3.1 13.5-1.7" fill="none" stroke="#ffffff" stroke-width="2.6"></path><path d="M417.2,151.9q.7,23.8 .2,23.1q-3-3.8 2.9-8.3q3.5,3.1 5.9,8.2" fill="none" stroke="#ffffff" stroke-width="2.6"></path><path d="M-319.2,-69.7q-12.9,.7 -15.7,10q-3,9.9 2.8,25.1q5.8,.2 11.9-2.1" fill="none" stroke="#ffffff" stroke-width="2.6"></path><path d="M429.2,165.9q1.9,8.5 3.4,6.6q5.7-7.1 12.9,2.2" fill="none" stroke="#ffffff" stroke-width="2.6"></path><path d="M-312.2,-34.7q1-13.6 1.7-24.8q1.7,6.4 3.5,18.3q1.6-4 3.2-11.5q3.3,5.1 6.6,15" fill="none" stroke="#ffffff" stroke-width="2.6"></path><path d="M447.2,167.9q6.6,10 12.3,6.6q.6-2.5 .3-4.9q5,.7 11.4,4.3" fill="none" stroke="#ffffff" stroke-width="2.6"></path><path d="M-291.2,-57.7q.6,14.2 1,14" fill="none" stroke="#ffffff" stroke-width="2.6"></path><path d="M475.2,168.9q1,7 1.7,5.6q2.9-5.7 12.6,.2" fill="none" stroke="#ffffff" stroke-width="2.6"></path><path d="M-291.2,-54.7q4-5.5 7.6-1.8q3.3,3.3 -4.9,7.3" fill="none" stroke="#ffffff" stroke-width="2.6"></path><path d="M499.2,162.9q-4.3,12.9 -.6,11.1q1.6-2.3 2.6-4.7q.8-1.9 6.9,5.3q10.2,12.2 -8.7,14q-7.2-.7 -13.2-1.7" fill="none" stroke="#ffffff" stroke-width="2.6"></path><path d="M-273.2,-50.7q-2.9,9.9 2.6,12q.4-5.3 -1.7-12.9q1.4,4.9 4.1,13.9" fill="none" stroke="#ffffff" stroke-width="2.6"></path><path d="M-140,-144q-7.4-1.2 -9,3.9q1.6,9.8 4.8,17.9q-3.6-.8 -8.8-3.8" fill="none" stroke="#ffffff" stroke-width="2.6"></path><path d="M-272.2,-62.7q9.9-5.5 13,1.7q10.5,24.1 3.5,37.4" fill="none" stroke="#ffffff" stroke-width="2.6"></path><path d="M-132,-130q3.1-3.2 4.7,1.6q-3.7,4.7 -9.3,7.9q-1.1,5.2 -.4,10.5" fill="none" stroke="#ffffff" stroke-width="2.6"></path><path d="M-116,-129q-8,7.7 -1.6,12.5q4.5,3.4 5-11.9q0-2.5 .3-2.1q1.3,3.6 2.3,6.5" fill="none" stroke="#ffffff" stroke-width="2.6"></path><path d="M-100,-131q2,21.6 .9,16.4q-2.4-11.6 4.6-12.1q2.7,4.7 3.5,10.7" fill="none" stroke="#ffffff" stroke-width="2.6"></path><path d="M-90,-127q4.4,14.9 .7,11.3q-2.3-2.2 6.2-8.8q4-3.2 7.4,10" fill="none" stroke="#ffffff" stroke-width="2.6"></path><path d="M-74,-124q4,10.7 7,7.2q2.5-5.1 4.1-9.6q1.6,2.9 2.9,8.4" fill="none" stroke="#ffffff" stroke-width="2.6"></path><path d="M-52,-127q-.6,4.2 -1.1,7.6q3.2-2.1 7.5-6.9q.9-1 5.6,3.3" fill="none" stroke="#ffffff" stroke-width="2.6"></path><path d="M-29,-129q-.6,8 .6,8q1.3-4 .9-8.9q1,3.8 2.4,11q-2.5,5 -5.9,8.9" fill="none" stroke="#ffffff" stroke-width="2.6"></path><path d="M-100,-58q5.7-18.9 10.2-13.4q4.9,5.8 -1.7,11.9q-2.3,.1 -4.5-.5" fill="none" stroke="#ffffff" stroke-width="2.6"></path><path d="M389,240q-13.4-.2 -13.7,2.5q-3.5,34.1 2.5,32.1q9-2.8 8.2-1.6" fill="none" stroke="#ffffff" stroke-width="2.6"></path><path d="M392,262q3.8-.6 7-1" fill="none" stroke="#ffffff" stroke-width="2.6"></path><path d="M411,249q8-5.1 8.7,1.2q5,12.5 10.5,22.4q-6.5,.7 -16.2-1.6" fill="none" stroke="#ffffff" stroke-width="2.6"></path><path d="M-169.3,-41.8q1.8-2.1 8.9-.2q6.2,1.6 -.4,9.5q-9.2,10.8 -12.4,1.5q-1.3-9.6 -1.5-17.6q-.2-4.5 39.7-8.1" fill="none" stroke="#ffffff" stroke-width="2.4"></path><path d="M-85.1,227.3q-.7-2.2 -.9-1.4q-2.5,7.2 .3,21.3" fill="none" stroke="#ffffff" stroke-width="2.4"></path><path d="M-87.6,262.2q-6.2,8.5 -.3,12.5q5.4,3.7 3.3-6.3q-3.2-2.1 -6.7-3.1" fill="none" stroke="#ffffff" stroke-width="2.4"></path><path d="M-86.9,226q-14.4-.6 -26.3-.6" fill="none" stroke="#ffffff" stroke-width="2.4"></path><path d="M-141.2,226q-8.4,6.2 -3.3,12.6q2.4,2.9 5.8-2.5q4.7-7.4 -11.3-9.5" fill="none" stroke="#ffffff" stroke-width="2.4"></path><path d="M-85.1,222.3q5.3-14.9 25.3-42.3q39.8-48.3 73.5-86.9q.9-1 9.7-14.8q0,1.5 -.5,4.1" fill="none" stroke="#ffffff" stroke-width="2.4"></path><path d="M582,74q-2.6,24.5 -1,24" fill="none" stroke="#ffffff" stroke-width="2.6"></path><path d="M590,78q-2.4,9.9 -4,18" fill="none" stroke="#ffffff" stroke-width="2.6"></path><path d="M581,88q2.2-1.1 4-2" fill="none" stroke="#ffffff" stroke-width="2.6"></path><path d="M595,92q4-10.2 7.9-7.4q4,2.8 -3.3,7.5q-3.2,2.1 -2.2-4.3" fill="none" stroke="#ffffff" stroke-width="2.6"></path><path d="M606,92q.2-8.6 7.8-7.3q8.3,1.4 1.3,7.7q-3.7,3.3 -11-1.3" fill="none" stroke="#ffffff" stroke-width="2.6"></path><path d="M623,76q.6,18.8 0,19" fill="none" stroke="#ffffff" stroke-width="2.6"></path><path d="M633,84q-9.9,5.3 -6.2,10q3.2,.9 6.2,1" fill="none" stroke="#ffffff" stroke-width="2.6"></path><path d="M642,86q-1.6-2.4 -1.8-1.1q0,6.2 .6,11.3q-2,1 -4.6,1.3q-.7,0 2.8-2.5" fill="none" stroke="#ffffff" stroke-width="2.6"></path><path d="M655,89q-9.5,3.5 -2.4,6.2q3.5-.3 6.4-1.2" fill="none" stroke="#ffffff" stroke-width="2.6"></path><path d="M669,74q-5.2,31.2 -6.5,24.2q-1-6.1 10.9-9.6q.9,.6 1.6,1.4" fill="none" stroke="#ffffff" stroke-width="2.6"></path><path d="M677,92q3-2 5.4-3.7q-1.8,2.1 -5.4,5.8q-2.5,2.6 9.7,3.7" fill="none" stroke="#ffffff" stroke-width="2.6"></path><path d="M744.8,76.2q-1.2-3.1 -8.4,3.1q-11.1,9.4 -2,16q3.9,2.8 7.6-8.5q.1-.1 .3-.1q1.8-.7 4.3,8.7" fill="none" stroke="#ffffff" stroke-width="2.3"></path><path d="M750.2,90q.1,.3 .1,.8q-.3,4.4 .6,5.6q3.6,.6 7.1,.2" fill="none" stroke="#ffffff" stroke-width="2.3"></path><path d="M767.6,86.4q-4-1.1 -1.5,3.4q4.3,7.6 -1.8,8.1q-.8-1.6 -.9-3.7" fill="none" stroke="#ffffff" stroke-width="2.3"></path><path d="M777.8,88.2q-9,8.8 .3,10.1q4.2-1.5 7.5-3.5" fill="none" stroke="#ffffff" stroke-width="2.3"></path><path d="M798.8,72.6q-.5,12.2 -.6,22.2" fill="none" stroke="#ffffff" stroke-width="2.3"></path><path d="M793.4,88.8q1.3-.7 2.4-1.2" fill="none" stroke="#ffffff" stroke-width="2.3"></path><path d="M798.2,86.4q10-1.1 8.6,5.4q-1.1,5.9 2.1,6.6q3-.4 5.5-1.2" fill="none" stroke="#ffffff" stroke-width="2.3"></path><path d="M701,145.8q15.7-.2 13.2,5.9q-1.3,3.4 -4.5,3.3q-16.2-.4 -14.7-9.9q1.9-11.7 4.2-12.5q12.3-4.5 15.6-1.2" fill="none" stroke="#ffffff" stroke-width="2.3"></path><path d="M734,143.4q12.4-1.5 12.6-1.2" fill="none" stroke="#ffffff" stroke-width="2.3"></path><path d="M734,150q6.9,0 12.6,0" fill="none" stroke="#ffffff" stroke-width="2.3"></path><path d="M768.8,137.4q.2,9.6 .6,17.4" fill="none" stroke="#ffffff" stroke-width="2.3"></path><path d="M768.2,136.2q14.8-2.5 14.4-1.2" fill="none" stroke="#ffffff" stroke-width="2.3"></path><path d="M769.4,146.4q6.6-1.6 12-3" fill="none" stroke="#ffffff" stroke-width="2.3"></path><path d="M767.6,153q8.6-.7 15.6-1.2" fill="none" stroke="#ffffff" stroke-width="2.3"></path><path d="M795.8,149.4q.2,.2 0,.2q-.2,0 -.2-.2q0-.2 .2-.2q.2,0 .2,.2" fill="none" stroke="#ffffff" stroke-width="2.3"></path><path d="M813.8,136.8q-.3-2.7 -4.2,.3q-7.3,5.7 1.2,8.2q.9,.3 .3,1.2q-4.6,6.4 8.1,7.7" fill="none" stroke="#ffffff" stroke-width="2.3"></path><path d="M.3,157.1L-.7,156.3Q-1.3,158.1 .8,113.3L-.4,113.3Q-2,159.1 .3,157.1" fill="#00ff8c"></path><path d="M20.8,129.9l.7-.9q-2.6-2 -10.3,8.6l1,.6q7.1-10.1 8.6-8.3     M22,137.7l1.1,.4q2-5.7 -1.6-9.1l-.7,.9q3.1,2.7 1.2,7.8     M13.5,140.3l.2,1.2q4.7-.8 9.1-3.1l.3-.3l-1.1-.4q-4,1.9 -8.5,2.6" fill="#00ff8c"></path><path d="M37.8,136.5l.1,1.1q4.5-1 -4.1-5.2l-.4,1q7.9,3.1 4.4,3.1     M32.5,130.3l-1.1-.5q-3.7,8.7 6.5,7.8l-.1-1.1q-9.2,1.3 -5.3-6.2     M40.6,128.1l-.2-1.2q-8.8,2.4 -9,2.9l1.1,.5q.2-.5 8.1-2.2" fill="#00ff8c"></path><path d="M-4.7,155.1l-.2-1.4q-6.4,.6 -14.2,1.5q-9.3,1.1 -16.1,1.6l0,1.4q6.9-.4 16.2-1.6q7.9-.8 14.3-1.5" fill="#d918d2"></path><path d="M-26,174.5l.6-1.4q-3.5-1.2 -8.4,5.9l1.2,.8q4.3-6.6 6.6-5.3     M-23.5,178.7l1.4,.6q1.6-3.9 -3.3-6.2l-.6,1.4q4.2,1.5 2.5,4.2     M-32.4,178.7l-.2,1.4q5,.7 9.9-.4l.6-.4l-1.4-.6q-4.1,.6 -8.9,0" fill="#d918d2"></path><path d="M-15.5,173.5l1.6,.2q.2-5.3 3.5-2.7l.8-1.4q-4.8-2.6 -5.9,3.9     M-11.2,177.1l.7-1.4q-2.1-1 -3.6-2.7l.2,.7l-1.6-.2q2,2.4 4.3,3.6     M-13,179.4l1.3,.9q1.2-1.9 1.6-3.8l-.4-.8l-.7,1.4q-.7,.7 -1.8,2.3     M-1.8,179.9l-.4-1.6q-6.1,1.3 -10.1,.8l.6,1.2l-1.3-.9q4.8,1.8 11.2,.5" fill="#d918d2"></path><path d="M63.1,131.7q3.5-2.1 7.2-1.6" fill="none" stroke="#ffffff" stroke-width="1.6"></path><path d="M62.3,136.1q5.5-.9 10-1.6" fill="none" stroke="#ffffff" stroke-width="1.6"></path><path d="M85.2,125.7q-.8,6.4 -1.2,11.6" fill="none" stroke="#ffffff" stroke-width="1.6"></path><path d="M84.4,126.5q3.7-.9 6.8-1.6" fill="none" stroke="#ffffff" stroke-width="1.6"></path><path d="M86,132.5q6-3.1 9.6-2.8" fill="none" stroke="#ffffff" stroke-width="1.6"></path><path d="M84,136.5q5.9-.4 10.8-.8" fill="none" stroke="#ffffff" stroke-width="1.6"></path><path d="M24.1,77.5Q34.8,66.9 43.5,58.2Q57.3,46.1 68.9,36.6Q73,33.2 91.1,25Q110.1,19.4 126.1,16Q161.1,8.4 183.9,18Q199,23.1 211.7,26.7Q213.1,27.1 228.1,36.9Q231.4,39 249.4,61Q257.6,71.7 264.2,80.6Q264.6,82 264.7,83.1" fill="none" stroke="#ffffff" stroke-width="1.6"></path><path d="M20.9,78.3Q12.8,78.6 9.3,79.9" fill="none" stroke="#ffffff" stroke-width="1.6"></path><path d="M1.3,79.5q-15.9,1.1 -16.5,1.6" fill="none" stroke="#ffffff" stroke-width="1.6"></path><path d="M-24.8,80.7q-12.1-2.9 -15.3,.4" fill="none" stroke="#ffffff" stroke-width="1.6"></path><path d="M-55.8,79.1q-7-.7 -12.8-1.2" fill="none" stroke="#ffffff" stroke-width="1.6"></path><path d="M-80.3,81.9q-2.4-2 -6.8-2" fill="none" stroke="#ffffff" stroke-width="1.6"></path><path d="M-161,68.3q-2.9,12.5 -1.6,19.6" fill="none" stroke="#ffffff" stroke-width="1.6"></path><path d="M-159.4,70.3q5.8-2 5.4,1.1q-3.5,3.9 -7.5,6.6q1.5,1.4 4.4,2.4q4,5.5 6.2,11.2" fill="none" stroke="#ffffff" stroke-width="1.6"></path><path d="M-144.4,94.2q6.6-.6 5-1.5q-4-2.6 -6.6,5.1q-.8,2.6 6.8,1.2" fill="none" stroke="#ffffff" stroke-width="1.9"></path><path d="M-129.1,92.3q-4.2,1.2 -3.2,3.9q1,2.5 -3.1,4.2" fill="none" stroke="#ffffff" stroke-width="1.9"></path><path d="M-383.3,73.2q-6.3,0 -7.3,4.3q2.3,5.4 5.8,9.6q-3.5-.2 -9-2" fill="none" stroke="#ffffff" stroke-width="1.9"></path><path d="M-377,69.8q-1.7,10 -2.9,18.2" fill="none" stroke="#ffffff" stroke-width="1.9"></path><path d="M-383.3,84.2q2.4-.5 4.3-1" fill="none" stroke="#ffffff" stroke-width="1.9"></path><path d="M-372.7,82.7q3.8,5.3 3.7,4.9q-.4-1.1 -.4-5.8" fill="none" stroke="#ffffff" stroke-width="1.9"></path><path d="M-362.2,83.7q2.7-1.4 1.2-1.4q-5.5-.1 -4.6,5.7q2.5,1.1 5.3,1.4" fill="none" stroke="#ffffff" stroke-width="1.9"></path><path d="M-353.6,83.2q-7.1,3.6 -1,5.3" fill="none" stroke="#ffffff" stroke-width="1.9"></path><path d="M-348.4,74.1q-1.3,12.1 .5,15.3" fill="none" stroke="#ffffff" stroke-width="1.9"></path><path d="M-341.7,81.8q-6,3.5 -1,5.7" fill="none" stroke="#ffffff" stroke-width="1.9"></path><path d="M-335,82.7q-4.8,4.4 -2.8,4.7q1.5-.5 2.8-1.1q1.9-1.1 2.4,7.9q.3,4.5 -7.7,2.4" fill="none" stroke="#ffffff" stroke-width="1.9"></path><path d="M-327.8,85.1q.5,3.6 .8,6.5q.6-2.7 1.1-7.9" fill="none" stroke="#ffffff" stroke-width="1.9"></path><path d="M-316.9,85.1q-1.2-2.8 -3.9,1.4q-2.9,4.4 3.5,4.8q.9,.1 3.3-2.8" fill="none" stroke="#ffffff" stroke-width="1.9"></path><path d="M-311.6,83.2q-.1,6.8 -1,5.7q1.3-2.8 3.9-5.2" fill="none" stroke="#ffffff" stroke-width="1.9"></path><path d="M-306.8,83.7q1.5,5 2.8,9.1" fill="none" stroke="#ffffff" stroke-width="1.9"></path><path d="M-300.1,83.7q3.4,.4 3,2.8q-1.3,3.1 -2.6,5.6q-.5,1 5.8-.8" fill="none" stroke="#ffffff" stroke-width="1.9"></path><path d="M-288.2,86.6q3.9-1.7 2.8-1.6q-5.4,.7 -3.3,6.6q4.2,1.8 8.6,2.1" fill="none" stroke="#ffffff" stroke-width="1.9"></path><path d="M-249,85.6q13-1.1 12.9-1" fill="none" stroke="#ffffff" stroke-width="1.9"></path><path d="M-223.2,80.8q2.7,1.2 2.3,2.8q-.2,.9 -3.3,3" fill="none" stroke="#ffffff" stroke-width="1.9"></path><path d="M22.7,216.1q.6-4.1 1.1-2.5q2.3,8.2 1.1,10.1" fill="none" stroke="#ffffff" stroke-width="2.1"></path><path d="M22.7,247.2q-.9-12.3 3.8-8.5q3.3,2.7 -1.5,10.4q-2.3,3.7 -3.4-1.4" fill="none" stroke="#ffffff" stroke-width="2.1"></path><path d="M34.7,251.6q0-.6 0-1.1" fill="none" stroke="#ffffff" stroke-width="2.1"></path><path d="M38,243.9q3.1-2.8 3.3,1.5q0,2.4 -1.4,6q1-.2 2.4-.9" fill="none" stroke="#ffffff" stroke-width="2.1"></path><path d="M53.2,239q-.3-.3 -.5-.5" fill="none" stroke="#ffffff" stroke-width="2.1"></path><path d="M60.9,239q-4.7,9.8 -4.4,10.9" fill="none" stroke="#ffffff" stroke-width="2.1"></path><path d="M64.7,251.6q.6,.3 1.1,.5" fill="none" stroke="#ffffff" stroke-width="2.1"></path><path d="M28.7,202.5q5.6-6.1 10.4-10.9" fill="none" stroke="#ffffff" stroke-width="2.1"></path><path d="M50,179.6q3.6-3.3 6.5-6" fill="none" stroke="#ffffff" stroke-width="2.1"></path><path d="M71.2,158.3q5.5-5.6 10.4-9.8" fill="none" stroke="#ffffff" stroke-width="2.1"></path><path d="M106.7,123.9q4.1-5.1 7.6-9.2" fill="none" stroke="#ffffff" stroke-width="2.1"></path><path d="M131.8,93.9q2.1-3 3.8-5.4" fill="none" stroke="#ffffff" stroke-width="2.1"></path><path d="M156.9,67.7q6.5-9.9 6.5-9.8" fill="none" stroke="#ffffff" stroke-width="2.1"></path><path d="M175.4,45.4q5.5-5.3 10.4-9.3" fill="none" stroke="#ffffff" stroke-width="2.1"></path><path d="M192.3,30.1q1.8-2.7 3.3-4.9" fill="none" stroke="#ffffff" stroke-width="2.1"></path><path d="M180.3,21.9q-3.6-.6 -6.5-1.1" fill="none" stroke="#ffffff" stroke-width="2.1"></path><path d="M142.7,23q-3.9,0 -7.1,0" fill="none" stroke="#ffffff" stroke-width="2.1"></path><path d="M116,24.1q-.4,0 -2.2,0" fill="none" stroke="#ffffff" stroke-width="2.1"></path><path d="M77.2,22.5q-4.4-.6 -8.1-1.1" fill="none" stroke="#ffffff" stroke-width="2.1"></path><path d="M43.4,24.1q-2.7-.5 -4.9-1.1" fill="none" stroke="#ffffff" stroke-width="2.1"></path><path d="M-.2,23.6Q-1.1,23.6 -1.9,23.6" fill="none" stroke="#ffffff" stroke-width="2.1"></path><path d="M-44.4,24.1q-3.9,.3 -7.1,.6" fill="none" stroke="#ffffff" stroke-width="2.1"></path><path d="M-76.6,25.7q-1,.1 -4.9,.6" fill="none" stroke="#ffffff" stroke-width="2.1"></path><path d="M-166.8,17.8q-.4,12.6 .4,11.4" fill="none" stroke="#ffffff" stroke-width="1.5"></path><path d="M-165.6,21q2.4-5.1 3.7-2.2q-1.7,2.1 -4.1,3.6q-.2,.1 7.4,8.3" fill="none" stroke="#ffffff" stroke-width="1.5"></path><path d="M-153.5,26q-1.4,6.7 -.8,6.3" fill="none" stroke="#ffffff" stroke-width="1.5"></path><path d="M-153.5,27.2q4.5-2.2 4,.2q-1.9,.8 -4,1" fill="none" stroke="#ffffff" stroke-width="1.5"></path><path d="M-142.9,29.5q1.5-2.1 2.5,.4q.5,1.1 -1,1.9q-.8-.4 -1.5-1.1" fill="none" stroke="#ffffff" stroke-width="1.5"></path><path d="M-135.1,31.1q.2,.2 0,.2q-.2,0 -.2-.2q0-.2 .2-.2q.2,0 .2,.2" fill="none" stroke="#ffffff" stroke-width="1.5"></path><path d="M-132.8,28.4q2.5,.9 1.9,2.9q-1,3.4 4.3,1" fill="none" stroke="#ffffff" stroke-width="1.5"></path><path d="M-386.2,19.8q.3,5.6 .4,10.1" fill="none" stroke="#ffffff" stroke-width="1.5"></path><path d="M-385,22.1q4.2-1.1 6,2.8q3,6.2 -5.6,4.3" fill="none" stroke="#ffffff" stroke-width="1.5"></path><path d="M-374.1,28.8q5.8-1.5 5.2-2.7q-.1-.4 -4.6,2.5q-2.7,1.8 -.5,2.7q3.8-.8 7-2.5" fill="none" stroke="#ffffff" stroke-width="1.5"></path><path d="M-364.7,20.6q-1.7,9 -.4,10.1" fill="none" stroke="#ffffff" stroke-width="1.5"></path><path d="M-360.8,25.3q-2.4,5.6 -1.3,4.6q4.5-4.2 6.6-2.7q.6,2 .6,3.9" fill="none" stroke="#ffffff" stroke-width="1.5"></path><path d="M-347.1,27.6q-6,1.6 -3.9,2.8q2.7-.6 5-1.9q3.3-1.9 -1,5.9q-1.1,2.1 -4.4-2.1" fill="none" stroke="#ffffff" stroke-width="1.5"></path><path d="M-344,28.4q.8,3.2 .8,3.1q-1.5-8.6 2.3-5.1" fill="none" stroke="#ffffff" stroke-width="1.5"></path><path d="M-337,29.5q2.2-1.9 1.5-1.7q-5.7,1.1 -.9,3.7q.5,.3 2.9-.8" fill="none" stroke="#ffffff" stroke-width="1.5"></path><path d="M-332.7,28q0,4.6 .7,3.7q1.2-1.6 2.1-2.9" fill="none" stroke="#ffffff" stroke-width="1.5"></path><path d="M-327.2,27.6q2.7,4.7 2.7,4.7" fill="none" stroke="#ffffff" stroke-width="1.5"></path><path d="M-322.9,28q3.8,.1 2.2,2.3q-.8,1.1 .9,1.2" fill="none" stroke="#ffffff" stroke-width="1.5"></path><path d="M-313.5,29.5q1.8-1.4 1.1-1.5q-4-.6 -1.7,3.5q2,3.6 6,.4" fill="none" stroke="#ffffff" stroke-width="1.5"></path><path d="M-290.5,26.4q.5-5.7 3.5-6q3.4-.3 2.3,4.7q-.5,2.4 -5,1.3" fill="none" stroke="#ffffff" stroke-width="1.5"></path><path d="M-280.8,31.1q-.4-1 -.7-1.9" fill="none" stroke="#ffffff" stroke-width="1.5"></path><path d="M-278.8,22.5q5.8-.6 4.3,3.2q-1.5,3.5 -1.1,4.5q.2,.7 3.8-.3" fill="none" stroke="#ffffff" stroke-width="1.5"></path><path d="M-259.3,19.8q-.2,0 -1.2,0" fill="none" stroke="#ffffff" stroke-width="1.5"></path><path d="M-252.3,21.3q-5.9,8.3 -6.2,9.4" fill="none" stroke="#ffffff" stroke-width="1.5"></path><path d="M-248.7,31.5q0,.4 0,.8" fill="none" stroke="#ffffff" stroke-width="1.5"></path><path d="M157.7,11.8q-7.2-.5 -13.1-.9q2.6,.1 7.4,.3" fill="none" stroke="#ffffff" stroke-width="2.4"></path><path d="M126.3,6.8Q113.8,7 113.7,7.4" fill="none" stroke="#ffffff" stroke-width="2.4"></path><path d="M99.9,8.7Q89.3,8.8 89.8,9.3" fill="none" stroke="#ffffff" stroke-width="2.4"></path><path d="M74.8,8.1Q64.3,8.9 64.1,9.3" fill="none" stroke="#ffffff" stroke-width="2.4"></path><path d="M43.4,8.1Q39.9,8.1 37.1,8.1" fill="none" stroke="#ffffff" stroke-width="2.4"></path><path d="M26.4,8.1Q18.8,8.1 12.6,8.1" fill="none" stroke="#ffffff" stroke-width="2.4"></path><path d="M-17.6,8.1Q-27.2,7 -27,7.4" fill="none" stroke="#ffffff" stroke-width="2.4"></path><path d="M-44.6,8.1Q-60.4,7.5 -59,8.7" fill="none" stroke="#ffffff" stroke-width="2.4"></path><path d="M-69,8.7Q-80.4,8.7 -89.8,8.7" fill="none" stroke="#ffffff" stroke-width="2.4"></path><path d="M-134.4,-2.1Q-135.1,7.9 -134.8,9.5" fill="none" stroke="#ffffff" stroke-width="1.3"></path><path d="M-134.6,.6Q-132.2,-1.5 -130.9,-.6Q-131.9,2.2 -134.2,4.8Q-132.8,6.7 -130.3,8.2" fill="none" stroke="#ffffff" stroke-width="1.3"></path><path d="M-128.3,11.6Q-124.5,4.8 -124.4,5.3Q-124.3,8.2 -124.7,10.7Q-123.4,9.5 -121.8,6.9Q-121.1,5.8 -118,14.1" fill="none" stroke="#ffffff" stroke-width="1.3"></path><path d="M-388.2,-8.5Q-380.2,-9.1 -382.8,-5.3Q-385.1,-2.2 -387,.2Q-386,.4 -384.4,.2" fill="none" stroke="#ffffff" stroke-width="1.4"></path><path d="M-380,-3Q-378.1,-.5 -376.3,-1.6Q-375,-2.4 -374.7,-2Q-373.5,-1.1 -372.5,-.4" fill="none" stroke="#ffffff" stroke-width="1.4"></path><path d="M-369.1,-4Q-372.1,-1.1 -369.9,-1.3Q-368.8,-2 -368,-2.8Q-367.6,-3.2 -366.3,1.9Q-364.9,7.5 -373.1,2.9" fill="none" stroke="#ffffff" stroke-width="1.4"></path><path d="M-365.4,-2.4Q-365,-2.4 -363.5,-2.4" fill="none" stroke="#ffffff" stroke-width="1.4"></path><path d="M-341.9,-10.6q-1.4,6.4 -2.5,11.6" fill="none" stroke="#ffffff" stroke-width="1.4"></path><path d="M-346.4,-2Q-346,-1.9 -344.4,-1.7" fill="none" stroke="#ffffff" stroke-width="1.4"></path><path d="M-337.7,.9Q-337.8,1.8 -337.8,2.5" fill="none" stroke="#ffffff" stroke-width="1.4"></path><path d="M-337.5,-6.3Q-337.1,-6.3 -336.7,-6.3" fill="none" stroke="#ffffff" stroke-width="1.4"></path><path d="M-332.2,-3.5Q-335.5,3.4 -333.6,1.2Q-330.5,-2.5 -329.5,1.9Q-328.7,5.5 -334.4,3.4" fill="none" stroke="#ffffff" stroke-width="1.4"></path><path d="M-324.4,-9.3Q-323.2,-8.6 -323.4,-5.7Q-323.6,-3.3 -323.6,2.1" fill="none" stroke="#ffffff" stroke-width="1.4"></path><path d="M-319.2,-3.8Q-324.4,-.7 -321.9,.5Q-321,.9 -317.1,.3" fill="none" stroke="#ffffff" stroke-width="1.4"></path><path d="M-314.4,-2.3Q-318.2,-1.8 -316.8,.8Q-314.6,1.6 -312.4,1.8" fill="none" stroke="#ffffff" stroke-width="1.4"></path><path d="M-308.9,-2.6Q-309.6,3 -308.4,2.5" fill="none" stroke="#ffffff" stroke-width="1.4"></path><path d="M-308.5,-8.4Q-308.4,-8.3 -308.5,-8.3Q-308.6,-8.3 -308.6,-8.4Q-308.6,-8.5 -308.5,-8.5Q-308.4,-8.5 -308.4,-8.4" fill="none" stroke="#ffffff" stroke-width="1.4"></path><path d="M-302.3,-9.7Q-303,-3.2 -303.6,2.1" fill="none" stroke="#ffffff" stroke-width="1.4"></path><path d="M-304.2,-2.2Q-300.8,-2.1 -298.1,-2" fill="none" stroke="#ffffff" stroke-width="1.4"></path><path d="M-245.9,1.1Q-243.1,-.8 -230.3,-.6" fill="none" stroke="#ffffff" stroke-width="1.4"></path><path d="M-217.7,-7.8Q-212.4,-2.8 -213.9,-.2Q-216.3,.8 -218.7,1.2" fill="none" stroke="#ffffff" stroke-width="1.4"></path><path d="M-541.6,-4.8Q-541.5,-2.4 -541.4,-.3Q-540.2,-1.6 -538.8,-4.2Q-537.6,-2.6 -536.7,.4Q-535.9,-.7 -535.2,-2.9Q-533.4,-1.3 -531.7,1.9" fill="none" stroke="#ffffff" stroke-width="1.5"></path><path d="M-527.4,-4.4Q-530.1,-1.3 -527.6,-.3Q-527.3,-.1 -525.8,-.9" fill="none" stroke="#ffffff" stroke-width="1.5"></path><path d="M-525.5,-2.6Q-523.5,1 -522.5,.4" fill="none" stroke="#ffffff" stroke-width="1.5"></path><path d="M-520.2,-3.6Q-517.4,-1.5 -515.2,.4" fill="none" stroke="#ffffff" stroke-width="1.5"></path><path d="M-514.4,-3.2Q-517.1,-1.2 -519.2,.5" fill="none" stroke="#ffffff" stroke-width="1.5"></path><path d="M-512,.5Q-511.9,.6 -512,.6Q-512.1,.6 -512.1,.5Q-512.1,.4 -512,.4Q-511.9,.4 -511.9,.5" fill="none" stroke="#ffffff" stroke-width="1.5"></path><path d="M-488.7,-8.3Q-493.7,-7.9 -492.5,-5.2Q-490.8,-2 -489.3,.6Q-490.8,-.2 -493,-2" fill="none" stroke="#ffffff" stroke-width="1.5"></path><path d="M-484.4,-.4Q-483.4,-4.4 -481.7,-2.9Q-480.4,-1.7 -487,1.4Q-491.6,3.6 -486.7,6" fill="none" stroke="#ffffff" stroke-width="1.5"></path><path d="M-475.8,-3.8Q-480.3,.1 -478.5,.7Q-475.9,-.6 -473.8,-2.6Q-473.5,-2.9 -472.2,-1.4" fill="none" stroke="#ffffff" stroke-width="1.5"></path><path d="M-471.1,-4.1Q-471.2,-1.7 -471,-2Q-470,-4.3 -467.1,.5" fill="none" stroke="#ffffff" stroke-width="1.5"></path><path d="M-465.7,-2.4Q-465.9,.7 -465.6,0Q-463.4,-4.1 -460.1,-.2" fill="none" stroke="#ffffff" stroke-width="1.5"></path><path d="M-457.3,-1.6Q-455.6,2.7 -454,-.3Q-453.4,-1.6 -452.9,-2.6Q-452.7,-3.2 -451.2,0" fill="none" stroke="#ffffff" stroke-width="1.5"></path><path d="M-448.2,-3.1Q-448.3,.8 -447.6,.1Q-444.5,-3.2 -442.1,1.7" fill="none" stroke="#ffffff" stroke-width="1.5"></path><path d="M-437.3,-.7Q-437.1,.4 -436.9,1.4Q-437,.9 -437.1,.2Q-436.6,.2 -436,.5" fill="none" stroke="#ffffff" stroke-width="1.5"></path><path d="M-435.8,1.2Q-433.8,6.1 -436.1,7.4Q-438.7,7.6 -441,7.4" fill="none" stroke="#ffffff" stroke-width="1.5"></path><path d="M-420.7,-1.9Q-420.6,-1.5 -420.5,-1.2" fill="none" stroke="#ffffff" stroke-width="1.5"></path><path d="M-419.3,4.5Q-420.8,6.6 -422.1,8.3" fill="none" stroke="#ffffff" stroke-width="1.5"></path><path d="M-360,-8Q-361.6,-7.9 -362.2,-6.7Q-362.8,-5.5 -363.6,1.3" fill="none" stroke="#ffffff" stroke-width=".8"></path><path d="M-361.5,-1.1Q-355.2,-2.9 -357.6,-3.5Q-359.2,-4 -359.9,-.7Q-359.1,0 -358,.3" fill="none" stroke="#ffffff" stroke-width=".8"></path><path d="M-353.6,-2.5Q-354.6,-2.9 -354.7,-2.6Q-354.2,-1.5 -353.5,-.6Q-353.1,-.2 -354.7,-.3Q-355,-.3 -356,-.4" fill="none" stroke="#ffffff" stroke-width=".8"></path><path d="M-107.3,395.4q.5,7.6 1.1,13.9" fill="none" stroke="#ffffff" stroke-width="1.6"></path><path d="M-107.1,400.3q4.4-5.8 7.3-3.1q1.1,1 -3.8,7.7q-1.6,2.1 2.1,2.7q3.5,.7 6.4,1.2" fill="none" stroke="#ffffff" stroke-width="1.6"></path><path d="M-90.2,412.5q7.7-3.1 5.4-3.5q-4-.7 -5.9,4.8q-1.1,3.1 7.2,1.1" fill="none" stroke="#ffffff" stroke-width="1.6"></path><path d="M-80.2,410.5q-.2-.6 -.4-1q.3,2.3 1.4,6.5q-1.1,0 -2.6-.6" fill="none" stroke="#ffffff" stroke-width="1.6"></path><path d="M-63,415.5q-3.1,2.6 -5.3,5.2" fill="none" stroke="#ffffff" stroke-width="1.6"></path><path d="M-34.6,398.8q-.7,7 -.9,12.7" fill="none" stroke="#ffffff" stroke-width="1.6"></path><path d="M-35.3,399.8q9.3-2.5 6.9,1.2q-3,1.8 -6,2.7q3.2,3.7 9.6,7.4" fill="none" stroke="#ffffff" stroke-width="1.6"></path><path d="M-13.9,411.4q2.6-5.1 2.8-2.7q-1.6,2.6 -3.7,4.5q-.1,3.6 .9,7" fill="none" stroke="#ffffff" stroke-width="1.6"></path><path d="M-2.7,411.4Q-2.7,406.8 -.4,409.7Q2.5,413.4 -1.7,415Q-1.7,414.8 -1.6,414.5" fill="none" stroke="#ffffff" stroke-width="1.6"></path><path d="M2.2,415Q2.4,415 3.4,414.8" fill="none" stroke="#ffffff" stroke-width="1.6"></path><path d="M6.7,410.4Q8.9,409.2 8.7,412.5Q8.5,415.9 9.5,416Q11.1,416 12.4,415.9" fill="none" stroke="#ffffff" stroke-width="1.6"></path><path d="M33.2,414.2q-7.2,9 -7.2,8.1" fill="none" stroke="#ffffff" stroke-width="1.5"></path><path d="M57.7,401.8q-3.5,5.3 -3.9,12" fill="none" stroke="#ffffff" stroke-width="1.5"></path><path d="M55,403.6q2.6-5.9 5.1-3.3q-.8,5.1 -3.3,9.7q2.3,1.7 5.8,2.5" fill="none" stroke="#ffffff" stroke-width="1.5"></path><path d="M66.7,417.9q4.6-7.3 4.7-5.4q.4,4.4 1.2,3.4q.9-2.1 1.4-4q1.6,2.9 3.1,8.3" fill="none" stroke="#ffffff" stroke-width="1.5"></path><path d="M96,397.6q.2,.2 0,.2q-.2,0 -.2-.2q0-.2 .2-.2q.2,0 .2,.2" fill="none" stroke="#ffffff" stroke-width="1.5"></path><path d="M98,407.8q.4-.1 .8-.2" fill="none" stroke="#ffffff" stroke-width="1.5"></path><path d="M58.3,445.1q-1.1,16.5 -.5,16.8" fill="none" stroke="#ffffff" stroke-width="1.7"></path><path d="M58.8,448.7q7.5-2.2 13.7-3.8" fill="none" stroke="#ffffff" stroke-width="1.7"></path><path d="M58.6,452.9q6.7-2.5 12.2-4.3" fill="none" stroke="#ffffff" stroke-width="1.7"></path><path d="M55.1,462.2q10.1-2.7 14.3-3.5" fill="none" stroke="#ffffff" stroke-width="1.7"></path><path d="M88.7,444.6q.2,.1 .5,.3" fill="none" stroke="#ffffff" stroke-width="1.7"></path><path d="M88.5,460.8q.1-.5 .2-1" fill="none" stroke="#ffffff" stroke-width="1.7"></path><path d="M127.8,398.7q.4,11.5 -.2,11.2" fill="none" stroke="#ffffff" stroke-width="1.1"></path><path d="M128.7,400.4q3.5-1.5 6.7-2.2" fill="none" stroke="#ffffff" stroke-width="1.1"></path><path d="M128.4,403.5q2.9-.2 5.3-.3" fill="none" stroke="#ffffff" stroke-width="1.1"></path><path d="M136.2,408.5q5.1-3.1 3.9-3.2q-3.3-.5 -3.2,4.8q0,1.6 5.1,1.2" fill="none" stroke="#ffffff" stroke-width="1.1"></path><path d="M148.4,405.1q-4-1.4 -2.4,1.4q2,3 3.7,5.4q1.8,2.6 -4.4,0q-1-.4 -.5-1.7" fill="none" stroke="#ffffff" stroke-width="1.1"></path><path d="M156.5,397.6q0,12 -1.7,14.5" fill="none" stroke="#ffffff" stroke-width="1.1"></path><path d="M153.2,408.2q2.1,.2 3.9,.3" fill="none" stroke="#ffffff" stroke-width="1.1"></path><path d="M161,409q-.2,1.3 -.3,2.3" fill="none" stroke="#ffffff" stroke-width="1.1"></path><path d="M161.8,400.4q-.1-.2 -.3-.8" fill="none" stroke="#ffffff" stroke-width="1.1"></path><path d="M169,407.6q-1-.6 -2,1.3q-1.5,2.7 -.2,3.1q1-1.3 1.5-3.1q.6-2.5 1.7,3.9q1.3,6.8 -3.9,6q-.5-1.5 -.4-3.1" fill="none" stroke="#ffffff" stroke-width="1.1"></path><path d="M176,401.5q-.4,6.4 -.6,11.7" fill="none" stroke="#ffffff" stroke-width="1.1"></path><path d="M179.9,407.4q-3.2,2.9 -2.5,4.1q1.3,.3 2.5,.3" fill="none" stroke="#ffffff" stroke-width="1.1"></path><path d="M183.8,411q5-1.3 3.8-2.6q-1.4-1.5 -4,2.7q-1,1.5 3.5,1.3" fill="none" stroke="#ffffff" stroke-width="1.1"></path><path d="M190.5,410.4q.1,.9 .3,1.7" fill="none" stroke="#ffffff" stroke-width="1.1"></path><path d="M191.3,403.2q-.2-.3 -.3-.6" fill="none" stroke="#ffffff" stroke-width="1.1"></path><path d="M196.6,401.8q-.2,13.9 0,12.3" fill="none" stroke="#ffffff" stroke-width="1.1"></path><path d="M195.2,411q3.1-2.1 2.8-.3" fill="none" stroke="#ffffff" stroke-width="1.1"></path><path d="M202.2,411.3q2.8-3.6 1.3-3.7q-2,0 -1.8,3.5q1.4,.9 3,1.3" fill="none" stroke="#ffffff" stroke-width="1.1"></path><path d="M208.9,406.3q-2.3,6.6 -1.7,5.9q4.6-5.1 7.1-1q0,1.4 -.2,2.6" fill="none" stroke="#ffffff" stroke-width="1.1"></path><path d="M135.6,449.7q-7.3,.4 -5.3,5.2q2.9,3.7 5.8,6.4q1.6,1.6 -2.7,2q-3.7,.3 -5-5.3" fill="none" stroke="#ffffff" stroke-width="1.1"></path><path d="M139.8,449.4q1.9,3.3 1.7,10q0,2 0,3.7" fill="none" stroke="#ffffff" stroke-width="1.1"></path><path d="M137.9,458.3q5.3-.7 6.6,0" fill="none" stroke="#ffffff" stroke-width="1.1"></path><path d="M149,459.4q4.5-3 3.2-2.7q-3.4,.6 -2.1,4.3q1.7,.1 3.4-.5" fill="none" stroke="#ffffff" stroke-width="1.1"></path><path d="M157.3,458.3q.5,3.6 .6,3.9" fill="none" stroke="#ffffff" stroke-width="1.1"></path><path d="M157.3,449.7q0,.2 0,1.1" fill="none" stroke="#ffffff" stroke-width="1.1"></path><path d="M171.3,449.1q-3.2,1.2 -4.4,4.4q-.7,6.6 -.6,12.1" fill="none" stroke="#ffffff" stroke-width="1.1"></path><path d="M164.3,459.7q2.3,.3 4.2,.6" fill="none" stroke="#ffffff" stroke-width="1.1"></path><path d="M176.8,458.6q-.4,2.1 -.8,3.9" fill="none" stroke="#ffffff" stroke-width="1.1"></path><path d="M176.8,450q.1,.1 0,.1q-.1,0 -.1-.1q0-.1 .1-.1q.1,0 .1,.1" fill="none" stroke="#ffffff" stroke-width="1.1"></path><path d="M184.9,457.8q-.7-1.3 -1.9,.8q-.1,.8 -.1,1.6q.6-.1 1.4-.4q.9-.5 3.3,5.4q2.1,5.3 -7.7,.6" fill="none" stroke="#ffffff" stroke-width="1.1"></path><path d="M195.8,449.4q0,7.5 0,13.7" fill="none" stroke="#ffffff" stroke-width="1.1"></path><path d="M202.7,457.2q-8.4,2.4 -3.8,4.9q3.3,0 6.1-.7" fill="none" stroke="#ffffff" stroke-width="1.1"></path><path d="M207.7,460.5q7.1-3.2 5.1-2.7q-5,1.3 -2.2,6.1q.2,.5 2.7,.5" fill="none" stroke="#ffffff" stroke-width="1.1"></path><path d="M219.2,458q.1,2.6 .2,4.8" fill="none" stroke="#ffffff" stroke-width="1.1"></path><path d="M218.9,451.4q-.1-.7 .3-.3" fill="none" stroke="#ffffff" stroke-width="1.1"></path><path d="M253,88q14.3-3.9 26-7" fill="none" stroke="#ffffff" stroke-width="2.6"></path><path d="M224.4,449.1q.5,8.7 .9,15.9" fill="none" stroke="#ffffff" stroke-width="1.1"></path><path d="M269,72q-15.4,27.2 -8,25" fill="none" stroke="#ffffff" stroke-width="2.6"></path><path d="M220.8,459.2q4-.2 7.3-.3" fill="none" stroke="#ffffff" stroke-width="1.1"></path><path d="M253.8,100.7q-1.9,2.8 -3.2,5.4" fill="none" stroke="#ffffff" stroke-width="1.4"></path><path d="M243.1,119.6q-2.2,5.1 -3.9,9.2" fill="none" stroke="#ffffff" stroke-width="1.4"></path><path d="M232.8,141.6q-2.9,4.9 -5.3,8.9" fill="none" stroke="#ffffff" stroke-width="1.4"></path><path d="M224.6,161.2q-4.6,6.3 -8.5,11.3" fill="none" stroke="#ffffff" stroke-width="1.4"></path><path d="M213.6,182.1q-3.1,4.1 -5.7,7.5" fill="none" stroke="#ffffff" stroke-width="1.4"></path><path d="M203.3,199.6q-.2,.4 -1.1,2.1" fill="none" stroke="#ffffff" stroke-width="1.4"></path><path d="M-83.5,292.9q-.1-1.7 -.1-1.5q-1.9,17.5 -.9,18.2" fill="none" stroke="#ffffff" stroke-width="2"></path><path d="M198.9,225.8q-.4,16 -3.8,44.1q-.8,11.6 -1.1,21.2q-1.2,.9 -2.7,1.4q-.7,1.4 -1,2.9" fill="none" stroke="#ffffff" stroke-width="2"></path><path d="M-81.4,312.2q16.7,0 117.4-3q88.5-2.6 140.1,3.7q6.7-.9 12.3-2.2" fill="none" stroke="#ffffff" stroke-width="2"></path><path d="M189.2,303.5q13.5,4.6 8.5,7.6q-11.5,7.1 -10.5,2.1" fill="none" stroke="#ffffff" stroke-width="2"></path><path d="M-78.4,306.6q-7.2,3.5 -8.4,10.5q-1,5.5 19.1,2.7" fill="none" stroke="#ffffff" stroke-width="2"></path><path d="M87.8,338q4.2-.2 7.6-.4" fill="none" stroke="#ffffff" stroke-width="1.4"></path><path d="M91.4,340.5q2.6-.2 4.7-.4" fill="none" stroke="#ffffff" stroke-width="1.4"></path><path d="M110.9,344.8q10.7-15.7 12.3-14.5q.6,7.3 -1.1,14.2" fill="none" stroke="#ffffff" stroke-width="1.4"></path><path d="M112.4,340.5q10.2-.8 9.4-.4" fill="none" stroke="#ffffff" stroke-width="1.4"></path><path d="M96.1,335.8q9.1,2.2 9.2,4.4q0,.8 -3.8,2.1" fill="none" stroke="#ffffff" stroke-width="1.4"></path><path d="M-.9,98Q1.7,95.7 18.1,93.4" fill="none" stroke="#ffffff" stroke-width="1.8"></path><path d="M0,100.8Q7.4,99.8 13.5,99.4" fill="none" stroke="#ffffff" stroke-width="1.8"></path><path d="M115.6,98.9q26.2-7.9 26.4-6.5" fill="none" stroke="#ffffff" stroke-width="1.8"></path><path d="M119.7,103.6q11.5-2.1 20.9-3.7" fill="none" stroke="#ffffff" stroke-width="1.8"></path><path d="M229.7,124q10.4-2.1 19-3.7" fill="none" stroke="#ffffff" stroke-width="1.8"></path><path d="M238.1,127.2q5.2-1.7 10.2-1.8" fill="none" stroke="#ffffff" stroke-width="1.8"></path><path d="M-49.3,332.2q.1,13.9 .5,13.5" fill="none" stroke="#ffffff" stroke-width="1.1"></path><path d="M-47.4,336.1q1.4-2.8 3.2-2.5q2.8,.5 1.4,4.5q-.9,2.4 -3.1,.8q1.6,1 4.6,3.1q2,1.4 -1.1,3.3q-3.3,2 -4.2-1.3" fill="none" stroke="#ffffff" stroke-width="1.1"></path><path d="M-37.8,339.9q3.3,9.3 1.6,6.7q-.9-1.6 0-6.4" fill="none" stroke="#ffffff" stroke-width="1.1"></path><path d="M-30.7,341q-1.6,1.6 .3,4.1q1.6,2.1 2.2-1.1q-.1-1.2 -.2-2.3q.8,.8 1.9,2.3" fill="none" stroke="#ffffff" stroke-width="1.1"></path><path d="M-21.6,340.2q-1.7,3.1 -.3,4.5q2.6,.3 5-.1" fill="none" stroke="#ffffff" stroke-width="1.1"></path><path d="M-15.3,329.8q-.3,8.2 0,14.6q.1,.4 .3,.6q1-1.5 1.6-4.1q.5-2.6 3.7-.4q1,.7 1.3,4.6" fill="none" stroke="#ffffff" stroke-width="1.1"></path><path d="M-.5,339.6Q-4.1,344.5 -1.5,346.6Q1,348.6 2,335.7Q2.4,331 .7,331.6Q.4,331.7 1.8,338.8Q2.1,340.2 3.4,346.2" fill="none" stroke="#ffffff" stroke-width="1.1"></path><path d="M8.3,342.7Q9.5,339.3 9,339.9Q6,343.6 9.9,345.8Q13.4,345.1 16.3,343.5" fill="none" stroke="#ffffff" stroke-width="1.1"></path><path d="M16.6,329.8q-.3,21 .2,16.7q.9-7.6 3.4-5.2q.7,.6 1.3,4.1" fill="none" stroke="#ffffff" stroke-width="1.1"></path><path d="M24.5,339.4q2.4,8 2.5,7.4q.8-8 3.4-5.2q1.3,2.5 2.1,4.6" fill="none" stroke="#ffffff" stroke-width="1.1"></path><path d="M35.5,341q-1,3.7 1.7,4.6q2.6,.9 2.2-2.7q1.8,.6 4.1,2.5" fill="none" stroke="#ffffff" stroke-width="1.1"></path><path d="M45.4,340.2q.2,6.7 .4,5.6q.9-5.8 5.1-2.7q2.3,1.7 1.1,3.1" fill="none" stroke="#ffffff" stroke-width="1.1"></path><path d="M59.7,341.8q-5.3,3.4 -2.6,4.5q1.7-1 3.1-2.5q.3-.4 1.1,3.1q1.8,8.3 -4.3,7.4q-2.3-.9 -4.2-1.8" fill="none" stroke="#ffffff" stroke-width="1.1"></path><path d="M536.5,-78.9q7.7-15.1 14.1-27.4q.7,10.5 -1.3,29.1q3.9-10.7 9.5-30.8q1.7,8 2.4,22.8" fill="none" stroke="#ffffff" stroke-width="2.5"></path><path d="M567.5,-87.8q2.3-3.6 2-3.3q-7.2,7 -2,8.2q7.4-1.9 13.3-4.9" fill="none" stroke="#ffffff" stroke-width="2.5"></path><path d="M585.2,-109.3q-2.6,17.5 -1.3,30.4" fill="none" stroke="#ffffff" stroke-width="2.5"></path><path d="M582,-89.7q6.8-4.6 7,0" fill="none" stroke="#ffffff" stroke-width="2.5"></path><path d="M600.4,-90.3q-12.9,1.4 -11.9,7.6q1.2,8.1 10.8-4.4q1.3-2.7 2.2-5.1q1.2,2.8 2,7.8q1.5-.5 3.2-2.1" fill="none" stroke="#ffffff" stroke-width="2.5"></path><path d="M618.1,-106.8q-3.1,20 -1.7,27.1" fill="none" stroke="#ffffff" stroke-width="2.5"></path><path d="M627,-109.9q-.2,15.6 0,28.4" fill="none" stroke="#ffffff" stroke-width="2.5"></path><path d="M536.5,-69.4q97.9-1.9 89.2,2.5" fill="none" stroke="#ffffff" stroke-width="2.5"></path><path d="M536.5,-57.4q59.8-3 96.8,7" fill="none" stroke="#ffffff" stroke-width="2.5"></path><path d="M-184.5,523.1q-.5,9.9 -1,17.9q1.7-.9 3.8-3.2q2.2-2.5 5.4,4q2.9,5.9 -4.8,6q-1.3-2.1 -1.8-4.7" fill="none" stroke="#ffffff" stroke-width="2"></path><path d="M-170.8,538.9q1.6,10.6 5.7,3.1q.7-1.6 1.1-2.9q4.7,2.3 9.5,7.7" fill="none" stroke="#ffffff" stroke-width="2"></path><path d="M-152.4,537.9q-.6,10.6 -.1,9.2q3.2-9 10-4.9q2.1,3.1 3.3,6.2" fill="none" stroke="#ffffff" stroke-width="2"></path><path d="M-133.9,541q-4.8,6.3 -1.2,7q3.5-1.4 6.2-3.3q3.3-2.4 4.8,7.5q1.1,7.4 -13.5,5.2" fill="none" stroke="#ffffff" stroke-width="2"></path><path d="M-52.7,524.7q0,13 0,23.7" fill="none" stroke="#ffffff" stroke-width="2"></path><path d="M-55.9,540.5q2.6,1.2 4.8,2.1" fill="none" stroke="#ffffff" stroke-width="2"></path><path d="M-40.6,543.7q1.4-4.8 .1-4.4q-5.1,1.6 .7,8.6q2.3-.1 4.5-1.1" fill="none" stroke="#ffffff" stroke-width="2"></path><path d="M-29.5,542.1q1.7,4.1 3.1,7.4" fill="none" stroke="#ffffff" stroke-width="2"></path><path d="M-29.5,532.1q.6,0 1,0" fill="none" stroke="#ffffff" stroke-width="2"></path><path d="M-14.8,530.5q-6.7,1.7 -7.1,9.6q.8,5.5 1.9,9.9" fill="none" stroke="#ffffff" stroke-width="2"></path><path d="M-22.1,544.2q4.6,0 8.4,0" fill="none" stroke="#ffffff" stroke-width="2"></path><path d="M-5.8,543.1Q-5.8,546 -5.8,548.4" fill="none" stroke="#ffffff" stroke-width="2"></path><path d="M-6.9,528.9Q-6.7,529.1 -6.9,529.1Q-7.1,529.1 -7.1,528.9Q-7.1,528.7 -6.9,528.7Q-6.7,528.7 -6.7,528.9" fill="none" stroke="#ffffff" stroke-width="2"></path><path d="M6.8,538.9Q1.9,545.9 5,546.2Q6.6,545.4 7.8,544.3Q10.4,542 13,552.7Q15.1,561.1 5.3,560.7Q3.8,560.7 1,554.7" fill="none" stroke="#ffffff" stroke-width="2"></path><path d="M20,532.6q1.3,17.6 2.1,17.4" fill="none" stroke="#ffffff" stroke-width="2"></path><path d="M31.1,538.9q-8.5,1.7 -5.7,7q3.9,1.9 7.8,2.5" fill="none" stroke="#ffffff" stroke-width="2"></path><path d="M38.5,544.7q6.2-5.6 2.1-4.6q-4.3,1.1 -1.6,6.9q3.4,1 6.9,.9" fill="none" stroke="#ffffff" stroke-width="2"></path><path d="M48.5,543.7q.3,3.2 .5,5.8" fill="none" stroke="#ffffff" stroke-width="2"></path><path d="M50.6,531q0,.4 0,2.1" fill="none" stroke="#ffffff" stroke-width="2"></path><path d="M60.6,526.3q0,11.6 0,21.1" fill="none" stroke="#ffffff" stroke-width="2"></path><path d="M55.4,541q6,0 11,0" fill="none" stroke="#ffffff" stroke-width="2"></path><path d="M116.4,539.1q.5,7.8 5,6.5q4.1-3.3 7-6.7q3.4,2.4 6.3,7" fill="none" stroke="#ffffff" stroke-width="2"></path><path d="M139.9,539.1q.2,3.4 .4,6.1q1.7-1.4 3.6-4.6q3.9,2 7.5,6.3" fill="none" stroke="#ffffff" stroke-width="2"></path><path d="M159.7,539.6q-1.5,8.5 2.8,7.3q2.1-4.8 2.5-9.9" fill="none" stroke="#ffffff" stroke-width="2"></path><path d="M163.4,528.6q2.2,25.8 7.8,19.9" fill="none" stroke="#ffffff" stroke-width="2"></path><path d="M203.1,531.8q1.1,14.9 1.5,15.1" fill="none" stroke="#ffffff" stroke-width="2"></path><path d="M204.1,532.3q13.2-2.8 14.6-1.6" fill="none" stroke="#ffffff" stroke-width="2"></path><path d="M205.2,537q6.3-.6 11.4-1.1" fill="none" stroke="#ffffff" stroke-width="2"></path><path d="M217.2,541.7q12.7-4.5 9.6-5.5q-3.6-1.1 -4.5,6.7q-.3,2.6 6.9,3" fill="none" stroke="#ffffff" stroke-width="2"></path><path d="M234.4,534.9q7,13 4.6,14.8q-1.5,1.3 -7.7-3.8" fill="none" stroke="#ffffff" stroke-width="2"></path><path d="M251.1,526.6q-2.5,19.9 -2.6,19.8" fill="none" stroke="#ffffff" stroke-width="2"></path><path d="M245.9,539.1q3.4-.3 6.2-.5" fill="none" stroke="#ffffff" stroke-width="2"></path><path d="M262.1,540.6q.2,3.5 .5,6.3" fill="none" stroke="#ffffff" stroke-width="2"></path><path d="M263.1,532.3q.6,0 1.1,0" fill="none" stroke="#ffffff" stroke-width="2"></path><path d="M277.7,537q-3.8,8.3 -.8,7.3q1.4-2 2.2-4.1q.3-.8 3.6,5.3q6.5,12.2 -4.7,13.2q-3.4-3.1 -5.5-7.1" fill="none" stroke="#ffffff" stroke-width="2"></path><path d="M301.7,526q-4.3,21.4 -.5,20.9" fill="none" stroke="#ffffff" stroke-width="2"></path><path d="M307,537q-5.2,4.2 -1.1,8.2q4.1,1.1 7.9,1.2" fill="none" stroke="#ffffff" stroke-width="2"></path><path d="M317.9,543.8q7.6-7.8 3.6-7.1q-4.4,.6 -2.3,8.9q4.6,1.5 9.7,1.3" fill="none" stroke="#ffffff" stroke-width="2"></path><path d="M333.1,540.1q-.1,3.5 0,6.3" fill="none" stroke="#ffffff" stroke-width="2"></path><path d="M332.6,522.4q.3,.3 .5,.5" fill="none" stroke="#ffffff" stroke-width="2"></path><path d="M348.7,523.4q.3,25.2 -1,23" fill="none" stroke="#ffffff" stroke-width="2"></path><path d="M345.1,537.5q8.1,1.7 14.6,3.7" fill="none" stroke="#ffffff" stroke-width="2"></path><path d="M-124.7,627.6q-.5,7 -.6,40.2q-.1,47.1 -4,72.5q-.2,1.8 2.3,17" fill="none" stroke="#ffffff" stroke-width="1.4"></path><path d="M-127,753.6q5.7-2.7 19-3.3q45.8-1.4 83.3-2.5q26.4,.6 47.9,1.7" fill="none" stroke="#ffffff" stroke-width="1.4"></path><path d="M-129.6,630.5q5.5-8.4 9.2-7.7q4.7,.9 5.7,6.6" fill="none" stroke="#ffffff" stroke-width="1.4"></path><path d="M-208.8,647.6q11-16.9 12.4-13.8q1.5,7.5 2.1,13.8" fill="none" stroke="#ffffff" stroke-width="1.4"></path><path d="M-204.3,644.7q4.7-1.1 8.9-1.1" fill="none" stroke="#ffffff" stroke-width="1.4"></path><path d="M-150.4,640.9q8,2.1 4,5.2q-4.3,3.2 -8.5-3.5q-2.8-4.5 3.7-7.9q4.4,.4 8.2,1.8" fill="none" stroke="#ffffff" stroke-width="1.4"></path><path d="M15.6,766.8Q12.9,766.5 10.6,770.2Q8.5,773.6 12.3,772.5Q12.9,772.1 13.3,771.6Q13.1,773.3 12.1,776.2Q10.7,780.5 20.4,777.2" fill="none" stroke="#ffffff" stroke-width="1.4"></path><path d="M23,740.8q12.3,8.1 8.3,9.2q-3.7,.5 -6.8,.8" fill="none" stroke="#ffffff" stroke-width="1.4"></path><path d="M-126.2,751.6q.7-4.8 4.2-13.7q1.5-5.4 2.4-9.8q.7-3.5 1.3-11.2q.1,0 .3,.1" fill="none" stroke="#ffffff" stroke-width="1.4"></path><path d="M-118,717q9-7.9 7.8-5.3" fill="none" stroke="#ffffff" stroke-width="1.4"></path><path d="M177,625.4q2.6,25.4 -.3,48.2q-1.9,26.9 -2.8,48.9q-.6,8.6 -1.2,15.7q1.4,10.2 3.4,18.5" fill="none" stroke="#ffffff" stroke-width="1.8"></path><path d="M176.1,751.2q33.4-.1 62.6-.7q80.1-1.4 92.8-1.3q2.7,0 5.4,.6" fill="none" stroke="#ffffff" stroke-width="1.8"></path><path d="M343.3,744.4q9.3,.3 9.8,4.7q-4.7,5.9 -10.7,9.8" fill="none" stroke="#ffffff" stroke-width="1.8"></path><path d="M168.8,631.8q5.4-11.8 13-11q4.3,3.6 7.1,7.8" fill="none" stroke="#ffffff" stroke-width="1.8"></path><path d="M98.6,609.9q.6,7.8 1.4,14.2" fill="none" stroke="#ffffff" stroke-width="1.8"></path><path d="M99.5,613.1q13.5-4.3 10,1.5q-2,1.6 -3.8,2.7q1.7,1.8 4.9,3.3q2.5,1.2 -6,5.3" fill="none" stroke="#ffffff" stroke-width="1.8"></path><path d="M144.2,638.6q11-1.4 11.8,2.4q1,4.6 -8.3,6.4q-6.2,1.2 -8.2-9.4q-1.5-7.8 12.4-6.2" fill="none" stroke="#ffffff" stroke-width="1.8"></path><path d="M347.4,772.1q-2.9-1.5 -5.7,1.6q-3.7,4 4.1,3.1q-.8,2.6 -3.2,6q-2.5,3.4 12.1,4.4" fill="none" stroke="#ffffff" stroke-width="1.8"></path><path d="M175.2,749.4q7.2-19.3 11.3-32.1q3.1-6.7 6-12.1q3.5-10.3 5.7-19q1.4-5.8 10.3-12.9q6.7-3.8 12.3-6.6q2.2-1.1 12.8-5q13.9-5.1 25.9,2.9" fill="none" stroke="#ffffff" stroke-width="1.8"></path><path d="M105.8,833.2q-1.7-2.7 -7,2.5q-10.4,10.4 2.7,11.4q6.5-1.2 11.7-2.8" fill="none" stroke="#ffffff" stroke-width="2.4"></path><path d="M174.2,827.3q3.1,48.5 5.4,57.7q7.3,29 4.5,76.3q-.8,13.8 1.5,9.3" fill="none" stroke="#ffffff" stroke-width="1.9"></path><path d="M176.1,973.9q33.3-.5 115.9,.5q27.8-.4 50.6-1q5.1,.4 9.3,1" fill="none" stroke="#ffffff" stroke-width="1.9"></path><path d="M164.1,834.9q10.2-10.8 16.3-7.9q1.7,2.3 2.8,4.6" fill="none" stroke="#ffffff" stroke-width="1.9"></path><path d="M353.3,970.1q4.2-1.4 7,4.1q-3,3.3 -7.5,5.4" fill="none" stroke="#ffffff" stroke-width="1.9"></path><path d="M-222.3,830.7q-1,8.2 .9,16.4" fill="none" stroke="#ffffff" stroke-width="1.7"></path><path d="M-221,832.9q4.8-3.3 10.3,1.6q11.5,10.4 -8.9,11.8" fill="none" stroke="#ffffff" stroke-width="1.7"></path><path d="M-124.4,852.5q-.4-.4 -.8-.6q-.2-.2 1.8,23q2.5,29.3 -.1,63.9q-.8,11.5 1.7,61.4" fill="none" stroke="#ffffff" stroke-width="1.7"></path><path d="M-121.3,1001.5q38.6-.6 69.2,0q48.3,.2 87.8,0" fill="none" stroke="#ffffff" stroke-width="1.7"></path><path d="M42.4,997.5q9.2,5.3 7.9,6.4q-6.4,4.9 -6.6,2.5" fill="none" stroke="#ffffff" stroke-width="1.7"></path><path d="M-133.8,850.3q12.2-9.2 15.9-7.6q2.5,3.4 4.1,6.7" fill="none" stroke="#ffffff" stroke-width="1.7"></path><path d="M-161.8,862.3q15.2-.8 11,4q-7.2,8.1 -17-2.8q-4.5-5 11.3-8.3" fill="none" stroke="#ffffff" stroke-width="1.7"></path><path d="M36.3,1020.2q-5.4-1.6 -7.7,.9q-1.4,1.5 5.5,1.4q.2,.1 .4,.3q-1.4,2.2 -4,4q-3.2,2.1 1.1,4.2q4.3,0 7.9-.7" fill="none" stroke="#ffffff" stroke-width="1.4"></path><path d="M-120.2,1001.1q6.5-8.2 12-14.9q3.2-3.9 16.2-2.7" fill="none" stroke="#ffffff" stroke-width="1.8"></path><path d="M181.8,972.6q16-13.2 29.4-23.7q2.9-2.7 5.3-4.9q5.5-3.7 10.3-6.2q6.1-4.1 11-7.7q7.8-4.6 14.4-8q5.5-3.5 9.8-6.6q10.1-4.7 18.8-7.8q7-3.3 12.6-6.2q9.9-5.1 30.4-4.5q9.6,.3 26.8,12.2q4.2,2.6 7.8,4.5" fill="none" stroke="#ffffff" stroke-width="2"></path><path d="M147.2,862.9q8.2-.4 7.4,1.1q-1.8,3 -3.2,5.6q-.9,1.7 -6.4-1.4q-5.7-3.1 1-12.2q1.5-2.1 9.2-1.9" fill="none" stroke="#ffffff" stroke-width="1"></path><path d="M347.8,994.5q-1.6-2.4 -3.9,.1q-2.5,2.8 .6,5.1q.8,.1 1.5,.1q-.6,1.1 -2.1,2.4q-3.6,3.2 2,5.9q3.4,.5 6.4,.5" fill="none" stroke="#ffffff" stroke-width="1.2"></path><path d="M-203.2,530.7q-1.7,4 -.4,8.9q1.3,4.4 7.7,3.7q5.5-.5 5.3-9.4q-.3-1 -.6-1.9" fill="none" stroke="#ffffff" stroke-width=".8"></path><path d="M-199,521.4q6.6-3.4 7.4-2.1" fill="none" stroke="#ffffff" stroke-width=".8"></path><path d="M-90.9,1155.7q0,.2 .1,.6q1,7.5 2,13.6" fill="none" stroke="#ffffff" stroke-width="1.6"></path><path d="M-88,1155.3q10,4.4 6.4,7.1q-3.1,.8 -5.8,1q2.4,2.1 7.1,4.5q3.6,1.8 -1.1,4.8q-3.5,2.2 -5.8-.8" fill="none" stroke="#ffffff" stroke-width="1.6"></path><path d="M-15.5,1169.1q7.3-5.4 5.3-6.5q-1.9-1.1 -6.1,7.1q-1.9,4 5.1,3.5q6.4-.4 5.8-2.5" fill="none" stroke="#ffffff" stroke-width="1.6"></path><path d="M-1,1168.7Q-.6,1170.5 -.1,1171.9" fill="none" stroke="#ffffff" stroke-width="1.6"></path><path d="M-1.4,1158.1Q-.9,1158.8 -.5,1159.3" fill="none" stroke="#ffffff" stroke-width="1.6"></path><path d="M4.3,1162.2Q4.8,1172.3 4.9,1172.2Q7.3,1169.8 9.2,1167.8Q11.4,1169.4 13.2,1172.3" fill="none" stroke="#ffffff" stroke-width="1.6"></path><path d="M24.6,1162.2q-3.3-.4 -2.8,2.1q2.6,12.1 -4.1,8q.2-.8 .8-1.6" fill="none" stroke="#ffffff" stroke-width="1.6"></path><path d="M33.1,1166.2q-7.8,3.5 -6.2,6.5q1.6,3.2 9.8-2.8" fill="none" stroke="#ffffff" stroke-width="1.6"></path><path d="M39.9,1151.2q.6,26.6 -.4,23.2q-1.2-3.8 4.9-6.1q1.7,1.6 2.8,4" fill="none" stroke="#ffffff" stroke-width="1.6"></path><path d="M181.3,1154.5q4.9,2.1 10.4,6.8q3.6,2.9 6,13q1,11.1 1,20.3" fill="none" stroke="#ffffff" stroke-width="1.6"></path><path d="M221.4,1153.7q-10.9,6.8 -12.1,11.2q-2.1,7.9 -2.2,27.1q0,4.3 .5,4.2" fill="none" stroke="#ffffff" stroke-width="1.6"></path><path d="M182.5,1244q4,.3 6.2-2.5q9.1-11.8 10.3-20.6q.2-4.9 .1-8.9" fill="none" stroke="#ffffff" stroke-width="1.6"></path><path d="M221,1243.2q-9.1-4.1 -10.1-9.8q-2.9-15.6 -.1-16.6" fill="none" stroke="#ffffff" stroke-width="1.6"></path><path d="M256.2,1189.7q-21.5,10.1 -24.9,14.2" fill="none" stroke="#ffffff" stroke-width="1.6"></path><path d="M232.3,1197.8q-8.1,8.3 -5.5,9.4q3,0 5.5-.5" fill="none" stroke="#ffffff" stroke-width="1.6"></path><path d="M144.8,1205.5q17.8,1 32.4,1.6" fill="none" stroke="#ffffff" stroke-width="1.6"></path><path d="M178,1203.1q9.2,2.4 7.2,4.1q-4.3,2.2 -8,3.6" fill="none" stroke="#ffffff" stroke-width="1.6"></path><path d="M54.5,1165.4q-.7,8.4 0,6.2q1.8-5.6 8.3-1.1q1.1,.8 1.9,1.4" fill="none" stroke="#ffffff" stroke-width="1.6"></path><path d="M68.7,1165.4q.5,5.2 4.7,6.1q3.6,.8 4.2-2.8" fill="none" stroke="#ffffff" stroke-width="1.6"></path><path d="M69.1,1159.7q8.5,.4 8.5,.4" fill="none" stroke="#ffffff" stroke-width="1.6"></path><path d="M83.7,1162.2q3.6,9.6 3.5,9.5q-6.5-4.9 .1-8.3" fill="none" stroke="#ffffff" stroke-width="1.6"></path><path d="M93.8,1164.2q-.1,4.3 4.1,6.1q3.7,1.6 2.3-3.6q2,.9 4.9,3.2" fill="none" stroke="#ffffff" stroke-width="1.6"></path><path d="M108,1163.8q1.4,7.6 1.6,7.1q3.7-9.2 7.4-1.6q.5,1.6 .7,3" fill="none" stroke="#ffffff" stroke-width="1.6"></path><path d="M123.8,1164.2q-1.7,7.9 -.2,8.1q1.1-1.1 1.7-2.4q.2-.5 2.4,2.8q5.2,7.5 -13.2,9.3" fill="none" stroke="#ffffff" stroke-width="1.6"></path><path d="M201,1214.2q8.2-1.6 11.1-.6" fill="none" stroke="#ffffff" stroke-width="2.2"></path><path d="M198,1195.1q.3,0 9.3-.7" fill="none" stroke="#ffffff" stroke-width="1.5"></path><path d="M-72.3,1166.8q-.1-.3 -.2-.5q.3,1.8 1.2,4.9q1.6,6.2 1.3,4q-.9-6.3 1.1-9.9q2.1-.6 4.2-.6" fill="none" stroke="#ffffff" stroke-width="1.3"></path><path d="M-61.9,1166.1q2.2,9.9 6.8,5.4q2-2 .3-5.5q1.1,1.4 2.9,4.2" fill="none" stroke="#ffffff" stroke-width="1.3"></path><path d="M-44,1165.4q-2.3,1.8 -1.9,4.6q.7,4.6 6.8,.2" fill="none" stroke="#ffffff" stroke-width="1.3"></path><path d="M-35.1,1157q.7,9.5 1.2,17.4q-.1-2.2 -.3-6.2q-.3-5 6.5-2.7q1,3.9 .6,8" fill="none" stroke="#ffffff" stroke-width="1.6"></path><path d="M-64,526.9q-1-1.4 -3.7,1.7q-3.2,3.9 2.8,10.4q10.5,11.5 -3.5,8.8q-3.2-.5 -5.8-.8" fill="none" stroke="#ffffff" stroke-width="1.4"></path><path d="M252,208q.3,.3 0,.3q-.3,0 -.3-.3q0-.3 .3-.3q.3,0 .3,.3" fill="none" stroke="#f0f0f0" stroke-width="3"></path></svg>