<svg viewBox="-134.8 -148.9 401.3 295.1" width="401.3" height="295.1" version="1.1" baseProfile="full" xmlns="http://www.w3.org/2000/svg" class="js-draw--autoresize"><style id="js-draw-style-sheet">path{stroke-linecap:round;stroke-linejoin:round;}text{white-space:pre;}</style><g class="js-draw-image-background js-draw-image-background-grid js-draw-image-background-grid-25"><path d="M266.5,146.2l0-295.1l-401.3,0l0,295.1l401.3,0" fill="#03035e"></path><path d="M-135.15,-125l402,0m-402,25l402,0m-402,25l402,0m-402,25l402,0m-402,25l402,0m-402,25l402,0m-402,25l402,0m-402,25l402,0m-402,25l402,0m-402,25l402,0m-402,25l402,0m-391.85-274.25l0,295.8m25-295.8l0,295.8m25-295.8l0,295.8m25-295.8l0,295.8m25-295.8l0,295.8m25-295.8l0,295.8m25-295.8l0,295.8m25-295.8l0,295.8m25-295.8l0,295.8m25-295.8l0,295.8m25-295.8l0,295.8m25-295.8l0,295.8m25-295.8l0,295.8m25-295.8l0,295.8m25-295.8l0,295.8m25-295.8l0,295.8" fill="none" stroke="#fcfca133" stroke-width=".7"></path></g><path d="M-98,8Q-106.3,11.5 -115,23.1Q-130.1,43.1 -118.6,70.9Q-113,84.3 -93.9,75.2Q-80.2,68.6 -87.7,37.7Q-91,23.8 -107.2,17.1" fill="none" stroke="#f0f0f0" stroke-width="1.6"></path><path d="M-100,7q-12.6-70.3 -5.1-115.2q.3-1.7 10.9-11.4q3.4-3.2 39.3-6.4q73.6-4 133.8-6.2q33.5-1.2 42.5-3.5q49.4-12.4 105.5-10.4" fill="none" stroke="#f0f0f0" stroke-width="1.6"></path><path d="M234,-142q.9,38.5 2,70" fill="none" stroke="#f0f0f0" stroke-width="1.6"></path><path d="M214,-60q13.5-4.9 25-8" fill="none" stroke="#f0f0f0" stroke-width="1.6"></path><path d="M255,-70q.4,25.9 7.6,55.3q2.3,9.4 -5.5,9q-17.5,1 -31.7,2.6q-12.6,1.4 -9.2-50.7" fill="none" stroke="#f0f0f0" stroke-width="1.6"></path><path d="M253,5Q265.7,78.1 262.4,108.4Q261,121.1 248.9,123.8Q237,127.2 227.3,130.1Q213.2,134.5 94.8,137.8Q-13.2,140.9 -32,142.5Q-66.1,145.4 -88.5,134.7Q-92.5,134.7 -95.8,135.3Q-96.6,135.5 -103.8,97.8Q-106.6,83.2 -103,68.2" fill="none" stroke="#f0f0f0" stroke-width="1.6"></path><path d="M-134,-78q23.4-13.6 30.2-8.7q6.9,5.1 15.2,41.5q2.6,11.4 -24.4,10.4q-15.7-.6 -16.2-30.8q0-2.6 8.2-10.4" fill="none" stroke="#f0f0f0" stroke-width="1.6"></path></svg>