<svg viewBox="-207.3 -17.55 2446.05 1014.5" width="2446.05" height="1014.5" version="1.1" baseProfile="full" xmlns="http://www.w3.org/2000/svg" class="js-draw--autoresize"><style id="js-draw-style-sheet">path{stroke-linecap:round;stroke-linejoin:round;}text{white-space:pre;}</style><g class="js-draw-image-background js-draw-image-background-grid js-draw-image-background-grid-25"><path d="M2238.75,996.95l0-1014.5l-2446.05-4.618527782440651e-14l0,1014.5l2446.05,0" fill="#03035e"></path><path d="M-207.65,0l2446.75,0m-2446.75,25l2446.75,0m-2446.75,25l2446.75,0m-2446.75,25l2446.75,0m-2446.75,25l2446.75,0m-2446.75,25l2446.75,0m-2446.75,25l2446.75,0m-2446.75,25l2446.75,0m-2446.75,25l2446.75,0m-2446.75,25l2446.75,0m-2446.75,25l2446.75,0m-2446.75,25l2446.75,0m-2446.75,25l2446.75,0m-2446.75,25l2446.75,0m-2446.75,25l2446.75,0m-2446.75,25l2446.75,0m-2446.75,25l2446.75,0m-2446.75,25l2446.75,0m-2446.75,25l2446.75,0m-2446.75,25l2446.75,0m-2446.75,25l2446.75,0m-2446.75,25l2446.75,0m-2446.75,25l2446.75,0m-2446.75,25l2446.75,0m-2446.75,25l2446.75,0m-2446.75,25l2446.75,0m-2446.75,25l2446.75,0m-2446.75,25l2446.75,0m-2446.75,25l2446.75,0m-2446.75,25l2446.75,0m-2446.75,25l2446.75,0m-2446.75,25l2446.75,0m-2446.75,25l2446.75,0m-2446.75,25l2446.75,0m-2446.75,25l2446.75,0m-2446.75,25l2446.75,0m-2446.75,25l2446.75,0m-2446.75,25l2446.75,0m-2446.75,25l2446.75,0m-2446.75,25l2446.75,0m-2439.1-992.9l0,1015.2m25-1015.2l0,1015.2m25-1015.2l0,1015.2m25-1015.2l0,1015.2m25-1015.2l0,1015.2m25-1015.2l0,1015.2m25-1015.2l0,1015.2m25-1015.2l0,1015.2m25-1015.2l0,1015.2m25-1015.2l0,1015.2m25-1015.2l0,1015.2m25-1015.2l0,1015.2m25-1015.2l0,1015.2m25-1015.2l0,1015.2m25-1015.2l0,1015.2m25-1015.2l0,1015.2m25-1015.2l0,1015.2m25-1015.2l0,1015.2m25-1015.2l0,1015.2m25-1015.2l0,1015.2m25-1015.2l0,1015.2m25-1015.2l0,1015.2m25-1015.2l0,1015.2m25-1015.2l0,1015.2m25-1015.2l0,1015.2m25-1015.2l0,1015.2m25-1015.2l0,1015.2m25-1015.2l0,1015.2m25-1015.2l0,1015.2m25-1015.2l0,1015.2m25-1015.2l0,1015.2m25-1015.2l0,1015.2m25-1015.2l0,1015.2m25-1015.2l0,1015.2m25-1015.2l0,1015.2m25-1015.2l0,1015.2m25-1015.2l0,1015.2m25-1015.2l0,1015.2m25-1015.2l0,1015.2m25-1015.2l0,1015.2m25-1015.2l0,1015.2m25-1015.2l0,1015.2m25-1015.2l0,1015.2m25-1015.2l0,1015.2m25-1015.2l0,1015.2m25-1015.2l0,1015.2m25-1015.2l0,1015.2m25-1015.2l0,1015.2m25-1015.2l0,1015.2m25-1015.2l0,1015.2m25-1015.2l0,1015.2m25-1015.2l0,1015.2m25-1015.2l0,1015.2m25-1015.2l0,1015.2m25-1015.2l0,1015.2m25-1015.2l0,1015.2m25-1015.2l0,1015.2m25-1015.2l0,1015.2m25-1015.2l0,1015.2m25-1015.2l0,1015.2m25-1015.2l0,1015.2m25-1015.2l0,1015.2m25-1015.2l0,1015.2m25-1015.2l0,1015.2m25-1015.2l0,1015.2m25-1015.2l0,1015.2m25-1015.2l0,1015.2m25-1015.2l0,1015.2m25-1015.2l0,1015.2m25-1015.2l0,1015.2m25-1015.2l0,1015.2m25-1015.2l0,1015.2m25-1015.2l0,1015.2m25-1015.2l0,1015.2m25-1015.2l0,1015.2m25-1015.2l0,1015.2m25-1015.2l0,1015.2m25-1015.2l0,1015.2m25-1015.2l0,1015.2m25-1015.2l0,1015.2m25-1015.2l0,1015.2m25-1015.2l0,1015.2m25-1015.2l0,1015.2m25-1015.2l0,1015.2m25-1015.2l0,1015.2m25-1015.2l0,1015.2m25-1015.2l0,1015.2m25-1015.2l0,1015.2m25-1015.2l0,1015.2m25-1015.2l0,1015.2m25-1015.2l0,1015.2m25-1015.2l0,1015.2m25-1015.2l0,1015.2m25-1015.2l0,1015.2m25-1015.2l0,1015.2m25-1015.2l0,1015.2m25-1015.2l0,1015.2m25-1015.2l0,1015.2" fill="none" stroke="#fcfca133" stroke-width=".7"></path></g><path d="M-44.7,6.2Q-39.3,15.3 -34.9,22.8" fill="none" stroke="#f0f0f0" stroke-width="1.1"></path><path d="M-26.5,7.2Q-41.3,17.4 -53.3,25.9" fill="none" stroke="#f0f0f0" stroke-width="1.1"></path><path d="M-4.9,14.9Q8.2,13.2 11.8,15.8" fill="none" stroke="#f0f0f0" stroke-width="1.1"></path><path d="M27.2,11.5q9.9,7.1 18.1,12.9" fill="none" stroke="#f0f0f0" stroke-width="1.1"></path><path d="M49.2,9.6Q32.7,17.2 24.8,22.5" fill="none" stroke="#f0f0f0" stroke-width="1.1"></path><path d="M-22.6,-14.3q14.1-2.7 8.2,3.3q-2,1 -3.7,1.5q3.2,1.2 9,2q4.2,.6 -1.4,3.7q-8.7,3 -16,4.8" fill="none" stroke="#f0f0f0" stroke-width="1.1"></path><path d="M-132.3,3.9Q-133.6,-2.1 -138.7,7.3Q-142.2,13.8 -141.5,28.4" fill="none" stroke="#f0f0f0" stroke-width="1.1"></path><path d="M-144.3,16.8q.5,.3 1,.5" fill="none" stroke="#f0f0f0" stroke-width="1.1"></path><path d="M-120.3,3.4Q-128.4,8.8 -130.8,17.6Q-131.9,22 -128.8,23Q-128,22.5 -127.5,21.6" fill="none" stroke="#f0f0f0" stroke-width="1.1"></path><path d="M-119.4,11q4.4,4.3 8.2,7.7" fill="none" stroke="#f0f0f0" stroke-width="1.1"></path><path d="M-108.8,10.6q-5.3,3.6 -9.6,6.7" fill="none" stroke="#f0f0f0" stroke-width="1.1"></path><path d="M-104,3.9Q-102.8,17.9 -105.5,27.3" fill="none" stroke="#f0f0f0" stroke-width="1.1"></path><path d="M-85.8,6.7Q-81.1,7.2 -77.2,7.7" fill="none" stroke="#f0f0f0" stroke-width="1.1"></path><path d="M-83.4,13q4.9,.2 9,.4" fill="none" stroke="#f0f0f0" stroke-width="1.1"></path><path d="M-141.4,61.8q-11.4,10.4 -3.5,11.2q4.3,.5 4.2-6.1q2.1,5.2 4.6,15.2q1.3,4.9 -5.4,5q-3.2,.1 -5.2-7.1" fill="none" stroke="#f0f0f0" stroke-width="1.1"></path><path d="M-121.3,57q-5.5,6.5 -3.4,15.2q.8,3.4 3.5,5" fill="none" stroke="#f0f0f0" stroke-width="1.1"></path><path d="M-119.4,60.8q5.7,5.7 10.6,10.1" fill="none" stroke="#f0f0f0" stroke-width="1.1"></path><path d="M-104.5,63.7q-5.4,4.6 -9.6,8.6" fill="none" stroke="#f0f0f0" stroke-width="1.1"></path><path d="M-105.5,57.5q8.4,7.4 9.2,16.1q.5,5.7 -3.9,2.6" fill="none" stroke="#f0f0f0" stroke-width="1.1"></path><path d="M-82.5,60.4q10.2,.3 10.1,.4" fill="none" stroke="#f0f0f0" stroke-width="1.1"></path><path d="M-83,67.1q6.9-.6 7.2,.4" fill="none" stroke="#f0f0f0" stroke-width="1.1"></path><path d="M-54.2,62.7q14.5,3.9 12.9,5.3" fill="none" stroke="#f0f0f0" stroke-width="1.1"></path><path d="M-29.3,62.3q4.2,4.1 10,8.1" fill="none" stroke="#f0f0f0" stroke-width="1.1"></path><path d="M-15.9,60.8q-11.2,6.5 -20.6,11.5" fill="none" stroke="#f0f0f0" stroke-width="1.1"></path><path d="M-14.5,46.5q14.2-.2 10.5,5.1q-.7-.4 -1.4-1.1q.1,1.9 1,5.2q-4.5,2.1 -10.6,2.3" fill="none" stroke="#f0f0f0" stroke-width="1.1"></path><path d="M17.1,56q-6,12.9 -3.4,12.5" fill="none" stroke="#f0f0f0" stroke-width="1.1"></path><path d="M10.4,60.8q6.6,.5 12,1" fill="none" stroke="#f0f0f0" stroke-width="1.1"></path><path d="M29.5,59.4q14.2,5.5 16.3,8.1" fill="none" stroke="#f0f0f0" stroke-width="1.1"></path><path d="M49.2,57.5q-22.4,15.1 -23,15.3" fill="none" stroke="#f0f0f0" stroke-width="1.1"></path><path d="M-116.3,157.4q15,16.2 14.4,12.3" fill="none" stroke="#f0f0f0" stroke-width="1"></path><path d="M-101.5,162.4q-10,5.1 -18.2,9.4" fill="none" stroke="#f0f0f0" stroke-width="1"></path><path d="M-91.7,148q3.7-3.6 5.3,1.4q1,3.1 -4.5,6.2q-.4-.1 -.6-.4q2.4,.1 6.6,1.3q3.9,1 -3.6,3.4q-4.2,1.4 -3.7,.9" fill="none" stroke="#f0f0f0" stroke-width="1"></path><path d="M-65.4,161.2q.5-1 4.6-.2q5.4,1 9.8,1.9" fill="none" stroke="#f0f0f0" stroke-width="1"></path><path d="M-44.2,158.6q9.5,6.7 20.3,8.9" fill="none" stroke="#f0f0f0" stroke-width="1"></path><path d="M-23,156.5q-12.8,6.8 -22.9,16.1" fill="none" stroke="#f0f0f0" stroke-width="1"></path><path d="M1.1,154.4Q10.4,154.4 18.1,154.4" fill="none" stroke="#f0f0f0" stroke-width="1"></path><path d="M2,158.6Q6.9,158.9 10.9,159.1" fill="none" stroke="#f0f0f0" stroke-width="1"></path><path d="M42.7,161.6q6.8,.9 12.3,1.7" fill="none" stroke="#f0f0f0" stroke-width="1"></path><path d="M64.7,158.2q16.3,14.2 15.3,9.8" fill="none" stroke="#f0f0f0" stroke-width="1"></path><path d="M79.6,158.2q-21.7,12.2 -20.4,14.4" fill="none" stroke="#f0f0f0" stroke-width="1"></path><path d="M83.4,142.1q12-.1 8.5,3q-2.9,.7 -5.5,.7q1.7,2.2 5.4,4.9q4,2.9 -5.5,3.7q-2.3-.1 -4.2-.4" fill="none" stroke="#f0f0f0" stroke-width="1"></path><path d="M111.8,154q0,11 -.4,10.6" fill="none" stroke="#f0f0f0" stroke-width="1"></path><path d="M107.1,158.2q6.8,.2 12.3,.4" fill="none" stroke="#f0f0f0" stroke-width="1"></path><path d="M136.8,156.9q8.2,4.1 16.1,11.9" fill="none" stroke="#f0f0f0" stroke-width="1"></path><path d="M155,154.4q-13.9,9.1 -25.4,16.5" fill="none" stroke="#f0f0f0" stroke-width="1.1"></path><path d="M230.4,149.7q-4.3,23.2 -1.3,23.7" fill="none" stroke="#f0f0f0" stroke-width="1"></path><path d="M257.8,155.8q-4.7,15.4 0,12.7" fill="none" stroke="#f0f0f0" stroke-width="1"></path><path d="M253.3,161.5q2.5,.7 4.5,1.3" fill="none" stroke="#f0f0f0" stroke-width="1"></path><path d="M290.2,159.9q13.6,13.7 12.3,15.1" fill="none" stroke="#f0f0f0" stroke-width="1"></path><path d="M304.5,163.2q-8.6,5.4 -15.6,9.8" fill="none" stroke="#f0f0f0" stroke-width="1"></path><path d="M312.3,148q10.2-2.2 7.3,2.7q-.9,1.6 -4.8,.6q1.1,.8 3.4,2.1q2.7,1.5 -.6,4.7q-5.1-.2 -9.8-1.9" fill="none" stroke="#f0f0f0" stroke-width="1"></path><path d="M352,162.3q12.2-.7 12.3-.4" fill="none" stroke="#f0f0f0" stroke-width="1"></path><path d="M385.2,158.7q6.9,5.2 9,11" fill="none" stroke="#f0f0f0" stroke-width="1"></path><path d="M397.9,160.7q-16.9,7.8 -16.4,10.2" fill="none" stroke="#f0f0f0" stroke-width="1"></path><path d="M-166,234.3q3.3-4.4 7.7-1.1q2.1,1.6 -3.7,11.9q-1.8,3.2 7.8,1" fill="none" stroke="#f0f0f0" stroke-width="1"></path><path d="M-147.7,230.7q7.1,7.5 13,13.4" fill="none" stroke="#f0f0f0" stroke-width="1"></path><path d="M-133.5,233.9q-17.3,10.9 -18.2,10.6" fill="none" stroke="#f0f0f0" stroke-width="1"></path><path d="M-130.6,211.6q6.7-1.3 7.9,3q1.2,4 -7.5,3.7q2.6,1 7.5,2.2q1.9,.5 -.6,2.1q-5.6,3.3 -9.3,1.2" fill="none" stroke="#f0f0f0" stroke-width="1"></path><path d="M-111.5,234.3q13.4,2.6 12.6,1.7" fill="none" stroke="#f0f0f0" stroke-width="1"></path><path d="M-85.9,231.1q8.6-.2 9.7,3.9q-1.5,6.1 -3.8,11.1q2.9,.3 7.1-.8" fill="none" stroke="#f0f0f0" stroke-width="1"></path><path d="M-63.6,236q5.4,4.4 9.7,8.1" fill="none" stroke="#f0f0f0" stroke-width="1"></path><path d="M-45.7,233.5q-11,6.4 -19.9,11.8" fill="none" stroke="#f0f0f0" stroke-width="1"></path><path d="M1.4,231.5Q18.1,232.7 18.4,232.7" fill="none" stroke="#f0f0f0" stroke-width="1"></path><path d="M2.2,238Q13.1,237.1 22.1,236.8" fill="none" stroke="#f0f0f0" stroke-width="1"></path><path d="M73.3,229.9q-9.1,5.1 -9.1,13.6q-.1,8.2 10.8,4.6q6.4-2.1 4-12q-1.3-4.9 -8.2-4.6" fill="none" stroke="#f0f0f0" stroke-width="1"></path><path d="M-194.6,309.9q5.3,1.6 2.6,11.5q-1.6,5.9 6.6,4.1" fill="none" stroke="#f0f0f0" stroke-width=".8"></path><path d="M-180.4,313.1q10.7,11.2 10.6,11.3" fill="none" stroke="#f0f0f0" stroke-width=".8"></path><path d="M-166.3,313.1q-9.2,7.8 -16.6,14.5" fill="none" stroke="#f0f0f0" stroke-width=".8"></path><path d="M-147.5,304.6q-6,7.9 -6.3,14.4q-.1,4.2 6,5.1" fill="none" stroke="#f0f0f0" stroke-width=".8"></path><path d="M-109.2,312.7q14.9-2.7 15.2-1.8" fill="none" stroke="#f0f0f0" stroke-width=".8"></path><path d="M-78.4,309.9q9.2-3.5 11.8-1.7q.7,.5 -1.5,11.6" fill="none" stroke="#f0f0f0" stroke-width=".8"></path><path d="M-136.5,307.8q11.8,12.2 11,12.7" fill="none" stroke="#f0f0f0" stroke-width=".8"></path><path d="M-125.5,310.9q-7.7,4.6 -12.4,9.6" fill="none" stroke="#f0f0f0" stroke-width=".8"></path><path d="M-121.3,293.9q11.7-3.9 8.7,1.9q-2.1,3.3 -4,6q-1.7,2.3 4.9,1.7" fill="none" stroke="#f0f0f0" stroke-width=".8"></path><path d="M-55.7,303.2q3.3,.9 5.9,6.7q3,6.8 -.9,15.9" fill="none" stroke="#f0f0f0" stroke-width=".8"></path><path d="M.6,307Q18.7,309.5 18.7,309.2" fill="none" stroke="#f0f0f0" stroke-width=".8"></path><path d="M3.8,311.7Q18.9,311.6 19.4,312" fill="none" stroke="#f0f0f0" stroke-width=".8"></path><path d="M71.9,312.7q.5-6 8-8.2q7.1-2.2 8.1,9.1q.6,6.8 -8.2,6.1q-3.3-.3 -3-9.5" fill="none" stroke="#f0f0f0" stroke-width=".8"></path><path d="M-192.5,385.6q5.3,1.8 13.9,9.4" fill="none" stroke="#f0f0f0" stroke-width=".8"></path><path d="M-176.8,386.6q-8.4,5.9 -15.3,10.8" fill="none" stroke="#f0f0f0" stroke-width=".8"></path><path d="M-173.7,397.4q3.8-.7 4.8,2.6q.3,1 -.6,9.9" fill="none" stroke="#f0f0f0" stroke-width=".8"></path><path d="M-131.6,386.6q6.1,0 11.1,0" fill="none" stroke="#f0f0f0" stroke-width=".8"></path><path d="M-129.5,389.1q12.4,1.2 12.8,2" fill="none" stroke="#f0f0f0" stroke-width=".8"></path><path d="M-87.8,388.4q4.2-6.3 10.4-5.7q4.2,.4 5,7.8q.3,3.7 -6.3,5.9q-4,1.3 -4.9-8" fill="none" stroke="#f0f0f0" stroke-width=".8"></path><path d="M-192.1,453.7q10.8,13.7 11.1,11.2" fill="none" stroke="#f0f0f0" stroke-width=".8"></path><path d="M-179.6,455.8q-12.2,10.1 -11.5,11.1" fill="none" stroke="#f0f0f0" stroke-width=".8"></path><path d="M-181,471.1q7.3-5.5 9,.6q-.9,3.3 -2.4,6" fill="none" stroke="#f0f0f0" stroke-width=".8"></path><path d="M-179.6,471.1q6.1-3.1 8.3,.6q-.6,3.9 -2.1,7.3q-.8,1.8 3.9,1.5" fill="none" stroke="#f0f0f0" stroke-width=".8"></path><path d="M-137.2,464.2q.7-1.2 9.7-.7" fill="none" stroke="#f0f0f0" stroke-width=".8"></path><path d="M-136.8,465.9q15-1.8 15.6-1.4" fill="none" stroke="#f0f0f0" stroke-width=".8"></path><path d="M-86.1,460.3q5.7-4.6 8.7-1.6q1.1,1.1 .4,8.9" fill="none" stroke="#f0f0f0" stroke-width=".8"></path><path d="M-191.1,529.1q4.3,5.6 11.5,10.8" fill="none" stroke="#f0f0f0" stroke-width=".8"></path><path d="M-181.7,531.9q-7.7,5.1 -13.9,9.4" fill="none" stroke="#f0f0f0" stroke-width=".8"></path><path d="M-178.6,542.7q5.7-1.2 8.8,4q2.2,3.7 -5.3,5.2q-.5-.3 -.8-.6q-3.1-2.9 5.7,2q6.3,3.5 .9,7q-2,1.3 -7.2-2.3" fill="none" stroke="#f0f0f0" stroke-width=".8"></path><path d="M-131.7,534.7q13.2-7.3 9.1-.4" fill="none" stroke="#f0f0f0" stroke-width=".8"></path><path d="M-131.7,540.3q5.1,.1 6.6,.3" fill="none" stroke="#f0f0f0" stroke-width=".8"></path><path d="M-93.4,537.8q3.4-.4 6.2-.3" fill="none" stroke="#f0f0f0" stroke-width=".8"></path><path d="M-75,536.8q5.3-5.1 9.5-2.8q4.8,2.7 -.8,12.9" fill="none" stroke="#f0f0f0" stroke-width=".8"></path><path d="M-206.7,670.5q14.9-27.3 15.8-16.9q0,7.4 -.3,13.4" fill="none" stroke="#f0f0f0" stroke-width="1.2"></path><path d="M-203.2,663q6.3,.9 11.5,2" fill="none" stroke="#f0f0f0" stroke-width="1.2"></path><path d="M-184.2,672.5q6.6-3.3 7.7,.9q.1,5.2 -.2,9.6" fill="none" stroke="#f0f0f0" stroke-width="1.2"></path><path d="M-147.7,657.5q7.1,.5 12.9,1" fill="none" stroke="#f0f0f0" stroke-width="1.2"></path><path d="M-148.2,664.5q6.9,.7 12.5,1.5" fill="none" stroke="#f0f0f0" stroke-width="1.2"></path><path d="M-81.8,631.5q-1,45.8 -1.6,83.3q-.1,3.4 -.7,3q-1.1-.8 .8-6.4" fill="none" stroke="#f0f0f0" stroke-width="1.2"></path><path d="M-26.8,639.5q-.1-11.1 -5.7-5.5q-12.2,12.1 1.8,68.2q3.4,13.6 .2,14.5q-10.7,3.1 -22.8-1.8" fill="none" stroke="#f0f0f0" stroke-width="1.2"></path><path d="M19,667.2Q13.4,667.5 11.3,676.1Q8.3,688.6 10.7,697.9" fill="none" stroke="#f0f0f0" stroke-width="1.2"></path><path d="M9,682.2Q10.9,681.9 12.5,681.7" fill="none" stroke="#f0f0f0" stroke-width="1.2"></path><path d="M32.5,670.7q-6.8,4.6 -8.9,15q-1.3,6.8 2,10.9" fill="none" stroke="#f0f0f0" stroke-width="1.2"></path><path d="M35,680.2q5.2,6.6 9.5,12" fill="none" stroke="#f0f0f0" stroke-width="1.2"></path><path d="M50.5,681.7q-7.5,6.5 -13.5,12" fill="none" stroke="#f0f0f0" stroke-width="1.2"></path><path d="M55.5,670.2q8.3,19 1.5,28" fill="none" stroke="#f0f0f0" stroke-width="1.2"></path><path d="M79.8,680.9q7.4,1 13.5,2" fill="none" stroke="#f0f0f0" stroke-width="1.2"></path><path d="M126.8,677.4q-10.5,17 -.4,12.2q4.2-4.4 7.1-8.7q1.9-2.8 3.2,15.9q.9,14.5 -13.1,9.5q-1-2.1 -1.3-4.4" fill="none" stroke="#f0f0f0" stroke-width="1.2"></path><path d="M155.2,665.9q-5.2,8 -4.8,20.4q.3,7 4.8,11.6" fill="none" stroke="#f0f0f0" stroke-width="1.2"></path><path d="M162.2,678.4q6.4,12.6 6.5,12.5" fill="none" stroke="#f0f0f0" stroke-width="1.2"></path><path d="M174.7,680.9q-17.8,13.6 -15,12.5" fill="none" stroke="#f0f0f0" stroke-width="1.2"></path><path d="M180.2,663.4q8.9,16 6.7,26.7q-1.1,5.4 -6.7,5.8" fill="none" stroke="#f0f0f0" stroke-width="1.2"></path><path d="M228.7,680.9q.9-6 -5.1-.3q-6.7,6.4 -1,13.8q4.6,6.1 9.5-8.7q3-9.3 .9-26.4q.3,6.7 1.2,19.2q2.4,9.4 4.9,16.9" fill="none" stroke="#f0f0f0" stroke-width="1.2"></path><path d="M243.2,678.4q2.9,7.9 8.5,13" fill="none" stroke="#f0f0f0" stroke-width="1.2"></path><path d="M257.7,678.9q-18.8,18.9 -19.5,18.5" fill="none" stroke="#f0f0f0" stroke-width="1.2"></path><path d="M276.1,622.4q.2,14.8 5.4,47q4,40.4 6.4,73.7q.1,2.8 .2,5.2" fill="none" stroke="#f0f0f0" stroke-width="1.2"></path><path d="M315.2,673.2q15.3-.7 15,0" fill="none" stroke="#f0f0f0" stroke-width="1.2"></path><path d="M315.2,682.7q16.4-.8 16,0" fill="none" stroke="#f0f0f0" stroke-width="1.2"></path><path d="M411.6,629.3q.5-6.7 -3.9-6.2q-14.4,1.7 -8,71.6q2.4,17.3 4.7,31.5q.6,4.2 -7.8,7.4q-6.9-1.5 -12.5-4.4" fill="none" stroke="#f0f0f0" stroke-width="1.2"></path><path d="M-41.5,736.7q-3.2-.5 -3-.5q3.1,.8 5.5,2" fill="none" stroke="#f0f0f0" stroke-width="1.2"></path><path d="M-32.5,737.2q5.8-5.2 7.1-1.8q.1,3.7 -.2,6.8" fill="none" stroke="#f0f0f0" stroke-width="1.2"></path><path d="M-24.6,614.8q-1,8.2 3.4,6.7q5.7-1.9 2.1-6.8q-.6-.7 -4.5,.6" fill="none" stroke="#f0f0f0" stroke-width="1.2"></path><path d="M387.6,747.2q4.7-.3 8.5-.5" fill="none" stroke="#f0f0f0" stroke-width="1.2"></path><path d="M401.6,746.7q7.7-3.6 9.1,1q.4,1.4 .4,7" fill="none" stroke="#f0f0f0" stroke-width="1.2"></path><path d="M414.6,599.8q-5.1,14.2 3.2,8.4q6.3-4.4 -3.7-9.9" fill="none" stroke="#f0f0f0" stroke-width="1.2"></path><path d="M454.6,660.3q-6.2,18 -5.6,31.9q1.4,5.3 3.1,9.5" fill="none" stroke="#f0f0f0" stroke-width="1.2"></path><path d="M468.3,679.4q6,6.5 11.1,11.7" fill="none" stroke="#f0f0f0" stroke-width="1.3"></path><path d="M481,683.8q-16,4.9 -15,6.1" fill="none" stroke="#f0f0f0" stroke-width="1.3"></path><path d="M484.9,664.4q8.2-3.6 9,1.9q.4,3.7 -6.7,3.1q-.1-.3 -.1-.7q0-.9 6.5,2.2q6,2.9 -2.4,4.6q-4.1,.1 -7.4,0" fill="none" stroke="#f0f0f0" stroke-width="1.3"></path><path d="M504.9,681.6q12.3,2 12.2,2.2" fill="none" stroke="#f0f0f0" stroke-width="1.3"></path><path d="M522.1,680q9.1,5.9 16.6,10.5" fill="none" stroke="#f0f0f0" stroke-width="1.3"></path><path d="M541.5,682.7q-28.3,6 -17.8,7.8" fill="none" stroke="#f0f0f0" stroke-width="1.3"></path><path d="M547,666.7q7.5,7.9 4.6,17.3q-2.8,4.3 -5.7,7.6" fill="none" stroke="#f0f0f0" stroke-width="1.3"></path><path d="M560.3,684.4q9.5,.3 17.2,.6" fill="none" stroke="#f0f0f0" stroke-width="1.3"></path><path d="M599.7,666.1q-8,20.1 -3.8,31.8q.2,.6 2.5,1.6q.3-.7 .2-1.8" fill="none" stroke="#f0f0f0" stroke-width="1.3"></path><path d="M605.8,687.2q6.1,.8 11.1,2.2" fill="none" stroke="#f0f0f0" stroke-width="1.3"></path><path d="M624.6,680.5q10.3,10.2 12.2,10" fill="none" stroke="#f0f0f0" stroke-width="1.3"></path><path d="M639.1,680q-14.8,12.5 -15,12.7" fill="none" stroke="#f0f0f0" stroke-width="1.3"></path><path d="M641.3,667.8q10.9-7.1 9.6,1.3q-2.9,2.3 -6.2,3.5q1.6,1.2 4.6,2.2q-3.1,.3 -8.6,.2" fill="none" stroke="#f0f0f0" stroke-width="1.3"></path><path d="M663.8,675.9q.2,14.7 .5,13.9" fill="none" stroke="#f0f0f0" stroke-width="1.3"></path><path d="M661.5,681.4q3.7,2.5 6.7,4.5" fill="none" stroke="#f0f0f0" stroke-width="1.3"></path><path d="M677.6,678.7q14.4,14 13.9,11.1" fill="none" stroke="#f0f0f0" stroke-width="1.3"></path><path d="M692.6,678.7q-8,6.3 -14.4,11.6" fill="none" stroke="#f0f0f0" stroke-width="1.3"></path><path d="M704.2,672q8.3,15.3 1.3,24.1q-.9,.3 -1.8,.3" fill="none" stroke="#f0f0f0" stroke-width="1.3"></path><path d="M757.5,674.8q-8.9,3.4 -10.2,13.8q-.8,6.3 8,5.2q8.5-1.1 10.3-26.7q.5-6.1 -2.5-6.7q-.7,14.5 6,33.8" fill="none" stroke="#f0f0f0" stroke-width="1.3"></path><path d="M781.9,677.6q17.9,21.5 16.1,18.3" fill="none" stroke="#f0f0f0" stroke-width="1.3"></path><path d="M799.6,679.2q-17.7,15.1 -27.1,16.1" fill="none" stroke="#f0f0f0" stroke-width="1.3"></path><path d="M357.6,631.5q-6.5,100.1 -6.8,122" fill="none" stroke="#f0f0f0" stroke-width="1.3"></path><path d="M825.7,628.2q-.4,10.2 -6.3,56.9q-6.6,52 -4.7,69.2q-.3-.3 -.6-.8" fill="none" stroke="#f0f0f0" stroke-width="1.3"></path><path d="M865.8,673.5q6,.1 11.1,1.1" fill="none" stroke="#f0f0f0" stroke-width="1.3"></path><path d="M865.2,682.9q13.1-5 19.4-1.7" fill="none" stroke="#f0f0f0" stroke-width="1.3"></path><path d="M943.4,637.3q.8-12 -7.2-12.3q-8.1-.3 -19.4,18.5q-10.1,16.9 13.6,67.5q6.4,13.6 5.6,19.8q-1.4,11.7 -31.4-1.5" fill="none" stroke="#f0f0f0" stroke-width="1.3"></path><path d="M907.9,755.9q4.2,0 7.7,0" fill="none" stroke="#f0f0f0" stroke-width="1.3"></path><path d="M926.2,758.2q10.2-4.6 12.5,.2q3.4,7 -.3,13.6" fill="none" stroke="#f0f0f0" stroke-width="1.3"></path><path d="M938.9,597.9q-8,6.8 -3.4,9.7q5,3.2 8-4.4q.9-2.2 -7.3-4.2" fill="none" stroke="#f0f0f0" stroke-width="1.3"></path><path d="M979.4,679.4q11-5.4 8,2.2q-4.7,12 -1.3,14.7q1.2,1 7.2-1.4" fill="none" stroke="#f0f0f0" stroke-width="1.3"></path><path d="M997.7,683.8q7,6.5 12.8,11.7" fill="none" stroke="#f0f0f0" stroke-width="1.3"></path><path d="M1011,685q-19.3,12.6 -14.4,10.5" fill="none" stroke="#f0f0f0" stroke-width="1.3"></path><path d="M1018.2,660.6q7.6-4.6 11.3-.1q4.1,5 -4.4,3.9q1.8,1.9 5.5,4.3q3.7,2.4 -2.5,5.5q-7.1,.7 -13.2,.2" fill="none" stroke="#f0f0f0" stroke-width="1.3"></path><path d="M1043.2,685q14.6-2.5 15.5-1.2" fill="none" stroke="#f0f0f0" stroke-width="1.3"></path><path d="M1071.5,679.4q7.6-.5 7.2,3.7q-2.3,6.2 -4.7,11.2q-1.4,2.7 12.5,1.2" fill="none" stroke="#f0f0f0" stroke-width="1.3"></path><path d="M1093.1,683.8q7.5,6.3 13.3,11.7" fill="none" stroke="#f0f0f0" stroke-width="1.3"></path><path d="M1109.2,682.7q-10.3,7.8 -18.9,13.9" fill="none" stroke="#f0f0f0" stroke-width="1.3"></path><path d="M895,623.9q0,21.3 -5.2,75.1q-5.7,57.5 .2,65.6" fill="none" stroke="#f0f0f0" stroke-width="1.3"></path><path d="M1172.8,679.4q-14.8,6 -3.6,14q5.4,3.9 8.9-22q1.1-8.2 -2.2-8.9q-1.2-.2 9.2,23.5q1.2,3.9 2.1,7.2" fill="none" stroke="#f0f0f0" stroke-width="1.3"></path><path d="M1188.3,681.6q6.7,7.6 12.2,13.8" fill="none" stroke="#f0f0f0" stroke-width="1.3"></path><path d="M1201.6,680.5q-12.3,9 -22.1,16.6" fill="none" stroke="#f0f0f0" stroke-width="1.3"></path><path d="M1233.8,620q1.4-2 1.5,2.3q-.7,39.6 -1.9,72.1q-.9,43.3 -1.5,78.7q0,.3 .2,.5" fill="none" stroke="#f0f0f0" stroke-width="1.3"></path><path d="M1294.3,669.9q8.2-.4 14.9-.5" fill="none" stroke="#f0f0f0" stroke-width="1.3"></path><path d="M1293.7,678.8q21.6-2.7 22.7-1.7" fill="none" stroke="#f0f0f0" stroke-width="1.3"></path><path d="M1386.9,624.4q-10.9,1.8 -19.9,3.3q-2.3,9.1 -.7,19.6q.5,38.8 -1.2,70.6q-.6,14.6 -1,26.6q-.9,22.4 2,22.3q2.5-.1 12.5,.1" fill="none" stroke="#f0f0f0" stroke-width="1.3"></path><path d="M1466.8,676q14.4,21.5 13.9,21.6" fill="none" stroke="#f0f0f0" stroke-width="1.3"></path><path d="M1484,682.1q-13.5,5.9 -24.4,11.1" fill="none" stroke="#f0f0f0" stroke-width="1.3"></path><path d="M1500.6,654.4q-13.2,4.9 -10.9,8.8q2.1,.4 4.3,0" fill="none" stroke="#f0f0f0" stroke-width="1.3"></path><path d="M1500.6,654.9q-4.7,16.3 -2.8,16.1" fill="none" stroke="#f0f0f0" stroke-width="1.3"></path><path d="M1434.1,683.2q9.1-12.2 8.8-3.3q-.6,5.5 -1.1,10" fill="none" stroke="#f0f0f0" stroke-width="1.3"></path><path d="M1426.9,696.5q8.2-.4 14.9-.5" fill="none" stroke="#f0f0f0" stroke-width="1.3"></path><path d="M1428,704.3q14.7-1.4 13,5.7q-4.4,6.3 -9.1,10.9q4.6,1.3 12.1,1.1" fill="none" stroke="#f0f0f0" stroke-width="1.3"></path><path d="M1517.3,684.9q12.2-.3 22.1-.6" fill="none" stroke="#f0f0f0" stroke-width="1.3"></path><path d="M1590.5,681.5q21,10.7 19.4,13.3" fill="none" stroke="#f0f0f0" stroke-width="1.3"></path><path d="M1609.9,683.2q-18.1,7.8 -22.2,12.8" fill="none" stroke="#f0f0f0" stroke-width="1.3"></path><path d="M1617.6,666q8-2.7 6.2,1.5q-2.3,3.8 -4.4,6.7q-2.7,3.6 7.1,4.6" fill="none" stroke="#f0f0f0" stroke-width="1.3"></path><path d="M1643.7,625.5q.9-2.6 9-1.1q2.9,.6 .9,17.8q-3.9,43.5 -6.6,79.1q-2.3,12.1 -4.6,21.9q-1.2,10.1 -1.7,18.5q-.3,5.6 -8,6.8q-2.6,.5 -13.4,1.8" fill="none" stroke="#f0f0f0" stroke-width="1.3"></path><path d="M1631.5,786.9q3.4,.6 6.1,1.1" fill="none" stroke="#f0f0f0" stroke-width="1.3"></path><path d="M1646.5,786.9q6.9-5.6 8.3-2.4q.2,6.4 -.6,11.8" fill="none" stroke="#f0f0f0" stroke-width="1.3"></path><path d="M1659.2,606.1q-2.9,6.5 3.6,8.2q6.9,1.9 6-6.2q-.3-2.9 -6.2-2" fill="none" stroke="#f0f0f0" stroke-width="1.3"></path><path d="M1693.6,681q11.2-2.6 13.3-1.7" fill="none" stroke="#f0f0f0" stroke-width="1.3"></path><path d="M1696.9,687.1q9.4-.7 17.2-1.1" fill="none" stroke="#f0f0f0" stroke-width="1.3"></path><path d="M1337.6,639.9q-.2,16.1 -1.5,32.4q-1.5,18.3 4.1,99.8q.4,10.3 .7,18.7" fill="none" stroke="#f0f0f0" stroke-width="1.3"></path><path d="M1687.5,628.3q-11.5,41.8 -10.9,96.6q1.4,24.6 3,44.6q-.9,6.3 -2.3,11.5q1.3,1 3,1.5" fill="none" stroke="#f0f0f0" stroke-width="1.3"></path><path d="M1762.4,681.5q10.5-12.4 10.3-6.5q-1,7.3 -2,13.2" fill="none" stroke="#f0f0f0" stroke-width="1.3"></path><path d="M1754.1,695.4q13.7,1.3 24.9,2.8" fill="none" stroke="#f0f0f0" stroke-width="1.3"></path><path d="M1758,705.4q12.1-2.3 12.2,1.8q-3.4,6.5 -7.6,11.4q-3.9,4.4 9.2,2.9" fill="none" stroke="#f0f0f0" stroke-width="1.3"></path><path d="M1805.6,681q-15.8,9.5 -7.6,15.2q5,3.5 13.4-5.6q4.6-5.1 -3.8-10.1q-2-1.1 -3.1,2.7" fill="none" stroke="#f0f0f0" stroke-width="1.3"></path><path d="M1825.6,648.8q-12,6.7 -9.5,10.5q.7,1.1 6.7,.6" fill="none" stroke="#f0f0f0" stroke-width="1.3"></path><path d="M1827.8,653.2q-3,14.6 -2.2,16.1" fill="none" stroke="#f0f0f0" stroke-width="1.3"></path><path d="M1831.2,683.7q5.4,.3 9.9,.6" fill="none" stroke="#f0f0f0" stroke-width="1.3"></path><path d="M1875,681q-2.4-4.2 -6.5,0q-4.6,4.7 2.6,10.8q4.3,3.6 12.8-4q3.4-3 -.6-9.3q-.6-.9 -5-1.4" fill="none" stroke="#f0f0f0" stroke-width="1.3"></path><path d="M1887.2,655.5q9.9-1.4 7.6,2q-4.3,6.4 -2.6,8.6q3.4,1.8 6.6,2.7" fill="none" stroke="#f0f0f0" stroke-width="1.3"></path><path d="M1929.9,682.1q13.1,1.8 23.8,3.3" fill="none" stroke="#f0f0f0" stroke-width="1.3"></path><path d="M1748.5,654.9q-11.9,12.8 -14.5,34.1q-2.5,19.9 5.4,49.9" fill="none" stroke="#f0f0f0" stroke-width="1.3"></path><path d="M1911,656.6q10.1,46.3 5.9,65.1q-3.3,14.9 -11.2,12.6q.5,.2 1.4,.5" fill="none" stroke="#f0f0f0" stroke-width="1.3"></path><path d="M1993.7,673.8q3.7-2.3 4.4,.4q3.9,14 .6,11.8" fill="none" stroke="#f0f0f0" stroke-width="1.3"></path><path d="M1984.8,698.2q15.5-1 17.7,.5" fill="none" stroke="#f0f0f0" stroke-width="1.3"></path><path d="M1993.7,704.8q9.7-1 3.6,13.6q-2.9,6.7 1.6,7.8q7.8-.1 14.2-.9" fill="none" stroke="#f0f0f0" stroke-width="1.3"></path><path d="M2018.6,686.5q3.4,.9 6.1,1.7" fill="none" stroke="#f0f0f0" stroke-width="1.3"></path><path d="M2041.4,684.3q13.2-4.3 14.3,2q-3.2,7.9 -7.7,14.1" fill="none" stroke="#f0f0f0" stroke-width="1.3"></path><path d="M2019.2,671q-5.1,9.8 -3.7,20.9q2.3,4.2 4.8,7.4" fill="none" stroke="#f0f0f0" stroke-width="1.3"></path><path d="M2060.8,672.1q4.8,.7 7.6,9.4q-.9,9.1 -3.2,16.7" fill="none" stroke="#f0f0f0" stroke-width="1.3"></path><path d="M2074.6,651.6q-9,3.8 -6.5,7.2q.6,.9 4.9,1.7" fill="none" stroke="#f0f0f0" stroke-width="1.3"></path><path d="M2076.3,651.6q-.7,8.5 -1.1,15.5" fill="none" stroke="#f0f0f0" stroke-width="1.3"></path><path d="M2087.9,684.3q18.2-2.4 17.8-.6" fill="none" stroke="#f0f0f0" stroke-width="1.3"></path><path d="M2134.1,678.3q-4.6,11.5 -2.2,17.2" fill="none" stroke="#f0f0f0" stroke-width="1.3"></path><path d="M2138,688.2q3.6-1.6 6.7-2.7" fill="none" stroke="#f0f0f0" stroke-width="1.3"></path><path d="M2158,681.6q3.7-4.1 4.2-1.3q1.7,9.7 -.3,11.8" fill="none" stroke="#f0f0f0" stroke-width="1.3"></path><path d="M2170.2,677.2q7,2.4 7.5,11.1q-1.3,4 -3.1,7.2" fill="none" stroke="#f0f0f0" stroke-width="1.3"></path><path d="M2189,646.7q3.1,.9 .4,5.2q-4.4,7.2 6.3,8.1" fill="none" stroke="#f0f0f0" stroke-width="1.3"></path><path d="M1983.3,661.1q-7.3,25.2 -7.9,53.5q1.7,14.5 4,26.3" fill="none" stroke="#f0f0f0" stroke-width="1.3"></path><path d="M2207.9,645.5q10.2,16.5 11.8,36.3q1.2,15.1 -18.5,38.6" fill="none" stroke="#f0f0f0" stroke-width="1.3"></path><path d="M1722.6,643.9q-4.1,73.3 6.1,123.7" fill="none" stroke="#f0f0f0" stroke-width="1.3"></path><path d="M2236.2,647.8q1.9,33.8 -8.4,93.5q-2.3,12.7 -4.3,23.1" fill="none" stroke="#f0f0f0" stroke-width="1.3"></path><path d="M1821.3,819.1q-8.4,10.7 -5.6,20q2.9,9.7 14.3-.1q6.8-5.9 -1.2-18.2q-.7-1.2 -6.9-1.7" fill="none" stroke="#f0f0f0" stroke-width="1.3"></path><path d="M1923.4,830.8q12.2-.1 22.2,0" fill="none" stroke="#f0f0f0" stroke-width="1.3"></path><path d="M2046,823q15.1-14.7 15.2-9q-1.6,8.3 -3.6,15.1" fill="none" stroke="#f0f0f0" stroke-width="1.3"></path><path d="M2047.1,838.5q10.6-.6 19.4-.5" fill="none" stroke="#f0f0f0" stroke-width="1.3"></path><path d="M2049.8,846.3q7.4-.3 10,3.3q-2.7,8.5 -8.3,15.7q-2.3,2.9 16.6,3.2" fill="none" stroke="#f0f0f0" stroke-width="1.3"></path><path d="M1771.4,809.7q-6.3,60.7 -3.3,73.2" fill="none" stroke="#f0f0f0" stroke-width="1.3"></path><path d="M2112,816.4q1.5-3 2-.7q.3,28 -1.6,51.2q-.1,1.2 .7,6" fill="none" stroke="#f0f0f0" stroke-width="1.3"></path><path d="M1839.6,950q7.9-.9 14.5-1.1" fill="none" stroke="#f0f0f0" stroke-width="1.3"></path><path d="M1845.7,957.2q4,.3 7.3,.6" fill="none" stroke="#f0f0f0" stroke-width="1.3"></path><path d="M1925.1,956.1q10.8-12.4 14.2-9q1.1,9 -.4,17.3" fill="none" stroke="#f0f0f0" stroke-width="1.3"></path><path d="M1925.1,969.4q9.7,.7 17.7,1.7" fill="none" stroke="#f0f0f0" stroke-width="1.3"></path><path d="M1925.6,978.3q7.6,2.1 5.8,8.3q-2.3,4.8 -4.6,8.5q6.1,1.2 15.4-.2" fill="none" stroke="#f0f0f0" stroke-width="1.3"></path></svg>