<svg viewBox="-116.6 .6 1357.6 481.4" width="1357.6" height="481.4" version="1.1" baseProfile="full" xmlns="http://www.w3.org/2000/svg" class="js-draw--autoresize"><style id="js-draw-style-sheet">path{stroke-linecap:round;stroke-linejoin:round;}text{white-space:pre;}</style><g class="js-draw-image-background js-draw-image-background-grid js-draw-image-background-grid-25"><path d="M1241,482L1241,.6L-116.6,.6L-116.6,482L1241,482" fill="#03035e"></path><path d="M-116.95,25L1241.35,25M-116.95,50L1241.35,50M-116.95,75L1241.35,75M-116.95,100L1241.35,100M-116.95,125L1241.35,125M-116.95,150L1241.35,150M-116.95,175L1241.35,175M-116.95,200L1241.35,200M-116.95,225L1241.35,225M-116.95,250L1241.35,250M-116.95,275L1241.35,275M-116.95,300L1241.35,300M-116.95,325L1241.35,325M-116.95,350L1241.35,350M-116.95,375L1241.35,375M-116.95,400L1241.35,400M-116.95,425L1241.35,425M-116.95,450L1241.35,450M-116.95,475L1241.35,475M-100,.25L-100,482.35M-75,.25L-75,482.35M-50,.25L-50,482.35M-25,.25L-25,482.35M0,.25L0,482.35M25,.25L25,482.35M50,.25L50,482.35M75,.25L75,482.35M100,.25L100,482.35M125,.25L125,482.35M150,.25L150,482.35M175,.25L175,482.35M200,.25L200,482.35M225,.25L225,482.35M250,.25L250,482.35M275,.25L275,482.35M300,.25L300,482.35M325,.25L325,482.35M350,.25L350,482.35M375,.25L375,482.35M400,.25L400,482.35M425,.25L425,482.35M450,.25L450,482.35M475,.25L475,482.35M500,.25L500,482.35M525,.25L525,482.35M550,.25L550,482.35M575,.25L575,482.35M600,.25L600,482.35M625,.25L625,482.35M650,.25L650,482.35M675,.25L675,482.35M700,.25L700,482.35M725,.25L725,482.35M750,.25L750,482.35M775,.25L775,482.35M800,.25L800,482.35M825,.25L825,482.35M850,.25L850,482.35M875,.25L875,482.35M900,.25L900,482.35M925,.25L925,482.35M950,.25L950,482.35M975,.25L975,482.35M1000,.25L1000,482.35M1025,.25L1025,482.35M1050,.25L1050,482.35M1075,.25L1075,482.35M1100,.25L1100,482.35M1125,.25L1125,482.35M1150,.25L1150,482.35M1175,.25L1175,482.35M1200,.25L1200,482.35M1225,.25L1225,482.35" fill="none" stroke="#fcfca133" stroke-width=".7"></path></g><path d="M-115,107q21.2-9.4 15.5,2.8q-4.1,7.3 -7.6,13.2q-1.7,2.7 13.4-1.2" fill="none" stroke="#f0f0f0" stroke-width="2.6"></path><path d="M-77,102q6.6,30.6 -1,27" fill="none" stroke="#f0f0f0" stroke-width="2.6"></path><path d="M-58,127q0-.5 0-1" fill="none" stroke="#f0f0f0" stroke-width="2.6"></path><path d="M34,101q3.2,11.6 6,21" fill="none" stroke="#f0f0f0" stroke-width="2.6"></path><path d="M38,102q24.7,7.9 14.8,11.7q-9.8,3.8 -9.8-.7" fill="none" stroke="#f0f0f0" stroke-width="2.6"></path><path d="M66,111q4.4,0 8,0" fill="none" stroke="#f0f0f0" stroke-width="2.6"></path><path d="M68,115q4.9,0 9,0" fill="none" stroke="#f0f0f0" stroke-width="2.6"></path><path d="M97,107q.2,6.5 5,11.1q9,8.5 7.4-4.6q-.1-1.2 -.1-1.2q2.6,3.7 4.7,6.7" fill="none" stroke="#f0f0f0" stroke-width="2.6"></path><path d="M126,109q.3,.3 0,.3q-.3,0 -.3-.3q0-.3 .3-.3q.3,0 .3,.3" fill="none" stroke="#f0f0f0" stroke-width="2.6"></path><path d="M156,105q3,17.5 2,18" fill="none" stroke="#f0f0f0" stroke-width="2.6"></path><path d="M-115.3,332.6q19.5-5.1 18.6,1.9q-2.5,1.6 -5.5,2.1q2.9,2.4 8.5,4.8q5.4,2.4 -2,10.1q-5.2,5.4 -11.6-1.6" fill="none" stroke="#f0f0f0" stroke-width="2.6"></path><path d="M-72.2,323.4q8.4,33.1 2.7,28.5" fill="none" stroke="#f0f0f0" stroke-width="2.6"></path><path d="M-65.6,348.6q.8-.4 1.4-.7" fill="none" stroke="#f0f0f0" stroke-width="2.6"></path><path d="M-98.2,16Q-88.9,3.3 -84.7,4.5Q-83,11 -83.9,18.1" fill="none" stroke="#f0f0f0" stroke-width="2"></path><path d="M-74.1,2.7Q-63,32 -73.1,24.2" fill="none" stroke="#f0f0f0" stroke-width="2"></path><path d="M11.1,4.2Q11.8,13.8 12.7,21.7" fill="none" stroke="#f0f0f0" stroke-width="2"></path><path d="M11.1,4.7Q17,5 16,11Q14.7,15 13.4,18.2Q17.8,19.6 24,19.1" fill="none" stroke="#f0f0f0" stroke-width="2"></path><path d="M33.7,14q.9,4.8 1.6,8.7" fill="none" stroke="#f0f0f0" stroke-width="2"></path><path d="M34.8,2.2Q35.1,1.9 35.3,1.6" fill="none" stroke="#f0f0f0" stroke-width="2"></path><path d="M57.9,7.3Q64.4,6.6 69.7,6.3" fill="none" stroke="#f0f0f0" stroke-width="2"></path><path d="M59.4,16q4-.6 7.2-1" fill="none" stroke="#f0f0f0" stroke-width="2"></path><path d="M98.4,4.2Q91.6,16 97.6,20Q104.4,24.6 109.6,8.1Q109.8,5.7 109.7,3.7Q110.4,6.7 111.3,12.4" fill="none" stroke="#f0f0f0" stroke-width="2"></path><path d="M122.1,11.4q-8.3,7.8 -5.4,10q3.7-.6 6.9-2.3" fill="none" stroke="#f0f0f0" stroke-width="2"></path><path d="M136.4,6.8Q127.4,23 134.6,23Q135.4,23 138,20.6" fill="none" stroke="#f0f0f0" stroke-width="2"></path><path d="M91.8,27.8q41.3-2.7 47.7,3.1" fill="none" stroke="#f0f0f0" stroke-width="2"></path><path d="M100.5,38.1q4.1,11.2 7.5,20.3" fill="none" stroke="#f0f0f0" stroke-width="2"></path><path d="M121.5,42.2q-9.2,13.8 -5.7,14.8q3.7-.5 6.8-1.6q1.4,.4 2.5,1.2" fill="none" stroke="#f0f0f0" stroke-width="2"></path><path d="M111.8,43.2q3.2,8.9 6.2,16" fill="none" stroke="#f0f0f0" stroke-width="2"></path><path d="M168.8,17.1q7.4-2.7 18-2.1" fill="none" stroke="#f0f0f0" stroke-width="2"></path><path d="M170.8,25.8q5.7-.6 10.3-1" fill="none" stroke="#f0f0f0" stroke-width="2"></path><path d="M234.5,7.3Q226.5,2.3 226.7,6.5Q230.5,14.5 235.1,20.6Q236.7,22.7 233.5,23.1Q231.1,23.4 235.7,8.6Q236.6,5.6 235.4,3.9" fill="none" stroke="#f0f0f0" stroke-width="2"></path><path d="M252.5,20.1Q261.7,20.7 269.3,21.4Q268.5,19.7 266.6,17.6Q262.8,13.4 274.8,9.2Q283.4,6.1 282.9,14.9Q281.1,18.9 279.1,22.1Q287.4,26.3 300.3,27.3" fill="none" stroke="#f0f0f0" stroke-width="2"></path><path d="M57,210q-.5,8.8 -1,16" fill="none" stroke="#f0f0f0" stroke-width="2.6"></path><path d="M53,202q2.1-3.6 13.8-3.7" fill="none" stroke="#f0f0f0" stroke-width="2.6"></path><path d="M49,227q10.4-.6 19-1" fill="none" stroke="#f0f0f0" stroke-width="2.6"></path><path d="M89,208q9.9-.7 18-1" fill="none" stroke="#f0f0f0" stroke-width="2.6"></path><path d="M93,212q14.6-.5 17-1" fill="none" stroke="#f0f0f0" stroke-width="2.6"></path><path d="M182,199q.6,2.2 3,11" fill="none" stroke="#f0f0f0" stroke-width="2.6"></path><path d="M185,200q14-.7 15.2,4.9q-6.1,1.9 -14.2,1.1" fill="none" stroke="#f0f0f0" stroke-width="2.6"></path><path d="M181,222q18.5-2 34-2" fill="none" stroke="#f0f0f0" stroke-width="2.6"></path><path d="M189,237q0,4.9 0,9" fill="none" stroke="#f0f0f0" stroke-width="2.6"></path><path d="M191,234q6.9,.7 6.4,7.2q-.5,7.3 1.8,7.4q2.1-.7 3.8-1.6" fill="none" stroke="#f0f0f0" stroke-width="2.6"></path><path d="M147,222q3,28.7 7,34.4q.7-7.6 -1.2-20.7q-2.8-19.5 10.7-49.3q1.6-3.4 15.7,1.7q26,3.8 47.8,4.9" fill="none" stroke="#f0f0f0" stroke-width="2.6"></path><path d="M267,205q11-.5 20-1" fill="none" stroke="#f0f0f0" stroke-width="2.6"></path><path d="M271,213q10.3-1.6 19-2" fill="none" stroke="#f0f0f0" stroke-width="2.6"></path><path d="M341,211q7.4-7.3 17.5-2.3q11.1,5.6 1.1,14.1q-4.2,3.6 -14.5-8.4" fill="none" stroke="#f0f0f0" stroke-width="2.6"></path><path d="M373,222q-2.9-4.3 -5-8" fill="none" stroke="#f0f0f0" stroke-width="2.6"></path><path d="M388,206q-1.1,7.3 6,15.7q3.3,4 3,4.1q-3,.8 -15-3.8" fill="none" stroke="#f0f0f0" stroke-width="2.6"></path><path d="M385,208q9.4-1.1 17-2" fill="none" stroke="#f0f0f0" stroke-width="2.6"></path><path d="M415,228q17.2-22.2 21.5-22.8q1.6,10 -1.5,22.8" fill="none" stroke="#f0f0f0" stroke-width="2.6"></path><path d="M426,214q13.7,.1 25,1" fill="none" stroke="#f0f0f0" stroke-width="2.6"></path><path d="M57,286q.1,16.8 7.9,18.3q5.4,1 5.7-14.4q2,5.2 4.4,15.1" fill="none" stroke="#f0f0f0" stroke-width="2.6"></path><path d="M87,286q1,11.6 2,21" fill="none" stroke="#f0f0f0" stroke-width="2.6"></path><path d="M87,286q8-3.1 9.7,2.1q-1.2,8.6 -4,15.7q5.9,1.4 14.3,.2" fill="none" stroke="#f0f0f0" stroke-width="2.6"></path><path d="M76,296q1.6-1.7 3-3" fill="none" stroke="#f0f0f0" stroke-width="2.6"></path><path d="M77,300q3.8,0 7,0" fill="none" stroke="#f0f0f0" stroke-width="2.6"></path><path d="M109,296q1.1,0 2,0" fill="none" stroke="#f0f0f0" stroke-width="2.6"></path><path d="M130,289q1.5,9.4 3,17" fill="none" stroke="#f0f0f0" stroke-width="2.6"></path><path d="M126,284q15.9,1.7 16,2" fill="none" stroke="#f0f0f0" stroke-width="2.6"></path><path d="M129,309q7.2-.5 13-1" fill="none" stroke="#f0f0f0" stroke-width="2.6"></path><path d="M171,295q8.7-1.9 16-3" fill="none" stroke="#f0f0f0" stroke-width="2.6"></path><path d="M183,300q8.2,0 15,0" fill="none" stroke="#f0f0f0" stroke-width="2.6"></path><path d="M239,286q-18.9,8.9 -6.2,11.6" fill="none" stroke="#f0f0f0" stroke-width="2.6"></path><path d="M241,286q-2,12.2 1,20" fill="none" stroke="#f0f0f0" stroke-width="2.6"></path><path d="M254,287q2.3,21.2 5.6,19q7-10.3 11.4-20" fill="none" stroke="#f0f0f0" stroke-width="2.6"></path><path d="M48,375q1.6,12.1 3,22" fill="none" stroke="#f0f0f0" stroke-width="2.6"></path><path d="M41,372q13.1-1.5 24-2" fill="none" stroke="#f0f0f0" stroke-width="2.6"></path><path d="M47,400q21.6-6.3 20-4" fill="none" stroke="#f0f0f0" stroke-width="2.6"></path><path d="M91,381q15,1 15,1" fill="none" stroke="#f0f0f0" stroke-width="2.6"></path><path d="M100,390q4.4,0 8,0" fill="none" stroke="#f0f0f0" stroke-width="2.6"></path><path d="M141,376q3.8,27 8.5,14.4q1.4-7.8 2-14.3q4,5.3 8.5,15.9" fill="none" stroke="#f0f0f0" stroke-width="2.6"></path><path d="M173,378q-5.2,21.8 7.1,17.6" fill="none" stroke="#f0f0f0" stroke-width="2.6"></path><path d="M192,380q-5.9,13.8 -3.1,17.8q2.1,3 14.6-.8" fill="none" stroke="#f0f0f0" stroke-width="2.6"></path><path d="M134,411q68.5-11.9 65-7" fill="none" stroke="#f0f0f0" stroke-width="2.6"></path><path d="M132,428q1.9,19.1 3,19" fill="none" stroke="#f0f0f0" stroke-width="2.6"></path><path d="M129,434q9.7-5.8 13.4-1q2.1,7.1 2.7,13.5q1.8-.7 3.9-2.5" fill="none" stroke="#f0f0f0" stroke-width="2.6"></path><path d="M159,440q1,6.6 2,12" fill="none" stroke="#f0f0f0" stroke-width="2.6"></path><path d="M161,430q0,.6 0,1" fill="none" stroke="#f0f0f0" stroke-width="2.6"></path><path d="M181,433q-.7,12 0,12" fill="none" stroke="#f0f0f0" stroke-width="2.6"></path><path d="M180,438q2.2,0 4,0" fill="none" stroke="#f0f0f0" stroke-width="2.6"></path><path d="M200,433q-.5,16.5 0,15" fill="none" stroke="#f0f0f0" stroke-width="2.6"></path><path d="M199,434q5.4-4.5 6.7,1.2q.6,5.6 .9,10.3q.1,1.5 6.4,3.5" fill="none" stroke="#f0f0f0" stroke-width="2.6"></path><path d="M230,438q-10.4-.4 -8.8,4.8q4.5,6.1 9,10.7q-3.9,1.4 -10.2,1.5" fill="none" stroke="#f0f0f0" stroke-width="2.6"></path><path d="M281,396q6.6-1.1 12-2" fill="none" stroke="#f0f0f0" stroke-width="2.6"></path><path d="M283,406q6.7-.4 16,1" fill="none" stroke="#f0f0f0" stroke-width="2.6"></path><path d="M333,394q2.6,13.3 2,14" fill="none" stroke="#f0f0f0" stroke-width="2.6"></path><path d="M328,394q9-1.3 10.2,2.5q.7,5.5 .9,10.1q2.7,2.2 5.9,3.4" fill="none" stroke="#f0f0f0" stroke-width="2.6"></path><path d="M359,399q-4.2,.8 -.2,6.5q5.8,8.1 -1.1,7.4q-.8-.1 -2.7-2.9" fill="none" stroke="#f0f0f0" stroke-width="2.6"></path><path d="M378,396q1.6,7.2 3,13" fill="none" stroke="#f0f0f0" stroke-width="2.6"></path><path d="M375,405q7.7-.6 14-1" fill="none" stroke="#f0f0f0" stroke-width="2.6"></path><path d="M401,396q-.6,2.9 -1,14" fill="none" stroke="#f0f0f0" stroke-width="2.6"></path><path d="M395,398q11.8-.1 14.2,5q.1,4.3 -.4,7.9q-.2,1.1 5.2-.9" fill="none" stroke="#f0f0f0" stroke-width="2.6"></path><path d="M425,408q.4,9.6 0,10" fill="none" stroke="#f0f0f0" stroke-width="2.6"></path><path d="M423,394q.3,.3 0,.3q-.3,0 -.3-.3q0-.3 .3-.3q.3,0 .3,.3" fill="none" stroke="#f0f0f0" stroke-width="2.6"></path><path d="M325,391q-3.4,3.3 -2.8,12.5q.2,3.6 6.8,16.5" fill="none" stroke="#f0f0f0" stroke-width="2.6"></path><path d="M434,393q9.7,14.7 8,22.7" fill="none" stroke="#f0f0f0" stroke-width="2.6"></path><path d="M459,406q0,.6 0,3" fill="none" stroke="#f0f0f0" stroke-width="2.6"></path><path d="M472,399q-.1,8.8 0,16" fill="none" stroke="#f0f0f0" stroke-width="2.6"></path><path d="M465,392q5.5,0 10,0" fill="none" stroke="#f0f0f0" stroke-width="2.6"></path><path d="M467,423q25.1-8.4 22-5" fill="none" stroke="#f0f0f0" stroke-width="2.6"></path><path d="M504,400q7.7-.5 14-1" fill="none" stroke="#f0f0f0" stroke-width="2.6"></path><path d="M510,411q1-.2 5-1" fill="none" stroke="#f0f0f0" stroke-width="2.6"></path><path d="M553,393q1.6,18.8 8.8,22.3q7.4,3.5 8.7-15.8q-.4-1.8 -.9-3.2q1.6,4.1 4.4,11.7" fill="none" stroke="#f0f0f0" stroke-width="2.6"></path><path d="M584,408q4.3,17.1 6.8,19.7q1.3-1.3 2.2-3.7" fill="none" stroke="#f0f0f0" stroke-width="2.6"></path><path d="M609,411q-8.2,16.4 3,15.4" fill="none" stroke="#f0f0f0" stroke-width="2.6"></path><path d="M656,406q7.1-1.1 13-2" fill="none" stroke="#f0f0f0" stroke-width="2.6"></path><path d="M658,415q5.5-1.1 10-2" fill="none" stroke="#f0f0f0" stroke-width="2.6"></path><path d="M683,397q17,3 16,13q-3,4 -8,6" fill="none" stroke="#f0f0f0" stroke-width="4"></path><path d="M752,400q1,10 2,18" fill="none" stroke="#f0f0f0" stroke-width="4"></path><path d="M751,396q14,2 13,13q-1,11 0,12q3,0 5-1" fill="none" stroke="#f0f0f0" stroke-width="4"></path><path d="M791,412q-5,2 -2,6q11,19 -4,15q-5-3 -8-7" fill="none" stroke="#f0f0f0" stroke-width="4"></path><path d="M819,414q27-4 26-3" fill="none" stroke="#f0f0f0" stroke-width="4"></path><path d="M829,421q5-1 10-1" fill="none" stroke="#f0f0f0" stroke-width="4"></path><path d="M873,401q10,30 15,16q2-9 3-17q1,4 1,11" fill="none" stroke="#f0f0f0" stroke-width="4"></path><path d="M899,409q-1,9 3,10q5,0 9-1" fill="none" stroke="#f0f0f0" stroke-width="4"></path><path d="M918,406q-5,18 3,20q3,0 14-2" fill="none" stroke="#f0f0f0" stroke-width="4"></path><path d="M877,434q27,0 49,1" fill="none" stroke="#f0f0f0" stroke-width="4"></path><path d="M901,464q-1,14 -1,14" fill="none" stroke="#f0f0f0" stroke-width="4"></path><path d="M899,450q10,0 19,0" fill="none" stroke="#f0f0f0" stroke-width="4"></path><path d="M902,480q10-1 18-1" fill="none" stroke="#f0f0f0" stroke-width="4"></path><path d="M956,425q8,0 15-1" fill="none" stroke="#f0f0f0" stroke-width="4"></path><path d="M991,420q1,10 2,18" fill="none" stroke="#f0f0f0" stroke-width="4"></path><path d="M990,421q12-6 13,1q-1,5 -2,10q6,2 14,1" fill="none" stroke="#f0f0f0" stroke-width="4"></path><path d="M1020,429q0,7 1,13" fill="none" stroke="#f0f0f0" stroke-width="4"></path><path d="M1018,403q0,0 -1-1" fill="none" stroke="#f0f0f0" stroke-width="4"></path><path d="M1045,421q13,0 23,0" fill="none" stroke="#f0f0f0" stroke-width="4"></path><path d="M1045,430q16-3 29-5" fill="none" stroke="#f0f0f0" stroke-width="4"></path><path d="M1114,411q-19,9 -15,11q1,1 9-3" fill="none" stroke="#f0f0f0" stroke-width="4"></path><path d="M1115,415q-2,10 -3,18" fill="none" stroke="#f0f0f0" stroke-width="4"></path><path d="M1120,424q15-15 21-3q-7,6 -18,8" fill="none" stroke="#f0f0f0" stroke-width="4"></path><path d="M1159,440q35-10 32,0q-1,4 -12-3q-9-6 4-15q11-8 25,7q1,8 0,15q13,4 31,3" fill="none" stroke="#f0f0f0" stroke-width="4"></path></svg>