<svg viewBox="-225.5 -35.5 1035.7 682" width="1035.7" height="682" version="1.1" baseProfile="full" xmlns="http://www.w3.org/2000/svg" class="js-draw--autoresize"><style id="js-draw-style-sheet">path{stroke-linecap:round;stroke-linejoin:round;}text{white-space:pre;}</style><g class="js-draw-image-background js-draw-image-background-grid js-draw-image-background-grid-25"><path d="M810.2,646.5l0-682l-1035.7,0l0,682l1035.7,0" fill="#03035e"></path><path d="M-225.85,-25l1036.4,0m-1036.4,25l1036.4,0m-1036.4,25l1036.4,0m-1036.4,25l1036.4,0m-1036.4,25l1036.4,0m-1036.4,25l1036.4,0m-1036.4,25l1036.4,0m-1036.4,25l1036.4,0m-1036.4,25l1036.4,0m-1036.4,25l1036.4,0m-1036.4,25l1036.4,0m-1036.4,25l1036.4,0m-1036.4,25l1036.4,0m-1036.4,25l1036.4,0m-1036.4,25l1036.4,0m-1036.4,25l1036.4,0m-1036.4,25l1036.4,0m-1036.4,25l1036.4,0m-1036.4,25l1036.4,0m-1036.4,25l1036.4,0m-1036.4,25l1036.4,0m-1036.4,25l1036.4,0m-1036.4,25l1036.4,0m-1036.4,25l1036.4,0m-1036.4,25l1036.4,0m-1036.4,25l1036.4,0m-1036.4,25l1036.4,0m-1035.55-660.85l0,682.7m25-682.7l0,682.7m25-682.7l0,682.7m25-682.7l0,682.7m25-682.7l0,682.7m25-682.7l0,682.7m25-682.7l0,682.7m25-682.7l0,682.7m25-682.7l0,682.7m25-682.7l0,682.7m25-682.7l0,682.7m25-682.7l0,682.7m25-682.7l0,682.7m25-682.7l0,682.7m25-682.7l0,682.7m25-682.7l0,682.7m25-682.7l0,682.7m25-682.7l0,682.7m25-682.7l0,682.7m25-682.7l0,682.7m25-682.7l0,682.7m25-682.7l0,682.7m25-682.7l0,682.7m25-682.7l0,682.7m25-682.7l0,682.7m25-682.7l0,682.7m25-682.7l0,682.7m25-682.7l0,682.7m25-682.7l0,682.7m25-682.7l0,682.7m25-682.7l0,682.7m25-682.7l0,682.7m25-682.7l0,682.7m25-682.7l0,682.7m25-682.7l0,682.7m25-682.7l0,682.7m25-682.7l0,682.7m25-682.7l0,682.7m25-682.7l0,682.7m25-682.7l0,682.7m25-682.7l0,682.7m25-682.7l0,682.7" fill="none" stroke="#fcfca133" stroke-width=".7"></path></g><path d="M-98,111q25.2-45 28.6-39.3q-1.6,14.3 -6.5,26.6q-.8,4.7 -1.1,8.7" fill="none" stroke="#ffffff" stroke-width="2.6"></path><path d="M-99,100q1.4-4.5 8.7-6.9q11.1-1.6 20.3-2.1" fill="none" stroke="#ffffff" stroke-width="2.6"></path><path d="M37,19q-4.8-5.5 -15.9,.1q-34.6,17.5 -26.3,121.1q3,37.8 17,46.5" fill="none" stroke="#ffffff" stroke-width="2.6"></path><path d="M44,55q9-26.8 21-15.5q7.8,7.5 -5.2,18.8q-4.9,4.2 -10.1-2.5" fill="none" stroke="#ffffff" stroke-width="2.6"></path><path d="M115,51q13.2-18.5 17.6-6q0,5.4 -.6,10" fill="none" stroke="#ffffff" stroke-width="2.6"></path><path d="M148,41q17.5-5.9 20.1,3.3q-1.5,8.3 -4.3,15.1q5.8,2 14.2,1.6" fill="none" stroke="#ffffff" stroke-width="2.6"></path><path d="M53,101q5.2-5.3 11.1-4.5q9.2,1.3 2.5,10.1q-1.8,1.5 -3.4,2.6q4,2.1 11,3.3q7.4,1.3 .5,7.7q-1.3,1.2 -8.7-1.2" fill="none" stroke="#ffffff" stroke-width="2.6"></path><path d="M122,99q-9.6,1.9 -9.6,4.8q.1,1.9 9.6,1.2" fill="none" stroke="#ffffff" stroke-width="2.6"></path><path d="M126,97q0,10.4 0,19" fill="none" stroke="#ffffff" stroke-width="2.6"></path><path d="M158,105q-2.2,1.1 -1.6,1q6.9-2 7.3,5.7q-1.6,3 -3.7,5.3" fill="none" stroke="#ffffff" stroke-width="2.6"></path><path d="M156,99q6.1-1.1 11-2" fill="none" stroke="#ffffff" stroke-width="2.6"></path><path d="M218,21q12.8,7.9 24.9,35.1q20.5,45.6 -16.7,108.8q-7.9,13.5 -17.9,13.6" fill="none" stroke="#ffffff" stroke-width="2.6"></path><path d="M-94,300q9-9.3 21.5-32.4q6.2-11.5 5.6-10.8q-3.7,4.9 -5,33.1q-.1,2.2 -2.3,10.6" fill="none" stroke="#ffffff" stroke-width="2.6"></path><path d="M-84,288q4.9,0 9,0" fill="none" stroke="#ffffff" stroke-width="2.6"></path><path d="M-58,282q.6,9.9 1.2,17.9q-.4-5.2 -1.2-14.9" fill="none" stroke="#ffffff" stroke-width="2.6"></path><path d="M-43,286q1.4,14.1 1.6,10.9q.8-7.1 1.4-12.9" fill="none" stroke="#ffffff" stroke-width="2.6"></path><path d="M-23,284q-10.1,5.7 -3.7,9.4q3.9,2.2 5.7-7.4" fill="none" stroke="#ffffff" stroke-width="2.6"></path><path d="M-22,282q4.4,3.9 8,7" fill="none" stroke="#ffffff" stroke-width="2.6"></path><path d="M-8,283Q5.5,291.5 7,291" fill="none" stroke="#ffffff" stroke-width="2.6"></path><path d="M16,282Q6.2,297.5 -2,310" fill="none" stroke="#ffffff" stroke-width="2.6"></path><path d="M50,272q7.7-1.3 14-2" fill="none" stroke="#ffffff" stroke-width="2.6"></path><path d="M52,281q6.1-.5 11-1" fill="none" stroke="#ffffff" stroke-width="2.6"></path><path d="M132,260q-21.6,2.7 -21.5,2.8q.4,14.8 .7,26.9q.2,14.1 9.1,12.3q5.3-1.1 9.7-2" fill="none" stroke="#ffffff" stroke-width="2.6"></path><path d="M158,294q16.1-16.6 17-26.1q.2,8.8 0,25.1" fill="none" stroke="#ffffff" stroke-width="2.6"></path><path d="M164,290q3.3,0 6,0" fill="none" stroke="#ffffff" stroke-width="2.6"></path><path d="M184,283q2.3,7.3 3.9,13.4q.7,2.6 3.1-10.4" fill="none" stroke="#ffffff" stroke-width="2.6"></path><path d="M197,284q3,11.7 3.9,12.1q.5-1.7 .2-4.1q-.1-1.5 3.9-6" fill="none" stroke="#ffffff" stroke-width="2.6"></path><path d="M216,286q-6.8,5.5 -1.9,7.2q4.4-2.6 7.6-6.6q3.4,2.2 6.3,6.4" fill="none" stroke="#ffffff" stroke-width="2.6"></path><path d="M230,288q3.3,3.3 6,6" fill="none" stroke="#ffffff" stroke-width="2.6"></path><path d="M251,288q-7.1,19.7 -9,22" fill="none" stroke="#ffffff" stroke-width="2.6"></path><path d="M391,268q3.1-1.7 4.8,3.5q7.6,22.5 -.2,29q-2.7-2.8 -4.6-7.5" fill="none" stroke="#ffffff" stroke-width="2.6"></path><path d="M409,266q7.7-.7 8.1,3.3q3.6,15.6 7.5,28.1q1.4,4.9 -13.5,2.2" fill="none" stroke="#ffffff" stroke-width="2.6"></path><path d="M281,276q-5.9,.6 -8.7,8.5q-6.1,17 6.4,14" fill="none" stroke="#ffffff" stroke-width="2.6"></path><path d="M305,291q-.2-12.8 2.3-9q3.6,5.5 -5.9,14.3q-.5,.4 -3.1,.8" fill="none" stroke="#ffffff" stroke-width="2.6"></path><path d="M321,297q-8.4,7.2 -8,7" fill="none" stroke="#ffffff" stroke-width="2.6"></path><path d="M329,284q11-.9 8.1,2.1q-.4,.4 1.8,2.4q5.6,5 -8.8,7.3" fill="none" stroke="#ffffff" stroke-width="2.6"></path><path d="M350,296q-1.7,4.4 -3,8" fill="none" stroke="#ffffff" stroke-width="2.6"></path><path d="M61,161q-6.1,4.5 -4.9,5.3q2.1,1 3.9,1.7" fill="none" stroke="#ffffff" stroke-width="2.6"></path><path d="M75,152q-28.8,13.8 -26.6,19.4q9.1,.2 18.6-3.4" fill="none" stroke="#ffffff" stroke-width="2.6"></path><path d="M73,156q-8.5,24.9 -6,28" fill="none" stroke="#ffffff" stroke-width="2.6"></path><path d="M368,278q1.9-.9 1.4-1q-4.5-.1 -6.6,5.6q-.4,.8 4.2,1.4" fill="none" stroke="#ffffff" stroke-width="2.6"></path><path d="M368,278q-3.2,20.1 -3,20" fill="none" stroke="#ffffff" stroke-width="2.6"></path><path d="M457,266q1.4-2.9 -1-1.7q-24.5,12.6 -4.2,23.2q2.8,.9 5.2,1.5" fill="none" stroke="#ffffff" stroke-width="2.6"></path><path d="M438,296q-11.6,18.9 -11.3,22.5" fill="none" stroke="#ffffff" stroke-width="2.6"></path><path d="M459,265q1.4-2.4 -3.1,0q-19.5,10.2 -8.7,13.7q8.7,2.9 5.2,20.5q-.2,1.2 2.8,.8q8.7-1.1 15.8-2" fill="none" stroke="#ffffff" stroke-width="2.6"></path><path d="M493,295q5.2-.4 13.1-12.1q7.5-11 7.4-7.3q-1.6,10.1 -3.5,18.4" fill="none" stroke="#ffffff" stroke-width="2.6"></path><path d="M496,291q6.1,.5 11,1" fill="none" stroke="#ffffff" stroke-width="2.6"></path><path d="M526,287q.1,12.6 .6,10q2.7-13.5 3.4-15" fill="none" stroke="#ffffff" stroke-width="2.6"></path><path d="M541,288q-.3,11.1 -.2,9.2q1-13.5 4.2-12.2" fill="none" stroke="#ffffff" stroke-width="2.6"></path><path d="M553,284q-8.2,8.8 -2.9,11.8q4.1-3.4 6.9-8.8" fill="none" stroke="#ffffff" stroke-width="2.6"></path><path d="M557,284q3.3,5.5 6,10" fill="none" stroke="#ffffff" stroke-width="2.6"></path><path d="M565,287q6.6,3.8 12,7" fill="none" stroke="#ffffff" stroke-width="2.6"></path><path d="M583,286q-9.6,16.7 -18,30" fill="none" stroke="#ffffff" stroke-width="2.6"></path><path d="M617,267q-6.2-1.5 -7.8,1.3q-18.5,33.6 4.9,30q.6-.1 2.9-1.3" fill="none" stroke="#ffffff" stroke-width="2.6"></path><path d="M637,278q12.9-10 13.1-4.4q-2.7,10.2 -6.1,18.4" fill="none" stroke="#ffffff" stroke-width="2.6"></path><path d="M661,294q-2.2,3.8 -4,7" fill="none" stroke="#ffffff" stroke-width="2.6"></path><path d="M691,268q-.1,.4 -.5,1q-5.1,8.5 -4.8,9.8q2.9,.3 6.3-.8" fill="none" stroke="#ffffff" stroke-width="2.6"></path><path d="M699,268q-1.4,13.2 -2,24" fill="none" stroke="#ffffff" stroke-width="2.6"></path><path d="M716,294q-9.9,12.7 -9,13" fill="none" stroke="#ffffff" stroke-width="2.6"></path><path d="M123,150q-15.7,17.7 -5.2,23.6q3.3,1.8 3.2-4.8q-4.5-3.3 -10-4.8" fill="none" stroke="#ffffff" stroke-width="2.6"></path><path d="M742,274q-.1,.4 -.5,1.1q-8.9,19.7 -.7,20.3q1.2-5.1 .2-11.4" fill="none" stroke="#ffffff" stroke-width="2.6"></path><path d="M765,271q7-.8 13.3,6.2q.5,.7 .9,1.3q.9,.5 1.7,.7q1.2,7.3 -.8,15.4q.4,3.7 1.3,6.7q-7.9,1.2 -18.7-1.5" fill="none" stroke="#ffffff" stroke-width="2.6"></path><path d="M787,272q13.3-1.4 13.8,1.9q3.5,21.5 8.1,27.9q-3.7,2.4 -9.4,3.5q-2.1,.4 -7.5,7.7" fill="none" stroke="#ffffff" stroke-width="2.6"></path><path d="M-42,414q5.9,4.8 13.4,19.7q2.8,5.8 4,1.5q7-25.2 8.6-25.2" fill="none" stroke="#ffffff" stroke-width="2.9"></path><path d="M12,415q21.4-.5 21,0" fill="none" stroke="#ffffff" stroke-width="2.9"></path><path d="M17,425q8.8,0 16,0" fill="none" stroke="#ffffff" stroke-width="2.9"></path><path d="M89,440q12.2-17.2 22.1-31.3q.7,10.7 -2.1,29.3" fill="none" stroke="#ffffff" stroke-width="2.9"></path><path d="M95,436q7.7,0 14,0" fill="none" stroke="#ffffff" stroke-width="2.9"></path><path d="M128,426q-.2,1.6 -1,8" fill="none" stroke="#ffffff" stroke-width="2.9"></path><path d="M128,440q.4-1.6 2-8" fill="none" stroke="#ffffff" stroke-width="2.9"></path><path d="M142,431q1.8,12.6 5,7.6q2.4-5.7 4-10.6" fill="none" stroke="#ffffff" stroke-width="2.9"></path><path d="M168,428q-10.9,4.8 -6.2,8.9q2.8,2.5 9.6-3" fill="none" stroke="#ffffff" stroke-width="2.9"></path><path d="M172,425q2.3,8.6 6,11" fill="none" stroke="#ffffff" stroke-width="2.9"></path><path d="M183,432q7.8,3.1 14,6" fill="none" stroke="#ffffff" stroke-width="2.9"></path><path d="M209,433q-31.3,36.5 -16,24" fill="none" stroke="#ffffff" stroke-width="2.9"></path><path d="M240,409q3.9-5.4 1.3-4.8q-16.2,3.8 -13.4,21.8q3.9,25.9 10.2,25.4q4.9-.7 8.9-1.4" fill="none" stroke="#ffffff" stroke-width="2.9"></path><path d="M274,428q2.9-13.8 9.7-10.6q8.7,4.1 1.6,17.9q-6.1,11.9 -8,0" fill="none" stroke="#ffffff" stroke-width="2.9"></path><path d="M318,428q15.9-12.2 18.3-6.1q3.4,8.5 -1.3,13.1" fill="none" stroke="#ffffff" stroke-width="2.9"></path><path d="M310,441q-.6,7.1 -1,13" fill="none" stroke="#ffffff" stroke-width="2.9"></path><path d="M355,441q0,7.7 0,14" fill="none" stroke="#ffffff" stroke-width="2.9"></path><path d="M377,429q.1-7.1 2.9-6.2q1.9,7.3 1,15.1q3.1,.8 7.1,.1" fill="none" stroke="#ffffff" stroke-width="2.9"></path><path d="M400,414q9.9-.9 13.3,4.1q9,13.5 7.7,31.9q-.5,6.1 -17-.5" fill="none" stroke="#ffffff" stroke-width="2.9"></path><path d="M-31,493q9.6,28.3 15.5,25.2q5.7-9.7 8.5-19.2" fill="none" stroke="#ffffff" stroke-width="2.9"></path><path d="M7,500Q7.7,509.3 8,516.9Q8.1,518.3 15,519" fill="none" stroke="#ffffff" stroke-width="2.9"></path><path d="M32,498q16.8-2 19-1" fill="none" stroke="#ffffff" stroke-width="2.9"></path><path d="M34,508q8.3-1.6 15-3" fill="none" stroke="#ffffff" stroke-width="2.9"></path><path d="M-59,630q12-38 17-29q1,11 1,20q5-5 10-14q0-1 4,10q5,8 10,14" fill="none" stroke="#ffffff" stroke-width="3"></path><path d="M8,604Q20,603 29,603" fill="none" stroke="#ffffff" stroke-width="3"></path><path d="M14,613q18,0 33,1" fill="none" stroke="#ffffff" stroke-width="3"></path><path d="M101,624q18-21 32-39q0,12 -4,32" fill="none" stroke="#ffffff" stroke-width="3"></path><path d="M114,612q8-2 15-3" fill="none" stroke="#ffffff" stroke-width="3"></path><path d="M143,604q2,15 3,17q1-5 1-15" fill="none" stroke="#ffffff" stroke-width="3"></path><path d="M159,610q5,7 7,2q3-6 5-11" fill="none" stroke="#ffffff" stroke-width="3"></path><path d="M200,600q-11,18 -8,19q2-5 2-12q0-2 8,6" fill="none" stroke="#ffffff" stroke-width="3"></path><path d="M202,607q8,6 15,11" fill="none" stroke="#ffffff" stroke-width="3"></path><path d="M233,608q-14,20 -26,37" fill="none" stroke="#ffffff" stroke-width="3"></path><path d="M277,582q2-6 0-5q-13,5 -13,32q0,11 14,9" fill="none" stroke="#ffffff" stroke-width="3"></path><path d="M301,598q8,18 17,0" fill="none" stroke="#ffffff" stroke-width="3"></path><path d="M340,617q-3,4 -6,8" fill="none" stroke="#ffffff" stroke-width="3"></path><path d="M360,597q9,11 15,8q1,0 5-6" fill="none" stroke="#ffffff" stroke-width="3"></path><path d="M385,598q16,1 14,7q-2,4 5,3" fill="none" stroke="#ffffff" stroke-width="3"></path><path d="M419,582q6-5 8-1q18,44 19,50q1,4 -24-1" fill="none" stroke="#ffffff" stroke-width="3"></path><path d="M-224,-31q0-1 0-3" fill="none" stroke="#ffffff" stroke-width="3"></path></svg>