<svg viewBox="-99.8 -27.55 923.9 474.6" width="923.9" height="474.6" version="1.1" baseProfile="full" xmlns="http://www.w3.org/2000/svg" class="js-draw--autoresize"><style id="js-draw-style-sheet">path{stroke-linecap:round;stroke-linejoin:round;}text{white-space:pre;}</style><g class="js-draw-image-background js-draw-image-background-grid js-draw-image-background-grid-25"><path d="M824.1,447.05l0-474.6l-923.9,1.0658141036401503e-14l0,474.6l923.9,0" fill="#03035e"></path><path d="M-100.15,-25l924.6,0m-924.6,25l924.6,0m-924.6,25l924.6,0m-924.6,25l924.6,0m-924.6,25l924.6,0m-924.6,25l924.6,0m-924.6,25l924.6,0m-924.6,25l924.6,0m-924.6,25l924.6,0m-924.6,25l924.6,0m-924.6,25l924.6,0m-924.6,25l924.6,0m-924.6,25l924.6,0m-924.6,25l924.6,0m-924.6,25l924.6,0m-924.6,25l924.6,0m-924.6,25l924.6,0m-924.6,25l924.6,0m-924.6,25l924.6,0m-924.45-452.9l0,475.3m25-475.3l0,475.3m25-475.3l0,475.3m25-475.3l0,475.3m25-475.3l0,475.3m25-475.3l0,475.3m25-475.3l0,475.3m25-475.3l0,475.3m25-475.3l0,475.3m25-475.3l0,475.3m25-475.3l0,475.3m25-475.3l0,475.3m25-475.3l0,475.3m25-475.3l0,475.3m25-475.3l0,475.3m25-475.3l0,475.3m25-475.3l0,475.3m25-475.3l0,475.3m25-475.3l0,475.3m25-475.3l0,475.3m25-475.3l0,475.3m25-475.3l0,475.3m25-475.3l0,475.3m25-475.3l0,475.3m25-475.3l0,475.3m25-475.3l0,475.3m25-475.3l0,475.3m25-475.3l0,475.3m25-475.3l0,475.3m25-475.3l0,475.3m25-475.3l0,475.3m25-475.3l0,475.3m25-475.3l0,475.3m25-475.3l0,475.3m25-475.3l0,475.3m25-475.3l0,475.3m25-475.3l0,475.3" fill="none" stroke="#fcfca133" stroke-width=".7"></path></g><path d="M-93.8,-26.5q-4.6,18.8 2.1,29.8q4.6,7.6 11-11.6q5.6-17.1 .8-16.1q.8,9.2 6.3,19.6" fill="none" stroke="#ffffff" stroke-width="2.1"></path><path d="M-67.6,-6.4Q-68.6,14.1 -66.1,6.4Q-63.2,-2.7 -62.5,-1.8Q-59.4,2.5 -55.6,-.9Q-51.5,-4.5 -46.1,2.2Q-43.6,5.3 -41.5,7.8" fill="none" stroke="#ffffff" stroke-width="2.1"></path><path d="M-34.4,-2Q-40.5,7.9 -37.1,9Q-34,7.7 -31.7,5.6" fill="none" stroke="#ffffff" stroke-width="2.1"></path><path d="M-32.8,1.2Q-33.4,3 -31.5,4.7Q-27,6.7 -23,7.8" fill="none" stroke="#ffffff" stroke-width="2.1"></path><path d="M-23.5,2.9Q-11.9,10.3 -12.6,11" fill="none" stroke="#ffffff" stroke-width="2.1"></path><path d="M-5.6,-3.7Q-16.9,7.1 -25.7,16.5" fill="none" stroke="#ffffff" stroke-width="2.1"></path><path d="M38.5,-6.9q12.7-6.2 17.7-2.6q.5,8.8 -1.9,17.3" fill="none" stroke="#ffffff" stroke-width="2.1"></path><path d="M81,-16.7q-1.2,3.9 -2.2,7" fill="none" stroke="#ffffff" stroke-width="2.1"></path><path d="M83.2,11Q82.9,8.9 82.7,7.2" fill="none" stroke="#ffffff" stroke-width="2.1"></path><path d="M126.2,-6.9q2.3,20.1 7.3,17.8q.2-.1 1.6-11.6q2.3-18.5 37.1-20.8q44.9,3.9 81.4,9.8q1.5,.3 7.3-1.4" fill="none" stroke="#ffffff" stroke-width="2.1"></path><path d="M155.1,-9.7Q155.1,-.1 155.1,7.8" fill="none" stroke="#ffffff" stroke-width="2.1"></path><path d="M156.7,-8q9.9-5.1 13.2,.7q2.3,3.8 -13.7,6.9" fill="none" stroke="#ffffff" stroke-width="2.1"></path><path d="M170.3,1.8Q170.1,10.6 170.7,8.5Q172.4,1.4 175,6.7Q175.8,9.3 176.3,11.5Q179.5,11.3 183.1,9.5Q185.5,11.2 187.2,13.8" fill="none" stroke="#ffffff" stroke-width="2.1"></path><path d="M197,6.7Q186.8,11 190.1,14.6Q194.4,12.7 198,8.8Q201,10.2 203.6,13.2" fill="none" stroke="#ffffff" stroke-width="2.1"></path><path d="M205.7,7.8Q210,8.7 214.5,15.4" fill="none" stroke="#ffffff" stroke-width="2.1"></path><path d="M217.7,6.1Q203.7,19.2 203.6,19.2" fill="none" stroke="#ffffff" stroke-width="2.1"></path><path d="M235.1,1.2Q231.7,18.2 235.1,14.9" fill="none" stroke="#ffffff" stroke-width="2.1"></path><path d="M233.5,2.3Q246.4,.8 240.5,6.8Q236.6,10.7 246,17" fill="none" stroke="#ffffff" stroke-width="2.1"></path><path d="M252.6,13.8q-.3,8.7 1.7,7.5q6.3-3.7 6.4-3.7q1.3,2.3 1.7,4.9" fill="none" stroke="#ffffff" stroke-width="2.1"></path><path d="M302.7,.7Q322.1,-2.7 321.2,2.3" fill="none" stroke="#ffffff" stroke-width="2.1"></path><path d="M304.3,7.8Q317.5,8.4 328.3,8.9" fill="none" stroke="#ffffff" stroke-width="2.1"></path><path d="M350.6,-12.4q11.9,5.6 11.8,12.5q-5.9,6.8 -13,11.3" fill="none" stroke="#ffffff" stroke-width="2.3"></path><path d="M426.4,-10.6q-2.9,17 3,18.6q.5,.2 6.3-21.1q3.2-11.9 44.8-9.4q71.3,4.4 93.7,1q4.7-1.7 8.5-3.5" fill="none" stroke="#ffffff" stroke-width="2.3"></path><path d="M455.6,-10Q453.6,.2 456.6,1.3Q464,4.1 459.1,12.2Q457.2,15.5 450.8,6.1" fill="none" stroke="#ffffff" stroke-width="2.3"></path><path d="M452.6,-6.5q17.2-4.3 19.1,0" fill="none" stroke="#ffffff" stroke-width="2.3"></path><path d="M482.5,4.3Q483.4,3 484.2,1.9" fill="none" stroke="#ffffff" stroke-width="2.3"></path><path d="M535,-3.5Q534.6,-6.3 530.4,-5.8Q522.3,-4.7 531.2,4.4Q543.3,16.9 533,16.4Q529.1,16.3 537.2,-3.8Q537.3,-5.9 537,-7.7" fill="none" stroke="#ffffff" stroke-width="2.3"></path><path d="M513.5,-9.4Q509.6,7.4 512.5,13.2Q515.2,18.5 519,10.6Q520.5,7.4 515.6,1.5" fill="none" stroke="#ffffff" stroke-width="2.3"></path><path d="M587.5,-2.3Q594.4,-1.6 600,-1.1" fill="none" stroke="#ffffff" stroke-width="2.3"></path><path d="M590.5,11.4Q593.2,9.4 597,8.8Q608.5,9.9 617.9,12" fill="none" stroke="#ffffff" stroke-width="2.3"></path><path d="M663.8,1.7Q678.4,-8.1 681.5,-5Q681.6,3.5 679.2,11.2" fill="none" stroke="#ffffff" stroke-width="2.3"></path><path d="M708,-5.9Q701.2,-7.9 697.4,-4.4Q695,-2.2 704.3,12.8Q707.1,17.3 700.6,15.9Q693.4,14.3 701.4,-.4Q704.2,-3 706.9,-4.7" fill="none" stroke="#ffffff" stroke-width="2.3"></path><path d="M716.9,12.9q.7-1.3 1.2-2.3" fill="none" stroke="#ffffff" stroke-width="2.3"></path><path d="M743.4,-2.4Q738.3,-5.4 731.8,1.7Q728.4,5.4 739.9,4.1" fill="none" stroke="#ffffff" stroke-width="2.3"></path><path d="M746.4,-3Q741,14.1 743.4,14.7" fill="none" stroke="#ffffff" stroke-width="2.3"></path><path d="M760.5,-2.4Q768.7,2.1 767.6,8.6Q766.6,10.2 765.4,11.3Q767.5,12.7 770.9,13.6Q775.6,14.8 766,17.9Q755,19 745.8,18.8" fill="none" stroke="#ffffff" stroke-width="2.3"></path><path d="M-93.7,63.9q-5,9.4 -3.4,16.7q2.5,11.4 16.7,4.1q5.2-2.7 3.7-13.7q-.6-4.6 -4.3-.5q-2.1,2.4 8.6,22.6" fill="none" stroke="#ffffff" stroke-width="2.2"></path><path d="M-60,81.9q-2.8,7.9 -4.9,14.4q2.9-4.1 7.6-12.2q2.9-5.1 9.3,9.1q1.3,2.7 6.7-2.6q3-2.8 14.9,4.2" fill="none" stroke="#ffffff" stroke-width="2.2"></path><path d="M-13.5,85.3q-11.2,8.4 -5.4,12.2q2.8,1.9 7.1-10.9q3.7,3.9 7.3,11.6" fill="none" stroke="#ffffff" stroke-width="2.2"></path><path d="M-2.3,85.8Q4.7,93.2 12.3,98.7" fill="none" stroke="#ffffff" stroke-width="2.2"></path><path d="M12.9,89.7Q6.2,95.3 1.1,100.4" fill="none" stroke="#ffffff" stroke-width="2.2"></path><path d="M45.4,78.5q4.6-2 5.4,3.9q.7,8.7 1.2,15.9q2.6,.2 5.7-.7" fill="none" stroke="#ffffff" stroke-width="2.2"></path><path d="M83.5,70.7q-.6,1 -2.8,5" fill="none" stroke="#ffffff" stroke-width="2.2"></path><path d="M87.5,93.1q.4-.2 2.2-1.1" fill="none" stroke="#ffffff" stroke-width="2.2"></path><path d="M203.6,78.5q7.7,.9 14,1.7" fill="none" stroke="#ffffff" stroke-width="2.2"></path><path d="M206.4,86.9q6.4,0 11.7,0" fill="none" stroke="#ffffff" stroke-width="2.2"></path><path d="M267.5,84.1q-4.1,6 -7.9,10.7" fill="none" stroke="#ffffff" stroke-width="2.2"></path><path d="M252.9,75.2q15.8,2 13.9,8.4q-2.4,4.4 -4.9,7.8" fill="none" stroke="#ffffff" stroke-width="2.2"></path><path d="M388.1,68.4q-4.9,13.6 -1.5,15.2q8.9,4 11.2,8.3q2.2,4.1 -8.6,5.7" fill="none" stroke="#ffffff" stroke-width="2.2"></path><path d="M392,66.7q6.2,2.2 11.2,4" fill="none" stroke="#ffffff" stroke-width="2.2"></path><path d="M416.7,89.2q.1-.5 .5-2.3" fill="none" stroke="#ffffff" stroke-width="2.2"></path><path d="M441.9,71.8q13-4.7 16.9,1.6q2.5,4.1 -9.1,6.2q2.5,1.7 7.3,3.5q4.7,1.8 -2.3,6.8q-6.5,1.4 -12.2,1.5" fill="none" stroke="#ffffff" stroke-width="2.2"></path><path d="M469.4,74.6q13-3.2 15,3q1.2,3.9 -8.5,3.8q2.4,1.5 7.1,3.5q5.9,2.4 -1.8,9.1q-7.1,1 -13.5,.2" fill="none" stroke="#ffffff" stroke-width="2.2"></path><path d="M500.8,80.8q16.8-6.1 16,7q-.4,8.5 -18.5,4.6q-4.2-4 -7-8.3" fill="none" stroke="#ffffff" stroke-width="2.2"></path><path d="M342.7,83.6q6.4-1.6 11.4,4.4q4.5,8.6 7.5,16.2q-.1-6.4 -1.7-17.9q-4.1-29.1 38.8-33.2q.5-.1 129,11.4" fill="none" stroke="#ffffff" stroke-width="2.2"></path><path d="M580.8,64.9q23-5.1 23.5-.5" fill="none" stroke="#ffffff" stroke-width="1.9"></path><path d="M582.8,76.7q2.2-2.5 5.3-2.7q2.9-.2 14.2,3.7" fill="none" stroke="#ffffff" stroke-width="1.9"></path><path d="M675.8,72.3q-7.4-.3 -13.5,5.2q-.4,.4 -.2,2.6q1.3-.1 2.9-1" fill="none" stroke="#ffffff" stroke-width="1.9"></path><path d="M675.3,68.4q-4.6,16.6 -2,23.9" fill="none" stroke="#ffffff" stroke-width="1.9"></path><path d="M684.6,81.6q4.2-9.5 10.1-6.3q6.9,3.8 -1.4,11.3q-4.8,.8 -9.2,.4" fill="none" stroke="#ffffff" stroke-width="1.9"></path><path d="M711.5,95.8q-.7-.3 -3.4-1.5" fill="none" stroke="#ffffff" stroke-width="1.9"></path><path d="M729.1,71.8q-7.3,13.1 -6.4,21.8q.9,8.1 7.2,3q4-3.3 -2.3-13.1" fill="none" stroke="#ffffff" stroke-width="1.9"></path><path d="M743.8,79.1q4.1-2.3 7.3,.6q2.3,2.1 -6.5,14.7q-1.9,2.8 22.7,1.9" fill="none" stroke="#ffffff" stroke-width="1.9"></path><path d="M797.1,-6q2.6,23.6 11.4,15.9q9-17 14.1-32.6" fill="none" stroke="#ffffff" stroke-width="1.9"></path><path d="M790.8,68.9q.9,15.1 6.1,23q2.7,4.2 10.6-7.3q3.7-5.4 15.6-29" fill="none" stroke="#ffffff" stroke-width="2"></path><path d="M-63.7,151.7q1.7,10.4 2.8,19" fill="none" stroke="#ffffff" stroke-width="1.8"></path><path d="M-61.3,155q4.8-8.6 13.4-8.9q5.8-.2 1.7,10.9" fill="none" stroke="#ffffff" stroke-width="1.8"></path><path d="M-71.3,180.7q16.4-3.9 33.3-1.9" fill="none" stroke="#ffffff" stroke-width="1.8"></path><path d="M-58.5,186.9q-4.6,6.6 -1,17.3q1.8,5.6 9.7,5.4q2.4-7 2-15.4q-.9,.5 -2,1.8q-.6,.7 2.3,4.2" fill="none" stroke="#ffffff" stroke-width="1.8"></path><path d="M-17.6,167.8q4.6-4.2 13.8-5.2" fill="none" stroke="#ffffff" stroke-width="1.8"></path><path d="M-12.8,179.2q4.2-1.9 8.1-2.8" fill="none" stroke="#ffffff" stroke-width="1.8"></path><path d="M31.9,159.3q.5,3.8 .8,14.1q.3,7.1 .7,13" fill="none" stroke="#ffffff" stroke-width="1.8"></path><path d="M76.8,164.2q7.6-1.2 14-1.4" fill="none" stroke="#ffffff" stroke-width="1.8"></path><path d="M84.4,173.7q-1-.2 -1.8-.3q2.7,.6 7.7,1.6" fill="none" stroke="#ffffff" stroke-width="1.8"></path><path d="M113.8,167.3q.1-2.4 6.9-1.7q8.8,.8 .3,14.8" fill="none" stroke="#ffffff" stroke-width="1.8"></path><path d="M186.1,185.4q8.1-4.7 10.2-1.2q-.3,4.3 -1.6,8" fill="none" stroke="#ffffff" stroke-width="1.8"></path><path d="M165.3,162.4q1.7-2.7 2.5-.4q1.2,3 2.5,19.3" fill="none" stroke="#ffffff" stroke-width="1.8"></path><path d="M273.4,188.2q33.8-.1 61.5,0" fill="none" stroke="#ffffff" stroke-width="1.9"></path><path d="M369.4,173.3q22.4,1 22.1,1.9" fill="none" stroke="#ffffff" stroke-width="1.9"></path><path d="M372.8,181.9q23.3,1 24.9,2.4" fill="none" stroke="#ffffff" stroke-width="1.9"></path><path d="M294.1,163.7q.7,3.4 3.7,6.7q8.2,8.9 -6.6,7.7" fill="none" stroke="#ffffff" stroke-width="1.9"></path><path d="M297.9,160.8q11.9,.1 21.6,.5" fill="none" stroke="#ffffff" stroke-width="1.9"></path><path d="M267.2,211.7q6.8-8.1 9.7-4.3q.2,7.9 -1.6,14.9" fill="none" stroke="#ffffff" stroke-width="1.9"></path><path d="M292.1,204q-4.8-1.6 -3.9,3.4q2.5,7 4.9,12.6q1,2.3 -2.9,1.9q-2.3-.2 3.9-16.8q.2-.6 -.9-3" fill="none" stroke="#ffffff" stroke-width="1.9"></path><path d="M304.6,219.9q-.8-1.3 -1.4-2.4" fill="none" stroke="#ffffff" stroke-width="1.9"></path><path d="M320.9,204q-3.9-.2 -7,3.6q-5.7,6.7 -.2,5.5" fill="none" stroke="#ffffff" stroke-width="1.9"></path><path d="M317.1,205.5q-.6,8.8 2.9,14.4" fill="none" stroke="#ffffff" stroke-width="1.9"></path><path d="M329.1,204q7.5,1.2 8.6,5q-1,4 -2.7,7.3q2.1,1 5.3,1.1q2.2,.1 -.5,2.4q-1.3,1.1 -15.5,2" fill="none" stroke="#ffffff" stroke-width="1.9"></path><path d="M443.3,182.9q3.2-7.1 9.8-5q5.9,1.8 1.8,12.3q-1.3,3.4 -7.4,1.5q-.6-1.2 -.8-2.6" fill="none" stroke="#ffffff" stroke-width="1.9"></path><path d="M465.4,192q-2.6-.6 -4.8-.9" fill="none" stroke="#ffffff" stroke-width="1.9"></path><path d="M470.7,181.9q8.8-4 11.3,1.6q-.9,5.9 -3.1,10.8q-1.3,2.7 6.7-.8" fill="none" stroke="#ffffff" stroke-width="1.9"></path><path d="M491.3,181.9q7.5-3.7 9.2,1.1q-.5,6.8 -2,12.4" fill="none" stroke="#ffffff" stroke-width="1.9"></path><path d="M497.1,188.7q2.4,.2 4.3,.4" fill="none" stroke="#ffffff" stroke-width="1.9"></path><path d="M512.9,185.8q8.7-4.9 10.6-1.4q.8,1.4 -1.4,15.3" fill="none" stroke="#ffffff" stroke-width="1.9"></path><path d="M296.5,282.5q-.6,3.6 2,5.5q13.3,9.6 .9,11q-1.6,.2 -6.5-4.3" fill="none" stroke="#ffffff" stroke-width="2"></path><path d="M290.4,282.5q13.2-3.5 32-4" fill="none" stroke="#ffffff" stroke-width="2"></path><path d="M277.2,302.4q16.9-1.7 42.2,.5" fill="none" stroke="#ffffff" stroke-width="2"></path><path d="M284.8,316.6q10.3-6.7 15.8-4.8q3.5,1.2 1.5,12.9" fill="none" stroke="#ffffff" stroke-width="2"></path><path d="M376.3,289.7q4.2-3.8 17.3-3.1" fill="none" stroke="#ffffff" stroke-width="2"></path><path d="M377.3,293.7q7,2 12.8,3.6" fill="none" stroke="#ffffff" stroke-width="2"></path><path d="M450.1,281.5q-.9,4.2 1.4,5.6q6.3,3.8 6.4,4.8q-5.5,2.3 -12.4,2.3" fill="none" stroke="#ffffff" stroke-width="2"></path><path d="M450.1,278q8.4,.1 15.2,.5" fill="none" stroke="#ffffff" stroke-width="2"></path><path d="M479.6,301.3q19-26.4 19.9-16q-2,9.2 -4.7,16.6" fill="none" stroke="#ffffff" stroke-width="2"></path><path d="M484.1,295.2q6.4-1.1 11.7-2" fill="none" stroke="#ffffff" stroke-width="2"></path><path d="M-34.7,412.7q-2.8,11.1 -1.4,21.9q.4,2.7 13.1,3.8q3.9-9.1 3.9-20.6q0-3.5 -3.8-.3q-3.3,2.8 4.1,19.5q1,.7 2,1.1" fill="none" stroke="#ffffff" stroke-width="1.9"></path><path d="M.2,423.7Q4.9,423.7 8.7,423.7" fill="none" stroke="#ffffff" stroke-width="1.9"></path><path d="M5.7,430.1Q13.1,430.7 19.1,431.1" fill="none" stroke="#ffffff" stroke-width="1.9"></path><path d="M35.1,420.7q-1.2,15.9 -.5,17.4" fill="none" stroke="#ffffff" stroke-width="1.9"></path><path d="M32.6,419.2q10.5,1 12.7,5.1q1.7,3.1 2.2,17.2q-.1-1.9 -.2-5.4q3,.8 6.8,3.5" fill="none" stroke="#ffffff" stroke-width="1.9"></path><path d="M59.1,431.1q1.6,.3 2.9,.5" fill="none" stroke="#ffffff" stroke-width="1.9"></path><path d="M83.5,417.7q7.6,27.2 3,28.4" fill="none" stroke="#ffffff" stroke-width="1.9"></path></svg>