<svg viewBox="-301 -276 1191 1886" width="1191" height="1886" version="1.1" baseProfile="full" xmlns="http://www.w3.org/2000/svg" class="js-draw--autoresize"><style id="js-draw-style-sheet">path{stroke-linecap:round;stroke-linejoin:round;}text{white-space:pre;}</style><g class="js-draw-image-background js-draw-image-background-grid js-draw-image-background-grid-25"><path d="M890,1610l0-1886l-1191,0l0,1886l1191,0" fill="#03035e"></path><path d="M-301.35,-275l1191.7,0m-1191.7,25l1191.7,0m-1191.7,25l1191.7,0m-1191.7,25l1191.7,0m-1191.7,25l1191.7,0m-1191.7,25l1191.7,0m-1191.7,25l1191.7,0m-1191.7,25l1191.7,0m-1191.7,25l1191.7,0m-1191.7,25l1191.7,0m-1191.7,25l1191.7,0m-1191.7,25l1191.7,0m-1191.7,25l1191.7,0m-1191.7,25l1191.7,0m-1191.7,25l1191.7,0m-1191.7,25l1191.7,0m-1191.7,25l1191.7,0m-1191.7,25l1191.7,0m-1191.7,25l1191.7,0m-1191.7,25l1191.7,0m-1191.7,25l1191.7,0m-1191.7,25l1191.7,0m-1191.7,25l1191.7,0m-1191.7,25l1191.7,0m-1191.7,25l1191.7,0m-1191.7,25l1191.7,0m-1191.7,25l1191.7,0m-1191.7,25l1191.7,0m-1191.7,25l1191.7,0m-1191.7,25l1191.7,0m-1191.7,25l1191.7,0m-1191.7,25l1191.7,0m-1191.7,25l1191.7,0m-1191.7,25l1191.7,0m-1191.7,25l1191.7,0m-1191.7,25l1191.7,0m-1191.7,25l1191.7,0m-1191.7,25l1191.7,0m-1191.7,25l1191.7,0m-1191.7,25l1191.7,0m-1191.7,25l1191.7,0m-1191.7,25l1191.7,0m-1191.7,25l1191.7,0m-1191.7,25l1191.7,0m-1191.7,25l1191.7,0m-1191.7,25l1191.7,0m-1191.7,25l1191.7,0m-1191.7,25l1191.7,0m-1191.7,25l1191.7,0m-1191.7,25l1191.7,0m-1191.7,25l1191.7,0m-1191.7,25l1191.7,0m-1191.7,25l1191.7,0m-1191.7,25l1191.7,0m-1191.7,25l1191.7,0m-1191.7,25l1191.7,0m-1191.7,25l1191.7,0m-1191.7,25l1191.7,0m-1191.7,25l1191.7,0m-1191.7,25l1191.7,0m-1191.7,25l1191.7,0m-1191.7,25l1191.7,0m-1191.7,25l1191.7,0m-1191.7,25l1191.7,0m-1191.7,25l1191.7,0m-1191.7,25l1191.7,0m-1191.7,25l1191.7,0m-1191.7,25l1191.7,0m-1191.7,25l1191.7,0m-1191.7,25l1191.7,0m-1191.7,25l1191.7,0m-1191.7,25l1191.7,0m-1191.7,25l1191.7,0m-1191.7,25l1191.7,0m-1191.7,25l1191.7,0m-1191.7,25l1191.7,0m-1190.35-1876.35l0,1886.7m25-1886.7l0,1886.7m25-1886.7l0,1886.7m25-1886.7l0,1886.7m25-1886.7l0,1886.7m25-1886.7l0,1886.7m25-1886.7l0,1886.7m25-1886.7l0,1886.7m25-1886.7l0,1886.7m25-1886.7l0,1886.7m25-1886.7l0,1886.7m25-1886.7l0,1886.7m25-1886.7l0,1886.7m25-1886.7l0,1886.7m25-1886.7l0,1886.7m25-1886.7l0,1886.7m25-1886.7l0,1886.7m25-1886.7l0,1886.7m25-1886.7l0,1886.7m25-1886.7l0,1886.7m25-1886.7l0,1886.7m25-1886.7l0,1886.7m25-1886.7l0,1886.7m25-1886.7l0,1886.7m25-1886.7l0,1886.7m25-1886.7l0,1886.7m25-1886.7l0,1886.7m25-1886.7l0,1886.7m25-1886.7l0,1886.7m25-1886.7l0,1886.7m25-1886.7l0,1886.7m25-1886.7l0,1886.7m25-1886.7l0,1886.7m25-1886.7l0,1886.7m25-1886.7l0,1886.7m25-1886.7l0,1886.7m25-1886.7l0,1886.7m25-1886.7l0,1886.7m25-1886.7l0,1886.7m25-1886.7l0,1886.7m25-1886.7l0,1886.7m25-1886.7l0,1886.7m25-1886.7l0,1886.7m25-1886.7l0,1886.7m25-1886.7l0,1886.7m25-1886.7l0,1886.7m25-1886.7l0,1886.7m25-1886.7l0,1886.7" fill="none" stroke="#fcfca133" stroke-width=".7"></path></g><path d="M-192,1127l2-2l106,0l0-370l-106,0l0,370l-2,2l0-374l110,0l0,374l-110,0" fill="#ffffff"></path><path d="M-63,1240l2-2l451,0l0-625l-451,0l0,625l-2,2l0-629l455,0l0,629l-455,0" fill="#ffffff"></path><path d="M35.2,569.9l0,.2l.1,.1l0,.2l.2,.4l.2,.3l.1,.3l.5,.9l.4,1.3l1.1,6.6l.1,1.6l1.5,15.5l0,.4l.1,0l0-.2l.1-.3l3.6-21.6l.2-.3l0-.1l.3,.2l.3,1.2l0,.4l.2,.9l.1,1l.7,3l1.3,3.5l.8,1.7l2,3.3l1.1,1.3l1,.8l.6,.3l.6-.2l.1-.3l.3-1.9l0-1.1l.2-1.2l1.6-12.8" fill="none" stroke="#ffffff" stroke-width="1.8"></path><path d="M55.5,586.2l.1-.1l0-.1l.2-.1l.3-.2l.2-.3l.4-.2l.4-.4l.9-.7l.5-.3l.2-.4l0-.3l-.1-.2l-.1-.1l-.7,.2l-.4,.2l-1,.8l-.4,.6l-.4,.8l-.3,.9l-.1,1.1l0,1.1l.4,1.2l.6,1.1l.9,1l1,.7l1.3,.5l1.4,.2l1.2-.3l1.3-.5l1-.9l1-1.1l1.5-4.7" fill="none" stroke="#ffffff" stroke-width="1.8"></path><path d="M68.2,583.9l0,.1l.3,1.1l.1,.6l.2,.7l.8,7.1l0,.5l-.1,.1l0-.1l.1-.3l0-.6l.4-2l.9-2.4l3.6-5.7" fill="none" stroke="#ffffff" stroke-width="1.8"></path><path d="M81.7,571.7l.1,0l0,.4l.1,.4l0,1.4l.1,1.1l-.7,21.5l.4-3.1" fill="none" stroke="#ffffff" stroke-width="1.8"></path><path d="M89.9,581.6l-.1,.1l-.2,.1l-.3,.2l-1,.5l-.8,.3l-1.5,.8l-.7,.5l-.7,.6l-.5,.7l-.3,.8l0,.8l.3,.7l.4,.5l.6,.4l.8,.3l1.7,.4l1,.1l3.1-.1" fill="none" stroke="#ffffff" stroke-width="1.8"></path><path d="M104.4,578l-.2,0l-.2,.1l-.1,.1l-.2,0l-.4,.4l-.2,.6l0,1.1l.1,.7l.2,.8l.6,1.8l.9,4.7l.1,2.7l-.3,1l-.5,.8l-.6,.4l-.6,.1l-.8-.1l-.8-.3l-2.9-1.6l-1-.7l-.9-.8l-.7-.9l.8-1.8" fill="none" stroke="#ffffff" stroke-width="1.8"></path><path d="M113.9,573l-.1,.1l0,.1l-.1,.4l-.7,4.6l-.2,14.6l.2,1.5" fill="none" stroke="#ffffff" stroke-width="1.8"></path><path d="M113.9,585.2l0,.1l2.2,1.3" fill="none" stroke="#ffffff" stroke-width="1.8"></path><path d="M121.5,584.3l-.1,.2l-.2,.2l-.1,.2l-.3,.8l-.1,.6l0,1.7l.5,2.1l.5,.9l1.4,1.7l.8,.7l.8,.3l.6,0l.6-.3l.8-1l.3-.7l.4-2.8" fill="none" stroke="#ffffff" stroke-width="1.8"></path><path d="M124.7,581.2l0-.1l.1,0l0-.3l.4-.6l.3-.3l.4-.1l.3,.1l1.7,2.2" fill="none" stroke="#ffffff" stroke-width="1.8"></path><path d="M140.5,583.4l0,.1l-.4,.2l-.2,.2l-.5,.2l-.6,.3l-.8,.3l-1.8,1l-.8,.8l-.7,.9l-.3,.9l0,1l.3,.8l.6,.7l.8,.5l.9,.2l1,.1l1.1-.1l1.2-.4l4.3-2.7" fill="none" stroke="#ffffff" stroke-width="1.8"></path><path d="M148.2,573l0,.2l-.1,.2l0,.6l-.2,.7l-.3,3.6l.6,16.9" fill="none" stroke="#ffffff" stroke-width="1.8"></path><path d="M156.4,583.4l-.1,.1l-.1,0l-.2,.1l-.3,.1l-.3,.2l-.5,.2l-.4,.4l-.6,.3l-1.2,1.8l-.2,.6l0,.6l.2,.5l.6,.5l.8,.4l7.3,1.5" fill="none" stroke="#ffffff" stroke-width="1.8"></path><path d="M-202.4,715.6l0,.2l-.1,.3l0,1l-.1,.8l.3,6.4l.7,5l.8,3" fill="none" stroke="#ffffff" stroke-width="1.5"></path><path d="M-202.4,716.4l0-.1l.2-.1l.3-.2l.4-.2l.5-.2l.7-.2l.7,0l.7,.1l.7,.4l.7,.5l.6,.8l.5,.8l.4,1.1l.3,1.2l.3,2.3l-.2,1l-.4,.8l-.6,.5l-.8,.3l-.9,.1l-.8-.1l-3.7-1.7" fill="none" stroke="#ffffff" stroke-width="1.5"></path><path d="M-193.3,723.1l0,.1l.1,.2l0,.2l.1,.3l.2,1.1l.3,.8l.2,1l1.9,6.2l.1,0l-.1-.2l-.1-.3l-.1-.6l-.6-2.5l-.1-1.1l0-1.1l.5-2.9" fill="none" stroke="#ffffff" stroke-width="1.5"></path><path d="M-182.6,724.3l0,.1l-.1,0l-.1,.2l-.2,.2l-.2,.8l-.1,.7l0,.7l.1,.8l.2,.9l.5,.9l.6,.7l.9,.5l.9,.3l1.1-.1l2.1-.7l1-.6l.2-.2l.2-.1l2.1-3.1" fill="none" stroke="#ffffff" stroke-width="1.5"></path><path d="M-183.4,718.8l.1-.1l.5,0l.4-.1l7.4,.2" fill="none" stroke="#ffffff" stroke-width="1.5"></path><path d="M-162.7,713.6l-.3,0l-.8,.3l-.6,.4l-1.4,1.6l-1.3,2.5l-.4,1.5l-.2,1.7l.1,1.8l.9,3.5l.6,1.7l2.2,3.7" fill="none" stroke="#ffffff" stroke-width="1.5"></path><path d="M-171.8,726.3l.1,0l.2-.1l.3-.2l7.7-.9" fill="none" stroke="#ffffff" stroke-width="1.5"></path><path d="M-157.5,712.4l.1,8.3l1.3,7.5l1.8,3.7" fill="none" stroke="#ffffff" stroke-width="1.5"></path><path d="M-150.3,721.9l-.1,.1l-.2,0l-.3,.2l-.9,.5l-.6,.4l-.6,.5l-.4,.6l-.2,.7l.1,.7l2.8,2.7" fill="none" stroke="#ffffff" stroke-width="1.5"></path><path d="M-146.4,725.9l-.2-.1l-.3-.3l0-.4l.3-.2l.4-.2l.5-.2l.7-.2l.8-.1l.9-.2l.8,.1l.9,.2l.7,.4l.6,.6l.3,.6l.1,.6l-.4,1.1l-.8,.6l-.6,.1l-.6,0l-2.1-1.6" fill="none" stroke="#ffffff" stroke-width="1.5"></path><path d="M-137.6,727.5l0-.1l-.1-.2l0-.2l-.1-.3l.1-.4l0-.4l.2-.5l.3-.5l.5-.4l.7-.4l.7-.3l.8-.1l1.9,0l.8,.3l.7,.4l.6,.5l.5,.5l.2,.6l0,.5l-.2,.4l-.3,.3l-.5,.3l-.6,.1l-.7,.2l-.8,.1l-.9,.3l-.8,.4l-.8,.6l-.8,.8l-.6,.9l-.5,1.1l-.4,1.2l-.2,1.1l0,1.1l.2,.9l.4,.8l.6,.4l1.5-.5" fill="none" stroke="#ffffff" stroke-width="1.5"></path><path d="M-117.7,715.6l-.1,0l0-.1l-.1,.1l-.1,0l-.6,.4l-.4,.5l-.4,.7l-.8,1.9l-.3,1.2l-.2,1.4l-.1,1.6l.1,1.8l1,5.4l.5,1.8l.4,2l-.1,.8" fill="none" stroke="#ffffff" stroke-width="1.5"></path><path d="M-126.1,727.9l.2,0l.3-.1l.9-.1l11.7-.2" fill="none" stroke="#ffffff" stroke-width="1.5"></path><path d="M-76.5,762.3l1.2,.5q1.1-2.8 2.1-6.2l-1.4-.4q-.9,3.4 -1.9,6.1 M-71.9,764.8l.2-1.4q-2.3-.4 -3.8-1.4l.2,.8l-1.2-.5q2.1,2 4.6,2.5 M-74.3,769.4l1.1,.8q3.9-5.9 1.5-6.8l-.2,1.4q1.2-.3 -2.4,4.6 M-75,770.2l.9,1q.4-.4 .9-1l-1.1-.8q-.4,.4 -.7,.8 M-71,771.9l0-1.3q-2.1-.1 -3.3-.6l.2,1.2l-.9-1q1.7,1.7 4,1.7 M-74.2,776.6l1,.9q5-6.4 2.2-6.9l0,1.3q1.5-.4 -3.2,4.7 M-72.5,782l.2-1.3q-3.8-.2 -.9-3.2l-1-.9q-3.2,4.4 1.7,5.4 M-74.8,787.9l1.1,.7q4.3-7 1.4-7.9l-.2,1.3q1.8-.1 -2.3,5.9 M-72.8,790.9l.2-1.4q-2.1,.1 -1.1-.9l-1.1-.7q-1.1,2.3 2,3 M-75.3,793.7l1,.9q3.5-4.4 1.7-5.1l-.2,1.4q.6-.5 -2.5,2.8 M-71.9,797.1l0-1.3q-4.3,.3 -2.4-1.2l-1-.9q-2.1,3.1 3.4,3.4 M-74.1,802.2l1.1,.9q5.3-6.9 1.1-7.3l0,1.3q2.9-.4 -2.2,5.1 M-69.6,805.7l.2-1.4q-4.8-.5 -3.6-1.2l-1.1-.9q-1.3,2.3 4.5,3.5 M-72.5,815.1l1.4-.2q-.3-1.6 -.1-3.5q3.8-6.2 1.8-7.1l-.2,1.4q.9-.3 -2.9,5.3q-.3,2.3 0,4.1" fill="#d918d2"></path><path d="M-71.9,811.8l1,1q-.8-.2 -3,1.2l1,1q2.2-3.4 1-3.2 M-74.8,813.5l.7,1.2q1.4-.7 3.1-1.8l.1-.1l-1-1q-1.5,.9 -2.9,1.7 M-73.1,815l0-1.4q-.7,0 -1.1-.2l.1,1.3l-.7-1.2q.7,1.5 1.7,1.5 M-76.8,822l1.3,.8q2.6-4.5 3.1-8.4l-.7-.8l0,1.4q-1.2,2.8 -3.7,7 M-71.9,823l-.2-1.4q-2.4,.4 -3.9,.1l.5,1.1l-1.3-.8q2.3,1.4 4.9,1 M-76.6,829.5l1.1,.8q3.2-4.4 4.2-7.8l-.8-.9l.2,1.4q-1.7,2.2 -4.7,6.5 M-69.9,830.4l-.3-1.4q-3.5,.6 -5.7,.2l.4,1.1l-1.1-.8q2.9,1.5 6.7,.9 M-76.4,838.4l1.1,.9q4.3-5.3 5.9-9.3l-.8-1l.3,1.4q-2.3,2.9 -6.5,8 M-70.3,841l-.2-1.4q-7,1.5 -4.8-.3l-1.1-.9q-2.3,3.6 6.1,2.6 M-74.7,849.8l1.3,.7q5.8-10.8 2.9-10.9l.2,1.4q1.3-.8 -4.4,8.8 M-71.3,856l-.1-1.5q-5.1,.8 -2-4l-1.3-.7q-3,6.2 3.4,6.2 M-75.2,864.1l1.2,.8q6.3-10.1 2.6-10.4l.1,1.5q2.2-.8 -3.9,8.1 M-70.8,868.8l0-1.4q-5.5,.3 -3.2-2.5l-1.2-.8q-2.3,4.3 4.4,4.7 M-74.3,879.5l1.2,.8q7.9-12.3 2.3-12.9l0,1.4q4.2-.4 -3.5,10.7 M-70.3,882.8l-.4-1.4q-4.9,1.7 -2.4-1.1l-1.2-.8q-2.5,4.5 4,3.3 M-74.4,887.6l1.2,.8q4.6-6.9 2.5-7l.4,1.4q.4-.8 -4.1,4.8 M-74.6,892l.3-1.4q-.9,.2 1.1-2.2l-1.2-.8q-2.2,3.4 -.2,4.4 M-69.6,890.1l-.7-1.2q-1.9,1 -4.3,1.7l.3,0l-.3,1.4q2.9-.7 5-1.9 M-72.7,892.3l1,1q3.5-4.8 1.4-4.4l.7,1.2q.2-.8 -3.1,2.2 M-72.2,898.5l-.3-1.4q-4.5,1.6 .8-3.8l-1-1q-5.5,7.1 .5,6.2 M-72.6,904.5l1.1,.8q6.1-9.4 -1-8.2l.3,1.4q5.6-1.9 -.4,6 M-72.9,914.3l-.6-1.4q-6.2,3.3 2-7.6l-1.1-.8q-8.2,12.5 -.3,9.8 M-71.8,913.4l1.4,.5q.1-1.9 -3.1-1l.6,1.4q1.8-1.2 1.1-.9 M-81,924.1l1,1q4.7-4.7 9.5-11l.1-.2l-1.4-.5q-4.6,6.1 -9.2,10.7 M-79,927l0-1.5q-2.7,.6 -1-.4l-1-1q-2,2.6 2,2.9 M-69.2,923.7l-.6-1.3q-4.2,1.7 -9.4,3.2l.2-.1l0,1.5q5.5-1.5 9.8-3.3 M-75.5,929.3l1,1q3.9-4.1 5.6-6.9l-.9-1l.6,1.3q-2.5,1.6 -6.3,5.6 M-69.8,934.6l-.1-1.5q-8.9,1 -4.6-2.8l-1-1q-4.6,5.5 5.7,5.3 M-71.3,938.2l1.2,.8q3.6-5.6 .2-5.9l.1,1.5q1.9-.7 -1.5,3.6 M-75.9,957.2l1.4,.2q2.3-15.3 4.4-18.4l-1.2-.8q-2.3,3.5 -4.6,19" fill="#d918d2"></path><path d="M-70.3,955.7l1.6,.7q.9-4.1 -4.5,2.7l1.6,1q3-6.2 1.3-4.4 M-78.7,963.5l1.1,1.5q4.4-3.5 8.8-8.3l.1-.3l-1.6-.7q-4.2,4.5 -8.4,7.8 M-70.9,962.8l-.6-1.7q-4.4,1.7 -6.9,2.3l.8,1.6l-1.1-1.5q3.4,1 7.8-.7 M-75.2,966.4l1.4,1.1q4.7-6.5 2.3-6.4l.6,1.7q.2-1 -4.3,3.6 M-74.7,976.5l.1-1.8q-5.8,.1 .8-7.2l-1.4-1.1q-6.9,9 .5,10.1 M-76,989l1.4,1.1q10.9-13.9 0-15.4l-.1,1.8q9.2,.3 -1.3,12.5 M-74,994l-.3-1.7q-3.8,1.2 -.3-2.2l-1.4-1.1q-3.7,5.3 2,5 M-67.9,994.4l1.6-.7q-1.3-2.4 -8-1.4l.3,1.7q5.8-1 6.1,.4 M-76.9,1011.9l1.5,.8q9.5-18.1 9.1-19l-1.6,.7q.4,.9 -9,17.5 M-69.3,1015.6l-.8-1.6q-9.5,5.2 -5.3-1.3l-1.5-.8q-4,8.6 7.6,3.7 M-75.5,1025.9l1.4,1.1q10.1-15.1 4-13l.8,1.6q3.8-2.7 -6.2,10.3 M-70.9,1032.9l-.5-1.8q-8.2,2.7 -2.7-4.1l-1.4-1.1q-5.6,8.9 4.6,7 M-71.7,1037.6l1.5,.9q4.3-8.1 -1.2-7.4l.5,1.8q3.4-1.6 -.8,4.7 M-79.1,1048.2l1.4,1.1q3.5-4.8 7.5-10.7l0-.1l-1.5-.9q-4,5.9 -7.4,10.6 M-72,1052.4l-.3-1.7q-8.9,2.3 -5.4-1.4l-1.4-1.1q-3.5,5.9 7.1,4.2 M-73.2,1068.1l1.7,.6q6.2-18.9 -.8-18l.3,1.7q5.2-1.7 -1.2,15.7 M-71,1076.3l-1-1.5q-3.2,3.2 .5-6.1l-1.7-.6q-3.2,11.2 2.2,8.2 M-69.4,1075.1l1.8,.1q-.4-2.7 -4.4-.4l1,1.5q2.3-2.1 1.6-1.2 M-74.3,1086.8l1.6,.8q2.7-5.4 5.1-12.1l0-.3l-1.8-.1q-2.3,6.4 -4.9,11.7 M-69.9,1090.4l.6-1.7q-2.2-.8 -3.6-2.1l.2,1l-1.6-.8q1.9,2.7 4.4,3.6 M-77.8,1099l1.3,1.3q5.4-5.2 7.7-10.4l-.5-1.2l-.6,1.7q-2.7,3.6 -7.9,8.6 M-76.7,1105.5l.4-1.8q-3.9-.4 -.2-3.4l-1.3-1.3q-4.2,4.7 1.1,6.5 M-71,1104.1l-.6-1.7q-2.3,.8 -5,1.3l.3,0l-.4,1.8q3.3-.5 5.7-1.4 M-79.9,1112.4l1.3,1.3q5.6-5.9 8-10l-1-1.3l.6,1.7q-3.4,2.6 -8.9,8.3 M-75.3,1122.8l1.8-.4q-.7-2 -3.9-2.6q-6.9-.7 -1.2-6.1l-1.3-1.3q-6.2,7.2 2.2,9.1q2.4,.3 2.4,1.3 M-77.8,1130.6l1.6,.8q3.1-6.9 2.7-9l-1.8,.4q.4,1.3 -2.5,7.8" fill="#d918d2"></path><path d="M-292.9,1197.2l2.4,.4q0-.3 0-26.8l-2.4,0q0,26.1 0,26.4 M-291.7,1192.9l-2.4,.6q.6,2.8 1.3,4.4l2.3-.3l-2.4-.4q1.7-1.6 1.2-4.3" fill="#d918d2"></path><path d="M-288.3,1180.6l1.9,1.5q5-6.9 5.6-4.5l2-1.2q-2.9-3.6 -9.5,4.2 M-280.1,1193.1l-.7-2.3q-18.2,5.9 -5.6-8.7l-1.9-1.5q-12.7,17.4 8.2,12.5" fill="#d918d2"></path><path d="M-272.4,1184.3l.2-2.4q-6.5,.1 -5.1,9.7l2.4-.4q-1.8-7.8 2.5-6.9 M-271.7,1191.1l2.1,1.2q4.7-9.1 -2.6-10.4l-.2,2.4q5.3-.2 .7,6.8 M-275.8,1190l-1.8,1.5q4.9,5.2 8,.8l-2.1-1.2q-1.1,3.2 -4.1-1.1" fill="#d918d2"></path><path d="M-260.4,1183l2-1.4q-4.8-5.1 -5.8,8.5l2.4,0q-.5-11.4 1.4-7.1 M-267,1194.6l1.3,2q11.8-7.7 7.3-15l-2,1.4q4.2,5.2 -6.6,11.6 M-265.2,1210.7l2-1.3q-7.2-10.5 -2.5-12.8l-1.3-2q-5.8,4.1 1.8,16.1" fill="#d918d2"></path><path d="M-245.7,1188.3l1.4-1.9q-6.5-4.3 -12.8,5.6l2,1.2q5-8.7 9.4-4.9 M-246.8,1192.6l.9,2.2q7.3-3.5 1.6-8.4l-1.4,1.9q4.7,2.6 -1.1,4.3 M-254.4,1193.6l.2,2.4q3.7-.3 8-1.1l.3-.1l-.9-2.2q-4,.7 -7.6,1 M-258.1,1206.9l2.4-.3q-1.9-10.9 1.5-10.6l-.2-2.4q-5.3,.9 -3.7,13.3 M-254.1,1209.4l-.4-2.4q-1.5,.6 -1.2-.4l-2.4,.3q.8,2.7 4,2.5" fill="#d918d2"></path><path d="M-240.5,1193.2l2.2-1.1q-2-4 -1.7-18.2l-2.4,0q-.3,14.6 1.9,19.3 M-235.3,1193.8l-.4-2.4q-3,.8 -2.6,.7l-2.2,1.1q1.2,1.3 5.2,.6" fill="#d918d2"></path><path d="M-225.4,1193.5l-.3-2.4q-3.3,.9 -1.8-9.6l-2.4-.2q-1.1,12.1 4.5,12.2 M-223.4,1188.4l-2.4-.2q-.1,2 -.9,3.6l1-.7l.3,2.4q1.9-2.7 2-5.1 M-220.9,1192.8l1.8-1.6q-2.6-2.8 -4.9-4l-1.8,1l2.4,.2q.2,1.9 2.5,4.4" fill="#d918d2"></path><path d="M-213.9,1194.6l-1.8-1.6q-.9,2.5 2.6-8.8l-2.4-.6q-2.5,13.8 1.6,11 M-209.9,1191.2l1.6-1.8q-2.4-1.4 -7.4,3.6l1.8,1.6q3.8-4.3 4-3.4 M-206.8,1194.7l1.2,2q2.6-2.3 -2.7-7.3l-1.6,1.8q4.5,3.4 3.1,3.5" fill="#d918d2"></path><path d="M-198.4,1193.7l-.5-2.4q-6.8,2.3 5.4-9.7l-1.8-1.6q-12.6,14.6 -3.1,13.7 M-193.4,1189.9l-1.7-1.8q-1.8,1.8 -4.2,3.4l.4-.2l.5,2.4q3-2 5-3.8 M-192.3,1199.3l2.4-.2q-1.8-12.9 -5.2-11l1.7,1.8q.3-1.7 1.1,9.4 M-195.4,1206.7l1.2,2.1q4.8-3 4.3-9.7l-2.4,.2q.7,5.5 -3.1,7.4 M-195.1,1200.1l-2.4,0q.5,9.2 3.3,8.7l-1.2-2.1q.1,.9 .3-6.6" fill="#d918d2"></path><path d="M-186.2,1184.2l2.4,.1q-.8-4 3.6,1.1l1.6-1.8q-6.8-5.6 -7.6,.6 M-182.1,1194.5l2.2-1.1q-2.2-4.2 -4-9.5l.1,.4l-2.4-.1q1.9,5.9 4.1,10.3 M-189.1,1194.5l-.5,2.4q11.5,1.9 9.7-3.5l-2.2,1.1q2.3,2.6 -7,0" fill="#d918d2"></path><path d="M-173.2,1197.8l2.3-.4q-1-5.6 -2.3-12.5l-2.4,.4q1.3,6.9 2.4,12.5 M-169.1,1189.9l-2.4-.4q-.8,5.1 -1.7,7.7l2.3,.2l-2.3,.4q3.3-2.7 4.1-7.9 M-166.4,1194.8l1.9-1.6q-2.7-3.1 -5.1-4.6l-1.9,.9l2.4,.4q.3,2 2.7,4.9 M-160.4,1191l-1.9-1.5q-1.8,2.4 -3.8,3.5l1.6,.2l-1.9,1.6q3.9-1.1 6-3.8 M-157.3,1196.9l2-1.2q-2.4-4.1 -5.4-6.4l-1.6,.2l1.9,1.5q.9,2.2 3.1,5.9" fill="#d918d2"></path><path d="M-151.3,1195.7l2.4,0q0-3.4 0-7.5l-2.4,0q0,4.1 0,7.5" fill="#d918d2"></path><path d="M-155.3,1176.7l1.6,1.8q.3-.3 .7-.6l-1.6-1.8q-.4,.3 -.7,.6" fill="#d918d2"></path><path d="M-140.7,1196.2l2.4,.2q.1-.9 -3.1-24l-2.4,.4q3.2,22.4 3.1,23.4" fill="#d918d2"></path><path d="M-138.1,1186l-1.6-1.8q-2.2,2 -5,4.4l1.6,1.8q2.8-2.4 5-4.4" fill="#d918d2"></path><path d="M-129.3,1197l2-1.3q-4.8-6.8 -4.1-23.7l-2.4,0q-.6,17.5 4.5,25" fill="#d918d2"></path><path d="M-119.9,1183.5l-2.3-.8q-1.7,5.3 -12.4,6.2l.2,2.4q11.9-1.3 14.5-7.8 M-123.1,1180.8l1.1,2.2q1-1.4 -.2-.3l2.3,.8q.5-3.8 -3.2-2.7 M-124,1195.8l2.1-1.3q-5.7-9 -.1-11.5l-1.1-2.2q-6.9,4.2 -.9,15 M-119.3,1196.3l-.4-2.4q-2.6,.7 -2.2,.6l-2.1,1.3q1.2,1.1 4.7,.5" fill="#d918d2"></path><path d="M-104.5,1206.6l2.4-.6q-3.2-14.7 -6.3-32.9l-2.4,.4q3.2,18.2 6.3,33.1" fill="#d918d2"></path><path d="M433,1124l2-2l442,0l0-468l-442,0l0,468l-2,2l0-472l446,0l0,472l-446,0" fill="#ffffff"></path><path d="M493.6,621.4l1-1.8q-3.7-1.8 -6.9,1.4l1.6,1.4q2-2.5 4.3-1 M492.7,629.9l1.7,1.2q5.4-8.2 .2-11.5l-1,1.8q4.1,1.8 -.9,8.5 M486.3,630.6l-.5,2q6.4,1.3 8.6-1.5l-1.7-1.2q-1.1,2 -6.4,.7 M486.3,629l-2,.2q.4,2.8 1.5,3.4l.5-2q.2,.3 0-1.6" fill="#ffffff"></path><path d="M504.3,626.3l2-.5q-1.6-4.4 1.6-2.6l.6-2q-5.3-1.3 -4.2,5.1 M507.8,636l2-.8q-1.7-4.2 -3.5-9.4l-2,.5q1.9,5.4 3.5,9.7 M502.9,631.4l-1.2,1.8q4,2.5 6.8,3.4l1.3-1.4l-2,.8q-1.2-2.1 -4.9-4.6" fill="#ffffff"></path><path d="M519,630.8l2-.2q-.9-6.6 -8.1-6.2l.2,2q5.7-.8 5.9,4.4 M517.6,637l1.9,.6q.9-3 1.5-6.7l0-.3l-2,.2q-.6,3.3 -1.4,6.2 M523.7,636.4l-1-1.8q-2.6,1.4 -4.3,1.7l1.1,1.3l-1.9-.6q3.3,.9 6.1-.6" fill="#ffffff"></path><path d="M531.2,634.5l2,0q0-2.4 0-5.4l-2,0q0,3 0,5.4" fill="#ffffff"></path><path d="M531.8,616.7l2-.8q-.3-.7 -.6-1.6l-2,.8q.4,.8 .6,1.6" fill="#ffffff"></path><path d="M545.5,635.1l-2-.2q.2,6.5 -1.2-19.7l-2,.2q3.3,28 5.2,19.7" fill="#ffffff"></path><path d="M554.4,625l.9-1.9q-4.2-1.4 -5.9,5.3l2,.4q.8-5.3 3-3.8 M556.5,631.8l1.6,1.3q4.4-6.3 -2.8-10l-.9,1.9q6,2.3 2.1,6.8 M550.7,630.8l-.6,2q6.6,1.6 8,.3l-1.6-1.3q-.1,.5 -5.8-1" fill="#ffffff"></path><path d="M568.3,631l2.1-.3q-1-5.2 6.2-5.9l-.2-2q-8.6,1.4 -8.1,8.2 M578.2,631.1l-.5-2q-4.5,1.2 -8.2,.7l.9,.9l-2.1,.3q5.1,1.4 9.9,.1 M575.3,636.3l2,.8q1.6-4 1.7-7l-1.3-1l.5,2q-1.3,1.5 -2.9,5.2 M570.5,634l-1.8,1q5.2,8.4 8.6,2.1l-2-.8q-1.3,5.1 -4.8-2.3" fill="#ffffff"></path><path d="M583.9,633.4l-1.6,1.4q4.6,3.8 2.2-7l-2,.6q3.3,8.5 1.4,5 M586.4,630.9l-1.6-1.4q-1.7,1.9 -2.6,4.2l.1,1.1l1.6-1.4q.9-.9 2.5-2.5" fill="#ffffff"></path><path d="M594.5,635.5l.8-1.9q-2.7-.6 2.8-7.1l-1.6-1.2q-5.9,7.9 -2,10.2 M598,628.9l-2.1,.3q1.2,5.9 -.6,4.4l-.8,1.9q4.1,1.1 3.5-6.6 M600.9,633.6l1.4-1.4q-2.7-2.8 -4.8-4l-1.6,1l2.1-.3q.3,2.1 2.9,4.7" fill="#ffffff"></path><path d="M618.9,628.1l1.8-1.2q-6.3-8 -11.6,4l2,.8q3.6-10.8 7.8-3.6 M610.9,632.2l-.2,2q14.4,.4 10-7.3l-1.8,1.2q4.5,5.4 -8,4.1 M605.5,638.1l1.8-.8q-2.3-3.9 3.4-3.1l.2-2q-7.6,0 -5.4,5.9 M611.3,639.2l-.2-2q-2.2,.1 -4.4-.5l.6,.6l-1.8,.8q3.2,1.3 5.8,1.1" fill="#ffffff"></path><path d="M626.8,634.5l-1.7-1.1q.5,1.1 .4-16.5l-2,0q1.2,19.4 3.3,17.6 M636.5,634.6l1.7-1.3q-7.4-8.8 -13.1,.1l1.7,1.1q4.1-7.9 9.7,.1" fill="#ffffff"></path><path d="M645.5,635l-.7-2q-4.3,2.1 -4.3-7.6l-2,0q.7,11.3 7,9.6 M651.3,628.9l-1.6-1.3q-2.2,2.8 -5.3,5.6l.4-.2l.7,2q3.5-3.2 5.8-6.1 M649.7,630.2l2,0q-.5-3.2 -2-2.6l1.6,1.3q-1.1-.1 -1.6,1.3" fill="#ffffff"></path><path d="M662.4,621.4l1.8,1q.3-2.1 -.1,.4l2-.2q-1.1-4.3 -3.7-1.2 M664.8,634.5l2-.6q-2-5.6 -2.5-12.1l-.1,.6l-1.8-1q.4,7.3 2.4,13.1 M656.8,631.9l-.6,2q5.6,1.6 9.7,1.3l.9-1.3l-2,.6q-2.7-1 -8-2.6" fill="#ffffff"></path><path d="M666,636.1l1.4-1.5q-3-1.8 10.3-5l-.6-2q-14.6,4.3 -11.1,8.5 M679.8,634.4l-.6-2q-5.9,1.9 -12.5,1.9l.7,.3l-1.4,1.5q7.6,.3 13.8-1.7" fill="#ffffff"></path><path d="M681.2,637.1l2-.2q-.5-3.8 2.1-22.1l-2-.2q-2.7,18.4 -2.1,22.5 M686.6,633.1l-1.8-1.1q-1.8,2.9 -3.3,4.2l1.7,.7l-2,.2q3.5-.9 5.4-4 M693.1,636.2l1.6-1.4q-6.7-6.9 -9.9-2.8l1.8,1.1q1.3-3.2 6.5,3.1" fill="#ffffff"></path><path d="M698.2,634.4l2,.2q.3-2.4 .6-5.4l-2-.2q-.4,3 -.6,5.4" fill="#ffffff"></path><path d="M698.2,619.5l2,0q0-.4 0-1l-2,0q0,.6 0,1" fill="#ffffff"></path><path d="M712.7,634.3l-2-.2q.8,1.7 -.9-6.9l-2,.6q3.7,10.1 4.9,6.5 M713.6,626.6l-2-.2q-.8,6.2 -.9,7.7l2,.2q.2-1.5 .9-7.7" fill="#ffffff"></path><path d="M726.7,632.9l-2-.7q.4,1.6 .6-6.4l-2,.2q1.3,9.8 3.4,6.9 M730.1,630l1.6-1.3q-3.7-3.9 -7,3.5l2,.7q1.8-6 3.4-2.9 M729.9,633l2,.3q.3-1.9 0-4.1l-.2-.5l-1.6,1.3q0,1.4 -.2,3 M744.8,641.4l1.8-1q-3.3-6.3 -8.2-10.4q-4.8,1.9 -7.6,2.1l1.1,1.2l-2-.3q4.3,.8 8.3-1.2q3.5,3.6 6.6,9.6" fill="#ffffff"></path><path d="M427,1168.8l2-1.6q-1.2-1.2 .3-16.1l-2.6-.2q-1.4,15.4 .3,17.9" fill="#ffffff"></path><path d="M439.3,1149.2l-.6-2.4q-6,1.6 -13.1,4l.8,2.4q7-2.4 12.9-4" fill="#ffffff"></path><path d="M440.8,1152.5l2.4-1q-.1-.2 -18.5,3.2l.6,2.6q15.5-4.9 15.5-4.8" fill="#ffffff"></path><path d="M442.4,1163.2l-.8-2.4q-7.6,2.1 -17,5l.8,2.4q9.3-2.8 17-5" fill="#ffffff"></path><path d="M449.8,1167l-1.6-2q-2.7,3.6 2-6.5l-2.4-1q-4,13 2,9.5" fill="#ffffff"></path><path d="M445.7,1153l2.6,0q0-.4 0-1l-2.6,0q0,.6 0,1" fill="#ffffff"></path><path d="M458.3,1163.4l-2.5-.8q.6,2.3 2.5-7.5l-2.6-.2q0,12.5 2.6,8.5 M467.6,1168.2l2.3-1.2q-9.3-16.4 -14.1-4.4l2.5,.8q2.4-10.2 9.3,4.8" fill="#ffffff"></path><path d="M476.4,1163.2l-.6-2.5q-1.8,1.4 2.3-4l-2.2-1.4q-4.2,8.1 .5,7.9 M479,1162.6l1.7-1.9q-1.3-.8 -4.9,0l.6,2.5q2.8-.7 2.6-.6 M479,1174.4l.5,2.6q14.3-3.5 1.2-16.3l-1.7,1.9q12.3,10.3 0,11.8 M475.1,1169.3l-2.2,1.4q2.3,3.4 5.6,6l1,.3l-.5-2.6q-1.9-2 -3.9-5.1" fill="#ffffff"></path><path d="M492.1,1170.2l-.2-2.6q-4.6,1 -1.6-10.3l-2.6-.6q-2.5,13.3 4.4,13.5 M495,1159.3l-2.6,0q.1,5 -1.6,9.2l1.1-.9l.2,2.6q2.9-5.4 2.9-10.9 M497.9,1167.6l2.2-1.2q-3-5.3 -5.5-8l-2.2,.9l2.6,0q0,3.3 2.9,8.3" fill="#ffffff"></path><path d="M506.7,1165.5l-2.4-.8q-.8,5.9 0-8.7l-2.6,0q1.3,17.1 5,9.5 M510.1,1163.4l2.4-1q-4-7.9 -8.2,2.3l2.4,.8q1.9-8.4 3.4-2.1 M511.8,1168.4l2.4-.8q-1.3-4.1 -1.7-5.2l-2.4,1q.4,.9 1.7,5" fill="#ffffff"></path><path d="M519.2,1162.7l.5-2.6q-3.5,.4 3.9-3l-1.2-2.2q-8.8,5.8 -3.2,7.8 M525.4,1161.9l-.6-2.6q-2.4,.6 -5.5,.8l.4,0l-.5,2.6q3.5-.3 6.2-.8 M526.2,1171.1l2.6,.1q.3-12 -4-11.9l.6,2.6q1.6-1.1 .8,9.2 M519.5,1169.9l-1.4,2.1q9.6,5.5 10.7-.8l-2.6-.1q.6,4 -6.7-1.2" fill="#ffffff"></path><path d="M533,1169l1.7,2q2.2-2.4 -.4-15.3l-2.6,.6q2.7,12 1.3,12.7 M529.3,1167.7l-.6,2.6q5.9,.8 6,.7l-1.7-2q-.1,.1 -3.7-1.3" fill="#ffffff"></path><path d="M431.5,1187l1.7-1.9q-3-2 2.3-3.9l-1-2.4q-6.8,3.8 -3,8.2 M434.4,1193.4l.5,2.5q6.8-2 -1.7-10.8l-1.7,1.9q7.7,6.4 2.9,6.4 M429.7,1190.9l-1.4,2.2q4.7,3 6.6,2.8l-.5-2.5q-.6,.2 -4.7-2.5" fill="#ffffff"></path><path d="M442,1192.2l2,1.6q1.8-2.2 4-5l-2-1.6q-2.2,2.8 -4,5" fill="#ffffff"></path><path d="M442.2,1176q0,1.2 -1.2,1.2q-1.2,0 -1.2-1.2q0-1.2 1.2-1.2q1.2,0 1.2,1.2" fill="#ffffff"></path><path d="M457.8,1191.2l0-2.6q-1.8,.8 2.3-3.8l-2.2-1.6q-4.3,7.1 -.1,8 M461.5,1190.3l-.8-2.5q-1.4,.4 -3.2,.8l.3,0l0,2.6q2.1-.5 3.7-.9 M462.1,1197.8l2.6,.2q.4-10.8 -4-10.2l.8,2.5q1.6-1.4 .6,7.5 M459.3,1201.5l.2,2.6q4.5-.6 5.2-6.1l-2.6-.2q0,3.9 -2.8,3.7 M458.2,1197.6l-2.4,.8q.8,2.8 2.6,5.1l1.1,.6l-.2-2.6q-.4-1.4 -1.1-3.9" fill="#ffffff"></path><path d="M475.4,1193.5l-2.4-.9q1,.6 .3-6.8l-2.6,.4q2.6,9.5 4.7,7.3 M488.1,1194.7l1.4-2.1q-12.6-8.4 -16.5,0l2.4,.9q2-6.7 12.7,1.2" fill="#ffffff"></path><path d="M492.5,1193.8l1.3-2.2q-5.8-2.5 1.3-2.3l-.2-2.6q-9.4,1.8 -2.4,7.1 M504.6,1193.2l.8-2.4q-3.7-1.4 -7.9-1.6q-2.6,1.6 -4.8,2.3l1.1,.1l-1.3,2.2q3.6-.7 5.7-2.3q3,.4 6.4,1.7" fill="#ffffff"></path><path d="M509.7,1194.3l2.6-.6q-1.9-8.1 -4-18l-2.6,.6q2.2,9.9 4,18" fill="#ffffff"></path><path d="M768,1148.9l2.2-1.3q-3.2-3.3 -13.4,17.9l2.4,1q8.7-19.8 8.8-17.6 M771.7,1162.3l2.6-.6q-1.4-6.4 -3.9-13.9l-.2-.2l-2.2,1.3q2.4,7.1 3.7,13.4" fill="#ffffff"></path><path d="M769.6,1161.2l.8-2.4q-3.7-1.2 -8.1-2.1l-.6,2.6q4.4,.8 7.9,1.9" fill="#ffffff"></path><path d="M784.7,1162.6l-2.6-.5q.2,4.3 -3.9-6.6l-2.4,1q6.5,12.4 8.9,6.1 M784.6,1158.1l-2.6,.3q.1,1.7 .1,3.9l0-.2l2.6,.5q0-2.6 -.1-4.5 M785.8,1166.5l2.4-1q-2.2-5.2 -3.8-7.9l-2.4,.8l2.6-.3q-.9,3.4 1.2,8.4" fill="#ffffff"></path><path d="M793.8,1166.8l-.9,2.4q7.9,2 -.8-14.8l-2.2,1.2q8.8,14.2 3.9,11.2 M794.3,1163.1l-2.6-.2q-.3,2.8 .4,5.4l.8,.9l.9-2.4q.2-1.3 .5-3.7" fill="#ffffff"></path><path d="M805.3,1166.3l2.4-1q-3.3-7.8 -1.6-10.7l-2.2-1.2q-2.1,4.2 1.4,12.9 M803.1,1169.9l-1.3,2.2q9.6,4.4 5.9-6.8l-2.4,1q4.3,8.3 -2.2,3.6 M800,1166.2l-2,1.6q1.5,2 3.6,4.1l.2,.2l1.3-2.2q-1.7-1.8 -3.1-3.7" fill="#ffffff"></path><path d="M803.3,1164.6l2.6-.1q-.9-10.7 2.1-5.7l2-1.6q-6.1-5.8 -6.7,7.4 M808.6,1166.8l-2.1-1.5q-1.4,3.3 -.6-.8l-2.6,.1q1,6.4 5.3,2.2 M810.5,1156.9l-2.6-.2q-.3,4.2 -1.6,9l.2-.4l2.1,1.5q1.5-5.4 1.9-9.9 M813.1,1164.4l2.5-.9q-6-14.2 -7.7-6.8l2.6,.2q-.8-5 2.6,7.5 M807.9,1179.5l.8,2.4q11.6-3.9 6.9-18.4l-2.5,.9q4.8,12.5 -5.2,15.1 M806.1,1171.8l-2.6-.3q-.8,11.5 5.2,10.4l-.8-2.4q-3.3,1.7 -1.8-7.7" fill="#ffffff"></path><path d="M820.5,1170.8l-.2-2.5q-4.4,1.2 2.8-11.7l-2.2-1.2q-7.4,15.1 -.4,15.4 M825.3,1157l-2.6-.2q-.6,6.6 -3.4,12.2l1-.7l.2,2.5q4.1-6.7 4.8-13.8 M832.6,1165.2l.8-2.4q-2.1-.7 -4.3-1.9q-2.1-3.2 -4.3-5l-2.1,.9l2.6,.2q-.2,2.4 2.1,5.7q2.9,1.8 5.2,2.5" fill="#ffffff"></path><path d="M837,1165.8l-2.5-.2q1.1,1.5 1.8-9.7l-2.6,.2q1.7,13.5 3.3,9.7 M839.7,1167.7l2.2-1.5q-6-7.3 -7.4-.6l2.5,.2q-.5-4.4 2.7,1.9" fill="#ffffff"></path><path d="M850,1161.1l2.5-.7q-2.1-4.3 .8-1.3l1.4-2.2q-5.9-2.9 -4.7,4.2 M852.7,1170.2l1.1,2.3q1.6-1.5 -1.3-12.1l-2.5,.7q2.9,9.7 2.7,9.1 M846,1168.5l-1,2.4q6.5,2.5 8.8,1.6l-1.1-2.3q-1,.6 -6.7-1.7 M847.8,1169l-1.6-2q-1.2,1 -1.8,2.1l.6,1.8l1-2.4q1,1.2 1.8,.5" fill="#ffffff"></path><path d="M862,1155.5l1.8,1.8q.2-.9 2.3,1.6l1.8-1.8q-3.6-3.3 -5.9-1.6 M861.3,1155.9l1.4,2.2q.8-.5 1.1-.8l-1.8-1.8q0,0 -.7,.4" fill="#ffffff"></path><path d="M853.4,1165.7l1.2-2.2q-3.2-1.2 1.4-6.7l-2-1.6q-5.2,7.3 -.6,10.5 M856.7,1163.9l-2.1-1.6q-.5,.8 -1.3,1.2l1.3,0l-1.2,2.2q2.4-.7 3.3-1.8 M850,1177l2.4,.9q3.4-9.1 4.5-14.5l-2.3-1.1l2.1,1.6q-3.4,4.1 -6.7,13.1 M852.3,1174l-2.6,0q0,2.3 .2,3.7l2.5,.2l-2.4-.9q2.3-.8 2.3-3" fill="#ffffff"></path><path d="M860.3,1162.9l2.3-1.2q-3.1-5.3 .9-6.5l-1-2.4q-5.4,2.8 -2.2,10.1 M862.5,1170.8l1.5,2.1q2.8-2.7 -1.4-11.2l-2.3,1.2q3.9,7.2 2.2,7.9 M857.6,1168.8l-1.2,2.4q5.7,2.7 7.6,1.7l-1.5-2.1q-.2,.6 -4.9-2" fill="#ffffff"></path><path d="M764.8,1179l1.5,2.1q1.3-2 -.6,2.6l2.6,.6q.9-7.2 -3.5-5.3 M767.4,1199.3l2.5-.8q-3.3-9.1 -3.1-18.4l-.5,1l-1.5-2.1q-.7,10.8 2.6,20.3 M762.4,1196.8l-.8,2.4q4.1,1.2 7.2,1l1.1-1.7l-2.5,.8q-1.4-1.5 -5-2.5" fill="#ffffff"></path><path d="M782.1,1199.4l-2.2,1.2q3.7,4.4 .3-10l-2.4,.8q4.7,11.2 4.3,8" fill="#ffffff"></path><path d="M778.7,1184l2.6,0q0-.4 0-1l-2.6,0q0,.6 0,1" fill="#ffffff"></path><path d="M785.4,1194.8l2-1.7q-2.7-1.6 5.4,.2l.4-2.6q-10.6-.7 -7.8,4.1 M792.8,1195.1l-.5-2.6q-2.8,.6 -5.7,.2l.8,.4l-2,1.7q4.2,.8 7.4,.3 M794,1203.5l2.6-.2q-1-10.7 -4.3-10.8l.5,2.6q.7-.9 1.2,8.4 M786.8,1208.8l-.7,2.5q10.7,2.2 10.5-8l-2.6,.2q1.2,8 -7.2,5.3 M786.3,1202l-2.6,0q0,4.4 1.5,8.5l.9,.8l.7-2.5q-.5-2.8 -.5-6.8" fill="#ffffff"></path><path d="M799.8,1200.2l2.6-.5q-1-4.5 -2.1-10l-2.6,.6q1.2,5.4 2.1,9.9 M806.4,1195.7l-2.1-1.4q-2.1,3.2 -4,4.6l2.1,.8l-2.6,.5q4.3-1 6.6-4.5 M815.5,1200l1.9-1.7q-8.9-9.4 -13.1-4l2.1,1.4q2-4.2 9.1,4.3 M817.8,1204.5l2.4-1q-1.9-4.2 -2.8-5.2l-1.9,1.7q.6,.6 2.3,4.5" fill="#ffffff"></path><path d="M822.9,1204.5l.1-2.6q-3.1,.7 2.2-9.3l-2.4-1.2q-5.4,12.1 .1,13.1 M829,1194.5l-2.5-.8q-1.5,4.8 -4.6,8.7l1.1-.5l-.1,2.6q4.4-4.8 6.1-10 M834.2,1199l1.6-2q-3.9-3.1 -7.7-4.2l-1.6,.9l2.5,.8q1.7,1.7 5.2,4.5" fill="#ffffff"></path><path d="M-183,282l2-2l106,0l0-370l-106,0l0,370l-2,2l0-374l110,0l0,374l-110,0" fill="#ffffff"></path><path d="M838.7,1208.2l2.6-.4q-1.8-11.3 -4-25l-2.6,.4q2.2,13.8 4,25" fill="#ffffff"></path><path d="M-54,395l2-2l451,0l0-625l-451,0l0,625l-2,2l0-629l455,0l0,629l-455,0" fill="#ffffff"></path><path d="M44.2,-275.1l0,.2l.1,.1l0,.2l.2,.4l.2,.3l.1,.3l.5,.9l.4,1.3l1.1,6.6l.1,1.6l1.5,15.5l0,.4l.1,0l0-.2l.1-.3l3.6-21.6l.2-.3l0-.1l.3,.2l.3,1.2l0,.4l.2,.9l.1,1l.7,3l1.3,3.5l.8,1.7l2,3.3l1.1,1.3l1,.8l.6,.3l.6-.2l.1-.3l.3-1.9l0-1.1l.2-1.2l1.6-12.8" fill="none" stroke="#ffffff" stroke-width="1.8"></path><path d="M64.5,-258.8l.1-.1l0-.1l.2-.1l.3-.2l.2-.3l.4-.2l.4-.4l.9-.7l.5-.3l.2-.4l0-.3l-.1-.2l-.1-.1l-.7,.2l-.4,.2l-1,.8l-.4,.6l-.4,.8l-.3,.9l-.1,1.1l0,1.1l.4,1.2l.6,1.1l.9,1l1,.7l1.3,.5l1.4,.2l1.2-.3l1.3-.5l1-.9l1-1.1l1.5-4.7" fill="none" stroke="#ffffff" stroke-width="1.8"></path><path d="M77.2,-261.1l0,.1l.3,1.1l.1,.6l.2,.7l.8,7.1l0,.5l-.1,.1l0-.1l.1-.3l0-.6l.4-2l.9-2.4l3.6-5.7" fill="none" stroke="#ffffff" stroke-width="1.8"></path><path d="M90.7,-273.3l.1,0l0,.4l.1,.4l0,1.4l.1,1.1l-.7,21.5l.4-3.1" fill="none" stroke="#ffffff" stroke-width="1.8"></path><path d="M98.9,-263.4l-.1,.1l-.2,.1l-.3,.2l-1,.5l-.8,.3l-1.5,.8l-.7,.5l-.7,.6l-.5,.7l-.3,.8l0,.8l.3,.7l.4,.5l.6,.4l.8,.3l1.7,.4l1,.1l3.1-.1" fill="none" stroke="#ffffff" stroke-width="1.8"></path><path d="M113.4,-267l-.2,0l-.2,.1l-.1,.1l-.2,0l-.4,.4l-.2,.6l0,1.1l.1,.7l.2,.8l.6,1.8l.9,4.7l.1,2.7l-.3,1l-.5,.8l-.6,.4l-.6,.1l-.8-.1l-.8-.3l-2.9-1.6l-1-.7l-.9-.8l-.7-.9l.8-1.8" fill="none" stroke="#ffffff" stroke-width="1.8"></path><path d="M122.9,-272l-.1,.1l0,.1l-.1,.4l-.7,4.6l-.2,14.6l.2,1.5" fill="none" stroke="#ffffff" stroke-width="1.8"></path><path d="M122.9,-259.8l0,.1l2.2,1.3" fill="none" stroke="#ffffff" stroke-width="1.8"></path><path d="M130.5,-260.7l-.1,.2l-.2,.2l-.1,.2l-.3,.8l-.1,.6l0,1.7l.5,2.1l.5,.9l1.4,1.7l.8,.7l.8,.3l.6,0l.6-.3l.8-1l.3-.7l.4-2.8" fill="none" stroke="#ffffff" stroke-width="1.8"></path><path d="M133.7,-263.8l0-.1l.1,0l0-.3l.4-.6l.3-.3l.4-.1l.3,.1l1.7,2.2" fill="none" stroke="#ffffff" stroke-width="1.8"></path><path d="M149.5,-261.6l0,.1l-.4,.2l-.2,.2l-.5,.2l-.6,.3l-.8,.3l-1.8,1l-.8,.8l-.7,.9l-.3,.9l0,1l.3,.8l.6,.7l.8,.5l.9,.2l1,.1l1.1-.1l1.2-.4l4.3-2.7" fill="none" stroke="#ffffff" stroke-width="1.8"></path><path d="M157.2,-272l0,.2l-.1,.2l0,.6l-.2,.7l-.3,3.6l.6,16.9" fill="none" stroke="#ffffff" stroke-width="1.8"></path><path d="M165.4,-261.6l-.1,.1l-.1,0l-.2,.1l-.3,.1l-.3,.2l-.5,.2l-.4,.4l-.6,.3l-1.2,1.8l-.2,.6l0,.6l.2,.5l.6,.5l.8,.4l7.3,1.5" fill="none" stroke="#ffffff" stroke-width="1.8"></path><path d="M-193.4,-129.4l0,.2l-.1,.3l0,1l-.1,.8l.3,6.4l.7,5l.8,3" fill="none" stroke="#ffffff" stroke-width="1.5"></path><path d="M-193.4,-128.6l0-.1l.2-.1l.3-.2l.4-.2l.5-.2l.7-.2l.7,0l.7,.1l.7,.4l.7,.5l.6,.8l.5,.8l.4,1.1l.3,1.2l.3,2.3l-.2,1l-.4,.8l-.6,.5l-.8,.3l-.9,.1l-.8-.1l-3.7-1.7" fill="none" stroke="#ffffff" stroke-width="1.5"></path><path d="M-184.3,-121.9l0,.1l.1,.2l0,.2l.1,.3l.2,1.1l.3,.8l.2,1l1.9,6.2l.1,0l-.1-.2l-.1-.3l-.1-.6l-.6-2.5l-.1-1.1l0-1.1l.5-2.9" fill="none" stroke="#ffffff" stroke-width="1.5"></path><path d="M-173.6,-120.7l0,.1l-.1,0l-.1,.2l-.2,.2l-.2,.8l-.1,.7l0,.7l.1,.8l.2,.9l.5,.9l.6,.7l.9,.5l.9,.3l1.1-.1l2.1-.7l1-.6l.2-.2l.2-.1l2.1-3.1" fill="none" stroke="#ffffff" stroke-width="1.5"></path><path d="M-174.4,-126.2l.1-.1l.5,0l.4-.1l7.4,.2" fill="none" stroke="#ffffff" stroke-width="1.5"></path><path d="M-153.7,-131.4l-.3,0l-.8,.3l-.6,.4l-1.4,1.6l-1.3,2.5l-.4,1.5l-.2,1.7l.1,1.8l.9,3.5l.6,1.7l2.2,3.7" fill="none" stroke="#ffffff" stroke-width="1.5"></path><path d="M-162.8,-118.7l.1,0l.2-.1l.3-.2l7.7-.9" fill="none" stroke="#ffffff" stroke-width="1.5"></path><path d="M-148.5,-132.6l.1,8.3l1.3,7.5l1.8,3.7" fill="none" stroke="#ffffff" stroke-width="1.5"></path><path d="M-141.3,-123.1l-.1,.1l-.2,0l-.3,.2l-.9,.5l-.6,.4l-.6,.5l-.4,.6l-.2,.7l.1,.7l2.8,2.7" fill="none" stroke="#ffffff" stroke-width="1.5"></path><path d="M-137.4,-119.1l-.2-.1l-.3-.3l0-.4l.3-.2l.4-.2l.5-.2l.7-.2l.8-.1l.9-.2l.8,.1l.9,.2l.7,.4l.6,.6l.3,.6l.1,.6l-.4,1.1l-.8,.6l-.6,.1l-.6,0l-2.1-1.6" fill="none" stroke="#ffffff" stroke-width="1.5"></path><path d="M-128.6,-117.5l0-.1l-.1-.2l0-.2l-.1-.3l.1-.4l0-.4l.2-.5l.3-.5l.5-.4l.7-.4l.7-.3l.8-.1l1.9,0l.8,.3l.7,.4l.6,.5l.5,.5l.2,.6l0,.5l-.2,.4l-.3,.3l-.5,.3l-.6,.1l-.7,.2l-.8,.1l-.9,.3l-.8,.4l-.8,.6l-.8,.8l-.6,.9l-.5,1.1l-.4,1.2l-.2,1.1l0,1.1l.2,.9l.4,.8l.6,.4l1.5-.5" fill="none" stroke="#ffffff" stroke-width="1.5"></path><path d="M-108.7,-129.4l-.1,0l0-.1l-.1,.1l-.1,0l-.6,.4l-.4,.5l-.4,.7l-.8,1.9l-.3,1.2l-.2,1.4l-.1,1.6l.1,1.8l1,5.4l.5,1.8l.4,2l-.1,.8" fill="none" stroke="#ffffff" stroke-width="1.5"></path><path d="M-117.1,-117.1l.2,0l.3-.1l.9-.1l11.7-.2" fill="none" stroke="#ffffff" stroke-width="1.5"></path><path d="M-67.5,-82.7l1.2,.5q1.1-2.8 2.1-6.2l-1.4-.4q-.9,3.4 -1.9,6.1 M-62.9,-80.2l.2-1.4q-2.3-.4 -3.8-1.4l.2,.8l-1.2-.5q2.1,2 4.6,2.5 M-65.3,-75.6l1.1,.8q3.9-5.9 1.5-6.8l-.2,1.4q1.2-.3 -2.4,4.6 M-66,-74.8l.9,1q.4-.4 .9-1l-1.1-.8q-.4,.4 -.7,.8 M-62,-73.1l0-1.3q-2.1-.1 -3.3-.6l.2,1.2l-.9-1q1.7,1.7 4,1.7 M-65.2,-68.4l1,.9q5-6.4 2.2-6.9l0,1.3q1.5-.4 -3.2,4.7 M-63.5,-63l.2-1.3q-3.8-.2 -.9-3.2l-1-.9q-3.2,4.4 1.7,5.4 M-65.8,-57.1l1.1,.7q4.3-7 1.4-7.9l-.2,1.3q1.8-.1 -2.3,5.9 M-63.8,-54.1l.2-1.4q-2.1,.1 -1.1-.9l-1.1-.7q-1.1,2.3 2,3 M-66.3,-51.3l1,.9q3.5-4.4 1.7-5.1l-.2,1.4q.6-.5 -2.5,2.8 M-62.9,-47.9l0-1.3q-4.3,.3 -2.4-1.2l-1-.9q-2.1,3.1 3.4,3.4 M-65.1,-42.8l1.1,.9q5.3-6.9 1.1-7.3l0,1.3q2.9-.4 -2.2,5.1 M-60.6,-39.3l.2-1.4q-4.8-.5 -3.6-1.2l-1.1-.9q-1.3,2.3 4.5,3.5 M-63.5,-29.9l1.4-.2q-.3-1.6 -.1-3.5q3.8-6.2 1.8-7.1l-.2,1.4q.9-.3 -2.9,5.3q-.3,2.3 0,4.1" fill="#d918d2"></path><path d="M-62.9,-33.2l1,1q-.8-.2 -3,1.2l1,1q2.2-3.4 1-3.2 M-65.8,-31.5l.7,1.2q1.4-.7 3.1-1.8l.1-.1l-1-1q-1.5,.9 -2.9,1.7 M-64.1,-30l0-1.4q-.7,0 -1.1-.2l.1,1.3l-.7-1.2q.7,1.5 1.7,1.5 M-67.8,-23l1.3,.8q2.6-4.5 3.1-8.4l-.7-.8l0,1.4q-1.2,2.8 -3.7,7 M-62.9,-22l-.2-1.4q-2.4,.4 -3.9,.1l.5,1.1l-1.3-.8q2.3,1.4 4.9,1 M-67.6,-15.5l1.1,.8q3.2-4.4 4.2-7.8l-.8-.9l.2,1.4q-1.7,2.2 -4.7,6.5 M-60.9,-14.6l-.3-1.4q-3.5,.6 -5.7,.2l.4,1.1l-1.1-.8q2.9,1.5 6.7,.9 M-67.4,-6.6l1.1,.9q4.3-5.3 5.9-9.3l-.8-1l.3,1.4q-2.3,2.9 -6.5,8 M-61.3,-4L-61.5,-5.4Q-68.5,-3.9 -66.3,-5.7L-66.3,-5.7L-67.4,-6.6Q-69.7,-3 -61.3,-4 M-65.7,4.8L-64.4,5.5Q-58.6,-5.3 -61.5,-5.4L-61.5,-5.4L-61.3,-4Q-60,-4.8 -65.7,4.8 M-62.3,11L-62.4,9.5Q-67.5,10.3 -64.4,5.5L-64.4,5.5L-65.7,4.8Q-68.7,11 -62.3,11 M-66.2,19.1L-65,19.9Q-58.7,9.8 -62.4,9.5L-62.4,9.5L-62.3,11Q-60.1,10.2 -66.2,19.1 M-61.8,23.8l0-1.4q-5.5,.3 -3.2-2.5l-1.2-.8q-2.3,4.3 4.4,4.7 M-65.3,34.5l1.2,.8q7.9-12.3 2.3-12.9l0,1.4q4.2-.4 -3.5,10.7 M-61.3,37.8l-.4-1.4q-4.9,1.7 -2.4-1.1l-1.2-.8q-2.5,4.5 4,3.3 M-65.4,42.6l1.2,.8q4.6-6.9 2.5-7l.4,1.4q.4-.8 -4.1,4.8 M-65.6,47l.3-1.4q-.9,.2 1.1-2.2l-1.2-.8q-2.2,3.4 -.2,4.4 M-60.6,45.1l-.7-1.2q-1.9,1 -4.3,1.7l.3,0l-.3,1.4q2.9-.7 5-1.9 M-63.7,47.3l1,1q3.5-4.8 1.4-4.4l.7,1.2q.2-.8 -3.1,2.2 M-63.2,53.5l-.3-1.4q-4.5,1.6 .8-3.8l-1-1q-5.5,7.1 .5,6.2 M-63.6,59.5l1.1,.8q6.1-9.4 -1-8.2l.3,1.4q5.6-1.9 -.4,6 M-63.9,69.3l-.6-1.4q-6.2,3.3 2-7.6l-1.1-.8q-8.2,12.5 -.3,9.8 M-62.8,68.4l1.4,.5q.1-1.9 -3.1-1l.6,1.4q1.8-1.2 1.1-.9 M-72,79.1l1,1q4.7-4.7 9.5-11l.1-.2l-1.4-.5q-4.6,6.1 -9.2,10.7 M-70,82l0-1.5q-2.7,.6 -1-.4l-1-1q-2,2.6 2,2.9 M-60.2,78.7l-.6-1.3q-4.2,1.7 -9.4,3.2l.2-.1l0,1.5q5.5-1.5 9.8-3.3 M-66.5,84.3l1,1q3.9-4.1 5.6-6.9l-.9-1l.6,1.3q-2.5,1.6 -6.3,5.6 M-60.8,89.6l-.1-1.5q-8.9,1 -4.6-2.8l-1-1q-4.6,5.5 5.7,5.3 M-62.3,93.2l1.2,.8q3.6-5.6 .2-5.9l.1,1.5q1.9-.7 -1.5,3.6 M-66.9,112.2l1.4,.2q2.3-15.3 4.4-18.4l-1.2-.8q-2.3,3.5 -4.6,19" fill="#d918d2"></path><path d="M-61.3,110.7l1.6,.7q.9-4.1 -4.5,2.7l1.6,1q3-6.2 1.3-4.4 M-69.7,118.5l1.1,1.5q4.4-3.5 8.8-8.3l.1-.3l-1.6-.7q-4.2,4.5 -8.4,7.8 M-61.9,117.8l-.6-1.7q-4.4,1.7 -6.9,2.3l.8,1.6l-1.1-1.5q3.4,1 7.8-.7 M-66.2,121.4l1.4,1.1q4.7-6.5 2.3-6.4l.6,1.7q.2-1 -4.3,3.6 M-65.7,131.5l.1-1.8q-5.8,.1 .8-7.2l-1.4-1.1q-6.9,9 .5,10.1 M-67,144l1.4,1.1q10.9-13.9 0-15.4l-.1,1.8q9.2,.3 -1.3,12.5 M-65,149l-.3-1.7q-3.8,1.2 -.3-2.2l-1.4-1.1q-3.7,5.3 2,5 M-58.9,149.4l1.6-.7q-1.3-2.4 -8-1.4l.3,1.7q5.8-1 6.1,.4 M-67.9,166.9l1.5,.8q9.5-18.1 9.1-19l-1.6,.7q.4,.9 -9,17.5 M-60.3,170.6l-.8-1.6q-9.5,5.2 -5.3-1.3l-1.5-.8q-4,8.6 7.6,3.7 M-66.5,180.9l1.4,1.1q10.1-15.1 4-13l.8,1.6q3.8-2.7 -6.2,10.3 M-61.9,187.9l-.5-1.8q-8.2,2.7 -2.7-4.1l-1.4-1.1q-5.6,8.9 4.6,7 M-62.7,192.6l1.5,.9q4.3-8.1 -1.2-7.4l.5,1.8q3.4-1.6 -.8,4.7 M-70.1,203.2l1.4,1.1q3.5-4.8 7.5-10.7l0-.1l-1.5-.9q-4,5.9 -7.4,10.6 M-63,207.4l-.3-1.7q-8.9,2.3 -5.4-1.4l-1.4-1.1q-3.5,5.9 7.1,4.2 M-64.2,223.1l1.7,.6q6.2-18.9 -.8-18l.3,1.7q5.2-1.7 -1.2,15.7 M-62,231.3l-1-1.5q-3.2,3.2 .5-6.1l-1.7-.6q-3.2,11.2 2.2,8.2 M-60.4,230.1l1.8,.1q-.4-2.7 -4.4-.4l1,1.5q2.3-2.1 1.6-1.2 M-65.3,241.8l1.6,.8q2.7-5.4 5.1-12.1l0-.3l-1.8-.1q-2.3,6.4 -4.9,11.7 M-60.9,245.4l.6-1.7q-2.2-.8 -3.6-2.1l.2,1l-1.6-.8q1.9,2.7 4.4,3.6 M-68.8,254l1.3,1.3q5.4-5.2 7.7-10.4l-.5-1.2l-.6,1.7q-2.7,3.6 -7.9,8.6 M-67.7,260.5l.4-1.8q-3.9-.4 -.2-3.4l-1.3-1.3q-4.2,4.7 1.1,6.5 M-62,259.1l-.6-1.7q-2.3,.8 -5,1.3l.3,0l-.4,1.8q3.3-.5 5.7-1.4 M-70.9,267.4l1.3,1.3q5.6-5.9 8-10l-1-1.3l.6,1.7q-3.4,2.6 -8.9,8.3 M-66.3,277.8l1.8-.4q-.7-2 -3.9-2.6q-6.9-.7 -1.2-6.1l-1.3-1.3q-6.2,7.2 2.2,9.1q2.4,.3 2.4,1.3 M-68.8,285.6l1.6,.8q3.1-6.9 2.7-9l-1.8,.4q.4,1.3 -2.5,7.8" fill="#d918d2"></path><path d="M-283.9,352.2l2.4,.4q0-.3 0-26.8l-2.4,0q0,26.1 0,26.4 M-282.7,347.9l-2.4,.6q.6,2.8 1.3,4.4l2.3-.3l-2.4-.4q1.7-1.6 1.2-4.3" fill="#d918d2"></path><path d="M-279.3,335.6l1.9,1.5q5-6.9 5.6-4.5l2-1.2q-2.9-3.6 -9.5,4.2 M-271.1,348.1l-.7-2.3q-18.2,5.9 -5.6-8.7l-1.9-1.5q-12.7,17.4 8.2,12.5" fill="#d918d2"></path><path d="M-263.4,339.3l.2-2.4q-6.5,.1 -5.1,9.7l2.4-.4q-1.8-7.8 2.5-6.9 M-262.7,346.1l2.1,1.2q4.7-9.1 -2.6-10.4l-.2,2.4q5.3-.2 .7,6.8 M-266.8,345l-1.8,1.5q4.9,5.2 8,.8l-2.1-1.2q-1.1,3.2 -4.1-1.1" fill="#d918d2"></path><path d="M-251.4,338l2-1.4q-4.8-5.1 -5.8,8.5l2.4,0q-.5-11.4 1.4-7.1 M-258,349.6l1.3,2q11.8-7.7 7.3-15l-2,1.4q4.2,5.2 -6.6,11.6 M-256.2,365.7l2-1.3q-7.2-10.5 -2.5-12.8l-1.3-2q-5.8,4.1 1.8,16.1" fill="#d918d2"></path><path d="M-236.7,343.3l1.4-1.9q-6.5-4.3 -12.8,5.6l2,1.2q5-8.7 9.4-4.9 M-237.8,347.6l.9,2.2q7.3-3.5 1.6-8.4l-1.4,1.9q4.7,2.6 -1.1,4.3 M-245.4,348.6l.2,2.4q3.7-.3 8-1.1l.3-.1l-.9-2.2q-4,.7 -7.6,1 M-249.1,361.9l2.4-.3q-1.9-10.9 1.5-10.6l-.2-2.4q-5.3,.9 -3.7,13.3 M-245.1,364.4l-.4-2.4q-1.5,.6 -1.2-.4l-2.4,.3q.8,2.7 4,2.5" fill="#d918d2"></path><path d="M-231.5,348.2l2.2-1.1q-2-4 -1.7-18.2l-2.4,0q-.3,14.6 1.9,19.3 M-226.3,348.8l-.4-2.4q-3,.8 -2.6,.7l-2.2,1.1q1.2,1.3 5.2,.6" fill="#d918d2"></path><path d="M-216.4,348.5l-.3-2.4q-3.3,.9 -1.8-9.6l-2.4-.2q-1.1,12.1 4.5,12.2 M-214.4,343.4l-2.4-.2q-.1,2 -.9,3.6l1-.7l.3,2.4q1.9-2.7 2-5.1 M-211.9,347.8l1.8-1.6q-2.6-2.8 -4.9-4l-1.8,1l2.4,.2q.2,1.9 2.5,4.4" fill="#d918d2"></path><path d="M-204.9,349.6l-1.8-1.6q-.9,2.5 2.6-8.8l-2.4-.6q-2.5,13.8 1.6,11 M-200.9,346.2l1.6-1.8q-2.4-1.4 -7.4,3.6l1.8,1.6q3.8-4.3 4-3.4 M-197.8,349.7l1.2,2q2.6-2.3 -2.7-7.3l-1.6,1.8q4.5,3.4 3.1,3.5" fill="#d918d2"></path><path d="M-189.4,348.7l-.5-2.4q-6.8,2.3 5.4-9.7l-1.8-1.6q-12.6,14.6 -3.1,13.7 M-184.4,344.9l-1.7-1.8q-1.8,1.8 -4.2,3.4l.4-.2l.5,2.4q3-2 5-3.8 M-183.3,354.3l2.4-.2q-1.8-12.9 -5.2-11l1.7,1.8q.3-1.7 1.1,9.4 M-186.4,361.7l1.2,2.1q4.8-3 4.3-9.7l-2.4,.2q.7,5.5 -3.1,7.4 M-186.1,355.1l-2.4,0q.5,9.2 3.3,8.7l-1.2-2.1q.1,.9 .3-6.6" fill="#d918d2"></path><path d="M-177.2,339.2l2.4,.1q-.8-4 3.6,1.1l1.6-1.8q-6.8-5.6 -7.6,.6 M-173.1,349.5l2.2-1.1q-2.2-4.2 -4-9.5l.1,.4l-2.4-.1q1.9,5.9 4.1,10.3 M-180.1,349.5l-.5,2.4q11.5,1.9 9.7-3.5l-2.2,1.1q2.3,2.6 -7,0" fill="#d918d2"></path><path d="M-164.2,352.8l2.3-.4q-1-5.6 -2.3-12.5l-2.4,.4q1.3,6.9 2.4,12.5 M-160.1,344.9l-2.4-.4q-.8,5.1 -1.7,7.7l2.3,.2l-2.3,.4q3.3-2.7 4.1-7.9 M-157.4,349.8l1.9-1.6q-2.7-3.1 -5.1-4.6l-1.9,.9l2.4,.4q.3,2 2.7,4.9 M-151.4,346l-1.9-1.5q-1.8,2.4 -3.8,3.5l1.6,.2l-1.9,1.6q3.9-1.1 6-3.8 M-148.3,351.9l2-1.2q-2.4-4.1 -5.4-6.4l-1.6,.2l1.9,1.5q.9,2.2 3.1,5.9" fill="#d918d2"></path><path d="M-142.3,350.7l2.4,0q0-3.4 0-7.5l-2.4,0q0,4.1 0,7.5" fill="#d918d2"></path><path d="M-146.3,331.7l1.6,1.8q.3-.3 .7-.6l-1.6-1.8q-.4,.3 -.7,.6" fill="#d918d2"></path><path d="M-131.7,351.2l2.4,.2q.1-.9 -3.1-24l-2.4,.4q3.2,22.4 3.1,23.4" fill="#d918d2"></path><path d="M-129.1,341l-1.6-1.8q-2.2,2 -5,4.4l1.6,1.8q2.8-2.4 5-4.4" fill="#d918d2"></path><path d="M-120.3,352l2-1.3q-4.8-6.8 -4.1-23.7l-2.4,0q-.6,17.5 4.5,25" fill="#d918d2"></path><path d="M-110.9,338.5l-2.3-.8q-1.7,5.3 -12.4,6.2l.2,2.4q11.9-1.3 14.5-7.8 M-114.1,335.8l1.1,2.2q1-1.4 -.2-.3l2.3,.8q.5-3.8 -3.2-2.7 M-115,350.8l2.1-1.3q-5.7-9 -.1-11.5l-1.1-2.2q-6.9,4.2 -.9,15 M-110.3,351.3l-.4-2.4q-2.6,.7 -2.2,.6l-2.1,1.3q1.2,1.1 4.7,.5" fill="#d918d2"></path><path d="M-95.5,361.6l2.4-.6q-3.2-14.7 -6.3-32.9l-2.4,.4q3.2,18.2 6.3,33.1" fill="#d918d2"></path><path d="M442,279l2-2l442,0l0-468l-442,0l0,468l-2,2l0-472l446,0l0,472l-446,0" fill="#ffffff"></path><path d="M502.6,-223.6l1-1.8q-3.7-1.8 -6.9,1.4l1.6,1.4q2-2.5 4.3-1 M501.7,-215.1l1.7,1.2q5.4-8.2 .2-11.5l-1,1.8q4.1,1.8 -.9,8.5 M495.3,-214.4l-.5,2q6.4,1.3 8.6-1.5l-1.7-1.2q-1.1,2 -6.4,.7 M495.3,-216l-2,.2q.4,2.8 1.5,3.4l.5-2q.2,.3 0-1.6" fill="#ffffff"></path><path d="M513.3,-218.7l2-.5q-1.6-4.4 1.6-2.6l.6-2q-5.3-1.3 -4.2,5.1 M516.8,-209l2-.8q-1.7-4.2 -3.5-9.4l-2,.5q1.9,5.4 3.5,9.7 M511.9,-213.6l-1.2,1.8q4,2.5 6.8,3.4l1.3-1.4l-2,.8q-1.2-2.1 -4.9-4.6" fill="#ffffff"></path><path d="M528,-214.2l2-.2q-.9-6.6 -8.1-6.2l.2,2q5.7-.8 5.9,4.4 M526.6,-208l1.9,.6q.9-3 1.5-6.7l0-.3l-2,.2q-.6,3.3 -1.4,6.2 M532.7,-208.6l-1-1.8q-2.6,1.4 -4.3,1.7l1.1,1.3l-1.9-.6q3.3,.9 6.1-.6" fill="#ffffff"></path><path d="M540.2,-210.5l2,0q0-2.4 0-5.4l-2,0q0,3 0,5.4" fill="#ffffff"></path><path d="M540.8,-228.3l2-.8q-.3-.7 -.6-1.6l-2,.8q.4,.8 .6,1.6" fill="#ffffff"></path><path d="M554.5,-209.9l-2-.2q.2,6.5 -1.2-19.7l-2,.2q3.3,28 5.2,19.7" fill="#ffffff"></path><path d="M563.4,-220l.9-1.9q-4.2-1.4 -5.9,5.3l2,.4q.8-5.3 3-3.8 M565.5,-213.2l1.6,1.3q4.4-6.3 -2.8-10l-.9,1.9q6,2.3 2.1,6.8 M559.7,-214.2l-.6,2q6.6,1.6 8,.3l-1.6-1.3q-.1,.5 -5.8-1" fill="#ffffff"></path><path d="M577.3,-214l2.1-.3q-1-5.2 6.2-5.9l-.2-2q-8.6,1.4 -8.1,8.2 M587.2,-213.9l-.5-2q-4.5,1.2 -8.2,.7l.9,.9l-2.1,.3q5.1,1.4 9.9,.1 M584.3,-208.7l2,.8q1.6-4 1.7-7l-1.3-1l.5,2q-1.3,1.5 -2.9,5.2 M579.5,-211l-1.8,1q5.2,8.4 8.6,2.1l-2-.8q-1.3,5.1 -4.8-2.3" fill="#ffffff"></path><path d="M592.9,-211.6l-1.6,1.4q4.6,3.8 2.2-7l-2,.6q3.3,8.5 1.4,5 M595.4,-214.1l-1.6-1.4q-1.7,1.9 -2.6,4.2l.1,1.1l1.6-1.4q.9-.9 2.5-2.5" fill="#ffffff"></path><path d="M603.5,-209.5l.8-1.9q-2.7-.6 2.8-7.1l-1.6-1.2q-5.9,7.9 -2,10.2 M607,-216.1l-2.1,.3q1.2,5.9 -.6,4.4l-.8,1.9q4.1,1.1 3.5-6.6 M609.9,-211.4l1.4-1.4q-2.7-2.8 -4.8-4l-1.6,1l2.1-.3q.3,2.1 2.9,4.7" fill="#ffffff"></path><path d="M627.9,-216.9l1.8-1.2q-6.3-8 -11.6,4l2,.8q3.6-10.8 7.8-3.6 M619.9,-212.8l-.2,2q14.4,.4 10-7.3l-1.8,1.2q4.5,5.4 -8,4.1 M614.5,-206.9l1.8-.8q-2.3-3.9 3.4-3.1l.2-2q-7.6,0 -5.4,5.9 M620.3,-205.8l-.2-2q-2.2,.1 -4.4-.5l.6,.6l-1.8,.8q3.2,1.3 5.8,1.1" fill="#ffffff"></path><path d="M635.8,-210.5l-1.7-1.1q.5,1.1 .4-16.5l-2,0q1.2,19.4 3.3,17.6 M645.5,-210.4l1.7-1.3q-7.4-8.8 -13.1,.1l1.7,1.1q4.1-7.9 9.7,.1" fill="#ffffff"></path><path d="M654.5,-210l-.7-2q-4.3,2.1 -4.3-7.6l-2,0q.7,11.3 7,9.6 M660.3,-216.1l-1.6-1.3q-2.2,2.8 -5.3,5.6l.4-.2l.7,2q3.5-3.2 5.8-6.1 M658.7,-214.8l2,0q-.5-3.2 -2-2.6l1.6,1.3q-1.1-.1 -1.6,1.3" fill="#ffffff"></path><path d="M671.4,-223.6l1.8,1q.3-2.1 -.1,.4l2-.2q-1.1-4.3 -3.7-1.2 M673.8,-210.5l2-.6q-2-5.6 -2.5-12.1l-.1,.6l-1.8-1q.4,7.3 2.4,13.1 M665.8,-213.1l-.6,2q5.6,1.6 9.7,1.3l.9-1.3l-2,.6q-2.7-1 -8-2.6" fill="#ffffff"></path><path d="M675,-208.9l1.4-1.5q-3-1.8 10.3-5l-.6-2q-14.6,4.3 -11.1,8.5 M688.8,-210.6l-.6-2q-5.9,1.9 -12.5,1.9l.7,.3l-1.4,1.5q7.6,.3 13.8-1.7" fill="#ffffff"></path><path d="M690.2,-207.9l2-.2q-.5-3.8 2.1-22.1l-2-.2q-2.7,18.4 -2.1,22.5 M695.6,-211.9l-1.8-1.1q-1.8,2.9 -3.3,4.2l1.7,.7l-2,.2q3.5-.9 5.4-4 M702.1,-208.8l1.6-1.4q-6.7-6.9 -9.9-2.8l1.8,1.1q1.3-3.2 6.5,3.1" fill="#ffffff"></path><path d="M707.2,-210.6l2,.2q.3-2.4 .6-5.4l-2-.2q-.4,3 -.6,5.4" fill="#ffffff"></path><path d="M707.2,-225.5l2,0q0-.4 0-1l-2,0q0,.6 0,1" fill="#ffffff"></path><path d="M721.7,-210.7l-2-.2q.8,1.7 -.9-6.9l-2,.6q3.7,10.1 4.9,6.5 M722.6,-218.4l-2-.2q-.8,6.2 -.9,7.7l2,.2q.2-1.5 .9-7.7" fill="#ffffff"></path><path d="M735.7,-212.1l-2-.7q.4,1.6 .6-6.4l-2,.2q1.3,9.8 3.4,6.9 M739.1,-215l1.6-1.3q-3.7-3.9 -7,3.5l2,.7q1.8-6 3.4-2.9 M738.9,-212l2,.3q.3-1.9 0-4.1l-.2-.5l-1.6,1.3q0,1.4 -.2,3 M753.8,-203.6l1.8-1q-3.3-6.3 -8.2-10.4q-4.8,1.9 -7.6,2.1l1.1,1.2l-2-.3q4.3,.8 8.3-1.2q3.5,3.6 6.6,9.6" fill="#ffffff"></path><path d="M456.4,203.7l.3-2.1q-6.8-.6 -7.7-6.8l-2,.4q1.5,7.3 9.4,8.5 M499.7,99.6l-2-.4q-19,105.6 -41,102.4l-.3,2.1q23.8,2.4 43.3-104.1 M505.7,-108.4l-1.9-.6q-6.5,19.9 -11.2,44.6q2.5,38.4 5.4,85q3.1,60.1 -.3,78.6l2,.4q3.5-18.8 .3-79.1q-2.9-46.7 -5.4-84.8q4.7-24.3 11.1-44.1 M512.3,-98.6l1.8-.9q-7.8-14.5 -10.3-9.5l1.9,.6q.4-3.6 6.6,9.8 M526.7,179.6l2.1,0q.5-26.4 -.9-58.5q-4.8-28.7 -3-78.2q4.2-112.4 -10.8-142.4l-1.8,.9q14.8,29.3 10.6,141.4q-1.8,49.7 3,78.5q1.3,31.9 .8,58.3 M556.9,196.8l.2-2.1q-28.9-2.8 -28.3-15.1l-2.1,0q.2,13.8 30.2,17.2 M749.7,199l-1.2-1.7q-11.4,8.7 -69.8,5.4q-54.8-3.1 -121.7-8l.1,0l-.2,2.1q66.9,4.8 121.7,7.9q58.9,3.3 71.1-5.7 M788.2,-152.9l-2.1,0q0,1.2 -.1,2.7q-11.2,49.8 -12.6,130.4q-1.5,90.3 -8.3,145.1q-8.2,65.9 -16.6,72l1.2,1.7q9.1-7.1 17.4-73.5q6.9-54.9 8.4-145.2q1.3-80.5 12.5-130.2q.1-1.7 .2-3 M779.8,142.3l2,.4q11.5-63.7 10.7-109.5q-2.4-121 -4.3-186.2l-2.1,.1l2.1,0q-.1,65.1 2.2,186.2q.9,45.5 -10.6,109 M790.4,186.8l.3-2q-16.5-1.6 -8.9-42.1l-2-.4q-7.4,41.8 10.6,44.5 M867.5,190.7l0-2.1q-49.4-.4 -76.8-3.8l-.3,2q27.6,3.4 77.1,3.9 M888,197l2,0q-.6-8 -22.5-8.4l0,2.1q20.8,0 20.5,6.3" fill="#00ff8c"></path><path d="M765.5,43.2l.8-1.6q-1.6-.9 -2.2-1q-22.8-3.9 -49-6.3q-54.9-5.2 -119.7-2.9q-39.6,1.4 -56.3,1.2l0,1.8q16.7,.1 56.3-1.2q64.7-2.3 119.6,2.8q26.1,2.4 48.8,6.3q.2,0 1.7,.9" fill="#ffffff"></path><path d="M767.5,41l1.7-.1q-.9-7.4 -14.1-8.3l0,1.8q12.1,.4 12.4,6.6 M758.4,47l.5,1.7q10.5-3.4 10.3-7.8l-1.7,.1q.6,3.1 -9.1,6" fill="#ffffff"></path><path d="M536.5,34.4l1.6-.7q-.8-1.1 9.3-9.9l-1.2-1.4q-10.5,9.4 -9.7,12 M547.9,38.3l.5-1.6q-10.2-2.8 -10.3-3l-1.6,.7q.1,.2 11.4,3.9" fill="#ffffff"></path><path d="M581.9,18.4L582.7,17Q582.5,16.8 584.6,-2.4L582.8,-2.6Q581.6,18.3 581.9,18.4" fill="#ffffff"></path><path d="M586.5,17.3L587.2,15.8Q581,13.4 593.2,5.8L592.2,4.4Q579.2,13.3 586.5,17.3 M594.3,15.8l-.6-1.6q-5.6,2.1 -6.5,1.6l-.7,1.5q1.8,.7 7.8-1.5" fill="#ffffff"></path><path d="M595.5,19.4L596.3,17.8Q591.5,16.1 600.7,11.3L599.9,9.7Q589.7,16 595.5,19.4 M607,18.1l-.6-1.6q-7,2.9 -10.1,1.3l-.8,1.6q4,1.7 11.5-1.3 M607.8,14.1l-1.3,1.1q1.4,1.1 -.1,1.3l.6,1.6q2.6-1.4 .8-4 M605.5,15l1.4,1q.3-.4 .7-.6l-1.1-.2l1.3-1.1q-1.7,.2 -2.3,.9" fill="#ffffff"></path><path d="M607.5,18.6l1.8,0q-.2-3.9 -.4-8.5l-1.8,0q.3,4.7 .4,8.5" fill="#ffffff"></path><path d="M605.7,1.5L607.5,1.5Q607.5,.8 607.5,.6L605.7,.6Q605.7,.8 605.7,1.5" fill="#ffffff"></path><path d="M616.2,18.1L614.7,17.2Q615.5,17.6 616.5,8.7L614.7,8.7Q614.7,19.1 616.2,18.1 M621,13.5L622.5,12.6Q619.8,8.7 614.7,17.2L614.7,17.2L616.2,18.1Q620,10.5 621,13.5 M622.8,20.6l1.8-.4q-1.3-6.1 -2.1-7.6l-1.5,.9q.7,1.1 1.8,7.1" fill="#ffffff"></path><path d="M629.2,20l.9-1.4q-3.1-1.5 2.7-7l-1.2-1.2q-6.4,6.6 -2.4,9.6 M637.8,19.5l-.4-1.8q-6.3,1.6 -7.3,.9l-.9,1.4q1.8,1 8.6-.5" fill="#ffffff"></path><path d="M662.8,16.4L664.6,16.4Q664.8,10.1 665.1,2.4L663.3,2.4Q663.1,10.1 662.8,16.4" fill="#ffffff"></path><path d="M676.9,2L676.7,.2Q671.7,1 665.8,2.5L666.2,4.1Q672,2.7 676.9,2" fill="#ffffff"></path><path d="M667.5,9.7L668.9,8.7Q668.5,8.1 668,7.3L666.6,8.3Q667.1,9 667.5,9.7" fill="#ffffff"></path><path d="M683.9,6.8L682.2,6.4Q682.3,7 672.4,10.6L673,12.2Q683.3,8.4 683.9,6.8 M676.7,11.2L678,12.3Q681.2,8.8 683.5,7.3L682.2,6.4L683.9,6.8Q680,7.5 676.7,11.2 M679.6,17.5l.9-1.5q-4.2-2.4 -2.5-3.7l-1.3-1.1q-2.1,2.8 2.9,6.3 M684.1,17.7l-.2-1.8q-1.7,.2 -3.8,0l.4,.1l-.9,1.5q2.6,.4 4.5,.2" fill="#ffffff"></path><path d="M691.2,17.6L689.6,16.9Q688.9,20.5 693,-.6L691.2,-.8Q688.2,22.1 691.2,17.6 M694.1,11.2L693.7,9.5Q693.2,9.6 689.6,16.9L689.6,16.9L691.2,17.6Q693.6,11.3 694.1,11.2 M696.7,17.9L698.3,17.5Q697.1,13.1 694.6,9.8L693.7,9.5L694.1,11.2Q695.5,13.9 696.7,17.9" fill="#ffffff"></path><path d="M705.6,20.5L707.4,20.3Q706.2,12.6 705.1,3.2L703.3,3.4Q704.5,12.8 705.6,20.5" fill="#ffffff"></path><path d="M717.9,11.1L716.7,9.9Q716.3,10.3 709.6,15.2L710.6,16.6Q717.3,11.7 717.9,11.1 M708,16.6L709.1,18Q714.7,13.4 717.8,11.2L716.7,9.9L717.9,11.1Q713.6,12.1 708,16.6 M716.3,21.7l.1-1.7q-10.8,0 -7.3-2l-1.1-1.4q-4,4.1 8.3,5.1" fill="#ffffff"></path><path d="M722.1,21.7l-.8,1.5q3.2,.8 1.4-11.1l-1.8,.4q2.2,10.4 1.2,9.2 M732.6,11.7l-.9-1.5q-16.2,9.7 -10.4,13l.8-1.5q-4.8-1.6 10.5-10" fill="#ffffff"></path><path d="M436,323.8l2-1.6q-1.2-1.2 .3-16.1l-2.6-.2q-1.4,15.4 .3,17.9" fill="#ffffff"></path><path d="M448.3,304.2l-.6-2.4q-6,1.6 -13.1,4l.8,2.4q7-2.4 12.9-4" fill="#ffffff"></path><path d="M449.8,307.5l2.4-1q-.1-.2 -18.5,3.2l.6,2.6q15.5-4.9 15.5-4.8" fill="#ffffff"></path><path d="M451.4,318.2l-.8-2.4q-7.6,2.1 -17,5l.8,2.4q9.3-2.8 17-5" fill="#ffffff"></path><path d="M458.8,322l-1.6-2q-2.7,3.6 2-6.5l-2.4-1q-4,13 2,9.5" fill="#ffffff"></path><path d="M454.7,308l2.6,0q0-.4 0-1l-2.6,0q0,.6 0,1" fill="#ffffff"></path><path d="M467.3,318.4l-2.5-.8q.6,2.3 2.5-7.5l-2.6-.2q0,12.5 2.6,8.5 M476.6,323.2l2.3-1.2q-9.3-16.4 -14.1-4.4l2.5,.8q2.4-10.2 9.3,4.8" fill="#ffffff"></path><path d="M485.4,318.2l-.6-2.5q-1.8,1.4 2.3-4l-2.2-1.4q-4.2,8.1 .5,7.9 M488,317.6l1.7-1.9q-1.3-.8 -4.9,0l.6,2.5q2.8-.7 2.6-.6 M488,329.4l.5,2.6q14.3-3.5 1.2-16.3l-1.7,1.9q12.3,10.3 0,11.8 M484.1,324.3l-2.2,1.4q2.3,3.4 5.6,6l1,.3l-.5-2.6q-1.9-2 -3.9-5.1" fill="#ffffff"></path><path d="M501.1,325.2l-.2-2.6q-4.6,1 -1.6-10.3l-2.6-.6q-2.5,13.3 4.4,13.5 M504,314.3l-2.6,0q.1,5 -1.6,9.2l1.1-.9l.2,2.6q2.9-5.4 2.9-10.9 M506.9,322.6l2.2-1.2q-3-5.3 -5.5-8l-2.2,.9l2.6,0q0,3.3 2.9,8.3" fill="#ffffff"></path><path d="M515.7,320.5l-2.4-.8q-.8,5.9 0-8.7l-2.6,0q1.3,17.1 5,9.5 M519.1,318.4l2.4-1q-4-7.9 -8.2,2.3l2.4,.8q1.9-8.4 3.4-2.1 M520.8,323.4l2.4-.8q-1.3-4.1 -1.7-5.2l-2.4,1q.4,.9 1.7,5" fill="#ffffff"></path><path d="M528.2,317.7l.5-2.6q-3.5,.4 3.9-3l-1.2-2.2q-8.8,5.8 -3.2,7.8 M534.4,316.9l-.6-2.6q-2.4,.6 -5.5,.8l.4,0l-.5,2.6q3.5-.3 6.2-.8 M535.2,326.1l2.6,.1q.3-12 -4-11.9l.6,2.6q1.6-1.1 .8,9.2 M528.5,324.9l-1.4,2.1q9.6,5.5 10.7-.8l-2.6-.1q.6,4 -6.7-1.2" fill="#ffffff"></path><path d="M542,324l1.7,2q2.2-2.4 -.4-15.3l-2.6,.6q2.7,12 1.3,12.7 M538.3,322.7l-.6,2.6q5.9,.8 6,.7l-1.7-2q-.1,.1 -3.7-1.3" fill="#ffffff"></path><path d="M440.5,342l1.7-1.9q-3-2 2.3-3.9l-1-2.4q-6.8,3.8 -3,8.2 M443.4,348.4l.5,2.5q6.8-2 -1.7-10.8l-1.7,1.9q7.7,6.4 2.9,6.4 M438.7,345.9l-1.4,2.2q4.7,3 6.6,2.8l-.5-2.5q-.6,.2 -4.7-2.5" fill="#ffffff"></path><path d="M451,347.2l2,1.6q1.8-2.2 4-5l-2-1.6q-2.2,2.8 -4,5" fill="#ffffff"></path><path d="M451.2,331q0,1.2 -1.2,1.2q-1.2,0 -1.2-1.2q0-1.2 1.2-1.2q1.2,0 1.2,1.2" fill="#ffffff"></path><path d="M466.8,346.2l0-2.6q-1.8,.8 2.3-3.8l-2.2-1.6q-4.3,7.1 -.1,8 M470.5,345.3l-.8-2.5q-1.4,.4 -3.2,.8l.3,0l0,2.6q2.1-.5 3.7-.9 M471.1,352.8l2.6,.2q.4-10.8 -4-10.2l.8,2.5q1.6-1.4 .6,7.5 M468.3,356.5l.2,2.6q4.5-.6 5.2-6.1l-2.6-.2q0,3.9 -2.8,3.7 M467.2,352.6l-2.4,.8q.8,2.8 2.6,5.1l1.1,.6l-.2-2.6q-.4-1.4 -1.1-3.9" fill="#ffffff"></path><path d="M484.4,348.5l-2.4-.9q1,.6 .3-6.8l-2.6,.4q2.6,9.5 4.7,7.3 M497.1,349.7l1.4-2.1q-12.6-8.4 -16.5,0l2.4,.9q2-6.7 12.7,1.2" fill="#ffffff"></path><path d="M501.5,348.8l1.3-2.2q-5.8-2.5 1.3-2.3l-.2-2.6q-9.4,1.8 -2.4,7.1 M513.6,348.2l.8-2.4q-3.7-1.4 -7.9-1.6q-2.6,1.6 -4.8,2.3l1.1,.1l-1.3,2.2q3.6-.7 5.7-2.3q3,.4 6.4,1.7" fill="#ffffff"></path><path d="M518.7,349.3l2.6-.6q-1.9-8.1 -4-18l-2.6,.6q2.2,9.9 4,18" fill="#ffffff"></path><path d="M777,303.9l2.2-1.3q-3.2-3.3 -13.4,17.9l2.4,1q8.7-19.8 8.8-17.6 M780.7,317.3l2.6-.6q-1.4-6.4 -3.9-13.9l-.2-.2l-2.2,1.3q2.4,7.1 3.7,13.4" fill="#ffffff"></path><path d="M778.6,316.2l.8-2.4q-3.7-1.2 -8.1-2.1l-.6,2.6q4.4,.8 7.9,1.9" fill="#ffffff"></path><path d="M793.7,317.6l-2.6-.5q.2,4.3 -3.9-6.6l-2.4,1q6.5,12.4 8.9,6.1 M793.6,313.1l-2.6,.3q.1,1.7 .1,3.9l0-.2l2.6,.5q0-2.6 -.1-4.5 M794.8,321.5l2.4-1q-2.2-5.2 -3.8-7.9l-2.4,.8l2.6-.3q-.9,3.4 1.2,8.4" fill="#ffffff"></path><path d="M802.8,321.8l-.9,2.4q7.9,2 -.8-14.8l-2.2,1.2q8.8,14.2 3.9,11.2 M803.3,318.1l-2.6-.2q-.3,2.8 .4,5.4l.8,.9l.9-2.4q.2-1.3 .5-3.7" fill="#ffffff"></path><path d="M814.3,321.3l2.4-1q-3.3-7.8 -1.6-10.7l-2.2-1.2q-2.1,4.2 1.4,12.9 M812.1,324.9l-1.3,2.2q9.6,4.4 5.9-6.8l-2.4,1q4.3,8.3 -2.2,3.6 M809,321.2l-2,1.6q1.5,2 3.6,4.1l.2,.2l1.3-2.2q-1.7-1.8 -3.1-3.7" fill="#ffffff"></path><path d="M812.3,319.6l2.6-.1q-.9-10.7 2.1-5.7l2-1.6q-6.1-5.8 -6.7,7.4 M817.6,321.8l-2.1-1.5q-1.4,3.3 -.6-.8l-2.6,.1q1,6.4 5.3,2.2 M819.5,311.9l-2.6-.2q-.3,4.2 -1.6,9l.2-.4l2.1,1.5q1.5-5.4 1.9-9.9 M822.1,319.4l2.5-.9q-6-14.2 -7.7-6.8l2.6,.2q-.8-5 2.6,7.5 M816.9,334.5l.8,2.4q11.6-3.9 6.9-18.4l-2.5,.9q4.8,12.5 -5.2,15.1 M815.1,326.8l-2.6-.3q-.8,11.5 5.2,10.4l-.8-2.4q-3.3,1.7 -1.8-7.7" fill="#ffffff"></path><path d="M829.5,325.8l-.2-2.5q-4.4,1.2 2.8-11.7l-2.2-1.2q-7.4,15.1 -.4,15.4 M834.3,312l-2.6-.2q-.6,6.6 -3.4,12.2l1-.7l.2,2.5q4.1-6.7 4.8-13.8 M841.6,320.2l.8-2.4q-2.1-.7 -4.3-1.9q-2.1-3.2 -4.3-5l-2.1,.9l2.6,.2q-.2,2.4 2.1,5.7q2.9,1.8 5.2,2.5" fill="#ffffff"></path><path d="M846,320.8l-2.5-.2q1.1,1.5 1.8-9.7l-2.6,.2q1.7,13.5 3.3,9.7 M848.7,322.7l2.2-1.5q-6-7.3 -7.4-.6l2.5,.2q-.5-4.4 2.7,1.9" fill="#ffffff"></path><path d="M859,316.1l2.5-.7q-2.1-4.3 .8-1.3l1.4-2.2q-5.9-2.9 -4.7,4.2 M861.7,325.2l1.1,2.3q1.6-1.5 -1.3-12.1l-2.5,.7q2.9,9.7 2.7,9.1 M855,323.5l-1,2.4q6.5,2.5 8.8,1.6l-1.1-2.3q-1,.6 -6.7-1.7 M856.8,324l-1.6-2q-1.2,1 -1.8,2.1l.6,1.8l1-2.4q1,1.2 1.8,.5" fill="#ffffff"></path><path d="M871,310.5l1.8,1.8q.2-.9 2.3,1.6l1.8-1.8q-3.6-3.3 -5.9-1.6 M870.3,310.9l1.4,2.2q.8-.5 1.1-.8l-1.8-1.8q0,0 -.7,.4" fill="#ffffff"></path><path d="M862.4,320.7l1.2-2.2q-3.2-1.2 1.4-6.7l-2-1.6q-5.2,7.3 -.6,10.5 M865.7,318.9l-2.1-1.6q-.5,.8 -1.3,1.2l1.3,0l-1.2,2.2q2.4-.7 3.3-1.8 M859,332l2.4,.9q3.4-9.1 4.5-14.5l-2.3-1.1l2.1,1.6q-3.4,4.1 -6.7,13.1 M861.3,329l-2.6,0q0,2.3 .2,3.7l2.5,.2l-2.4-.9q2.3-.8 2.3-3" fill="#ffffff"></path><path d="M869.3,317.9l2.3-1.2q-3.1-5.3 .9-6.5l-1-2.4q-5.4,2.8 -2.2,10.1 M871.5,325.8l1.5,2.1q2.8-2.7 -1.4-11.2l-2.3,1.2q3.9,7.2 2.2,7.9 M866.6,323.8l-1.2,2.4q5.7,2.7 7.6,1.7l-1.5-2.1q-.2,.6 -4.9-2" fill="#ffffff"></path><path d="M773.8,334l1.5,2.1q1.3-2 -.6,2.6l2.6,.6q.9-7.2 -3.5-5.3 M776.4,354.3l2.5-.8q-3.3-9.1 -3.1-18.4l-.5,1l-1.5-2.1q-.7,10.8 2.6,20.3 M771.4,351.8l-.8,2.4q4.1,1.2 7.2,1l1.1-1.7l-2.5,.8q-1.4-1.5 -5-2.5" fill="#ffffff"></path><path d="M791.1,354.4l-2.2,1.2q3.7,4.4 .3-10l-2.4,.8q4.7,11.2 4.3,8" fill="#ffffff"></path><path d="M787.7,339l2.6,0q0-.4 0-1l-2.6,0q0,.6 0,1" fill="#ffffff"></path><path d="M794.4,349.8l2-1.7q-2.7-1.6 5.4,.2l.4-2.6q-10.6-.7 -7.8,4.1 M801.8,350.1l-.5-2.6q-2.8,.6 -5.7,.2l.8,.4l-2,1.7q4.2,.8 7.4,.3 M803,358.5l2.6-.2q-1-10.7 -4.3-10.8l.5,2.6q.7-.9 1.2,8.4 M795.8,363.8l-.7,2.5q10.7,2.2 10.5-8l-2.6,.2q1.2,8 -7.2,5.3 M795.3,357l-2.6,0q0,4.4 1.5,8.5l.9,.8l.7-2.5q-.5-2.8 -.5-6.8" fill="#ffffff"></path><path d="M808.8,355.2l2.6-.5q-1-4.5 -2.1-10l-2.6,.6q1.2,5.4 2.1,9.9 M815.4,350.7l-2.1-1.4q-2.1,3.2 -4,4.6l2.1,.8l-2.6,.5q4.3-1 6.6-4.5 M824.5,355l1.9-1.7q-8.9-9.4 -13.1-4l2.1,1.4q2-4.2 9.1,4.3 M826.8,359.5l2.4-1q-1.9-4.2 -2.8-5.2l-1.9,1.7q.6,.6 2.3,4.5" fill="#ffffff"></path><path d="M831.9,359.5l.1-2.6q-3.1,.7 2.2-9.3l-2.4-1.2q-5.4,12.1 .1,13.1 M838,349.5l-2.5-.8q-1.5,4.8 -4.6,8.7l1.1-.5l-.1,2.6q4.4-4.8 6.1-10 M843.2,354l1.6-2q-3.9-3.1 -7.7-4.2l-1.6,.9l2.5,.8q1.7,1.7 5.2,4.5" fill="#ffffff"></path><path d="M847.7,363.2l2.6-.4q-1.8-11.3 -4-25l-2.6,.4q2.2,13.8 4,25" fill="#ffffff"></path><path d="M179,956l-3-6q-31,17 -6-83l-6-2q-24,107 15,91 M212,888l-6-1q-14,56 -30,63l3,6q19-9 33-68 M181,847l-1,7q34,6 26,33l6,1q7-32 -31-41 M176,860l5-5q-7-5 -1-1l1-7q-13,0 -5,13" fill="#ffffff"></path><path d="M483.8,1042.9l.8-1.8q-8.7-3.8 -18.7-1.4q-4.1,1.1 -31.6-7.7l-.6,2q27.8,8.8 32.6,7.7q9.4-2.4 17.5,1.2 M498.5,981.6l-2-.3q-10.7,61.2 -11.9,59.8l-.8,1.8q3.7,.8 14.7-61.3 M514.2,777.3l-2-.5q-1.4,6.3 -2.8,14q-2.6,34.8 -5.1,77.3q-3,86 -7.8,113.2l2,.3q4.8-27.3 7.8-113.4q2.6-42.5 5.1-77.2q1.4-7.5 2.8-13.7 M512,776.5l1.1,1.7q.3-.2 .4-.2l-1.3-1.2l2,.5q-1.7-1.1 -2.2-.8 M510.7,1020.7l1.9,.9q4.6-10.4 4.6-60.6q-.1-152.4 -1.2-156.8q-3.6-13.2 -2.5-26.7l-.4,.7l-1.1-1.7q-1.6,14.7 2,28.2q1.2,4.4 1.1,156.3q.1,50 -4.4,59.7 M504.1,1052.1l-.1-2.2q-4.8,1 8.6-28.3l-1.9-.9q-13.5,30.8 -6.6,31.4 M631,1047.5l1.4-1.4q-12.2-11.4 -46.1-3.7q-20.4,4.7 -24.3,3.4q-9-2.8 -20-4.1q-17.3,4.4 -38.1,8.3l.1-.1l.1,2.2q21.1-3.9 38.1-8.3q10.3,1.3 19.1,4q4.7,1.4 25.5-3.3q33.1-7.7 44.2,3 M641.6,1013.9l-2.1-.2q-2.5,37.8 -7.1,32.4l-1.4,1.4q7.2,5.7 10.6-33.6 M650.3,947.1l-1.9-1q-4.4,9 -8.9,67.6l2.1,.2q4.5-58.4 8.7-66.8 M646.3,1012.8l2,.2q3.7-71.9 .1-66.9l1.9,1q.9-4.1 -4,65.7 M652.7,1035.1l.9-1.8q-6.4-2.9 -5.3-20.3l-2-.2q-1,18.4 6.4,22.3 M751.7,1040l.2-2.1q-20.9-1.2 -46.3-1.6q-40.3,2.7 -52-3l-.9,1.8q12.3,5.9 52.9,3.3q25.3,.4 46.1,1.6 M752.3,1008l-2.2,.1q1.4,30.6 1.8,29.8l-.2,2.1q1.9-.7 .6-32 M785.9,752.5l-.7-2.3q-5.8,2 -8.2,18.2q-2.5,17.3 -6.2,38.2q-4.8,20.6 -9.6,46.1q-12.4,128.8 -11.1,155.4l2.2-.1q-1.1-26.3 11.4-155q4.8-25.2 9.7-45.9q3.6-21 6.1-38.3q2.1-15.2 6.4-16.3 M787.6,823.5l2.4,0q-1.8-73.1 -4.8-73.3l.7,2.3q.1-1.1 1.7,71 M773.8,1041.3l2.5-.1q-1.5-52.3 4.8-82.4q10.9-52.6 8.9-135.3l-2.4,0q1.9,82.6 -8.9,134.7q-6.4,30.6 -4.9,83.1 M815,1048.7l-.3-2.5q-38.7,5.8 -38.4-5l-2.5,.1q1,12.9 41.2,7.4 M866.2,1047.2l.4-2q-19.9-3.5 -51.9,1l.3,2.5q31.8-4.7 51.2-1.5" fill="#00ff8c"></path><path d="M644.1,788.6l.1-2.6q-44.4-2.4 -59.5-3.1q-21.8-1 -48.4-2.5q-13.4-1 -17.1,1.6l1.6,2q2.6-2.1 15.3-1q26.7,1.5 48.5,2.5q15.1,.7 59.5,3.1" fill="#ffffff"></path><path d="M657.7,788.1l.4,2.6q8.7-2.6 -11.8-9l-.6,2.6q18.5,3.9 12,3.8 M647,788.7l0,2.6q5-.2 11-.6l.1,0l-.4-2.6q-5.8,.5 -10.7,.6" fill="#ffffff"></path><path d="M521,786.6l2.1-1.5q-3-3.3 5.6-9l-1.4-2.2q-9.7,7.2 -6.3,12.7 M530,788.3l0-2.6q-6.6,.2 -6.9-.6l-2.1,1.5q1.6,1.8 9,1.7" fill="#ffffff"></path><path d="M535.3,754.6l1.2,0q.4-6.7 1-15l-1.2,0q-.7,8.2 -1,15" fill="#ffffff"></path><path d="M544.7,737.6l0-1.2q-4,.2 -8.8,.6l0,1.2q4.9-.3 8.8-.6" fill="#ffffff"></path><path d="M544.4,745.4l0-1.2q-3.2-.1 -7.2,0l0,1.2q4,0 7.2,0" fill="#ffffff"></path><path d="M549.1,744.8l.4,1.2q2.4-1.4 -5.1,2.1l.6,1.2q8.1-5.1 4.1-4.5 M547.6,753.1l1.1-.7q-3.9-5.2 .8-6.4l-.4-1.2q-5.5,2 -1.5,8.3 M556.2,749.5l-.8-.9q-6,5.5 -6.7,3.8l-1.1,.7q2,2.2 8.6-3.6" fill="#ffffff"></path><path d="M556.2,755.7l1.2-.1q-.2-8.5 -.4-19l-1.2,0q.2,10.5 .4,19.1 M557.7,748.4l-1.2,0q-.2,4.7 -.3,7.2l1.2,0l-1.2,.1q1.4-2.6 1.5-7.3" fill="#ffffff"></path><path d="M564.8,755.5l1-.6q-2.4-4 -5.3-8.8l-1,.6q2.8,4.9 5.3,8.8" fill="#ffffff"></path><path d="M570.8,753.1l.6-1q-2.2-1.2 -3.9-16.6l-1.2,.2q1.7,15.7 4.5,17.4" fill="#ffffff"></path><path d="M574.8,747l-1.3,0q0,.3 0,.6l1.2,.2q.1-.4 .1-.8 M573.6,752.1l1.2,0q0-3.3 0-5.1l-1.3,0l1.3,0q-1.3,1.8 -1.2,5.1 M577.9,753.9l.2-1.2q-2-.3 -3.6-1.1l.3,.5l-1.2,0q2.1,1.5 4.3,1.8" fill="#ffffff"></path><path d="M583.2,752.2l-1.3,0q.7-.5 .9-1.6l-1.2,.2q1,2.2 1.6,1.4 M584,746.2l-1-.8q-1.1,1.5 -1.1,6.8l1.3,0q-.1-5 .8-6" fill="#ffffff"></path><path d="M589.8,752.1l1.2-.2q-.7-6.6 -1.7-14.7l-1.2,.2q.9,8.1 1.7,14.7" fill="#ffffff"></path><path d="M591.5,747.7l-.2-1.2q-3.1,.2 -6.9,.6l.2,1.2q3.7-.3 6.9-.6" fill="#ffffff"></path><path d="M598.3,751.8l-.8,1q1.3,.2 -1.6-7.3l-1.2,.6q3.1,6.1 3.6,5.7" fill="#ffffff"></path><path d="M597.5,740.3l.8-.8q-.1-.2 -.3-.3l-.8,.8q.1,.2 .3,.3" fill="#ffffff"></path><path d="M606.2,751.8l.4-1.2q-6.5-1.7 -.9-4.2l-.6-1.2q-6.2,3.8 1.1,6.6 M612.2,749.2l-.6-1q-2.4,1.5 -5.4,2.4l.4,0l-.4,1.2q3.5-1 6-2.6" fill="#ffffff"></path><path d="M617.2,755.4l1.2-.4q-1.4-4.7 -1.5-5.9q-1.4-9.1 1.4-13.5l-1-.6q-3.1,4.8 -1.7,14.3q.2,1.3 1.6,6.1" fill="#ffffff"></path><path d="M625.3,744.7l-1.1,.7q1.7,1.7 -12,2.4l0,1.2q14.7-1.1 13.1-4.3 M620.3,748.3l1.2,.4q1.7-5.5 2.7-3.3l1.1-.7q-2.4-2.7 -5,3.6 M628.4,754.5l.3-1.2q-8.4-2.1 -7.2-4.6l-1.2-.4q-1,3.6 8.1,6.2" fill="#ffffff"></path><path d="M612.6,1172l1.6-.8q-.9-1.6 -1.4-13.1l-1.6,0q.5,11.8 1.4,13.9" fill="#ffffff"></path><path d="M622.1,1157.2l0-1.6q-4.7-.2 -10.5,0l0,1.6q5.8-.1 10.5,0" fill="#ffffff"></path><path d="M622.2,1165.1l1.4-1q-.4-.4 -11.6-.3l0,1.6q9.9-.7 10.2-.3" fill="#ffffff"></path><path d="M626,1163.9l-1.5-1q-1,1.6 -2.3,3.4l1.4,1q1.3-1.9 2.4-3.4 M623.2,1168.7l1.7,.5q.9-3.6 1.2-5.7l-1.6-.6l1.5,1q-1.8,1.3 -2.8,4.8 M633.7,1168l-.7-1.5q-9.4,4.7 -8.1,2.7l-1.7-.5q-.4,4 10.5-.7" fill="#ffffff"></path><path d="M634.3,1173.1l1.7-.1q-.6-8.5 -1.4-18.9l-1.6,.2q.7,10.3 1.3,18.8 M637,1166.8l-1.7-.2q-.5,4.1 -.9,6.3l1.6,.1l-1.7,.1q2.2-2.1 2.7-6.3 M640.1,1171.7l1.4-1q-2.6-3.2 -4.9-4.7l-1.3,.6l1.7,.2q.7,1.9 3.1,4.9" fill="#ffffff"></path><path d="M646.5,1170.5l1.6-.4q-1.8-8 -3.9-17.8l-1.6,.4q2,9.8 3.9,17.8" fill="#ffffff"></path><path d="M647.8,1166.1l1.4,.9q0-1 -.5-.1l1.6-.2q-.7-2.3 -2.5-.6 M651.5,1171.9l-.1-1.7q-5.5,.8 -2.2-3.2l-1.4-.9q-3.3,5.7 3.7,5.8 M655.4,1168.6l-1.4-1q-2.2,2.8 -2.6,2.6l.1,1.7q1.3-.2 3.9-3.3" fill="#ffffff"></path><path d="M658.5,1172l1.6-.4q-.9-3.4 -2-7.6l-1.6,.4q1.1,4.2 2,7.6 M663.3,1163.5l-1.6-.4q-1.5,5.4 -3.2,8.3l1.6,.2l-1.6,.4q3.2-2.8 4.8-8.5" fill="#ffffff"></path><path d="M609.2,1186.6l1.7,.1q-.1-3.8 2.7-.1l1.2-1.2q-4.5-4.1 -5.6,1.2 M614.8,1198.4l1.5-.9q-3.2-4.9 -5.5-11.1l.1,.3l-1.7-.1q2.4,6.8 5.6,11.8 M609.9,1197.4l-.1,1.6q3.5,.4 6-.2l.5-1.3l-1.5,.9q-1.6-.7 -4.9-1 M611.1,1196.3l-1.6-.6q-.9,2.7 .3,3.3l.1-1.6q.3,.5 1.2-1.1" fill="#ffffff"></path><path d="M619.1,1196.3l1.6-.6q-.9-2.3 -1.8-5.2l-1.6,.4q.9,3 1.8,5.4" fill="#ffffff"></path><path d="M618.9,1181.2q0,.8 -.8,.8q-.8,0 -.8-.8q0-.8 .8-.8q.8,0 .8,.8" fill="#ffffff"></path><path d="M628.1,1194.8l-.1-1.7q-2.3,.7 2.2-4.5l-1.4-1q-4.7,6.8 -.7,7.2 M631.3,1192.8l-1-1.3q-1.1,.9 -2.6,1.7l.3-.1l.1,1.7q2-.9 3.2-2 M633.5,1199.3l1.7-.4q-2.3-8.7 -4.9-7.4l1,1.3q.7-1.2 2.2,6.5 M629.8,1204l0,1.7q6.6-.1 5.4-6.8l-1.7,.4q1.6,5.2 -3.7,4.7 M627.5,1201.6l-1.4,1q1.4,1.6 3.2,3l.5,.1l0-1.7q-1.2-1 -2.3-2.4" fill="#ffffff"></path><path d="M637.8,1200.6l1.7-.4q-1.1-4.4 -2.7-9.7l-1.6,.4q1.5,5.3 2.6,9.7 M640.8,1194.8l-1.7-.3q-.5,3.7 -1.2,5.6l1.6,.1l-1.7,.4q2.4-2 3-5.8 M645.4,1192.8l.3-1.6q-5.6-.9 -6.6,3.3l1.7,.3q.2-3.1 4.6-2 M648.2,1200.9l1.6-.4q-1-4.7 -3.5-8.9l-.6-.4l-.3,1.6q1.8,3.6 2.8,8.1" fill="#ffffff"></path><path d="M650.4,1197.6l1.5-.6q-1.7-3.6 1.2-4.2l-.4-1.6q-4.1,1.5 -2.3,6.4 M657,1192.4l-1.6-.6q-2.8,8.5 -3.5,5.2l-1.5,.6q2.5,4.3 6.6-5.2 M657.8,1197.4l1.6-.5q-1.1-3.4 -2.5-5.3l-1.5,.2l1.6,.6q-.2,1.8 .8,5 M660.7,1197.9l-.5-1.7q-1.2,.5 -.8,.7l-1.6,.5q.8,.9 2.9,.5 M661.6,1194.7l-1.6,0q.1,1.9 .2,1.5l.5,1.7q1-.7 .9-3.2" fill="#ffffff"></path><path d="M664.7,1202.3l.8-1.4q-1.7-.7 -2.6-21.5l-1.6,0q.9,21.3 3.4,22.9" fill="#ffffff"></path><path d="M139.5,1396.5l-.2,2.1q7.2,.2 8.5-20.5l-2.2-.2q-.8,19.6 -6.1,18.6 M137.7,1393.9l-2-.6q-1,4.4 3.6,5.3l.2-2.1q-3,0 -1.8-2.6" fill="#ffffff"></path><path d="M156.4,1402.6l.8-2.1q-6.9-1.7 7.4-9.9l-1.2-1.8q-15.2,10 -7,13.8 M168.6,1396.7l-1.4-1.8q-8.4,6.5 -10,5.6l-.8,2.1q3.1,.8 12.2-5.9" fill="#ffffff"></path><path d="M169.2,1399.7l1.4-1.7q-1.6-1.3 3.8-20.8l-2-.6q-4.8,21.8 -3.2,23.1 M175.4,1392.3l-2-.9q-1.7,4.2 -4.2,6.7l1.4-.1l-1.4,1.7q4.3-2.9 6.2-7.4 M180.2,1402.8l2-.7q-6.2-14.6 -8.8-10.7l2,.9q.1-2.7 4.8,10.5" fill="#ffffff"></path><path d="M189.1,1403.3l1.1-1.9q-3.2-1.4 4-9.4l-1.6-1.4q-7.7,9.4 -3.5,12.7 M195.7,1395.6l-2-.9q-3,7.8 -3.5,6.7l-1.1,1.9q2.7,1 6.6-7.7 M193.9,1392l-1.6,1.5q.9,.9 1.4,2.1l0-.9l2,.9q-.7-2.4 -1.8-3.6 M192.8,1398.4l2.1-.4q-.8-3.4 -.7-5.3l-1.9,.8l1.6-1.5q-1.9,2.9 -1.1,6.4 M200,1401.3l.2-2.2q-3.1-.4 -5.9-1.9l.6,.8l-2.1,.4q3.7,2.4 7.2,2.9" fill="#ffffff"></path><path d="M206.2,1401.3l-1-1.9q-.8,1.5 3.3-20.7l-2.2-.4q-3.6,23.9 -.1,23 M207.3,1394l-2.2,.2q.3,3 -.4,5.9l.5-.7l1,1.9q1.4-4 1.1-7.3" fill="#ffffff"></path><path d="M209.6,1403.7l2.2-.3q-1.2-9.4 3.2-24l-2-.6q-4.6,15 -3.4,24.9" fill="#ffffff"></path><path d="M220.9,1392.3l1.6,1.4q4.3-5.2 7.7-3.1l1-1.8q-4.9-2.4 -10.3,3.5 M222.5,1399.1l.7-2.1q-3.6-.6 -.7-3.3l-1.6-1.4q-3.4,4.6 1.6,6.8 M233.4,1394l-1.2-1.8q-4.3,3 -9.7,4.8l.7,0l-.7,2.1q6.4-2 10.9-5.1 M233.9,1402.1l2.1,.1q.2-11.8 -3.8-10l1.2,1.8q1.5-2 .5,8.1 M218.3,1405.9l-.8,2q17.3,7 18.5-5.7l-2.1-.1q-.1,10.8 -15.6,3.8" fill="#ffffff"></path><path d="M246.3,1387.5l1,1.9q-.7-.8 -3.5,1.2l1.6,1.4q3-4.6 .9-4.5 M245,1402.2l.9-2q-11.5-4.2 1.4-10.8l-1-1.9q-14.1,8.6 -1.3,14.7 M254.6,1398.9l-1-1.8q-3.8,2 -8.4,3l.7,.1l-.9,2q5.6-1.1 9.6-3.3" fill="#ffffff"></path><path d="M259,1394.5l1.3,1.7q4.5-4.3 -5.9-8.1l-.6,2q8.9,2.4 5.2,4.4 M251.4,1394.1l-1.4,1.6q5.3,4.1 10.3,.5l-1.3-1.7q-3.6,3.1 -7.6-.4 M254.3,1394.7l-.4-2.2q-2.4,.6 -3.8,1.5l-.1,1.7l1.4-1.6q.9,1 2.9,.6" fill="#ffffff"></path><path d="M264.5,1398.2l1.5-1.6q-3.7-2.8 5.7-6.5l-.8-2q-10.6,5.1 -6.4,10.1 M275.2,1394.7l-2.2,0q1.2,11 -7,1.9l-1.5,1.6q10.6,9.5 10.7-3.5" fill="#ffffff"></path><path d="M281.5,1395.9l-2-.8q-.4,4 1.8-18.7l-2.2-.2q-.7,24.9 2.4,19.7 M288.7,1399l2-.9q-6.7-12.8 -11.2-3l2,.8q2.5-8.5 7.2,3.1" fill="#ffffff"></path><path d="M307.3,1394l-.8-2q-3.8,1.6 -7.9,1.8q-2-1.8 -5.3,.1q-1.3,1.7 -.9-4.8l-2.2,0q.5,8.2 4.3,6.6q2-1.5 3.4,0q5.3,0 9.4-1.7" fill="#ffffff"></path><path d="M310.8,1397.5l2.2-.2q-.2-2.3 -.5-5l-2.2,.2q.3,2.8 .5,5" fill="#ffffff"></path><path d="M311.1,1381.5l1.6-1.4q-.2-.3 -.5-.6l-1.6,1.4q.2,.3 .5,.6" fill="#ffffff"></path><path d="M321.4,1394l2.1-.2q-.6-5 -3-5.8l-.4,2.2q1-.2 1.3,3.8 M326.9,1392.3l-1.7-1.3q-2.3,4.1 -1.7,2.8l-2.1,.2q1.2,3.2 5.5-1.7 M328.1,1396.5l2.1-.3q-1.5-8.6 -5-5.2l1.7,1.3q1-2.7 1.2,4.2" fill="#ffffff"></path><path d="M337.2,1398.5l1-1.9q-3.9-1.3 3.3-7.3l-1.4-1.6q-7.9,7.6 -2.9,10.8 M344.5,1380l-2.1,0q-.2,19.4 -4.2,16.6l-1,1.9q6.5,2.5 7.3-18.5 M340.8,1374.9l1.8,1.2q.6-2.6 -.2,3.9l2.1,0q-.4-8.4 -3.7-5.1 M344.3,1398.3l2-.6q-3.2-10.4 -3.5-22.2l-.2,.6l-1.8-1.2q.2,12.8 3.5,23.4" fill="#ffffff"></path><path d="M350.9,1399.9l2.2-.4q-.5-2.7 -1.1-6.1l-2.2,.4q.6,3.3 1.1,6.1" fill="#ffffff"></path><path d="M352.2,1380.2l1.8-1.2q-.9-1.3 -1.1-1.6l-1.8,1.2q.2,.3 1.1,1.6" fill="#ffffff"></path><path d="M359,1397.2l.4-2.1q-2.4,.2 3.4-5.3l-1.6-1.4q-6.3,7.2 -2.2,8.8 M366.9,1393.6l-1.2-1.8q-3,2 -6.8,3.3l.5,0l-.4,2.1q4.7-1.5 7.9-3.6 M366.2,1400.9l2.2,.1q-.1-9.9 -2.7-9.2l1.2,1.8q-.1-1 -.7,7.3 M356.4,1410.3l.4,2.1q11-2.6 11.6-11.4l-2.2-.1q0,7.4 -9.8,9.4 M353.2,1407.8l-1.4,1.6q1.9,1.7 4.3,3l.7,0l-.4-2.1q-1.5-1 -3.2-2.5" fill="#ffffff"></path><path d="M380.3,1398.1l2.2-.2q-.7-9.7 -1.6-21.7l-2.2,.2q.9,11.9 1.6,21.7" fill="#ffffff"></path><path d="M381.2,1397l.5-2.2q-5-.2 6.9-6.5l-1-1.8q-13,8.2 -6.4,10.5 M397,1390.7l-1.8-1.2q-5,7.3 -13.5,5.3l-.5,2.2q9.8,1.8 15.8-6.3 M390.5,1390.7l.8,2q3.1-1.3 4.9-1.5l-1-1.7l1.8,1.2q-3.2-1.3 -6.5,0 M388.7,1396.4l2.1-.6q-1.1-2.8 .5-3.1l-.8-2q-2.8,1.6 -1.8,5.7 M396.6,1398l-.2-2.2q-5.9,.6 -5.6,0l-2.1,.6q1.1,2 7.9,1.6" fill="#ffffff"></path><path d="M403.2,1396.4l2.2-.2q-.2-2.7 0-5.9l-2.2-.2q-.1,3.4 0,6.3" fill="#ffffff"></path><path d="M405.3,1379.1q0,1 -1,1q-1,0 -1-1q0-1 1-1q1,0 1,1" fill="#ffffff"></path><path d="M415.9,1397.9l2.2,.2q1.1-10.2 2.3-22.8l-2.2-.2q-1.1,12.5 -2.3,22.8" fill="#ffffff"></path><path d="M428.7,1390.8l0-2.2q-6.3,0 -13.9,0l0,2.2q7.6,0 13.9,0" fill="#ffffff"></path><path d="M152.9,1480.6l1.9-1q-2.4-4.3 -5.3-3l1.2,1.8q.9-1.1 2.2,2.2 M159.3,1497.9l2.1-.7q-2.8-8 -6.6-17.5l0-.1l-1.9,1q3.7,9.4 6.4,17.3 M164,1479.9l-2.2-.2q-.8,11.4 -2.5,17.5l2.1,0l-2.1,.7q3.9-6.5 4.7-18" fill="#ffffff"></path><path d="M174.6,1504.6l-.3-2.1q-1.9,.9 .2-19.9l-2.2-.2q-1.8,22 2.3,22.2 M182.4,1500.7l-1.2-1.8q-3.1,1.9 -7.2,3.7l.3-.1l.3,2.1q4.5-1.9 7.8-3.9" fill="#ffffff"></path><path d="M187.1,1502.3l.6-2.1q-4.3-.8 -2.2-7.9l-2-.6q-2.1,8.6 3.6,10.6 M190.1,1496.9l-2.2,.2q.9,4 -.2,3.1l-.6,2.1q3.3,.3 3-5.4" fill="#ffffff"></path><path d="M198,1501.9l1-2q-4.5-2.2 -9.4-5.5l-1.2,1.8q5.1,3.4 9.6,5.7" fill="#ffffff"></path><path d="M201.6,1504.9l2.1,.1q.8-11.9 6.2-20.2l-1.8-1.2q-5.7,8.8 -6.5,21.3" fill="#ffffff"></path><path d="M203.8,1497.8l1.6-1.6q-1.6-1.5 -3.4-3.3l-1.6,1.6q1.9,1.8 3.4,3.3" fill="#ffffff"></path><path d="M213.5,1503.7l2.2,0q.2-9 1.1-19.9l-2.2-.2q-.9,11 -1.1,20.1" fill="#ffffff"></path><path d="M216.4,1497.6l-.2-2.2q-6.2,.4 -7.8,.5l.2,2.2q1.5-.1 7.8-.5" fill="#ffffff"></path><path d="M246.2,1484.8l.2-2.2q-7.1-.3 -15.7-.6l0,2.2q8.5,.2 15.5,.6" fill="#ffffff"></path><path d="M246.8,1487.5l0-2.2q-5.5,0 -12.2,0l0,2.2q6.7,0 12.2,0" fill="#ffffff"></path><path d="M294.9,1483.4l1.4-1.7q-5.7-4.4 -14.8-.7l.8,2q8-3.6 12.6,.4 M290.7,1485.7l.3,2.2q9.3-2 5.3-6.2l-1.4,1.7q3.4,1.8 -4.2,2.3 M291.9,1487.1l-1.9-1.1q-.1,.3 -.2,.6l1.2,1.3l-.3-2.2q1.2,1.4 1.2,1.4 M294.6,1492l2-.8q-4.1-8.1 -6.6-5.2l1.9,1.1q.2-1.9 2.7,4.9 M288.7,1496.9l.2,2.2q10-1.6 7.7-7.9l-2,.8q2.5,4.3 -5.9,4.9 M284.1,1494.9l-1,2q2.4,1.2 5.4,2.2l.4,0l-.2-2.2q-2.4-.8 -4.6-2" fill="#ffffff"></path><path d="M306.3,1486.7l1.5,1.6q3.3-3.9 -1.5-6.8l-1,2q3.7,1.2 1,3.2 M310.8,1490.8l.7-2.1q-4.1-1.1 -3.7-.4l-1.5-1.6q-.8,1.9 4.5,4.1 M312.4,1496.1l1.4,1.6q5.4-5.8 -2.3-9l-.7,2.1q6.3,1.6 1.6,5.3 M302.2,1494.9l-.6,2q5.5,1.4 11.6,1.1l.6-.3l-1.4-1.6q-5.1,0 -10.2-1.2" fill="#ffffff"></path><path d="M331.5,1486.9l1-1.9q-6.8-3.2 -9.3,5l2,.6q1.4-6.9 6.3-3.7 M332.7,1496.9l1.5,1.6q7.6-7.9 -1.7-13.5l-1,1.9q8.1,4 1.2,10 M323.3,1490.7l-1.6,1.5q8.7,9.3 12.5,6.3l-1.5-1.6q-1.9,2.5 -9.4-6.2" fill="#ffffff"></path><path d="M361.5,1496.5l1.6,1.4q1.7-2.4 -2.9-11.4l-2,1q4.4,8.1 3.3,9 M369.2,1486.7l-1.8-1.1q-4.2,7 -6.1,11.1l1.8,1.2l-1.6-1.4q3.6-2.8 7.7-9.8 M371.4,1489.6l2-.8q-3-6.9 -6-3.2l1.8,1.1q.8-2.7 2.2,2.9 M370.6,1492.1l2.1,.7q.5-1.6 .8-3.5l-.1-.5l-2,.8q-.3,1.2 -.8,2.5 M377.6,1489.4l-1.4-1.6q-3,2.7 -5,3.7l1.5,1.3l-2.1-.7q3.8,.1 7-2.7 M384.9,1497.9l2-.7q-5.3-13.4 -10.7-9.4l1.4,1.6q3.1-3.6 7.3,8.5" fill="#ffffff"></path><path d="M397.8,1499.8l1.8-1.2q-3.5-4.9 3.4-17.8l-2-1q-7.1,13.8 -3.2,20" fill="#ffffff"></path><path d="M408.9,1491.5l2-.8q-2.7-5.2 4.1-5.9l-.4-2.2q-8.3,1.8 -5.7,8.9 M412.7,1501.5l2,.9q.4-1.6 -3.8-11.7l-2,.8q4.1,9.8 3.8,10 M402.3,1499.3l-.6,2q6.1,2 12,1.7l1-.6l-2-.9q-4.6-.3 -10.4-2.2" fill="#ffffff"></path><path d="M167.1,1545.5l-2.3-1.2q-3.7,9.6 -10.6-15.7l-2.4,.8q8.7,27 15.3,16.1 M169.3,1533.1l-2.6-.2q-.5,5.4 -2,11.7l.1-.3l2.3,1.2q1.6-6.8 2.2-12.4" fill="#ffffff"></path><path d="M173,1552.4l-1.6-.5q-.2,3.4 1.3-7.2l-1.8-.2q-.1,12.5 2.1,7.9 M175.9,1553.9l1.3-1.2q-4.3-4.1 -5.8-.8l1.6,.5q.1-2.1 2.9,1.5 M183.2,1542.6l-1.6-.4q-2.8,13.2 -4.4,10.5l-1.3,1.2q3.7,3 7.3-11.3" fill="#ffffff"></path><path d="M186,1556.2l-.4-1.7q-2.5,1.4 3.2-4.5l-1.4-1.2q-5.9,7.9 -1.4,7.4 M189.2,1552.6l-1.4-.9q-1,1.6 -2.6,3l.4-.2l.4,1.7q2.1-1.9 3.2-3.6 M191.8,1556.5l1.4-1q-2-2.7 -4.2-4.1l-1.2,.3l1.4,.9q.8,1.4 2.6,3.9" fill="#ffffff"></path><path d="M193.9,1555.8l.4,1.6q3.6-1.4 .8-10.1l-1.6,.6q2.8,7.6 .4,7.9 M193.5,1555.5l-1.5,.7q.8,1.4 2.3,1.2l-.4-1.6q-.3,.3 -.4-.3 M194.8,1555l-1-1.4q-1.1,.7 -1.8,1.8l0,.8l1.5-.7q.4,.1 1.3-.5" fill="#ffffff"></path><path d="M201.8,1548.9l1.7,.3q-.4-1.2 .2,.7l1.4-1q-2.3-2.6 -3.3,0 M203.3,1557.6l1.7-.4q-1-3.7 -1.5-8.2l0,.2l-1.7-.3q.6,4.9 1.5,8.7 M200.7,1556.9l-.7,1.6q5.1,1.6 5-1.3l-1.7,.4q.8,1.1 -2.6-.7 M201.7,1556.4l-1.6-.8q-.5,1 -.6,2l.5,.9l.7-1.6q.5,.2 1-.5" fill="#ffffff"></path><path d="M208.7,1558.5l1.2-1.3q-3.2-2.6 .9-7.3l-1.4-1q-4.4,5.7 -.7,9.6 M214.6,1559.1l-.2-1.8q-2.3,.2 -5-.3l.5,.2l-1.2,1.3q3.3,.7 5.9,.6" fill="#ffffff"></path><path d="M217.4,1559l-.1,1.7q2.5-.4 .2-11.9l-1.6,.4q2.3,10.4 1.5,9.8 M221.1,1548.9l-1.6-.8q-2.8,6.3 -3,11.7l.8,.9l.1-1.7q.9-4.2 3.7-10.1" fill="#ffffff"></path><path d="M244.3,1540.6l.3-1.7q-3.7-.6 -5.6,1.1l1.2,1.2q1.1-1.3 4.1-.6" fill="#ffffff"></path><path d="M247.6,1545l0-1.8q-3.2,0 -7.1,0l0,1.8q3.9,0 7.1,0" fill="#ffffff"></path><path d="M289.8,1536.4l1.4-1q-3.2-4 -12.3,.4l.8,1.6q8.1-4.3 10.1-1 M289.5,1547.5l1.7,.1q.8-10.9 0-12.2l-1.4,1q.5,.4 -.3,11.1" fill="#ffffff"></path><path d="M300.9,1532.7l1.6,.8q.8-1.6 1.8-3.5l-1.6-.8q-.9,1.9 -1.8,3.5" fill="#ffffff"></path><path d="M310.3,1539.7l1.4-1q-1.8-2.3 2.2-7.7l-1.4-1q-4.3,6.2 -2.2,9.7 M314.5,1545.3l1.3-1.1q-1.9-2.4 -4.1-5.5l-1.4,1q2.3,3.1 4.2,5.6 M310.2,1544.1l-.2,1.8q3.2,.2 5.4-.3l.4-1.4l-1.3,1.1q-1.4-.9 -4.3-1.2" fill="#ffffff"></path><path d="M325.4,1532.3l.2-1.8q-5.6-.5 -12.4-.9l0,1.8q6.7,.3 12.2,.9" fill="#ffffff"></path><path d="M331.4,1534.5l-.9-1.4q-3.6,2.7 -3.3,8.5l1.8-.2q-.5-5 2.4-6.9 M337.3,1539l1.7-.3q-2.4-9.4 -8.5-5.6l.9,1.4q4.5-3.7 5.9,4.5 M329.8,1543l-.1,1.7q10.2,.2 9.3-6l-1.7,.3q1.4,4.7 -7.5,4 M328.9,1540l-1.6,.4q.5,2.2 1.7,4l.7,.3l.1-1.7q-.4-1.2 -.9-3" fill="#ffffff"></path><path d="M349.2,1535.6l1-1.3q-4.9-3.1 -7,4.3l1.6,.4q1.2-6.2 4.4-3.4 M351.6,1543.4l1.6,.6q1.8-6.1 -3-9.7l-1,1.3q4.1,2.8 2.4,7.8 M340.2,1542l-.4,1.6q12,3.3 13.4,.4l-1.6-.6q-.2,1.8 -11.4-1.4" fill="#ffffff"></path><path d="M383.2,1545.1l1.6-.6q-2-5.7 -4.8-12.6l-1.6,.6q2.8,6.9 4.8,12.6 M388.4,1538.7l-1.5-.7q-1.8,4.2 -3.6,6.3l1.5,.2l-1.6,.6q3.4-2.1 5.2-6.4 M390.5,1540.3l1.6-.5q-2.6-6.7 -5.2-1.8l1.5,.7q1-3.9 2.1,1.6 M389,1543.1l1.2,1.2q2.4-2.6 1.9-4.5l-1.6,.5q.4,.8 -1.5,2.8 M401.1,1544.8l1-1.4q-6.6-3.7 -6.9-3.5q-3.8,2.1 -5.9,3l.9,1.4l-1.2-1.2q3.2,.5 7-1.7q.3-.2 5.1,3.4" fill="#ffffff"></path><path d="M410.1,1542.6l1.6-.5q-1-3 1.7-14.9l-1.6-.4q-2.8,12.3 -1.7,15.8" fill="#ffffff"></path><path d="M421.5,1538.2l1.7-.4q-1-3.1 1.3-3.9l-.8-1.6q-3.1,1.7 -2.2,5.9 M425.1,1546.9l1.6-.7q-1.7-3.8 -3.5-8.5l0,.1l-1.7,.4q1.9,4.9 3.6,8.7 M416.1,1544.7l-.7,1.5q13.2,5.9 11.3,0l-1.6,.7q2.5,3.8 -9-2.2" fill="#ffffff"></path><path d="M158.7,1595l-1.6-.6q-.2,2.5 -8.2-16.7l-1.6,.6q9.3,20.3 11.4,16.7 M161.2,1579.4l-1.6-.2q-.9,7 -2.6,15.4l.1-.2l1.6,.6q1.7-8.5 2.5-15.6" fill="#ffffff"></path><path d="M170.3,1604.8l1.5,.9q1.2-2.4 -4.3-11.4q-2-2.4 2.7-2.7l-.2-1.6q-6,1 -4,5.2q5.3,8.4 4.3,9.6 M164.2,1600l-1.5,.9q5.8,9.1 9.1,4.8l-1.5-.9q-1.6,3.5 -6.1-4.8" fill="#ffffff"></path><path d="M178.1,1605.1l1.6-.4q-1.9-10.2 -4-22.8l-1.6,.2q2,12.7 4,23" fill="#ffffff"></path><path d="M182.5,1597.3l.6-1.6q-2.6-.9 -10.9,.5l.2,1.6q8.1-1.3 10.1-.5" fill="#ffffff"></path><path d="M184.4,1603.9l-.4-1.7q-6.2,2.3 2.2-7.4l-1.4-1q-8.5,11.5 -.4,10.1 M187.8,1597.2l-1.7-.5q-.8,3.1 -2.6,5.9l.5-.4l.4,1.7q2.5-3.4 3.4-6.7 M191.5,1602l1.2-1.2q-2.7-3.2 -5.3-4.6l-1.3,.5l1.7,.5q1.1,1.8 3.7,4.8" fill="#ffffff"></path><path d="M196.3,1602.5l-1.7-.4q.7,.8 .6-12.2l-1.8,0q1.5,14.7 2.9,12.6 M200.7,1602.2l1-1.4q-5.4-3.8 -7.1,1.3l1.7,.4q.5-3.9 4.4-.3 M205.7,1596.6l-1.7-.2q-.6,6.4 -2.3,4.4l-1,1.4q3.5,2.1 5-5.6" fill="#ffffff"></path><path d="M209.8,1607.7l1.6-.4q-2-10.6 -4-23.7l-1.6,.2q1.9,13.2 4,23.9" fill="#ffffff"></path><path d="M258.7,1583.2l-.2-1.6q-6.7,.9 -15,1.7l.2,1.8q8.3-.9 15-1.9" fill="#ffffff"></path><path d="M257.7,1588.2l0-1.8q-5.8,.1 -12.8,.4l0,1.8q7.1-.3 12.8-.4" fill="#ffffff"></path><path d="M291,1593.5l1.7-.3q-1.3-6.2 7.7-13.6l-1-1.4q-9.6,8.2 -8.4,15.3 M299.1,1593.6l-.9-1.5q-5.5,3.7 -5.5,1.1l-1.7,.3q1.2,3.9 8.1,.1 M299.9,1585.6l-1.3,1.1q3.3,3.6 -.4,5.4l.9,1.5q4.5-3.1 .8-8 M293,1586.5l.6,1.6q4.8-2 5-1.4l1.3-1.1q-1.4-1.2 -6.9,.9" fill="#ffffff"></path><path d="M308.6,1580.1l1.2,1.2q1.7-1.4 3.9-3l-1-1.4q-2.3,1.6 -4.1,3.2" fill="#ffffff"></path><path d="M324.2,1580.9l-1.3-1q-3.4,4.6 2.4,11.5l1.2-1.2q-5.3-5.9 -2.3-9.3 M330.5,1585.5l1.4-.9q-5.5-8.4 -9-4.7l1.3,1q1.8-3 6.3,4.6 M326.1,1592.5l.5,1.6q9.1-2.7 5.3-9.5l-1.4,.9q3.6,5.2 -4.4,7 M324.9,1587.2l-1.5-.7q-3.5,8.9 3.2,7.6l-.5-1.6q-4.8,1.9 -1.2-5.3" fill="#ffffff"></path><path d="M338.4,1583.1l-1.1-1.3q-2.8,2.6 -2.1,8.2l1.6-.2q-.7-4.9 1.6-6.7 M343.6,1587.1l1.7-.2q-1.5-10.1 -8-5.1l1.1,1.3q4.7-4.7 5.2,4 M337.3,1592.1l-.1,1.7q8.7,.6 8.1-6.9l-1.7,.2q1.1,6.1 -6.3,5 M338.6,1589.3l-1.6-.6q-.7,2.3 -.6,4.3l.8,.8l.1-1.7q.6-.9 1.3-2.8" fill="#ffffff"></path><path d="M355.1,1584.4l-.1-1.7q-7.4,.6 -6.5,10l1.6-.2q-1.1-8.2 5-8.1 M358,1589.8l1.8,0q-.1-7 -4.8-7.1l.1,1.7q3.4-.5 2.9,5.4 M349.1,1591.3l-.6,1.6q10.6,3.9 11.3-3.1l-1.8,0q.3,5.5 -8.9,1.5" fill="#ffffff"></path><path d="M389.6,1595.4l-1-1.4q.1,.7 -.1-4.6l-1.8,.2q.9,6.4 2.9,5.8 M398.7,1593.3l1.6,.7q3.8-10.2 -11.7,0l1,1.4q13.5-10.2 9.1-2.1 M399,1592.8l-.4,1.7q.5,.1 1,0l.7-.5l-1.6-.7q.5-.4 .3-.5 M406.6,1591.1l-.5-1.6q-5,1.7 -7.7,3.4l.2,1.6l.4-1.7q2.8-.1 7.6-1.7 M411.6,1596.2l1.2-1.2q-6.1-5.7 -6.7-5.5l.5,1.6q.6-.2 5,5.1" fill="#ffffff"></path><path d="M420.7,1594.6l1.6,.4q1.5-7 3.5-15.5l-1.6-.4q-2,8.5 -3.5,15.5" fill="#ffffff"></path><path d="M442.9,1601.2l1.4,.9q2.5-4.8 -5.8-13.5q-3.7-3.2 .3-3.6l-.4-1.6q-5.2,1.6 -1.1,6.4q7.8,7.9 5.6,11.4 M437.7,1601.8l0,1.8q3.1-.1 6.2-1.1l.4-.4l-1.4-.9q-2.4,.6 -5.2,.6" fill="#ffffff"></path></svg>