<svg viewBox="-129.3 -186.8 522.7 379.1" width="522.7" height="379.1" version="1.1" baseProfile="full" xmlns="http://www.w3.org/2000/svg" class="js-draw--autoresize"><style id="js-draw-style-sheet">path{stroke-linecap:round;stroke-linejoin:round;}text{white-space:pre;}</style><g class="js-draw-image-background js-draw-image-background-grid js-draw-image-background-grid-25"><path d="M393.4,192.3l0-379.1l-522.7,0l0,379.1l522.7,0" fill="#03035e"></path><path d="M-129.65,-175l523.4,0m-523.4,25l523.4,0m-523.4,25l523.4,0m-523.4,25l523.4,0m-523.4,25l523.4,0m-523.4,25l523.4,0m-523.4,25l523.4,0m-523.4,25l523.4,0m-523.4,25l523.4,0m-523.4,25l523.4,0m-523.4,25l523.4,0m-523.4,25l523.4,0m-523.4,25l523.4,0m-523.4,25l523.4,0m-523.4,25l523.4,0m-518.75-362.15l0,379.8m25-379.8l0,379.8m25-379.8l0,379.8m25-379.8l0,379.8m25-379.8l0,379.8m25-379.8l0,379.8m25-379.8l0,379.8m25-379.8l0,379.8m25-379.8l0,379.8m25-379.8l0,379.8m25-379.8l0,379.8m25-379.8l0,379.8m25-379.8l0,379.8m25-379.8l0,379.8m25-379.8l0,379.8m25-379.8l0,379.8m25-379.8l0,379.8m25-379.8l0,379.8m25-379.8l0,379.8m25-379.8l0,379.8m25-379.8l0,379.8" fill="none" stroke="#fcfca133" stroke-width=".7"></path></g><path d="M-51,-174q10.2,108.4 9.2,149.9q-.9,76.5 -1.2,139.1" fill="none" stroke="#f0f0f0" stroke-width="2.6"></path><path d="M-52,127q30.5-.8 89,.8q74.4-.3 135.3-1.4q57.5,1.7 104.6,4.1q51,1.6 92.8,2.3" fill="none" stroke="#f0f0f0" stroke-width="2.6"></path><path d="M374,124q-1-5.8 5.7-2.3q12.4,6.3 -.7,25.8" fill="none" stroke="#f0f0f0" stroke-width="2.6"></path><path d="M-72,-172q13.6-13.5 21.3-10.9q21.9,7.3 10.7,12.9" fill="none" stroke="#f0f0f0" stroke-width="2.6"></path><path d="M-116,-159q6.3-1.7 12.3,4.4q12,12.3 -6.6,9.9q-17.7-2.2 -14.9-13.8q16.3-7.2 34.2-8.5" fill="none" stroke="#f0f0f0" stroke-width="2.6"></path><path d="M353,159q4.1-4 1.2-3.2q-5.9,1.6 -11.3,13.7q-3,6.7 9.3,2.9q-.5,.1 -1.3,.2q-4,.5 -5.4,12.6q-.6,5.8 18.2,5.6" fill="none" stroke="#f0f0f0" stroke-width="2.6"></path><path d="M-39,120q24.6-61 27.8-65.8q11.9-21.3 21-39q15.4-29.7 51.3-55q40.7-28.8 73.5-37.5q58-15.3 71.1-16.8q27.7-3.2 79.3-.5q1.7,.1 8.4,1.4" fill="none" stroke="#f0f0f0" stroke-width="2.6"></path><path d="M-34,-52q9.5,.6 47.3-1.4q49.4-2.5 57.7,1.4" fill="none" stroke="#f0f0f0" stroke-width="2.6"></path><path d="M-112,-60q1.7,11.5 3,21" fill="none" stroke="#f0f0f0" stroke-width="2.6"></path><path d="M-112,-55q4.3-10.1 7.3-4.3q3.3,8.8 5.5,16.2q1.1,1.7 2.2,3.1" fill="none" stroke="#f0f0f0" stroke-width="2.6"></path><path d="M-91,-44q17.8-1.7 12.5-8.2q-3.1-3.8 -2.3,6.9q.3,3.6 7.1,4.8" fill="none" stroke="#f0f0f0" stroke-width="2.6"></path><path d="M327.4,-90.2l.6-1.9q-14.1-4.5 -63.8-2.9q-78.9,2.7 -82.2,3.6q-23.6,6.8 -52.5,14.8q-30.3,7.9 -51.1,24.8l1.2,1.6q20.5-16.7 50.5-24.4q28.9-8.1 52.5-14.8q3.2-1 81.7-3.5q49.4-1.7 63.1,2.7" fill="#00ff8c"></path><path d="M193.9,-116.3l1.8-.8q-5.6-12.3 -12.8-27.3l-1.8,.8q7.1,15 12.8,27.3 M198,-144l-2,0q-.1,17.4 -2.2,27.1l1.9-.2l-1.8,.8q4.1-10.1 4.1-27.7" fill="#00ff8c"></path><path d="M208.8,-130.6l.2,2q2-1 -5.6,3.8l1.2,1.6q8.4-6.9 4.2-7.4 M203.5,-119.2l2,.1q.5-9.5 3.5-9.5l-.2-2q-4.5,.8 -5.3,11.4 M212.6,-114.8l-.5-2q-7.3,1.9 -6.6-2.3l-2-.1q.1,6 9.1,4.4" fill="#00ff8c"></path><path d="M218,-124.4l-1.9-.4q.3,2 -.2-.6l-1.8,.8q2.5,3.8 3.9,.2 M222.8,-131.4l-1.6-1.2q-2.6,3.2 -5,7.5l-.1,.3l1.9,.4q2.3-3.8 4.8-7" fill="#00ff8c"></path><path d="M230.6,-123.1l2-.5q-1.5-4.9 2.6-5.4l-.4-2q-5.4,1.5 -4.2,7.9 M230.9,-114.4l.2,2q3.8-.9 1.5-11.2l-2,.5q2.5,9 .3,8.7 M225.7,-118.7l-1.4,1.4q4.7,4.9 6.8,4.9l-.2-2q-.9,.3 -5.2-4.3" fill="#00ff8c"></path><path d="M236.1,-119.3l1.9,.6q1.2-3.7 1-7.4l-2,.2q.2,3.2 -.9,6.6 M246.9,-112.2l.2-2q-10.9-.6 -9.1-4.5l-1.9-.6q-1.4,5.8 10.8,7.1" fill="#00ff8c"></path><path d="M253,-114l2,0q-.3-12.6 -1-28l-2,0q.6,15.4 1,28" fill="#00ff8c"></path><path d="M254.5,-125.1l-1-1.8q-1.8,.9 -4,2l1,1.8q2.2-1.1 4-2" fill="#00ff8c"></path><path d="M262.4,-123.6l2-.3q-.9-3.7 -7.4-4.1l0,2q5.3,0 5.4,2.4 M260.7,-113.4l1.9,.4q1.2-4.8 1.8-10.6l0-.3l-2,.3q-.6,5.5 -1.7,10.2 M268.3,-113l-.6-2q-3.4,1 -6,.8l.9,1.2l-1.9-.4q3.8,1.5 7.6,.4" fill="#00ff8c"></path><path d="M281,-118.2l-1.8-1q-4.1,9.2 -6.2-7l-2,.4q3.6,17.8 10,7.6 M286.8,-114l1.8-1q-5.5-10 -9.4-4.2l1.8,1q1.9-4.7 5.8,4.2" fill="#00ff8c"></path><path d="M292.6,-119.4l-2-.6q.8,.5 .4-5.2l-2,.4q2,7.3 3.6,5.4 M301,-118.1l1.9-.8q-7.1-14.2 -12.3-1.1l2,.6q3.2-11.7 8.4,1.3 M301,-113.1l2,.2q.2-2.6 0-5.7l-.1-.3l-1.9,.8q.2,2.6 0,5" fill="#00ff8c"></path><path d="M309.9,-114.1l.3-2q-1.5,.5 4.7-9.4l-1.8-1q-6.4,11.2 -3.2,12.4 M314.5,-121.5l-1.9-.6q-1.1,3.7 -3.4,6.4l1-.4l-.3,2q3.4-3.4 4.6-7.4 M316.8,-115.4l2-.4q-3.6-11.8 -6.2-6.3l1.9,.6q.5-4.1 2.3,6.1 M308.8,-110.1l-.9,1.8q13.7,6.6 10.9-7.5l-2,.4q3.5,12.1 -8,5.3" fill="#00ff8c"></path><path d="M327.7,-120.3l-1.4-1.4q-2.4,2.4 -3,3l1.4,1.4q.6-.6 3-3" fill="#00ff8c"></path><path d="M324,-110l2,0q0-8.7 1-11.7l-2-.6q-1,3.4 -1,12.3" fill="#00ff8c"></path><path d="M332.6,-112.8l1.7,1.3q1.6-2.2 3.5-4.9l-1.6-1.2q-1.9,2.7 -3.6,4.8 M339.5,-114.9l-1.2-1.6q-3.3,2.4 -5.3,3.5l1.3,1.5l-1.7-1.3q3.5,.4 6.9-2.1 M343.3,-109l2-.4q-2.3-9.8 -7-7.1l1.2,1.6q2.5-2.5 3.8,5.9" fill="#00ff8c"></path><path d="M215,-110.9l2-.2q-.7-8.6 -2-19l-2,.2q1.3,10.4 2,19" fill="#00ff8c"></path></svg>