<svg viewBox="-239.3 -116.15 2147.2 3462.25" width="2147.2" height="3462.25" version="1.1" baseProfile="full" xmlns="http://www.w3.org/2000/svg" class="js-draw--autoresize"><style id="js-draw-style-sheet">path{stroke-linecap:round;stroke-linejoin:round;}text{white-space:pre;}</style><g class="js-draw-image-background js-draw-image-background-grid js-draw-image-background-grid-25"><path d="M1907.9,3346.1l0-3462.25l-2147.2,8.526512829121202e-14l0,3462.25l2147.2,0" fill="#03035e"></path><path d="M-239.65,-100l2147.9,0m-2147.9,25l2147.9,0m-2147.9,25l2147.9,0m-2147.9,25l2147.9,0m-2147.9,25l2147.9,0m-2147.9,25l2147.9,0m-2147.9,25l2147.9,0m-2147.9,25l2147.9,0m-2147.9,25l2147.9,0m-2147.9,25l2147.9,0m-2147.9,25l2147.9,0m-2147.9,25l2147.9,0m-2147.9,25l2147.9,0m-2147.9,25l2147.9,0m-2147.9,25l2147.9,0m-2147.9,25l2147.9,0m-2147.9,25l2147.9,0m-2147.9,25l2147.9,0m-2147.9,25l2147.9,0m-2147.9,25l2147.9,0m-2147.9,25l2147.9,0m-2147.9,25l2147.9,0m-2147.9,25l2147.9,0m-2147.9,25l2147.9,0m-2147.9,25l2147.9,0m-2147.9,25l2147.9,0m-2147.9,25l2147.9,0m-2147.9,25l2147.9,0m-2147.9,25l2147.9,0m-2147.9,25l2147.9,0m-2147.9,25l2147.9,0m-2147.9,25l2147.9,0m-2147.9,25l2147.9,0m-2147.9,25l2147.9,0m-2147.9,25l2147.9,0m-2147.9,25l2147.9,0m-2147.9,25l2147.9,0m-2147.9,25l2147.9,0m-2147.9,25l2147.9,0m-2147.9,25l2147.9,0m-2147.9,25l2147.9,0m-2147.9,25l2147.9,0m-2147.9,25l2147.9,0m-2147.9,25l2147.9,0m-2147.9,25l2147.9,0m-2147.9,25l2147.9,0m-2147.9,25l2147.9,0m-2147.9,25l2147.9,0m-2147.9,25l2147.9,0m-2147.9,25l2147.9,0m-2147.9,25l2147.9,0m-2147.9,25l2147.9,0m-2147.9,25l2147.9,0m-2147.9,25l2147.9,0m-2147.9,25l2147.9,0m-2147.9,25l2147.9,0m-2147.9,25l2147.9,0m-2147.9,25l2147.9,0m-2147.9,25l2147.9,0m-2147.9,25l2147.9,0m-2147.9,25l2147.9,0m-2147.9,25l2147.9,0m-2147.9,25l2147.9,0m-2147.9,25l2147.9,0m-2147.9,25l2147.9,0m-2147.9,25l2147.9,0m-2147.9,25l2147.9,0m-2147.9,25l2147.9,0m-2147.9,25l2147.9,0m-2147.9,25l2147.9,0m-2147.9,25l2147.9,0m-2147.9,25l2147.9,0m-2147.9,25l2147.9,0m-2147.9,25l2147.9,0m-2147.9,25l2147.9,0m-2147.9,25l2147.9,0m-2147.9,25l2147.9,0m-2147.9,25l2147.9,0m-2147.9,25l2147.9,0m-2147.9,25l2147.9,0m-2147.9,25l2147.9,0m-2147.9,25l2147.9,0m-2147.9,25l2147.9,0m-2147.9,25l2147.9,0m-2147.9,25l2147.9,0m-2147.9,25l2147.9,0m-2147.9,25l2147.9,0m-2147.9,25l2147.9,0m-2147.9,25l2147.9,0m-2147.9,25l2147.9,0m-2147.9,25l2147.9,0m-2147.9,25l2147.9,0m-2147.9,25l2147.9,0m-2147.9,25l2147.9,0m-2147.9,25l2147.9,0m-2147.9,25l2147.9,0m-2147.9,25l2147.9,0m-2147.9,25l2147.9,0m-2147.9,25l2147.9,0m-2147.9,25l2147.9,0m-2147.9,25l2147.9,0m-2147.9,25l2147.9,0m-2147.9,25l2147.9,0m-2147.9,25l2147.9,0m-2147.9,25l2147.9,0m-2147.9,25l2147.9,0m-2147.9,25l2147.9,0m-2147.9,25l2147.9,0m-2147.9,25l2147.9,0m-2147.9,25l2147.9,0m-2147.9,25l2147.9,0m-2147.9,25l2147.9,0m-2147.9,25l2147.9,0m-2147.9,25l2147.9,0m-2147.9,25l2147.9,0m-2147.9,25l2147.9,0m-2147.9,25l2147.9,0m-2147.9,25l2147.9,0m-2147.9,25l2147.9,0m-2147.9,25l2147.9,0m-2147.9,25l2147.9,0m-2147.9,25l2147.9,0m-2147.9,25l2147.9,0m-2147.9,25l2147.9,0m-2147.9,25l2147.9,0m-2147.9,25l2147.9,0m-2147.9,25l2147.9,0m-2147.9,25l2147.9,0m-2147.9,25l2147.9,0m-2147.9,25l2147.9,0m-2147.9,25l2147.9,0m-2147.9,25l2147.9,0m-2147.9,25l2147.9,0m-2147.9,25l2147.9,0m-2147.9,25l2147.9,0m-2147.9,25l2147.9,0m-2147.9,25l2147.9,0m-2147.9,25l2147.9,0m-2133.25-3441.5l0,3462.95m25-3462.95l0,3462.95m25-3462.95l0,3462.95m25-3462.95l0,3462.95m25-3462.95l0,3462.95m25-3462.95l0,3462.95m25-3462.95l0,3462.95m25-3462.95l0,3462.95m25-3462.95l0,3462.95m25-3462.95l0,3462.95m25-3462.95l0,3462.95m25-3462.95l0,3462.95m25-3462.95l0,3462.95m25-3462.95l0,3462.95m25-3462.95l0,3462.95m25-3462.95l0,3462.95m25-3462.95l0,3462.95m25-3462.95l0,3462.95m25-3462.95l0,3462.95m25-3462.95l0,3462.95m25-3462.95l0,3462.95m25-3462.95l0,3462.95m25-3462.95l0,3462.95m25-3462.95l0,3462.95m25-3462.95l0,3462.95m25-3462.95l0,3462.95m25-3462.95l0,3462.95m25-3462.95l0,3462.95m25-3462.95l0,3462.95m25-3462.95l0,3462.95m25-3462.95l0,3462.95m25-3462.95l0,3462.95m25-3462.95l0,3462.95m25-3462.95l0,3462.95m25-3462.95l0,3462.95m25-3462.95l0,3462.95m25-3462.95l0,3462.95m25-3462.95l0,3462.95m25-3462.95l0,3462.95m25-3462.95l0,3462.95m25-3462.95l0,3462.95m25-3462.95l0,3462.95m25-3462.95l0,3462.95m25-3462.95l0,3462.95m25-3462.95l0,3462.95m25-3462.95l0,3462.95m25-3462.95l0,3462.95m25-3462.95l0,3462.95m25-3462.95l0,3462.95m25-3462.95l0,3462.95m25-3462.95l0,3462.95m25-3462.95l0,3462.95m25-3462.95l0,3462.95m25-3462.95l0,3462.95m25-3462.95l0,3462.95m25-3462.95l0,3462.95m25-3462.95l0,3462.95m25-3462.95l0,3462.95m25-3462.95l0,3462.95m25-3462.95l0,3462.95m25-3462.95l0,3462.95m25-3462.95l0,3462.95m25-3462.95l0,3462.95m25-3462.95l0,3462.95m25-3462.95l0,3462.95m25-3462.95l0,3462.95m25-3462.95l0,3462.95m25-3462.95l0,3462.95m25-3462.95l0,3462.95m25-3462.95l0,3462.95m25-3462.95l0,3462.95m25-3462.95l0,3462.95m25-3462.95l0,3462.95m25-3462.95l0,3462.95m25-3462.95l0,3462.95m25-3462.95l0,3462.95m25-3462.95l0,3462.95m25-3462.95l0,3462.95m25-3462.95l0,3462.95m25-3462.95l0,3462.95m25-3462.95l0,3462.95m25-3462.95l0,3462.95m25-3462.95l0,3462.95m25-3462.95l0,3462.95m25-3462.95l0,3462.95m25-3462.95l0,3462.95" fill="none" stroke="#fcfca133" stroke-width=".7"></path></g><path d="M-238,-111q1.1,22 2,40" fill="none" stroke="#ffffff" stroke-width="2.6"></path><path d="M-238,-111q9,.2 15.7,8.2q8.7,10.5 -4.5,11.4q-4,.3 -4,.4q11.9,12.8 25.8,21" fill="none" stroke="#ffffff" stroke-width="2.6"></path><path d="M-189.3,-93.3q8.6,1.3 15.6,2.3" fill="none" stroke="#ffffff" stroke-width="1.1"></path><path d="M-187.5,-87.3q15.5,0 15.3-.2" fill="none" stroke="#ffffff" stroke-width="1.1"></path><path d="M-130.7,-115.3q-2.1,5.4 -2.2,14.1q-.1,14.8 9.7,14q4.9-.4 8.7-28.1q-.1,0 -.1,0q-1-.3 .6,20.4q.9,5.8 1.8,10.5" fill="none" stroke="#ffffff" stroke-width="1.1"></path><path d="M-139.3,-72.8q20.8,1.2 37.8,2.1q1.2,.1 5.5,2.6" fill="none" stroke="#ffffff" stroke-width="1.1"></path><path d="M-124.3,-64.8q.6,16.6 1.1,30.1" fill="none" stroke="#ffffff" stroke-width="1.1"></path><path d="M-229.2,15.2q.1-1.2 .2-.8q1.5,18 1.4,32.9" fill="none" stroke="#ffffff" stroke-width="1.8"></path><path d="M-230.6,19.9q7.7-2.4 14.2-.4q13.8,4.4 -2.9,15.7q-11.9,8 12.6,12.3" fill="none" stroke="#ffffff" stroke-width="1.8"></path><path d="M-195.5,21.3q9.4,3.9 15.9,4.7" fill="none" stroke="#ffffff" stroke-width="1.8"></path><path d="M-193.6,33q8.7,.8 15.9,1.4" fill="none" stroke="#ffffff" stroke-width="1.8"></path><path d="M-137.5,19.9q3.8,25.8 5.8,26q1.6,.2 3.3-15.7q3.3,2.9 7.1,9q3.4,5.5 10-14.1" fill="none" stroke="#ffffff" stroke-width="1.8"></path><path d="M-105.7,34.4q.2,5.2 .5,9.4" fill="none" stroke="#ffffff" stroke-width="1.8"></path><path d="M-104.8,20.9q.2,.2 0,.2q-.2,0 -.2-.2q0-.2 .2-.2q.2,0 .2,.2" fill="none" stroke="#ffffff" stroke-width="1.8"></path><path d="M-96.4,34.4q9-5.4 5.2-4.4q-5.7,1.4 -1.6,10.2q.6,1.5 7.2,3.6" fill="none" stroke="#ffffff" stroke-width="1.8"></path><path d="M-77.2,31.1q-5.1,13.3 .3,14.5q5-8 6.7-18.7" fill="none" stroke="#ffffff" stroke-width="1.8"></path><path d="M-69.7,21.3q-.3-.4 -.6-.6q.7,7.8 5.3,20.3" fill="none" stroke="#ffffff" stroke-width="1.8"></path><path d="M-56.6,32.5q-3.9,3.7 -3.1,8.2q.2,1 3.6,3.1" fill="none" stroke="#ffffff" stroke-width="1.8"></path><path d="M-47.7,31.6q1.8,16.7 3.3,17.2q2.4-6.2 2.1-15q.9-1.3 2.1-2.2" fill="none" stroke="#ffffff" stroke-width="1.8"></path><path d="M-29.5,34q-.3,2 2.3,6.9q5.5,10.2 -5.1,10.4q-4.3-2.5 -7.5-5.7" fill="none" stroke="#ffffff" stroke-width="1.8"></path><path d="M-10.8,19.5q-2.4,18.1 -3.8,33.1" fill="none" stroke="#ffffff" stroke-width="1.8"></path><path d="M-15.9,35.8q9.2,.9 16.8,1.9" fill="none" stroke="#ffffff" stroke-width="1.8"></path><path d="M4.7,35.4Q-3.2,36.1 -2.8,42.5Q-2.4,49.7 5.2,44.5Q8.4,42.3 7.2,35.3Q8.7,38 10.9,43.1Q11.3,44.1 15.9,45.2" fill="none" stroke="#ffffff" stroke-width="1.8"></path><path d="M20.1,34.4q.6,11.6 1.4,11.7q5.9-3.8 10.1-9q5.3-6.5 15.6,8.5q2.3-2.6 4.2-7.4" fill="none" stroke="#ffffff" stroke-width="1.8"></path><path d="M56.1,33.5q-3.6,6.8 -2.7,11.8q1,5.1 4.4,.4q1.5-8.5 1.1-16" fill="none" stroke="#ffffff" stroke-width="1.8"></path><path d="M59.8,17.6q3.1,25.5 1.4,39.3" fill="none" stroke="#ffffff" stroke-width="1.8"></path><path d="M-223.1,78.4q-.1-1.1 -.3-1q-2.5,1.4 0,16.4q1.8,11.2 8.9,4.9q3.2-2.9 3-15.8q0-3.5 -1.8-1.5q-2.7,3.2 6.1,19.4" fill="none" stroke="#ffffff" stroke-width="1.8"></path><path d="M-194.1,84.9q8.2-.3 15-.4" fill="none" stroke="#ffffff" stroke-width="1.8"></path><path d="M-193.2,89.1q7.5,.3 13.6,.5" fill="none" stroke="#ffffff" stroke-width="1.8"></path><path d="M-120.2,74.6q-4.8-4.2 -10.2,.7q-7.5,6.8 12.1,23.2q1.8,1.5 -14.5-.5" fill="none" stroke="#ffffff" stroke-width="1.8"></path><path d="M-112.7,93.3q6.1-10.2 9.1-7.6q4.9,4.4 -.8,10.8q-4.7,1.7 -9.1,2.3q-4.1,.6 0,9.1q.4,.9 4.1,3.2" fill="none" stroke="#ffffff" stroke-width="1.8"></path><path d="M-89.8,89.1q-3.3,5.8 -.8,8q2.8,2.5 6.1-5.9q.2-.6 .2-.5q2.4,4.7 4.8,8.3" fill="none" stroke="#ffffff" stroke-width="1.8"></path><path d="M-66.9,89.1q-2,2.1 -2.8,9q0,.5 .1,1q1.3-2.4 2.5-7q1.6-6 8.9,2.6q1.2,2 2,3.8" fill="none" stroke="#ffffff" stroke-width="1.8"></path><path d="M-53.8,88.2q.6,11.2 .9,10.9q7.6-8.3 7.7-8.3q2.8-1.8 8.2,9.1" fill="none" stroke="#ffffff" stroke-width="1.8"></path><path d="M-30.4,88.2q.4,9 3.8,11q5.7,3.3 7-7.5q-.1-.4 -.2-.8q1.5,1.4 3.7,4.4q3.7,1.7 7.2,2.3" fill="none" stroke="#ffffff" stroke-width="1.8"></path><path d="M-7,87.3Q-7.6,100.6 -5.9,98.5Q5,84.4 8.9,92.9Q11,97.5 12.1,98" fill="none" stroke="#ffffff" stroke-width="1.8"></path><path d="M22.4,87.3q-3.2,9.8 .2,9.2q2.1-4.8 2.5-10.3q0-.7 1.7,4.5q3.1,9.3 -.5,17.1q-.8,1.6 -8.5,3.3" fill="none" stroke="#ffffff" stroke-width="1.8"></path><path d="M-210.9,131.2q.4,17.6 1,21.1" fill="none" stroke="#ffffff" stroke-width="1.8"></path><path d="M-220.3,126.1q25.2-.3 23.9,1.8" fill="none" stroke="#ffffff" stroke-width="1.8"></path><path d="M-220.3,150.4q12.4,.2 22.5,0" fill="none" stroke="#ffffff" stroke-width="1.8"></path><path d="M-190.4,133.1q12.9,2.2 13.1,2.3" fill="none" stroke="#ffffff" stroke-width="1.8"></path><path d="M-188.9,139.2q6.2,1.5 11.2,2.8" fill="none" stroke="#ffffff" stroke-width="1.8"></path><path d="M-112.3,134.5q-1.3-7.7 -4.9-8.6q-5-1.2 -4.9,7q5,8 11.1,13.8q2.8,2.7 -5.9,2.6q-5.7,0 -8.4-7.8" fill="none" stroke="#ffffff" stroke-width="1.8"></path><path d="M-102,121.4q-.2,14.1 0,25.7" fill="none" stroke="#ffffff" stroke-width="1.8"></path><path d="M-106.6,135q7.5,1.9 13.5,3.7" fill="none" stroke="#ffffff" stroke-width="1.8"></path><path d="M-88.4,138.7q3.2,3.5 3.6,1.2q.8-4.5 1.5-8.2" fill="none" stroke="#ffffff" stroke-width="1.8"></path><path d="M-77.6,141q2.4-6.8 7.1-4.3q5.1,2.8 -.9,5.9q-4.9-.1 -9.1-1.1" fill="none" stroke="#ffffff" stroke-width="1.8"></path><path d="M-64.1,135.4q7.4,9.6 2.8,8.5q-2.1-.5 1.3-4.8q2.6-3.4 4.6,4.9q2.8-1.6 5.8-5.2q2.3-2.7 7,6.5" fill="none" stroke="#ffffff" stroke-width="1.8"></path><path d="M-26.7,135q-8,.1 -6.7,6.3q2,5.3 3.9,9.6q1.8,4 -6.4,.3q-3.6-1.7 -1.1-8.8" fill="none" stroke="#ffffff" stroke-width="1.8"></path><path d="M-20.6,127.9q-.1,12.9 0,23.4" fill="none" stroke="#ffffff" stroke-width="1.8"></path><path d="M-24.3,142q4.9,.6 8.9,1.4" fill="none" stroke="#ffffff" stroke-width="1.8"></path><path d="M-7,140.1q-4.5,1 -4.8,4.7q-.5,6.8 6,2.6q1.4-2.9 2-5.7q4,.7 8.5,3.6" fill="none" stroke="#ffffff" stroke-width="1.8"></path><path d="M-7.5,135Q-.1,137.3 6.1,138.7" fill="none" stroke="#ffffff" stroke-width="1.8"></path><path d="M7.9,137.8Q9.1,144.5 10.1,149.9Q11,147.1 11.8,142Q12,140.4 18.2,137.3" fill="none" stroke="#ffffff" stroke-width="1.8"></path><path d="M31.3,129.8q.1-.5 .3-.8q.9,6.3 .5,17.8q0,.6 1.1,3.1" fill="none" stroke="#ffffff" stroke-width="1.8"></path><path d="M43,136.8q-6.1,1.9 -8.2,6.1q-2.2,4.5 5.9,6.1" fill="none" stroke="#ffffff" stroke-width="1.8"></path><path d="M48.2,140.1q-.3,.1 -.7,.4q-4.2,2.8 3.7,6q6,.5 11,.2" fill="none" stroke="#ffffff" stroke-width="1.8"></path><path d="M-196,239q.1-4.6 -4.3-3.7q-9.4,1.9 -9.8,27.3q-.1,10.3 8.7,7.9q4.1-1.1 3.7-15.5q-.8-.9 -1.9-1.5q3.6,6 11.6,15.5" fill="none" stroke="#ffffff" stroke-width="2.6"></path><path d="M-176,247q18.8-3.9 20-3" fill="none" stroke="#ffffff" stroke-width="2.6"></path><path d="M-174,252q9.9,.5 18,1" fill="none" stroke="#ffffff" stroke-width="2.6"></path><path d="M-106,221q5.3,18.1 4,18" fill="none" stroke="#ffffff" stroke-width="2.6"></path><path d="M-122,250q39.4-7.7 41,2" fill="none" stroke="#ffffff" stroke-width="2.6"></path><path d="M-104,260q-4.8,10.8 1.7,20.6q4.9,7.4 10.5-5.6q2.8-6.4 -.1-8.7q-3-2.5 2.4,9.2q1.2,2.5 7.5,11.5" fill="none" stroke="#ffffff" stroke-width="2.6"></path><path d="M-192.7,343q-3.1-6.4 -9.6,1.6q-8.2,10 -2.9,25.1q3.3,9.2 9.2-6q.4-2.7 .6-5q2,2.6 4.3,7.8q5.6,2.5 11.4,3.2" fill="none" stroke="#ffffff" stroke-width="2.5"></path><path d="M-173.8,350.2q13.9-5.5 18.9-3.3" fill="none" stroke="#ffffff" stroke-width="2.5"></path><path d="M-167.9,354.1q7.9,1.4 14.3,2.6" fill="none" stroke="#ffffff" stroke-width="2.5"></path><path d="M-109.2,343.6q1.4,27.2 5.4,30.8q5.8-.8 10.9-3.4" fill="none" stroke="#ffffff" stroke-width="2.5"></path><path d="M-89,365.2q8.8-8.4 7.7-9.1q-3.1-1.9 -3.7,10.6q-.7,12.6 16.9-2.2" fill="none" stroke="#ffffff" stroke-width="2.5"></path><path d="M-66.2,360q-1.4,12.2 -.6,12.4" fill="none" stroke="#ffffff" stroke-width="2.5"></path><path d="M-69.4,352.1q.3-.7 .6-1.3" fill="none" stroke="#ffffff" stroke-width="2.5"></path><path d="M-51.8,336.5q-.1,21.2 0,38.5" fill="none" stroke="#ffffff" stroke-width="2.5"></path><path d="M-57,363.2q4-1 7.2-1.9" fill="none" stroke="#ffffff" stroke-width="2.5"></path><path d="M-38.1,352.1q5.1,19 5.3,18.6q1.5-4.4 2.3-8.1q3.5-.4 7.4,.8q8.1-3.4 14.4-8.7" fill="none" stroke="#ffffff" stroke-width="2.5"></path><path d="M-8.1,361.3Q3.1,358.9 2.7,358.3Q-.5,354.2 -5.1,367Q-6.7,371.5 1.7,370.6Q4.6,370.3 9.5,361.3" fill="none" stroke="#ffffff" stroke-width="2.5"></path><path d="M8.9,356Q9.7,366.2 10.3,374.6Q13,369.7 16,360.4Q16.9,357.7 25.8,356" fill="none" stroke="#ffffff" stroke-width="2.5"></path><path d="M36.9,337.8q14.7,13.7 14,14q-11.9,10.8 -20.5,21.2" fill="none" stroke="#ffffff" stroke-width="2.5"></path><path d="M25.2,363.9q17.4-7.1 28-2" fill="none" stroke="#ffffff" stroke-width="2.5"></path><path d="M39.1,-98.3q-6.9-3.5 -7.9-1.4q-.4,1 -2.2,25.9q-1.7,23.6 1.9,20.5q7.6-2.2 14.4-2.8" fill="none" stroke="#ffffff" stroke-width="2"></path><path d="M58.7,-88q-.5,23.5 0,24.1" fill="none" stroke="#ffffff" stroke-width="2"></path><path d="M58.2,-83.4q3.3-6.4 8.7-7.5q7.7-1.6 6,8.4q-3.7,5.7 -7.8,9.9q-.5,.5 10.9,9.4q1.2,1 4.3,6.5" fill="none" stroke="#ffffff" stroke-width="2"></path><path d="M90,-97.3q6.5,.8 8.7,6.4q2.9,16.7 4,30.8q2.4,2.9 5.2,4.9q-5.8,.9 -15.8,.1" fill="none" stroke="#ffffff" stroke-width="2"></path><path d="M139.3,-85.4q8.5,0 15.5,.5" fill="none" stroke="#ffffff" stroke-width="2"></path><path d="M135.2,-74.1q10.2,.5 18.5,1" fill="none" stroke="#ffffff" stroke-width="2"></path><path d="M212.3,-89.6q-.3-2.5 -.6-4.5q1.7,5.6 4.4,16.1q2,7.8 9.3,3.1q4.4-10 5.9-19.8" fill="none" stroke="#ffffff" stroke-width="2"></path><path d="M198.4,-66.4q34-1 40.6,1.5" fill="none" stroke="#ffffff" stroke-width="2"></path><path d="M205.6,-35.6q16.8-16.4 20.9-17.6q2.8-.8 1.2,20.7" fill="none" stroke="#ffffff" stroke-width="2"></path><path d="M211.8,-41.8q15.5-1.5 28.3-2.5" fill="none" stroke="#ffffff" stroke-width="2"></path><path d="M274.5,-82.9q8.5-2.3 12.3-.5" fill="none" stroke="#ffffff" stroke-width="2"></path><path d="M272.4,-72.1q8.8,.7 16,1.6" fill="none" stroke="#ffffff" stroke-width="2"></path><path d="M315.1,-57.7q28.5,3.3 27.2,2.5q-21.1-13.1 -9.3-28.8q5.3-7.1 25-3.3q15.3,2.9 8.6,20.5q-5,6.2 -9.9,10.7q-.2,.2 11.2,.8q2.6,.1 13,2.2" fill="none" stroke="#ffffff" stroke-width="2"></path><path d="M74,235q-16-10.2 -16.7-9.2q-2.2,16.8 -.6,31.7q-.5,16.5 -1.7,29.9q5.9-.1 13.4-3.4q5.2-.8 9.6-1" fill="none" stroke="#ffffff" stroke-width="3"></path><path d="M108,239q-3.5-5.8 -9.7,3.4q-8.4,12.3 -.5,30.1q4.8,10.7 12.3-4.1q1.7-4.9 2.8-9.1q4.4,5.1 8.7,15" fill="none" stroke="#ffffff" stroke-width="3"></path><path d="M129,236q15.5-2.7 17.9,5.5q3.5,19.3 5.6,35.4q3.7,5.9 8,10.2q-10.5,1.9 -27.5-.1" fill="none" stroke="#ffffff" stroke-width="3"></path><path d="M193,241q10.9-3.7 28-4" fill="none" stroke="#ffffff" stroke-width="3"></path><path d="M189,256q12.1,.1 22,0" fill="none" stroke="#ffffff" stroke-width="3"></path><path d="M303,260q25.6-34.5 27.2-34.6q3.6,16.2 -.2,36.6" fill="none" stroke="#ffffff" stroke-width="3"></path><path d="M306,257q12.6-.7 23-1" fill="none" stroke="#ffffff" stroke-width="3"></path><path d="M287,278q31.9-3.3 62.1,1.6" fill="none" stroke="#ffffff" stroke-width="3"></path><path d="M303,289q10.4,36.9 18.6,34.3q.2-.1 9.1-16.5q5.9-7.8 11.3-13.8" fill="none" stroke="#ffffff" stroke-width="3"></path><path d="M391,253q16,2 29,4" fill="none" stroke="#ffffff" stroke-width="3"></path><path d="M388,265q34.5,6.1 33,5" fill="none" stroke="#ffffff" stroke-width="3"></path><path d="M493,242q8-19 2-18q-9,0 -11,22q-1,4 17,28q11,16 -18,16q-8-1 -14-2" fill="none" stroke="#ffffff" stroke-width="3"></path><path d="M869,324q-3,29 4,52" fill="none" stroke="#ffffff" stroke-width="4"></path><path d="M864,335q8-14 20-12q8,3 5,29q-1,11 25,26" fill="none" stroke="#ffffff" stroke-width="4"></path><path d="M958,339q6-2 23,0" fill="none" stroke="#ffffff" stroke-width="4"></path><path d="M963,348q8,0 14,0" fill="none" stroke="#ffffff" stroke-width="4"></path><path d="M1054,352q23-15 28-6q2,4 -20,6q-9,1 -16,29q-3,11 -5,20" fill="none" stroke="#ffffff" stroke-width="4"></path><path d="M1122,349q111-4 113-1" fill="none" stroke="#ffffff" stroke-width="4"></path><path d="M1161,294q3,3 0,17q-4,16 13,15q7,0 13-1" fill="none" stroke="#ffffff" stroke-width="4"></path><path d="M1155,405q23-36 24-37q9-10 3,43" fill="none" stroke="#ffffff" stroke-width="4"></path><path d="M1158,395q19-2 35-2" fill="none" stroke="#ffffff" stroke-width="4"></path><path d="M1035,443q-10,49 -9,58q0-1 0-3" fill="none" stroke="#ffffff" stroke-width="4"></path><path d="M1014,449q13-10 20-5q3,2 6,4" fill="none" stroke="#ffffff" stroke-width="4"></path><path d="M1022,549q-10-3 -12,5q2,12 6,22q1,3 -8,0q-2-1 -6-4" fill="none" stroke="#ffffff" stroke-width="3"></path><path d="M1036,573q-6-11 -2-22q1-5 5,2q4,11 -14,37q-5,7 4,5" fill="none" stroke="#ffffff" stroke-width="3"></path><path d="M1053,569q14-16 9-14q-8,2 -7,16q8,2 17,1" fill="none" stroke="#ffffff" stroke-width="3"></path><path d="M1076,560q9-5 7,3q-4,12 -2,14q5-1 10-3" fill="none" stroke="#ffffff" stroke-width="3"></path><path d="M1105,564q0,11 0,12" fill="none" stroke="#ffffff" stroke-width="3"></path><path d="M1101,533q.3,.3 0,.3q-.3,0 -.3-.3q0-.3 .3-.3q.3,0 .3,.3" fill="none" stroke="#ffffff" stroke-width="3"></path><path d="M1140,541q-14-3 -18,8q0,16 1,30" fill="none" stroke="#ffffff" stroke-width="3"></path><path d="M1127,562q10,10 7,14" fill="none" stroke="#ffffff" stroke-width="3"></path><path d="M1149,563q0,7 0,12" fill="none" stroke="#ffffff" stroke-width="3"></path><path d="M1151,544q0-1 0-4" fill="none" stroke="#ffffff" stroke-width="3"></path><path d="M1169,549q-2,7 2,17q4,11 -6,7q-7-4 -3-6" fill="none" stroke="#ffffff" stroke-width="3"></path><path d="M1178,557q-4,10 -2,14q6,1 13-1" fill="none" stroke="#ffffff" stroke-width="3"></path><path d="M1194,538q-1,40 1,35q1-8 16-1" fill="none" stroke="#ffffff" stroke-width="3"></path><path d="M1221,558q-5,1 -4,10q0,5 6,5" fill="none" stroke="#ffffff" stroke-width="3"></path><path d="M1229,559q4,16 8,12q9-13 8-14" fill="none" stroke="#ffffff" stroke-width="3"></path><path d="M1306,543q1-9 2-5q4,17 7,30q2-4 5-12q2-7 17-6q1,0 2,1" fill="none" stroke="#ffffff" stroke-width="3"></path><path d="M1343,557q3,8 5,14" fill="none" stroke="#ffffff" stroke-width="3"></path><path d="M1351,530q-2-2 2,9" fill="none" stroke="#ffffff" stroke-width="3"></path><path d="M1367,558q7-8 4-8q-7,0 -6,12q0,5 16,6" fill="none" stroke="#ffffff" stroke-width="3"></path><path d="M1391,551q-4,20 5,15q4-11 5-22" fill="none" stroke="#ffffff" stroke-width="3"></path><path d="M1402,533q0,2 0,6q0,22 5,26" fill="none" stroke="#ffffff" stroke-width="3"></path><path d="M1425,556q-4-3 -3,2q1,8 9,4" fill="none" stroke="#ffffff" stroke-width="3"></path><path d="M1437,549q3,21 7,17q5-10 8-19" fill="none" stroke="#ffffff" stroke-width="3"></path><path d="M1480,550q-10-2 -10,6q1,13 2,23q1,4 -10-1q-1-1 -5-8" fill="none" stroke="#ffffff" stroke-width="3"></path><path d="M1497,525q-7,30 -12,54" fill="none" stroke="#ffffff" stroke-width="3"></path><path d="M1482,570q23-16 25-11" fill="none" stroke="#ffffff" stroke-width="3"></path><path d="M1517,555q-14,4 -12,16q2,11 15-3q3-6 4-12q0,5 1,13" fill="none" stroke="#ffffff" stroke-width="3"></path><path d="M1539,557q-7,16 -4,13q7-8 12-14q4-4 9,15" fill="none" stroke="#ffffff" stroke-width="3"></path><path d="M1573,551q-6,22 1,15q6-24 5-46q2,21 6,61" fill="none" stroke="#ffffff" stroke-width="4"></path><path d="M931,35q-6-6 -17-5q-29,3 -49,50q-9,20 12,52q14,23 59-2q30-16 38-60q4-20 -21-40q-8-5 -19,6" fill="none" stroke="#ffffff" stroke-width="4"></path><path d="M931,35q35-2 130,2q139,2 254,2q7,0 37,4" fill="none" stroke="#ffffff" stroke-width="4"></path><path d="M930,131q56,8 170,4q113,0 206,0" fill="none" stroke="#ffffff" stroke-width="4"></path><path d="M1340,44q7-8 13,12q10,33 -16,75q-2,3 -16,9" fill="none" stroke="#ffffff" stroke-width="4"></path><path d="M870,79q30-17 56-29" fill="none" stroke="#ffffff" stroke-width="4"></path><path d="M873,99q15-12 58-33" fill="none" stroke="#ffffff" stroke-width="4"></path><path d="M877,109q79-44 64-28" fill="none" stroke="#ffffff" stroke-width="4"></path><path d="M886,121q57-20 58-19" fill="none" stroke="#ffffff" stroke-width="4"></path><path d="M898,133q49-26 52-24" fill="none" stroke="#ffffff" stroke-width="4"></path><path d="M838,35Q856,5 861,13Q868,26 864,36" fill="none" stroke="#ffffff" stroke-width="4"></path><path d="M847,28q7,1 13,1" fill="none" stroke="#ffffff" stroke-width="4"></path><path d="M906,150q0-4 0-7q-1-3 0,10q0,15 1,28" fill="none" stroke="#ffffff" stroke-width="4"></path><path d="M1316,152q-1,17 -1,31" fill="none" stroke="#ffffff" stroke-width="4"></path><path d="M945,201q172,15 329,15q25,2 46,4" fill="none" stroke="#ffffff" stroke-width="4"></path><path d="M1360,215q-1,2 -19,13" fill="none" stroke="#ffffff" stroke-width="4"></path><path d="M939,192q-19,7 -22,18q-1,3 14,7" fill="none" stroke="#ffffff" stroke-width="4"></path><path d="M1131,228q-2,21 7,22q20,3 21-1" fill="none" stroke="#ffffff" stroke-width="4"></path><path d="M-109,827q0-5 1-4q5,47 9,85" fill="none" stroke="#ffffff" stroke-width="6"></path><path d="M-107,849q1-29 20-36q21-8 4,49q-8,26 40,33" fill="none" stroke="#ffffff" stroke-width="6"></path><path d="M-3,830Q54,819 47,822" fill="none" stroke="#ffffff" stroke-width="6"></path><path d="M-1,853Q22,852 41,852" fill="none" stroke="#ffffff" stroke-width="6"></path><path d="M123,899q1-33 1-59q0-13 14-6q7,3 9,17q0,5 -20,4" fill="none" stroke="#ffffff" stroke-width="3"></path><path d="M185,857q0-1 -1-3" fill="none" stroke="#ffffff" stroke-width="4"></path><path d="M270,800q-10,29 -4,39q3,5 36-5" fill="none" stroke="#ffffff" stroke-width="4"></path><path d="M248,852q82-7 72-1" fill="none" stroke="#ffffff" stroke-width="4"></path><path d="M258,906q22-34 29-30q5,16 5,32" fill="none" stroke="#ffffff" stroke-width="4"></path><path d="M262,894q3-1 39-6" fill="none" stroke="#ffffff" stroke-width="4"></path><path d="M411,843q25-8 24-6" fill="none" stroke="#ffffff" stroke-width="4"></path><path d="M408,856q37-8 29-5" fill="none" stroke="#ffffff" stroke-width="4"></path><path d="M504,855q0,39 4,35q2-20 -2-39q-4-17 10-26q9-5 19,14q9,18 -20,9" fill="none" stroke="#ffffff" stroke-width="4"></path><path d="M572,834q6-3 25-3" fill="none" stroke="#ffffff" stroke-width="4"></path><path d="M572,854q29-12 31-7" fill="none" stroke="#ffffff" stroke-width="4"></path><path d="M668,805q-4,16 -1,39" fill="none" stroke="#ffffff" stroke-width="4"></path><path d="M666,810q20-9 22-1q-5,8 -12,14q-3,2 16,24" fill="none" stroke="#ffffff" stroke-width="4"></path><path d="M448,829q15,13 10,23q-1,2 -8,7" fill="none" stroke="#ffffff" stroke-width="4"></path><path d="M714,830q1,1 3,3" fill="none" stroke="#ffffff" stroke-width="4"></path><path d="M737,846q23-36 25-35q4,18 0,41" fill="none" stroke="#ffffff" stroke-width="4"></path><path d="M743,843q8-3 28,3" fill="none" stroke="#ffffff" stroke-width="4"></path><path d="M672,861q37,2 68,5" fill="none" stroke="#ffffff" stroke-width="4"></path><path d="M695,878q9-3 9,5q-5,16 -10,29q-2,4 40,4" fill="none" stroke="#ffffff" stroke-width="4"></path><path d="M-73,976q-15-2 -15-1q-3,36 -5,66q0,5 12,0q5-1 9-1" fill="none" stroke="#ffffff" stroke-width="3"></path><path d="M-33,1039q-2-30 11-42q11-10 12,7q0,5 -8,7q-2-1 -3-2" fill="none" stroke="#ffffff" stroke-width="3"></path><path d="M6,987Q23,980 25,986Q28,1010 28,1029Q28,1031 28,1032Q29,1034 7,1038" fill="none" stroke="#ffffff" stroke-width="3"></path><path d="M67,1003q24-2 22,0" fill="none" stroke="#ffffff" stroke-width="3"></path><path d="M73,1011q9,1 16,2" fill="none" stroke="#ffffff" stroke-width="3"></path><path d="M153,1007q19,4 35,7q-3-7 -11-15q-10-10 -3-23q7-11 38,4q21,10 9,28q-2,4 -2,4q20,4 37,3" fill="none" stroke="#ffffff" stroke-width="3"></path><path d="M299,994q2-2 4,3q4,8 6,14q2-4 3-13q1-4 4,5q2,5 3,9q6-4 12-14q9,5 17,15" fill="none" stroke="#ffffff" stroke-width="3"></path><path d="M351,997q3,17 3,16q3-25 12-9q2,3 1,9q3-3 7-9q4-5 19,13" fill="none" stroke="#ffffff" stroke-width="3"></path><path d="M389,972q9-2 8,4q-2,10 1,11q4,0 7-1" fill="none" stroke="#ffffff" stroke-width="3"></path><path d="M149,1033q131-7 239-14q3,0 15,3" fill="none" stroke="#ffffff" stroke-width="3"></path><path d="M246,1052q3,42 7,29q7-26 26-13q5,7 8,14" fill="none" stroke="#ffffff" stroke-width="3"></path><path d="M279,1084q20-19 34-18q5,1 8,19" fill="none" stroke="#ffffff" stroke-width="3"></path><path d="M-85,1196q11-21 20-39q2,12 2,34q-1,9 3,7q6-13 8-26q1-11 7-15q4,15 3,38" fill="none" stroke="#ffffff" stroke-width="3"></path><path d="M-36,1189q17-11 15-12q-2-1 -10,13q-6,11 12,7q8-3 14-7" fill="none" stroke="#ffffff" stroke-width="3"></path><path d="M-1,1152Q-1,1177 -1,1198" fill="none" stroke="#ffffff" stroke-width="3"></path><path d="M-14,1189q9-1 17-1" fill="none" stroke="#ffffff" stroke-width="3"></path><path d="M25,1179Q10,1188 14,1196Q18,1202 25,1192Q26,1188 26,1185Q29,1189 32,1197Q33,1199 38,1194" fill="none" stroke="#ffffff" stroke-width="3"></path><path d="M45,1165q1,31 4,37" fill="none" stroke="#ffffff" stroke-width="3"></path><path d="M53,1153q0,49 10,47" fill="none" stroke="#ffffff" stroke-width="3"></path><path d="M68,1188q3-6 5-10" fill="none" stroke="#ffffff" stroke-width="3"></path><path d="M73,1176q-5,13 0,16q9-1 17-3" fill="none" stroke="#ffffff" stroke-width="3"></path><path d="M-68,1284q19-36 22-25q3,17 1,29" fill="none" stroke="#ffffff" stroke-width="3"></path><path d="M-60,1281q7-1 13,0" fill="none" stroke="#ffffff" stroke-width="3"></path><path d="M-24,1270q-9,9 -3,17q5,7 12-10q6,4 13,12" fill="none" stroke="#ffffff" stroke-width="3"></path><path d="M28,1267q0,1 0,2" fill="none" stroke="#ffffff" stroke-width="3"></path><path d="M29,1288q-1,1 -1,1" fill="none" stroke="#ffffff" stroke-width="3"></path><path d="M66,1279q-2-17 6-12q12,7 4,23q-4,9 -9-5" fill="none" stroke="#ffffff" stroke-width="3"></path><path d="M99,1289q-1,0 -4,1" fill="none" stroke="#ffffff" stroke-width="3"></path><path d="M118,1285q-2-17 5-19q8-2 12,16q2,12 -13,7q-2-3 -3-6" fill="none" stroke="#ffffff" stroke-width="3"></path><path d="M144,1277q6-12 11-5q0,0 -6,12q-3,5 15,2" fill="none" stroke="#ffffff" stroke-width="3"></path><path d="M169,1270q11,1 8,11q-2,5 -4,9q7,1 17-1" fill="none" stroke="#ffffff" stroke-width="3"></path><path d="M217,1266q22,0 22,6q-3-4 -8-12q-4-9 13-6q13,2 6,20q-1,2 26-2" fill="none" stroke="#ffffff" stroke-width="3"></path><path d="M296,1265q0,4 -1,6q2-2 5-7q1,2 1,7q4-1 9-4q1-1 9,5" fill="none" stroke="#ffffff" stroke-width="3"></path><path d="M325,1265q0,5 1,3q4-9 10,5q4-1 7-4q3,2 5,7" fill="none" stroke="#ffffff" stroke-width="3"></path><path d="M351,1240q4,5 3,16q0,8 15,4" fill="none" stroke="#ffffff" stroke-width="3"></path><path d="M222,1288q62-4 112-6" fill="none" stroke="#ffffff" stroke-width="3"></path><path d="M275,1290q1,11 2,19q3-3 7-11q3,4 6,11q6-2 11-7q7,2 13,8" fill="none" stroke="#ffffff" stroke-width="3"></path><path d="M-46,1345q1-11 -4-9q-13,8 -15,31q0,9 19,5" fill="none" stroke="#ffffff" stroke-width="3"></path><path d="M-31,1357q-10,8 -4,16q5,9 12,1q0-2 1-3q1-2 7,7" fill="none" stroke="#ffffff" stroke-width="3"></path><path d="M30,1338q.3,.3 0,.3q-.3,0 -.3-.3q0-.3 .3-.3q.3,0 .3,.3" fill="none" stroke="#ffffff" stroke-width="3"></path><path d="M30,1372q0,0 0,2" fill="none" stroke="#ffffff" stroke-width="3"></path><path d="M75,1357q7-21 18-22q6,0 0,16q-3,11 -14,9" fill="none" stroke="#ffffff" stroke-width="3"></path><path d="M111,1375q-6-6 -11-11" fill="none" stroke="#ffffff" stroke-width="3"></path><path d="M120,1357q4-14 14-9q15,9 5,25q-3,4 -14-6" fill="none" stroke="#ffffff" stroke-width="3"></path><path d="M158,1357q8-21 10-10q1,12 1,21" fill="none" stroke="#ffffff" stroke-width="3"></path><path d="M183,1349q7-1 8,10q0,11 -1,20" fill="none" stroke="#ffffff" stroke-width="3"></path><path d="M184,1363q26-8 19-3" fill="none" stroke="#ffffff" stroke-width="3"></path><path d="M253,1369q25,7 24,1q-3-8 -6-14q-4-8 12-5q12,3 8,18q-3,9 27,5" fill="none" stroke="#ffffff" stroke-width="3"></path><path d="M345,1358q0,13 1,11q6-14 16-1q2,1 2,1q3-11 20,6" fill="none" stroke="#ffffff" stroke-width="3"></path><path d="M395,1356q1,11 1,10q6-12 16-4q1,2 1,4q9,4 18,4" fill="none" stroke="#ffffff" stroke-width="3"></path><path d="M429,1336q23-1 19,5q-2,6 -1,8q1,2 10,3" fill="none" stroke="#ffffff" stroke-width="3"></path><path d="M279,1400q-9-2 -6-3q5-1 73-9q52-5 94-8" fill="none" stroke="#ffffff" stroke-width="3"></path><path d="M342,1402q-9,24 -3,17q3-5 6-9q5-6 7,8q0,0 3-2q9-10 29,7" fill="none" stroke="#ffffff" stroke-width="3"></path><path d="M-58,1525q10-44 15-31q4,18 7,32" fill="none" stroke="#ffffff" stroke-width="3"></path><path d="M-51,1517q4,3 7,6" fill="none" stroke="#ffffff" stroke-width="3"></path><path d="M-17,1512q-13,9 -4,13q6,2 9-11q1-2 5,16q5,18 -2,17q-4-6 -5-13" fill="none" stroke="#ffffff" stroke-width="3"></path><path d="M24,1489q.3,.3 0,.3q-.3,0 -.3-.3q0-.3 .3-.3q.3,0 .3,.3" fill="none" stroke="#ffffff" stroke-width="3"></path><path d="M33,1523q0-1 -1-1" fill="none" stroke="#ffffff" stroke-width="3"></path><path d="M87,1504q-3-16 4-17q6-1 12,17q6,18 -15,11q-2-2 -3-4" fill="none" stroke="#ffffff" stroke-width="3"></path><path d="M118,1523q-4-3 -8-6" fill="none" stroke="#ffffff" stroke-width="3"></path><path d="M131,1513q-2-22 12-15q18,8 6,17q-9-1 -16-4" fill="none" stroke="#ffffff" stroke-width="3"></path><path d="M161,1508q12-17 15-12q0,16 -2,29" fill="none" stroke="#ffffff" stroke-width="3"></path><path d="M200,1492q-8,41 6,33q6-3 3-13q-2-5 -14,1" fill="none" stroke="#ffffff" stroke-width="3"></path><path d="M291,1517q27,8 27,8q-14-19 4-32q11-8 20,11q4,9 -11,22q15,2 40,0" fill="none" stroke="#ffffff" stroke-width="3"></path><path d="M394,1508q2,19 3,14q5-22 9-12q0,7 0,12q4-3 10-10q3-4 15,13" fill="none" stroke="#ffffff" stroke-width="3"></path><path d="M442,1508q0,8 0,14q2-5 4-13q2-6 5,4q1,4 1,7q3-3 6-9q3-5 13,9q1,0 2,0" fill="none" stroke="#ffffff" stroke-width="3"></path><path d="M478,1475q15-1 15,7q-1,4 -1,7q6,2 14,1" fill="none" stroke="#ffffff" stroke-width="3"></path><path d="M285,1537q112-9 203-16" fill="none" stroke="#ffffff" stroke-width="3"></path><path d="M358,1552q3,19 4,16q5-19 14-12q0,3 -1,6q4-2 8-5q9-7 19,10q1,3 2,6" fill="none" stroke="#ffffff" stroke-width="3"></path><path d="M-67,713q0-8 -8-7q-26,5 7,32q13,12 -1,18q-7,3 -23-14" fill="none" stroke="#ffffff" stroke-width="4"></path><path d="M-52,743q-5-9 5-16q14-9 13,13q-1,7 -18,12q-13,3 -5,13q4,1 8,1" fill="none" stroke="#ffffff" stroke-width="4"></path><path d="M-15,738q7-7 5-7q-10,1 -5,21q0,2 20,0" fill="none" stroke="#ffffff" stroke-width="4"></path><path d="M0,734Q15,729 15,737Q13,747 11,756Q17,754 26,749" fill="none" stroke="#ffffff" stroke-width="4"></path><path d="M41,739q0,10 1,18" fill="none" stroke="#ffffff" stroke-width="4"></path><path d="M37,712q.4,.4 0,.4q-.4,0 -.4-.4q0-.4 .4-.4q.4,0 .4,.4" fill="none" stroke="#ffffff" stroke-width="4"></path><path d="M93,709q-16-3 -22,6q-8,12 -2,45" fill="none" stroke="#ffffff" stroke-width="4"></path><path d="M62,746q6-3 11-6" fill="none" stroke="#ffffff" stroke-width="4"></path><path d="M98,737q2,16 2,16" fill="none" stroke="#ffffff" stroke-width="4"></path><path d="M101,711q.4,.4 0,.4q-.4,0 -.4-.4q0-.4 .4-.4q.4,0 .4,.4" fill="none" stroke="#ffffff" stroke-width="4"></path><path d="M130,724q-7,1 -1,13q10,22 -2,18q-3-5 -5-10" fill="none" stroke="#ffffff" stroke-width="4"></path><path d="M146,733q-9,16 -3,21q2,2 13-6" fill="none" stroke="#ffffff" stroke-width="4"></path><path d="M156,705q3,50 3,50q1-22 20-17q1,1 4,8" fill="none" stroke="#ffffff" stroke-width="4"></path><path d="M192,732q-10,11 -4,19q7,3 14,3" fill="none" stroke="#ffffff" stroke-width="4"></path><path d="M208,734q2,23 2,20q5-12 11-21" fill="none" stroke="#ffffff" stroke-width="4"></path><path d="M283,709q0-1 0,4q0,37 5,37q3-6 3-15q2,2 3,4q5,7 23-34" fill="none" stroke="#ffffff" stroke-width="4"></path><path d="M327,733q-2,14 1,13" fill="none" stroke="#ffffff" stroke-width="4"></path><path d="M327,712q0-1 0-2" fill="none" stroke="#ffffff" stroke-width="4"></path><path d="M349,733q-12,4 -5,12q5,2 11,2" fill="none" stroke="#ffffff" stroke-width="4"></path><path d="M370,730q-11,19 -1,21q5-8 6-20" fill="none" stroke="#ffffff" stroke-width="4"></path><path d="M375,711q2,34 10,31" fill="none" stroke="#ffffff" stroke-width="4"></path><path d="M400,735q-21,7 -2,15q5-4 9-11" fill="none" stroke="#ffffff" stroke-width="4"></path><path d="M409,729q1,31 -1,28q3-15 11-27" fill="none" stroke="#ffffff" stroke-width="4"></path><path d="M452,731q-19-5 -17,2q6,11 11,20q5,7 -12,5q-5,0 -4-18" fill="none" stroke="#ffffff" stroke-width="4"></path><path d="M462,706q2,28 3,51" fill="none" stroke="#ffffff" stroke-width="4"></path><path d="M459,738q35-2 33-3q-9-5 -11,12q-1,8 6,4q4-3 5-17q3,4 8,12" fill="none" stroke="#ffffff" stroke-width="4"></path><path d="M509,734q-1,15 -1,13q10-25 27,7" fill="none" stroke="#ffffff" stroke-width="4"></path><path d="M546,731q-9,16 -3,19q2-8 1-21" fill="none" stroke="#ffffff" stroke-width="4"></path><path d="M546,689q7,64 7,64" fill="none" stroke="#ffffff" stroke-width="4"></path><path d="M1150,690q-20,9 -25,22q9,15 22,26q9,7 -19,1q-3-2 -5-5" fill="none" stroke="#ffffff" stroke-width="4"></path><path d="M1168,738q-9-17 1-23q9-6 14,10q3,10 -20,19q-21,8 -7,25" fill="none" stroke="#ffffff" stroke-width="4"></path><path d="M1189,740q25-14 24-18q-5,5 -9,16q-4,8 10,12q5-3 9-7" fill="none" stroke="#ffffff" stroke-width="4"></path><path d="M1217,734q28-18 25-3q-4,11 -9,20q7-1 17-7" fill="none" stroke="#ffffff" stroke-width="4"></path><path d="M1261,738q5,9 9,16" fill="none" stroke="#ffffff" stroke-width="4"></path><path d="M1261,710q-2-2 -4-3" fill="none" stroke="#ffffff" stroke-width="4"></path><path d="M1312,710q-9-2 -16,5q-16,16 -9,52" fill="none" stroke="#ffffff" stroke-width="4"></path><path d="M1278,742q8-2 14-4" fill="none" stroke="#ffffff" stroke-width="4"></path><path d="M1317,738q2,7 4,12" fill="none" stroke="#ffffff" stroke-width="4"></path><path d="M1316,715q1,0 3-1" fill="none" stroke="#ffffff" stroke-width="4"></path><path d="M1345,720q-5,1 -3,9q6,10 12,18q9,13 -14,5q-3-4 -5-8" fill="none" stroke="#ffffff" stroke-width="4"></path><path d="M1368,724q-9,19 1,22q3,1 10-5" fill="none" stroke="#ffffff" stroke-width="4"></path><path d="M1390,699q-2,59 -5,59q-4,0 10-16q7-9 24,3" fill="none" stroke="#ffffff" stroke-width="4"></path><path d="M1429,726q-11,17 -3,25q2,0 3-2" fill="none" stroke="#ffffff" stroke-width="4"></path><path d="M1441,742q4,5 5,1q2-3 11-14" fill="none" stroke="#ffffff" stroke-width="4"></path><path d="M1199,827q-9-5 -26,6q-37,26 -13,44q10,7 27-12q10-13 -10-15q-2-1 -9,3" fill="none" stroke="#ffffff" stroke-width="4"></path><path d="M1237,840q12-2 21-3" fill="none" stroke="#ffffff" stroke-width="4"></path><path d="M1232,850q17-1 31-1" fill="none" stroke="#ffffff" stroke-width="4"></path><path d="M1316,825q25-22 27-7q0,13 -1,23" fill="none" stroke="#ffffff" stroke-width="4"></path><path d="M1300,856q88,1 88,1" fill="none" stroke="#ffffff" stroke-width="4"></path><path d="M1523,824q-25-2 -26,4q-2,28 -1,51q0,13 0,13q16,2 29,2" fill="none" stroke="#ffffff" stroke-width="4"></path><path d="M1569,840q-12-5 -23,5q-28,25 -3,36q10,5 33-11q5-4 -14-6q-3,0 -12,2" fill="none" stroke="#ffffff" stroke-width="4"></path><path d="M1602,819q-7,0 -5,1q10,5 15,31q5,22 8,40q-12,6 -28,7" fill="none" stroke="#ffffff" stroke-width="4"></path><path d="M1669,841q12,1 22,1" fill="none" stroke="#ffffff" stroke-width="4"></path><path d="M1664,856q19,0 34,0" fill="none" stroke="#ffffff" stroke-width="4"></path><path d="M1785,813q-30,0 -29,2q4,11 -12,73q-9,32 -2,32q39,0 46,6" fill="none" stroke="#ffffff" stroke-width="4"></path><path d="M1809,834q19-20 19-9q0,9 -1,17" fill="none" stroke="#ffffff" stroke-width="4"></path><path d="M1782,868q51-4 57,0" fill="none" stroke="#ffffff" stroke-width="4"></path><path d="M1803,925q-7-40 -3-43q9-6 21,9q9,11 -16,12" fill="none" stroke="#ffffff" stroke-width="4"></path><path d="M1857,819q17-4 20,6q8,50 12,91q2,17 -1,17q-29,2 -31,4" fill="none" stroke="#ffffff" stroke-width="4"></path><path d="M1172,985q-4,42 -2,66" fill="none" stroke="#ffffff" stroke-width="4"></path><path d="M1167,1008q12-17 28-11q15,6 5,24q-11,8 -20,13q7,10 22,19q1,1 6,7" fill="none" stroke="#ffffff" stroke-width="4"></path><path d="M1224,1017q20,1 36,2" fill="none" stroke="#ffffff" stroke-width="4"></path><path d="M1228,1030q29,5 30,3" fill="none" stroke="#ffffff" stroke-width="4"></path><path d="M1311,1026q12-9 21-17" fill="none" stroke="#ffffff" stroke-width="4"></path><path d="M1344,1008q0,29 0,53" fill="none" stroke="#ffffff" stroke-width="4"></path><path d="M1300,1082q15,1 37,2q51,3 51,6" fill="none" stroke="#ffffff" stroke-width="3"></path><path d="M1339,1119q-38,1 -36,3q0,13 -5,27q-6,14 8,26q9,8 33-11q13-10 -16-15q-2-1 -7,0" fill="none" stroke="#ffffff" stroke-width="3"></path><path d="M1423,1085q-1-1 -1-1" fill="none" stroke="#ffffff" stroke-width="3"></path><path d="M1502,1010q-1,14 -5,35q-8,43 13,34q13-5 28-4" fill="none" stroke="#ffffff" stroke-width="3"></path><path d="M1469,1102q47-2 88,2" fill="none" stroke="#ffffff" stroke-width="3"></path><path d="M1481,1177q10-37 29-41q7-2 3,40" fill="none" stroke="#ffffff" stroke-width="3"></path><path d="M1486,1169q4-6 16-9q13-1 23-1" fill="none" stroke="#ffffff" stroke-width="3"></path><path d="M1265,1307q5-4 17,0" fill="none" stroke="#ffffff" stroke-width="3"></path><path d="M1269,1316q13-1 23-2" fill="none" stroke="#ffffff" stroke-width="3"></path><path d="M1343,1286q25-29 24-16q-1,13 -2,24" fill="none" stroke="#ffffff" stroke-width="3"></path><path d="M1339,1313q28,1 50,2" fill="none" stroke="#ffffff" stroke-width="3"></path><path d="M1340,901q-3-24 -16-14q-19,14 -6,42q6,12 23,0q12-8 -15-13q-3,1 -5,2" fill="none" stroke="#ffffff" stroke-width="5"></path><path d="M1228,1269q-13-3 -34,22q-18,20 1,26q11,4 23-15q10-15 -22-5" fill="none" stroke="#ffffff" stroke-width="5"></path><path d="M1344,1385q4-39 18-47q14-8 18,15q3,11 -25,14" fill="none" stroke="#ffffff" stroke-width="5"></path><path d="M1207,1453q12-27 3-27q-16,0 -27,51q-5,20 16,29q12,6 15-33q1-6 5-3q8,19 10,37q3,0 6-2" fill="none" stroke="#ffffff" stroke-width="5"></path><path d="M1280,1462q19-2 35-3" fill="none" stroke="#ffffff" stroke-width="5"></path><path d="M1282,1469q16-1 30-1" fill="none" stroke="#ffffff" stroke-width="5"></path><path d="M1411,1462q37-32 39-18q0,16 -1,29" fill="none" stroke="#ffffff" stroke-width="5"></path><path d="M1405,1489q72-3 74,2" fill="none" stroke="#ffffff" stroke-width="5"></path><path d="M1435,1517q-13,16 -16,42" fill="none" stroke="#ffffff" stroke-width="5"></path><path d="M1427,1527q22-16 39-7q9,5 -16,14q-7,1 -13,2q10,17 34,35" fill="none" stroke="#ffffff" stroke-width="5"></path><path d="M1308,337q-7-6 11-2q4,1 20,8" fill="none" stroke="#ffffff" stroke-width="6"></path><path d="M1293,360q49-5 50-2" fill="none" stroke="#ffffff" stroke-width="6"></path><path d="M1460,283q3-2 2-3q-6-3 -19,38q-5,15 26,14q14-1 25-1" fill="none" stroke="#ffffff" stroke-width="6"></path><path d="M1409,348q-9,2 -5,3q64-1 117-6q13,1 24,3" fill="none" stroke="#ffffff" stroke-width="6"></path><path d="M1444,387q-26,9 -29,27q-3,17 24,14q13-2 2-17q-3-6 -7,3" fill="none" stroke="#ffffff" stroke-width="6"></path><path d="M1477,407q0-1 0-2" fill="none" stroke="#ffffff" stroke-width="6"></path><path d="M1507,427q33-55 39-47q1,18 -2,33q1,13 3,24" fill="none" stroke="#ffffff" stroke-width="6"></path><path d="M1520,424q13-1 24-2" fill="none" stroke="#ffffff" stroke-width="6"></path><path d="M1551,707q2-1 3-2q3,12 1,30q5,4 11,7" fill="none" stroke="#ffffff" stroke-width="6"></path><path d="M1577,732q32-10 26-9q-11,2 -21,20q-3,6 31-4" fill="none" stroke="#ffffff" stroke-width="4"></path><path d="M1617,738q2,2 4,4" fill="none" stroke="#ffffff" stroke-width="4"></path><path d="M1616,715q.4,.4 0,.4q-.4,0 -.4-.4q0-.4 .4-.4q.4,0 .4,.4" fill="none" stroke="#ffffff" stroke-width="4"></path><path d="M1656,699q-16,19 -18,41q0,2 1,8" fill="none" stroke="#ffffff" stroke-width="4"></path><path d="M1636,737q3-3 6-5" fill="none" stroke="#ffffff" stroke-width="4"></path><path d="M1687,702q-16,26 -14,45" fill="none" stroke="#ffffff" stroke-width="4"></path><path d="M1667,738q-1-2 10,0" fill="none" stroke="#ffffff" stroke-width="4"></path><path d="M1707,730q-19,10 -10,15q11,0 20-3" fill="none" stroke="#ffffff" stroke-width="4"></path><path d="M1701,720q10-2 18-3" fill="none" stroke="#ffffff" stroke-width="4"></path><path d="M1733,696q-5,50 -2,48q7-7 12-12q4-4 5,11" fill="none" stroke="#ffffff" stroke-width="4"></path><path d="M1766,736q0,3 0,6" fill="none" stroke="#ffffff" stroke-width="4"></path><path d="M1768,703q0,1 -1,4" fill="none" stroke="#ffffff" stroke-width="4"></path><path d="M1797,724q-12,20 -5,23q4-6 5-13q1,7 1,19q-1,8 -9,6q-1-3 -1-7" fill="none" stroke="#ffffff" stroke-width="4"></path><path d="M1824,698q-6,33 -3,54" fill="none" stroke="#ffffff" stroke-width="4"></path><path d="M1836,727q-22,19 -10,22" fill="none" stroke="#ffffff" stroke-width="4"></path><path d="M1847,738q2-10 0-8q-13,13 7,15" fill="none" stroke="#ffffff" stroke-width="4"></path><path d="M1870,732q1,10 3,18" fill="none" stroke="#ffffff" stroke-width="4"></path><path d="M1871,715q.4,.4 0,.4q-.4,0 -.4-.4q0-.4 .4-.4q.4,0 .4,.4" fill="none" stroke="#ffffff" stroke-width="4"></path><path d="M1899,706q-4,24 -7,44" fill="none" stroke="#ffffff" stroke-width="4"></path><path d="M1892,733q4,1 7,1" fill="none" stroke="#ffffff" stroke-width="4"></path><path d="M486,1736q-8.1-4.8 -13.7-1.3q-2.8,1.7 12.5,24.5q7.3,11 -8.3,12.6q-15,1.5 -12.5-9.8" fill="none" stroke="#ffffff" stroke-width="2.6"></path><path d="M503,1725q-1.2,28.6 -2,52" fill="none" stroke="#ffffff" stroke-width="2.6"></path><path d="M490,1759q15-5.9 16-3" fill="none" stroke="#ffffff" stroke-width="2.6"></path><path d="M518,1756q3.9,22 4.2,20.3q6.2-29.2 6.8-29.3" fill="none" stroke="#ffffff" stroke-width="2.6"></path><path d="M539,1773q-2-14.7 4.5-18.4q4.4-2.5 11,5.5q3.8,4.7 -4.9,10.7q-5.6,3.9 -10.8-6.5" fill="none" stroke="#ffffff" stroke-width="2.6"></path><path d="M559,1755q.6,18.6 -1.1,19.2q-1.2,.5 .7-9.2q3.6-18.3 15.1-5.8q1.7,4.8 2.4,9.1q2.6-2.4 5.6-7.2q3.3-5.5 10.9,2.3q2,7.1 2.4,13.6" fill="none" stroke="#ffffff" stroke-width="2.6"></path><path d="M623,1752q-11.8,7 -11.3,19.2q.3,7.6 9.7,2q9.6-5.8 10.3-39.7q.3-13.1 -5.3-8.1q-2.1,1.8 3.8,36.4q2.2,13.1 4.3,16.5" fill="none" stroke="#ffffff" stroke-width="2.6"></path><path d="M649,1757q-.4,.4 -.9,.6" fill="none" stroke="#ffffff" stroke-width="2.6"></path><path d="M645,1734q.6,0 1,0" fill="none" stroke="#ffffff" stroke-width="2.6"></path><path d="M675,1754q-5.4-1.9 -10.4,1.8q-9.7,7.3 4.3,18.3q6.7,5.2 21.9-17.2" fill="none" stroke="#ffffff" stroke-width="2.6"></path><path d="M689,1732q-2.8,47.3 -4.2,41.4q-1.1-4.4 10.1-16.3q9.5-10.1 15.9,12.7q.2,.6 2.7,1.5q1.3,.6 .5-7.3" fill="none" stroke="#ffffff" stroke-width="2.6"></path><path d="M723,1726q-5,38 -4.4,55" fill="none" stroke="#ffffff" stroke-width="2.6"></path><path d="M711,1757q5.5,1.6 10,3" fill="none" stroke="#ffffff" stroke-width="2.6"></path><path d="M735,1764q9.1-9 5.9-8.9q-6.2,.4 -7.5,13.1q-1.1,11.3 17.4,5.4" fill="none" stroke="#ffffff" stroke-width="2.6"></path><path d="M649,1756q-.5,11 -1,20" fill="none" stroke="#ffffff" stroke-width="2.6"></path><path d="M493,1821q-6-1.8 -10.7,4.8q-8.8,12.7 2.9,20.6q2.6,.1 4.8-.4" fill="none" stroke="#ffffff" stroke-width="2.6"></path><path d="M503,1834q-7.1,8.5 .2,10.7q4.7-3.7 7.9-9.1q4.1,2.8 7.9,8.4" fill="none" stroke="#ffffff" stroke-width="2.6"></path><path d="M537,1821q-.4,0 -2,0" fill="none" stroke="#ffffff" stroke-width="2.6"></path><path d="M537,1841q-1.1-1.1 -2-2" fill="none" stroke="#ffffff" stroke-width="2.6"></path><path d="M593,1854q.7-23.2 8.2-29.8q8.9-7.9 14,4.6q2.3,5.8 -7.9,10.2q-2.3-.3 -4.3-1" fill="none" stroke="#ffffff" stroke-width="2.6"></path><path d="M633,1832q-.5-2.4 1.9-2.3q5.6,1.1 10.1,2.3" fill="none" stroke="#ffffff" stroke-width="2.6"></path><path d="M631,1839q8.8-.8 16-1" fill="none" stroke="#ffffff" stroke-width="2.6"></path><path d="M683,1836q4.3-23.4 10.9-10.7q4,7.7 -11,13.7q-.5,.2 -2.7-.4" fill="none" stroke="#ffffff" stroke-width="2.6"></path><path d="M710,1842q-2.2,0 -4,0" fill="none" stroke="#ffffff" stroke-width="2.6"></path><path d="M718,1840q-1-9.3 6.7-10.9q8.2-1.7 12.5,9.3q3.3,8.5 -15.8,3.8" fill="none" stroke="#ffffff" stroke-width="2.6"></path><path d="M753,1831q6.2-9.1 7.3-1.5q.6,10.7 .7,19.5" fill="none" stroke="#ffffff" stroke-width="2.6"></path><path d="M775,1824q11.6,.4 11.5,7.9q-3,8.4 -6.5,15.1" fill="none" stroke="#ffffff" stroke-width="2.6"></path><path d="M778,1838q17.5-3.8 15-2" fill="none" stroke="#ffffff" stroke-width="2.6"></path><path d="M809,1828q-9.4,.4 -5.7,7q10.9,19.5 .3,15.5q-2.4-.9 9.2-20.6q.7-1 1.8-5.8" fill="none" stroke="#ffffff" stroke-width="2.6"></path><path d="M863,1840q19.9,1.4 19.4,.5q-9.8-16.1 5.2-15.6q9.7,.3 5,11.5q-2.4,3.9 -4.6,7q8.2,1.5 21-.4" fill="none" stroke="#ffffff" stroke-width="2.6"></path><path d="M935,1838q3.1-6.4 3.7-3.2q.2,5.7 .2,10.4q.9-2.7 2-7.8q1-4 4.6,1.4q1.7,3.3 2.9,6.1q4.3-1.5 8.5-5.5q1.6-1.5 7.1,4.8" fill="none" stroke="#ffffff" stroke-width="2.6"></path><path d="M975,1838q.1,9.8 .9,6.7q3-11.5 6.2-7q1.6,3.4 2.8,6.3q3.2-.6 6.6-2.9q3.2,2.6 5.5,6.9" fill="none" stroke="#ffffff" stroke-width="2.6"></path><path d="M1010,1817q2.9,3.5 .9,9.1q-2.5,6.6 -2.5,6.8q-.1,1 4.6,2.1" fill="none" stroke="#ffffff" stroke-width="2.6"></path><path d="M859,1857q15.3-.6 48-1.3q53.9-1.9 98-3.7" fill="none" stroke="#ffffff" stroke-width="2.6"></path><path d="M917,1870q2.8,8.6 3.2,6q1.1-7.1 9.9,0q2.2,1.8 11.6-2q3.7-1.5 14.3,5.5" fill="none" stroke="#ffffff" stroke-width="2.6"></path><path d="M489,1898q2-5.7 2.3-4.9q-.9,14.1 -3.5,25.7q-1.6,7.6 9.7,9.9q3.7-1.5 6.5-3.7" fill="none" stroke="#ffffff" stroke-width="2.6"></path><path d="M527,1898q-1.1,1.6 -2,3" fill="none" stroke="#ffffff" stroke-width="2.6"></path><path d="M525,1915q.3,.3 0,.3q-.3,0 -.3-.3q0-.3 .3-.3q.3,0 .3,.3" fill="none" stroke="#ffffff" stroke-width="2.6"></path><path d="M602,1893q-10.5,7.4 -7,11.8q3.2-1.6 6-4.8q1-1.1 3.6,9.7q2.8,12 -7.7,14.3q-3.6,.8 -2.9-7.9" fill="none" stroke="#ffffff" stroke-width="2.6"></path><path d="M624,1897q-11,14.6 -7.7,21.9q3.5,7.5 8.5-4.8q1.3-3 -.8-6.5" fill="none" stroke="#ffffff" stroke-width="2.6"></path><path d="M653,1904q1.8,11.4 3.1,10.3q12-9.7 9.5,.8q5.5-.4 12.9-3.9q5.4-2.6 8.9,10.9" fill="none" stroke="#ffffff" stroke-width="2.6"></path><path d="M730,1977q-.5,12.7 -1,23" fill="none" stroke="#ffffff" stroke-width="2.6"></path><path d="M725,1973q8.7-2.4 16-4" fill="none" stroke="#ffffff" stroke-width="2.6"></path><path d="M722,2005q5-1.1 9-2" fill="none" stroke="#ffffff" stroke-width="2.6"></path><path d="M762,1983q9.3,0 17,0" fill="none" stroke="#ffffff" stroke-width="2.6"></path><path d="M762,1991q7.1,0 13,0" fill="none" stroke="#ffffff" stroke-width="2.6"></path><path d="M813,1980q-3.5,8.1 .7,10.6q7.7,4.8 2.7,8.5q-2.9-.1 -5.4-1.1" fill="none" stroke="#ffffff" stroke-width="2.6"></path><path d="M809,1980q10.4,0 19,0" fill="none" stroke="#ffffff" stroke-width="2.6"></path><path d="M836,1980q-3.8,7.6 1.8,12.7q5.7,5.2 -1.9,7.4q-4-2.1 -6.9-5.1" fill="none" stroke="#ffffff" stroke-width="2.6"></path><path d="M833,1981q8.8,0 16,0" fill="none" stroke="#ffffff" stroke-width="2.6"></path><path d="M851,1989q3-5.4 8.6-6q11.5-1.2 9,15.2q-1,6.2 -17.8-8.9" fill="none" stroke="#ffffff" stroke-width="2.6"></path><path d="M887,1988q-.4-.5 -.8-.9q-.5,4.7 .9,12.3q1.6-2.9 3.2-8.5q1.5-5.2 6.5,.3q1.2,3.3 1.7,6.4q2.1-1.3 4.5-4.2q4.8,2.5 9,7.6" fill="none" stroke="#ffffff" stroke-width="2.6"></path><path d="M928.7,1999.4q7.8-22.8 11.6-22.4q1.8,6.9 .7,14.8q-.2,1.6 1.2,8.1" fill="none" stroke="#ffffff" stroke-width="2.2"></path><path d="M931.5,1993.2q6.2-1.8 11.2-3.3" fill="none" stroke="#ffffff" stroke-width="2.2"></path><path d="M1041.3,1999.9q3.3-12.5 13.6-21.5q1.5-1.3 7.3,16.4q3.1,9.6 -18,4.9q-.7-.1 -3.6,.2" fill="none" stroke="#ffffff" stroke-width="2.2"></path><path d="M1070.9,1985.9q-.1-.7 -.2-1.3q-.1,3.8 .2,10.6q.3,6.6 10.3,5.3q7.2-.9 7-13.7q0-2.4 -2.7-1.9q-.7,.1 1.1,3.3" fill="none" stroke="#ffffff" stroke-width="2.2"></path><path d="M1101.2,1985.4q7-.6 12.9,0" fill="none" stroke="#ffffff" stroke-width="2.2"></path><path d="M1102.3,1991q6.9-.5 12.9,.5" fill="none" stroke="#ffffff" stroke-width="2.2"></path><path d="M1142,1982.6q3.4-4.8 6.1-3.8q3.2,1.3 -.8,16.4q-3.3,12.4 14.3,2.5" fill="none" stroke="#ffffff" stroke-width="2.2"></path><path d="M1170,1980.3q1.3,22.5 7.6,21.6q2.7-4.2 3.9-9.1q3.8-7.9 7.6-14.1" fill="none" stroke="#ffffff" stroke-width="2.2"></path><path d="M673.9,2074.6q-1.5,14.2 -1,21.6" fill="none" stroke="#ffffff" stroke-width="2.2"></path><path d="M669.9,2079.7q10.7-7 13.2-1.4q-1.6,7.2 -4.9,13.2q-2.5,4.6 11.6,5.8" fill="none" stroke="#ffffff" stroke-width="2.2"></path><path d="M703.4,2095.1q.2,.2 0,.2q-.2,0 -.2-.2q0-.2 .2-.2q.2,0 .2,.2" fill="none" stroke="#ffffff" stroke-width="2.2"></path><path d="M702.3,2077.5q7-5.5 6.5,0q-.6,5.7 2.6,12.4" fill="none" stroke="#ffffff" stroke-width="2.2"></path><path d="M811.2,2078.6q-2.5,21.5 5,15.3q5.3-5.9 9.3-11q.7,3.2 .4,8.7" fill="none" stroke="#ffffff" stroke-width="2.2"></path><path d="M840.7,2087.1q.3-.6 .6-1.1" fill="none" stroke="#ffffff" stroke-width="2.2"></path><path d="M841.3,2086.5q7.1-6 9-3.4" fill="none" stroke="#ffffff" stroke-width="2.2"></path><path d="M843,2092.8q6.8-.3 12.4-.6" fill="none" stroke="#ffffff" stroke-width="2.2"></path><path d="M875.3,2082.6q-1.9,11.8 -.6,13" fill="none" stroke="#ffffff" stroke-width="2.2"></path><path d="M873.6,2085.4q4.6-4.7 9.8-4.4q7.7,.6 -2.5,9.2q-4.9,4 8,6" fill="none" stroke="#ffffff" stroke-width="2.2"></path><path d="M892.9,2091.1q.6,0 1.1,0" fill="none" stroke="#ffffff" stroke-width="2.2"></path><path d="M910.5,2079.7q-1.3,8.5 -2.3,15.4" fill="none" stroke="#ffffff" stroke-width="2.2"></path><path d="M903.6,2078q7.2-1.5 13.1-2.8" fill="none" stroke="#ffffff" stroke-width="2.2"></path><path d="M903.7,2097.2q7.9-1.8 14.6-2.5" fill="none" stroke="#ffffff" stroke-width="2"></path><path d="M1029.5,2081q.3-1.8 .2-1.5q-2.6,14.5 7.4,12.3q4.4-1 4.3-9.7q1.9,.6 4.3,2.5" fill="none" stroke="#ffffff" stroke-width="2"></path><path d="M1028,2099.2q2.3-.5 22,.8" fill="none" stroke="#ffffff" stroke-width="2"></path><path d="M954.7,2081.5q6.7,.3 12.1,.5" fill="none" stroke="#ffffff" stroke-width="2"></path><path d="M954.7,2090.1q3.9-1.1 7.1-2" fill="none" stroke="#ffffff" stroke-width="2"></path><path d="M975.9,2081.5q11.9,1.3 12.9,6.5q-4.9,4.8 -11.4,7.7" fill="none" stroke="#ffffff" stroke-width="2"></path><path d="M1034,2109.3q.8,6.8 .5,12.6" fill="none" stroke="#ffffff" stroke-width="2"></path><path d="M1028,2108.3q4.1-3.6 13.6-4.5" fill="none" stroke="#ffffff" stroke-width="2"></path><path d="M1028,2125q9.5,.3 17.2,.5" fill="none" stroke="#ffffff" stroke-width="2"></path><path d="M1068.4,2096.2q2.5-.8 4.6-1.5" fill="none" stroke="#ffffff" stroke-width="2"></path><path d="M1068.9,2099.7q.8,.2 4.1,1" fill="none" stroke="#ffffff" stroke-width="2"></path><path d="M1115.9,2084q-2.5,4.7 -4.5,8.6" fill="none" stroke="#ffffff" stroke-width="2"></path><path d="M1110.3,2083q15.6-2.1 13.8,1.8q-2.8,2.3 -5.5,3.9q-3.1,1.7 6.9,8.5" fill="none" stroke="#ffffff" stroke-width="2"></path><path d="M1166.3,2085.7q4.2-1.7 13.8,0" fill="none" stroke="#ffffff" stroke-width="2.1"></path><path d="M1165.8,2096.1q1,0 4.9,0" fill="none" stroke="#ffffff" stroke-width="2.1"></path><path d="M1194.3,2081.3q.7,.1 3.3,.5" fill="none" stroke="#ffffff" stroke-width="2.1"></path><path d="M1208.1,2084q1.9,6.7 -2.8,17.1" fill="none" stroke="#ffffff" stroke-width="2.1"></path><path d="M1270.1,2082.4q9.4-.3 7.8,4.7q-1.7,5.1 -.8,8.1q.4,1.3 6.3,2.6" fill="none" stroke="#ffffff" stroke-width="2.1"></path><path d="M1295.6,2082.4q1.6,11.3 8.4,10.4q5.7-5.8 9.2-12.5" fill="none" stroke="#ffffff" stroke-width="2.1"></path><path d="M1267,2103.2q25.4-2.8 46.2-4.8" fill="none" stroke="#ffffff" stroke-width="2.1"></path><path d="M1279.2,2111.1q-1.5,5.5 3,15.7q3,6.8 -8.3,1.3" fill="none" stroke="#ffffff" stroke-width="2.1"></path><path d="M1277,2114.3q19.7-5.9 17.6-3.2" fill="none" stroke="#ffffff" stroke-width="2.1"></path><path d="M1295.6,2112.2q-1.5,7.7 2.3,14.3q2.2,3.6 -3.9,2.2" fill="none" stroke="#ffffff" stroke-width="2.1"></path><path d="M1293,2113.3q6.7-1.5 12.2-2.7" fill="none" stroke="#ffffff" stroke-width="2.1"></path><path d="M1308.9,2121.2q-1.5-4.3 .8-6.4q1-.9 6.7,1.6" fill="none" stroke="#ffffff" stroke-width="2.1"></path><path d="M1320.1,2120.7q-7.6,5.4 -12.8,4.2" fill="none" stroke="#ffffff" stroke-width="2.1"></path><path d="M1329.6,2117q-.5,6 -1,10.9q1.6-2.2 3.6-6.4q3.4-6.9 7,2.2q0,.9 -.1,1.6q2.5-.3 5.6-2.1q3.4,1 6.2,2.8" fill="none" stroke="#ffffff" stroke-width="2.1"></path><path d="M1356.2,2128.1q14.7-15.8 14.7-14.9q.1,14.5 -1.4,14.4" fill="none" stroke="#ffffff" stroke-width="2.1"></path><path d="M1364.2,2125.5q4.8-2.9 9-4.8" fill="none" stroke="#ffffff" stroke-width="2.1"></path><path d="M1402.4,2097.8q11.4-1 12.2-.5" fill="none" stroke="#ffffff" stroke-width="2.1"></path><path d="M1409.3,2102.6q5.6,.3 10.1,.6" fill="none" stroke="#ffffff" stroke-width="2.1"></path><path d="M667.6,2174.5q7.5-11.5 13.7-21q1.2,5.2 1,14.2q-.1,1.5 1.4,7.7" fill="none" stroke="#ffffff" stroke-width="1.8"></path><path d="M674.5,2167.6q6-.8 11-1.3" fill="none" stroke="#ffffff" stroke-width="1.8"></path><path d="M704.7,2172.7q.2,.2 0,.2q-.2,0 -.2-.2q0-.2 .2-.2q.2,0 .2,.2" fill="none" stroke="#ffffff" stroke-width="1.8"></path><path d="M703.8,2153.9q1.9-1.8 1.4,.8q-.7,4.2 -.1,5.5q2.8,.9 5.6,1" fill="none" stroke="#ffffff" stroke-width="1.8"></path><path d="M806.9,2154.1q2.7,10.3 5.3,18.6" fill="none" stroke="#ffffff" stroke-width="2.3"></path><path d="M803.4,2158.2q4.9-5.4 9.7-5q2.8,.2 2.2,13.7q-.4,7.8 12.6,5.2" fill="none" stroke="#ffffff" stroke-width="2.3"></path><path d="M833.7,2158.2q7.4-.5 13.4-.6" fill="none" stroke="#ffffff" stroke-width="2.3"></path><path d="M834.3,2162.8q9.6-.9 17.4-1.7" fill="none" stroke="#ffffff" stroke-width="2.3"></path><path d="M876,2184.2q-2.1-24.4 8.8-29.4q6.8-3.2 6.9,10.9q.1,7.5 -9,5.5q-1-.3 -3.7-3.6" fill="none" stroke="#ffffff" stroke-width="1.9"></path><path d="M929.6,2150.6q-.7,17.1 2.6,20q10.7,.2 20.4-2.5" fill="none" stroke="#ffffff" stroke-width="1.9"></path><path d="M912.1,2179.7q29.7-.4 54-.5" fill="none" stroke="#ffffff" stroke-width="1.9"></path><path d="M928.6,2208.7q5.9-22.6 11.3-14.9q1.8,9.3 1.7,17.4" fill="none" stroke="#ffffff" stroke-width="1.9"></path><path d="M931.1,2208.2q11.2-1.2 20.5-1.5" fill="none" stroke="#ffffff" stroke-width="1.9"></path><path d="M995.7,2175.1q7.4-2.6 23,2" fill="none" stroke="#ffffff" stroke-width="1.9"></path><path d="M1000.7,2183.2q7.2,1.6 13,3" fill="none" stroke="#ffffff" stroke-width="1.9"></path><path d="M1031.6,2173.1q13.6,1 15.6,4.7q2.1,3.6 -10.8,8.9" fill="none" stroke="#ffffff" stroke-width="2.1"></path><path d="M1694.1,2083q9.9-.9 18-1.2" fill="none" stroke="#ffffff" stroke-width="2.4"></path><path d="M1696.6,2087.4q6.8,.7 12.4,1.2" fill="none" stroke="#ffffff" stroke-width="2.4"></path><path d="M1751.9,2083q16.8-7.4 16.1,.1q-3,2.1 -6.4,3.1q1.3,2.8 4.5,5.7q3.1,2.9 -4.5,6.8q-5.7,2.8 -6.6-2.6" fill="none" stroke="#ffffff" stroke-width="2.4"></path><path d="M1779.3,2096.1q-.4,0 -1.9,0" fill="none" stroke="#ffffff" stroke-width="2.4"></path><path d="M1797.9,2079.3q-7.1,9.4 -3.6,17.7q2.2,5.4 6.2,.5q-.8-5.7 -3.2-10.8" fill="none" stroke="#ffffff" stroke-width="2.4"></path><path d="M1812.9,2084.2q1.9-4.2 5.8-.3q4.8,4.8 -2.6,4.5q2.3,2 6.9,4.5q4.6,2.5 -1.3,7.4q-5.1-.7 -9.5-3" fill="none" stroke="#ffffff" stroke-width="2.4"></path><path d="M1798.6,2066.8q35.6,1.5 35.4,2.5" fill="none" stroke="#ffffff" stroke-width="2.4"></path><path d="M1859.5,2098.5q23-3.2 20.3-5.7q-7.5-7.1 -7.7-8.3q-1.1-6 11.5-1.5q4.4,8.6 5.9,17.6q.4,2.6 17.2,1.7" fill="none" stroke="#ffffff" stroke-width="2.4"></path><path d="M1488.3,2071.2q6.7-1.4 10.1,2.4q-.8,10.1 -4.6,19.1q-2.7,6.3 13.2,.9" fill="none" stroke="#ffffff" stroke-width="2.4"></path><path d="M1523.1,2078.7q3.8,13.9 8.2,9.9q7.3-10.5 12.4-19.9" fill="none" stroke="#ffffff" stroke-width="2.4"></path><path d="M1479.6,2106.6q69-14.7 80.8-5.6" fill="none" stroke="#ffffff" stroke-width="2.4"></path><path d="M1481.5,2126.5q2.3-7.5 9.7-7.6q6-.1 5.3,12q-.3,4.8 -6,6.1q-.6,.1 -.9-3" fill="none" stroke="#ffffff" stroke-width="2.4"></path><path d="M1507.6,2137.1q-1.7-1.4 -3.1-2.5" fill="none" stroke="#ffffff" stroke-width="2.4"></path><path d="M1514.4,2119.7q-1.5,3.7 2.8,6.3q16.2,9.9 3.8,12.5q-4.3-.5 -7.8-1.4" fill="none" stroke="#ffffff" stroke-width="2.4"></path><path d="M1520,2117.8q5.1-.2 9.4,0" fill="none" stroke="#ffffff" stroke-width="2.4"></path><path d="M1539.3,2117.8q-1.6,6.4 3.7,13.4q5,6.6 1.1,7.2q-4.4-1.3 -7.9-3.2" fill="none" stroke="#ffffff" stroke-width="2.4"></path><path d="M1537.4,2119.1q6.9-.7 12.5-1.3" fill="none" stroke="#ffffff" stroke-width="2.4"></path><path d="M1561.7,2139.6q16-29.7 18-22.5q1.7,5.8 -3.7,25.6" fill="none" stroke="#ffffff" stroke-width="2.4"></path><path d="M1563.6,2131.5q15.3-.7 27.9-.6" fill="none" stroke="#ffffff" stroke-width="2.4"></path><path d="M1089.4,2192.7q17.5-30.1 17.9-30.1q1.1-.2 2.4,19.1q.1,1.7 -1,8.3" fill="none" stroke="#ffffff" stroke-width="2.6"></path><path d="M1098.7,2182.7q10.6-2.2 19.3-4" fill="none" stroke="#ffffff" stroke-width="2.6"></path><path d="M1141.3,2174.7q16.6-1 17.3-.7" fill="none" stroke="#ffffff" stroke-width="2.6"></path><path d="M1156,2184q4.7,0 8.6,0" fill="none" stroke="#ffffff" stroke-width="2.6"></path><path d="M1196.6,2196.6q-1,8.9 -.6,8.2q2-8 2.8-14.8q1.7-12.8 21.8-14.9q8.3-.9 8,7q-.3,6.4 -14.2,5.3q-1.5-1.6 -2.5-3.4" fill="none" stroke="#ffffff" stroke-width="2.6"></path><path d="M1283.1,2158.7q-8.5,29.9 .9,30.7q17.2-3 31.1-7.4" fill="none" stroke="#ffffff" stroke-width="2.6"></path><path d="M1253.2,2200q38.7-3.3 70.5-5.3" fill="none" stroke="#ffffff" stroke-width="2.6"></path><path d="M1285.1,2208.6q2.3,13.6 4,24.7" fill="none" stroke="#ffffff" stroke-width="2.6"></path><path d="M1287.8,2216q10.8-9.5 10.5-2.5q-.6,12 6.9,18.5q5.9,1.9 11.2,2.6" fill="none" stroke="#ffffff" stroke-width="2.6"></path><path d="M1369.7,2175.3q29.3-4.8 25.3-1.3" fill="none" stroke="#ffffff" stroke-width="2.6"></path><path d="M1375,2188q22.9-7.5 25.3-2.7" fill="none" stroke="#ffffff" stroke-width="2.6"></path><path d="M1469,2192q-2.6-19.4 6.8-15.7q5,1.9 1.6,13.7q-2.5,8.8 -10.3,4.3q-.4-.3 .9-2.3" fill="none" stroke="#ffffff" stroke-width="2.6"></path><path d="M1491,2195q-.4-.2 -2-1" fill="none" stroke="#ffffff" stroke-width="2.6"></path><path d="M1508,2175q-12.5,13 -7.8,13.8q2.1,.3 7.8-6.8" fill="none" stroke="#ffffff" stroke-width="2.6"></path><path d="M1511,2176q-1.7,20.3 2.8,22.2" fill="none" stroke="#ffffff" stroke-width="2.6"></path><path d="M1526,2177q14.6-2.7 16.7,5q-1.2,8.3 -3.7,15" fill="none" stroke="#ffffff" stroke-width="2.6"></path><path d="M1532,2188q9.9-1.2 18-2" fill="none" stroke="#ffffff" stroke-width="2.6"></path><path d="M1589,2184q-.5,6.4 -.6,11.7q2.1-3.4 4.7-10.1q3.1-8 3.5,10.2q1.6-1.9 3.6-5.8q1.2-2.4 12.2,4.5" fill="none" stroke="#ffffff" stroke-width="2.6"></path><path d="M1620,2186q-2.4,14.2 -1.1,11.4q5.6-12.8 12.3-4.3q.1,1.7 -.2,3.3q1.6-1.6 4-4.9q5.7,1.9 11,6.5" fill="none" stroke="#ffffff" stroke-width="2.6"></path><path d="M1651,2170q4.3-3.3 6.6,3q-.2,5.2 -1.3,9.5q5.9,2 13.7,1.5" fill="none" stroke="#ffffff" stroke-width="2.6"></path><path d="M676.9,2242.7q2,26.7 -1.1,28.1q-1.4-2.3 -2-5.6" fill="none" stroke="#ffffff" stroke-width="2"></path><path d="M669.6,2237.4q2-.3 3.7-.5" fill="none" stroke="#ffffff" stroke-width="2"></path><path d="M707.9,2265.2q.6,0 1,0" fill="none" stroke="#ffffff" stroke-width="2"></path><path d="M705.2,2238q3.5,0 4.6,3q.7,7.1 .6,13.1q5.2,.5 11.6-1.5" fill="none" stroke="#ffffff" stroke-width="2"></path><path d="M783.9,2251.5q6.9-.7 12.6-.9" fill="none" stroke="#ffffff" stroke-width="1.8"></path><path d="M784.4,2257.1q5.4-.3 9.8-.4" fill="none" stroke="#ffffff" stroke-width="1.8"></path><path d="M843.3,2240.8q-.3,8.7 -.5,15.9" fill="none" stroke="#ffffff" stroke-width="1.8"></path><path d="M834.8,2239.4q5.5-2.4 17.3-1.9" fill="none" stroke="#ffffff" stroke-width="1.8"></path><path d="M835.8,2257.1q8.5,0 15.4,0" fill="none" stroke="#ffffff" stroke-width="1.8"></path><path d="M832,2268.3q13.6-.8 24.8-.9" fill="none" stroke="#ffffff" stroke-width="1.8"></path><path d="M831.1,2299.2q11.9-23.7 17.9-15.9q.3,9.2 -1.5,17.3" fill="none" stroke="#ffffff" stroke-width="1.8"></path><path d="M834.4,2293.6q12.8-1.8 23.3-2.8" fill="none" stroke="#ffffff" stroke-width="1.8"></path><path d="M883.4,2264.6q6.6-2.1 12.2-3.3" fill="none" stroke="#ffffff" stroke-width="1.8"></path><path d="M883.4,2269.3q3.6,0 6.6,0" fill="none" stroke="#ffffff" stroke-width="1.8"></path><path d="M940.4,2266.9q-.8-4 3.7-7.8q13.3-11.3 11.3,1.6q-2.2,13.9 -4.2,16" fill="none" stroke="#ffffff" stroke-width="1.8"></path><path d="M955.4,2275.8q.7,.1 3.7,.5" fill="none" stroke="#ffffff" stroke-width="1.8"></path><path d="M970.8,2264.1q11.6-10.2 11.9-5.2q-1,3.2 -2.3,5.8q-.3,4.2 .2,7.8" fill="none" stroke="#ffffff" stroke-width="1.8"></path><path d="M989,2256.7q6.2-1.4 9.3,.8q3.4,2.4 .1,12.2q-.1,.5 -1.9,1.9" fill="none" stroke="#ffffff" stroke-width="1.8"></path><path d="M990.9,2268.3q8.2-.7 14.9-.9" fill="none" stroke="#ffffff" stroke-width="1.8"></path><path d="M789,2557q-1-2.1 -.9-1.2q2.6,14.4 12.5,13q1-.1 5.4-28.8" fill="none" stroke="#ffffff" stroke-width="2.6"></path><path d="M780,2568q-.8-27.6 3-24" fill="none" stroke="#ffffff" stroke-width="2.6"></path><path d="M825,2545q-1.2,23.3 -1,23" fill="none" stroke="#ffffff" stroke-width="2.6"></path><path d="M815,2544q9.8-1 18-1" fill="none" stroke="#ffffff" stroke-width="2.6"></path><path d="M852,2545q-12.2,2.6 -15.9,14.3q-3.5,10.9 25.9,6.4" fill="none" stroke="#ffffff" stroke-width="2.6"></path><path d="M788,2618q-1.6,11.1 -.1,23.4" fill="none" stroke="#ffffff" stroke-width="2.6"></path><path d="M788,2618q6.2-4.9 12.1-3q11.2,3.7 -1.4,13.4q-6,4.5 -8-3.4" fill="none" stroke="#ffffff" stroke-width="2.6"></path><path d="M811,2622q-.9,14.4 -1.7,26.2" fill="none" stroke="#ffffff" stroke-width="2.6"></path><path d="M805,2620q16.5-3.6 17,0" fill="none" stroke="#ffffff" stroke-width="2.6"></path><path d="M844,2621q-11.2,1.8 -14.3,14q-2.6,10 25.7,5.4" fill="none" stroke="#ffffff" stroke-width="2.6"></path><path d="M971,2543q-.5,12.7 -1,23" fill="none" stroke="#ffffff" stroke-width="2.6"></path><path d="M988,2546q-20.8,19.4 -12.8,23.7q4.8-.7 8.8-2.7" fill="none" stroke="#ffffff" stroke-width="2.6"></path><path d="M994,2560q-2.9-2.7 -5.3,2.5q-2.6,5.3 2.7,4q3.6-2.8 6.3-5.6q1.6,1.7 2.7,4.6q3.2,.4 6.6-.5" fill="none" stroke="#ffffff" stroke-width="2.6"></path><path d="M1011,2550q-2.7,27 -.1,27.3q1.6-4.9 1.1-11.3" fill="none" stroke="#ffffff" stroke-width="2.6"></path><path d="M1024,2542q-3.8,16.5 -7,30" fill="none" stroke="#ffffff" stroke-width="2.6"></path><path d="M1014,2562q7.2-.6 13-1" fill="none" stroke="#ffffff" stroke-width="2.6"></path><path d="M1035,2545q-.4,14.8 0,27" fill="none" stroke="#ffffff" stroke-width="2.6"></path><path d="M1043,2564q7.2-6.1 5.2-6.4q-6.5-.7 -4.9,9.6q.8,4.3 10.7-.2" fill="none" stroke="#ffffff" stroke-width="2.6"></path><path d="M1059,2564q1,7 2,8" fill="none" stroke="#ffffff" stroke-width="2.6"></path><path d="M1060,2552q-.6-1.1 -1-2" fill="none" stroke="#ffffff" stroke-width="2.6"></path><path d="M1072,2544q-1.7,19.2 2,30.4" fill="none" stroke="#ffffff" stroke-width="2.6"></path><path d="M1075,2565q4.4-2.5 8.1-4.6q-.1,1.6 -1,3.9q1.1,2.1 2.9,3.7" fill="none" stroke="#ffffff" stroke-width="2.6"></path><path d="M1100,2554q-1.1,18.4 0,16.1q2-4.1 17-16.1" fill="none" stroke="#ffffff" stroke-width="2.6"></path><path d="M979,2621q2-1.7 1.9,2.7q-.4,23.2 4.3,22.4q1.4-.3 1.8-7.1" fill="none" stroke="#ffffff" stroke-width="2.6"></path><path d="M992,2620q.5,12.1 1,22" fill="none" stroke="#ffffff" stroke-width="2.6"></path><path d="M986,2632q2.7,1.1 5,2" fill="none" stroke="#ffffff" stroke-width="2.6"></path><path d="M1006,2639q6.1-10.1 3.6-7.7q-8.2,7.7 .8,11.6q2.5-.2 4.6-.9" fill="none" stroke="#ffffff" stroke-width="2.6"></path><path d="M1022,2636q-.9,4.1 2.7,7.7" fill="none" stroke="#ffffff" stroke-width="2.6"></path><path d="M1025,2624q-.2,0 -1,0" fill="none" stroke="#ffffff" stroke-width="2.6"></path><path d="M1043,2625q-7.6,1.4 -6.1,9.1q1.4,4.8 2.6,8.8q1.1,3.2 -5.9,.1q-1.1-.5 -2.6-5" fill="none" stroke="#ffffff" stroke-width="2.6"></path><path d="M1052,2626q-6.4,4.2 -3.7,9.9q3.4,7.1 -2.6,6.2q-2.6-1 -4.7-2.1" fill="none" stroke="#ffffff" stroke-width="2.6"></path><path d="M1065,2620q-1.3,13.7 -2,25" fill="none" stroke="#ffffff" stroke-width="2.6"></path><path d="M1065,2637q18.2-8.4 10.7-6.4q-8.9,2.4 -7.4,12.3q.6,4 12.4,.8" fill="none" stroke="#ffffff" stroke-width="2.6"></path><path d="M1088,2636q-.7,2.6 0,8" fill="none" stroke="#ffffff" stroke-width="2.6"></path><path d="M1086,2623q0-.6 0-1" fill="none" stroke="#ffffff" stroke-width="2.6"></path><path d="M1101,2618q.3,14.3 1,26" fill="none" stroke="#ffffff" stroke-width="2.6"></path><path d="M1100,2638q11-5.2 6.5-6.1q-4.3-.8 -1.5,6.3q.5,1.3 6,3.8" fill="none" stroke="#ffffff" stroke-width="2.6"></path><path d="M1121,2630q1.4,20.8 .3,14.7q-.8-4.6 15.4-19" fill="none" stroke="#ffffff" stroke-width="2.6"></path><path d="M881,2618q-1,2.5 .1,1.6q44.1-31 80.7-55.6q-2.7,2.1 -7.8,6" fill="none" stroke="#ffffff" stroke-width="2.6"></path><path d="M891,2562q-.4,2 11.2,15.2q22.5,25.6 41,46.4q.6,.7 -3.2-2.6" fill="none" stroke="#ffffff" stroke-width="2.6"></path><path d="M879,2606q-3.9,18.1 2.8,19.7q4-1.1 7.2-2.7" fill="none" stroke="#ffffff" stroke-width="2.6"></path><path d="M944,2566q16.5-4.6 18.5,1q.1,4.4 -.5,8" fill="none" stroke="#ffffff" stroke-width="2.6"></path><path d="M885,2573q7.5-15.8 16.4-11.2q.7,.4 3.6,2.2" fill="none" stroke="#ffffff" stroke-width="2.6"></path><path d="M941,2615q12.7,1.5 12.9,8q-8.4,1.5 -18.9-1" fill="none" stroke="#ffffff" stroke-width="2.6"></path><path d="M692.7,2743.8q.1-34.9 6.6-43q3.9-4.9 9.8,3.7q5.1,7.6 -1.3,15.3q-.5,.6 -4.1,.1" fill="none" stroke="#ffffff" stroke-width="1.9"></path><path d="M740.5,2695.5q-11.6,13.2 -9,25.5q1.4,6.9 7-.6" fill="none" stroke="#ffffff" stroke-width="1.9"></path><path d="M749,2702.9q.4,19.1 1.5,17.5" fill="none" stroke="#ffffff" stroke-width="1.9"></path><path d="M745,2712.9q1.9-2.4 9.5-4" fill="none" stroke="#ffffff" stroke-width="1.9"></path><path d="M764.5,2700q10.9,21.2 3.1,22.3q-.8-1.1 -1.1-2.4" fill="none" stroke="#ffffff" stroke-width="1.9"></path><path d="M793.9,2705.4q10-1.8 10.9-.5" fill="none" stroke="#ffffff" stroke-width="1.9"></path><path d="M795.9,2709.9q5.2,1.9 9.4,3.5" fill="none" stroke="#ffffff" stroke-width="1.9"></path><path d="M869.1,2717.4q-1,5.2 -2.1,9.4q-.6,2.4 10.1,1.6" fill="none" stroke="#ffffff" stroke-width="1.9"></path><path d="M881.1,2726.9q-.2-7.5 4.5-6.5q4.9,1 1.9,7.4q-1.1,2.5 -6,.8q-.9-.2 -1.9-4.2" fill="none" stroke="#ffffff" stroke-width="1.9"></path><path d="M937.5,2700q-3.5-1.5 -5.7,1q-5,5.5 -7.3,18.2q-1.3,7.2 11.1,1.9q.1,.7 -.2,1.8" fill="none" stroke="#ffffff" stroke-width="1.6"></path><path d="M960,2715q15.7-18.4 13.1-7.4q-2.4,9 -4.5,16.3q.7-.9 1.8-2.6" fill="none" stroke="#ffffff" stroke-width="1.6"></path><path d="M988.3,2704.6q-1.2,6.9 -2.1,12.5" fill="none" stroke="#ffffff" stroke-width="1.6"></path><path d="M980.8,2714.2q4.8-.2 8.7-.4" fill="none" stroke="#ffffff" stroke-width="1.6"></path><path d="M1042.4,2719.2q8.7-6.9 9.5-3.4q-2.9,6.8 -7.1,12q-2.7,3.4 7.2-1.1" fill="none" stroke="#ffffff" stroke-width="1.6"></path><path d="M1058.6,2725.4q-.7-3.4 3.8-2.3q4.5,1.1 0,4.8q-2.3,1.9 -7.5-3.7" fill="none" stroke="#ffffff" stroke-width="1.6"></path><path d="M841.4,2737.5q1.6-17.8 10.8-27.7q4.8-5.1 5,3.8q.3,13.1 -8.8,11" fill="none" stroke="#ffffff" stroke-width="1.6"></path><path d="M1091.9,2705q-.9-1.3 -2.9,2.1q-7.5,12.7 1.7,20.8" fill="none" stroke="#ffffff" stroke-width="1.6"></path><path d="M1110.2,2709.6q-.9,4.6 -1.6,8.3" fill="none" stroke="#ffffff" stroke-width="1.6"></path><path d="M1101.9,2705.5q9.8,.4 17.9,.8" fill="none" stroke="#ffffff" stroke-width="1.6"></path><path d="M1122.3,2714.6q6.2-.3 11.3-.4" fill="none" stroke="#ffffff" stroke-width="1.6"></path><path d="M1151.9,2704.6q7.3-1 7.2,3.3q-2.6,6.2 -5.7,10.9q-2.8,4.4 7.2,2.9" fill="none" stroke="#ffffff" stroke-width="1.6"></path><path d="M1177.7,2705q-6.3,3 -5.8,8.6q.2,3 3.2,.9q1.4-2.7 2.1-5.3q1.5-5.6 2.3,9.5q.3,5.6 -6.5,7.3q-1.9,.5 -2.8-5.1" fill="none" stroke="#ffffff" stroke-width="1.6"></path><path d="M1185.2,2707.1q4.3,0 6.2,3.2q4.2,6.8 -2.5,5.1q1.5-.2 4.3-.1q2.4,.1 .5,5.3q-1.1,2.7 -11,2.8" fill="none" stroke="#ffffff" stroke-width="1.6"></path><path d="M1206.8,2704.6q.6-2.8 .8-2.3q.8,7.9 .6,14.5q0,.6 1.6,2.1" fill="none" stroke="#ffffff" stroke-width="1.6"></path><path d="M1219.3,2707.9q-8.7,9.3 -7.2,13q4.7,1.1 9.7,.4" fill="none" stroke="#ffffff" stroke-width="1.6"></path><path d="M1228.5,2701.3q8.1,16.5 0,20.4" fill="none" stroke="#ffffff" stroke-width="1.6"></path><path d="M1245.1,2698q7.1-.2 8,7.7q1.7,14.2 7.7,21.3q1.2,1.4 -18.6-.3" fill="none" stroke="#ffffff" stroke-width="1.6"></path><path d="M698.3,2824.3q1.2-2.2 1.1-2q-2.7,12.4 1.5,23.7" fill="none" stroke="#ffffff" stroke-width="1.7"></path><path d="M697.9,2829.4q6.4-8.1 8.3-4.8q-.7,7 -3,12.9q4.6,4.6 11.3,7.3" fill="none" stroke="#ffffff" stroke-width="1.7"></path><path d="M1025,2711.9q2.2-3.7 1.9-2.2q-1.2,6.7 -12.6,10.1q-3.9,1.1 -1.2-3.8q3.6-6.7 15,5.4q1.7,3.1 2.9,5.8" fill="none" stroke="#ffffff" stroke-width="1.7"></path><path d="M732,2826.5q.8-1.5 .5-1.6q-2.5-.7 -5.4,11.9q-2.2,9.2 4.1,11.6q.6,.2 2.5-1.9" fill="none" stroke="#ffffff" stroke-width="1.7"></path><path d="M741.3,2825.6q-1.7,16 0,16.6" fill="none" stroke="#ffffff" stroke-width="1.7"></path><path d="M737.1,2836.3q7-.5 12.8-.9" fill="none" stroke="#ffffff" stroke-width="1.7"></path><path d="M753.3,2825.6q8.5,16.3 4.9,22.8q-.6-.4 -1.1-1.1" fill="none" stroke="#ffffff" stroke-width="1.7"></path><path d="M786.5,2832.4q8.9-3.1 10.2-1.7" fill="none" stroke="#ffffff" stroke-width="1.7"></path><path d="M787.3,2837.1q6.1-.4 11.1-.8" fill="none" stroke="#ffffff" stroke-width="1.7"></path><path d="M843.1,2823q.8,7.5 1.3,13.7" fill="none" stroke="#ffffff" stroke-width="1.7"></path><path d="M842.7,2824.8q2.8-2.7 6.7-2.2q4.9,.6 .9,13q-.7,2.4 6.5,3.6" fill="none" stroke="#ffffff" stroke-width="1.7"></path><path d="M860.2,2836.7q5.4-.5 5.8,3.8q-.9,3.9 -2.1,7.2q2.2,.5 5.2,.1" fill="none" stroke="#ffffff" stroke-width="1.7"></path><path d="M877.2,2846.9q-1.3-7.7 2.8-8.8q3.4-.9 6,7.1q2.5,7.5 -10.1,.4" fill="none" stroke="#ffffff" stroke-width="1.7"></path><path d="M917.7,2824.3q-5.7-.2 -5.7,2.1q-.4,17 -.8,30.8q2.2,.4 5-.4q1.7-.4 8.7,1.6" fill="none" stroke="#ffffff" stroke-width="1.7"></path><path d="M939,2838q8.6-8 10.8-4.1q.6,9.1 -.4,17" fill="none" stroke="#ffffff" stroke-width="1.7"></path><path d="M967.1,2835q0,6.5 0,11.9" fill="none" stroke="#ffffff" stroke-width="1.7"></path><path d="M961.1,2842.6q5.9-.7 10.7-1.2" fill="none" stroke="#ffffff" stroke-width="1.7"></path><path d="M1017.3,2833.7q.1,7 -5,10.8q-6,4.6 -8.5-3.7q-1.5-5.1 7.8-4.3q8.4,5.3 14.7,11.3" fill="none" stroke="#ffffff" stroke-width="1.7"></path><path d="M1038.2,2839.7q6.7-1.8 5.8,2.8q-1.2,4.2 -2.3,7.6q-1.6,4.7 11.4-.6" fill="none" stroke="#ffffff" stroke-width="1.7"></path><path d="M1057,2846.5q3-7 7.3-5.4q4,1.4 2.6,9.8q-.8,5.1 -12.1-3.6" fill="none" stroke="#ffffff" stroke-width="1.7"></path><path d="M1091.6,2830.8q-4.3,5.9 -4.6,12.2q-.3,6 5.9,12" fill="none" stroke="#ffffff" stroke-width="1.6"></path><path d="M1109.2,2833.8q.4,8 1.2,10" fill="none" stroke="#ffffff" stroke-width="1.6"></path><path d="M1101.2,2832.1q10.3-.1 18.8,0" fill="none" stroke="#ffffff" stroke-width="1.6"></path><path d="M1141.7,2827.5q3.8-3.1 5.2,1.4q-1.2,9.2 -3.8,16.9q-.5,1.3 2.1,1.3q2.5-1 4.4-2.1" fill="none" stroke="#ffffff" stroke-width="1.6"></path><path d="M1164.2,2831.7q-8.1-.3 -7.6,3.3q.4,3.3 6.5-1.9q.5-.4 .8-.7q1.6-1.5 2,11.4q.3,7.2 -7.1,1.6" fill="none" stroke="#ffffff" stroke-width="1.6"></path><path d="M1177.1,2832.9q4.3,2.6 3.2,7.2q-.4,.8 -.7,1.4q1.8,.8 4.5,.9q4,.2 1,3.9q-.9,1.2 -9.6,.4" fill="none" stroke="#ffffff" stroke-width="1.6"></path><path d="M1118.8,2839.6q4.8-1.4 8.7-2.5" fill="none" stroke="#ffffff" stroke-width="1.6"></path><path d="M1197.1,2828.7q-1,10.5 -1.3,19.6" fill="none" stroke="#ffffff" stroke-width="1.6"></path><path d="M1208.8,2834.2q-9,7.3 -5.8,10.5q3.7,.5 7.1-.1" fill="none" stroke="#ffffff" stroke-width="1.6"></path><path d="M1229.7,2831.3q5.5,10.4 -2.8,17.7q-.3,.2 -1.8,.2" fill="none" stroke="#ffffff" stroke-width="1.6"></path><path d="M1247.2,2830.8q3.7-3.4 6.4-.4q2.3,2.5 3.9,22.1q.2,2.3 -8.2,2.8q-3.3,.5 -5.9,1" fill="none" stroke="#ffffff" stroke-width="1.6"></path><path d="M743.5,2902.3q-7.9,17.4 -14.5,13.4q-4.5-2.6 1.7-5.7q9.9,3.5 17.9,9.8" fill="none" stroke="#ffffff" stroke-width="2"></path><path d="M769.2,2916.7q-11,5 -7.8,12.3q4.1,.8 8.4,.1" fill="none" stroke="#ffffff" stroke-width="2"></path><path d="M774.4,2922.9q-1.2,6.4 4.5,7.3q5.1,.9 4.8-3.3q.3,1 .6,2.7q.2,1.6 6.1,5.2" fill="none" stroke="#ffffff" stroke-width="2"></path><path d="M805.3,2913.1q10.8-.1 19.6,0" fill="none" stroke="#ffffff" stroke-width="2"></path><path d="M806.9,2919.3q9.1-.4 16.5-.5" fill="none" stroke="#ffffff" stroke-width="2"></path><path d="M857.4,2902.8q3.9-3.4 10.1,2.3q5.6,5.2 -1.6,6.9q0-.2 .1-.5q.5-1.4 4.4,4.5q3.6,5.5 -3.4,6.1q-2.5-1 -4.4-2.3" fill="none" stroke="#ffffff" stroke-width="2"></path><path d="M876.5,2921.9q1.7-1.7 3.1-3.1" fill="none" stroke="#ffffff" stroke-width="2"></path><path d="M898.1,2903.3q-8.4,6 -4.9,9.4q3.3,3.2 6.9-5.5q2,3.6 3.4,10.2q1.4,6.8 -7.5,7.2q-7.5,.3 -5.1-2.2" fill="none" stroke="#ffffff" stroke-width="2"></path><path d="M932.2,2910q.2,.2 0,.2q-.2,0 -.2-.2q0-.2 .2-.2q.2,0 .2,.2" fill="none" stroke="#ffffff" stroke-width="2"></path><path d="M942.5,2913.6q13-7.6 13.3-1.7q.7,12.6 .1,10" fill="none" stroke="#ffffff" stroke-width="2"></path><path d="M961.6,2915.2q6-5.8 11.4-3.4q5.7,2.6 -.5,6.6q-2.4,1.7 -5.8-1.7" fill="none" stroke="#ffffff" stroke-width="2"></path><path d="M972.4,2901.2q5.9-.3 10.8-.5" fill="none" stroke="#ffffff" stroke-width="2"></path><path d="M995.6,2894q7.9,5.9 2.2,6.5q.9,1.8 3.1,3.8q1.2,1.1 -6.3,2.6" fill="none" stroke="#ffffff" stroke-width="2"></path><path d="M1039,2902.9q-.3,9.7 -.3,17.7" fill="none" stroke="#ffffff" stroke-width="1.3"></path><path d="M1048.7,2909.5q-8.5,4.1 -6.6,8.8q2.6,1.6 5.3,2.3" fill="none" stroke="#ffffff" stroke-width="1.3"></path><path d="M1056,2904.3q.3-.1 1.4-.3" fill="none" stroke="#ffffff" stroke-width="1.3"></path><path d="M1065.7,2901.2q5.9-1.6 7.1,1.8q.1,3.1 -.1,5.8" fill="none" stroke="#ffffff" stroke-width="1.3"></path><path d="M742.3,2981.6q-3.1,16.8 -9.3,11.1q-2-1.9 1.6-6.1q4.2-4.9 12.3,11.6" fill="none" stroke="#ffffff" stroke-width="1.1"></path><path d="M764.1,2984q.4,3.7 -.1,14.4" fill="none" stroke="#ffffff" stroke-width="1.1"></path><path d="M765.2,2983.4q4.7,.3 8.5,.6" fill="none" stroke="#ffffff" stroke-width="1.1"></path><path d="M764.4,2991.2q3.4,0 6.1,0" fill="none" stroke="#ffffff" stroke-width="1.1"></path><path d="M772.8,2999.4q7.8-2 5.1-3.9q-1-.7 -5.4,3.9q-1.5,1.6 -.5,3.2q.9,1.3 8.1,.3" fill="none" stroke="#ffffff" stroke-width="1.1"></path><path d="M814.7,2982.6q-2.6-.4 -1.5-.5q4.9,0 9,.1" fill="none" stroke="#ffffff" stroke-width="1.7"></path><path d="M817.4,2989.2q2.8-.5 7.9-.9" fill="none" stroke="#ffffff" stroke-width="1.7"></path><path d="M869.8,2978.7q-6.3,12.4 -3.9,17.4q1.5,3.1 7.7-3q4-4 -2.9-3.3q-.4,.6 -.5,1.2" fill="none" stroke="#ffffff" stroke-width="1.7"></path><path d="M883.4,2996.3q0-.3 0-1.4" fill="none" stroke="#ffffff" stroke-width="1.7"></path><path d="M899.3,2981.3q1.1,6.8 5.5,12q1.7,2 -4,1.4q-2.8-1.1 -5.1-2.4" fill="none" stroke="#ffffff" stroke-width="1.7"></path><path d="M893.1,2983.9q10.8-2.7 21.6-2.6" fill="none" stroke="#ffffff" stroke-width="1.7"></path><path d="M923.9,2988.3q.1-.3 .5-1.7" fill="none" stroke="#ffffff" stroke-width="1.7"></path><path d="M945.9,2988.8q9.2-11.3 9.2-4.6q0,4.9 3.2,9.4" fill="none" stroke="#ffffff" stroke-width="1.7"></path><path d="M961.8,2991.4q2.6-6.3 8.3-4.1q5.6,2.1 .4,6.1q-2.9,2.2 -6.5-2" fill="none" stroke="#ffffff" stroke-width="1.7"></path><path d="M975.4,2980q.6,0 3.1,0" fill="none" stroke="#ffffff" stroke-width="1.7"></path><path d="M990.8,2975.6q8.9,.1 5.9,2.7q0,.1 0,.1q3.9,.9 -.3,3.8q-3,.9 -5.6,1.3" fill="none" stroke="#ffffff" stroke-width="1.7"></path><path d="M1030.9,2978.7q0,14 -1.1,17.5q-.1,.5 2-1.3" fill="none" stroke="#ffffff" stroke-width="1.7"></path><path d="M1043.2,2984.8q-7.4,5.2 -4,8.2q1.2,1 7.5,1.1" fill="none" stroke="#ffffff" stroke-width="1.7"></path><path d="M1053.3,2974.7q2.7,.2 4.9,.4" fill="none" stroke="#ffffff" stroke-width="1.7"></path><path d="M1067.9,2975.1q8.7-7.2 6.1,4.9" fill="none" stroke="#ffffff" stroke-width="1.7"></path><path d="M680.1,3057.9q.5,11.9 1.5,13.9" fill="none" stroke="#ffffff" stroke-width="1.5"></path><path d="M678.2,3059.8q5.2-6.2 9.2-3.5q1.7,1.1 -1.4,10.8q-2,6.2 7.3,4.7" fill="none" stroke="#ffffff" stroke-width="1.5"></path><path d="M695.6,3071.1q2.2-.6 2.7,1.2q.9,4.7 1.2,8.6q1.4-.2 2.9-1.1" fill="none" stroke="#ffffff" stroke-width="1.5"></path><path d="M708.8,3076q1-6.5 4.7-.7q5.2,8.1 -3.4,6.8q-2.7-.4 -3.2-4.2" fill="none" stroke="#ffffff" stroke-width="1.5"></path><path d="M699.7,3049.2q-.3,5.2 .4,9.4" fill="none" stroke="#ffffff" stroke-width="1.5"></path><path d="M699.4,3048.8q4.6-.5 8.3-.7" fill="none" stroke="#ffffff" stroke-width="1.5"></path><path d="M699.7,3052.2q2.7,.2 4.9,.4" fill="none" stroke="#ffffff" stroke-width="1.5"></path><path d="M708.4,3056q1.2-1.2 2.1-2.1q-.4,1.5 -1.6,3.9q3.5,.7 8.6-.3" fill="none" stroke="#ffffff" stroke-width="1.5"></path><path d="M562.1,3053.4q-.9,19.1 0,19.5" fill="none" stroke="#ffffff" stroke-width="1.6"></path><path d="M563,3059.1q7-.1 8.9,3.3q4.3,7.3 -8.1,8.1" fill="none" stroke="#ffffff" stroke-width="1.6"></path><path d="M583.6,3062.8q-10.5,2.8 -4.8,7q4.4,3.1 4.3,3.3q-4.7,1 -9.6,.2" fill="none" stroke="#ffffff" stroke-width="1.6"></path><path d="M560.9,3051.4q7.4-3 10.6,.5q-1.1,2.4 -3.3,4.4" fill="none" stroke="#ffffff" stroke-width="1.6"></path><path d="M593,3064.8q-1.3-6.9 1.2-6q1.5,.6 -2.2,8.5q-2.2,4.6 -.6,11.7" fill="none" stroke="#ffffff" stroke-width="1.6"></path><path d="M604.7,3055.9q-.2,1.1 -.4,2" fill="none" stroke="#ffffff" stroke-width="1.6"></path><path d="M605.2,3071.3q-.1-.3 -.2-.5" fill="none" stroke="#ffffff" stroke-width="1.6"></path><path d="M756.9,3058.7q12.2-1.2 12.2-1.2" fill="none" stroke="#ffffff" stroke-width="1.6"></path><path d="M760.2,3062.4q4.5,.2 8.1,.4" fill="none" stroke="#ffffff" stroke-width="1.6"></path><path d="M807.2,3065.2q10.6-8.3 10.9-8q.5,6.8 -1.1,13.3" fill="none" stroke="#ffffff" stroke-width="1.6"></path><path d="M825.9,3066q.1-6.1 4.6-6.2q5.8-.1 4,6.2q-.7,2.4 -6.8,2.7q-1.6-1.4 -2.6-3.1" fill="none" stroke="#ffffff" stroke-width="1.6"></path><path d="M840.9,3066q-.2-4.6 4.5-4.9q5.1-.3 3.3,6.4q-.7,2.4 -11,1" fill="none" stroke="#ffffff" stroke-width="1.6"></path><path d="M879.5,3069.7q15.7,.9 14.5,.5q-9.9-3.5 -4.5-13.3q3.2-5.8 11.4-1.1q5.6,3.2 .5,16.5q6.1,1.6 14.6,.6" fill="none" stroke="#ffffff" stroke-width="1.6"></path><path d="M1094.7,2824q-.4-6.1 6-10.4q5.8-4.1 23.9-.8q27.5,5 33.8,4.1q3.8-.5 24.9-9.3q-.4,.5 -1.2,1.2q-.8,.8 7.6,7.8q10.1,8.3 29.9-2.4q5.7-3.2 9.1,.7q-.4,2 -1.5,3.8" fill="none" stroke="#ffffff" stroke-width="1.6"></path><path d="M1169.9,2792.3q10-8.8 15-4.6q1.9,1.7 1.9,8.6q0,3 -13.6-.7" fill="none" stroke="#ffffff" stroke-width="1.6"></path><path d="M1202.4,2783q-.9,15.2 -.4,15.4" fill="none" stroke="#ffffff" stroke-width="1.6"></path><path d="M1194.3,2790.7q6.3-.2 11.4-.4" fill="none" stroke="#ffffff" stroke-width="1.6"></path><path d="M966.2,3065.4q5.4-1.8 17.6-.9q6.1,.3 11.1,.4" fill="none" stroke="#ffffff" stroke-width="1.9"></path><path d="M1001.1,3058.7q19.1,3.9 15.8,8.5q-3,2.3 -5.7,4" fill="none" stroke="#ffffff" stroke-width="1.9"></path><path d="M1083.7,3053.4q-.4,17.7 .5,16.8" fill="none" stroke="#ffffff" stroke-width="2"></path><path d="M1084.2,3058.1q9.3-6.9 8.8-2.1q-1.7,6 -3.6,10.8q-1.1,2.9 11.6,4.4" fill="none" stroke="#ffffff" stroke-width="2"></path><path d="M1123.1,3076.5q4.9-7.9 6.8-4.8q.4,6.8 -.5,12.7" fill="none" stroke="#ffffff" stroke-width="2"></path><path d="M1137.8,3081.7q.5-6.5 3.8-8.4q5.5-3.3 7.9,6.1q1.8,7 -10.8,3.6q-.2-.1 -.4-1.3" fill="none" stroke="#ffffff" stroke-width="2"></path><path d="M1154.6,3081.7q-.5-8.8 5.3-7.4q6.9,1.7 4,8.6q-5.4,.5 -10.9-1.2" fill="none" stroke="#ffffff" stroke-width="2"></path><path d="M1168.8,3080.2q2.3-5.8 8.5-2.4q7.6,4 2.2,7.4q-4.9-.4 -9.2-1.9" fill="none" stroke="#ffffff" stroke-width="2"></path><path d="M1188.7,3071.2q4.1-4.3 4.9,2.3q-3.3,.4 -7.5-.7" fill="none" stroke="#ffffff" stroke-width="2"></path><path d="M1206.6,3073.3q-7.8,4.9 -6.9,8.2q.4,1.6 7.9,1.8" fill="none" stroke="#ffffff" stroke-width="2"></path><path d="M1125.2,3037.6q.3,15.7 0,15.3" fill="none" stroke="#ffffff" stroke-width="2"></path><path d="M1124.6,3038.2q6.6-1 12.1-1.6" fill="none" stroke="#ffffff" stroke-width="2"></path><path d="M1129.4,3042.9q4.3,.9 7.8,1.6" fill="none" stroke="#ffffff" stroke-width="2"></path><path d="M1153,3041.3q-10,10 8.9,10" fill="none" stroke="#ffffff" stroke-width="2"></path><path d="M675.4,3206.9q10.1-5.8 14.9-4.7q2.8,.7 -1.5,13.9q-1.5,4.6 .5,8.5q.7,1.4 7.9,1.7" fill="none" stroke="#ffffff" stroke-width="2.3"></path><path d="M716.6,3204.5q-14.7,5.8 -9.9,8.4q6.8-3.2 12.2-8.8q.9-.9 1.8,9q1.6,16.5 -10.6,5.5" fill="none" stroke="#ffffff" stroke-width="2.3"></path><path d="M737.2,3206.3q-1.4-2.4 -.9-2.2q19.4,8.1 -.1,16.2q2.7,1.9 7.6,3.6q4.6,1.5 -10.7,5.3" fill="none" stroke="#ffffff" stroke-width="2.3"></path><path d="M777.2,3209.8q5.8,0 10.6,0" fill="none" stroke="#ffffff" stroke-width="2.3"></path><path d="M779,3217.4q2.9-.9 5.3-1.7" fill="none" stroke="#ffffff" stroke-width="2.3"></path><path d="M794.9,3206.9q9.6-1.2 13.9,2.8q2,1.9 -6.3,9.5" fill="none" stroke="#ffffff" stroke-width="2.3"></path><path d="M831.3,3208q1.8,5.9 2.8,10.8q2.3,1.2 4.9,1.6" fill="none" stroke="#ffffff" stroke-width="2.3"></path><path d="M854.9,3213.3q-.5-.8 -2.4-4.1" fill="none" stroke="#ffffff" stroke-width="2.3"></path><path d="M854.9,3206.9q11.2,4.9 10,11.4q-.5,2.7 -7.2,.3q-2.8-3.2 -4.6-6.5" fill="none" stroke="#ffffff" stroke-width="2.3"></path><path d="M820.3,3263.9q4.5-9.6 4.9-6.5q0,8.4 -.5,15.3" fill="none" stroke="#ffffff" stroke-width="2.4"></path><path d="M827.2,3261.5q9.7-3 9.1,3.5q-.6,5.8 1.1,7.5q3.2-.3 6-1.7" fill="none" stroke="#ffffff" stroke-width="2.4"></path><path d="M851.5,3268.9q2.8-5.9 9.3-8.3q10.7-4 10.8,6.9q.1,5.1 -12.9,4.7q-2.3-1.2 -4.1-2.6" fill="none" stroke="#ffffff" stroke-width="2.4"></path><path d="M678.4,3261.5q11.6-7.9 14.5-.6q.8,1.8 -5.7,2.3q1.3,1.9 4.2,4.2q5.9,4.8 -6.8,10.3q-2.1,.9 -5.5-1.9" fill="none" stroke="#ffffff" stroke-width="2.4"></path><path d="M713.9,3255.2q-13.8,6.4 -6.3,7.9q4.4-2.9 7.4-6.9q3.8-4.8 4.8,8.4q.4,6 -11.5,9.3" fill="none" stroke="#ffffff" stroke-width="2.4"></path><path d="M727,3258.3q9.2-1.2 7.3,4.7q-.1,.4 2.4,.6q8.3,.9 1.3,9.2q-1.8,2.1 -12.9,4.8" fill="none" stroke="#ffffff" stroke-width="2.4"></path><path d="M639.9,3240.3q7.9-1 14.3-1.9" fill="none" stroke="#ffffff" stroke-width="2.4"></path><path d="M770.6,3242.8q7-2.3 15.5-2.5" fill="none" stroke="#ffffff" stroke-width="2.4"></path><path d="M771.8,3246.5q4.1,.7 7.5,1.3" fill="none" stroke="#ffffff" stroke-width="2.4"></path><path d="M872.6,3238.4q10.9,.4 19.9,.7" fill="none" stroke="#ffffff" stroke-width="2.4"></path><path d="M668.5,3334.3q13.8-16.1 17.8-10q.4,11 -1.6,20.6" fill="none" stroke="#ffffff" stroke-width="2.4"></path><path d="M695.9,3342.4q2.5-14.1 10.5-16.2q7.5-2 -.3,11.8q-2.4,4.4 -12.1,5.1q-1.3-2 -1.9-4.5" fill="none" stroke="#ffffff" stroke-width="2.4"></path><path d="M718.3,3341.1q3.3-11.3 13.1-11.8q5.5-.3 1.5,8.3q-7.5,4.5 -15.2,6.6" fill="none" stroke="#ffffff" stroke-width="2.4"></path><path d="M820.3,3330.5q8.7-14.1 12.5-8q2.1,3.4 0,19.2" fill="none" stroke="#ffffff" stroke-width="2.4"></path><path d="M841.5,3332.4q8.6-10.1 16.2-6.4q4.4,2.2 -3,6.8q-5.4,3.4 -14.4-2.9" fill="none" stroke="#ffffff" stroke-width="2.4"></path><path d="M872,3339.9q-2.7-4.3 .4-8.2q2.9-3.6 8.3,.6q4.9,3.7 -5.6,8.8q-5.8-.7 -10.6-2.5" fill="none" stroke="#ffffff" stroke-width="2.4"></path></svg>