<svg viewBox="-354 -271.7 876.55 756.4" width="876.55" height="756.4" version="1.1" baseProfile="full" xmlns="http://www.w3.org/2000/svg" class="js-draw--autoresize"><style id="js-draw-style-sheet">path{stroke-linecap:round;stroke-linejoin:round;}text{white-space:pre;}</style><g class="js-draw-image-background js-draw-image-background-grid js-draw-image-background-grid-25"><path d="M522.55,484.7l0-756.4l-876.55,0l0,756.4l876.55,0" fill="#03035e"></path><path d="M-354.35,-250l877.25,0m-877.25,25l877.25,0m-877.25,25l877.25,0m-877.25,25l877.25,0m-877.25,25l877.25,0m-877.25,25l877.25,0m-877.25,25l877.25,0m-877.25,25l877.25,0m-877.25,25l877.25,0m-877.25,25l877.25,0m-877.25,25l877.25,0m-877.25,25l877.25,0m-877.25,25l877.25,0m-877.25,25l877.25,0m-877.25,25l877.25,0m-877.25,25l877.25,0m-877.25,25l877.25,0m-877.25,25l877.25,0m-877.25,25l877.25,0m-877.25,25l877.25,0m-877.25,25l877.25,0m-877.25,25l877.25,0m-877.25,25l877.25,0m-877.25,25l877.25,0m-877.25,25l877.25,0m-877.25,25l877.25,0m-877.25,25l877.25,0m-877.25,25l877.25,0m-877.25,25l877.25,0m-877.25,25l877.25,0m-872.9-747.05l0,757.1m25-757.1l0,757.1m25-757.1l0,757.1m25-757.1l0,757.1m25-757.1l0,757.1m25-757.1l0,757.1m25-757.1l0,757.1m25-757.1l0,757.1m25-757.1l0,757.1m25-757.1l0,757.1m25-757.1l0,757.1m25-757.1l0,757.1m25-757.1l0,757.1m25-757.1l0,757.1m25-757.1l0,757.1m25-757.1l0,757.1m25-757.1l0,757.1m25-757.1l0,757.1m25-757.1l0,757.1m25-757.1l0,757.1m25-757.1l0,757.1m25-757.1l0,757.1m25-757.1l0,757.1m25-757.1l0,757.1m25-757.1l0,757.1m25-757.1l0,757.1m25-757.1l0,757.1m25-757.1l0,757.1m25-757.1l0,757.1m25-757.1l0,757.1m25-757.1l0,757.1m25-757.1l0,757.1m25-757.1l0,757.1m25-757.1l0,757.1m25-757.1l0,757.1" fill="none" stroke="#fcfca133" stroke-width=".7"></path></g><path d="M-109,-200q6.9,50.6 11.1,133.2q4.4,85.7 -7.9,206.4q-10.1,99.8 -1.6,163.3q.3,2.6 7.1,11" fill="none" stroke="#ffffff" stroke-width="2.6"></path><path d="M284,-221q6.8,157.8 2,276.9q-4.4,78.1 -8.4,141.9q2,53.6 5.9,97.4q.2,33.4 -.6,60.8q-.2,4.7 -.9,5" fill="none" stroke="#ffffff" stroke-width="2.6"></path><path d="M-298,-68q198.4,8.8 419.9,12q154.5,2.2 243.2,1.5q68.2,2.4 123.9,5.5" fill="none" stroke="#ffffff" stroke-width="2.6"></path><path d="M-350,163q-2.7-2.3 -.6-2.7q40.1-2.8 73.1-3.2q75.6-3.6 137.4-7.6q184.6-12 317.2-5.8q81.2,4.3 147.7,8.1q72.1,3.6 131.2,6.2" fill="none" stroke="#ffffff" stroke-width="2.6"></path><path d="M-250.2,-47.1q-1.5-2.8 -4.1-3.1q-4.3-.6 -6.4,4.5q-.6,1.5 9.7,12.8q4.9,5.5 -4.4,5.1q-5.4-.2 -6.9-1.7" fill="none" stroke="#ffffff" stroke-width="1"></path><path d="M-242.2,-47.8q-1.8,14.6 -.5,18" fill="none" stroke="#ffffff" stroke-width="1"></path><path d="M-248.6,-35.7q4.1-.9 12.6,.5" fill="none" stroke="#ffffff" stroke-width="1"></path><path d="M-228.5,-38.3q-4.1,4.9 -2.6,7.2q1.2,2.1 3.4-1.4q.2-1.5 .2-2.7q1.9,1 4.2,3.6" fill="none" stroke="#ffffff" stroke-width="1"></path><path d="M-229.8,-43.5q2.4,.6 4.4,1.1" fill="none" stroke="#ffffff" stroke-width="1"></path><path d="M-222,-41.9q1.6,6.3 3,11.5q-.1-1.9 -.6-5.4q1-1.9 2.2-3.3" fill="none" stroke="#ffffff" stroke-width="1"></path><path d="M-205.8,-47.8q2.3,19.8 2.4,19.6" fill="none" stroke="#ffffff" stroke-width="1"></path><path d="M-198.3,-38q-.7-2.4 -2.3,.8q-1.7,3.6 4.1,6.1" fill="none" stroke="#ffffff" stroke-width="1"></path><path d="M-193.6,-34.7q4.7-3.4 3-3.4q-2.7,0 -2.7,5.7q.1,4 7.7,0" fill="none" stroke="#ffffff" stroke-width="1"></path><path d="M-180.5,-39.6q-4,17.8 -2.8,10.6q1.6-2.9 3.4-5.2" fill="none" stroke="#ffffff" stroke-width="1"></path><path d="M-178.4,-35.2q3.3,1.5 7.2,9" fill="none" stroke="#ffffff" stroke-width="1"></path><path d="M-276.7,180.2q-6.8-.8 -8,2.2q2.9,6.8 7.6,12.1q3.1,3.5 -1,5.6q-4.6-.4 -8.4-1.8" fill="none" stroke="#ffffff" stroke-width="1.2"></path><path d="M-266.5,190.6q-7.2,7.1 -3.5,8.5q4.1-.3 7.5-1.4" fill="none" stroke="#ffffff" stroke-width="1.2"></path><path d="M-256.1,173.1q-.4,12.6 .7,26.4q-.2-2.4 -.7-7" fill="none" stroke="#ffffff" stroke-width="1.2"></path><path d="M-253.6,189.7q10.2,7.8 8,8.9" fill="none" stroke="#ffffff" stroke-width="1.2"></path><path d="M-237.6,187.9q2.4,8.6 2.8,7.3q.3-1.3 .5-2.4q1.4,.7 3,2.3q5.6-1.1 10.6-4.2" fill="none" stroke="#ffffff" stroke-width="1.2"></path><path d="M-210.9,188.2q-3.3,.1 -5.5,2.7q-3.9,4.5 .5,7.5q3.9-2.3 6.9-6.2q1.8-.3 3.6,0" fill="none" stroke="#ffffff" stroke-width="1.2"></path><path d="M-215.8,182.3q3,.2 5.5,.3" fill="none" stroke="#ffffff" stroke-width="1.2"></path><path d="M-197.4,187.6q-7.3,7.2 -4.2,10.2q2.2-.5 4.2-1.9" fill="none" stroke="#ffffff" stroke-width="1.2"></path><path d="M-191.2,176.8q-1.3,24.7 .3,22q4.9-8.6 7.8-8.2q2.7,3.2 4.2,6.8" fill="none" stroke="#ffffff" stroke-width="1.2"></path><path d="M-174.6,189.4q-1.9,0 -2.9,2.4q-1.6,3.8 2.8,6.2q2.5-.7 4.7-2.1" fill="none" stroke="#ffffff" stroke-width="1.2"></path><path d="M-167.9,188.5q-2,9 -1.9,8.8q3.6-6.8 9.9,.3q1.4,3 2.2,5.6" fill="none" stroke="#ffffff" stroke-width="1.2"></path><path d="M-55.9,-187.6q-.5-1.1 -2.2-.3q-7.2,3.8 -4.5,9.4q1.1,2.3 13.8-.3" fill="none" stroke="#ffffff" stroke-width="1.1"></path><path d="M-42.1,-197.8q-1.1,15.2 -.2,19.5q1.1-1.8 2.2-5.1q1.6-4.5 7.1,4.8" fill="none" stroke="#ffffff" stroke-width="1.1"></path><path d="M-24.2,-185.3q-7.4,3.6 -4.8,6.3q2.5,2.7 6-4.3q-.1-.8 -.5-1.4q.5,1.1 1.4,3.1q.3,.7 2.9,2.8" fill="none" stroke="#ffffff" stroke-width="1.1"></path><path d="M-16.3,-184.2q.4,4.9 2.2,4.9q1.7-1.2 2.9-2.7" fill="none" stroke="#ffffff" stroke-width="1.1"></path><path d="M-10.1,-183.1q1.1,2.6 2,4.8" fill="none" stroke="#ffffff" stroke-width="1.1"></path><path d="M6,-183.9Q-.3,-182 1.1,-179.7Q3.6,-178.2 6,-177.4" fill="none" stroke="#ffffff" stroke-width="1.1"></path><path d="M8.8,-180.3Q10.5,-180.6 11.9,-180.8" fill="none" stroke="#ffffff" stroke-width="1.1"></path><path d="M12.8,-181.7Q9.4,-181.7 10.4,-178.9Q11.8,-177.8 13.3,-177.1" fill="none" stroke="#ffffff" stroke-width="1.1"></path><path d="M19.3,-181.4q.1,2.7 .5,2q2.3-4.2 7.4,4.8" fill="none" stroke="#ffffff" stroke-width="1.1"></path><path d="M336,-197.8q-7.3,6.6 -6.5,14.3q.9,8.6 7.2-3q.5-1.4 .8-2.6q3.5,3.5 7.2,10.5" fill="none" stroke="#ffffff" stroke-width="2.4"></path><path d="M348.4,-185.4q1-1.7 1.7-3.2q-.2,3.2 -1.3,8.8q-.8,3.6 14.5-1.2" fill="none" stroke="#ffffff" stroke-width="2.4"></path><path d="M367,-199q-3.3,12.4 -.6,22.9" fill="none" stroke="#ffffff" stroke-width="2.4"></path><path d="M363.9,-182.3q8.9-1.6 16.1-3.1" fill="none" stroke="#ffffff" stroke-width="2.4"></path><path d="M379.4,-187.9q-8.7,7.7 -2.3,9.3q3.7,1 5.4-6.9q.4,1.3 .7,3.7q1.7,1.3 3.6,2" fill="none" stroke="#ffffff" stroke-width="2.4"></path><path d="M395.5,-193.4q-1.7,14.5 -.7,14.6q1.9-3.2 2.6-7.2" fill="none" stroke="#ffffff" stroke-width="2.4"></path><path d="M399.9,-188.5q2,5.4 3.7,9.9" fill="none" stroke="#ffffff" stroke-width="2.4"></path><path d="M410.4,-181q2.8,3.3 3.3-.8q.2-1.2 1.7-6.1" fill="none" stroke="#ffffff" stroke-width="2.4"></path><path d="M426.5,-187.2q-7.3,2.5 5.6,9.3" fill="none" stroke="#ffffff" stroke-width="2.4"></path><path d="M436.4,-187.2q-.9,11.3 1.1,8.7q7.8-10 13.2,3.7" fill="none" stroke="#ffffff" stroke-width="2.4"></path><path d="M-283.6,12.5q.1-.1 .3-.3q2.4,0 4.5,.5q-1.9,.2 -5.3,.1" fill="none" stroke="#ffffff" stroke-width="1.1"></path><path d="M-259.3,9.7Q-259.5,6.7 -261.9,9.3Q-265.4,12.9 -263.4,22.6Q-263.4,22.9 -262.6,23.9" fill="none" stroke="#ffffff" stroke-width="1.1"></path><path d="M-265.2,17.5q2,.5 3.7,.8" fill="none" stroke="#ffffff" stroke-width="1.1"></path><path d="M-255.4,9.4Q-256,17.3 -254.5,21.4" fill="none" stroke="#ffffff" stroke-width="1.1"></path><path d="M-252.3,19.5q1.9-2.7 1.5-3.2q-2-2.3 -1.2,3.3q.3,1.6 4.7,1.3" fill="none" stroke="#ffffff" stroke-width="1.1"></path><path d="M-245.1,15.3q3.4,4.5 3.9,4.7" fill="none" stroke="#ffffff" stroke-width="1.1"></path><path d="M-239.2,14.2q-3.3,4 -5.9,7.2" fill="none" stroke="#ffffff" stroke-width="1.1"></path><path d="M-235.3,16.4q-.2,2.5 -.3,4.5" fill="none" stroke="#ffffff" stroke-width="1.1"></path><path d="M-235,8.3Q-235,8 -235,7.7" fill="none" stroke="#ffffff" stroke-width="1.1"></path><path d="M-228.6,6.6Q-229.8,13.4 -230.1,21.4Q-229.3,20.1 -228.3,17.5Q-227.5,15.4 -225.3,18.3Q-224,20.2 -227.2,21.1Q-228.1,20.9 -228.9,20.6" fill="none" stroke="#ffffff" stroke-width="1.1"></path><path d="M-222.4,16.1q-4.7,5.1 1.9,5.2q2.2-.7 3.9-1.6" fill="none" stroke="#ffffff" stroke-width="1.1"></path><path d="M-212.1,6.1Q-212.1,14.8 -211.8,22" fill="none" stroke="#ffffff" stroke-width="1.1"></path><path d="M-284.6,39.6q3.5-1.4 5.6-1.1q-1.4,.2 -4,.3" fill="none" stroke="#ffffff" stroke-width="1"></path><path d="M-309,239.3q8.1-.1 4.9-.6q-4.7-.5 -8.5-.8" fill="none" stroke="#ffffff" stroke-width="1.4"></path><path d="M-276.3,231.4q-1.1,12.5 -.7,14.4" fill="none" stroke="#ffffff" stroke-width="1.4"></path><path d="M-277.7,232.1q11.3-2 9-.7" fill="none" stroke="#ffffff" stroke-width="1.4"></path><path d="M-276.3,237.2q3.2,.5 5.8,1.1" fill="none" stroke="#ffffff" stroke-width="1.4"></path><path d="M-263,239q-5.2,5.7 -2,5.4q1.7-.1 2.5-4.1q1.2,1.5 2.4,4.4" fill="none" stroke="#ffffff" stroke-width="1.4"></path><path d="M-256.5,240.4q.4,7.3 2.1,3.9q1.5,.7 2.9,2.2" fill="none" stroke="#ffffff" stroke-width="1.4"></path><path d="M-246.5,231.4q.6,15.6 -.3,17.6" fill="none" stroke="#ffffff" stroke-width="1.4"></path><path d="M-263.1,37.4q1.2,8.3 1.8,8" fill="none" stroke="#ffffff" stroke-width="1"></path><path d="M-261.5,37.2q2.1-.3 3.9-.6" fill="none" stroke="#ffffff" stroke-width="1"></path><path d="M-263.4,40.1q3.3-.9 6.1-1.6" fill="none" stroke="#ffffff" stroke-width="1"></path><path d="M-261.8,43.8q2.2,.2 4,.3" fill="none" stroke="#ffffff" stroke-width="1"></path><path d="M-254.1,43.3q.1,1.4 .2,2.6q1.2-1.7 2.4-5" fill="none" stroke="#ffffff" stroke-width="1"></path><path d="M-244,36.1q-4.1,4.9 -2.9,9.3q.1,.2 1,.8" fill="none" stroke="#ffffff" stroke-width="1"></path><path d="M-249.1,44.6q3.1-.4 5.6-.8" fill="none" stroke="#ffffff" stroke-width="1"></path><path d="M-240.8,43q-4.7,2.4 -2.3,3.3q1.8,.7 4-2.8q1.3,.4 2.5,1.4" fill="none" stroke="#ffffff" stroke-width="1"></path><path d="M-234.7,36.1q-.5,10.4 0,9.6q2.6-4.8 4.5,.5" fill="none" stroke="#ffffff" stroke-width="1"></path><path d="M-225.4,43q.3,1.7 .6,3.2q.4-1.6 .7-4.5" fill="none" stroke="#ffffff" stroke-width="1"></path><path d="M-221.2,43q-.3,1.9 2,1.9q2.7,0 1.9-2.7q1.1,.7 2.5,2.1" fill="none" stroke="#ffffff" stroke-width="1"></path><path d="M-211.1,41.7q-.6,3.5 -.4,3.2q3-4.8 5.2-3.4q.6,.3 2.4,2.8" fill="none" stroke="#ffffff" stroke-width="1"></path><path d="M-200.8,42.5q.3,1.9 .8,1.3q.6-1.8 .8-3.4q1,1.9 2.2,5.6q1,3 -4.3,1.5" fill="none" stroke="#ffffff" stroke-width="1"></path><path d="M-309.5,263.2q7.4,1.1 8.5,.3" fill="none" stroke="#ffffff" stroke-width="1"></path><path d="M-278.7,265q-.6,7.6 2.2,6.4q1.8-2.6 2.8-5.2q.3-.6 1.5,3" fill="none" stroke="#ffffff" stroke-width="1"></path><path d="M-267.6,265.8q-.4,2.7 -.7,4.9q.7-.9 1.6-2.8q1-2.1 3.8,3.1" fill="none" stroke="#ffffff" stroke-width="1"></path><path d="M-258.3,266.8q-1.5,5.6 -.6,5.5q.7-1.4 .8-3.1q0-.2 .9,2.1q2.7,6.8 -1.5,7.9q-.6,.2 -1.9-2.5" fill="none" stroke="#ffffff" stroke-width="1"></path><path d="M-251,268.4q-2-.9 -1.9,2.2q.1,1.5 4,.9" fill="none" stroke="#ffffff" stroke-width="1"></path><path d="M-244.8,266.3q-4.2,7 -.6,5.4q1.5-3.8 1.6-7.7" fill="none" stroke="#ffffff" stroke-width="1"></path><path d="M-243.8,260.1q.1,7.1 2.4,11.9" fill="none" stroke="#ffffff" stroke-width="1"></path><path d="M-239.4,265.8q-.5,6.8 1.8,5.7q.7-1.6 .8-3.3q1.7,1.5 3.6,4.6" fill="none" stroke="#ffffff" stroke-width="1"></path><path d="M-230.1,261.1q.5,9.3 1.9,11.4" fill="none" stroke="#ffffff" stroke-width="1"></path><path d="M-223.8,266.1q-2.3,4.8 .4,6q1.2-3.1 1.1-7.6" fill="none" stroke="#ffffff" stroke-width="1"></path><path d="M-222.5,259.9q1.3,15.4 3.3,12.4" fill="none" stroke="#ffffff" stroke-width="1"></path><path d="M-216.6,267.4q.5,5.2 1,4.9" fill="none" stroke="#ffffff" stroke-width="1"></path><path d="M-216.9,260.4q.1,.4 .3,1.8" fill="none" stroke="#ffffff" stroke-width="1"></path><path d="M-208.1,265.8q-2.2,2.1 -1.8,4.4q1-.8 2-2.3q.9-1.4 3.6,5.7q1.3,3.6 -9.2,3.1" fill="none" stroke="#ffffff" stroke-width="1"></path><path d="M-280.1,64.3q.9-.2 .9-.2q-2.9,.1 -5.2,.2" fill="none" stroke="#ffffff" stroke-width=".9"></path><path d="M-310.5,290q4.6-1.5 8.4-2.7q-2.4,.2 -6.7,1" fill="none" stroke="#ffffff" stroke-width="1.7"></path><path d="M-277.5,287.2q-4.9-.8 -5,1.3q2,3.4 4.6,5.8q1.6,1.6 -3.4,1q-.5,0 -1.7-1.6" fill="none" stroke="#ffffff" stroke-width="1"></path><path d="M-276.4,284.9q0,6 .2,10.9" fill="none" stroke="#ffffff" stroke-width="1"></path><path d="M-277.2,293q1.1-.4 2-.8" fill="none" stroke="#ffffff" stroke-width="1"></path><path d="M-272.2,292.5q.9,2 1.6,3.7q-.1-.6 -.3-1.7q0-.6 1.3-2.3" fill="none" stroke="#ffffff" stroke-width="1"></path><path d="M-267.6,293.2q-.1-.2 -.2-.4q-.1,.9 .1,2.6q1.9,.4 4.1,.1" fill="none" stroke="#ffffff" stroke-width="1"></path><path d="M-262.3,292q.3,4.8 -.5,4.6q-.4-.1 -.3-2.1" fill="none" stroke="#ffffff" stroke-width="1"></path><path d="M-259,291.7q-.8,.4 .2,1.6q2.6,3.2 -1.6,2.9q-.3-.4 -.4-.9" fill="none" stroke="#ffffff" stroke-width="1"></path><path d="M-252.2,293.2q-3.4,1.8 -2.7,3.9q.7,1.8 3.5-1.2q2.4-2.6 -.1-2.6q.5,1.1 1.8,2.5" fill="none" stroke="#ffffff" stroke-width="1"></path><path d="M-248.2,293.5q.4,4.7 .5,3q.1-1.9 1.1-1.6q.7,.2 2.2,3.1" fill="none" stroke="#ffffff" stroke-width="1"></path><path d="M-236.3,288.7q-.6-.9 -1.9,.8q-3.5,4.5 -.1,8.8" fill="none" stroke="#ffffff" stroke-width="1"></path><path d="M-241.6,294.2q5.8,.5 5.3,.8" fill="none" stroke="#ffffff" stroke-width="1"></path><path d="M-231.5,294q-3.1,1.2 -2.7,3.4q2.2-.4 4.7-2.1" fill="none" stroke="#ffffff" stroke-width="1"></path><path d="M-233,291.7q2.2,.6 4,1" fill="none" stroke="#ffffff" stroke-width="1"></path><path d="M-226.5,289.5q.4,4.3 .8,7.8" fill="none" stroke="#ffffff" stroke-width="1"></path><path d="M-222.9,290.2q-.4,7.1 1.2,9.3" fill="none" stroke="#ffffff" stroke-width="1"></path><path d="M-220.1,293.7q0,1.5 0,2.8" fill="none" stroke="#ffffff" stroke-width="1"></path><path d="M-220.9,288.7q0,.2 0,.8" fill="none" stroke="#ffffff" stroke-width="1"></path><path d="M-213.8,293q-1.4,2.4 -.9,2.7q.9-1.1 1.4-2.7q.4-1.5 2.5,3q2.3,4.6 -3.9,6.2q-.7,.1 -3.4-.6" fill="none" stroke="#ffffff" stroke-width="1"></path><path d="M-62.5,-137.5q5.2-.9 3.9-.3q-7.1,2.6 -7.1,1.1" fill="none" stroke="#ffffff" stroke-width="1"></path><path d="M-30.9,-141.8q4.1-1.9 5.6,.4q.9,1.5 -5.8,8.7q2.4,.7 6.2,.4" fill="none" stroke="#ffffff" stroke-width="1"></path><path d="M-19.8,-134.6q-2.5,2.1 -.3,3q2.5,1.1 3.1-3.1q.1,.8 .2,2.2q0,.6 2.8,1.6" fill="none" stroke="#ffffff" stroke-width="1"></path><path d="M-10.9,-144.7q2.2,13.8 2.6,14.9" fill="none" stroke="#ffffff" stroke-width="1"></path><path d="M-4,-136.2Q-7.9,-134.5 -6.3,-131.9Q-4.9,-131.2 -3.5,-130.9" fill="none" stroke="#ffffff" stroke-width="1"></path><path d="M.7,-135.7Q-.5,-132.3 2.2,-131.5Q4.6,-130.8 4.2,-134.9Q5.3,-133.9 6.8,-131.7" fill="none" stroke="#ffffff" stroke-width="1"></path><path d="M16.3,-134.9q-4,3.4 -3.9,3.1q2.5-5.6 6.2-1.4q1,1.6 1.9,2.9q.5,0 1-.1" fill="none" stroke="#ffffff" stroke-width="1"></path><path d="M26.8,-143.9q-1.3,8.6 -2.2,15.7q0,.2 -1.2,.6q-.5,.2 -.8-2.3" fill="none" stroke="#ffffff" stroke-width="1"></path><path d="M21.5,-133.3q3.2-1.2 5.8-2.1" fill="none" stroke="#ffffff" stroke-width="1"></path><path d="M33.9,-144.9q0,11.7 -.4,14.9" fill="none" stroke="#ffffff" stroke-width="1"></path><path d="M31.8,-135.7q4.9,.1 6.3,1.3" fill="none" stroke="#ffffff" stroke-width="1"></path><path d="M-63.6,-109.1q8.8-1.6 8.9-1.2q-3.1,1.1 -7.6,.7" fill="none" stroke="#ffffff" stroke-width="1"></path><path d="M-62.8,-85.6q8.7,.2 7.6-.9q-4.1,0 -7.9,1.2" fill="none" stroke="#ffffff" stroke-width="1.2"></path><path d="M337.6,-137.3q10.7,.9 6.6,1.2q-4.2-.8 -7.7-1.8" fill="none" stroke="#ffffff" stroke-width="1.1"></path><path d="M372.4,-136.2q3.3-8.5 6.7-5.7q2.3,1.9 -.1,7.7q-1.8,4.2 -4.8,1.3q-.5-.4 .5-1.5" fill="none" stroke="#ffffff" stroke-width="1.1"></path><path d="M382.5,-134.7q.1,5.3 2.8,3.5q4.5-3 4.6-2.8q1.4,2.7 1.8,2.9q.3,.2 1.4-1" fill="none" stroke="#ffffff" stroke-width="1.1"></path><path d="M396.9,-142.2q-3.6,12.4 -1.5,11.8" fill="none" stroke="#ffffff" stroke-width="1.1"></path><path d="M392.6,-133q3.6-.5 6.6-.9" fill="none" stroke="#ffffff" stroke-width="1.1"></path><path d="M408.7,-136.5q-1.2-1.8 -2.2,.4q.3,3.8 1.3,7q.4,1.5 -2,.6q-1-1.2 -1.7-2.5" fill="none" stroke="#ffffff" stroke-width="1.1"></path><path d="M412.1,-131.9q1.4-3.7 3.8-2.6q2.2,.9 -.3,4.7q-1.8,2.7 -4-1.5" fill="none" stroke="#ffffff" stroke-width="1.1"></path><path d="M419.6,-134.4q.9,5.5 2.9,4q.4-1.4 .4-2.8q.8,1.3 1.9,3.7" fill="none" stroke="#ffffff" stroke-width="1.1"></path><path d="M428.5,-134.2q1.8,5.6 1.6,4.4q-.1-2.5 -.1-4.6" fill="none" stroke="#ffffff" stroke-width="1.1"></path><path d="M439.2,-134.2q-7.8,.9 -4.5,4.7q1.9,.5 3.6,.5" fill="none" stroke="#ffffff" stroke-width="1.1"></path><path d="M445.2,-134.4q.4,4.5 1.7,5.4" fill="none" stroke="#ffffff" stroke-width="1.1"></path><path d="M446.4,-142.2q.2,.9 .3,1.7" fill="none" stroke="#ffffff" stroke-width="1.1"></path><path d="M453.3,-136.7q-1.2,4.8 -.8,6.2q.8-1.4 1.6-3.9" fill="none" stroke="#ffffff" stroke-width="1.1"></path><path d="M457.6,-135.3q2.1,3.2 3.7,5.8" fill="none" stroke="#ffffff" stroke-width="1.1"></path><path d="M469.7,-136.7q-4.2,6.2 -1.2,4.9q.8-.8 1.3-1.7q0,2.3 -.7,6.3q-.4,2 -8.1,.8" fill="none" stroke="#ffffff" stroke-width="1.1"></path><path d="M336.2,-110q14.1,1.1 8.7-.2q-4.2,.5 -7.6,1.4" fill="none" stroke="#ffffff" stroke-width="1.1"></path><path d="M378.8,-116q.7,12.6 .9,15.9q.5-.6 1.1-1.8" fill="none" stroke="#ffffff" stroke-width="1.1"></path><path d="M383.9,-106.5q-1.1-.7 -.6,2.4q.5,2.6 2-.1q.8-2.4 1.2-4.4q2.5,1.8 5.2,5.5" fill="none" stroke="#ffffff" stroke-width="1.1"></path><path d="M392,-106q.6,4.3 .7,3.4q.5-2.6 2.9-1.6q2,1.4 3.6,2.6" fill="none" stroke="#ffffff" stroke-width="1.1"></path><path d="M404.9,-105.7q-1.3,1.3 -2.4,2.4q1,.2 2.6,0q2.3-.3 1.7,5.6q-.4,4.1 -7.3,.4" fill="none" stroke="#ffffff" stroke-width="1.1"></path><path d="M413.9,-107.7q1.1,6.3 1.7,5.4q.6-.9 1-1.7q1.6-.3 3.2,.1q.7,.2 3.3-1.5" fill="none" stroke="#ffffff" stroke-width="1.1"></path><path d="M423.9,-103.7q3.4-4.5 1.1-4q-1.8,.3 -.4,3.7q1.1,2.8 5.7-.5" fill="none" stroke="#ffffff" stroke-width="1.1"></path><path d="M431.1,-106.2q.6,2.2 1.2,4" fill="none" stroke="#ffffff" stroke-width="1.1"></path><path d="M431.4,-111.7q-.1-.1 -.3-.6" fill="none" stroke="#ffffff" stroke-width="1.1"></path><path d="M438,-113.2q-.7,8.9 .6,11.4" fill="none" stroke="#ffffff" stroke-width="1.1"></path><path d="M441.5,-106.5q0,1.9 .8,2.8" fill="none" stroke="#ffffff" stroke-width="1.1"></path><path d="M441.2,-112q.3,0 .6,0" fill="none" stroke="#ffffff" stroke-width="1.1"></path><path d="M452.7,-108q-3.3,2.8 -1.9,4.7q.9,1.3 2.1-3.5q.5-2.5 1.9,1.3q2.8,7.3 -3.3,8.7q-1.7-.4 -3.1-1.1" fill="none" stroke="#ffffff" stroke-width="1.1"></path><path d="M330.7,-84.4q7.9-.1 14.3-.2q-3.8,.3 -10.8,.8" fill="none" stroke="#ffffff" stroke-width="1.1"></path><path d="M377.9,-86.7q.3,4.1 2.9,8.9" fill="none" stroke="#ffffff" stroke-width="1.1"></path><path d="M379.3,-85.8q5.8-2.8 4.8,.8q-.7,.7 -1.5,1.1q.4,2.6 1.9,5.3q.9,1.5 -1.3,1q-.3-.7 -.4-1.6" fill="none" stroke="#ffffff" stroke-width="1.1"></path><path d="M389.1,-81.2q.1,1.4 .3,2.6" fill="none" stroke="#ffffff" stroke-width="1.1"></path><path d="M386.8,-86.4q.3,.3 .6,.6" fill="none" stroke="#ffffff" stroke-width="1.1"></path><path d="M396.9,-82.9q-3.4,2.6 -1.7,2.8q1.2-.5 2.1-1.1q1.7-1.2 3,5q.9,4.4 -6,.4" fill="none" stroke="#ffffff" stroke-width="1.1"></path><path d="M425.1,-86.7q-5.4,3.8 -2.7,7.1q3.3,.6 6.4,.1" fill="none" stroke="#ffffff" stroke-width="1.1"></path><path d="M431.7,-80.1q.2-2.8 2.1-3.3q3.3-.9 3.4,3.2q-2.2,.7 -4.9,.4" fill="none" stroke="#ffffff" stroke-width="1.1"></path><path d="M438.6,-80.4q.6-4.4 3.1-2.8q5.1,3.5 0,4.5q-2,.4 -2.8-1.9" fill="none" stroke="#ffffff" stroke-width="1.1"></path><path d="M446.7,-84.4q.5,5 .8,9.2" fill="none" stroke="#ffffff" stroke-width="1.1"></path><path d="M447.5,-80.9q3.5-4 3.6-1.2q-1.6,1.3 -3.6,2" fill="none" stroke="#ffffff" stroke-width="1.1"></path><path d="M455,-82.1q.7-2.1 .2-1.9q-1.2,.5 -1.1,3.7q.7,.8 1.5,1.4" fill="none" stroke="#ffffff" stroke-width="1.1"></path><path d="M461,-82.7q.1,.4 .3,1.8" fill="none" stroke="#ffffff" stroke-width="1.1"></path><path d="M461.3,-79.5q-1.1-2.8 0-4" fill="none" stroke="#ffffff" stroke-width="1.1"></path><path d="M465.6,-82.9q-3.5,3.4 -1.2,3.2q2.2-1.3 3.8-2.9q1.1,1.2 1.8,3.1" fill="none" stroke="#ffffff" stroke-width="1.1"></path><path d="M473.4,-88.7q.9,5.2 1.7,9.5" fill="none" stroke="#ffffff" stroke-width="1.1"></path><path d="M472.8,-81.8q2.1,.3 3.8,.6" fill="none" stroke="#ffffff" stroke-width="1.1"></path><path d="M478.3,-80.6q2.7-3.5 1.8-3.5q-.7,0 -1.9,3.4q.1,.6 .4,1.2" fill="none" stroke="#ffffff" stroke-width="1.1"></path><path d="M484.6,-85.5q1.9,7 .4,7.6q-.8,.2 -4.1-1.3" fill="none" stroke="#ffffff" stroke-width="1.1"></path><path d="M-25.6,-85.1q-3.4,1.4 -2.2,3.3q1.4,2.1 3.5-2.5q0-.1 0-.2q0,0 2.5,3.6q2.9,4.2 -2.7,3.5q-1.1-.8 -1.8-1.6" fill="none" stroke="#ffffff" stroke-width=".8"></path><path d="M-20,-83q1.5,4.5 2.4,3q.7-1.4 1.2-2.6" fill="none" stroke="#ffffff" stroke-width=".8"></path><path d="M-15.4,-83.6q1,5 2.6,4" fill="none" stroke="#ffffff" stroke-width=".8"></path><path d="M-10.8,-87.8q-.3,6 1.7,9.8" fill="none" stroke="#ffffff" stroke-width=".8"></path><path d="M-12.4,-80.7q.1,0 .6,0" fill="none" stroke="#ffffff" stroke-width=".8"></path><path d="M-6.6,-82.6Q-8.4,-81.9 -7.7,-79.1Q-7.5,-78.1 -3.6,-78.2" fill="none" stroke="#ffffff" stroke-width=".8"></path><path d="M14.8,-88.6q-3.2,11.4 -.6,10.3q2.6-.9 4.8-1.5" fill="none" stroke="#ffffff" stroke-width=".8"></path><path d="M23.2,-79q-.1-2.2 1-3q1.9-1.3 2.2,2q.1,2 -3.6,1.9q-.4,0 -1.9-1.1" fill="none" stroke="#ffffff" stroke-width=".8"></path><path d="M21.8,-84.5q2.1,.3 3.9,.5" fill="none" stroke="#ffffff" stroke-width=".8"></path><path d="M31.4,-88.9q-1.2,12.8 -.7,11.2q1.3-4.5 2-4.8q1.6,1.5 2.7,3.9" fill="none" stroke="#ffffff" stroke-width=".8"></path><path d="M37.3,-82.4q-.3,2.6 -.5,4.7q1.2-1.2 2.8-3.7q1.8-3 5,3.4" fill="none" stroke="#ffffff" stroke-width=".8"></path><path d="M48.2,-81.5q-4,1.2 -2.2,3q2.5,.5 4.9,.3" fill="none" stroke="#ffffff" stroke-width=".8"></path><path d="M56.8,-140.5q-.3-.9 -.8-.5q-1.3,1 -9.1,12.8" fill="none" stroke="#ffffff" stroke-width=".9"></path><path d="M64.7,-127.1q2.8-2.6 4.9-7.7q1.4-3.2 1.9-1.9q.2,5.3 -.3,9.7q-.3,2.5 1.8,2.6q2.5-5.5 2.7-12.4q.2-.1 .5-.1q1.1,2.9 1.1,6.5" fill="none" stroke="#ffffff" stroke-width=".9"></path><path d="M81.5,-129.3q-.3-3.9 1.8-2.9q2.5,1.2 .2,4.2q-1.3,1.7 -2.5-1.3" fill="none" stroke="#ffffff" stroke-width=".9"></path><path d="M88.5,-132.6q-2.2,5.8 .1,4.3q1.4-3.2 1.9-6.3" fill="none" stroke="#ffffff" stroke-width=".9"></path><path d="M90.9,-138.1q.6,4.5 2,11.4" fill="none" stroke="#ffffff" stroke-width=".9"></path><path d="M95.3,-130.6q.7-1.8 -.3-1.5q-1.9,.5 .5,3q2.5,2.7 3.4-2.4q-.1,.1 -.2,.3q-.2,.6 .7,4q.2-1.7 .3-5" fill="none" stroke="#ffffff" stroke-width=".9"></path><path d="M103.3,-132.8q.2,5.1 .5,4.5q1.2-3.1 3.9-2.6q1-.1 1.7-.3q-.6,.4 -1.8,1.1q-2.9,1.5 5.6,2.3" fill="none" stroke="#ffffff" stroke-width=".9"></path><path d="M131,-141.2q.3-.6 .3-.5q-.1,7.8 -.5,14.2" fill="none" stroke="#ffffff" stroke-width=".9"></path><path d="M129,-132.8q2.9-.1 5.3,0" fill="none" stroke="#ffffff" stroke-width=".9"></path><path d="M135.4,-131.5q2.2-1 4-1.9q-.8,1 -2.5,2.6q-1.6,1.6 3.1,1.5" fill="none" stroke="#ffffff" stroke-width=".9"></path><path d="M142.4,-132.8q-1.2,2 -.6,3.3q.2,.6 2.8,.6" fill="none" stroke="#ffffff" stroke-width=".9"></path><path d="M149.3,-141.4q-3.5,12.4 -3.1,13.7q.8-1.1 1.6-3.2q.9-2.5 3.5-.8q.7,1.7 .8,3.3" fill="none" stroke="#ffffff" stroke-width=".9"></path><path d="M156.6,-132.3q-.1-.2 -.2-.3q0,1.4 .7,3.7q1.1-.5 2.2-1.8q1.4,.4 2.6,1.3" fill="none" stroke="#ffffff" stroke-width=".9"></path><path d="M163,-129.7q1.3-2.2 3.7-.6q2.7,1.8 -.5,2.5q-.5,.1 -1.9-1.4" fill="none" stroke="#ffffff" stroke-width=".9"></path><path d="M171.2,-136.5q-1.1,9.7 .4,7.1" fill="none" stroke="#ffffff" stroke-width=".9"></path><path d="M174.3,-129.9q0-2.8 1-3.1q1.4-.3 3.8,3.4q.9,1.4 -1.5,2q-1.3-.4 -2.4-1" fill="none" stroke="#ffffff" stroke-width=".9"></path><path d="M182,-131.7q-2.2,2.2 -.7,1.9q1.6-.5 2.8-1q1.3-.5 1.2,3q-.2,4.3 -4.5,2.3q-.4-.9 -.5-1.9" fill="none" stroke="#ffffff" stroke-width=".9"></path><path d="M190,-130.5q.3,2 -.4,2.8" fill="none" stroke="#ffffff" stroke-width=".9"></path><path d="M188.5,-136.3q.1,.1 .4,.7" fill="none" stroke="#ffffff" stroke-width=".9"></path><path d="M193.3,-129.9q4.6-4 2.3-3.5q-2.9,.7 -1.3,4.3q1.5,3.4 4.1,.8" fill="none" stroke="#ffffff" stroke-width=".9"></path><path d="M-25.9,-110.5q-1.8,2.9 -.7,3.4q.8-1.1 1.3-2.6q.3-1.1 2.3,4.8q1.6,4.6 -3.6,1.2q-.2-.6 -.3-1.2" fill="none" stroke="#ffffff" stroke-width=".8"></path><path d="M-21.9,-107.5q.2,2.5 2.2,1.9q1.3-1.5 2.2-3.2q.8,1.4 1.4,3.8q.5-.1 1-.3" fill="none" stroke="#ffffff" stroke-width=".8"></path><path d="M-13.1,-111.7q.7,4.3 1.3,7.8" fill="none" stroke="#ffffff" stroke-width=".8"></path><path d="M-12.2,-105.3q2.3-3.3 1.2-2.2q-1.6,1.7 4.2,3" fill="none" stroke="#ffffff" stroke-width=".8"></path><path d="M5.4,-110.1Q8.7,-103.2 8.8,-103.2Q9.5,-105.1 9.3,-107.4Q9.5,-106.1 9.9,-103.6Q10.1,-102.2 14.3,-110.3" fill="none" stroke="#ffffff" stroke-width=".8"></path><path d="M13.3,-104.9q.9-1.4 1.6-2.6q-.1,1.2 -.5,3.2q-.4,1.8 2.3,0" fill="none" stroke="#ffffff" stroke-width=".8"></path><path d="M19.5,-106.1q-.1,2.4 0,2.4" fill="none" stroke="#ffffff" stroke-width=".8"></path><path d="M18.7,-110.9q-.1-.1 -.2-.2" fill="none" stroke="#ffffff" stroke-width=".8"></path><path d="M22.9,-111.3q.4,4.6 .8,8.4" fill="none" stroke="#ffffff" stroke-width=".8"></path><path d="M24.1,-105.3q.4-.9 .7-1.7q0,.8 -.2,2.2q-.2,1.2 1.9,.5q.5-.7 .9-1.4" fill="none" stroke="#ffffff" stroke-width=".8"></path><path d="M27.6,-106.9q.9,3.2 .3,3.1q-.2-2.1 .7-4.7" fill="none" stroke="#ffffff" stroke-width=".8"></path><path d="M33,-111.9q-.9,7.7 -1,7.5q-.2-1.8 3-.4q1.3,.5 .3,1.3q-1.5-.4 -2.7-1.2" fill="none" stroke="#ffffff" stroke-width=".8"></path><path d="M37.8,-105.5q-.2,.7 -.4,1.2" fill="none" stroke="#ffffff" stroke-width=".8"></path><path d="M37.8,-111.3q.1,.3 .2,.4" fill="none" stroke="#ffffff" stroke-width=".8"></path><path d="M41.8,-111.5q.1,4.2 .2,7.6" fill="none" stroke="#ffffff" stroke-width=".8"></path><path d="M45.4,-108.7q-2.4,3.5 -1.1,4.4q1.4,1 2.8-4.4" fill="none" stroke="#ffffff" stroke-width=".8"></path><path d="M47.1,-111.3q-.3,2.8 1.2,6.4" fill="none" stroke="#ffffff" stroke-width=".8"></path><path d="M49.1,-108.5q.6,3.2 2,3.6q.9-.9 1.4-2" fill="none" stroke="#ffffff" stroke-width=".8"></path><path d="M52.9,-109.3q.3,1.9 .6,3.4" fill="none" stroke="#ffffff" stroke-width=".8"></path><path d="M55.1,-107.3q-.5,2.5 -.2,2q2.1-3.7 3.8,.2" fill="none" stroke="#ffffff" stroke-width=".8"></path><path d="M61.3,-108.3q-1.2,3.5 .1,2.6q2.8-2.1 2.3,3.2q-.3,2.6 -3,0" fill="none" stroke="#ffffff" stroke-width=".8"></path><path d="M67.6,-108.9q-1.3,.9 -.7,2q.9,1.1 1.7,1.9q.8,.8 -4.3,.9" fill="none" stroke="#ffffff" stroke-width=".8"></path><path d="M71.2,-107.7q-.4,4.6 .1,3q.8-3 3-.4q.2,.6 .3,1.2q.3-.9 .7-2.7q1.7,.7 3.7,2.5" fill="none" stroke="#ffffff" stroke-width=".8"></path><path d="M79.8,-104.5q1.7-3.2 3,.1q.6,1.6 -3.2,.5" fill="none" stroke="#ffffff" stroke-width=".8"></path><path d="M80.2,-108.1q2.6-.2 4.8-.4" fill="none" stroke="#ffffff" stroke-width=".8"></path><path d="M89.9,-107.1q-3.1-.4 -3.3,1.7q-.1,1.1 .7,.6q.8-.6 1.4-1.1q1.1-1.1 1.5,3.1q.3,2.8 -3.8,2.7q-.7-1.2 -.9-2.6" fill="none" stroke="#ffffff" stroke-width=".8"></path><path d="M92.9,-110.9q.2,3.9 .4,7" fill="none" stroke="#ffffff" stroke-width=".8"></path><path d="M96.1,-105.5q.1,1 .2,1.8" fill="none" stroke="#ffffff" stroke-width=".8"></path><path d="M95.9,-111.1q.08,.08 0,.08q-.08,0 -.08-.08q0-.08 .08-.08q.08,0 .08,.08" fill="none" stroke="#ffffff" stroke-width=".8"></path><path d="M100.9,-107.3q-1-.7 -2.2,.7q-2.5,3.1 3.8,2.7" fill="none" stroke="#ffffff" stroke-width=".8"></path><path d="M103.3,-112.7q-1,10.7 -.3,9.6q.8-2 1.3-3.7q.4-1.3 3.3,3.7" fill="none" stroke="#ffffff" stroke-width=".8"></path><path d="M110.8,-111.3q.4,4 .8,7.2" fill="none" stroke="#ffffff" stroke-width=".8"></path><path d="M113.8,-108.9q-1.9,2.9 -.8,4.7q.2,.2 1.6-.1" fill="none" stroke="#ffffff" stroke-width=".8"></path><path d="M118.2,-106.5q-3.8,.7 -2.2,2q1.3,.1 2.4-.2" fill="none" stroke="#ffffff" stroke-width=".8"></path><path d="M119.6,-106.5q0,1.4 0,2.6" fill="none" stroke="#ffffff" stroke-width=".8"></path><path d="M120.2,-111.9q-.2,.3 -.4,.6" fill="none" stroke="#ffffff" stroke-width=".8"></path><path d="M124.5,-111.5q0,4.1 0,7.4" fill="none" stroke="#ffffff" stroke-width=".8"></path><path d="M124,-105.7q5.4-1.4 4.5-2.8q-.4-.5 -1.9,1.2q-1.2,1.4 2.1,3" fill="none" stroke="#ffffff" stroke-width=".8"></path><path d="M130.7,-105.9q0,.8 .3,.5q2.6-3.2 4.9,.5q.1,.5 0,1" fill="none" stroke="#ffffff" stroke-width=".8"></path><path d="M-264,69.8q3.2-6.8 4.1-8.3q1-1.7 1.2,7.2" fill="none" stroke="#ffffff" stroke-width=".7"></path><path d="M-262.2,66.5q1-.7 5.2-.2" fill="none" stroke="#ffffff" stroke-width=".7"></path><path d="M-255.3,64.6q0,2.9 2.1,3.3q.5-.9 .7-2.1q.8,.6 1.7,2" fill="none" stroke="#ffffff" stroke-width=".7"></path><path d="M-248.4,65q-1-.4 -.6,.4q.8,1.6 1.5,2.9q-1.3,.3 -3.3,0" fill="none" stroke="#ffffff" stroke-width=".7"></path><path d="M-243.9,59.4q.3,5.1 .5,9.3q.4-.9 .8-2.7q.4-1.8 1.4,.1q.5,1.1 -1.4,1.9q-.2-.2 -.4-.5" fill="none" stroke="#ffffff" stroke-width=".7"></path><path d="M-237.8,66q.4,3.3 0,2.7" fill="none" stroke="#ffffff" stroke-width=".7"></path><path d="M-238.5,59.8q.07,.07 0,.07q-.07,0 -.07-.07q0-.07 .07-.07q.07,0 .07,.07" fill="none" stroke="#ffffff" stroke-width=".7"></path><path d="M-234,59.1q.2,9.1 .5,8.9" fill="none" stroke="#ffffff" stroke-width=".7"></path><path d="M-229.4,63.4q-1.5,4 .6,4.6q1,.2 .6-7q-.2-3.3 -.9-2q.4,4.3 2,8" fill="none" stroke="#ffffff" stroke-width=".7"></path><path d="M-224.7,63.6q.9,5 2.2,3.4q.5-1.8 .7-3.4q.8,1.2 1.6,3.7" fill="none" stroke="#ffffff" stroke-width=".7"></path><path d="M-217.3,63.4q0,4 .3,3.5q1.5-3.4 3.4-2.5q.5,.2 1.8,1.9" fill="none" stroke="#ffffff" stroke-width=".7"></path><path d="M-209.8,63.4q-1,2.2 -.3,1.8q.3-.6 .6-1.2q.5-1.5 .7,2.7q.1,.5 -.8,2" fill="none" stroke="#ffffff" stroke-width=".7"></path><path d="M-285,88.3q-.3-.1 .6,0q3.2,.5 3.2,.3q-1.8-.3 -4,.2" fill="none" stroke="#ffffff" stroke-width=".7"></path><path d="M-264,87q.7,5.6 1.7,8" fill="none" stroke="#ffffff" stroke-width=".7"></path><path d="M-264.7,87.5q2.4-.6 4.4-.9" fill="none" stroke="#ffffff" stroke-width=".7"></path><path d="M-264.2,90.3q3.6-1.4 6.7-2.3" fill="none" stroke="#ffffff" stroke-width=".7"></path><path d="M-264.2,92.7q3.7,.1 3.7,0" fill="none" stroke="#ffffff" stroke-width=".7"></path><path d="M-258.3,91.3q1,1.6 1.8,2.9q-.1-.8 -.3-2q.2-.8 .5-1.4" fill="none" stroke="#ffffff" stroke-width=".7"></path><path d="M-250.9,91q-2.1-.2 -1.9,1.2q.2,1.2 2-1.3q.7-.9 1.8,3.1q.7,2.8 -2.2,3.1q-.4,0 -1.2-1.4" fill="none" stroke="#ffffff" stroke-width=".7"></path><path d="M-249.1,92.3q1.8-.8 1.6-.5q-.4,.8 .8,2.7" fill="none" stroke="#ffffff" stroke-width=".7"></path><path d="M-243.7,91.5q.1,.9 .2,1.7" fill="none" stroke="#ffffff" stroke-width=".7"></path><path d="M-245.4,87.3q.07,.07 0,.07q-.07,0 -.07-.07q0-.07 .07-.07q.07,0 .07,.07" fill="none" stroke="#ffffff" stroke-width=".7"></path><path d="M-239.8,90.1q2-.1 1.9,1.8q-.3,1.2 -.8,2.2q-.1,.3 1.5-1.1" fill="none" stroke="#ffffff" stroke-width=".7"></path><path d="M-233.8,91.5q0,1.5 0,2.7" fill="none" stroke="#ffffff" stroke-width=".7"></path><path d="M-233.8,87.1q.07,.07 0,.07q-.07,0 -.07-.07q0-.07 .07-.07q.07,0 .07,.07" fill="none" stroke="#ffffff" stroke-width=".7"></path><path d="M-226.4,88.5q-4.6,5.9 -1.5,4.3q.5-.9 .8-1.8q.3-1.3 1.9,2q1.7,3.7 -4.7,3" fill="none" stroke="#ffffff" stroke-width=".7"></path><path d="M-284.7,115.3q3.5-.6 3.2-.7q-2.8,0 -5,.2" fill="none" stroke="#ffffff" stroke-width=".7"></path><path d="M-13.1,3.7Q-18.6,4.2 -19.6,8.5Q-16.2,14.9 -11.4,19.7Q-9.3,21.8 -14.4,22.5Q-16.2,22.8 -22,19.9" fill="none" stroke="#ffffff" stroke-width="1.1"></path><path d="M-6.7,16.2Q-7.1,8 -4.4,5.9Q-1.2,3.4 1.4,11.5Q3.4,17.8 -3.7,19.1Q-6.2,19.6 -8.3,16.8" fill="none" stroke="#ffffff" stroke-width="1.1"></path><path d="M8.9,13.5Q13.5,13.8 17.2,14.3" fill="none" stroke="#ffffff" stroke-width="1.1"></path><path d="M50.9,8.7Q42.5,9.4 43,11.9Q45.2,16.4 47.5,19.9Q49.8,23.2 45.6,24Q44.6,24.2 40,19.9" fill="none" stroke="#ffffff" stroke-width="1.1"></path><path d="M59.2,6.2Q57.5,14.5 56.1,21.2" fill="none" stroke="#ffffff" stroke-width="1.1"></path><path d="M53.9,16.2q4.9,.6 8.9,1.2" fill="none" stroke="#ffffff" stroke-width="1.1"></path><path d="M65.6,16.2q.7,2.3 1.3,4.2q.4-1.4 .6-3.9" fill="none" stroke="#ffffff" stroke-width="1.1"></path><path d="M76.7,14.9q-4.5,3.8 -1.9,4.3q1.7-1.2 3-2.7" fill="none" stroke="#ffffff" stroke-width="1.1"></path><path d="M78.1,16q.3,6.3 1.9,6.9" fill="none" stroke="#ffffff" stroke-width="1.1"></path><path d="M91.2,6.5Q88.2,9 87.1,14Q86.5,18.6 86.2,22.4" fill="none" stroke="#ffffff" stroke-width="1.1"></path><path d="M85,17.9q8.7-1.6 8.2-2.7q-.1-.4 -2.8,1.6q-1.9,1.4 -.2,3.2q2.4,.3 4.6-.1" fill="none" stroke="#ffffff" stroke-width="1.1"></path><path d="M101.4,15.4q-3.7,2.1 -2.2,2.2q2.1-.6 3.7-1.5q1.4-.8 1.5,6.3q.1,5.1 -5,2.7q-.6-1.3 -.7-2.5" fill="none" stroke="#ffffff" stroke-width="1.1"></path><path d="M113.1,17.4q-.5,1.5 -1.6,5" fill="none" stroke="#ffffff" stroke-width="1.1"></path><path d="M111.7,8.7Q111.7,9 111.7,10.4" fill="none" stroke="#ffffff" stroke-width="1.1"></path><path d="M127.7,13.8q-10.4,7.6 -4.2,6.7q4.1-.5 5.7-7.7q0,2.5 -.4,7.2" fill="none" stroke="#ffffff" stroke-width="1.1"></path><path d="M135.7,13.2q-1.4,8.2 -.5,6.9q2.8-4 3.5-4.2q2.5,1.2 4.4,3" fill="none" stroke="#ffffff" stroke-width="1.1"></path><path d="M151,12.9q-4.5,2.2 -4,4.3q1.4,2.4 2.9,4.3q1.3,1.8 -2.3,1.1q-.7-.2 -3.1-2.3" fill="none" stroke="#ffffff" stroke-width="1.1"></path><path d="M155.3,15.8q-3.6,4.9 -1.1,4.6q.8-.1 3.6-2.1" fill="none" stroke="#ffffff" stroke-width="1.1"></path><path d="M158.1,17.2q.3,2.3 2.9,4.3" fill="none" stroke="#ffffff" stroke-width="1.1"></path><path d="M168.4,8.1Q168.2,15 168.1,20.6" fill="none" stroke="#ffffff" stroke-width="1.1"></path><path d="M166.6,14.6q.2-.1 .3-.2" fill="none" stroke="#ffffff" stroke-width="1.1"></path><path d="M171.5,13.8q.4-.3 2.2-1.4" fill="none" stroke="#ffffff" stroke-width="1.1"></path><path d="M175.5,12.7q-2.2,6.4 -1.4,7.7q1.3,.1 2.5-.4" fill="none" stroke="#ffffff" stroke-width="1.1"></path><path d="M-21.6,203.7q1.3-.1 1.8,2.6q2.5,13.8 4.4,7.2q1.4-5.4 1.5-5.2q3.3,9 8.4,2.1q.8-1.1 2.9-6.3" fill="none" stroke="#ffffff" stroke-width="1.4"></path><path d="M-1.9,213.2Q-1.7,208.8 2.5,209.7Q7,210.7 5.3,216Q4.6,218.3 .3,217.1Q-.9,215.6 -1.6,213.9" fill="none" stroke="#ffffff" stroke-width="1.4"></path><path d="M8.2,211.4Q13.4,211.5 17.7,211.8" fill="none" stroke="#ffffff" stroke-width="1.4"></path><path d="M40.5,203.7q-5.8,1.4 -5.1,5.4q2.9,4.7 6,8.2q2.6,2.9 -3,2.8q-3.1,0 -4.9-8" fill="none" stroke="#ffffff" stroke-width="1.4"></path><path d="M49.2,202q-2.3,17.5 -2.1,17.5" fill="none" stroke="#ffffff" stroke-width="1.4"></path><path d="M44.3,212.8q4.8-.6 8.8-1" fill="none" stroke="#ffffff" stroke-width="1.4"></path><path d="M55.5,215.3q1.4,2.3 2.5,4.2q-.2-.8 -.8-2.2q.4-2.2 1.1-4.1" fill="none" stroke="#ffffff" stroke-width="1.4"></path><path d="M64.7,212.5q-4.2,6.5 -1.6,7.4q2-2.1 3.2-5q2.1,1.7 4,5" fill="none" stroke="#ffffff" stroke-width="1.4"></path><path d="M80.8,200.9q-2.5,18.4 -1.8,18.6" fill="none" stroke="#ffffff" stroke-width="1.4"></path><path d="M75.9,213.9q2.1,.6 3.8,1" fill="none" stroke="#ffffff" stroke-width="1.4"></path><path d="M85,216.4q6.7-5.2 4.7-4q-4.4,2.6 -2.2,6.4q.5,.9 5.2,.4" fill="none" stroke="#ffffff" stroke-width="1.4"></path><path d="M98.6,213.2q-4.3,3.8 -.7,4.9q1.9-.9 3.3-2.4q.6-.5 .3,4.9q-.4,5.3 -5.1,4.5q-1.1-1.3 -1.6-2.8" fill="none" stroke="#ffffff" stroke-width="1.4"></path><path d="M106,217.4q1.4,4.2 1.4,4.2" fill="none" stroke="#ffffff" stroke-width="1.4"></path><path d="M106,210.7q1.5,.6 2.8,1.1" fill="none" stroke="#ffffff" stroke-width="1.4"></path><path d="M116.5,214.9q-6.2,1.3 -5.8,5.4q4,1 8.6,.3" fill="none" stroke="#ffffff" stroke-width="1.4"></path><path d="M126,218.8q-2.6-4.5 -4.8-1.8q-2.8,3.3 1.4,4.9q3.7,1.5 6-6.5q.1-.7 0-1.3q-.1,1.6 -.2,4.7" fill="none" stroke="#ffffff" stroke-width="1.4"></path><path d="M132.6,216.4q-1.4,5.6 -.1,4.5q3.9-3.4 6.3-3.1q.6,.1 2.3,1.4" fill="none" stroke="#ffffff" stroke-width="1.4"></path><path d="M148.4,213.2q-2.3,.9 -1.3,3.4q2.1,5 1.6,5.6q-3-.5 -5.9-2.3" fill="none" stroke="#ffffff" stroke-width="1.4"></path><path d="M154.7,216q-4.3,4 -1.2,4.6q2.1-1.9 3.6-4.3q1.7,1.3 3.2,3.9q1.8,.5 3.5,.4" fill="none" stroke="#ffffff" stroke-width="1.4"></path><path d="M167,206.9q.3,14.7 .3,14.7" fill="none" stroke="#ffffff" stroke-width="1.4"></path><path d="M164.2,215.3q.4-.1 2.1-.4" fill="none" stroke="#ffffff" stroke-width="1.4"></path><path d="M170.5,214.9q6.1-1.1 5.3,2.5q-1.1,2.6 -2.2,4.6q0,0 4.9,1" fill="none" stroke="#ffffff" stroke-width="1.4"></path><path d="M365.6,10.2Q363.4,7.3 359.1,9.1Q353,11.7 362.1,17.5Q366,20 362.7,20.4Q360.4,20.7 358.2,17.9" fill="none" stroke="#ffffff" stroke-width=".9"></path><path d="M370.7,12q.1,4.9 0,8.9" fill="none" stroke="#ffffff" stroke-width=".9"></path><path d="M365.9,8.1Q366.9,7 369.4,7.1Q372.6,7.6 375.2,8.3" fill="none" stroke="#ffffff" stroke-width=".9"></path><path d="M377.5,13.9q2.7,.1 4.9,.2" fill="none" stroke="#ffffff" stroke-width=".9"></path><path d="M402,10.9Q400.2,7 398.1,8.8Q396.7,10 400.7,17.1Q403.7,22.5 397.6,20.1Q396.1,18.2 395.2,16.2" fill="none" stroke="#ffffff" stroke-width=".9"></path><path d="M405.7,7.8Q405,23.9 405.9,21.4" fill="none" stroke="#ffffff" stroke-width=".9"></path><path d="M402.7,17.4q2.1-1 6.2-.9" fill="none" stroke="#ffffff" stroke-width=".9"></path><path d="M409.9,17.2q1.5,4.2 1.2,3.9q-1.3-1.9 -.3-3" fill="none" stroke="#ffffff" stroke-width=".9"></path><path d="M416.4,17.2q-1.8,2.5 .1,2.9q1.1-1.2 1.8-2.7q.9,1.1 1.6,3.1q.9,.6 1.9,.9" fill="none" stroke="#ffffff" stroke-width=".9"></path><path d="M426.4,9.5Q425.4,19.8 425.7,21.4" fill="none" stroke="#ffffff" stroke-width=".9"></path><path d="M422.5,17.2q1.6,.6 3,1.1" fill="none" stroke="#ffffff" stroke-width=".9"></path><path d="M428.7,19q4.1-2.7 3.1-3.2q-1.6-.7 -2.4,3.6q-.2,1.3 4,1.3" fill="none" stroke="#ffffff" stroke-width=".9"></path><path d="M435.3,16.7q-1.1,2.4 .2,2.1q1.7-.4 1.9,.3q2.1,6.9 -3.1,6.6q-1.3-.1 -.9-3.4" fill="none" stroke="#ffffff" stroke-width=".9"></path><path d="M442.3,18.1q.6,2.1 .8,3.8" fill="none" stroke="#ffffff" stroke-width=".9"></path><path d="M443.2,12.3q0,.2 -.2,.9" fill="none" stroke="#ffffff" stroke-width=".9"></path><path d="M446.4,19.3q1.7-1.9 1-1.8q-1.3,.2 -.5,3q2.2,1.1 4.7,1.3" fill="none" stroke="#ffffff" stroke-width=".9"></path><path d="M457.9,17.4q-6.5,4.4 -2.4,4.8q2,.2 2.7-4.3q.9,1 1.8,3" fill="none" stroke="#ffffff" stroke-width=".9"></path><path d="M462.5,18.6q-1.2,4.1 -.7,3.5q2.8-3.9 4.3-2.1q.5,1.6 .6,3" fill="none" stroke="#ffffff" stroke-width=".9"></path><path d="M474.2,17.6q-1,.4 -.6,3.4q.4,2.8 -2.1,3.2q-.8-.7 -1.3-1.5" fill="none" stroke="#ffffff" stroke-width=".9"></path><path d="M480,18.3q-3.9,3.2 -1.7,5.1q1.6,1.3 4.6-3.9q.3,.8 .4,2.2q.1,1.7 3.9-1.5" fill="none" stroke="#ffffff" stroke-width=".9"></path><path d="M490.5,11.8q-.4,11.3 -.3,11.2" fill="none" stroke="#ffffff" stroke-width=".9"></path><path d="M488.1,18.6q1.8,0 3.3,0" fill="none" stroke="#ffffff" stroke-width=".9"></path><path d="M494,17.9q3.9,.1 2.6,2.4q-1.5,2 -2.9,3.6q-.5,.7 1.1,.8q2.9-.5 5.2-1.3" fill="none" stroke="#ffffff" stroke-width=".9"></path><path d="M353.6,207.6q2.6,12.3 3,13.6q.4,1.4 .9,.3q.6-3.2 .8-5.9q.5,1.2 1.2,3.5q1.2,3.9 4.5-2.4q1.2-3.5 1.9-6.5" fill="none" stroke="#ffffff" stroke-width="1.1"></path><path d="M373.1,211.6q-.1,4.7 0,8.6" fill="none" stroke="#ffffff" stroke-width="1.1"></path><path d="M367.1,209.3q3.8-.4 6.9-.8" fill="none" stroke="#ffffff" stroke-width="1.1"></path><path d="M380.3,214.5q9.9-1.3 8-.3" fill="none" stroke="#ffffff" stroke-width="1.1"></path><path d="M401.2,212.2q-4.2-4.6 -4.3-1.1q2.1,5.7 4.8,10.2q1.5,2.4 -3.8,.6q-9.9-3.4 -4.5-5.1" fill="none" stroke="#ffffff" stroke-width="1.1"></path><path d="M405.5,209.1q3.1,10.1 1.7,12.8" fill="none" stroke="#ffffff" stroke-width="1.1"></path><path d="M404,217.6q3.6-.6 6.6-.8" fill="none" stroke="#ffffff" stroke-width="1.1"></path><path d="M410.6,216.2q2.4,6.6 1.2,6.8q-.3-2.7 .8-6.2" fill="none" stroke="#ffffff" stroke-width="1.1"></path><path d="M418.6,216.8q-4.6,3.8 -1.3,3.9q1.6-1.4 2.6-3.3q.5,1 .9,2.7q.8,3 7.9,1" fill="none" stroke="#ffffff" stroke-width="1.1"></path><path d="M427.5,210.2q1,13.9 .9,14" fill="none" stroke="#ffffff" stroke-width="1.1"></path><path d="M426.7,217.9q.3,.2 1.4,.9" fill="none" stroke="#ffffff" stroke-width="1.1"></path><path d="M430.7,221.4q2.9-2 5.3-3.7q-.4,1.1 -1.5,3q.5,1.6 1.6,3" fill="none" stroke="#ffffff" stroke-width="1.1"></path><path d="M445.3,216.5q-2.8,1.1 -2.4,3.8q.8-.3 1.8-1q.9-.7 1.3,7.2q.1,3.9 -2.6,3.5q-1-2.9 -1-6.1" fill="none" stroke="#ffffff" stroke-width="1.1"></path><path d="M449.3,219.1q.7,2.9 1.2,5.3" fill="none" stroke="#ffffff" stroke-width="1.1"></path><path d="M451,211.6q.1,.4 .6,2" fill="none" stroke="#ffffff" stroke-width="1.1"></path><path d="M454.4,221.1q4.3-4.1 2.6-4.1q-2.8,.1 -1.1,5.1q.5,1.7 4.8,1.8" fill="none" stroke="#ffffff" stroke-width="1.1"></path><path d="M473.3,217.4q-5.1,2.4 -4.7,6.7q.1,1.5 3.2-.2q2.8-1.5 1.2-6.2q-.2-.1 -.6-.1q.9,2.4 3.2,5.2" fill="none" stroke="#ffffff" stroke-width="1.1"></path><path d="M478.2,217.4q1,6.7 2.1,6.5q1-2.2 1.3-4.8q.1-1.3 3.1,2.5q.6,.8 4.4,2.3" fill="none" stroke="#ffffff" stroke-width="1.1"></path><path d="M491.4,218.8q-.7-2.8 -.9-1.9q.6,3.9 1.9,7.1q.9,2.3 -2,1.6q-.7-1.6 -.7-3.4" fill="none" stroke="#ffffff" stroke-width="1.1"></path><path d="M500.2,217.6q-4.7,5.9 -1.8,6.4q2.3-2.3 3.7-5.3q1,1.2 1.9,3.6q.9,2.4 2.3-.9" fill="none" stroke="#ffffff" stroke-width="1.1"></path><path d="M508.3,209.9q.2,14.1 -.3,14.6" fill="none" stroke="#ffffff" stroke-width="1.1"></path><path d="M506.5,218.2q5.8,.4 5.5,1.7" fill="none" stroke="#ffffff" stroke-width="1.1"></path><path d="M512.8,218.8q4.6-3.5 5.1-.6q0,.1 -3.4,5.9q-1.1,1.9 7.5,.1" fill="none" stroke="#ffffff" stroke-width="1.1"></path><path d="M-162.5,-267.9q.3-3 .6-2.4q.8,9.3 -.2,17.4" fill="none" stroke="#ffffff" stroke-width="1.6"></path><path d="M-164.9,-261.1q5.1,1.7 9.3,3.3" fill="none" stroke="#ffffff" stroke-width="1.6"></path><path d="M-153.6,-261.5q3.4,3.5 6.5,6.1" fill="none" stroke="#ffffff" stroke-width="1.6"></path><path d="M-143.5,-258.2q-5.5,5.5 -4.4,8.9" fill="none" stroke="#ffffff" stroke-width="1.6"></path><path d="M-141,-254.6q2.4-6.9 6.4-6q4.4,1 -.3,4.8q-3.7,1.8 -6.9,2.9q-2.6,.9 -.1,7.6q.1,.4 1.7,1.3" fill="none" stroke="#ffffff" stroke-width="1.6"></path><path d="M-125.2,-259q.6,8.9 1.2,6.1" fill="none" stroke="#ffffff" stroke-width="1.6"></path><path d="M-122.8,-266.3q.2,.4 .4,.8" fill="none" stroke="#ffffff" stroke-width="1.6"></path><path d="M-112.6,-261.5q-4.1,3.4 -3.4,7.1q.2,1.2 -2.2,1.4q-1-.7 -1.7-1.6" fill="none" stroke="#ffffff" stroke-width="1.6"></path><path d="M-107.8,-257q-4.6,1.6 -1.5,2.6q3.1,.5 5.6,.6" fill="none" stroke="#ffffff" stroke-width="1.6"></path><path d="M-99.7,-266.7q0,7.4 .1,13.5q.7-1.5 1.6-4.2q.5-1.7 6.4,3.2" fill="none" stroke="#ffffff" stroke-width="1.6"></path><path d="M-87.1,-257.8q-1.9,2.6 2,5.7" fill="none" stroke="#ffffff" stroke-width="1.6"></path><path d="M-53.4,-268.4q-1.2,13.7 -.4,14.6" fill="none" stroke="#ffffff" stroke-width="1.6"></path><path d="M-45.7,-263.1q-8.7,7.3 -5.3,9.8q3-.1 5.7-.9" fill="none" stroke="#ffffff" stroke-width="1.6"></path><path d="M-40.1,-267.9q-.1,11 2.5,17" fill="none" stroke="#ffffff" stroke-width="1.6"></path><path d="M-30.3,-259.8q-3.4,6.8 -.4,6.1q1.2-.2 1.7-4.5q.5,.7 1.1,2q2,1.5 4.1,2.4" fill="none" stroke="#ffffff" stroke-width="1.6"></path><path d="M-21.8,-259.4q.6,4.5 2.8,4.6q.1-.6 0-1.4" fill="none" stroke="#ffffff" stroke-width="1.6"></path><path d="M-19,-258.2q2.1,1.7 4.1,2.8" fill="none" stroke="#ffffff" stroke-width="1.6"></path><path d="M-11.3,-261.9q-.3,2.6 1.9,5.6q2.9,3.9 -.7,4.1q-2-.9 -3.6-2" fill="none" stroke="#ffffff" stroke-width="1.6"></path><path d="M.1,-261.1Q-2.4,-254.5 .4,-253.2Q3.8,-251.7 2,-258.4Q2.8,-257.5 4.1,-255.8" fill="none" stroke="#ffffff" stroke-width="1.6"></path><path d="M11.8,-255q-1.5-.4 -1-2.7q1.1-2.4 2.3-4.2" fill="none" stroke="#ffffff" stroke-width="1.6"></path><path d="M21.2,-261.9q-5.5,5.5 -1.9,7.3q5.1,2.5 4.1-5.3q.3,.8 .6,2.3q.2,1 4.1,3" fill="none" stroke="#ffffff" stroke-width="1.6"></path><path d="M30.5,-258.6q1.7,6 3.6,3.4q1.7,0 3.3,.6" fill="none" stroke="#ffffff" stroke-width="1.6"></path><path d="M40.2,-266.3q-2.9,16.6 1.2,16.2" fill="none" stroke="#ffffff" stroke-width="1.6"></path><path d="M36.2,-257q2.9,.7 5.2,1.2" fill="none" stroke="#ffffff" stroke-width="1.6"></path><path d="M55.2,-259q-8.5,2.5 -5.3,4.7q4.3,2.8 6.6-2.1q0,3.6 -.9,10.1q-.7,3.9 -5.6,.9q-.3-2.7 .4-5.5" fill="none" stroke="#ffffff" stroke-width="1.6"></path><path d="M64.2,-256.6q-3.7,2 -2.7,3.7q1.2,2.1 6-2.4q1-1.4 1.7-2.6q.4,.5 .8,1.6q.3,1 4.7,2.1" fill="none" stroke="#ffffff" stroke-width="1.6"></path><path d="M78.3,-264.3q-1.1,12.5 -2.1,11.6q-1.6-1.3 3.3-4.5q1.8-1.1 2,2q.1,2.2 -3.6,1.4" fill="none" stroke="#ffffff" stroke-width="1.6"></path><path d="M90.1,-256.6q-3.7,1.5 .2,2.7q1.6,.4 8.3-.7" fill="none" stroke="#ffffff" stroke-width="1.6"></path><path d="M99,-254.2q.7-.4 1.2-.8" fill="none" stroke="#ffffff" stroke-width="1.6"></path><path d="M-92,408.3q.4,14.1 .7,14.9" fill="none" stroke="#ffffff" stroke-width="1.4"></path><path d="M-92.7,409q2.9-3.7 6.7-3.7q3.4,0 4.5,4.3q-2.8,2.7 -6.8,4.2q-2.6,1.1 4.5,4.8q2.2,1.1 4.1,2" fill="none" stroke="#ffffff" stroke-width="1.4"></path><path d="M-77.6,414.1q2.2,5.2 6.7,6.2q2.6,.5 2.7-2.2" fill="none" stroke="#ffffff" stroke-width="1.4"></path><path d="M-77.2,408q.4-.2 .7-.4" fill="none" stroke="#ffffff" stroke-width="1.4"></path><path d="M-70.7,407.2q.1,.1 0,.1q-.1,0 -.1-.1q0-.1 .1-.1q.1,0 .1,.1" fill="none" stroke="#ffffff" stroke-width="1.4"></path><path d="M-58,412.3q.7-1.1 .6-1.2q-2.2-1.2 -3.7,7q-.6,3.5 7.1,2.5" fill="none" stroke="#ffffff" stroke-width="1.4"></path><path d="M-49.7,402.2q.8,10.3 1.8,18.8" fill="none" stroke="#ffffff" stroke-width="1.4"></path><path d="M-42.1,412.3q-7,4.3 -4.9,7.7q2.3,1 4.5,1.3" fill="none" stroke="#ffffff" stroke-width="1.4"></path><path d="M-32,414.1q.5,7.8 3,6.4q1-2.6 1.3-5.2q3.5-.6 7.6,.3" fill="none" stroke="#ffffff" stroke-width="1.4"></path><path d="M-13.9,413q-6.4,5.2 -3.7,7.8q2.3,2.2 7.5-6.2q1.2,1 2.3,2.8" fill="none" stroke="#ffffff" stroke-width="1.4"></path><path d="M-14.3,408.3q2,.4 3.7,.7" fill="none" stroke="#ffffff" stroke-width="1.4"></path><path d="M-4.1,413.4Q-2.4,419.4 -3.9,417.7Q-3.7,413.7 -2.3,410.1" fill="none" stroke="#ffffff" stroke-width="1.4"></path><path d="M7.1,406.9Q7.3,413.7 7.4,419.2" fill="none" stroke="#ffffff" stroke-width="1.4"></path><path d="M3.8,414.8Q6.4,414.4 8.5,414.1" fill="none" stroke="#ffffff" stroke-width="1.4"></path><path d="M15.8,410.9q-3.9-.5 -2.1,2q7.3,10 -2.3,8.4" fill="none" stroke="#ffffff" stroke-width="1.4"></path><path d="M23,416.3q1.3,1.7 .7,5.8" fill="none" stroke="#ffffff" stroke-width="1.4"></path><path d="M23,408.3q.4,0 .7,0" fill="none" stroke="#ffffff" stroke-width="1.4"></path><path d="M30.9,413.7q1.4,7 1.7,8.2q-.1-1.1 -.2-3.1" fill="none" stroke="#ffffff" stroke-width="1.4"></path><path d="M36.7,415.2q1.2,3.4 2.2,6.1" fill="none" stroke="#ffffff" stroke-width="1.4"></path><path d="M49,409q.8,12.6 1.1,11.3" fill="none" stroke="#ffffff" stroke-width="1.4"></path><path d="M47.9,414.1q1.4,0 2.6,0" fill="none" stroke="#ffffff" stroke-width="1.4"></path><path d="M56.6,418.8q3.2-5.7 1.8-5.9q-2.3-.3 -1.1,5.1q.2,.8 3.3,1.9" fill="none" stroke="#ffffff" stroke-width="1.4"></path><path d="M68.9,413q-3.5,.5 -4.6,3.4q-.7,2.2 2.3,2.6q1.9-.6 3.3-1.4q.7-.4 .5,4.4q-.2,5.5 -4.2,6.6q-.4-1.1 -.2-2.6" fill="none" stroke="#ffffff" stroke-width="1.4"></path><path d="M75.8,415.9q2.6,8.5 1.2,5.2q-.1-2.4 .2-4.5" fill="none" stroke="#ffffff" stroke-width="1.4"></path><path d="M84.1,415.2q-4.1,4.9 -1.3,5.7q2.6-1.7 4.5-4.1q1.8,2 3,5.6" fill="none" stroke="#ffffff" stroke-width="1.4"></path><path d="M96,404q-.3,11.1 -.7,20.2" fill="none" stroke="#ffffff" stroke-width="1.4"></path><path d="M94.2,415.9q3.6,1 6.5,1.8" fill="none" stroke="#ffffff" stroke-width="1.4"></path><path d="M103.3,419.9q-.2,.8 -.4,1.4" fill="none" stroke="#ffffff" stroke-width="1.4"></path><path d="M101.8,408.7q.3-.7 1.5-3.6" fill="none" stroke="#ffffff" stroke-width="1.4"></path><path d="M110.5,420.6q-.7-6.3 1.8-6.9q3.6-.8 3.3,5.5q-.2,5 -5.1,2.3" fill="none" stroke="#ffffff" stroke-width="1.4"></path><path d="M118.8,413.7q.5,3.7 .8,6.7q1.2-1.5 2.5-4.6q2.7-6.4 7.1,0q1.2,2.8 1.9,5.2" fill="none" stroke="#ffffff" stroke-width="1.4"></path><path d="M137.6,420.6q0,.3 0,1.5" fill="none" stroke="#ffffff" stroke-width="1.4"></path><path d="M-89.9,472.7q5-24.8 6-20.5q.7,8.7 .9,15.9q.1,3.7 1.1,2.4q2.5-10.4 3.1-19.5q.1-1.9 .4,4.7q.8,16.2 3,13.7" fill="none" stroke="#ffffff" stroke-width="1.4"></path><path d="M-68.9,462.6q-2.3,7.9 .6,7.9q1.7,0 1.1-5.9q-.3-3 -1.7-2q1.4,2.8 4.4,5.4" fill="none" stroke="#ffffff" stroke-width="1.4"></path><path d="M-60.9,462.9q1.4,6.6 2,8.3q.9-3.7 1.2-10.4" fill="none" stroke="#ffffff" stroke-width="1.4"></path><path d="M-47.9,451.7q1.6,11.5 3,20.9q.2-.8 .3-2.4" fill="none" stroke="#ffffff" stroke-width="1.4"></path><path d="M-40.7,461.5q-4.1,3.7 -2.5,8.5q.7,2.2 5.1-.9" fill="none" stroke="#ffffff" stroke-width="1.4"></path><path d="M-33.1,453.5q1.4,18 2.9,17.4" fill="none" stroke="#ffffff" stroke-width="1.4"></path><path d="M-36.7,466.9q6.8-2.5 7.2-2.2" fill="none" stroke="#ffffff" stroke-width="1.4"></path><path d="M-22.2,465.8q6.2-3.9 3.2-4q-2.2-.1 -2.2,6q-.1,3.5 6.8,2.9q1.5-.7 2.7-1.6" fill="none" stroke="#ffffff" stroke-width="1.4"></path><path d="M-10.3,465.1q.6,2.6 1.1,4.7" fill="none" stroke="#ffffff" stroke-width="1.4"></path><path d="M-11,457.5q.1,.1 0,.1q-.1,0 -.1-.1q0-.1 .1-.1q.1,0 .1,.1" fill="none" stroke="#ffffff" stroke-width="1.4"></path><path d="M-3.8,461.1Q-2.2,471.8 -2,469.8Q-1.6,465.3 -.1,467.2Q1.3,469.6 2.4,471.6" fill="none" stroke="#ffffff" stroke-width="1.4"></path><path d="M7.8,452.4Q7.7,462.4 7.8,470.5" fill="none" stroke="#ffffff" stroke-width="1.4"></path><path d="M6.4,463.7Q11.1,467.6 11.1,467.6" fill="none" stroke="#ffffff" stroke-width="1.4"></path><path d="M17.6,464q1.1,3.9 2.2,7.1q-.6-2.6 -1.9-7.4" fill="none" stroke="#ffffff" stroke-width="1.4"></path><path d="M27,467.3q-.5,2.3 .3,3.2" fill="none" stroke="#ffffff" stroke-width="1.4"></path><path d="M25.5,455.3q.1,.1 0,.1q-.1,0 -.1-.1q0-.1 .1-.1q.1,0 .1,.1" fill="none" stroke="#ffffff" stroke-width="1.4"></path><path d="M35.6,454.6q1,9.6 1.9,17.4" fill="none" stroke="#ffffff" stroke-width="1.4"></path><path d="M31.3,466.9q2.4-1.2 4.3-2.2" fill="none" stroke="#ffffff" stroke-width="1.4"></path><path d="M41.1,454.3q.4,10.8 2.9,17.3" fill="none" stroke="#ffffff" stroke-width="1.4"></path><path d="M41.1,469.4q.8-.2 1.4-.3" fill="none" stroke="#ffffff" stroke-width="1.4"></path><path d="M51.2,462.9q-3.3-.1 -1.3,3.1q2.2,3.1 3.9,5.6q-2.3,.7 -5.9,.4" fill="none" stroke="#ffffff" stroke-width="1.4"></path><path d="M59.5,452.4q3.6,31.6 1.1,19q-1.5-7.2 5.8-5.7q3.9,.8 .4,5.8q-1.3,1.9 -4.8-.6" fill="none" stroke="#ffffff" stroke-width="1.4"></path><path d="M72.5,464.4q-3.1,5.8 -.3,6.7q4.1,1.2 4.1-5.6q.4,1.5 .9,4.3" fill="none" stroke="#ffffff" stroke-width="1.4"></path><path d="M81.2,463.3q3.7,8.7 3.5,8.5q-1.3-2.3 -2-4.5" fill="none" stroke="#ffffff" stroke-width="1.4"></path><path d="M87.7,464.7q1.3,3.9 2.4,7.1q-.5-2.2 -1.7-6.3" fill="none" stroke="#ffffff" stroke-width="1.4"></path><path d="M97.1,469.4q.4,2.2 .8,2.2" fill="none" stroke="#ffffff" stroke-width="1.4"></path><path d="M96.4,458.6q0,.4 0,.7" fill="none" stroke="#ffffff" stroke-width="1.4"></path><path d="M105.4,465.5q1-1 1.8-1.8q.1,1.6 -.6,4.2q-1,3.7 4.2,3.4q.7-.7 1.2-1.5" fill="none" stroke="#ffffff" stroke-width="1.4"></path><path d="M116.3,463.3q1.4,4.7 2.5,8.5q0-2.4 -.5-6.8q.5-1.2 1.2-2.1" fill="none" stroke="#ffffff" stroke-width="1.4"></path><path d="M127.9,465.1q.9-2 -.2-1.3q-3.3,2.2 -.3,6.3q1.8,.1 3.4-.3" fill="none" stroke="#ffffff" stroke-width="1.4"></path><path d="M135.1,462.9q.2,11.4 .6,6.7q.9-9.3 5.1-3.4q2.2,2.8 4.1,5.1" fill="none" stroke="#ffffff" stroke-width="1.4"></path></svg>