<svg viewBox="-154.95 27.05 575.2 429.5" width="575.2" height="429.5" version="1.1" baseProfile="full" xmlns="http://www.w3.org/2000/svg" class="js-draw--autoresize"><style id="js-draw-style-sheet">path{stroke-linecap:round;stroke-linejoin:round;}text{white-space:pre;}</style><g class="js-draw-image-background js-draw-image-background-grid js-draw-image-background-grid-25"><path d="M420.25,456.55l0-429.5l-575.2-1.0658141036401503e-14l0,429.5l575.2,0" fill="#03035e"></path><path d="M-155.3,50l575.9,0m-575.9,25l575.9,0m-575.9,25l575.9,0m-575.9,25l575.9,0m-575.9,25l575.9,0m-575.9,25l575.9,0m-575.9,25l575.9,0m-575.9,25l575.9,0m-575.9,25l575.9,0m-575.9,25l575.9,0m-575.9,25l575.9,0m-575.9,25l575.9,0m-575.9,25l575.9,0m-575.9,25l575.9,0m-575.9,25l575.9,0m-575.9,25l575.9,0m-575.9,25l575.9,0m-570.6-423.3l0,430.2m25-430.2l0,430.2m25-430.2l0,430.2m25-430.2l0,430.2m25-430.2l0,430.2m25-430.2l0,430.2m25-430.2l0,430.2m25-430.2l0,430.2m25-430.2l0,430.2m25-430.2l0,430.2m25-430.2l0,430.2m25-430.2l0,430.2m25-430.2l0,430.2m25-430.2l0,430.2m25-430.2l0,430.2m25-430.2l0,430.2m25-430.2l0,430.2m25-430.2l0,430.2m25-430.2l0,430.2m25-430.2l0,430.2m25-430.2l0,430.2m25-430.2l0,430.2m25-430.2l0,430.2" fill="none" stroke="#fcfca133" stroke-width=".7"></path></g><path d="M-138.8,33.3q.1-.3 .1-.5q-.4,3.1 -1.6,8.6q.1,1.4 .4,2.5" fill="none" stroke="#f0f0f0" stroke-width=".7"></path><path d="M-142.4,30.2q3.7,.3 6.7,.6" fill="none" stroke="#f0f0f0" stroke-width=".7"></path><path d="M-125.1,35.5q-4.9,.1 -3,1.9q4.8,4.2 5.2,5.3q.6,1.6 -7.5,.9" fill="none" stroke="#f0f0f0" stroke-width=".7"></path><path d="M-140.7,35.8q1.8-.3 3.3-.6" fill="none" stroke="#f0f0f0" stroke-width=".7"></path><path d="M-98.4,36.6q-5.9,4 -3.8,7.3q.5,.8 4.4,1.9" fill="none" stroke="#f0f0f0" stroke-width=".7"></path><path d="M-91.9,42.7q-1.1-2.8 2-1.7q4.2,1.7 1.6,4.3q-2.4-.1 -4.5-.9" fill="none" stroke="#f0f0f0" stroke-width=".7"></path><path d="M-76.1,38.6q-5.1,.7 -4.9,2.8q2,3.1 4.2,5.4q2.1,2.1 -6.5,2.9" fill="none" stroke="#f0f0f0" stroke-width=".7"></path><path d="M-153.8,28.5q1.3-1.1 1.9,0q.6,8.9 -.2,16.5" fill="none" stroke="#f0f0f0" stroke-width=".7"></path><path d="M-114,29.1q0,10.1 0,18.4" fill="none" stroke="#f0f0f0" stroke-width=".7"></path><path d="M-55.4,29.9q-5.7,3.5 -3.7,19.8" fill="none" stroke="#f0f0f0" stroke-width=".7"></path><path d="M-41.8,30.8q-9.8,12.2 -2.9,18.4q3.1,2.9 6.5-6.3q1.4-4 -1-9.4q-.2-.3 -1.8,.6" fill="none" stroke="#f0f0f0" stroke-width=".7"></path><path d="M-46,40q6.2-.8 11.2-1.4" fill="none" stroke="#f0f0f0" stroke-width=".7"></path><path d="M-27.9,33.3q4.4,9 1,16q-2.1,4.5 -2.9,.7" fill="none" stroke="#f0f0f0" stroke-width=".7"></path><path d="M-7.8,35.8Q.3,36.2 .3,36.3" fill="none" stroke="#f0f0f0" stroke-width=".7"></path><path d="M-7,40Q1.1,39.7 1.4,40.5" fill="none" stroke="#f0f0f0" stroke-width=".7"></path><path d="M22,36.3q1.1,9.7 1,7.9q-.7-7.2 4.6-3.7q.8,1.7 1.1,3.3q.7-.8 1.5-2.6q.7-1.5 6.3,2.1" fill="none" stroke="#f0f0f0" stroke-width=".7"></path><path d="M43.8,41.4q.1-.2 .5-.9" fill="none" stroke="#f0f0f0" stroke-width=".7"></path><path d="M60.2,38q-7.1,5 -4,5.7q1.5,.4 4.7-3.5q1.1,3.2 1.1,8.5q.1,11.2 -9,3" fill="none" stroke="#f0f0f0" stroke-width=".7"></path><path d="M-8.9,86.2Q-.3,85.9 -.8,86.2" fill="none" stroke="#f0f0f0" stroke-width=".7"></path><path d="M-8.9,91.2Q-4.5,90.4 -.8,90.1" fill="none" stroke="#f0f0f0" stroke-width=".7"></path><path d="M28.7,86.2q-.3,6.1 .1,7.9q.8-1.5 1.5-4.4q.5-1.8 2,1.1q.1,1.2 0,2.1q1-.3 2.4-1.4q3.7-2.8 9.6,3.4" fill="none" stroke="#f0f0f0" stroke-width=".7"></path><path d="M-154.1,85.1q.4-1.2 .6-1q1.3,7.2 .6,14" fill="none" stroke="#f0f0f0" stroke-width=".7"></path><path d="M-144.9,86.5q-.6,9.3 .8,10" fill="none" stroke="#f0f0f0" stroke-width=".7"></path><path d="M-147.1,86.8q4.6-.6 8.3-1.1" fill="none" stroke="#f0f0f0" stroke-width=".7"></path><path d="M-144.9,90.7q2.1,.4 3.9,.8" fill="none" stroke="#f0f0f0" stroke-width=".7"></path><path d="M-133.2,89.3q-5.1,.2 -3.8,2.7q1.9,2 3.8,3.5q1.8,1.5 -1.5,2.4q-1.9,.6 -2.9-2.8" fill="none" stroke="#f0f0f0" stroke-width=".7"></path><path d="M-128.7,85.4q1.2,6.7 2.2,12.2" fill="none" stroke="#f0f0f0" stroke-width=".7"></path><path d="M-103.1,89.6q.5-2.1 -1.2-1q-3.8,2.2 -2.8,5.7q.3,1 5.1,.8" fill="none" stroke="#f0f0f0" stroke-width=".7"></path><path d="M-98.6,94.3q-1-3.8 2.9-4.5q4.2-.7 2.8,4.5q-.5,2.2 -4.7,1q-.3-.1 1.5-1.3" fill="none" stroke="#f0f0f0" stroke-width=".7"></path><path d="M-84.1,87.9q-4,1.4 -3,4.6q1.6,3.6 3.1,6.5q.9,1.8 -3,3.2q-1.6-.1 -3-.4" fill="none" stroke="#f0f0f0" stroke-width=".7"></path><path d="M-65.8,80.9q-3.9,3.4 -4.8,10.1q-1.4,9.7 4.4,7.3q1-.8 1.8-1.5" fill="none" stroke="#f0f0f0" stroke-width=".7"></path><path d="M-55.4,85.4q-4.3,4.6 -4.4,8.4q0,3 4.4,3q4,0 1.8-8.8q-.5-2 -2.4-2.6" fill="none" stroke="#f0f0f0" stroke-width=".7"></path><path d="M-61.6,91.2q4.9-.4 8.9-.5" fill="none" stroke="#f0f0f0" stroke-width=".7"></path><path d="M-41.2,81.8q4.9,13.5 1.1,16.4" fill="none" stroke="#f0f0f0" stroke-width=".7"></path><path d="M-154.6,103.2q31.1,2.5 73.8,1.2q16.8-.5 26.8,.8" fill="none" stroke="#f0f0f0" stroke-width=".7"></path><path d="M-93.1,116.9q-1.3-.8 -2.3,2.4q-.6,1.7 1.5,1.7q2.1-1.6 3.5-3.5q.8-1.1 3.8,5.7q2.4,5.3 -5.1,5.1q-1.9-.5 -3.3-1.1" fill="none" stroke="#f0f0f0" stroke-width=".7"></path><path d="M167.5,31.9q.4,4.8 -.3,14" fill="none" stroke="#f0f0f0" stroke-width=".7"></path><path d="M167.5,31.3q1.7-1.4 7.8-.8" fill="none" stroke="#f0f0f0" stroke-width=".7"></path><path d="M168.3,36.1q1.4,.6 2.5,1.1" fill="none" stroke="#f0f0f0" stroke-width=".7"></path><path d="M183.6,37.4q-3.5-.1 -2,1.8q6.7,8.6 -.4,9.1q-2.8-.5 -5.1-1.1" fill="none" stroke="#f0f0f0" stroke-width=".7"></path><path d="M159.1,31.6q-1,15.7 1.1,16.7" fill="none" stroke="#f0f0f0" stroke-width=".7"></path><path d="M202.3,29.9q1.3,.6 1.3,3.7q.3,11.8 -.7,10.3" fill="none" stroke="#f0f0f0" stroke-width=".7"></path><path d="M229.3,38.8q-4.5-3.5 -5.1,0q1.9,4.6 4.6,8.2q1.5,2.1 -2,1.7q-3.1-.4 -2.2-2.6" fill="none" stroke="#f0f0f0" stroke-width=".7"></path><path d="M235.8,43q-.2,2.1 -.3,3.9" fill="none" stroke="#f0f0f0" stroke-width=".7"></path><path d="M235.2,35.2q0-.2 0-.3" fill="none" stroke="#f0f0f0" stroke-width=".7"></path><path d="M242.4,37.7q1.2,8.1 1.4,7.6q2.2-5.1 7-.8q.7,1.4 1.1,2.7" fill="none" stroke="#f0f0f0" stroke-width=".7"></path><path d="M273.6,30.8q-5.2,6.7 -4.8,14.3q.1,2.8 2.8,3.8q.6-.6 .9-1.4" fill="none" stroke="#f0f0f0" stroke-width=".7"></path><path d="M282.8,31.6q-4,8.7 -1.4,14.1q1.5,3.1 6.2-.8q4.5-3.7 -1.1-7.9q-2,0 -3.7,.4" fill="none" stroke="#f0f0f0" stroke-width=".7"></path><path d="M280.9,38.8q2.6,.2 4.7,.3" fill="none" stroke="#f0f0f0" stroke-width=".7"></path><path d="M295.4,32.2q4.2,9.5 3.1,14.2q-.5,2.5 -2.8,2.2" fill="none" stroke="#f0f0f0" stroke-width=".7"></path><path d="M316,31.6q4.5,0 8.1,0" fill="none" stroke="#f0f0f0" stroke-width=".7"></path><path d="M317.1,37.4q2,.2 3.6,.3" fill="none" stroke="#f0f0f0" stroke-width=".7"></path><path d="M363.1,34.1q4.2,14.9 2.5,13.2q-1.9-1.8 1-7.4q1.7-3.2 4.7,4.7q.6-1.1 1.2-3.2q2.7,1.4 5.6,4.7" fill="none" stroke="#f0f0f0" stroke-width=".7"></path><path d="M386.5,40.8q.3,.2 .6,.3" fill="none" stroke="#f0f0f0" stroke-width=".7"></path><path d="M407.7,39.4q.2-.9 -1.2,0q-3.1,2.1 -1.7,5.7q1.1,2.8 4.5-1.7q.3-1.6 .3-3q1.5,1 3.4,3.2" fill="none" stroke="#f0f0f0" stroke-width=".7"></path><path d="M416.6,43.3q2.2,4 2.5,5" fill="none" stroke="#f0f0f0" stroke-width=".7"></path><path d="M419.9,42.5q-2,3 -3.6,5.5" fill="none" stroke="#f0f0f0" stroke-width=".7"></path><path d="M158.8,81.2q-.4,24.6 .3,17" fill="none" stroke="#f0f0f0" stroke-width=".7"></path><path d="M169.7,85.7q.5,5.3 1.1,9.7" fill="none" stroke="#f0f0f0" stroke-width=".7"></path><path d="M167.2,83.7q8.5-.7 8.6-.6" fill="none" stroke="#f0f0f0" stroke-width=".7"></path><path d="M171.7,89.8q.2,0 1.1,0" fill="none" stroke="#f0f0f0" stroke-width=".7"></path><path d="M185,87.6q-6.1-.8 -3.4,1.6q4.4,3.8 4.6,5q.5,2.9 -4.3,.4q-.4-.2 -.5-2" fill="none" stroke="#f0f0f0" stroke-width=".7"></path><path d="M195.1,82.9q.3,6.6 .5,12" fill="none" stroke="#f0f0f0" stroke-width=".7"></path><path d="M226,86.2q-3.4-1.8 -1.9,3.4q1.7,3.6 3.3,6.4q1.6,2.7 -5.2,1.6" fill="none" stroke="#f0f0f0" stroke-width=".7"></path><path d="M233.2,93.5q0,1.5 0,2.7" fill="none" stroke="#f0f0f0" stroke-width=".7"></path><path d="M233.8,83.7q0-.2 0-.3" fill="none" stroke="#f0f0f0" stroke-width=".7"></path><path d="M239.4,89.3q.3,4.9 1.4,3.6q4-5.2 7.5,4.2" fill="none" stroke="#f0f0f0" stroke-width=".7"></path><path d="M271.1,79.5q-4.7,11.7 -3,16.2q.8,2.2 3,.3" fill="none" stroke="#f0f0f0" stroke-width=".7"></path><path d="M283.1,82.6q-4,4 -3.6,10.2q.5,5.9 7.2,1q3.6-2.6 1.2-8.8q-1.2-3.1 -2.3-.2" fill="none" stroke="#f0f0f0" stroke-width=".7"></path><path d="M280.6,89q5.5,.3 10,.6" fill="none" stroke="#f0f0f0" stroke-width=".7"></path><path d="M294.8,82.6q5.9,4.2 7.3,9.3q.9,3.5 -3.1,4.9" fill="none" stroke="#f0f0f0" stroke-width=".7"></path><path d="M313.2,83.7q1.8-1.1 11.4-1.1" fill="none" stroke="#f0f0f0" stroke-width=".7"></path><path d="M317.4,86.2q9.6-1.3 8.4-.3" fill="none" stroke="#f0f0f0" stroke-width=".7"></path><path d="M360.6,83.4q.9,7.7 1.5,6.7q2.8-5.1 3.8-2.9q.6,1.5 1.1,2.7q2.1-.7 4.2-2.4q4.6,1.3 8.6,4.3" fill="none" stroke="#f0f0f0" stroke-width=".7"></path><path d="M151.3,104.9q5.7-.3 27-.1q51,.3 92.7,.4q16.9,0 16.9,0" fill="none" stroke="#f0f0f0" stroke-width=".7"></path><path d="M195.1,116.3q.3-.3 .6-.6q-1,1.4 -2.9,3.9q-.8,1 1,1.4q2.2,.4 2.9-4.4q-.1-.2 -.2-.3q1.8,1.4 5,3.9" fill="none" stroke="#f0f0f0" stroke-width=".7"></path><path d="M203.7,119.7q3.7,2 6.7,3.6" fill="none" stroke="#f0f0f0" stroke-width=".7"></path><path d="M210.7,119.1q-4,2.4 -7.3,4.5" fill="none" stroke="#f0f0f0" stroke-width=".7"></path><path d="M-148.4,184.4q.1,8.3 0,14.1" fill="none" stroke="#f0f0f0" stroke-width=".7"></path><path d="M-139,186.3q.1,9.5 .6,9.1" fill="none" stroke="#f0f0f0" stroke-width=".7"></path><path d="M-140.5,186q7.7-1.1 7.2-.7" fill="none" stroke="#f0f0f0" stroke-width=".7"></path><path d="M-137.4,189.4q2.3,.6 4.4,.6" fill="none" stroke="#f0f0f0" stroke-width=".7"></path><path d="M-125.8,189.4q-4.4,.2 -3.1,1.1q5.9,4 1.6,5.8q-1.6,.6 -2.6-2.8" fill="none" stroke="#f0f0f0" stroke-width=".7"></path><path d="M-119.5,184.1q3,12 2.8,12.5" fill="none" stroke="#f0f0f0" stroke-width=".7"></path><path d="M-95.7,189.7q3.6-3 2.3-3.2q-2.1-.3 -3.9,5.7q-1,3.6 8.2,3.2" fill="none" stroke="#f0f0f0" stroke-width=".8"></path><path d="M-88.5,193.5q-.8-2.3 2.5-2.5q4.8-.2 4.1,3.7q-.3,1.3 -4.2,1.5q-.5,0 -.8-2.1" fill="none" stroke="#f0f0f0" stroke-width=".7"></path><path d="M-72.8,189.7q-4.7,.4 -2.8,2.6q7.2,8.2 -2.2,7.1" fill="none" stroke="#f0f0f0" stroke-width=".7"></path><path d="M-58.7,185q-6,13.9 .6,14.1" fill="none" stroke="#f0f0f0" stroke-width=".8"></path><path d="M-47.1,187.8q-3.2,2.5 -3.2,5.1q0,5.1 5.5,2.9q2.8-1.2 .5-6.3q-1-2.2 -2.5-.1" fill="none" stroke="#f0f0f0" stroke-width=".8"></path><path d="M-50.8,192.2q7.6-.7 8.4,0" fill="none" stroke="#f0f0f0" stroke-width=".7"></path><path d="M-37,186.3q5.2,6.2 3.7,10.8q-.2,.6 -2.8,1.7" fill="none" stroke="#f0f0f0" stroke-width=".7"></path><path d="M-153.4,202.3q21,4.6 56.7,4.8q24.8,.3 45.2,.5" fill="none" stroke="#f0f0f0" stroke-width=".7"></path><path d="M-89.4,216.7q-3.1,2.3 -1.6,4.3q1.8-.9 3.3-2.7q1-1 5.2,6.1q3.2,5.4 -5.5,5.7q-2.2-.5 -3.9-1.2" fill="none" stroke="#f0f0f0" stroke-width=".7"></path><path d="M-9.1,189.1Q2.8,186.9 2.5,187.5" fill="none" stroke="#f0f0f0" stroke-width=".7"></path><path d="M-9.1,191.9Q-1,191 -1.9,191.6" fill="none" stroke="#f0f0f0" stroke-width=".7"></path><path d="M38.6,184.1q.2,4.6 .6,8.4" fill="none" stroke="#f0f0f0" stroke-width=".7"></path><path d="M37.9,184.1q4.2-1 7.6-1.9" fill="none" stroke="#f0f0f0" stroke-width=".7"></path><path d="M39.5,189.1q1.7-.5 3.1-.9" fill="none" stroke="#f0f0f0" stroke-width=".7"></path><path d="M52.4,185.6q.1-1 -.9-.4q1.1,3.8 4.1,7.6q1.6,2 -3.7,1.7q-.6,0 -3-1" fill="none" stroke="#f0f0f0" stroke-width=".7"></path><path d="M27.3,183.4q0,7.6 .3,13.8" fill="none" stroke="#f0f0f0" stroke-width=".7"></path><path d="M63.7,183.8q.2,12.2 0,12.2" fill="none" stroke="#f0f0f0" stroke-width=".7"></path><path d="M100,188.5q0-5.9 -3.8-2.7q-1.4,1.3 5.3,7.3q4.4,3.9 .3,5.2q-1.3,.4 -3.3-3.2" fill="none" stroke="#f0f0f0" stroke-width=".7"></path><path d="M109.1,192.5q-.2,1.9 -.3,3.5" fill="none" stroke="#f0f0f0" stroke-width=".7"></path><path d="M108.2,184.7q.2,.2 .3,.3" fill="none" stroke="#f0f0f0" stroke-width=".7"></path><path d="M115.4,190q.3,7.9 .5,7.5q1.9-3.9 2.5-3.9q.7-.1 4.2,5.8" fill="none" stroke="#f0f0f0" stroke-width=".7"></path><path d="M143.6,181.9q-8.6,11.7 -2,17.7q.5-.5 .8-1.4" fill="none" stroke="#f0f0f0" stroke-width=".8"></path><path d="M156.5,184.7q-4.1,2.7 -3.7,8.2q.3,3.4 5.3,3.5q3.2,0 2.5-7.8q-.5-4.5 -3.8-2.6" fill="none" stroke="#f0f0f0" stroke-width=".8"></path><path d="M151.8,190.7q4.7,.1 8.5,.3" fill="none" stroke="#f0f0f0" stroke-width=".7"></path><path d="M167.8,184.1q3.6,6.4 3,11.3q-1,1.8 -2.1,3.1" fill="none" stroke="#f0f0f0" stroke-width=".7"></path><path d="M22.6,203.2q52.6,3.9 113.5,4.6q15.2,.7 27.6,1.4" fill="none" stroke="#f0f0f0" stroke-width=".7"></path><path d="M71.8,217q1.3-2.2 -.1-1.7q-5.8,1.9 -.8,4.9q2.5,1.4 2.9-1.7q-.1-.1 -.2-.2q1.2,.4 3.5,1.2" fill="none" stroke="#f0f0f0" stroke-width=".7"></path><path d="M82.2,218.3q2.9,3.4 6.5,6.2" fill="none" stroke="#f0f0f0" stroke-width=".7"></path><path d="M88.1,217.6q-6.6,3.9 -11.9,7.3" fill="none" stroke="#f0f0f0" stroke-width=".7"></path><path d="M-8.2,258.1Q-3.7,257.9 0,257.8" fill="none" stroke="#f0f0f0" stroke-width=".7"></path><path d="M-7.5,262.2Q0,260 1.2,260.9" fill="none" stroke="#f0f0f0" stroke-width=".7"></path><path d="M-147.1,260q-.8,6.3 .9,13.5" fill="none" stroke="#f0f0f0" stroke-width=".7"></path><path d="M-149,260.9q9.8-3 8.5-1.9" fill="none" stroke="#f0f0f0" stroke-width=".7"></path><path d="M-149,267.8q7.4-.9 7.5-1.2" fill="none" stroke="#f0f0f0" stroke-width=".7"></path><path d="M-131.1,264.4q-3.7-2.4 -2.7,1.1q1.7,2.8 3.4,5q-2.2,1.5 -5.8,2.3" fill="none" stroke="#f0f0f0" stroke-width=".7"></path><path d="M-105.4,264.1q-2.2-1.7 -1.9,1.3q1.9,3.4 4.2,5.9q1.4,1.6 -2.2,2q-.8-.8 -1.4-1.7" fill="none" stroke="#f0f0f0" stroke-width=".7"></path><path d="M-97.9,268.5q-.1,1.4 0,1.8" fill="none" stroke="#f0f0f0" stroke-width=".7"></path><path d="M-99.1,261.2q.3,.2 .6,.4" fill="none" stroke="#f0f0f0" stroke-width=".7"></path><path d="M-91.3,265q1.4,4.8 1.7,4.2q2-3.1 7.1,4.9" fill="none" stroke="#f0f0f0" stroke-width=".7"></path><path d="M-62.1,257.2q-3.2,2.6 -3.7,8.4q.8,4.4 1.8,7.9" fill="none" stroke="#f0f0f0" stroke-width=".7"></path><path d="M-53.7,259.7q-3.4,7.1 -.4,11.8q3,4.7 7.2-2q1.3-2 -.8-5.5q-.3-.5 -2.5-.3" fill="none" stroke="#f0f0f0" stroke-width=".7"></path><path d="M-56.2,266.3q6.8-.8 7.2-.4" fill="none" stroke="#f0f0f0" stroke-width=".7"></path><path d="M-43.3,258.7q4.2,5 4.9,10.5q.1,1 -1.1,4.9" fill="none" stroke="#f0f0f0" stroke-width=".7"></path><path d="M-150.6,278.8q9-.2 28.5,1q9.3,.6 58.6-.4q23.2-.4 25.8,2.5" fill="none" stroke="#f0f0f0" stroke-width=".7"></path><path d="M-141.8,288.2q2.4,8.8 1.3,8.8" fill="none" stroke="#f0f0f0" stroke-width=".7"></path><path d="M-142.4,286q3.6-1 6.6-1.5" fill="none" stroke="#f0f0f0" stroke-width=".7"></path><path d="M-140.9,291.7q1,0 1.9,0" fill="none" stroke="#f0f0f0" stroke-width=".7"></path><path d="M-131.1,290.4q-2.4,.5 .3,1.9q9.4,4.7 4.2,8.8q-.7,.5 -4.2-.7" fill="none" stroke="#f0f0f0" stroke-width=".7"></path><path d="M-93.5,287.3q-.5,.2 -.9,.3" fill="none" stroke="#f0f0f0" stroke-width=".7"></path><path d="M-59.9,285.7q.4-.7 -.1-.7q-4.2,.2 -3.9,10.7q.1,.8 2.4,3.2" fill="none" stroke="#f0f0f0" stroke-width=".7"></path><path d="M-48.3,287q-5.6,3 -4.9,8.4q.8,5.2 6.4,1q2.6-1.9 -.6-5" fill="none" stroke="#f0f0f0" stroke-width=".7"></path><path d="M-52.7,293.9q6.6,.5 6.3,.3" fill="none" stroke="#f0f0f0" stroke-width=".7"></path><path d="M-40.8,290.7q5.2,7.7 .9,11" fill="none" stroke="#f0f0f0" stroke-width=".7"></path><path d="M-91,288.2q-6.6,4.6 -4.8,7.3q2,.6 3.9,.6" fill="none" stroke="#f0f0f0" stroke-width=".7"></path><path d="M-88.5,293.9q-.1-3.7 3.2-2.6q3.3,1.2 -.3,4.1q-1.7,.4 -3.2,.3" fill="none" stroke="#f0f0f0" stroke-width=".7"></path><path d="M-81,289.5q-3,1.1 2.7,4.4q4.6,2.7 3.1,6.2q-.4,1 -4.8,2.2" fill="none" stroke="#f0f0f0" stroke-width=".7"></path><path d="M72.4,261.9q-9.5,6.7 -2.9,6.3q1.3-2 1.8-4.3q.1-.4 5.2,3.6" fill="none" stroke="#f0f0f0" stroke-width=".7"></path><path d="M80.9,265.6q2.9,1.4 5.3,2.5" fill="none" stroke="#f0f0f0" stroke-width=".7"></path><path d="M89.4,262.2q-5.2,4.3 -9.4,7.8" fill="none" stroke="#f0f0f0" stroke-width=".7"></path><path d="M56.8,276.3q15.5-2.2 33.5-.3" fill="none" stroke="#f0f0f0" stroke-width=".7"></path><path d="M75.3,285.4q-.4-2.2 -1.2-.8q-1.6,2.8 2.3,4.3q2.3,.9 2-2.9q1.1,1.7 2.7,5.1q2,4.6 -4.4,5.6q-1,.2 -4.9-1.6" fill="none" stroke="#f0f0f0" stroke-width=".9"></path><path d="M-108.6,350.3q1.3,11.8 2.6,21.4" fill="none" stroke="#f0f0f0" stroke-width=".7"></path><path d="M-112,366.3q1.9-.3 3.4-.6" fill="none" stroke="#f0f0f0" stroke-width=".7"></path><path d="M-95.4,364.1q-4.4,4.6 -3.1,8.5q.7,2.2 2-.4q.3-2.5 .1-4.8q2.5,.9 5.7,3.3" fill="none" stroke="#f0f0f0" stroke-width=".8"></path><path d="M-89.1,365.7q.7,7.9 .8,7.5q2.4-7.2 8.3-.3" fill="none" stroke="#f0f0f0" stroke-width=".7"></path><path d="M-55.2,355.7q-.7-1.3 -3.4,4.8q-4.1,9.1 1.9,15.7q.6,.6 3.7-2" fill="none" stroke="#f0f0f0" stroke-width=".8"></path><path d="M-27.3,355q6,7.1 6.9,12.8q.7,3.8 -2.2,6.4" fill="none" stroke="#f0f0f0" stroke-width=".7"></path><path d="M-.6,356.9Q11.4,356.2 12.2,356.9" fill="none" stroke="#f0f0f0" stroke-width=".7"></path><path d="M-.6,362.9Q11.6,361.8 11.3,362.2" fill="none" stroke="#f0f0f0" stroke-width=".7"></path><path d="M73.4,361q-9.7,6.2 -4.1,9.7q2.9,1.7 4.2-4.5q-.2-1.4 -.5-2.6q1.5,1 3.8,3.3" fill="none" stroke="#f0f0f0" stroke-width=".7"></path><path d="M82.8,367.3q3.6,2.3 6.6,4" fill="none" stroke="#f0f0f0" stroke-width=".7"></path><path d="M90.9,365.4q-4.8,4.8 -8.7,8.8" fill="none" stroke="#f0f0f0" stroke-width=".7"></path><path d="M66.8,376.4q4.7,.2 8.8,.1q7.8-.1 14.1-.1" fill="none" stroke="#f0f0f0" stroke-width=".7"></path><path d="M80.9,386.1q-8.2,3.8 -2.1,5.8q2.7,.8 2.8-2.1q1.1,2.5 2.3,7.4q1.1,4.7 -8.6,3.3" fill="none" stroke="#f0f0f0" stroke-width=".8"></path><path d="M78.5,442.3q-8.6,3.5 -5.7,5.1q1.8,1 5.3-3.3q1.4-1.7 -1.3-2.2q-2.3-.3 .6,2.9q2.1,2 3.9,3.7" fill="none" stroke="#f0f0f0" stroke-width=".8"></path><path d="M83.8,444.8q5,4 6.3,5.9" fill="none" stroke="#f0f0f0" stroke-width=".7"></path><path d="M90.4,444.5q-7.6,7.9 -8.4,8.1" fill="none" stroke="#f0f0f0" stroke-width=".7"></path><path d="M12,435.7q4,.2 7.2,.3" fill="none" stroke="#f0f0f0" stroke-width=".7"></path><path d="M12.3,440.4q5,.3 9.1,.6" fill="none" stroke="#f0f0f0" stroke-width=".7"></path><path d="M-120,432.5q1.1,7.4 1.8,13.5" fill="none" stroke="#f0f0f0" stroke-width=".7"></path><path d="M-123.2,443.2q2.6,.2 4.7,.3" fill="none" stroke="#f0f0f0" stroke-width=".7"></path><path d="M-110,441q-7,3 -4.1,4.4q3.8,1.9 4.4-2.7q-.3-.3 -.8-.5q.5,1 1.7,2.3" fill="none" stroke="#f0f0f0" stroke-width=".7"></path><path d="M-106.2,442.6q-1.1,2.4 -.8,2.1q3-4.3 7.7,4.1" fill="none" stroke="#f0f0f0" stroke-width=".7"></path><path d="M-81.1,432.2q-7.2,4.1 -8.1,14q-.3,2.9 1.6,4.4" fill="none" stroke="#f0f0f0" stroke-width=".8"></path><path d="M-73,434.1q-3.8,6 -2.1,11.6q1.8,5.9 7.3,1.3q3.6-3.1 -.7-9.3q-.3-.5 -2.9-.5" fill="none" stroke="#f0f0f0" stroke-width=".8"></path><path d="M-74.9,441.6q8.5,.1 8.5,.3" fill="none" stroke="#f0f0f0" stroke-width=".7"></path><path d="M-63.3,435q4.4,4.8 4.1,9.6q-1.6,3.1 -3.4,5.5" fill="none" stroke="#f0f0f0" stroke-width=".7"></path><path d="M-27.5,440.7q-3.6,3.5 -1.6,4.3q1.8-.7 3.2-2q1.4-1.2 3,5.8q1.8,7.4 -6.4,7.4q-1.8-.7 -3.2-1.7" fill="none" stroke="#f0f0f0" stroke-width=".7"></path><path d="M-46,438.8q0,.2 0,.9" fill="none" stroke="#f0f0f0" stroke-width=".7"></path><path d="M-40.1,357.3q-5.5,8.2 -.8,13.4q3.4,3.7 8.1-5.8q1.9-4 -4.7-6.5q-.8-.3 -2.2,.4" fill="none" stroke="#f0f0f0" stroke-width=".7"></path><path d="M-43.8,365.7q11.2,.8 9.1-.9" fill="none" stroke="#f0f0f0" stroke-width=".7"></path></svg>