<svg viewBox="-291.65 -306.3 1082 1353.9" width="1082" height="1353.9" version="1.1" baseProfile="full" xmlns="http://www.w3.org/2000/svg" class="js-draw--autoresize"><style id="js-draw-style-sheet">path{stroke-linecap:round;stroke-linejoin:round;}text{white-space:pre;}</style><g class="js-draw-image-background js-draw-image-background-grid js-draw-image-background-grid-25"><path d="M790.35,1047.6l0-1353.9l-1082-5.684341886080802e-14l0,1353.9l1082,0" fill="#03035e"></path><path d="M-292,-300l1082.7,0m-1082.7,25l1082.7,0m-1082.7,25l1082.7,0m-1082.7,25l1082.7,0m-1082.7,25l1082.7,0m-1082.7,25l1082.7,0m-1082.7,25l1082.7,0m-1082.7,25l1082.7,0m-1082.7,25l1082.7,0m-1082.7,25l1082.7,0m-1082.7,25l1082.7,0m-1082.7,25l1082.7,0m-1082.7,25l1082.7,0m-1082.7,25l1082.7,0m-1082.7,25l1082.7,0m-1082.7,25l1082.7,0m-1082.7,25l1082.7,0m-1082.7,25l1082.7,0m-1082.7,25l1082.7,0m-1082.7,25l1082.7,0m-1082.7,25l1082.7,0m-1082.7,25l1082.7,0m-1082.7,25l1082.7,0m-1082.7,25l1082.7,0m-1082.7,25l1082.7,0m-1082.7,25l1082.7,0m-1082.7,25l1082.7,0m-1082.7,25l1082.7,0m-1082.7,25l1082.7,0m-1082.7,25l1082.7,0m-1082.7,25l1082.7,0m-1082.7,25l1082.7,0m-1082.7,25l1082.7,0m-1082.7,25l1082.7,0m-1082.7,25l1082.7,0m-1082.7,25l1082.7,0m-1082.7,25l1082.7,0m-1082.7,25l1082.7,0m-1082.7,25l1082.7,0m-1082.7,25l1082.7,0m-1082.7,25l1082.7,0m-1082.7,25l1082.7,0m-1082.7,25l1082.7,0m-1082.7,25l1082.7,0m-1082.7,25l1082.7,0m-1082.7,25l1082.7,0m-1082.7,25l1082.7,0m-1082.7,25l1082.7,0m-1082.7,25l1082.7,0m-1082.7,25l1082.7,0m-1082.7,25l1082.7,0m-1082.7,25l1082.7,0m-1082.7,25l1082.7,0m-1082.7,25l1082.7,0m-1065.7-1331.65l0,1354.6m25-1354.6l0,1354.6m25-1354.6l0,1354.6m25-1354.6l0,1354.6m25-1354.6l0,1354.6m25-1354.6l0,1354.6m25-1354.6l0,1354.6m25-1354.6l0,1354.6m25-1354.6l0,1354.6m25-1354.6l0,1354.6m25-1354.6l0,1354.6m25-1354.6l0,1354.6m25-1354.6l0,1354.6m25-1354.6l0,1354.6m25-1354.6l0,1354.6m25-1354.6l0,1354.6m25-1354.6l0,1354.6m25-1354.6l0,1354.6m25-1354.6l0,1354.6m25-1354.6l0,1354.6m25-1354.6l0,1354.6m25-1354.6l0,1354.6m25-1354.6l0,1354.6m25-1354.6l0,1354.6m25-1354.6l0,1354.6m25-1354.6l0,1354.6m25-1354.6l0,1354.6m25-1354.6l0,1354.6m25-1354.6l0,1354.6m25-1354.6l0,1354.6m25-1354.6l0,1354.6m25-1354.6l0,1354.6m25-1354.6l0,1354.6m25-1354.6l0,1354.6m25-1354.6l0,1354.6m25-1354.6l0,1354.6m25-1354.6l0,1354.6m25-1354.6l0,1354.6m25-1354.6l0,1354.6m25-1354.6l0,1354.6m25-1354.6l0,1354.6m25-1354.6l0,1354.6m25-1354.6l0,1354.6" fill="none" stroke="#fcfca133" stroke-width=".7"></path></g><path d="M-263,137l2-2l344,0l0-168l-344,0l0,168l-2,2l0-172l348,0l0,172l-348,0" fill="#ffffff"></path><path d="M-107.1,-16.9l2.4-1q-11.5-27.6 -19.3-37.9l-2,1.6q7.5,9.9 18.9,37.3 M-96,-47.7l-2.6,0q-.4,13.2 -4.8,26.8q-2.4,1.3 -3.1,2.2q-.1,.2 -.2,.2l2,.6l-2.4,1q2.3,.2 2.7-.3q.3-.4 3-2.3q5-14.6 5.4-28.2 M-95.3,-51.9l2-1.7q-4.3-3.7 -5.3,5.9l2.6,0q-.5-7.2 .7-4.2 M-88.8,-52.4l-2.5-.5q.2,3.1 -2-.7l-2,1.7q4.8,4.6 6.5-.5 M-120.8,-56.9l0,2.5q30.8-.9 29.5,1.5l2.5,.5q.1-5.2 -32-4.5 M-130.3,-55.3l.6,2.6q7.2-1.6 8.9-1.7l0-2.5q-2.1,0 -9.5,1.6" fill="#d918d2"></path><path d="M-156,-32q17.4,28.4 35,35.6q22.2,9.2 54.2-17q6.7-6.7 11.8-12.6" fill="none" stroke="#ffffff" stroke-width="2.6"></path><path d="M-133,-13q7.9-10.7 15-19" fill="none" stroke="#ffffff" stroke-width="2.6"></path><path d="M-126,2q19.2-31.4 22-30" fill="none" stroke="#ffffff" stroke-width="2.6"></path><path d="M-108,0q9.8-12.1 18-22" fill="none" stroke="#ffffff" stroke-width="2.6"></path><path d="M-84,-11q9.4-9.3 17-17" fill="none" stroke="#ffffff" stroke-width="2.6"></path><path d="M186,-19q-.2,10.4 -1,19" fill="none" stroke="#ffffff" stroke-width="2.6"></path><path d="M184,-14q9.6-4.7 12.5-.5q6.3,9 -.7,17.5q-5.1-.6 -9.8-3" fill="none" stroke="#ffffff" stroke-width="2.6"></path><path d="M202,-5Q202.2,-1.7 202,1" fill="none" stroke="#ffffff" stroke-width="2.6"></path><path d="M202,-18q1.1,0 2,0" fill="none" stroke="#ffffff" stroke-width="2.6"></path><path d="M214,-1q2.9-12.2 .4-9.2q-7,8.2 3.3,11" fill="none" stroke="#ffffff" stroke-width="2.6"></path><path d="M252,-1q5.1-25.7 5.7-16.6q1,13.8 1.9,14q3.6-5.5 5-12.8q1.3,1.4 2.7,4.3q.8,6.5 .7,12.1" fill="none" stroke="#ffffff" stroke-width="2.6"></path><path d="M271,-5q3.8-10.3 .4-8.3q-4.6,2.7 2.9,13.5" fill="none" stroke="#ffffff" stroke-width="2.6"></path><path d="M287,-13q-4.3,2 -3.2,6.1q2.3,8.6 -3,8.6q-3.5,.1 -3.1-2.9" fill="none" stroke="#ffffff" stroke-width="2.6"></path><path d="M291,-13q-.2,7.3 -.1,13.2q-1.4-1 -3.2-3.4" fill="none" stroke="#ffffff" stroke-width="2.6"></path><path d="M303,-12q-6.6,15 .2,10.9q2.8-5.3 4.1-10.6q1.4,3.4 2.7,9.7" fill="none" stroke="#ffffff" stroke-width="2.6"></path><path d="M317,-11q-.2,9.1 -2.4,9.3q-4,.5 3.7-7.7q3.3-3.6 6.7,9.6" fill="none" stroke="#ffffff" stroke-width="2.6"></path><path d="M334,-11q-7,7.9 -3.7,8.3q3.2-1.7 5.7-3.8q2.1-1.9 4.6,8.6q2.7,11.5 -10.6,4.9" fill="none" stroke="#ffffff" stroke-width="2.6"></path><path d="M386,-13q-2.6-2.5 -5.7,4.9q-3.8,9.2 3.3,7.9q5-.8 9.1-19.4q-.1,0 -.2,.1q-.2,9.1 3.5,18.5" fill="none" stroke="#ffffff" stroke-width="2.6"></path><path d="M402,-10q2.8-3.7 1.4-2.8q-7.9,5 -.7,10.8q2,1.6 11.3-3" fill="none" stroke="#ffffff" stroke-width="2.6"></path><path d="M415,-11q.4,5.7 .8,10.3q.6-1.6 1.2-4.4q4.3-4.2 9-6.9" fill="none" stroke="#ffffff" stroke-width="2.6"></path><path d="M461.5,-22.1q.2,11.6 .4,21.1" fill="none" stroke="#ffffff" stroke-width="1.5"></path><path d="M470.3,-24.8q-1.2,22.9 -.4,22.7" fill="none" stroke="#ffffff" stroke-width="1.5"></path><path d="M461.5,-9.8q5.4-1.1 10-1.5" fill="none" stroke="#ffffff" stroke-width="1.5"></path><path d="M481.5,-10.6q-8.6,6.6 -2.3,9.4q2.8,1.2 3.6-8.8q1.9,1.4 4.1,4.4" fill="none" stroke="#ffffff" stroke-width="1.5"></path><path d="M475.3,-14.4q5.1,.4 9.3,.7" fill="none" stroke="#ffffff" stroke-width="1.5"></path><path d="M489.6,-13.3q4.9,17.4 3.7,14.7q-2.8-6.4 1.3-13.1" fill="none" stroke="#ffffff" stroke-width="1.5"></path><path d="M504.2,-20.6q.8,19 .4,19.6" fill="none" stroke="#ffffff" stroke-width="1.5"></path><path d="M502.3,-5.2q2.1-2.4 8-6q-.7,1.7 -2.6,4.3q-1.3,2 9.2,4.8" fill="none" stroke="#ffffff" stroke-width="1.5"></path><path d="M546.7,-20.6q2.1,10.9 3.8,19.9q.8-.1 1.7-.6" fill="none" stroke="#ffffff" stroke-width="2.1"></path><path d="M560.4,-11.8q-5.2,6.9 -.9,9.9q3.3-1.7 5.9-4.9" fill="none" stroke="#ffffff" stroke-width="2.1"></path><path d="M557.1,-16.2q8.9,.1 11,1.1" fill="none" stroke="#ffffff" stroke-width="2.1"></path><path d="M576.4,-12.9q-.9,2.4 1.2,8.7q1.2,3.7 -1.2,3.9q-1.1,.1 -1.7-4.9" fill="none" stroke="#ffffff" stroke-width="2.1"></path><path d="M587.4,-10.7q-6.5,.3 -3.9,5q2.4,3.7 4.4,6.7q.2,.3 -1.9-.7q-1.5-.7 -6.9-4.9" fill="none" stroke="#ffffff" stroke-width="2.1"></path><path d="M593.5,-20q-2.7,8.8 -2.8,20.3" fill="none" stroke="#ffffff" stroke-width="2.1"></path><path d="M587.9,-7.9Q593.7,-8.2 598.4,-8.5" fill="none" stroke="#ffffff" stroke-width="2.1"></path><path d="M613.3,-11.8q1,11.8 2.6,8.6q4.7-9.9 6.2-5.3q2,6.7 1.1,6.1" fill="none" stroke="#ffffff" stroke-width="2.1"></path><path d="M628.1,-10.1q.5,5.4 6.1,6" fill="none" stroke="#ffffff" stroke-width="2.1"></path><path d="M634.2,-7.4Q635.1,-5.3 635.8,-3.5" fill="none" stroke="#ffffff" stroke-width="2.1"></path><path d="M640.2,-6.8Q641.4,-2.6 642,-3.4Q642.6,-4.1 641.9,-7.9" fill="none" stroke="#ffffff" stroke-width="2.1"></path><path d="M668.3,-20.6q4.3,10.5 2.7,17.1" fill="none" stroke="#ffffff" stroke-width="2.1"></path><path d="M672.1,-15.1q9.1-1.9 5.4,1.2q-8.4,7 2.9,14.2" fill="none" stroke="#ffffff" stroke-width="2.1"></path><path d="M685.9,-6.8Q687.3,-1.3 692.1,-3.8Q692.7,-4.1 693.6,-6.8" fill="none" stroke="#ffffff" stroke-width="2.1"></path><path d="M684.8,-11.8q6.9-.4 12.6-.5" fill="none" stroke="#ffffff" stroke-width="2.1"></path><path d="M701.8,-11.2q-5.8,4.9 -1.5,8.4q3.1,.6 5.9,.4" fill="none" stroke="#ffffff" stroke-width="2.1"></path><path d="M714.5,-18.9q-1.5,8 -.7,15.5" fill="none" stroke="#ffffff" stroke-width="2.1"></path><path d="M722.2,-12.3q-7.6,3.7 -6.9,7.7q2.2,2 4.7,3.3" fill="none" stroke="#ffffff" stroke-width="2.1"></path><path d="M736.5,-13.4q-5.4,.3 -4.3,3q3.8,10.2 -3.1,7.8q-.6-.2 -1.9-2.6" fill="none" stroke="#ffffff" stroke-width="2.1"></path><path d="M743.1,-10.1q-5.5,1.9 -2.3,6.1q.5,.7 4,.5" fill="none" stroke="#ffffff" stroke-width="2.1"></path><path d="M749.7,-22.2q-4.5,24.5 -3.1,21.9q5.3-10 9.6-4.2q0,1.4 -.4,2.6" fill="none" stroke="#ffffff" stroke-width="2.1"></path><path d="M760.2,-18.4q-1,13 1.6,17.6" fill="none" stroke="#ffffff" stroke-width="2.1"></path><path d="M767.9,-11.2q-.2,13.5 2.2,7.8q.4-2.8 .5-5.1" fill="none" stroke="#ffffff" stroke-width="2.1"></path><path d="M781.6,-12.3q-4.4,.2 -2.5,4.4q3.8,7.9 -1.1,7.4q-1.3-1.7 -1.9-3.6" fill="none" stroke="#ffffff" stroke-width="2.1"></path><path d="M789.3,-12.3q-3,.1 -3.4,3.7q0,4.6 .3,8.4q-1.3,1.6 -2.9,2.7" fill="none" stroke="#ffffff" stroke-width="2.1"></path><path d="M190.1,37.7q2.8,9.5 9.2,9.8q6,.2 4.1-10q1.9,.6 4.4,2.4" fill="none" stroke="#ffffff" stroke-width="2.1"></path><path d="M190.1,32.8q5-2.7 5-.6" fill="none" stroke="#ffffff" stroke-width="2.1"></path><path d="M200.1,31.7q-.3,.3 -.6,.5" fill="none" stroke="#ffffff" stroke-width="2.1"></path><path d="M222.1,31.7q1,16.8 1.6,16.2q6.4-6.4 8.4-6.3q5.1,.4 -1,6q-2.1,.3 -4.1,0" fill="none" stroke="#ffffff" stroke-width="2.1"></path><path d="M236.9,41.6q2.9-1.6 2.1-.8q-6.4,6.8 6.2,6.8" fill="none" stroke="#ffffff" stroke-width="2.1"></path><path d="M247.4,39.4q3.4,15.5 4.5,8.7q1.4-7.9 5.9-9.8" fill="none" stroke="#ffffff" stroke-width="2.1"></path><path d="M306.8,37.7q-6.5,11.1 -1.9,10.6q4-.4 3.3-16.2q-.3-6.3 -1.8-4.1q-.8,1.2 -7.1,24.6" fill="none" stroke="#ffffff" stroke-width="2.1"></path><path d="M318.3,42.7q.1,.5 .6,2.7" fill="none" stroke="#ffffff" stroke-width="2.1"></path><path d="M317.8,31.1q-.3,.6 -.6,1.1" fill="none" stroke="#ffffff" stroke-width="2.1"></path><path d="M323.3,44.3q5.6-4.4 4-3.7q-7.4,3.3 -.8,6.9q4.5,.4 8.4,.1" fill="none" stroke="#ffffff" stroke-width="2.1"></path><path d="M351.4,45.4q5.2-10.5 13.2-11.6q6.1-.9 3,9.6q-1.5,5.3 -9.3,4.4q-.7-1.1 -.9-2.4" fill="none" stroke="#ffffff" stroke-width="2.1"></path><path d="M377.2,31.7q-3.6,20.9 -.2,14.1q2.3-4.4 4,.2q1,2.4 -5.4,1.1" fill="none" stroke="#ffffff" stroke-width="2.1"></path><path d="M389.9,42.1q-11.2,.8 -4.3,6.1q1.2,.9 7.6,0" fill="none" stroke="#ffffff" stroke-width="2.1"></path><path d="M395.9,48.7q.9-3.6 1.7-6.6" fill="none" stroke="#ffffff" stroke-width="2.1"></path><path d="M414.6,33.3q-4,5 -4.5,15.5q-.2,1.5 -.4,2.7" fill="none" stroke="#ffffff" stroke-width="2.1"></path><path d="M405.8,48.2q2.4,0 4.4,0" fill="none" stroke="#ffffff" stroke-width="2.1"></path><path d="M424,32.8q-.2,8.7 0,15.9" fill="none" stroke="#ffffff" stroke-width="2.1"></path><path d="M431.7,41.6q-7,8.3 -1.5,7.2q3.3-1.7 5.9-3.4" fill="none" stroke="#ffffff" stroke-width="2.1"></path><path d="M428.9,38.3q11.2-4.3 10.5-.6" fill="none" stroke="#ffffff" stroke-width="2.1"></path><path d="M452,39.4q-9.5,7.2 -5.3,10.3q5.2-.3 9.7-2.1" fill="none" stroke="#ffffff" stroke-width="2.1"></path><path d="M458.6,32.8q-1.8,17.4 -.3,16.6q10.2-5.8 13-1.2" fill="none" stroke="#ffffff" stroke-width="2.1"></path><path d="M480.1,42.7q-8.8,3.5 -5.3,6.4q4.5,.9 8.6,.7" fill="none" stroke="#ffffff" stroke-width="2.1"></path><path d="M515.3,39.9q5.3-3 5,2.8q-1,3.8 -2.2,6.8q3.7,0 8.8-1.9" fill="none" stroke="#ffffff" stroke-width="2.1"></path><path d="M535.7,38.8q-3,6.5 2.6,8q2.8-.7 5.1-1.9" fill="none" stroke="#ffffff" stroke-width="2.1"></path><path d="M543.9,40.5q.9,3 1.7,5.5" fill="none" stroke="#ffffff" stroke-width="2.1"></path><path d="M556,47.1q1.2-1.2 2.2-2.2" fill="none" stroke="#ffffff" stroke-width="2.1"></path><path d="M-121,47q11.6,3.5 27.6,20.4q12.1,12.8 9.4,13.6" fill="none" stroke="#ffffff" stroke-width="2.6"></path><path d="M-113,73q-5.6-3.5 -1.6-8.4q17.6-12.8 33.6-21.6" fill="none" stroke="#ffffff" stroke-width="2.6"></path><path d="M-222,-301q.9,13.8 2,25" fill="none" stroke="#ffffff" stroke-width="2.6"></path><path d="M-211,-300q2.2,9.9 4,18" fill="none" stroke="#ffffff" stroke-width="2.6"></path><path d="M-220,-286q1.4-.2 7-1" fill="none" stroke="#ffffff" stroke-width="2.6"></path><path d="M-194,-288q-5.6,4.9 -.1,8.8q6.9,4.7 6.2-6.9q0-1 1.9,2.1" fill="none" stroke="#ffffff" stroke-width="2.6"></path><path d="M-201,-296q3.8-2.2 7-4" fill="none" stroke="#ffffff" stroke-width="2.6"></path><path d="M-181,-290q1.1,2.2 2,4" fill="none" stroke="#ffffff" stroke-width="2.6"></path><path d="M-177,-282q-3.9-6.2 -3-8" fill="none" stroke="#ffffff" stroke-width="2.6"></path><path d="M-163,-305q-.2,10.1 3,21" fill="none" stroke="#ffffff" stroke-width="2.6"></path><path d="M-163,-288q7-1.3 12.7-2.7q-1.2,2.2 -4.1,5.2q2.8,1.2 7.4,1.5" fill="none" stroke="#ffffff" stroke-width="2.6"></path><path d="M-132,-288q.5,3.2 .8,5.9q1.3-1.3 2.8-4q2.4,.9 4.7,3.2q2.7-.6 5.2-2.3q3,1.1 5.5,3.2" fill="none" stroke="#ffffff" stroke-width="2.6"></path><path d="M-106,-288q-4.6,5.7 2.8,7.8" fill="none" stroke="#ffffff" stroke-width="2.6"></path><path d="M-95,-290q2,10.6 .1,10.9q-1.2,.2 -6.1-1.9" fill="none" stroke="#ffffff" stroke-width="2.6"></path><path d="M-81,-290q-11.5,3.2 -10.5,4.2q5.4,2.7 10.1,4.3q-4.1,1 -11.6,1.5" fill="none" stroke="#ffffff" stroke-width="2.6"></path><path d="M-73,-289q-.5,11 4.3,8.3q2.4-3.3 3.7-6.4q2,.9 4,3.1" fill="none" stroke="#ffffff" stroke-width="2.6"></path><path d="M-57,-288q1.5,11.9 1,11q-4.2-7 3.2-9.1q4.1,3.8 6.8,9.1" fill="none" stroke="#ffffff" stroke-width="2.6"></path><path d="M-37,-286q-3.3,11.2 -.3,7q1.5-2.6 2.7-4.8q1.7,5.5 2.2,15.4q.2,5.3 -6.1-1.2" fill="none" stroke="#ffffff" stroke-width="2.6"></path><path d="M-22,-286q-1.2,5.7 2.8,7.1" fill="none" stroke="#ffffff" stroke-width="2.6"></path><path d="M-9,-282q-1.8,5.6 -2.1,3.5q-.7-4.3 6.7-5.6q3.6,4.8 5.4,11.1" fill="none" stroke="#ffffff" stroke-width="2.6"></path><path d="M42,-300q2.4,2 4,13.3q1,6.9 2,10" fill="none" stroke="#ffffff" stroke-width="2.6"></path><path d="M52,-288q-1.7,5.5 2.8,9.1" fill="none" stroke="#ffffff" stroke-width="2.6"></path><path d="M67,-280q5-6.6 5,3.4q0,3.2 -5.2,1" fill="none" stroke="#ffffff" stroke-width="2.6"></path><path d="M64,-290q6-.9 7,0" fill="none" stroke="#ffffff" stroke-width="2.6"></path><path d="M79,-287q1.6,6.4 1.8,5.2q1.5-6.8 6.3-.5q.8,1 1.9,6.3" fill="none" stroke="#ffffff" stroke-width="2.6"></path><path d="M91,-286q.5,9.2 1.5,7.4q7.7-12.7 13.6-1" fill="none" stroke="#ffffff" stroke-width="2.6"></path><path d="M108,-284q.6-1.1 1-2" fill="none" stroke="#ffffff" stroke-width="2.6"></path><path d="M109,-286q-4.1,15.3 2,12" fill="none" stroke="#ffffff" stroke-width="2.6"></path><path d="M123,-285q-2,8.5 -2.8,8.7q-1.1,.3 .8-5.7" fill="none" stroke="#ffffff" stroke-width="2.6"></path><path d="M125,-286q5.5,6.6 10,12" fill="none" stroke="#ffffff" stroke-width="2.6"></path><path d="M165,-285q1.6-1.6 2.3,1.1q.3,1 .5,1.8q3.5-.5 7.4-2.8q3.1,.5 5.8,1.9" fill="none" stroke="#ffffff" stroke-width="2.6"></path><path d="M181,-284q5.1,5.8 4,8" fill="none" stroke="#ffffff" stroke-width="2.6"></path><path d="M185,-294q1.1,.5 2,1" fill="none" stroke="#ffffff" stroke-width="2.6"></path><path d="M197,-290q-6.7,9.1 .5,10.4" fill="none" stroke="#ffffff" stroke-width="2.6"></path><path d="M205,-295q-2.2,19.5 -1.7,18.5q6.4-12.2 10.7,2.5" fill="none" stroke="#ffffff" stroke-width="2.6"></path><path d="M227,-300q-2.7,11 -5,20" fill="none" stroke="#ffffff" stroke-width="2.6"></path><path d="M216,-290q12,3.6 15,2" fill="none" stroke="#ffffff" stroke-width="2.6"></path><path d="M270,-288q-.7,8.9 -1,9" fill="none" stroke="#ffffff" stroke-width="2.6"></path><path d="M270,-303q.6,.6 1,1" fill="none" stroke="#ffffff" stroke-width="2.6"></path><path d="M277,-287q0,5 1.7,3.2q4.7-4.8 10.1,1.6" fill="none" stroke="#ffffff" stroke-width="2.6"></path><path d="M293,-283q6.4-2.1 5.8-3.6q-1.4-3.4 -4.8,4.1q-2.7,6.3 10.1,3.6" fill="none" stroke="#ffffff" stroke-width="2.6"></path><path d="M308,-286q.5,3.9 1,7" fill="none" stroke="#ffffff" stroke-width="2.6"></path><path d="M307,-294q0-.5 0-1" fill="none" stroke="#ffffff" stroke-width="2.6"></path><path d="M319,-286q-.2,2.5 -.1,4.6q1.7-1.4 3.9-4.4q2.5,3.6 4.2,9.8" fill="none" stroke="#ffffff" stroke-width="2.6"></path><path d="M340,-287q-6.7,7.5 -2,8.2q2-2.3 3.1-5.3q.4-.8 1.9,4.1" fill="none" stroke="#ffffff" stroke-width="2.6"></path><path d="M350,-284q-3.8,9.7 -3.1,8.1q6.7-14.8 13.3-6.7q.7,.9 .8,5.6" fill="none" stroke="#ffffff" stroke-width="2.6"></path><path d="M377,-286q-4.5,9.6 -2.2,10.8q3.9-7.9 4.6-19.5q.4,5.9 .6,16.7" fill="none" stroke="#ffffff" stroke-width="2.6"></path><path d="M393,-286q-6.8,4.5 -1.3,7q5.8,2.7 19.1-8.6" fill="none" stroke="#ffffff" stroke-width="2.6"></path><path d="M-217,-234q.5,9.5 8.6,7.1q7.1-2.1 6.4-10.1q.2,1.9 .5,5.3q.1,1.2 4.5,3.7" fill="none" stroke="#ffffff" stroke-width="2.6"></path><path d="M-189,-236q3.1,9.7 4.1,6q3.4-11.6 10.7-.1q2.9-1.3 5.7-4.2q3,1.8 5.5,5.3" fill="none" stroke="#ffffff" stroke-width="2.6"></path><path d="M-148,-234q-4.7,7.5 -1.5,7q1.9-1.8 3.2-3.8q1.7-2.7 7.1,9.2q2.3,4.8 -3.8,6.4q-1.3,.3 -6-3.8" fill="none" stroke="#ffffff" stroke-width="2.6"></path><path d="M-133,-233q1-.6 1.3,2.2q3.1,1 6.7,.8" fill="none" stroke="#ffffff" stroke-width="2.6"></path><path d="M-118,-234q3.2,8.2 3.1,7.2q.7-4 1.9-7.2" fill="none" stroke="#ffffff" stroke-width="2.6"></path><path d="M-101,-232q-.4-.2 -1.2-.4q-2.7-.6 -1.1,3.4q4.1,1.7 8.3,2" fill="none" stroke="#ffffff" stroke-width="2.6"></path><path d="M-89,-233q-5.5,2.3 -2.8,4.4q3.6-.2 6.8-1.4" fill="none" stroke="#ffffff" stroke-width="2.6"></path><path d="M-78,-248q1.7,12.5 3.1,22.6q1.6-2.5 3.2-7.5q4.7,1.2 9.7,4.9" fill="none" stroke="#ffffff" stroke-width="2.6"></path><path d="M-57,-233q-.5,8.9 .2,7.3q3.5-8.6 14.3-2.5" fill="none" stroke="#ffffff" stroke-width="2.6"></path><path d="M-38,-233q-5.7,1.4 -4.3,5.1q1.6,1.7 3.3,2.9" fill="none" stroke="#ffffff" stroke-width="2.6"></path><path d="M-21,-247q-1.1,14.9 -3.5,19.4" fill="none" stroke="#ffffff" stroke-width="2.6"></path><path d="M-33,-230q8.2-1.2 15-2" fill="none" stroke="#ffffff" stroke-width="2.6"></path><path d="M23,-235q3.2,.9 4.7,4.7q2-.9 4-3.1q2.8,.6 5.3,2.3q3.2,.4 6,.1" fill="none" stroke="#ffffff" stroke-width="2.6"></path><path d="M52,-234q2.8-4.2 1-4q-4.8,.5 -4,7.6q.1,.8 4,.4" fill="none" stroke="#ffffff" stroke-width="2.6"></path><path d="M57,-232q1.2,5.4 1.6,4.1q2.9-10 3.4-8.1" fill="none" stroke="#ffffff" stroke-width="2.6"></path><path d="M74,-235q-5.7,8.5 -2,6.5q2.1-1.2 -1.3-18.8q.9,4.4 2.6,12.6q.3,1.8 6.7,6.7" fill="none" stroke="#ffffff" stroke-width="2.6"></path><path d="M86,-232q.6-1.6 .4-1q-2,9 11.1,.1" fill="none" stroke="#ffffff" stroke-width="2.6"></path><path d="M101,-236q-5.5,9.4 -4.6,8.4q9.4-10.5 15.7,0" fill="none" stroke="#ffffff" stroke-width="2.6"></path><path d="M123,-230q1.7,1.1 3,2" fill="none" stroke="#ffffff" stroke-width="2.6"></path><path d="M-178.6,241.7q5.9,78.4 10.9,142.6q1.1,13.1 -.3,21.9q-.2,.9 -2.6-3.4" fill="none" stroke="#ffffff" stroke-width="2.6"></path><path d="M-180.6,243.1q31.1-6.3 56.6-3.4" fill="none" stroke="#ffffff" stroke-width="2.6"></path><path d="M-119.3,237.7q-3.8,31.4 -1.1,102.8q1.9,48.7 1.4,52q-2.8,21.5 -5,27.6" fill="none" stroke="#ffffff" stroke-width="2.6"></path><path d="M-163.9,409.5q19-4 34.6-6.7" fill="none" stroke="#ffffff" stroke-width="2.6"></path><path d="M-151.3,238.4q1.6-31.1 2.7-56.6" fill="none" stroke="#ffffff" stroke-width="2.6"></path><path d="M-161.3,183.2q10.1-10.3 17.2-6.1q6.7,3.9 3.5,6.7" fill="none" stroke="#ffffff" stroke-width="2.6"></path><path d="M-122.7,182.5q1.2,9.1 2,16.6" fill="none" stroke="#ffffff" stroke-width="2.6"></path><path d="M-119.3,184.5q14.6-5.3 14.6-4.7" fill="none" stroke="#ffffff" stroke-width="2.6"></path><path d="M-117.3,189.2q1.5-.9 8.6-2.7" fill="none" stroke="#ffffff" stroke-width="2.6"></path><path d="M-146,419.4q-1.2-6.3 -1.1-4.8q2.2,52.4 -4.3,59.9" fill="none" stroke="#ffffff" stroke-width="2.6"></path><path d="M-160.6,459.4q4.7,15.3 15.5,17.5q7.2,1.4 5.8-3.5" fill="none" stroke="#ffffff" stroke-width="2.6"></path><path d="M-123.3,444.1q1,10.3 4.6,17.9" fill="none" stroke="#ffffff" stroke-width="2.6"></path><path d="M-122.7,443.4q7.3-2 13.3-3.3" fill="none" stroke="#ffffff" stroke-width="2.6"></path><path d="M-123.3,451.4q6.5-2.6 11.9-4.7" fill="none" stroke="#ffffff" stroke-width="2.6"></path><path d="M-178.6,250.4q51.6,2.4 63.2-2.5q1.2-.5 -4.6,4.5" fill="none" stroke="#ffffff" stroke-width="2.6"></path><path d="M-167.3,241.1q-.3,5.4 -1.1,9.9q-.1,.7 3.1-1.3" fill="none" stroke="#ffffff" stroke-width="2.6"></path><path d="M-149.3,239.1q-9.7,6.5 -8.6,12" fill="none" stroke="#ffffff" stroke-width="2.6"></path><path d="M-139.3,241.7q-2.4,6.6 -.7,9.4" fill="none" stroke="#ffffff" stroke-width="2.6"></path><path d="M-128,243.1q.4,4.7 .7,8.6" fill="none" stroke="#ffffff" stroke-width="2.6"></path><path d="M-111.4,246.4q8.6-4.3 16-7.3" fill="none" stroke="#ffffff" stroke-width="2.6"></path><path d="M-92.7,234.4q8.8-.5 9.6,2.3q-1.1,3.2 -3,5.7" fill="none" stroke="#ffffff" stroke-width="2.6"></path><path d="M-168,571q4.7-34.4 6-26.7q5.1,31 7.7,22.1q1.5-12.8 1.9-23.4" fill="none" stroke="#ffffff" stroke-width="2.6"></path><path d="M-148,566q3.7-10.5 2-9.1q-8.9,7.4 -.3,12.6q6.1-1.4 11.3-4.5" fill="none" stroke="#ffffff" stroke-width="2.6"></path><path d="M-134,558q-.5,16.4 .1,14.6q4.1-13 10.8-1" fill="none" stroke="#ffffff" stroke-width="2.6"></path><path d="M-122,562q-1.8,8.7 -1.7,11q.1,1.5 3.7-6" fill="none" stroke="#ffffff" stroke-width="2.6"></path><path d="M-116,562q13.6,17 8,12" fill="none" stroke="#ffffff" stroke-width="2.6"></path><path d="M-88,558q-12.5,5.3 -6.8,9.9q3.6,3 0,3q-1.7,0 -6.2-1.9" fill="none" stroke="#ffffff" stroke-width="2.6"></path><path d="M-83,568q-2.9-7.9 2.7-9.5q3.4-.9 1.6,6.8q-6,5.7 -12.6,9.3q-3.1,1.7 -1,9.7q1.1,.5 2.3,.7" fill="none" stroke="#ffffff" stroke-width="2.6"></path><path d="M-65,560q-13.5,12.1 -3.3,12.4q6.6,.2 6.4-10.4q1.7,2.7 3.9,8" fill="none" stroke="#ffffff" stroke-width="2.6"></path><path d="M-56,561q-1.3,12.1 -.3,10.2q5.7-11.1 13.2,.4" fill="none" stroke="#ffffff" stroke-width="2.6"></path><path d="M-42,562q-.5,9.9 0,9.1q2.7-4.7 10.3,.5" fill="none" stroke="#ffffff" stroke-width="2.6"></path><path d="M-21,561q4.9,18.8 9.7,9.7q.9-2.8 1.6-5.2q1.9,2.2 3.7,6.5" fill="none" stroke="#ffffff" stroke-width="2.6"></path><path d="M-2,563Q-3.1,572.7 -2.9,572.5Q4.9,561.5 10.3,573" fill="none" stroke="#ffffff" stroke-width="2.6"></path><path d="M18,562q-4.2,15.4 .6,9.4q2.1-2.4 8.1,8.8q2.8,5.2 -15.1,8.8" fill="none" stroke="#ffffff" stroke-width="2.6"></path><path d="M106,550q-13.2,7.3 -6.4,17.9q5.7,8.8 9-3.1q1.2-4.2 -6.3-5.2" fill="none" stroke="#ffffff" stroke-width="2.6"></path><path d="M125,556q7.1-.6 13-1" fill="none" stroke="#ffffff" stroke-width="2.6"></path><path d="M125,561q15.4-2.8 17-1" fill="none" stroke="#ffffff" stroke-width="2.6"></path><path d="M177,548q-.7,26.3 1,24" fill="none" stroke="#ffffff" stroke-width="2.6"></path><path d="M179,550q10.4-.3 19,0" fill="none" stroke="#ffffff" stroke-width="2.6"></path><path d="M180,560q7.1,0 13,0" fill="none" stroke="#ffffff" stroke-width="2.6"></path><path d="M158,581q55.2-3.9 56-3" fill="none" stroke="#ffffff" stroke-width="2.6"></path><path d="M180,596q-2.1-4.4 -8.8-.6q-8.6,4.8 14.2,18.7q2.3,1.4 -4.2,.7q-1.9-.1 -9.2-2.8" fill="none" stroke="#ffffff" stroke-width="2.6"></path><path d="M193,615q6.3-6 7.6-.4q.7,3 -3.7,5.4q-.9,.5 -2.9-4" fill="none" stroke="#ffffff" stroke-width="2.6"></path><path d="M-55,231q-.7-2.1 -2.6,.5q1.7,7.5 5.8,14q-3.6,.1 -9.2-1.5" fill="none" stroke="#ffffff" stroke-width="2.6"></path><path d="M-42,246q2-3.2 2.5,.5q.3,1.4 -2.5,3.5" fill="none" stroke="#ffffff" stroke-width="2.6"></path><path d="M287,547q.5-4.1 -5-2.3q-26.2,8.8 -25.9,9.9q.7,2.5 .2,24.3q-1.2,56.3 -.9,58.6q.4,4.1 11.1-3.2q1.1-.8 6.5-2.3" fill="none" stroke="#ffffff" stroke-width="2.6"></path><path d="M286,586q4.3-26.2 5.8-22.4q9.3,22.8 13.7,12q1.4-10.7 1.5-19.6" fill="none" stroke="#ffffff" stroke-width="2.6"></path><path d="M274,599q20.9-5.4 35.2-4.8" fill="none" stroke="#ffffff" stroke-width="2.6"></path><path d="M350,598q-2.2-.8 -7.7,7" fill="none" stroke="#ffffff" stroke-width="2.6"></path><path d="M378,597q10.9-29 13.2-27.2q.8,9.6 -1.4,18.8q-1.3,5.2 3.3,5.7q5.1-8.6 6.6-19.5q.8-5.5 3.7-2.3q2.3,10.4 2.2,19.8" fill="none" stroke="#ffffff" stroke-width="2.6"></path><path d="M418,576q0,9.9 0,18" fill="none" stroke="#ffffff" stroke-width="2.6"></path><path d="M418,575q15-.7 13.6,6.6q-.7,3.6 -10.6-.6" fill="none" stroke="#ffffff" stroke-width="2.6"></path><path d="M438,586q-7.8,2.8 -3,8.3q4-1.8 7.4-5.6q2.9,1 5.6,3.3" fill="none" stroke="#ffffff" stroke-width="2.6"></path><path d="M448,565q13.9-9.2 13.4-2.9q-4.8,60.9 6.3,76.7q-1.2-1.3 -3.4-3.8q-2.6-3 -24.7,1.3" fill="none" stroke="#ffffff" stroke-width="2.6"></path><path d="M267,614q-.4,12.3 .6,10.7q1.4-5.3 2-9.8q1,2 2.2,5.9q2.7-1.3 5.6-4.4q3.5-3.7 8.9,7.9" fill="none" stroke="#ffffff" stroke-width="2.6"></path><path d="M288,615q3.2,11.1 3.3,9.6q.2-9.4 4.2-6.9q1.4,3.5 1.7,6.9q3.1-2.7 6.6-8.4q4.3,2.6 8.2,7.8" fill="none" stroke="#ffffff" stroke-width="2.6"></path><path d="M312,606q5.7,0 4.1,4.4q2.4,2.3 5.9,3.6" fill="none" stroke="#ffffff" stroke-width="2.6"></path><path d="M-168.5,699.8q.5,20.8 2.1,22.6" fill="none" stroke="#ffffff" stroke-width="2"></path><path d="M-165.3,700.3q8.8,3.3 12.4,12.3q4.4,11 -5,9.3" fill="none" stroke="#ffffff" stroke-width="2"></path><path d="M-141.6,716.6q14.6-5 11.8-5.5q-6.4-1 -8.4,8.2q-1,4.8 12.9,3.1" fill="none" stroke="#ffffff" stroke-width="2"></path><path d="M-123.7,697.7q3.4,22.8 5.9,25q2.2-3.9 3.1-10q1.2-7.8 6.8,6" fill="none" stroke="#ffffff" stroke-width="2"></path><path d="M-101.6,710.8q2.2,6 3.9,10.9q1.4-2.1 2.5-5.9q1.7-5.7 8.7,1.2q1.3,2.1 2.3,3.9" fill="none" stroke="#ffffff" stroke-width="2"></path><path d="M-81,711.9q1.5,9.2 7.3,6.9q1.7-2.1 2.7-4.3" fill="none" stroke="#ffffff" stroke-width="2"></path><path d="M-71,713q2.6,4.6 4.8,8.4" fill="none" stroke="#ffffff" stroke-width="2"></path><path d="M-56.2,713q1.7,9.8 1.8,8.8q.7-8.9 2.8-7.5q1.3,.9 5.9,5" fill="none" stroke="#ffffff" stroke-width="2"></path><path d="M-35.7,709.8q-4.5,10.5 -.3,11.9q1.2-2.7 1.2-6.5q2.5,4.1 5.5,12q2.2,5.6 -14.3,7.4" fill="none" stroke="#ffffff" stroke-width="2"></path><path d="M34.9,701.4q-.4-1.8 -3.1,.2q-13,9.7 -1,12.1q2.5-1.5 4.4-3.4q-1.2,2.6 -4,7.1q-6.2,10.4 16.4,6.6" fill="none" stroke="#ffffff" stroke-width="2"></path><path d="M-18.8,704q.3,.3 1.6,1.6" fill="none" stroke="#ffffff" stroke-width="2"></path><path d="M-20.4,717.7q.5-.6 1-1.1" fill="none" stroke="#ffffff" stroke-width="2"></path><path d="M109.7,715.1q6.9-7.3 12.5-13.2q3.4,4.6 5.4,12.5q1.9,7.1 -9,4q-1.8-.9 -3.1-1.8" fill="none" stroke="#ffffff" stroke-width="2"></path><path d="M138.2,704q1.9,1.9 1.3,10.8q.1,4.5 .3,8.2" fill="none" stroke="#ffffff" stroke-width="2"></path><path d="M103.4,726.1q46.6-2.2 46.4,0" fill="none" stroke="#ffffff" stroke-width="2"></path><path d="M113.4,746.7q18.4-7.7 10.9-8.4q-5.5-.5 -6.9,11.9q-.8,6.4 9.2,3.3" fill="none" stroke="#ffffff" stroke-width="2"></path><path d="M134,751.9q3.2-6.1 5.8-2.6q1.6,2.3 -4.6,4.9q-.4,.2 -1.7-1.2" fill="none" stroke="#ffffff" stroke-width="2"></path><path d="M212.5,700.3q-2.8,.3 -13.7,5.1q-11.4,5 -7.9-.5q1.4,19.7 -3.5,53.8q-.4,2.9 7.6,.2q11.3-3.7 11.7-1.2" fill="none" stroke="#ffffff" stroke-width="2"></path><path d="M208.3,714.5q-1.2,12.1 -.8,10.5q3.9-14.9 8.3-4.6q.1,1.2 0,2.3q1.2-1.1 2.9-3.2q2.9,2.1 5.4,6.1" fill="none" stroke="#ffffff" stroke-width="2"></path><path d="M230.9,715.6q.1,8.5 .3,7.7q2-7.6 5-5.5q.5,2.3 .3,4.6q2.1-1.1 4.9-3.8q1.2-1.2 6.9,5.9" fill="none" stroke="#ffffff" stroke-width="2"></path><path d="M200.4,731.4q26.5-3.4 42.7-1.1" fill="none" stroke="#ffffff" stroke-width="2"></path><path d="M205.1,740.9q.4,4 .8,7.3q.3-1.9 .6-5.4q1.2,1 2.5,3.1q2.3-.8 4.5-2.8q2-1.8 5.3,7.3" fill="none" stroke="#ffffff" stroke-width="2"></path><path d="M226.7,741.9q3.8,5.5 3.9,5q.4-5 3.7-1.7q.7,1.3 1.1,2.5q1.7-.9 3.3-2.9q4.7,.8 9.1,3.5" fill="none" stroke="#ffffff" stroke-width="2"></path><path d="M278.4,727.7q-2.1,4.9 -3.7,9" fill="none" stroke="#ffffff" stroke-width="2"></path><path d="M292.1,724.5q13-2.2 23.7-3.6" fill="none" stroke="#ffffff" stroke-width="2"></path><path d="M326.9,709.3q9.5-5.1 9.7-1.2q1.7,19.3 3.1,35.1q.7,7.2 -9.2,3.7q-5.1,.3 -9.4,1.4" fill="none" stroke="#ffffff" stroke-width="2"></path><path d="M-194.7,226.9q1.7,16.2 1.6,18.8q-.2,3.6 -5.2-2q-.2-.6 -.3-1.2q1.9,1 4.4,3.4q3.2,3.2 9-10.1" fill="none" stroke="#ffffff" stroke-width="1.1"></path><path d="M-189.9,405.8q-1.7-15.9 -4.8-60.8q-3.1-46.5 1.5-72.1q2-11 -1.9-7.7q-2.7,3.7 -4.6,6.9q1.1-1.2 3.1-3.7q2-2.6 6.9-1.1" fill="none" stroke="#ffffff" stroke-width="1.1"></path><path d="M-193.8,255.3q-21.2-.5 -46.5,1.2q-3.2-.3 -5.9-.7" fill="none" stroke="#ffffff" stroke-width="1.1"></path><path d="M-291.1,255.3q3.2-9.3 6-8q3.1,4 4.9,8q1.2,1.6 2.4,2.7q-3.6,.4 -9.5-.7" fill="none" stroke="#ffffff" stroke-width="1.1"></path><path d="M-273.6,245.8q7.7,12 6.5,12" fill="none" stroke="#ffffff" stroke-width="1.1"></path><path d="M-218.6,328.3q.2-.9 .8,4.1q1.7,13.3 2.2,14.3" fill="none" stroke="#ffffff" stroke-width="1.1"></path><path d="M-196.9,405.5q4.8,7.2 8.4,6.7q1.7-.2 5.3-9.7" fill="none" stroke="#ffffff" stroke-width="1.1"></path><path d="M-198.3,414.5q11.9-1.1 21.7-2.3" fill="none" stroke="#ffffff" stroke-width="1.1"></path><path d="M-211.3,346.5q3.4,0 3.5,2.9q0,2.9 -3.2,2.8q-.9,0 -1.8-2.9" fill="none" stroke="#ffffff" stroke-width=".8"></path><path d="M-277.5,821.3q1.7,17.9 3,32.5" fill="none" stroke="#ffffff" stroke-width="2.6"></path><path d="M-263,822.6q-2.4,16.5 .7,29.1" fill="none" stroke="#ffffff" stroke-width="2.6"></path><path d="M-276.2,839.1q4.7-.4 8.6-.7" fill="none" stroke="#ffffff" stroke-width="2.6"></path><path d="M-253.7,843.7q-1.6-5.3 5.9-4.4q8.3,1 1.9,7.4q-5.5-.6 -10.5-3" fill="none" stroke="#ffffff" stroke-width="2.6"></path><path d="M-238.5,841.1q2.5-2.9 7.6-1.8q4.4,1 2.4,6.5q-.8,2.3 -12-.7" fill="none" stroke="#ffffff" stroke-width="2.6"></path><path d="M-220.7,824.6q2.1,23.7 2.7,23.1" fill="none" stroke="#ffffff" stroke-width="2.6"></path><path d="M-210.8,839.1q-4,2.1 -3.9,4.6q2.3,1.8 5.2,2.7" fill="none" stroke="#ffffff" stroke-width="2.6"></path><path d="M-201.5,841.1q-2.8-2.2 -3.5,3.3q4.1,1.9 9.4,2" fill="none" stroke="#ffffff" stroke-width="2.6"></path><path d="M-190.3,838.4q1.6,8.9 -.8,9.5q-2.5-.9 -4.5-2.2" fill="none" stroke="#ffffff" stroke-width="2.6"></path><path d="M-174.4,839.1q-6.9,2.5 -5.7,6.2q1,3.4 12.9-3.5" fill="none" stroke="#ffffff" stroke-width="2.6"></path><path d="M-165.9,824.6q0,26.7 2,23.4q5.7-9.4 15.9-1.6" fill="none" stroke="#ffffff" stroke-width="2.6"></path><path d="M-136.8,839.8q-7.9,2.7 -6,5q1,1.1 7.3,.9" fill="none" stroke="#ffffff" stroke-width="2.6"></path><path d="M-127.5,840.4q-3.9,.7 .8,5.3q5.3,5.2 1.1,6.4q-1.9,.5 -9.9-1.8" fill="none" stroke="#ffffff" stroke-width="2.6"></path><path d="M-66.1,825.2q-4.4-1.7 -9.1,2.8q-6.5,6.5 -3.1,18q2,6.6 7.5-7.3q.9-2.3 5,1.5q1.1,1 6.3,3.5" fill="none" stroke="#ffffff" stroke-width="2.6"></path><path d="M-54.2,841.1q-5.5-.6 -4.8,2.5q4.8,2.3 10.1,2.8" fill="none" stroke="#ffffff" stroke-width="2.6"></path><path d="M-37.7,835.8q-3.9-.9 -2.4,1.7q4.1,5.7 7.8,10.1q2.4,2.9 -6.3,1.9q-1.6-2.4 -2.4-5.1" fill="none" stroke="#ffffff" stroke-width="2.6"></path><path d="M-21.9,841.1q-7.3,.6 -1,5.2q7.6,0 14.3-1.9" fill="none" stroke="#ffffff" stroke-width="2.6"></path><path d="M1.9,821.9Q-1.8,843.8 .6,855.6" fill="none" stroke="#ffffff" stroke-width="2.6"></path><path d="M-8.6,843.7Q-3.2,842.8 1.3,842.4" fill="none" stroke="#ffffff" stroke-width="2.6"></path><path d="M4.6,842.4Q14.8,838.1 13.8,842.8Q12.5,849.1 12.6,849.2Q19.5,849.9 25.7,849" fill="none" stroke="#ffffff" stroke-width="2.6"></path><path d="M-250.4,882q-5.4,.3 -13.7,13.6q-10.9,17.4 -2.2,32.4q5.4,9.2 23.1-16.9q6.1-9 -17.8-2.6" fill="none" stroke="#ffffff" stroke-width="2.6"></path><path d="M-257.7,882.7q9.8-.5 17.9,0" fill="none" stroke="#ffffff" stroke-width="2.6"></path><path d="M-222.7,897.9q17,.5 17.2,1.3" fill="none" stroke="#ffffff" stroke-width="2.6"></path><path d="M-221.3,908.5q9.4,.3 17.1,.6" fill="none" stroke="#ffffff" stroke-width="2.6"></path><path d="M-173.8,891.3q.1-.5 .2-.9q1.4,12.3 .6,34.6" fill="none" stroke="#ffffff" stroke-width="2.6"></path><path d="M-173.8,893.9q39.1-13.9 24.5-3.3" fill="none" stroke="#ffffff" stroke-width="2.6"></path><path d="M-170.5,903.8q11.6-1.3 21.2-1.9" fill="none" stroke="#ffffff" stroke-width="2.6"></path><path d="M-173.8,919.7q13.1-1.5 23.8-2.6" fill="none" stroke="#ffffff" stroke-width="2.6"></path><path d="M-119.6,910.5q.5-.4 2.6-2" fill="none" stroke="#ffffff" stroke-width="2.6"></path><path d="M-79.3,899.2q-13.8-2.7 -12.1,4.4q4.2,.9 8.9,0q-2.4,2.4 -7.3,5.8q-4.9,3.2 1.7,7.5q5.8,.7 10.8,.2" fill="none" stroke="#ffffff" stroke-width="2.6"></path><path d="M7.9,895.9Q10.2,916.4 9.9,916.4" fill="none" stroke="#ffffff" stroke-width="2.6"></path><path d="M11.2,895.9q10.1-1.6 18.5-2.6" fill="none" stroke="#ffffff" stroke-width="2.6"></path><path d="M9.2,903.8Q28.2,898.8 27.7,900.5" fill="none" stroke="#ffffff" stroke-width="2.6"></path><path d="M8.5,916.4Q17.6,915.6 25,915.1" fill="none" stroke="#ffffff" stroke-width="2.6"></path><path d="M47.5,895.3q.4-.4 .7-.7" fill="none" stroke="#ffffff" stroke-width="2.6"></path><path d="M47.5,915.7q.3,.3 0,.3q-.3,0 -.3-.3q0-.3 .3-.3q.3,0 .3,.3" fill="none" stroke="#ffffff" stroke-width="2.6"></path><path d="M77.2,897.2q1.8,0 2,9.8q0,5.6 0,10.1" fill="none" stroke="#ffffff" stroke-width="2.6"></path><path d="M79.9,897.2q26.8-6.1 18.5-1.3" fill="none" stroke="#ffffff" stroke-width="2.6"></path><path d="M80.5,907.1q9.8-3 17.9-5.2" fill="none" stroke="#ffffff" stroke-width="2.6"></path><path d="M81.9,916.4q19.7,2 14.5,0" fill="none" stroke="#ffffff" stroke-width="2.6"></path><path d="M114.2,895.3q-3.3,13.3 -.6,24.4" fill="none" stroke="#ffffff" stroke-width="2.6"></path><path d="M121.5,910.5q-7.2,8.8 .3,7.6q.7-.1 1.4-4.8" fill="none" stroke="#ffffff" stroke-width="2.6"></path><path d="M138,911.1q-3.6-3.5 -3.7-.5q1,6.4 2.2,11.5q-2.5-.7 -5.8-3.1" fill="none" stroke="#ffffff" stroke-width="2.6"></path><path d="M152.5,894.6q-.7,14.7 -2.6,27.7" fill="none" stroke="#ffffff" stroke-width="2.6"></path><path d="M147.3,915.7q2.9-.3 5.2-.6" fill="none" stroke="#ffffff" stroke-width="2.6"></path><path d="M161.1,914.4q-.3,2.5 -.6,4.6" fill="none" stroke="#ffffff" stroke-width="2.6"></path><path d="M159.8,897.9q.7,0 1.3,0" fill="none" stroke="#ffffff" stroke-width="2.6"></path><path d="M168.4,908.5q1.9-5.1 4.2,.6q.2,6.1 -.3,11.2q4.7,.5 10.6-1.3" fill="none" stroke="#ffffff" stroke-width="2.6"></path><path d="M190.8,914.4q-.9,3.2 -1.3,6" fill="none" stroke="#ffffff" stroke-width="2.6"></path><path d="M189.5,898.6q0-.3 0-1.4" fill="none" stroke="#ffffff" stroke-width="2.6"></path><path d="M204.7,892.6q.3,16.7 .7,30.4" fill="none" stroke="#ffffff" stroke-width="2.6"></path><path d="M202.1,914.4q10.5-.5 9.9,1.3" fill="none" stroke="#ffffff" stroke-width="2.6"></path><path d="M224.5,913.8q-12.5,3 -7.4,7.8q5.3,.1 10.1-1.2" fill="none" stroke="#ffffff" stroke-width="2.6"></path><path d="M219.9,907.1q15-3.3 12.6,0" fill="none" stroke="#ffffff" stroke-width="2.6"></path><path d="M245.7,895.9q1.3,26.8 0,24.5" fill="none" stroke="#ffffff" stroke-width="2.6"></path><path d="M242.4,914.4q5.8-.7 10.5-1.3" fill="none" stroke="#ffffff" stroke-width="2.6"></path><path d="M-266,989q-.6-6.7 6-9.1q6.5-2.4 26.1,7.4" fill="none" stroke="#ffffff" stroke-width="2.6"></path><path d="M-248,984q-1.5,14.8 -2,27" fill="none" stroke="#ffffff" stroke-width="2.6"></path><path d="M-212,997q5.5-1.1 10-2" fill="none" stroke="#ffffff" stroke-width="2.6"></path><path d="M-210,1005q8.2-.6 15-1" fill="none" stroke="#ffffff" stroke-width="2.6"></path><path d="M-157,989q1.6-2.9 .6-2.9q-8-.2 -13.5,20.6q-3.5,13.7 13.3,9.9q9.4-2.1 4.8-10.5q-1.4,0 -2.8,.5q2.7,.9 7.6,1.4" fill="none" stroke="#ffffff" stroke-width="2.6"></path><path d="M-125,999q-1.7-1.6 -1.7-1.1q0,.7 6.2,16.7" fill="none" stroke="#ffffff" stroke-width="2.6"></path><path d="M-110,1001q-24.8,45.3 -24,45" fill="none" stroke="#ffffff" stroke-width="2.6"></path><path d="M-135,1007q.3,.3 0,.3q-.3,0 -.3-.3q0-.3 .3-.3q.3,0 .3,.3" fill="none" stroke="#ffffff" stroke-width="2.6"></path><path d="M23,993Q16.2,989.4 10.5,999.3Q4.1,1010.4 12,1024.7Q15.6,1031.1 21.2,1020.9Q22.8,1018.2 20.9,1018.8Q21.5,1019.9 23,1021" fill="none" stroke="#ffffff" stroke-width="2.6"></path><path d="M33,997q0,.4 0,2" fill="none" stroke="#ffffff" stroke-width="2.6"></path><path d="M37,1023q1.1-.5 2-1" fill="none" stroke="#ffffff" stroke-width="2.6"></path><path d="M105,994q-5.1-2.9 -9.8,3.2q-3.2,4.1 6.3,19.1q5.3,8.3 -10.4,6.5q-2.3-.9 -4.1-1.8" fill="none" stroke="#ffffff" stroke-width="2.6"></path><path d="M111,1011q-10.3,9.6 -2.7,11.1q5.5-2.6 9.7-6.1" fill="none" stroke="#ffffff" stroke-width="2.6"></path><path d="M121,992q4.8,32.5 5,31.7q1.9-9.1 11.5-5.1" fill="none" stroke="#ffffff" stroke-width="2.6"></path><path d="M143,1011q2.7,7.7 7.7,9.1q2.4-2 3.9-4.9q2.3,1.9 4.4,5.8" fill="none" stroke="#ffffff" stroke-width="2.6"></path><path d="M169,992q-5.7,32.9 1.2,26.6q5.2-4.8 6.9-.5q1.9,4.9 -9.6,4.5" fill="none" stroke="#ffffff" stroke-width="2.6"></path><path d="M188,1011q0,17.2 1.4,13.1q3.8-10.8 4.7-10.5q2.3,2.6 3.7,5.4q2.6-1.6 4.9-5q2.8-3.9 9.4,10" fill="none" stroke="#ffffff" stroke-width="2.6"></path><path d="M222,1020q1.8-8.7 6.8-7.1q6.1,1.9 -.3,7.4q-2.8,2.4 -8.4-5" fill="none" stroke="#ffffff" stroke-width="2.6"></path><path d="M237,1010q-5.5,10.6 1.8,12.9q7.4,2.5 4.6-33.6q2.2,12.5 5.4,36" fill="none" stroke="#ffffff" stroke-width="2.6"></path><path d="M253,1013q.8,9.5 7.7,5.3q1.6-2.9 2.5-5.7q1.6,1.8 3.2,5.3q2.2,0 4.6-.9" fill="none" stroke="#ffffff" stroke-width="2.6"></path><path d="M281,990q-1.2,19.8 -2,36" fill="none" stroke="#ffffff" stroke-width="2.6"></path><path d="M40,831q.6-.4 3-2" fill="none" stroke="#ffffff" stroke-width="2.6"></path><path d="M42,852q1.6,.5 3,1" fill="none" stroke="#ffffff" stroke-width="2.6"></path><path d="M107,825q-2.6-.9 -7.3,7.1q-6,10.1 .4,16.5" fill="none" stroke="#ffffff" stroke-width="2.6"></path><path d="M121,839q4.1-.9 7.5-1.7q-2.7,1.9 -7.9,4.5q-7,3.7 5.4,5.4q5.1-1.7 9-4.2" fill="none" stroke="#ffffff" stroke-width="2.6"></path><path d="M145,827q-6.5,21 -2,23" fill="none" stroke="#ffffff" stroke-width="2.6"></path><path d="M153,841q-4.1,6.2 .7,8.4q2.1-2.2 3.4-5.5q1.9,1.3 3.9,4.1" fill="none" stroke="#ffffff" stroke-width="2.6"></path><path d="M171,840q4.6,13 .8,12.4q-1.4-2.5 -1.8-5.4" fill="none" stroke="#ffffff" stroke-width="2.6"></path><path d="M189,828q1,19.5 -2.9,20.6" fill="none" stroke="#ffffff" stroke-width="2.6"></path><path d="M184,842q6,.3 11,1" fill="none" stroke="#ffffff" stroke-width="2.6"></path><path d="M207,840q.4,7.8 0,7" fill="none" stroke="#ffffff" stroke-width="2.6"></path><path d="M209,833q.4,.4 2,2" fill="none" stroke="#ffffff" stroke-width="2.6"></path><path d="M227,837q-4.2-.4 -1.9,2.9q5.1,7.7 -4.9,7.5q-.8,0 -3.2-2.4" fill="none" stroke="#ffffff" stroke-width="2.6"></path><path d="M234,839q-1.7,4.7 1.8,6.5q4.4,.6 8.2,.5" fill="none" stroke="#ffffff" stroke-width="2.6"></path><path d="M250,825q0,20 .5,18.4q.3-1 2.5-4.4" fill="none" stroke="#ffffff" stroke-width="2.6"></path><path d="M261,839q2.3,6.6 4,12" fill="none" stroke="#ffffff" stroke-width="2.6"></path><path d="M271,846q.3,.3 0,.3q-.3,0 -.3-.3q0-.3 .3-.3q.3,0 .3,.3" fill="none" stroke="#ffffff" stroke-width="2.6"></path><path d="M272,832q.2,.6 1,3" fill="none" stroke="#ffffff" stroke-width="2.6"></path><path d="M282,828q4.2,13.7 -1.9,23.3" fill="none" stroke="#ffffff" stroke-width="2.6"></path></svg>