<svg viewBox="452.2 10.2 128.6 257.6" width="128.6" height="257.6" version="1.1" baseProfile="full" xmlns="http://www.w3.org/2000/svg" class="js-draw--autoresize"><style id="js-draw-style-sheet">path{stroke-linecap:round;stroke-linejoin:round;}text{white-space:pre;}</style><g class="js-draw-image-background js-draw-image-background-grid js-draw-image-background-grid-25"><path d="M580.8,267.8l0-257.6l-128.6,1.0658141036401503e-14l0,257.6l128.6,0" fill="#03035e"></path><path d="M451.85,25L581.15,25M451.85,50L581.15,50M451.85,75L581.15,75M451.85,100L581.15,100M451.85,125L581.15,125M451.85,150L581.15,150M451.85,175L581.15,175M451.85,200L581.15,200M451.85,225L581.15,225M451.85,250L581.15,250M475,9.85L475,268.15M500,9.85L500,268.15M525,9.85L525,268.15M550,9.85L550,268.15M575,9.85L575,268.15" fill="none" stroke="#fcfca133" stroke-width=".7"></path></g><path d="M453,258q20.9,1 38,2" fill="none" stroke="#f0f0f0" stroke-width="1.6"></path><path d="M460,261q-3-1 -4-4q-3-9 -3-25" fill="none" stroke="#f0f0f0" stroke-width="1.6"></path><path d="M470,259q-4-24 -4-30" fill="none" stroke="#f0f0f0" stroke-width="1.6"></path><path d="M489,267q-1-9 -2-21q-.2-2.2 -1-11" fill="none" stroke="#f0f0f0" stroke-width="1.6"></path><path d="M466,221q-1-14 -1-17" fill="none" stroke="#f0f0f0" stroke-width="1.6"></path><path d="M478,224q1.1-2.7 2-5" fill="none" stroke="#f0f0f0" stroke-width="1.6"></path><path d="M462,182q3.9-4.5 13-2.9q10.3,1.9 12.9-2.6q.1-5.1 -.9-9.5" fill="none" stroke="#f0f0f0" stroke-width="1.6"></path><path d="M454,144q14,10.1 23.9,10.4q6.8-2.4 12.1-5.4" fill="none" stroke="#f0f0f0" stroke-width="1.6"></path><path d="M467,107q8.3,.9 15,2" fill="none" stroke="#f0f0f0" stroke-width="1.6"></path><path d="M473,109q1.6-2.8 3-5" fill="none" stroke="#f0f0f0" stroke-width="1.6"></path><path d="M464,87q-1.4-.2 -1.2-.3q15-9.3 15.2-12.6q0-.1 -12-6.1" fill="none" stroke="#f0f0f0" stroke-width="1.6"></path><path d="M467,138q-2.4-10.8 5.1-12.3q8.7-.2 15.9,.3" fill="none" stroke="#f0f0f0" stroke-width="1.6"></path><path d="M458,52q12.7-4.9 35.7-.8" fill="none" stroke="#f0f0f0" stroke-width="1.6"></path><path d="M462,18q-5.3-.9 2.6,5.9q17.5,14.9 29.2,6q5.9-4.5 -11.5-12.6q6.3-3.6 17.7-6.3" fill="none" stroke="#f0f0f0" stroke-width="1.6"></path><path d="M544,191q-5.5,2.9 -3.7-2.9q2.5-8.4 24.4-4.5q5.4,.9 1-5.8" fill="none" stroke="#f0f0f0" stroke-width="1.6"></path><path d="M546,158q15.7-4.2 18-3" fill="none" stroke="#f0f0f0" stroke-width="1.6"></path><path d="M559,158q0-2.7 0-5" fill="none" stroke="#f0f0f0" stroke-width="1.6"></path><path d="M550,135q-4-10.7 2.1-12.4q9.8,.4 18,2.1q4.5,.9 .9-6.2" fill="none" stroke="#f0f0f0" stroke-width="1.6"></path><path d="M554,103q14.7-5.1 12.1-14.4q-5.8-4.8 -12.1-7.6" fill="none" stroke="#f0f0f0" stroke-width="1.6"></path><path d="M535,200q10.8,5.1 19.3,5.3q9.8-1.9 17.7-4.3" fill="none" stroke="#f0f0f0" stroke-width="1.6"></path><path d="M542,73q5.6-5.6 20.4-6.5q3.5-.2 17.6,.5" fill="none" stroke="#f0f0f0" stroke-width="1.6"></path><path d="M544,27q-1.6,4.4 15.6,11q8.3,3.2 12.5-5.4q2.5-5.1 -10-9q5.7-5.4 16.9-10.6" fill="none" stroke="#f0f0f0" stroke-width="1.6"></path></svg>