<svg viewBox="-1220.35 497.3 934.85 1330.85" width="934.85" height="1330.85" version="1.1" baseProfile="full" xmlns="http://www.w3.org/2000/svg" class="js-draw--autoresize"><style id="js-draw-style-sheet">path{stroke-linecap:round;stroke-linejoin:round;}text{white-space:pre;}</style><g class="js-draw-image-background js-draw-image-background-grid js-draw-image-background-grid-25"><path d="M-285.5,1828.15l0-1330.85l-934.85,0l0,1330.85l934.85,0" fill="#03035e"></path><path d="M-1220.7,500l935.55,0m-935.55,25l935.55,0m-935.55,25l935.55,0m-935.55,25l935.55,0m-935.55,25l935.55,0m-935.55,25l935.55,0m-935.55,25l935.55,0m-935.55,25l935.55,0m-935.55,25l935.55,0m-935.55,25l935.55,0m-935.55,25l935.55,0m-935.55,25l935.55,0m-935.55,25l935.55,0m-935.55,25l935.55,0m-935.55,25l935.55,0m-935.55,25l935.55,0m-935.55,25l935.55,0m-935.55,25l935.55,0m-935.55,25l935.55,0m-935.55,25l935.55,0m-935.55,25l935.55,0m-935.55,25l935.55,0m-935.55,25l935.55,0m-935.55,25l935.55,0m-935.55,25l935.55,0m-935.55,25l935.55,0m-935.55,25l935.55,0m-935.55,25l935.55,0m-935.55,25l935.55,0m-935.55,25l935.55,0m-935.55,25l935.55,0m-935.55,25l935.55,0m-935.55,25l935.55,0m-935.55,25l935.55,0m-935.55,25l935.55,0m-935.55,25l935.55,0m-935.55,25l935.55,0m-935.55,25l935.55,0m-935.55,25l935.55,0m-935.55,25l935.55,0m-935.55,25l935.55,0m-935.55,25l935.55,0m-935.55,25l935.55,0m-935.55,25l935.55,0m-935.55,25l935.55,0m-935.55,25l935.55,0m-935.55,25l935.55,0m-935.55,25l935.55,0m-935.55,25l935.55,0m-935.55,25l935.55,0m-935.55,25l935.55,0m-935.55,25l935.55,0m-935.55,25l935.55,0m-935.55,25l935.55,0m-914.85-1328.05l0,1331.55m25-1331.55l0,1331.55m25-1331.55l0,1331.55m25-1331.55l0,1331.55m25-1331.55l0,1331.55m25-1331.55l0,1331.55m25-1331.55l0,1331.55m25-1331.55l0,1331.55m25-1331.55l0,1331.55m25-1331.55l0,1331.55m25-1331.55l0,1331.55m25-1331.55l0,1331.55m25-1331.55l0,1331.55m25-1331.55l0,1331.55m25-1331.55l0,1331.55m25-1331.55l0,1331.55m25-1331.55l0,1331.55m25-1331.55l0,1331.55m25-1331.55l0,1331.55m25-1331.55l0,1331.55m25-1331.55l0,1331.55m25-1331.55l0,1331.55m25-1331.55l0,1331.55m25-1331.55l0,1331.55m25-1331.55l0,1331.55m25-1331.55l0,1331.55m25-1331.55l0,1331.55m25-1331.55l0,1331.55m25-1331.55l0,1331.55m25-1331.55l0,1331.55m25-1331.55l0,1331.55m25-1331.55l0,1331.55m25-1331.55l0,1331.55m25-1331.55l0,1331.55m25-1331.55l0,1331.55m25-1331.55l0,1331.55m25-1331.55l0,1331.55" fill="none" stroke="#fcfca133" stroke-width=".7"></path></g><path d="M-1144.8,515.4q.4,1.6 1.9,7.9" fill="none" stroke="#f0f0f0" stroke-width="1.2"></path><path d="M-1147,501.2q.9-3.3 1.4-1.6q.5,9.6 .2,17.5q0,1 1.3,4.4" fill="none" stroke="#f0f0f0" stroke-width="1.2"></path><path d="M-1145.7,502.2q6.5-1.9 12-1.6" fill="none" stroke="#f0f0f0" stroke-width="1.2"></path><path d="M-1146,507.5q4.5-.2 8.2-.3" fill="none" stroke="#f0f0f0" stroke-width="1.2"></path><path d="M-1132.5,512q6.5-3.7 6.3-3.3q-6,9.7 1,8" fill="none" stroke="#f0f0f0" stroke-width="1.2"></path><path d="M-1121.7,508.5q.8,5 1.2,9.1q.1-1.8 0-5" fill="none" stroke="#f0f0f0" stroke-width="1.2"></path><path d="M-1114.2,508.5q1.5,12.5 .7,9.1q0-3.5 .3-6.3" fill="none" stroke="#f0f0f0" stroke-width="1.2"></path><path d="M-1106,510.7q.1,5.6 .7,4.7" fill="none" stroke="#f0f0f0" stroke-width="1.2"></path><path d="M-1106.3,505.3q.1-.3 .3-1.6" fill="none" stroke="#f0f0f0" stroke-width="1.2"></path><path d="M-1096.2,499q-.5,9.4 -.9,17.1" fill="none" stroke="#f0f0f0" stroke-width="1.2"></path><path d="M-1097.8,512.3q.9-1.4 1.6-2.6" fill="none" stroke="#f0f0f0" stroke-width="1.2"></path><path d="M-1088.9,511q0,2.8 0,5.1" fill="none" stroke="#f0f0f0" stroke-width="1.2"></path><path d="M-1088.9,506.6q.7-.5 1.2-1" fill="none" stroke="#f0f0f0" stroke-width="1.2"></path><path d="M-1079.1,507.2q-2,.3 -1.7,1.9q1.4,4.8 2.8,8.6q.8,2.3 -2.4,1.1q-2.9-1 -1.3-2.4" fill="none" stroke="#f0f0f0" stroke-width="1.2"></path><path d="M-1070.9,512.3q-5,4 -1.9,5.1q2.1-.5 3.8-1.4" fill="none" stroke="#f0f0f0" stroke-width="1.2"></path><path d="M-1063,501.5q-2.1,9 -3.8,16.4q-.4,.2 -1,.2q-.4,0 2-2.2q4.1-4 11.6-.8" fill="none" stroke="#f0f0f0" stroke-width="1.2"></path><path d="M-1050.7,512.3q-1.1-1.7 -2.1-.5q-2.2,2.7 6.2,6.1" fill="none" stroke="#f0f0f0" stroke-width="1.2"></path><path d="M-999.9,505.3q-4.4-3.6 -4.2,.4q.7,5.9 1.5,10.7q.4,2.8 -5.8,1.4q-2-.4 -1.3-3.7" fill="none" stroke="#f0f0f0" stroke-width="1.2"></path><path d="M-990.5,499.6q-1.3,8.8 -1,15.3" fill="none" stroke="#f0f0f0" stroke-width="1.2"></path><path d="M-993.6,511.3q1.9,.3 3.5,.6" fill="none" stroke="#f0f0f0" stroke-width="1.2"></path><path d="M-979.7,511q-4.9-1.4 -4.2,2.7q.7,4 8.6-.2" fill="none" stroke="#f0f0f0" stroke-width="1.2"></path><path d="M-983.8,507.2q5.2-.4 9.4-.6" fill="none" stroke="#f0f0f0" stroke-width="1.2"></path><path d="M-965.8,498.4q1,14.4 .1,18.5q2.2-1.7 5.2-5.5q3.1-3.8 4.4,4" fill="none" stroke="#f0f0f0" stroke-width="1.2"></path><path d="M-948.5,499.3q-1,12.3 1,15.8" fill="none" stroke="#f0f0f0" stroke-width="1.2"></path><path d="M-943.1,512.6q.4-.6 1.9-2.9" fill="none" stroke="#f0f0f0" stroke-width="1.2"></path><path d="M-939,507.8q-4.1,4.8 -2.4,7.5q.8,1.2 7.1,1.1" fill="none" stroke="#f0f0f0" stroke-width="1.2"></path><path d="M-780.6,511.6q-7.2,3.7 -5,6.4q2.3,2.8 7.2-2.7q0-.1 .1-.1q.6-.8 3.4,3.7" fill="none" stroke="#f0f0f0" stroke-width="1.2"></path><path d="M-769.9,513.8q.6,4.5 3.8,4.6q1.5-1.1 2.6-2.4q.5,.7 .9,1.9" fill="none" stroke="#f0f0f0" stroke-width="1.2"></path><path d="M-754.7,511.6q1.4,4.6 2.5,8.3q-2.4,.2 -5.7-.7" fill="none" stroke="#f0f0f0" stroke-width="1.2"></path><path d="M-740.5,504.7q-3.7,10.1 -1.3,16.4" fill="none" stroke="#f0f0f0" stroke-width="1.2"></path><path d="M-745.2,517q16.8-4.3 11.2-4.9q-1.6-.2 -2.6,3.2q-.7,2.1 8.1,2.6" fill="none" stroke="#f0f0f0" stroke-width="1.2"></path><path d="M-726.3,514.1q-1.6,5.4 -.4,4.8q5.4-2.2 6.6-1.2q.5,1.1 .7,2.1" fill="none" stroke="#f0f0f0" stroke-width="1.2"></path><path d="M-711.5,515.4q-1.1,4.4 -.3,4.4" fill="none" stroke="#f0f0f0" stroke-width="1.2"></path><path d="M-711.8,507.8q-.1-.1 0-.1q.1,0 .1,.1q0,.1 -.1,.1q-.1,0 -.1-.1" fill="none" stroke="#f0f0f0" stroke-width="1.2"></path><path d="M-703,503.7q-.2,9.4 -.6,17" fill="none" stroke="#f0f0f0" stroke-width="1.2"></path><path d="M-704.2,515.4q.9-.5 1.6-1" fill="none" stroke="#f0f0f0" stroke-width="1.2"></path><path d="M-694.1,513.8q0,2.6 .3,4.7" fill="none" stroke="#f0f0f0" stroke-width="1.2"></path><path d="M-692.5,507.5q0,.3 0,.6" fill="none" stroke="#f0f0f0" stroke-width="1.2"></path><path d="M-679.3,509.1q-3.5-.8 -2.8,2.7q2.3,11.3 -5.7,5.5" fill="none" stroke="#f0f0f0" stroke-width="1.2"></path><path d="M-673.6,511.9q-4.4,3.9 -2.6,5.6q4,.1 7.6-.9" fill="none" stroke="#f0f0f0" stroke-width="1.2"></path><path d="M-663.5,502.8q-4.1,13.8 -3.9,16.3q1.5-1.2 3.4-3.8q2.2-.6 4.3-.6" fill="none" stroke="#f0f0f0" stroke-width="1.2"></path><path d="M-652.1,514.1q-2.5-.2 -3.5,1.7q-.9,1.9 7.6,2.7" fill="none" stroke="#f0f0f0" stroke-width="1.2"></path><path d="M-598.7,503.1q-8.1,3.2 -6.5,7.3q2.8,3.9 5.6,6.8q1.4,1.5 -2.2,1.3q-7.4-.3 -5.7-3.3" fill="none" stroke="#f0f0f0" stroke-width="1.3"></path><path d="M-592.2,502.5q-1.6,9.9 -.6,18.2" fill="none" stroke="#f0f0f0" stroke-width="1.3"></path><path d="M-594.4,512.6q.5-.1 2.6-.7" fill="none" stroke="#f0f0f0" stroke-width="1.3"></path><path d="M-580.4,511.3q-4.5,3.5 -.4,5.5q1.2,.5 6.6,.3" fill="none" stroke="#f0f0f0" stroke-width="1.3"></path><path d="M-582.4,505.7q4.7,.5 8.5,1" fill="none" stroke="#f0f0f0" stroke-width="1.3"></path><path d="M-564.7,499.5q-2.1,17.5 -.6,15.3q2.4-3.4 8.7,0" fill="none" stroke="#f0f0f0" stroke-width="1.3"></path><path d="M-548.1,500.5q-3.3,19.4 -.7,17" fill="none" stroke="#f0f0f0" stroke-width="1.3"></path><path d="M-540.3,510.9q-.9,3.9 -.3,7.5" fill="none" stroke="#f0f0f0" stroke-width="1.3"></path><path d="M-537.7,500.2q.2,.2 .4,.3" fill="none" stroke="#f0f0f0" stroke-width="1.3"></path><path d="M-1140.9,561.9q3.2,.9 1.7,3q-1.6,2 -2-2.3q-.2-1.6 2.7-1.2q-.2,.6 -.7,1.2" fill="none" stroke="#f0f0f0" stroke-width="1.3"></path><path d="M-1098.8,553.3q-1.5-2 -3.8-.9q-6.2,3 -3.6,21.7q.8,2 1.7,3.6" fill="none" stroke="#f0f0f0" stroke-width="1.4"></path><path d="M-1110.4,567.1q1.7-2 8.5-1.7" fill="none" stroke="#f0f0f0" stroke-width="1.3"></path><path d="M-1097.7,568.1q9.3-3.2 9.3-5.6q0-.9 -3.2,1.8q-6.7,5.4 1.6,7.8q2-.3 3.6-.9" fill="none" stroke="#f0f0f0" stroke-width="1.3"></path><path d="M-1082,561.6q1.2,11.6 .2,10.6q.1-5.1 1.6-9.6" fill="none" stroke="#f0f0f0" stroke-width="1.3"></path><path d="M-1075.4,561.9q2.9,11 2.6,8.4q.9-4.8 2.2-8.7" fill="none" stroke="#f0f0f0" stroke-width="1.3"></path><path d="M-1068.2,569.1q-.1-7.4 4.9-7.1q4,.2 3.4,7.4q-.4,4.5 -7.7,.4" fill="none" stroke="#f0f0f0" stroke-width="1.3"></path><path d="M-1051.8,561.2q.5,13.2 .6,9.6q.4-7.5 3.2-5.5q.9,2.5 1.2,4.8q1.5-1 3.2-3.4q1.1-1.6 9.7,3.1" fill="none" stroke="#f0f0f0" stroke-width="1.3"></path><path d="M-1029.1,565.7q-1.9-.4 -3.1,1.6q-1.8,2.8 2.1,2.4q1.5-1.8 2.4-3.9q1,1 2,3" fill="none" stroke="#f0f0f0" stroke-width="1.3"></path><path d="M-1017.1,563.3q-2.1,1.7 -1.3,3.9q1.1,3.3 4.1-.2q.4-.8 .6-1.5q.4,3.9 .1,10.8q-.2,4 -5.7,2.3q-1.7-2.6 -2.6-5.4" fill="none" stroke="#f0f0f0" stroke-width="1.3"></path><path d="M-1007.9,563.6q-.5,8.1 .9,8.4q1.5-2 2.3-4.7q.5-1.8 8.1,4.2" fill="none" stroke="#f0f0f0" stroke-width="1.3"></path><path d="M-992.1,566.4q4-5.1 1.9-4.9q-3.7,.4 -3.5,8q0,4.1 8.3,2q2-1.2 3.6-2.4" fill="none" stroke="#f0f0f0" stroke-width="1.4"></path><path d="M-977.4,551.6q-1.1,11.2 -2,20.3" fill="none" stroke="#f0f0f0" stroke-width="1.3"></path><path d="M-980.4,564q4.6-1.7 7.4,.1q1.6,1 3,7.3" fill="none" stroke="#f0f0f0" stroke-width="1.3"></path><path d="M-969.1,555.1q.8-.9 2.4,.3" fill="none" stroke="#f0f0f0" stroke-width="1.3"></path><path d="M-959.2,558.8q-4.7-.4 -5.4,1.5q2,6 5.5,10.8q1.8,2.6 -3.4,.7q-.8-.3 -3.2-2.7" fill="none" stroke="#f0f0f0" stroke-width="1.3"></path><path d="M-953.7,563.3q-2.9,2.6 -2.2,5.3q.6,2 5.6,2q.7,0 2.4-2.5" fill="none" stroke="#f0f0f0" stroke-width="1.3"></path><path d="M-944.1,551.6q-4.3,22.4 -2.7,18q3-8.5 9.7-4q1,.7 1.9,5.9" fill="none" stroke="#f0f0f0" stroke-width="1.3"></path><path d="M-781.7,563.9q1.5-1.8 1.5-.6q-.6,.4 -1.3,.5q.6,.1 1.6,.1" fill="none" stroke="#f0f0f0" stroke-width="1.2"></path><path d="M-754.9,563.9q-.4,7 .3,5.9q5.2-7.7 8.5-2.9q.9,2.6 1.5,4.8" fill="none" stroke="#f0f0f0" stroke-width="1.2"></path><path d="M-738.7,567q.2,2.3 .3,4.1" fill="none" stroke="#f0f0f0" stroke-width="1.2"></path><path d="M-737.4,556.4q-.3,.2 -.6,.3" fill="none" stroke="#f0f0f0" stroke-width="1.2"></path><path d="M-727.4,563q-2.8,1.6 -3.4,4.7q-.6,2.9 3.5,3.1q1.1,.1 4.2-3.5" fill="none" stroke="#f0f0f0" stroke-width="1.2"></path><path d="M-720.6,557.3q-1.7,16.5 -.1,13.2q3.5-7.7 6.1-1.7q1.7,4 3.1,.7" fill="none" stroke="#f0f0f0" stroke-width="1.2"></path><path d="M-705.6,555.2q-.8,11.8 0,17.1" fill="none" stroke="#f0f0f0" stroke-width="1.2"></path><path d="M-711.5,564.2q3.7-.5 6.8-.9" fill="none" stroke="#f0f0f0" stroke-width="1.2"></path><path d="M-670,563q2.2,4.9 4,9q1.5-2.1 2.9-6q.7-1.8 2-.4q.8,.9 -.1,5q1.8-1 4.2-3.4q2.4-2.4 6.6,3.6" fill="none" stroke="#f0f0f0" stroke-width="1.2"></path><path d="M-639.8,565.8q-7,4.3 -3.8,5.4q3.2-1.7 5.7-4.3q.7,2.2 .6,5.7" fill="none" stroke="#f0f0f0" stroke-width="1.2"></path><path d="M-626.4,565.8q-5.2,4.3 -2,5.4q3.6-1.8 6.5-4.6q1.3-1.3 1,6.2q-.2,6.6 -5.1,6.2q-1.4-.1 -1.3-4.8" fill="none" stroke="#f0f0f0" stroke-width="1.2"></path><path d="M-615.4,564.8q-.8,9.7 -2.1,9.5q-1-.1 3.4-4.3q2.3-2.2 7,3.1" fill="none" stroke="#f0f0f0" stroke-width="1.2"></path><path d="M-602.3,570.4q.7-3.5 -.4-2.4q-4,3.8 2.4,5.9q1.5,.5 5.8-3.1" fill="none" stroke="#f0f0f0" stroke-width="1.2"></path><path d="M-586.4,556.4q-1.1,17 -1,16.9" fill="none" stroke="#f0f0f0" stroke-width="1.3"></path><path d="M-590.5,567q11.1-1.7 13,.6q.1,2.5 -.5,4.7" fill="none" stroke="#f0f0f0" stroke-width="1.2"></path><path d="M-576.1,556.1q.3,.4 1.5,1.9" fill="none" stroke="#f0f0f0" stroke-width="1.2"></path><path d="M-566.5,562.6q-1.1-2.2 -1.6-1.4q.6,4.1 2.2,7.5q1.6,3.4 -2.9,4.1q-2.7,.4 -.1-3" fill="none" stroke="#f0f0f0" stroke-width="1.2"></path><path d="M-558.7,564.5q-1.7,2.8 -.3,4.8q2.5,1.4 5,2.1" fill="none" stroke="#f0f0f0" stroke-width="1.2"></path><path d="M-544.9,554.5q-7.3,16.3 -5.5,17.1q1.9-1.4 3.1-3.7q1.7-3 5,.7q.6,2.9 .5,5.6" fill="none" stroke="#f0f0f0" stroke-width="1.4"></path><path d="M-1137.2,639.6q2.5-2.3 2.1-1.4q-1.1,.4 -2.2,.5q.6,.1 1.8,.3q-.2,.5 -.8,1.1q.2-.8 .8-2.3q.6-1.4 1.8,.1q-.7,.5 -1.8,.8q.6-.7 2-1.8q-.5,.8 -1.6,2.1" fill="none" stroke="#f0f0f0" stroke-width="1.2"></path><path d="M-1067.9,613.5q.1-.3 .3-.5q.1,7.3 -2.3,19.6q-1.8,14.8 -2.8,27q-1.3,4.2 -2.7,7.5q-1.9,4.3 .2,3.3" fill="none" stroke="#f0f0f0" stroke-width="1.2"></path><path d="M-1076.4,671.6q10.6-2.4 24.2-2.5q52.3-.5 49.4-1.7" fill="none" stroke="#f0f0f0" stroke-width="1.2"></path><path d="M-1002.8,662.9q5.8,2.7 5,5.4q-2.3,1.7 -4.7,2.7" fill="none" stroke="#f0f0f0" stroke-width="1.2"></path><path d="M-1072.5,610.5q6.7-2 9.2,.5q1.1,2.1 1.7,4" fill="none" stroke="#f0f0f0" stroke-width="1.2"></path><path d="M-1093,635.3q5.5,1.4 5.8,4.2q.7,6.3 -4.6,5.7q-3-.4 -1.8-9.5q-.1-1.5 -.4-2.6q-.7-2.7 6-2.2q2.1,1.4 3.7,2.9" fill="none" stroke="#f0f0f0" stroke-width="1.2"></path><path d="M-1004,678.9q-.1-.2 -.2-.5q-1.1-1.3 -1.7,2.6q-.6,3.8 2.9,1.5q-1.4,1.4 -4,3.7q-2.7,2.4 3.3,3.3q2.3-.2 4.2-.6" fill="none" stroke="#f0f0f0" stroke-width="1.3"></path><path d="M-1076.1,670.7q5.6-4.9 8.1-10.1q1.3-2.6 8.4-8.3q5.8-4.7 10-14.6q.5-.5 1.1-.9q.4,2.7 -.4,7q1.2-.9 2.8-2.8q.2,.7 .1,1.9q.8-.4 1.8-1.4q.1,.5 .1,1.3q.5-.3 1.2-.9q.4,.5 .6,1.3q1,0 2-.6q1.6-.5 2.9-.8q1.8-2.3 2.9-4.8q6.6-3.1 13.6-3.9q4-1.2 7.1-2.5q4.7-1.8 11.2,.1q7,2.1 7.8,3.4q-.2,1 -.5,1.8" fill="none" stroke="#f0f0f0" stroke-width="1.2"></path><path d="M-783,638.7q5.3-.4 3.1,.7q-1.1-.4 -2-1q1,.3 2.7,1.1q-1,.4 -2.9,.7" fill="none" stroke="#f0f0f0" stroke-width="1.1"></path><path d="M-749.5,601.5q-.4,55.6 -.2,57.4q1,12.5 1.7,22.7q.3-.1 .6-.5" fill="none" stroke="#f0f0f0" stroke-width="1.1"></path><path d="M-750.7,676.3q14.7,.1 76.9-.7q18.5-.3 26.7,.2" fill="none" stroke="#f0f0f0" stroke-width="1.1"></path><path d="M-644.2,672.8q6.5,2.8 5.2,5.7q-2.3,1.6 -4.7,2.6" fill="none" stroke="#f0f0f0" stroke-width="1.1"></path><path d="M-755.7,603.8q6.8-3.5 8.5-2.3q6.8,5.3 5.4,4.4" fill="none" stroke="#f0f0f0" stroke-width="1.1"></path><path d="M-767.8,614.4q4.4,1.8 3.8,5.2q-.9,5.8 -3,2.8q-2.3-3.4 -2.1-7.3q.1-3.8 3.9-5.3q3.8,.6 6.9,2" fill="none" stroke="#f0f0f0" stroke-width="1.1"></path><path d="M-647.8,688.1q.7-1.1 -.3-.9q-3.3,.7 -4.9,4.5q1,.5 2.5,.7q-.4,1.7 -1.9,3.7q-1.6,2.2 7.9,2.9" fill="none" stroke="#f0f0f0" stroke-width="1.1"></path><path d="M-748,676.3q5.7-6.3 10.4-11.5q3.7-4.2 6.8-7.6q2.1-1.9 3.9-3.4q7.3-6.7 13-12.4q2.1-1.2 4-1.9q2.2-1.8 3.8-3.5q3.1-1.8 6-2.8q10.4-3.8 18.8-6.9q4.2-1.6 15.1-1.2q10.4,.4 15.2,5.7q2.5,1.6 4.7,2.8" fill="none" stroke="#f0f0f0" stroke-width="1.1"></path><path d="M-645.4,632.1q1.3,3.5 2.3,6.5" fill="none" stroke="#f0f0f0" stroke-width="1.1"></path><path d="M-640.7,633q-4.8,1.5 -8.6,3" fill="none" stroke="#f0f0f0" stroke-width="1.1"></path><path d="M-646.6,633.9q2.7-.2 5-.3" fill="none" stroke="#f0f0f0" stroke-width="1.1"></path><path d="M-1140.9,738.7q4.8-2.1 3.1,.3q-.4,0 -.8-.2q-.3,.5 -.3,1.3" fill="none" stroke="#f0f0f0" stroke-width="1.3"></path><path d="M-1091.4,730.1q.4,10.5 .7,19q0,.4 .4-1.8" fill="none" stroke="#f0f0f0" stroke-width="1.3"></path><path d="M-1083.8,737q-13,9.4 -2.6,11.3q1.8-.4 3.3-1" fill="none" stroke="#f0f0f0" stroke-width="1.3"></path><path d="M-1073.4,740.4q1.5,9.4 1.4,8.9q-1.5-4.4 3.4-8.5" fill="none" stroke="#f0f0f0" stroke-width="1.3"></path><path d="M-1061.7,741.1q5.1-.9 4.7,2.1q-1.3,3 -2.8,5.3q4.9,1.5 12.2,.9" fill="none" stroke="#f0f0f0" stroke-width="1.3"></path><path d="M-782.9,739.1q.1,.1 0,.1q-.1,0 -.1-.1q0-.1 .1-.1q.1,0 .1,.1" fill="none" stroke="#f0f0f0" stroke-width="1.3"></path><path d="M-736.6,730.6q1.1,11.6 2,21q.1,.9 .1-4.1" fill="none" stroke="#f0f0f0" stroke-width="1.3"></path><path d="M-726.9,737.2q-5.6,1.8 -5.3,4.5q3.3,2.8 7,4.4" fill="none" stroke="#f0f0f0" stroke-width="1.3"></path><path d="M-706.8,736.8q-.8-7.1 -3.3-5q-3.6,2.8 -1.5,18" fill="none" stroke="#f0f0f0" stroke-width="1.4"></path><path d="M-716.2,744.8q1.8-2 8.7-2.1" fill="none" stroke="#f0f0f0" stroke-width="1.3"></path><path d="M-695.4,741q6.4-.9 6.4,2.5q-1.3,3.4 -2.8,6q3,.8 7.4,.4" fill="none" stroke="#f0f0f0" stroke-width="1.3"></path><path d="M-1141,814.8q.3-.2 1.4-1.1" fill="none" stroke="#f0f0f0" stroke-width="1.4"></path><path d="M-1092.5,805.1q-1.6,21.7 -.5,16.8q.9-2.6 1.9-4.6" fill="none" stroke="#f0f0f0" stroke-width="1.4"></path><path d="M-1084,808q-8.9,12.3 -3.2,11.5q2.4-.7 4.3-1.5" fill="none" stroke="#f0f0f0" stroke-width="1.4"></path><path d="M-1076.5,817.6q1.8-.9 3.3-1.8q-.6,1.4 -2,3.6q-3.3,4.9 6.9,2.8" fill="none" stroke="#f0f0f0" stroke-width="1.4"></path><path d="M-1066.1,816.5q1.3,7.5 1,5.6q1.5-4.3 3.6-7.7" fill="none" stroke="#f0f0f0" stroke-width="1.4"></path><path d="M-1055.1,805.1q-1.7,17.7 -.6,14.7q2.3-6.4 6.3,.4q1.5,2.7 -4,3.4q-.6,0 -2.4-1.7" fill="none" stroke="#f0f0f0" stroke-width="1.4"></path><path d="M-1040.8,814.4q-4.1,1.1 -3.1,4.5q1.4,4.7 .6,5.5q-1.7-.2 -3.2-1.1" fill="none" stroke="#f0f0f0" stroke-width="1.4"></path><path d="M-1035.5,817.6q.6-1.2 .2-1.3q-1.9-.3 -1.3,4.3q.3,2.4 7.2,1.3" fill="none" stroke="#f0f0f0" stroke-width="1.4"></path><path d="M-1026.6,809.4q-.1,7.2 -.2,13.1q.6-1.2 1.4-3.6q.4-1.3 5.6,3.7" fill="none" stroke="#f0f0f0" stroke-width="1.4"></path><path d="M-1016.6,803.7q4.2,19.6 5,16.8" fill="none" stroke="#f0f0f0" stroke-width="1.4"></path><path d="M-1005.5,815.1q-4,6.3 -.1,6.6q2.9,.3 2.1-5q.3,.7 .8,2" fill="none" stroke="#f0f0f0" stroke-width="1.4"></path><path d="M-995.2,815.1q-3.1,2.8 -1.3,4.1q1.4-.4 2.6-1.2q.7-.5 2.1,3.9q1.2,3.8 -8.4,2.5" fill="none" stroke="#f0f0f0" stroke-width="1.4"></path><path d="M-980.2,815.1q-6.4,7 -2,6.7q1.9-2.1 3-4.6q1,1.3 1.8,3.6" fill="none" stroke="#f0f0f0" stroke-width="1.4"></path><path d="M-973.8,815.1q3.3,9.9 3,8q-1.2-5.7 .9-8.3" fill="none" stroke="#f0f0f0" stroke-width="1.4"></path><path d="M-960.2,806.6q.3,16.9 -.9,15.4q-1.7-1.9 2.8-4.5q2.3-1.4 3.4,2.4q.7,2.5 -4.4,2.8q-.3-.7 -.2-1.5" fill="none" stroke="#f0f0f0" stroke-width="1.4"></path><path d="M-949.5,817.6q.1-1.3 -.2-1.2q-1.9,.5 .9,4.2q2.5,.2 5-.5" fill="none" stroke="#f0f0f0" stroke-width="1.4"></path><path d="M-942.4,815.5q1.1,7.5 1.1,7.5" fill="none" stroke="#f0f0f0" stroke-width="1.4"></path><path d="M-942.8,809.4q.1,.1 0,.1q-.1,0 -.1-.1q0-.1 .1-.1q.1,0 .1,.1" fill="none" stroke="#f0f0f0" stroke-width="1.4"></path><path d="M-932.1,803.7q0,16.7 -.3,16.1" fill="none" stroke="#f0f0f0" stroke-width="1.4"></path><path d="M-934.6,814.8q3.6-.2 6.5-.4" fill="none" stroke="#f0f0f0" stroke-width="1.4"></path><path d="M-1100.8,853.6q-.4,19.8 3.2,57.8q1.5,15.8 1.7,22.5q.4,12.1 .1,27.8q0,1.4 -.2,1.3" fill="none" stroke="#f0f0f0" stroke-width="1.2"></path><path d="M-1094.5,964.2q33.7-2 61.2-3.7q13.5,.5 24.6,1.6q33.4-.6 60.7-2.6" fill="none" stroke="#f0f0f0" stroke-width="1.2"></path><path d="M-1087.5,944.7q12.6,1.8 23.2,0q14.6-.7 26.5-.5q10.2,.1 13.8-12q.4-1.1 1.9-16.8q2.1-14.1 4.1-25.5q2.7-14.8 5.4-17.6q12.8-4.1 24.6-5.1q11.4-1 19.3,0q10,.1 18.2-.3q1.1,.7 1.9,1.5" fill="none" stroke="#f0f0f0" stroke-width="1.2"></path><path d="M-1129.8,873.5q.6-1.9 -.1-1.2q-2.6,2.5 1,6.2q2.1,2.3 3-4.4q0-.1 -.1-.2q.3,1.8 1.3,4.9" fill="none" stroke="#f0f0f0" stroke-width="1.2"></path><path d="M-1120,872.5q.5,5.9 .9,10.7q.2-.5 .4-1.5" fill="none" stroke="#f0f0f0" stroke-width="1.2"></path><path d="M-1114.6,878.8q-2.8,1.5 -1.6,2.3q.7,.5 4.4,0" fill="none" stroke="#f0f0f0" stroke-width="1.2"></path><path d="M-1107.1,861.2q5.2-8.7 5.7-8q3.9,5 3.5,6.8q-2.4,1.2 -5.1,1.5" fill="none" stroke="#f0f0f0" stroke-width="1.2"></path><path d="M-951.4,955.6q8.2,3.1 5.9,4.3q-3.6,1.8 -6.4,3.6" fill="none" stroke="#f0f0f0" stroke-width="1.2"></path><path d="M-952.6,964q-.2-6.7 -.3-6.9" fill="none" stroke="#f0f0f0" stroke-width="1.2"></path><path d="M-969.6,975.6q1.6,11 .6,9.9" fill="none" stroke="#f0f0f0" stroke-width="1.2"></path><path d="M-976.2,976.8q11.8-5.5 13.4-4.5" fill="none" stroke="#f0f0f0" stroke-width="1.2"></path><path d="M-785.7,743.5q3.8-2.5 3.2-4.4" fill="none" stroke="#f0f0f0" stroke-width="1.5"></path><path d="M-750.7,852q-2.1,19.7 -2.9,58.9q-1.8,27.3 -3.9,49.6q-.6,7 2.1,19.3q.6-.1 1.3-.5" fill="none" stroke="#f0f0f0" stroke-width="1.5"></path><path d="M-763.5,977.8q5.5-.9 25.2-2q75.9-4.3 79-4.4q38.4,1.5 69.9,3.7q3.7,.2 18.5,.5" fill="none" stroke="#f0f0f0" stroke-width="1.5"></path><path d="M-728.3,890.9q13.6-7.4 14.6-7.6q3.7-2.5 6.5-5.1q2.4-2.4 7.2-4.8q5.7-1.9 10.6-3.2q10.9-2.8 19.8-5.1q8.2-2.2 27.9-3.5q19.9-1.3 22.4-1.4q18.7-.5 29.3,1.5" fill="none" stroke="#f0f0f0" stroke-width="1.5"></path><path d="M-780,884.6q-3.3-1.1 -4.5,1.9q-2,4.9 3.2,4.9q3,0 4.1-6.7q-.2,2.3 -.7,6.5q.7,1.8 1.7,3.1" fill="none" stroke="#f0f0f0" stroke-width="1.5"></path><path d="M-771.3,885.3q-.7,7.6 -1.2,13.9" fill="none" stroke="#f0f0f0" stroke-width="1.5"></path><path d="M-766.1,893.2q-3.3,2 -1.1,4q2,1 3.7,1.6" fill="none" stroke="#f0f0f0" stroke-width="1.5"></path><path d="M-782.9,811.6q1.6-1.1 1.5-1.1q-1.4,.6 -2.5,1.1" fill="none" stroke="#f0f0f0" stroke-width="1.9"></path><path d="M-736.7,805.5q.2,12.8 0,16.5" fill="none" stroke="#f0f0f0" stroke-width="1.2"></path><path d="M-727.9,806.4q-7.1,9.6 -5,13.2q2.5,.4 5,0" fill="none" stroke="#f0f0f0" stroke-width="1.2"></path><path d="M-725.3,816.8q9.2-1.7 7-3.1q-1.3-.9 -2.1,2.4q-.4,1.9 2.9,4.8" fill="none" stroke="#f0f0f0" stroke-width="1.2"></path><path d="M-712.7,815.2q.2,8.5 .6,5.6q.3-3.2 4.1-7.8" fill="none" stroke="#f0f0f0" stroke-width="1.2"></path><path d="M-701.4,801q1.3,1.5 .7,5.9q-2.9,22 -2.5,14.2q.3-5.3 7.3-6.5q2.1-.3 1.5,3.6q-.3,2.2 -6.4,2.1" fill="none" stroke="#f0f0f0" stroke-width="1.2"></path><path d="M-684.4,813.3q-2.1-.1 -2.2,2q.2,4.4 .4,8.1q.2,2 -2.8,.2q-.5-.3 -1.1-2.7" fill="none" stroke="#f0f0f0" stroke-width="1.2"></path><path d="M-677.1,816.2q-4.8,1.4 -2.5,4.5q2.8,.8 5.6,.8" fill="none" stroke="#f0f0f0" stroke-width="1.2"></path><path d="M-667.1,802q-1.6,10.6 -2.9,19.2q.7-1.3 1.7-3.8q1.2-3.2 6.3,4.1" fill="none" stroke="#f0f0f0" stroke-width="1.2"></path><path d="M-655.4,802.6q.6,18.3 -.6,19.5" fill="none" stroke="#f0f0f0" stroke-width="1.2"></path><path d="M-645.3,813.6q-3.4,1.2 -4.7,4.3q-2.1,4.8 2.7,4.5q1.7-.2 3-5.9q.8,1.3 1.5,3.8" fill="none" stroke="#f0f0f0" stroke-width="1.2"></path><path d="M-634.9,814.9q-2.7,.6 -1.6,3.6q1.3-.4 2.7-1.5q.5-.5 1.2,3.6q1.3,7.7 -4.4,7.4q-1.6-1.3 -2.7-2.7" fill="none" stroke="#f0f0f0" stroke-width="1.2"></path><path d="M-619.8,815.2q-6.9,1 -4.6,6.4q1.6,3.6 5.6-5.1q.3-.9 .6-1.7q.3-.9 1.2,4.8" fill="none" stroke="#f0f0f0" stroke-width="1.2"></path><path d="M-610.4,813.6q.5,4.7 .9,8.6q1-2.8 2-7.9" fill="none" stroke="#f0f0f0" stroke-width="1.2"></path><path d="M-592.1,805.5q-2.3,8.5 -4.2,15.6q-.7,.2 -1.5,.1q1.4-1.8 4.5-3.8q1.9-1.2 2.8,2.9q1,4.1 -5.4,.3" fill="none" stroke="#f0f0f0" stroke-width="1.2"></path><path d="M-587.4,817.7q5.9-1.6 4.4-2.1q-2.3-.7 -2,4.4q.1,1.9 3.9,1.8" fill="none" stroke="#f0f0f0" stroke-width="1.2"></path><path d="M-576.4,816.2q.8,6.6 .7,6.6" fill="none" stroke="#f0f0f0" stroke-width="1.2"></path><path d="M-575.1,808q.2-.5 .3-1" fill="none" stroke="#f0f0f0" stroke-width="1.2"></path><path d="M-566,804.8q-1.2,15.6 -2.7,17.7" fill="none" stroke="#f0f0f0" stroke-width="1.2"></path><path d="M-571.9,816.5q4.7,.1 8.5,.6" fill="none" stroke="#f0f0f0" stroke-width="1.2"></path><path d="M-570.8,974.6q5.3,.2 5.8,3q-2.6,2.4 -6.1,3.8" fill="none" stroke="#f0f0f0" stroke-width="1.1"></path><path d="M-584.9,988.4q.8,7 0,8.9" fill="none" stroke="#f0f0f0" stroke-width="1.1"></path><path d="M-592.2,988.4q10.9-3.5 13.2-3" fill="none" stroke="#f0f0f0" stroke-width="1.1"></path><path d="M-756.2,853.1q2.5-3.4 6.3-3.6q1.8-.1 4.5,5.5" fill="none" stroke="#f0f0f0" stroke-width="1.1"></path><path d="M-1141.8,1062.4q2.7-2.3 2.5-2.2q-.2,0 -1.2,.1" fill="none" stroke="#f0f0f0" stroke-width="1.6"></path><path d="M-779.1,1065.7q.1-.4 .2-.7q-.1-.1 -.2-.2" fill="none" stroke="#f0f0f0" stroke-width="1.6"></path><path d="M-1082.8,1057.8q.4-3.2 -1.7-2.6q-8.3,2.6 -11.5,15.4q-1.4,5.9 14.4,2.3q1.2,.3 2.1,.7" fill="none" stroke="#f0f0f0" stroke-width="1.6"></path><path d="M-1048,1058.2q-9.3,10.5 -6.7,11.7q5.9,.4 10.9-.1" fill="none" stroke="#f0f0f0" stroke-width="1.6"></path><path d="M-1057.9,1076q8.2-1 14.9-1.6" fill="none" stroke="#f0f0f0" stroke-width="1.6"></path><path d="M-1018.5,1066.5q.7-9.5 5.7-7.2q4.9,2.2 1.9,8.2q-1.4,2.8 -6.9,.8" fill="none" stroke="#f0f0f0" stroke-width="1.6"></path><path d="M-1002.8,1073.1q-6.6,8.1 -6.6,8.3" fill="none" stroke="#f0f0f0" stroke-width="1.6"></path><path d="M-991.1,1065.7q6.5-7.2 10-4.9q3.6,2.3 -2.6,8.1q-3.8,3.5 -7-3.2" fill="none" stroke="#f0f0f0" stroke-width="1.6"></path><path d="M-970.8,1059q10.8-2.8 7.4,2.9q-4.2,7.2 -1.1,8.7q2.7,.1 4.9-.4" fill="none" stroke="#f0f0f0" stroke-width="1.6"></path><path d="M-947.2,1058.2q.2,.2 0,.2q-.2,0 -.2-.2q0-.2 .2-.2q.2,0 .2,.2" fill="none" stroke="#f0f0f0" stroke-width="1.6"></path><path d="M-935.5,1057.4q-4.6,7.5 -8.3,13.7" fill="none" stroke="#f0f0f0" stroke-width="1.6"></path><path d="M-934.3,1072.3q-.2,.7 -.4,1.3" fill="none" stroke="#f0f0f0" stroke-width="1.6"></path><path d="M-719.6,1055.3q-9.7,7.5 -9.5,12.5q.2,4 18.6,6.2" fill="none" stroke="#f0f0f0" stroke-width="1.7"></path><path d="M-678.3,1057q.7,3.1 -3.5,7.8q-6,6.5 .4,8.6q4.3,.5 7.9,.6" fill="none" stroke="#f0f0f0" stroke-width="1.7"></path><path d="M-631.3,1060.5q10.5-9 9.9-.9q-1.1,4.5 -2.4,8.2q-1.4,4.1 10.3,4.9" fill="none" stroke="#f0f0f0" stroke-width="1.7"></path><path d="M-600,1055.3q.2,.2 0,.2q-.2,0 -.2-.2q0-.2 .2-.2q.2,0 .2,.2" fill="none" stroke="#f0f0f0" stroke-width="1.7"></path><path d="M-581.3,1055.3q-10.7,13.7 -9.1,16.1" fill="none" stroke="#f0f0f0" stroke-width="1.7"></path><path d="M-578.2,1074q.3,.2 1.7,.9" fill="none" stroke="#f0f0f0" stroke-width="1.7"></path><path d="M-777.8,1142q.6-1.6 .9-.9q.8,1.7 -1.4,1.8" fill="none" stroke="#f0f0f0" stroke-width="1.3"></path><path d="M-723.4,1127q.4,11.1 .7,20.1q.8-2.1 1.7-6.1q.5-2 7.1,5.5" fill="none" stroke="#f0f0f0" stroke-width="1.3"></path><path d="M-709.1,1141.7q-4.2,4.6 -2,4.8q2.2-.7 4-1.8q.8,.7 1.4,1.7q1.8,1 3.5,1.4" fill="none" stroke="#f0f0f0" stroke-width="1.3"></path><path d="M-694,1129.7q-.4,14.7 0,22q.9-2.1 2-6q.7,.1 1.5,.5q.7,.4 -2,2.5q-.2,.2 -1.5-.5" fill="none" stroke="#f0f0f0" stroke-width="1.3"></path><path d="M-683.1,1144.1q-1.5,5.1 2.2,4.9q2.9-2.1 5-4.4q-.1,1.5 -.8,4.2q2.3-.4 5.3-2q2.9,1.4 5.1,3.8" fill="none" stroke="#f0f0f0" stroke-width="1.3"></path><path d="M-623.2,1129.7q3.7,.2 3.7,2.6q0,.1 -6.2,12.1q-3.1,5.9 8.7,2.4" fill="none" stroke="#f0f0f0" stroke-width="1.3"></path><path d="M-609.9,1141.3q.6,6.1 2.5,5.4q2.2-1.1 3.9-2.2q1.5,1.1 2.7,3q.4,.7 2.2-1.7" fill="none" stroke="#f0f0f0" stroke-width="1.3"></path><path d="M-595.5,1144.4q.8,2.1 1.4,3.8" fill="none" stroke="#f0f0f0" stroke-width="1.3"></path><path d="M-595.5,1135.2q.1,.1 0,.1q-.1,0 -.1-.1q0-.1 .1-.1q.1,0 .1,.1" fill="none" stroke="#f0f0f0" stroke-width="1.3"></path><path d="M-588.7,1134.5q-1.6,11.8 -.2,14.4" fill="none" stroke="#f0f0f0" stroke-width="1.3"></path><path d="M-582.2,1133.1q-.6,12.3 -.6,12.3" fill="none" stroke="#f0f0f0" stroke-width="1.3"></path><path d="M-578,1141.3q.4,3.4 1,6.2" fill="none" stroke="#f0f0f0" stroke-width="1.3"></path><path d="M-573.9,1133.5q.1,.5 .6,2.7" fill="none" stroke="#f0f0f0" stroke-width="1.3"></path><path d="M-572.2,1137.9q0,11.1 1,10.3q5.8-4.9 7.5,1.7" fill="none" stroke="#f0f0f0" stroke-width="1.3"></path><path d="M-554.4,1141.3q-6.3,3.4 -4.5,5.5q2,0 3.8-.6q1.6-.6 2.3,6.4q.7,7.8 -9.9,4.5" fill="none" stroke="#f0f0f0" stroke-width="1.3"></path><path d="M-544.5,1144.1q.1-1.2 .1-2.3q-.3,4.3 -.8,12.3q-.1,2.1 -3.2-1.1q-1.4-2.8 -2.3-5.2" fill="none" stroke="#f0f0f0" stroke-width="1.3"></path><path d="M-531.5,1142.7q-1.5-2.8 -2.6,.2q1,4.3 2.8,7.9q.8,1.6 -1.8,.7q-6.3-2 -2.9-5.7" fill="none" stroke="#f0f0f0" stroke-width="1.3"></path><path d="M-524,1132.1q.1,9.8 0,17.8" fill="none" stroke="#f0f0f0" stroke-width="1.3"></path><path d="M-525.4,1144.1q3.2-.6 5.9-.7" fill="none" stroke="#f0f0f0" stroke-width="1.3"></path><path d="M-516.5,1142.3q1,5.7 1,5.6q.4-2.7 1.1-4.9" fill="none" stroke="#f0f0f0" stroke-width="1.3"></path><path d="M-506.5,1143.7q-1.6,4.3 .9,3.3q2.3-2 4-3.9q2.2,1.8 3.9,5.1" fill="none" stroke="#f0f0f0" stroke-width="1.3"></path><path d="M-490.8,1131.4q-1.1,9.6 .7,16.1" fill="none" stroke="#f0f0f0" stroke-width="1.3"></path><path d="M-485,1143q-5.2,.5 -4,3.5q1.6,.6 3.3,.6" fill="none" stroke="#f0f0f0" stroke-width="1.3"></path><path d="M-470.6,1127.6q-9.3,20.7 -7.6,19.9" fill="none" stroke="#f0f0f0" stroke-width="1.3"></path><path d="M-478.2,1144.1q3.6-1 6.5-1.8" fill="none" stroke="#f0f0f0" stroke-width="1.3"></path><path d="M-468.2,1140.6q-.3,7.6 3.8,6.3q2.2-2 3.7-4q.3,.8 .3,2.2" fill="none" stroke="#f0f0f0" stroke-width="1.3"></path><path d="M-457.3,1142.3q3.2,7.8 4.3,5.1q2.9-7.1 3.2-7.1" fill="none" stroke="#f0f0f0" stroke-width="1.3"></path><path d="M-445.3,1140.3q-.3,5.2 3.6,5.5q2.4-1.6 4.2-3.7q-.8,1.5 -2.5,4.1q2.2-.5 5.7-2.1q5.5-2.7 3.7,7.5" fill="none" stroke="#f0f0f0" stroke-width="1.3"></path><path d="M-1087.9,1307q5.5,6.9 9.9,12.6" fill="none" stroke="#f0f0f0" stroke-width="1.7"></path><path d="M-1076.6,1305.7q-21.3,14.2 -20.3,14.8" fill="none" stroke="#f0f0f0" stroke-width="1.7"></path><path d="M-1060,1303.9q-3.4,9 -.7,10q10.5,4.2 2.5,8.4q-3.9-1 -7.2-3.1" fill="none" stroke="#f0f0f0" stroke-width="1.7"></path><path d="M-1063.6,1300.7q24.5-3.5 23-1.8" fill="none" stroke="#f0f0f0" stroke-width="1.7"></path><path d="M-1022.2,1302.5q2.4-.9 2.3-.7q-3.6,5.4 -6.9,9.5q-4.3,5.5 1.2,12.7q2,2.5 10.1-1.2" fill="none" stroke="#f0f0f0" stroke-width="1.7"></path><path d="M-1008.3,1312.4q1.1,6 2.1,11q.5-1.5 .9-4.3q2.2-3.3 4.7-5.8" fill="none" stroke="#f0f0f0" stroke-width="1.7"></path><path d="M-982.6,1324.1q5.5-16 6.9-14.6q2.9,4.8 4.9,9.1q1.4,3.3 5.7-10.2" fill="none" stroke="#f0f0f0" stroke-width="1.8"></path><path d="M-956.1,1315.1q-.9,5 -1.8,9" fill="none" stroke="#f0f0f0" stroke-width="1.7"></path><path d="M-955.6,1302.5q.2-.5 .4-.9" fill="none" stroke="#f0f0f0" stroke-width="1.7"></path><path d="M-938.5,1323.7q5.6-13 10-23.8q1.1,8.3 .6,23.2q2.9-4.6 6.7-13.5q2.3,3.5 4.2,10" fill="none" stroke="#f0f0f0" stroke-width="1.7"></path><path d="M-914.7,1321.9q1.5-7.6 7.9-8.3q6.6-.7 4.3,9q-.7,3 -5.4,1.4q-.4-2.1 -.1-4.4" fill="none" stroke="#f0f0f0" stroke-width="1.7"></path><path d="M-867.9,1313.3q8.9-4.6 11.7-3q1.7,6.5 1.3,12.9" fill="none" stroke="#f0f0f0" stroke-width="1.7"></path><path d="M-841,1304.8q7.5,2 9.3,9.1q.4,1.7 -1.6,8.4" fill="none" stroke="#f0f0f0" stroke-width="1.7"></path><path d="M-836,1315.1q3.7-.7 6.7-1.3" fill="none" stroke="#f0f0f0" stroke-width="1.7"></path><path d="M-818,1314.2q5.7-.5 10.3-.9" fill="none" stroke="#f0f0f0" stroke-width="1.7"></path><path d="M-792.8,1312q11.5-8.6 12.5-6q1.5,6.2 2.3,11.4" fill="none" stroke="#f0f0f0" stroke-width="1.7"></path><path d="M-772.1,1309.3q10,.6 9.5,5.6q-.7,6.2 7.5,4.7" fill="none" stroke="#f0f0f0" stroke-width="1.7"></path><path d="M-744.3,1314.2q10.9-1.7 11.7-.9" fill="none" stroke="#f0f0f0" stroke-width="1.7"></path><path d="M-724.9,1307q6.5-1.8 9.1,.5q-1.1,4.8 -4.2,9.1q5,2.2 12.6,2.6" fill="none" stroke="#f0f0f0" stroke-width="1.7"></path><path d="M-1059.1,1337.2q.8,1.6 -1.5,8.4q-9.6,29.5 -11.4,33q-1.2,.2 -2.3,0q-.4-.1 4.4-1.9q3.9-.6 7.2-.9" fill="none" stroke="#f0f0f0" stroke-width="1.7"></path><path d="M-1089.5,1409.6q-3.6,2.5 -3.8,7.7q-.2,4.7 7.2,3.5q4.1-.6 2.4-7.3q-.1-.4 -1.4-1.4" fill="none" stroke="#f0f0f0" stroke-width="1.5"></path><path d="M-1075.1,1420.6q-2.7,3.7 -4.7,7.2" fill="none" stroke="#f0f0f0" stroke-width="1.5"></path><path d="M-1071.6,1419.5q2.2-7.4 6.9-5.3q4.9,2.1 1.7,6.7q-1,1.3 -4.5,.1q0-1.1 .4-2.3" fill="none" stroke="#f0f0f0" stroke-width="1.5"></path><path d="M-1053.3,1411.9q-4.2,5.6 -1.1,6.5q3.8,1.2 4,2.3q.3,1.6 -4.9,2.2" fill="none" stroke="#f0f0f0" stroke-width="1.5"></path><path d="M-1056.8,1411.5q5.9-1.3 10.7-2.3" fill="none" stroke="#f0f0f0" stroke-width="1.5"></path><path d="M-1029.4,1408.1q-3.7,22.9 -4.5,17.9" fill="none" stroke="#f0f0f0" stroke-width="1.5"></path><path d="M-1038.1,1409.2q.2,0 1.1,0" fill="none" stroke="#f0f0f0" stroke-width="1.5"></path><path d="M-1021,1427.1q-.4-.6 -.7-1.1" fill="none" stroke="#f0f0f0" stroke-width="1.5"></path><path d="M-1003.1,1412.3q-5.9,6.9 -4.8,11.3q.7,2.8 9.4,1.6" fill="none" stroke="#f0f0f0" stroke-width="1.5"></path><path d="M-1026.7,1340.1q8.7-.5 15.9-.9" fill="none" stroke="#f0f0f0" stroke-width="1.7"></path><path d="M-1016.8,1340.5q-2.5,20.3 .4,22.8q10.8,1.5 20.4,.5q6.4-.7 102.3,1.4q43.8,1 62.5,2.6q3.6,.8 6.6,1.6q-.1-4.3 -2.4-10.2q-1.4-3.6 -1.3-18.9" fill="none" stroke="#f0f0f0" stroke-width="1.7"></path><path d="M-832.9,1340.5q-5.3-1.8 -3-1.8q9.5,1.5 17.2,3.1" fill="none" stroke="#f0f0f0" stroke-width="1.7"></path><path d="M-883.6,1386.5q.2-3.9 -1.4-1.8q-5.8,7.3 5.3,11.7" fill="none" stroke="#f0f0f0" stroke-width="1.7"></path><path d="M-875,1391.2q-.4,6.7 0,5.9q5-5.6 9.5-9.8" fill="none" stroke="#f0f0f0" stroke-width="1.7"></path><path d="M-979.8,1333.6q10.1-1.3 18.4-2.1" fill="none" stroke="#f0f0f0" stroke-width="1.7"></path><path d="M-712.5,1383q10-15.2 9.2-7q-.5,4.7 1.7,3.8q2.4-2.1 4-4.3q2.5,.9 4.8,2.8" fill="none" stroke="#f0f0f0" stroke-width="1.7"></path><path d="M-688,1380.9q2.3-4.7 7.8-4.1q3.3,.4 2.4,3.6q-.3,1.3 -11.5,.1" fill="none" stroke="#f0f0f0" stroke-width="1.7"></path><path d="M-910.2,1413.5q-11.4,29.8 -20.4,54.2" fill="none" stroke="#f0f0f0" stroke-width="1.7"></path><path d="M-936,1460.4q.5,6.3 4.1,8.7q7.5-1 13.9-4" fill="none" stroke="#f0f0f0" stroke-width="1.7"></path><path d="M-981.1,1502.5q-1.2,11.3 -2.2,20.6" fill="none" stroke="#f0f0f0" stroke-width="1.7"></path><path d="M-983.7,1508.9q3.4-3.6 5.5-1.2q.7,7.5 -.5,14.3q2.8,0 6.6-1.5" fill="none" stroke="#f0f0f0" stroke-width="1.7"></path><path d="M-969.5,1519.3q1.5-6.3 7.2-6q2.8,.2 .7,5.2q-.8,2 -6.2,2.5" fill="none" stroke="#f0f0f0" stroke-width="1.7"></path><path d="M-954.5,1512.4q-3.7,.3 -2.8,4.7q1.7,7.6 -.5,7.3q-1.1-1.4 -1.8-3" fill="none" stroke="#f0f0f0" stroke-width="1.7"></path><path d="M-951.1,1503.8q4.1,20.2 3.1,20.6" fill="none" stroke="#f0f0f0" stroke-width="1.7"></path><path d="M-951.9,1519.7q1.2-.1 6-.4" fill="none" stroke="#f0f0f0" stroke-width="1.7"></path><path d="M-935.2,1502.5q-1.9,22.6 1.3,23.2" fill="none" stroke="#f0f0f0" stroke-width="1.7"></path><path d="M-940.3,1519.7q2.8-1 5.1-1.7" fill="none" stroke="#f0f0f0" stroke-width="1.7"></path><path d="M-933.9,1516.3q6.6,6.6 3.3,7.1q.4-3.5 2.8-8" fill="none" stroke="#f0f0f0" stroke-width="1.7"></path><path d="M-921,1519.3q3.1-6.9 .4-5q-2.9,2.2 4.8,8.8" fill="none" stroke="#f0f0f0" stroke-width="1.7"></path><path d="M-911.9,1519.3q.1,2.4 .4,4.3" fill="none" stroke="#f0f0f0" stroke-width="1.7"></path><path d="M-911.1,1506.4q-.2-.3 -.4-.5" fill="none" stroke="#f0f0f0" stroke-width="1.7"></path><path d="M-809.2,1410.5q-1,9.7 .6,34.3q.7,12.1 -2.6,38.4q-.2,1.3 2.4-6.1" fill="none" stroke="#f0f0f0" stroke-width="1.7"></path><path d="M-817,1471.6q.5,8.8 6.2,11.7q1.7,.9 9.3-7.4" fill="none" stroke="#f0f0f0" stroke-width="1.7"></path><path d="M-819.6,1504.6q-6.8-1.6 -4.4,4.5q3.1,6.6 5.8,12q1.6,3.1 -3.5,.2q-2.4-3 -3.9-5.9" fill="none" stroke="#f0f0f0" stroke-width="1.7"></path><path d="M-806.7,1497.8q-.7,25 1.3,24.9" fill="none" stroke="#f0f0f0" stroke-width="1.7"></path><path d="M-807.1,1514.5q12.5-2.7 10.2-2.6q-5.3,.2 -2.9,4.7q1.4,2.6 5.8-3.1q.4-.8 .5-1.6q.2-.9 1.5,4.4" fill="none" stroke="#f0f0f0" stroke-width="1.7"></path><path d="M-783,1493.9q0,21.2 0,21.1q2.7-4.2 6.3,.2q1.3,1.6 -2.5,4.2q-1.7-1 -3-2.7" fill="none" stroke="#f0f0f0" stroke-width="1.7"></path><path d="M-771.4,1513.7q.2,4.5 .4,8.1" fill="none" stroke="#f0f0f0" stroke-width="1.7"></path><path d="M-771.8,1500.4q0,.4 0,.8" fill="none" stroke="#f0f0f0" stroke-width="1.7"></path><path d="M-761.1,1499.1q1.4,12.8 2.6,23.2" fill="none" stroke="#f0f0f0" stroke-width="1.7"></path><path d="M-752.9,1515q-.3,3.3 -.5,6" fill="none" stroke="#f0f0f0" stroke-width="1.7"></path><path d="M-752.5,1496.9q-.4,.1 -2.2,.4" fill="none" stroke="#f0f0f0" stroke-width="1.7"></path><path d="M-731.9,1508.5q-6.7-.4 -10.8,2q-2.9,1.8 6.7,11.8q2.5,2.6 -2.7,2.1q-1.6-.1 -7.8-2.6" fill="none" stroke="#f0f0f0" stroke-width="1.7"></path><path d="M-727.6,1511.5q-3.9,3.9 -3.2,7.1q.6,3.1 6,1.9q1.5-2.9 1.9-6" fill="none" stroke="#f0f0f0" stroke-width="1.7"></path><path d="M-722.9,1514.1q.2,3.5 1.2,5q3.1,1.6 6.1,2.3" fill="none" stroke="#f0f0f0" stroke-width="1.7"></path><path d="M-702.2,1493.5q-6.5,22.5 -6.9,27" fill="none" stroke="#f0f0f0" stroke-width="1.7"></path><path d="M-711.7,1515.8q2.9-.9 5.2-1.7" fill="none" stroke="#f0f0f0" stroke-width="1.7"></path><path d="M-697.9,1513.7q-.3,5.2 -.9,9.4" fill="none" stroke="#f0f0f0" stroke-width="1.7"></path><path d="M-698.8,1502.5q.3,.1 1.7,.4" fill="none" stroke="#f0f0f0" stroke-width="1.7"></path><path d="M-690.6,1516.7q2.9-7 7.5-5.1q5.8,2.3 -2.5,10.1q-3.4,3.3 -6.3-.7" fill="none" stroke="#f0f0f0" stroke-width="1.7"></path><path d="M-826.9,1386q6.6-5.5 8.6-3.1q1.3,5.5 1.3,10.4" fill="none" stroke="#f0f0f0" stroke-width="1.7"></path><path d="M-812.7,1383.5q4-1.6 4.9,.2q.3,3.9 -.1,7.2q1.9,.7 4.3,.7" fill="none" stroke="#f0f0f0" stroke-width="1.7"></path><path d="M-802.4,1380.5q.2,.1 .5,.4" fill="none" stroke="#f0f0f0" stroke-width="1.7"></path><path d="M-792,1380.5q-3.2,7.3 -5.6,13.3" fill="none" stroke="#f0f0f0" stroke-width="1.7"></path><path d="M-791.6,1393.3q-.2-.2 -.4-.4" fill="none" stroke="#f0f0f0" stroke-width="1.7"></path><path d="M-782.6,1395.1q2.8-12.1 2.8-9.6q-.1,7.1 6.1,9.2q.7-4.3 -.7-10.4" fill="none" stroke="#f0f0f0" stroke-width="1.7"></path><path d="M-768.8,1389q.2,2.4 .4,4.3" fill="none" stroke="#f0f0f0" stroke-width="1.7"></path><path d="M-767.6,1381.3q.3-.4 .5-.8" fill="none" stroke="#f0f0f0" stroke-width="1.7"></path><path d="M-931.3,1334.9q11.3-.4 20.6-.4" fill="none" stroke="#f0f0f0" stroke-width="1.7"></path><path d="M-920.1,1335.8q-2.9,8.6 .5,8.8q10.7,.6 56-.3q56.7-1.1 102.9,3.8q28.5,3 55.7,.8q2.8,.4 5,1q-.7-.4 -2-1q-.8-7 1.1-14.4" fill="none" stroke="#f0f0f0" stroke-width="1.7"></path><path d="M-723.3,1331.9q6.8-2.2 25.2-1.7q7.6,.1 8.3,.8" fill="none" stroke="#f0f0f0" stroke-width="1.7"></path><path d="M-778.7,1328.9q13.9-1.5 20.6,0" fill="none" stroke="#f0f0f0" stroke-width="1.7"></path><path d="M-969.1,1334q-.1,13.6 1.4,13.3q15.5,1.3 28.2,4q4.8,1 69.7,3.7q31.4,1.3 90.5-.5q7.1-.2 7.3-.7q4.2-12.4 .9-21.7" fill="none" stroke="#f0f0f0" stroke-width="1.7"></path><path d="M-937.3,1389q4.7-7.8 7-4.7q.3,8.5 -1.4,15.9q1.1-.3 2.6-1.3" fill="none" stroke="#f0f0f0" stroke-width="1.7"></path><path d="M-923.5,1383.5q3.8-1.7 6.5,0q-.2,8.7 -3.5,17.1" fill="none" stroke="#f0f0f0" stroke-width="1.7"></path><path d="M-921,1394.2q2.6-1.2 4.8-2.1" fill="none" stroke="#f0f0f0" stroke-width="1.7"></path><path d="M-904.2,1380.9q-.5,.2 -.9,.4" fill="none" stroke="#f0f0f0" stroke-width="1.7"></path><path d="M-896,1381.7q-7,13.5 -6.5,15.9" fill="none" stroke="#f0f0f0" stroke-width="1.7"></path><path d="M-898.2,1398.5q.7,0 1.3,0" fill="none" stroke="#f0f0f0" stroke-width="1.7"></path><path d="M-1021.7,1233.2q-.5-2.5 -3.2-1.3q-3,1.3 4.9,13q2.9,4.2 -7.4,.9q-4.8-1.5 -.1-3" fill="none" stroke="#f0f0f0" stroke-width="1.3"></path><path d="M-1010.7,1229q-2.3,12.9 -.3,17" fill="none" stroke="#f0f0f0" stroke-width="1.3"></path><path d="M-1013.3,1240.2q5.2,1.1 9.4,2" fill="none" stroke="#f0f0f0" stroke-width="1.3"></path><path d="M-995.6,1241.2q-5.7,.2 -4.9,3.8q.8,3.2 5.1-.9q.6-1.5 .8-2.8q.5,.5 1.1,1.6q2.5,1.4 5,2.2" fill="none" stroke="#f0f0f0" stroke-width="1.3"></path><path d="M-986.2,1229.9q-.3,19.5 .9,17.7q3.2-5.1 5.4-5.2q1.5-.1 2.4,3" fill="none" stroke="#f0f0f0" stroke-width="1.3"></path><path d="M-971.4,1228q0,20.7 1.6,21.9" fill="none" stroke="#f0f0f0" stroke-width="1.3"></path><path d="M-960.1,1229q-.6,11.1 -.3,17.9q.6-1.4 1.3-4.1q.6-2.5 5.9-.9q4.5,1.3 -.7,4.6q-.9,.6 -5.3,.5" fill="none" stroke="#f0f0f0" stroke-width="1.3"></path><path d="M-950.1,1242.8q7.3-1.8 6.4-1.1q-4.7,3.2 2.4,5.4q2.9-.2 5.3-.7" fill="none" stroke="#f0f0f0" stroke-width="1.3"></path><path d="M-937.2,1241.5q7-.3 6.1,2.8q-.8,1.9 -1.5,3.5q2.4,.6 5.7,.2" fill="none" stroke="#f0f0f0" stroke-width="1.3"></path><path d="M-921.8,1244.4q10.8-2 11-3.1q.5-2.5 -5.7,2.2q-2.5,1.8 -.2,5.3q2.8,0 5.6-1.1" fill="none" stroke="#f0f0f0" stroke-width="1.3"></path><path d="M-907.6,1243.5q.5,2.5 1,4.5" fill="none" stroke="#f0f0f0" stroke-width="1.3"></path><path d="M-906.6,1233.5q0,.3 0,.6" fill="none" stroke="#f0f0f0" stroke-width="1.3"></path><path d="M-897,1241.2q-5.5,5.5 -2,9.1q1.1,1.2 8.8-5.9" fill="none" stroke="#f0f0f0" stroke-width="1.3"></path><path d="M-887.6,1225.1q-2.8,15.8 -1.5,24.3q.7-1.4 1.3-4.1q1.2-4.4 6,.4" fill="none" stroke="#f0f0f0" stroke-width="1.3"></path><path d="M-872.8,1241.5q-4.5,6.7 -2.9,7.7q2.5-2.7 3.9-6.9q1.2-3.4 4.7,5.1q1.1,2.1 2,3.8" fill="none" stroke="#f0f0f0" stroke-width="1.3"></path><path d="M-838.3,1239.9q-5.4,10.8 -4,9.2q3.2-3.7 5.8-6.8q1.8-2 3.3,8.6" fill="none" stroke="#f0f0f0" stroke-width="1.3"></path><path d="M-821.6,1242.2q-6.9,3.6 -5.8,7.7q1.8-1.1 3.7-3.7q1.6-2.2 3.5,5.9q2.4,10.1 -5.6,7.6q-1.1-.3 -1.6-5.6" fill="none" stroke="#f0f0f0" stroke-width="1.3"></path><path d="M-811.9,1243.5q-.2-.8 -.5-.3q-2.8,5.1 5.3,6.6q5,1 5.5-9.1q-1.2,2.7 -2.8,7.7q1.8-.6 4.3-2.3q2.5-1.8 6.4,2.5q.6,2 .8,3.9" fill="none" stroke="#f0f0f0" stroke-width="1.3"></path><path d="M-858.9,1239.9q-.9,6 3.8,6.8q2,.4 3-5.8q1.5,1.1 3.2,3.5" fill="none" stroke="#f0f0f0" stroke-width="1.3"></path><path d="M-727.7,1511.7q.5-1.2 2.3,4" fill="none" stroke="#f0f0f0" stroke-width="1.3"></path><path d="M-674.4,1511.1q.2,5.2 .3,9.4q.9-.9 1.9-2.8q1.1-2.1 5.2,.2q1.7,4.1 2.2,8.2" fill="none" stroke="#f0f0f0" stroke-width="1.3"></path><path d="M-682.8,1398.7q15.7,21.9 22.1,38.2q1.5,3.9 5.9,5.1q.2,0 .7-.9" fill="none" stroke="#f0f0f0" stroke-width="1.3"></path><path d="M-667.1,1435.1q4.8,8.3 10,8.8q2,.2 10.3-10.8" fill="none" stroke="#f0f0f0" stroke-width="1.3"></path><path d="M-622.1,1442.1q-1,12.4 .3,12.6" fill="none" stroke="#f0f0f0" stroke-width="1.3"></path><path d="M-613.1,1445.4q-7.6,5.1 -4.5,8.5" fill="none" stroke="#f0f0f0" stroke-width="1.3"></path><path d="M-610.4,1451.7q8.4-2.7 10.3,.6q.6,.9 -3.6,1q-2.1-.4 -3.7-.9" fill="none" stroke="#f0f0f0" stroke-width="1.3"></path><path d="M-598.4,1448.7q4.1,7.7 3,6.7q.5-3 2-5.7" fill="none" stroke="#f0f0f0" stroke-width="1.3"></path><path d="M-589.4,1449.7q1.3,6.9 .6,5.3q.2-2.3 .7-4.3" fill="none" stroke="#f0f0f0" stroke-width="1.3"></path><path d="M-581.4,1451.7q.6,5.2 1.3,3.4" fill="none" stroke="#f0f0f0" stroke-width="1.3"></path><path d="M-579.8,1443.1q.2,.2 .4,.3" fill="none" stroke="#f0f0f0" stroke-width="1.3"></path><path d="M-569.8,1448.7q-2.5-1.1 -1.9,.5q1.6,5.1 1.5,5.5q-.4,1.3 -3.7,.7q-.4-.1 -1.2-1.7" fill="none" stroke="#f0f0f0" stroke-width="1.3"></path><path d="M-565.8,1453.7q2-4.6 5-3q2.9,1.6 -1.1,3.2q-1.1-.6 -1.9-1.5" fill="none" stroke="#f0f0f0" stroke-width="1.3"></path><path d="M-556.8,1450.4q-1.2,2.9 -.5,2.3q2.4-1.9 5.4-.3q1.5,.6 2.8,1" fill="none" stroke="#f0f0f0" stroke-width="1.3"></path><path d="M-545.1,1449.7q-.2-.4 -.4-.7q.5,2.5 1.8,6.9q.1,.6 -3.1,.5" fill="none" stroke="#f0f0f0" stroke-width="1.3"></path><path d="M-535.4,1449.7q-1.8,1 -1.2,2.8q1.7,4.8 -4.8,2.2" fill="none" stroke="#f0f0f0" stroke-width="1.3"></path><path d="M-529.4,1451.4q-5.8,1.2 -3.7,3.1q.8,.6 5-.1" fill="none" stroke="#f0f0f0" stroke-width="1.3"></path><path d="M-526.4,1443.1q-.2,6.6 -.4,12.1q1.2-1.1 2.8-3.3q1-1.6 5.7,1q.6,.3 1.2-.5" fill="none" stroke="#f0f0f0" stroke-width="1.3"></path><path d="M-516.8,1451.7q1.8,2 3.4,3.4" fill="none" stroke="#f0f0f0" stroke-width="1.3"></path><path d="M-511.1,1452.4q1.8,1.1 3.3,2" fill="none" stroke="#f0f0f0" stroke-width="1.3"></path><path d="M-500.8,1443.4q-1.1,14.4 -2.6,15" fill="none" stroke="#f0f0f0" stroke-width="1.3"></path><path d="M-505.4,1452.1q1.8-.2 3.3-.4" fill="none" stroke="#f0f0f0" stroke-width="1.3"></path><path d="M-499.8,1450.7q4.9,.4 4.6,3.2q-.3,3 2.8,3.8" fill="none" stroke="#f0f0f0" stroke-width="1.3"></path><path d="M-460.1,1444.3q-1.9-1.7 -3.5,2.3q-1.2,3.1 .8,10.3" fill="none" stroke="#f0f0f0" stroke-width="1"></path><path d="M-467.2,1454.1q6.5-.2 7.1,0" fill="none" stroke="#f0f0f0" stroke-width="1"></path><path d="M-456.3,1453q-.2,2.1 1.9,2.7q2.6,.1 4.7,0" fill="none" stroke="#f0f0f0" stroke-width="1"></path><path d="M-456.3,1447.2q.4,.1 1.8,.5" fill="none" stroke="#f0f0f0" stroke-width="1"></path><path d="M-449.2,1448.8q.1,.1 0,.1q-.1,0 -.1-.1q0-.1 .1-.1q.1,0 .1,.1" fill="none" stroke="#f0f0f0" stroke-width="1"></path><path d="M-443,1451.7q.3,3 .7,5.5q1.1-1.9 2.2-5.5" fill="none" stroke="#f0f0f0" stroke-width="1"></path><path d="M-418.8,1440.3q.7,15.9 .2,15.7" fill="none" stroke="#f0f0f0" stroke-width="1"></path><path d="M-412.2,1447.5q-2.3,2.9 -2.2,4.6q1,1.6 2.2,2.8" fill="none" stroke="#f0f0f0" stroke-width="1"></path><path d="M-410.9,1454.1q.6-2.9 3.1-3.8q3.4-1.3 3.4,4.2q0,1.6 -3,1.7q-.9-.6 -1.6-1.3" fill="none" stroke="#f0f0f0" stroke-width="1"></path><path d="M-401,1449.3q3.4,9.4 .6,6.5q-.5-2.7 -.3-5.1" fill="none" stroke="#f0f0f0" stroke-width="1"></path><path d="M-396.2,1450.1q1.4,7.4 .5,6.5q-.1-3 .5-5.7" fill="none" stroke="#f0f0f0" stroke-width="1"></path><path d="M-389.8,1450.1q0,3.1 0,5.6" fill="none" stroke="#f0f0f0" stroke-width="1"></path><path d="M-389,1445.9q.3,.4 .5,.8" fill="none" stroke="#f0f0f0" stroke-width="1"></path><path d="M-382.4,1448.5q-.9,1.3 0,6.1q1.1,5.1 -5.8,.8" fill="none" stroke="#f0f0f0" stroke-width="1"></path><path d="M-377.9,1451.7q1.1,4.7 .6,4.3" fill="none" stroke="#f0f0f0" stroke-width="1"></path><path d="M-376.8,1444.8q.1,.2 .3,.8" fill="none" stroke="#f0f0f0" stroke-width="1"></path><path d="M-369.6,1455.2q-.7-6.4 .3-6.4q1.4,0 -.4,4.5q-.8,2 -2.3,.8" fill="none" stroke="#f0f0f0" stroke-width="1"></path><path d="M-365.9,1449.9q-.9,4.9 -.2,4.3q2.4-1.7 2.9-1.9q1,.7 1.8,1.8" fill="none" stroke="#f0f0f0" stroke-width="1"></path><path d="M-355.5,1450.9q-2.6,.8 -1.7,3.6q.7,2.2 -3.9,3.1" fill="none" stroke="#f0f0f0" stroke-width="1"></path><path d="M-346.1,1450.4q-3.6,1.3 -3.1,4.6q1.4-.8 3.1-2.5q.6-.8 1.7,3.2q1.1,4.3 -2.9,5.1q-.7-1.2 -.9-2.8" fill="none" stroke="#f0f0f0" stroke-width="1"></path><path d="M-341.2,1451.5q1.2,7 1.2,6.8q1-3.5 1.7-6.5" fill="none" stroke="#f0f0f0" stroke-width="1"></path><path d="M-331.5,1452.8q-1-1.8 -1.9,.6q-1,2.4 2.1,2.9q.7,.2 2.7-2.1" fill="none" stroke="#f0f0f0" stroke-width="1"></path><path d="M-326.7,1450.7q-.9,7.6 -.8,7.2q1.6-5 3.2-3.6q1.7,2 3,3.7" fill="none" stroke="#f0f0f0" stroke-width="1"></path><path d="M-318.9,1451.2q4.7,.8 4.7,2.7q-.7,2 -1.5,3.6q-.4,.7 3.9-.1" fill="none" stroke="#f0f0f0" stroke-width="1"></path><path d="M-310,1454.7q5.8-3 4-2.8q-3.3,.4 -1.1,3.9q2,3.3 4.4-.8" fill="none" stroke="#f0f0f0" stroke-width="1"></path><path d="M-301.9,1453.1q-1.1,2.4 -2,4.3q1.3-.6 3.3-2.2q7.8,1.8 14.6,6" fill="none" stroke="#f0f0f0" stroke-width="1"></path><path d="M-736.2,1372q2-1.2 3.2-.3q.1,3.1 -.9,6.1q-.7,1.9 5.2,1.2" fill="none" stroke="#f0f0f0" stroke-width="1"></path><path d="M-727.4,1371.2q-.7-.5 -1-.4" fill="none" stroke="#f0f0f0" stroke-width="1"></path><path d="M-721.4,1368.3q-7.1,11 -5.8,10.2" fill="none" stroke="#f0f0f0" stroke-width="1"></path><path d="M-717.7,1378q-.2,.2 -1.2,1" fill="none" stroke="#f0f0f0" stroke-width="1"></path><path d="M-1087.3,1595.9q2.6-.4 10.3-15.6q.9,2.6 1.3,7.1q1.3,4.9 2.7,8.8" fill="none" stroke="#f0f0f0" stroke-width="1.3"></path><path d="M-1079.8,1594.2q1.9-.6 3.4-1" fill="none" stroke="#f0f0f0" stroke-width="1.3"></path><path d="M-1063.5,1578.9q-.7,15.6 1.7,19.4" fill="none" stroke="#f0f0f0" stroke-width="1.3"></path><path d="M-1059.7,1588.7q0,5.9 3.6,7.3q2.7,1.1 4.5-4.9q2.9,.9 5.9,3.4" fill="none" stroke="#f0f0f0" stroke-width="1.3"></path><path d="M-1042,1588.4q-.5,5.3 1,5.8q1-1.2 1.5-2.9q2,.8 4.2,2.7q1.5-.9 2.8-2.5q2.5,1 4.8,3.4" fill="none" stroke="#f0f0f0" stroke-width="1.3"></path><path d="M-1024.3,1592.8q2.2,2.4 2.1,2.4" fill="none" stroke="#f0f0f0" stroke-width="1.3"></path><path d="M-1023.9,1581.2q.1-.5 .3-2.3" fill="none" stroke="#f0f0f0" stroke-width="1.3"></path><path d="M-1014.7,1587.4q-.1,5 0,9.1q.7-1.6 1.5-4.6q1-3.9 6.7,3.7" fill="none" stroke="#f0f0f0" stroke-width="1.3"></path><path d="M-1004.2,1592.5q1.3,2.3 5.2,3.4" fill="none" stroke="#f0f0f0" stroke-width="1.3"></path><path d="M-1000.1,1582.9q.8-.2 1.4-.3" fill="none" stroke="#f0f0f0" stroke-width="1.3"></path><path d="M-986.1,1590.4q-2,4.7 .1,5.9q2.7,1.6 6.1-3.2q.2-.9 .2-1.7q2.8,.9 6.2,3.5" fill="none" stroke="#f0f0f0" stroke-width="1.3"></path><path d="M-955.8,1585.3q-1.8,4.5 -3.2,8.2q.9-1.3 2.4-3.9q2.3-3.9 5.6,2.3q.1,1.1 0,2.1q1-1.4 2.2-4.3q3-6.6 10.4,7.2" fill="none" stroke="#f0f0f0" stroke-width="1.3"></path><path d="M-1087.9,1633.8q1.9,6.1 2.2,12.5" fill="none" stroke="#f0f0f0" stroke-width="1.3"></path><path d="M-1085.3,1634.8q5.9-.4 10.8-.6" fill="none" stroke="#f0f0f0" stroke-width="1.3"></path><path d="M-1085,1641.4q5.2-1.3 9.5-2.3" fill="none" stroke="#f0f0f0" stroke-width="1.3"></path><path d="M-1085.3,1646.6q2.7,.5 4.9,1" fill="none" stroke="#f0f0f0" stroke-width="1.3"></path><path d="M-1065.7,1647.2q4.1-16.5 6-10.4q1.6,5.5 2.8,10.1q.5,0 1.1-.3q1.1-4.8 .4-9.7q.3-1 .8-1.8" fill="none" stroke="#f0f0f0" stroke-width="1.3"></path><path d="M-1047.4,1642q5.9-.3 10.8-.6" fill="none" stroke="#f0f0f0" stroke-width="1.3"></path><path d="M-1011.4,1646.3q8.8-14.6 11-10.8q3,5.2 .2,13.7" fill="none" stroke="#f0f0f0" stroke-width="1.3"></path><path d="M-1006.1,1643.6q1.2-.1 6.2-.3" fill="none" stroke="#f0f0f0" stroke-width="1.3"></path><path d="M-986.8,1634.8q.9,15.4 2.5,12.3q1.7-3.4 2.5-3.7q4-.8 7.3-1q3.5-3.5 5.7-7.6" fill="none" stroke="#f0f0f0" stroke-width="1.3"></path><path d="M-954.4,1636.1q5.9-1.6 8.8,.9q.4,5.1 -.7,9.9q-.6,2.5 5.6,0" fill="none" stroke="#f0f0f0" stroke-width="1.3"></path><path d="M-936.8,1641q-.2-3.2 2.3-4.2q4.6-1.7 7.3,5.8q1,2.6 -3.5,2.1q-.7-.1 -2.5-2.4" fill="none" stroke="#f0f0f0" stroke-width="1.3"></path><path d="M-921,1636.4q5.2-.4 8.5,1.6q3.4,2.2 -.6,7.4q-1.7,2.2 6.5,.2" fill="none" stroke="#f0f0f0" stroke-width="1.3"></path><path d="M-893.9,1635.5q-6.7,2.1 -6.7,6.4q0,2.4 3.8,.8" fill="none" stroke="#f0f0f0" stroke-width="1.3"></path><path d="M-894.5,1635.5q.1,7.5 .3,13.7" fill="none" stroke="#f0f0f0" stroke-width="1.3"></path><path d="M-869.7,1642.1q8.2-3.1 11.9-.3" fill="none" stroke="#f0f0f0" stroke-width="1"></path><path d="M-829.3,1639.4q-2.4,1.2 -3.4,4.1q-.3,.9 .7,4.7" fill="none" stroke="#f0f0f0" stroke-width="1"></path><path d="M-836.2,1635.4q15-2 13.8,0" fill="none" stroke="#f0f0f0" stroke-width="1"></path><path d="M-812.6,1634.9q-3.6,9.8 -.7,12.2q1.6,1.3 3-2.5q.9-2.1 -3.9-2" fill="none" stroke="#f0f0f0" stroke-width="1"></path><path d="M-1075.3,1658.4q-13,16.7 -37.4,39q-14.8,12.9 -26.9,23.3q-.5,.3 -1,.6" fill="none" stroke="#f0f0f0" stroke-width="1.1"></path><path d="M-1144.8,1717.6q-.1,3 2.5,3.7q7.6-.9 13.9-2.7" fill="none" stroke="#f0f0f0" stroke-width="1.1"></path><path d="M-1217.2,1735.8q-1.2,8.2 .1,10.3" fill="none" stroke="#f0f0f0" stroke-width="1.1"></path><path d="M-1218,1735.8q11.5-5 8.6-2.3" fill="none" stroke="#f0f0f0" stroke-width="1.1"></path><path d="M-1219.2,1739.8q4.9-.9 9-1.6" fill="none" stroke="#f0f0f0" stroke-width="1.1"></path><path d="M-1219.8,1745.3q8.4-.3 8.2-.8" fill="none" stroke="#f0f0f0" stroke-width="1.1"></path><path d="M-1208.2,1740.6q-1.1,3.1 .4,5q2.5,3.1 3.6-3.3q-.1-.5 -.1-1q.7,.8 1.7,2.4" fill="none" stroke="#f0f0f0" stroke-width="1.1"></path><path d="M-1198.5,1741.3q1.2,5.3 1.6,3.1q.8-5.1 1-4.3" fill="none" stroke="#f0f0f0" stroke-width="1.1"></path><path d="M-1191.9,1745.3q-1.1-3.8 1.7-4.6q2.5-.7 1.6,3.1q-.5,2.3 -2.9-.4" fill="none" stroke="#f0f0f0" stroke-width="1.1"></path><path d="M-1187.1,1743.8q2.3-4.7 5.5-3.9q3,.7 .9,3.4q-2,.9 -3.9,1.2q-1.7,.2 -1.4,4.1q.1,.6 1.6,2.1" fill="none" stroke="#f0f0f0" stroke-width="1.1"></path><path d="M-1176.1,1746q-.6,1.4 -1.1,2.6" fill="none" stroke="#f0f0f0" stroke-width="1.1"></path><path d="M-1166.7,1746.3q3.6-7.4 4.6-7.5q.1,0 2.6,6.7q1.1,2.9 2.5-.3q.4-4.6 .1-8.5" fill="none" stroke="#f0f0f0" stroke-width="1.1"></path><path d="M-1153,1745.7q2-4.6 5.8-2.9q3.4,1.5 -1.3,3.2q-2.2,.2 -4,.3" fill="none" stroke="#f0f0f0" stroke-width="1.1"></path><path d="M-1145.8,1745.6q1.3,2.9 2.2,5.4q.2-1.5 0-4q0-1 1.8-4.6" fill="none" stroke="#f0f0f0" stroke-width="1.1"></path><path d="M-1135.8,1743.5q-.1,5.3 .3,3.6q1.2-5.8 4.2-.6q.2,.4 .2,.8q1.1-1.3 2.2-3.9q1.1-2.4 5.5,.6q.8,.6 2.4,4.6" fill="none" stroke="#f0f0f0" stroke-width="1.1"></path><path d="M-1009.3,1661.6q-17.9,29.5 -28.8,63.4q-9.8,30.1 -15.5,42.2q-7.6,13.9 -14.1,25.1" fill="none" stroke="#f0f0f0" stroke-width="1.1"></path><path d="M-1073.5,1787.2q2,12.1 7.6,11.3q5.3-4.3 9-9.1" fill="none" stroke="#f0f0f0" stroke-width="1.1"></path><path d="M-1121.6,1826.7q7.7-13.9 7.9-12.7q.4,6.6 .7,12.1" fill="none" stroke="#f0f0f0" stroke-width="1.1"></path><path d="M-1116.3,1822.7q.2-.4 1-1.8" fill="none" stroke="#f0f0f0" stroke-width="1.1"></path><path d="M-1108.3,1811.8q-1.1,12.1 1.8,14.4q1.1,1 1.8-2.2" fill="none" stroke="#f0f0f0" stroke-width="1.1"></path><path d="M-1100.9,1817q1.1,6.3 4.8,6.4q1.5-2.1 2.2-4.8q1.9,2.4 3.7,6.9" fill="none" stroke="#f0f0f0" stroke-width="1.1"></path><path d="M-1084.1,1823.7q.2-.7 .3-1.3" fill="none" stroke="#f0f0f0" stroke-width="1.1"></path><path d="M-1075.9,1813.4q-2.6,9.7 -.6,9.8" fill="none" stroke="#f0f0f0" stroke-width="1.1"></path><path d="M-1074.3,1821.8q1.3-1.6 2.3-2.9q.1,1.2 -.3,3.2q1.3,.5 2.9,.6" fill="none" stroke="#f0f0f0" stroke-width="1.1"></path><path d="M-1065.3,1818.9q-.2,.8 -.2,1.4q1.1,.5 2.5,.4q1.3,0 2.6,3.7q.7,2.1 -6.6,3.2" fill="none" stroke="#f0f0f0" stroke-width="1.1"></path><path d="M-980.8,1658.8q-1,6 .3,15.7q3.7,28.9 .4,43.7q-1.7,7.1 -3,13q-.8,3.5 2.1,7.3" fill="none" stroke="#f0f0f0" stroke-width="1"></path><path d="M-990.9,1734.2q5.3,5.8 6.2,6.5q1.6,1.2 8.4-5.4" fill="none" stroke="#f0f0f0" stroke-width="1"></path><path d="M-1012.4,1751.7q-1.3,5.8 -1.1,5.4" fill="none" stroke="#f0f0f0" stroke-width="1"></path><path d="M-1007.9,1752.3q-1.3,2.9 -2.4,5.3" fill="none" stroke="#f0f0f0" stroke-width="1"></path><path d="M-1002.3,1764.8q-.1-2.5 -.2-1.9q-.9,6.5 1.5,7.7q1.4-1.4 2.4-3.5q.8,.4 1.7,1.3q2.9-.8 5.5-2.8" fill="none" stroke="#f0f0f0" stroke-width="1"></path><path d="M-989.6,1769.3q2.4,3.3 3.3,1q.5-1.3 .7-3.9" fill="none" stroke="#f0f0f0" stroke-width="1"></path><path d="M-980.8,1771.4q2.9-4.4 4.9-3.2q1.9,1.1 0,4.2q-.8,1.2 -3,.5q-.3,0 .5-1.5" fill="none" stroke="#f0f0f0" stroke-width="1"></path><path d="M-972.1,1768.7q.2,4.8 1.7,2.9q0,0 .7-2.7" fill="none" stroke="#f0f0f0" stroke-width="1"></path><path d="M-963,1768.7q-.5,1 .4,2.3q2,2.9 -1.2,6.2q-.8,0 -1.6-.2" fill="none" stroke="#f0f0f0" stroke-width="1"></path><path d="M-960.1,1764.5q4.9,7.7 2.4,8.2q.6-.7 1.8-1.7q.9,.8 1.6,2" fill="none" stroke="#f0f0f0" stroke-width="1"></path><path d="M-949.8,1761.8q.7,6 1.4,10.9" fill="none" stroke="#f0f0f0" stroke-width="1"></path><path d="M-950.8,1768.2q.6-.4 1-.8" fill="none" stroke="#f0f0f0" stroke-width="1"></path><path d="M-935.9,1773.3q4.6-11.1 5.9-10.9q.1,0 -.1,10.3" fill="none" stroke="#f0f0f0" stroke-width="1"></path><path d="M-933.8,1768.5q3.1-1.9 3.4-1.4" fill="none" stroke="#f0f0f0" stroke-width="1"></path><path d="M-925.9,1762.9q-1,7 -.8,10" fill="none" stroke="#f0f0f0" stroke-width="1"></path><path d="M-922.7,1762.4q-.8,4.9 -1,9" fill="none" stroke="#f0f0f0" stroke-width="1"></path><path d="M-920,1771.4q.9-5.1 4.1-4.4q3.8,.7 .6,4.2q-1.4,1.6 -4.5,.5" fill="none" stroke="#f0f0f0" stroke-width="1"></path><path d="M-913.6,1769.5q1.7,2.8 1.8,2.7" fill="none" stroke="#f0f0f0" stroke-width="1"></path><path d="M-909.1,1770.3q-2.2,4.9 -3.7,9.1" fill="none" stroke="#f0f0f0" stroke-width="1"></path><path d="M-904.9,1758.9q-.3,2.5 -.5,4.5" fill="none" stroke="#f0f0f0" stroke-width="1"></path><path d="M-902.8,1759.2q-.9,3.6 -1.6,6.6" fill="none" stroke="#f0f0f0" stroke-width="1"></path><path d="M-945.3,1660q-.7,25.4 3.9,42.8q.6,5.6 .7,10.3" fill="none" stroke="#f0f0f0" stroke-width=".9"></path><path d="M-946.2,1712q1.2,2.6 3.2,3.1q1.9,.4 8.9-5.4" fill="none" stroke="#f0f0f0" stroke-width=".9"></path><path d="M-920.2,1708.8q-.4,1.5 -.7,2.8" fill="none" stroke="#f0f0f0" stroke-width=".9"></path><path d="M-917.1,1708.8q-.3,2.3 -.3,4.2" fill="none" stroke="#f0f0f0" stroke-width=".9"></path><path d="M-914.1,1723.2q5.7-11 6.1-9.8q.3,.9 -.5,9.1" fill="none" stroke="#f0f0f0" stroke-width=".9"></path><path d="M-911.6,1721.3q1.5-.4 2.8-.7" fill="none" stroke="#f0f0f0" stroke-width=".9"></path><path d="M-903.2,1714.6q0,4.5 0,8.1" fill="none" stroke="#f0f0f0" stroke-width=".9"></path><path d="M-895.5,1716q-4.9,3.2 -4.1,6.8q.4,1.6 5.7-.3" fill="none" stroke="#f0f0f0" stroke-width=".9"></path><path d="M-891.4,1718.5q-1.2,3.4 1,4.3q1.4-.8 2.5-2.1q.6,.5 1.2,1.3" fill="none" stroke="#f0f0f0" stroke-width=".9"></path><path d="M-884.4,1718.8q1.8-.4 3.3-.5" fill="none" stroke="#f0f0f0" stroke-width=".9"></path><path d="M-873.7,1714.8q.9,.4 .2,1.9q-3.4,8.2 1.3,6.9q1.2-.2 2.2-.4" fill="none" stroke="#f0f0f0" stroke-width=".9"></path><path d="M-869.3,1722.3q4.7-1.9 2.8-2.2q-2.8-.5 -1.2,1.9q.3,.5 3.1,.7" fill="none" stroke="#f0f0f0" stroke-width=".9"></path><path d="M-862.3,1719.9q-.6,.8 .1,1.2q4.1,2.4 0,4.3q-1,.5 -1.3-1.8" fill="none" stroke="#f0f0f0" stroke-width=".9"></path><path d="M-857.2,1721.1q0,3 .2,2.8" fill="none" stroke="#f0f0f0" stroke-width=".9"></path><path d="M-856.5,1715.5q-.1,.3 -.2,.5" fill="none" stroke="#f0f0f0" stroke-width=".9"></path><path d="M-852.8,1721.8q2.5-1.1 1.9-1.9q-.6,.6 -1.1,1.8q1.9,.7 4.6,.6" fill="none" stroke="#f0f0f0" stroke-width=".9"></path><path d="M-846.3,1720.6q.5,2.3 .6,1.9q.1-.4 .8-2.1" fill="none" stroke="#f0f0f0" stroke-width=".9"></path><path d="M-841.6,1720.6q-.7,.8 .2,1.3q3,1.4 2.6-2.7q.7,1 1.6,2.8" fill="none" stroke="#f0f0f0" stroke-width=".9"></path><path d="M-834.7,1719.5q-1.1,3.6 -.7,3q1.7-2.5 3.5,.2" fill="none" stroke="#f0f0f0" stroke-width=".9"></path><path d="M-827.2,1720.4q-2.3,2.7 -.8,3q1-.4 1.8-1q.7-.6 .7,4.4q0,5 -5-.6" fill="none" stroke="#f0f0f0" stroke-width=".9"></path><path d="M-823.1,1711.6q.1,2.3 .3,4.1" fill="none" stroke="#f0f0f0" stroke-width=".9"></path><path d="M-819.8,1710.6q-.1,2.8 -.2,5.1" fill="none" stroke="#f0f0f0" stroke-width=".9"></path><path d="M-925.4,1655.1q23.2,1.3 32.1,3.1" fill="none" stroke="#f0f0f0" stroke-width=".9"></path><path d="M-905.9,1657.9q-1.1,8.4 -3.8,16q-2.2,5.9 2.9,6.4q14,0 25.5-.5q14.7-.3 26.7-.4" fill="none" stroke="#f0f0f0" stroke-width=".9"></path><path d="M-856.8,1677.2q7.2,.7 9.7,4.8q1,1.6 -6.7,2.8" fill="none" stroke="#f0f0f0" stroke-width=".9"></path><path d="M-832.8,1671.6q-.6,1.5 -1.1,2.8" fill="none" stroke="#f0f0f0" stroke-width=".9"></path><path d="M-829,1672.3q-.3,1 -.5,1.9" fill="none" stroke="#f0f0f0" stroke-width=".9"></path><path d="M-827.1,1685.3q6-8.9 7-6.8q.1,3.9 -.4,7.2" fill="none" stroke="#f0f0f0" stroke-width=".9"></path><path d="M-822.6,1683.9q.6-1.8 3-1.7" fill="none" stroke="#f0f0f0" stroke-width=".9"></path><path d="M-814.4,1678.4q-.4,4.1 1.2,6.2" fill="none" stroke="#f0f0f0" stroke-width=".9"></path><path d="M-810.1,1681.3q.2,3.8 2,2.9q1.6-1.5 2.8-2.9q1,.8 1.8,2.3" fill="none" stroke="#f0f0f0" stroke-width=".9"></path><path d="M-801.4,1681.7q-.7,4.2 -.3,3.7q5-6.1 5.5-1.2q-.1,0 -.3-.2q-1-.9 2.1-1.5q.9,.7 1.5,1.6" fill="none" stroke="#f0f0f0" stroke-width=".9"></path><path d="M-789.1,1683.6q0,1 0,1.9" fill="none" stroke="#f0f0f0" stroke-width=".9"></path><path d="M-789.1,1678.4q.09,.09 0,.09q-.09,0 -.09-.09q0-.09 .09-.09q.09,0 .09,.09" fill="none" stroke="#f0f0f0" stroke-width=".9"></path><path d="M-785.4,1682q-1.4,4.7 -.2,3q1.8-2.7 3.8-.9" fill="none" stroke="#f0f0f0" stroke-width=".9"></path><path d="M-777.8,1684.1q.1,1.2 .2,2.1" fill="none" stroke="#f0f0f0" stroke-width=".9"></path><path d="M-777.1,1678q0,.2 0,.4" fill="none" stroke="#f0f0f0" stroke-width=".9"></path><path d="M-773.1,1682.4q-.2,1.7 1,2.4q1.8,1 2.4-4.1q1.2,1.3 2.5,3.9" fill="none" stroke="#f0f0f0" stroke-width=".9"></path><path d="M-764.6,1680.8q-.6,4.9 -.2,3.7q1.7-5.2 2.5-2.7q0,.9 0,1.7q1.1-.7 2.4-2.3q1.6-1.9 2.1,3.5q0,.2 0,1.3" fill="none" stroke="#f0f0f0" stroke-width=".9"></path><path d="M-743.4,1679.1q1.1-1.4 .5-1.4q-1.9-.2 1.4,8.4q.6,1.7 -3.4,.4q-1.4-.4 -.6-1.7" fill="none" stroke="#f0f0f0" stroke-width=".9"></path><path d="M-737,1681.3q-3,3.6 -.8,4.3q.8,.3 3.6-1" fill="none" stroke="#f0f0f0" stroke-width=".9"></path><path d="M-732.3,1675.8q-.7,5.9 -1.3,10.8q.6-1.1 1.4-3.2q.4-1.2 2.5,2.3" fill="none" stroke="#f0f0f0" stroke-width=".9"></path><path d="M-725.9,1677.5q.4,4.4 .7,8" fill="none" stroke="#f0f0f0" stroke-width=".9"></path><path d="M-722.4,1681.7q-.7,2.5 .7,3.6q1.4,1 3.8-.7" fill="none" stroke="#f0f0f0" stroke-width=".9"></path><path d="M-719.8,1678.9q1.3,0 2.4,0" fill="none" stroke="#f0f0f0" stroke-width=".9"></path><path d="M-713.2,1678.7q-1.6-.2 -1.1,.8q3.3,7 -.2,5.3q-.5-.2 -.6-2.4" fill="none" stroke="#f0f0f0" stroke-width=".9"></path><path d="M-708.9,1679.1q-2-.3 -1.6,.6q1.4,2.8 2.6,5.1q.4,1 -1.6,.9q-.5,0 -2-1.8" fill="none" stroke="#f0f0f0" stroke-width=".9"></path><path d="M-704.2,1679.8q-2.1,1.7 -.3,3.6q1.5,.5 2.9,.7" fill="none" stroke="#f0f0f0" stroke-width=".9"></path><path d="M-698.6,1675.1q-.3,6 -.4,10.9" fill="none" stroke="#f0f0f0" stroke-width=".9"></path><path d="M-693.6,1673.9q0,1.2 0,2.2" fill="none" stroke="#f0f0f0" stroke-width=".9"></path><path d="M-692,1674.4q-.4,2.6 -.7,4.7" fill="none" stroke="#f0f0f0" stroke-width=".9"></path><path d="M-792.3,1636.7q57.1-2.8 103.8-5.2" fill="none" stroke="#f0f0f0" stroke-width="1.5"></path><path d="M-693.1,1623.2q12.9,2.7 13.5,8.1q.3,2.4 -9.5,2.6" fill="none" stroke="#f0f0f0" stroke-width="1.5"></path><path d="M-518,1620.7q-7.8,14.8 -8.2,14.5" fill="none" stroke="#f0f0f0" stroke-width="1"></path><path d="M-502.5,1626.3q1.8,8.1 2.8,7.4q2-2.3 3.3-4.4q1.4,1 2.6,2.9q2.9-1.3 5.7-4.2" fill="none" stroke="#f0f0f0" stroke-width="1"></path><path d="M-485.4,1629.6q-1.6,.4 -1.7,2q-.2,2.8 2.3,.5q.8-1.6 1.3-3q.2-.8 3.2,2.3" fill="none" stroke="#f0f0f0" stroke-width="1"></path><path d="M-478.2,1629q1.5,6.5 1.2,6.9q-.7,.8 0-2.4q1.1-2.2 2.3-3.9" fill="none" stroke="#f0f0f0" stroke-width="1"></path><path d="M-468.8,1629.3q-3,.5 -2.2,3.2q1.1,3.5 3.8-1.7q1.1-2.1 1.3-1.7q1.2,2.4 2.1,4.5" fill="none" stroke="#f0f0f0" stroke-width="1"></path><path d="M-458.7,1627.7q0,10.3 -.4,6q-.4-3.6 2.1-4.4q.4,.6 .6,1.4q1.7,.1 3.6-.7q1.6-.6 4.3,4.9" fill="none" stroke="#f0f0f0" stroke-width="1"></path><path d="M-440,1629.8q-3,.1 -4,2.1q-.9,1.8 2.7,.3q1.5-1 2.7-1.9q1.5,.7 2.7,2" fill="none" stroke="#f0f0f0" stroke-width=".7"></path><path d="M-435.1,1630.2q1.1,2.9 2.9,2.4q.3-.6 .2-1.3q.6,.4 1.2,1.2" fill="none" stroke="#f0f0f0" stroke-width=".7"></path><path d="M-426.3,1628.7q-1.6-.3 -1.5,.7q.7,2 1.4,3.7q.6,1.3 -3-.3" fill="none" stroke="#f0f0f0" stroke-width=".7"></path><path d="M-421.4,1629.9q-1.3-.6 -1.8,.3q-.9,1.6 1.5,1.5q1.6,0 1.7,1.6q.2,3.4 -2.7,3.2q-.4-1.1 -.3-2.3" fill="none" stroke="#f0f0f0" stroke-width=".7"></path><path d="M-416.1,1630.4q-1.5,.6 -1.4,1.8q.1,1 3.4,1" fill="none" stroke="#f0f0f0" stroke-width=".7"></path><path d="M-411.4,1624.6q-.1,4.5 .4,9.7" fill="none" stroke="#f0f0f0" stroke-width=".7"></path><path d="M-406.6,1630.2q-1.4,.6 -1.2,1.9q.4,2.1 1.8,0q.1,0 .7-2.2" fill="none" stroke="#f0f0f0" stroke-width=".7"></path><path d="M-400.6,1629.9q-1.2,1.3 -.2,1.1q2.1-.5 1.4,3.9q-.2,1.8 -2,1.4q-.2-1.3 .2-2.9" fill="none" stroke="#f0f0f0" stroke-width=".7"></path><path d="M-395.4,1630.6q-.8,.6 -.4,1.3q.3,.3 2,.5" fill="none" stroke="#f0f0f0" stroke-width=".7"></path><path d="M-390.7,1628.1q.8,7.3 .5,5.2q-.2-1.6 2.7-5.5" fill="none" stroke="#f0f0f0" stroke-width=".7"></path><path d="M-381.4,1624.2q-.7,3.7 -1.2,6.7q-.8,1.1 -1.7,1.8" fill="none" stroke="#f0f0f0" stroke-width=".7"></path><path d="M-385.2,1629.5q8.9-.1 8.3,.9" fill="none" stroke="#f0f0f0" stroke-width=".7"></path><path d="M-660.7,1624.2q-.3-.8 -.4-.5q-.4,1.2 0,9.8q0,.4 .6,1.6" fill="none" stroke="#f0f0f0" stroke-width=".7"></path><path d="M-657.2,1632.4q-.4-3.4 2-3.4q3.1,.1 1.6,4.2q-.8,2.2 -3.2,.7" fill="none" stroke="#f0f0f0" stroke-width=".7"></path><path d="M-656.2,1626.4q3.8-.4 5,.4" fill="none" stroke="#f0f0f0" stroke-width=".7"></path><path d="M-644.8,1627.2q-3.9,0 -4.5,2.2q1.1,2.5 2.7,4.4q.8,1 -2,1.1q-.7,.1 -2.9-1.1" fill="none" stroke="#f0f0f0" stroke-width=".7"></path><path d="M-639.9,1629.1q-1.7,.3 -2.3,1.7q-1.1,2.4 1.8,2.6q1.2-1.6 1.8-3.6q1.6,.5 3.4,2.1" fill="none" stroke="#f0f0f0" stroke-width=".7"></path><path d="M-634.5,1628.5q.2,4.2 .2,4.1q0-3.8 3.1-2.7q.7,1.4 1,2.9" fill="none" stroke="#f0f0f0" stroke-width=".7"></path><path d="M-625.7,1628.1q-3.4,4.9 -1.6,4.5q.7-.7 1.2-1.4q.7-1 1.1,3.2q.4,3.3 -2.1,3.6q-.7-1.3 -.8-2.9" fill="none" stroke="#f0f0f0" stroke-width=".7"></path><path d="M-620.6,1628.5q-2,.5 -2.2,1.6q1,2.2 2.3,3.8q-1.5,0 -3.9-.7" fill="none" stroke="#f0f0f0" stroke-width=".7"></path><path d="M-615.2,1628.7q-2.9,1.9 -1.7,3.5q.9-.6 1.6-1.8q.5,1.4 .7,3.7q0,1.4 -2.4,1.5q-.8-.8 -1.2-1.8" fill="none" stroke="#f0f0f0" stroke-width=".7"></path><path d="M-612.2,1630q-.5,1.9 .6,2.7q1.4,.4 2.6,.5" fill="none" stroke="#f0f0f0" stroke-width=".7"></path><path d="M-603.9,1628.1q-1.8,1.1 -2,2.8q-.3,1.7 .9,1.3q1-1.3 1.5-2.6q.1,2.3 -.1,6.3q-.2,2.5 -2.6,1.1q-.6-.3 -.2-3.4" fill="none" stroke="#f0f0f0" stroke-width=".7"></path><path d="M-600,1623.6q-.3,9.1 .9,10" fill="none" stroke="#f0f0f0" stroke-width=".7"></path><path d="M-597.7,1630.2q-.2,1.4 1.1,2.2q2.7-.1 5-.7" fill="none" stroke="#f0f0f0" stroke-width=".7"></path><path d="M-595.5,1627.2q1,.3 1.9,.6" fill="none" stroke="#f0f0f0" stroke-width=".7"></path><path d="M-587.4,1622.9q-.7,5.4 -1.1,9.9q.7-.8 1.6-2.5q.8-1.5 3.2,1.8" fill="none" stroke="#f0f0f0" stroke-width=".7"></path><path d="M-578.8,1622.1q0,5.9 0,10.7" fill="none" stroke="#f0f0f0" stroke-width=".7"></path><path d="M-580.1,1628.9q4.7-1.4 5.4-.4" fill="none" stroke="#f0f0f0" stroke-width=".7"></path></svg>