<svg viewBox="-278.45 9.4 2208.95 880.1" width="2208.95" height="880.1" version="1.1" baseProfile="full" xmlns="http://www.w3.org/2000/svg" class="js-draw--autoresize"><style id="js-draw-style-sheet">path{stroke-linecap:round;stroke-linejoin:round;}text{white-space:pre;}</style><g class="js-draw-image-background js-draw-image-background-grid js-draw-image-background-grid-25"><path d="M1930.5,889.5L1930.5,9.4L-278.45,9.4L-278.45,889.5L1930.5,889.5" fill="#03035e"></path><path d="M-278.8,25L1930.85,25M-278.8,50L1930.85,50M-278.8,75L1930.85,75M-278.8,100L1930.85,100M-278.8,125L1930.85,125M-278.8,150L1930.85,150M-278.8,175L1930.85,175M-278.8,200L1930.85,200M-278.8,225L1930.85,225M-278.8,250L1930.85,250M-278.8,275L1930.85,275M-278.8,300L1930.85,300M-278.8,325L1930.85,325M-278.8,350L1930.85,350M-278.8,375L1930.85,375M-278.8,400L1930.85,400M-278.8,425L1930.85,425M-278.8,450L1930.85,450M-278.8,475L1930.85,475M-278.8,500L1930.85,500M-278.8,525L1930.85,525M-278.8,550L1930.85,550M-278.8,575L1930.85,575M-278.8,600L1930.85,600M-278.8,625L1930.85,625M-278.8,650L1930.85,650M-278.8,675L1930.85,675M-278.8,700L1930.85,700M-278.8,725L1930.85,725M-278.8,750L1930.85,750M-278.8,775L1930.85,775M-278.8,800L1930.85,800M-278.8,825L1930.85,825M-278.8,850L1930.85,850M-278.8,875L1930.85,875M-275,9.05L-275,889.85M-250,9.05L-250,889.85M-225,9.05L-225,889.85M-200,9.05L-200,889.85M-175,9.05L-175,889.85M-150,9.05L-150,889.85M-125,9.05L-125,889.85M-100,9.05L-100,889.85M-75,9.05L-75,889.85M-50,9.05L-50,889.85M-25,9.05L-25,889.85M0,9.05L0,889.85M25,9.05L25,889.85M50,9.05L50,889.85M75,9.05L75,889.85M100,9.05L100,889.85M125,9.05L125,889.85M150,9.05L150,889.85M175,9.05L175,889.85M200,9.05L200,889.85M225,9.05L225,889.85M250,9.05L250,889.85M275,9.05L275,889.85M300,9.05L300,889.85M325,9.05L325,889.85M350,9.05L350,889.85M375,9.05L375,889.85M400,9.05L400,889.85M425,9.05L425,889.85M450,9.05L450,889.85M475,9.05L475,889.85M500,9.05L500,889.85M525,9.05L525,889.85M550,9.05L550,889.85M575,9.05L575,889.85M600,9.05L600,889.85M625,9.05L625,889.85M650,9.05L650,889.85M675,9.05L675,889.85M700,9.05L700,889.85M725,9.05L725,889.85M750,9.05L750,889.85M775,9.05L775,889.85M800,9.05L800,889.85M825,9.05L825,889.85M850,9.05L850,889.85M875,9.05L875,889.85M900,9.05L900,889.85M925,9.05L925,889.85M950,9.05L950,889.85M975,9.05L975,889.85M1000,9.05L1000,889.85M1025,9.05L1025,889.85M1050,9.05L1050,889.85M1075,9.05L1075,889.85M1100,9.05L1100,889.85M1125,9.05L1125,889.85M1150,9.05L1150,889.85M1175,9.05L1175,889.85M1200,9.05L1200,889.85M1225,9.05L1225,889.85M1250,9.05L1250,889.85M1275,9.05L1275,889.85M1300,9.05L1300,889.85M1325,9.05L1325,889.85M1350,9.05L1350,889.85M1375,9.05L1375,889.85M1400,9.05L1400,889.85M1425,9.05L1425,889.85M1450,9.05L1450,889.85M1475,9.05L1475,889.85M1500,9.05L1500,889.85M1525,9.05L1525,889.85M1550,9.05L1550,889.85M1575,9.05L1575,889.85M1600,9.05L1600,889.85M1625,9.05L1625,889.85M1650,9.05L1650,889.85M1675,9.05L1675,889.85M1700,9.05L1700,889.85M1725,9.05L1725,889.85M1750,9.05L1750,889.85M1775,9.05L1775,889.85M1800,9.05L1800,889.85M1825,9.05L1825,889.85M1850,9.05L1850,889.85M1875,9.05L1875,889.85M1900,9.05L1900,889.85M1925,9.05L1925,889.85" fill="none" stroke="#fcfca133" stroke-width=".7"></path></g><path d="M-70,128q3.3-52.7 3.4-52.2q12.4,70.8 18.7,52.3q2.6-28.4 1.9-52.1" fill="none" stroke="#ffffff" stroke-width="2.6"></path><path d="M-64,98q1,17.4 1,30" fill="none" stroke="#ffffff" stroke-width="2.6"></path><path d="M17,112q-.8-.2 -1.4-.3q-.9-.2 30.2-3.1q13.9-1.3 25.7,2.7" fill="none" stroke="#ffffff" stroke-width="2.6"></path><path d="M62,100q23.6,6.9 14.3,13.5q-3.4,1.5 -6.3,2.5" fill="none" stroke="#ffffff" stroke-width="2.6"></path><path d="M141,96q-.1,14.3 0,26" fill="none" stroke="#ffffff" stroke-width="2.6"></path><path d="M150,95q-.7,13.2 -1,24" fill="none" stroke="#ffffff" stroke-width="2.6"></path><path d="M143,99q1.1-7.6 8-6.8q5,.6 7.9,15.2q1.1,5.5 15.6,16.9q6.2,4.9 3.5,5.7" fill="none" stroke="#ffffff" stroke-width="2.6"></path><path d="M-62,192q.1-.6 .3-1q4,3.2 7.7,9.6q5.1,4.4 10,7.4" fill="none" stroke="#ffffff" stroke-width="2.6"></path><path d="M-46,192q-11.1,9.8 -20,18" fill="none" stroke="#ffffff" stroke-width="2.6"></path><path d="M13,188q-.9,23 1,22" fill="none" stroke="#ffffff" stroke-width="2.6"></path><path d="M12,200q7.8-3 29.2-3.4q26.3-.5 38.5,4.9" fill="none" stroke="#ffffff" stroke-width="2.6"></path><path d="M84,188q11.4,7.7 9.9,15q-4.2,3.7 -8.9,6" fill="none" stroke="#ffffff" stroke-width="2.6"></path><path d="M150,174q-6.4-.9 -11,11.5q-4.3,11.6 1.3,30.6" fill="none" stroke="#ffffff" stroke-width="2.6"></path><path d="M133,200q.1-2.5 10-2.5" fill="none" stroke="#ffffff" stroke-width="2.6"></path><path d="M168,184q-7.1,5.2 -8.9,13.2q-2.1,9.1 6,21.3" fill="none" stroke="#ffffff" stroke-width="2.6"></path><path d="M175,197q18,9.2 18,11" fill="none" stroke="#ffffff" stroke-width="2.6"></path><path d="M196,194q-10,10.3 -18,19" fill="none" stroke="#ffffff" stroke-width="2.6"></path><path d="M198,188q7.9,8.4 6.2,21.3q-2.1,6 -4.2,10.7" fill="none" stroke="#ffffff" stroke-width="2.6"></path><path d="M-66.3,283q2.1-56.9 3.9-44.9q2.6,18 4.6,32.7q2.3,16.8 10.2,13.4q1.6-20.1 -4.9-40.9" fill="none" stroke="#ffffff" stroke-width="2.1"></path><path d="M-59.9,267.7q-1.4,9.6 -2.7,17.5" fill="none" stroke="#ffffff" stroke-width="2.1"></path><path d="M7.8,275.6Q40.5,269.5 76.1,269.3" fill="none" stroke="#ffffff" stroke-width="2.1"></path><path d="M69.2,262.9q10.7,1.6 13.3,7.9q-1.2,2.4 -3.2,4.3" fill="none" stroke="#ffffff" stroke-width="2.1"></path><path d="M147,260.8q-2.6,13.9 -1.6,26.5" fill="none" stroke="#ffffff" stroke-width="2.1"></path><path d="M152.3,261.9q.5,14 1.1,25.4" fill="none" stroke="#ffffff" stroke-width="2.1"></path><path d="M142.8,257.1q9.1-1.6 12.6,2.1q4.4,4.6 -.4,13.7q-.9,1.8 15.3,10.8q18.6,10.3 13.8,13.6" fill="none" stroke="#ffffff" stroke-width="2.1"></path><path d="M-67.2,331.9q1.9,23.6 2.6,18.5q1.5-12.7 6.2-13.8q6.1-1.4 9.1,15" fill="none" stroke="#ffffff" stroke-width="2.3"></path><path d="M12,339.1q61.5-4.3 74.6-1.8q4.1,.8 3.7,3.9q-1.6-.1 -3.4-.9" fill="none" stroke="#ffffff" stroke-width="2.3"></path><path d="M12,334.9Q10.4,341.7 9.6,347.4" fill="none" stroke="#ffffff" stroke-width="2.3"></path><path d="M92.3,328.4q11.3,12.6 8.8,16.6q-4.5,2.7 -8.8,4.2" fill="none" stroke="#ffffff" stroke-width="2.3"></path><path d="M166.7,335.5q-3.7-.1 -6.7,7.5q-2.4,6.3 3.3,5.5q3.1-.4 4.7-8.9q.3,1.2 .5,3.6q2.5,2.9 5.3,4.8" fill="none" stroke="#ffffff" stroke-width="2.3"></path><path d="M195.3,330.2q-4.4,11.6 -1.8,19.3q.2,.6 3,1.5" fill="none" stroke="#ffffff" stroke-width="2.3"></path><path d="M205.4,338.5q-3.4,11.3 -1.7,11.1q3.3-3.8 5.2-8.2q2.7-6.2 12.5,6.6" fill="none" stroke="#ffffff" stroke-width="2.3"></path><path d="M232.8,327.8q8.1,12.1 6.4,23.1q-.3,1.8 -4.7,7.8" fill="none" stroke="#ffffff" stroke-width="2.3"></path><path d="M-276.1,327.2q-.6,15.7 -1.2,28.5" fill="none" stroke="#ffffff" stroke-width="2.3"></path><path d="M-275.5,328.4q9.5-.6 17.3-.6" fill="none" stroke="#ffffff" stroke-width="2.3"></path><path d="M-274.9,342.1q6-1.7 11.3-2.4" fill="none" stroke="#ffffff" stroke-width="2.3"></path><path d="M-255.2,345.6q4.1-6.1 9.2-2.8q5.1,3.3 -.2,6.9q-3.9-.6 -7.3-2.3" fill="none" stroke="#ffffff" stroke-width="2.3"></path><path d="M-239.8,334.9q1.3,6.5 2.4,11.9" fill="none" stroke="#ffffff" stroke-width="2.3"></path><path d="M-223.7,341.5q-7,3 -3.6,4.2q1.7-.9 2.9-2.1q2.4-2.5 2.9,11.3q.2,5 -5.2,5.7q-.8,.1 -1.8-3.1" fill="none" stroke="#ffffff" stroke-width="2.3"></path><path d="M-213.6,344.4q4.3-2.1 2.9-.5q-7.6,9.2 7.8,6.5" fill="none" stroke="#ffffff" stroke-width="2.3"></path><path d="M-179.7,342.6q42.7-.4 52.2,.4" fill="none" stroke="#ffffff" stroke-width="2.3"></path><path d="M-132.7,339.1q19.8,3.4 16.4,5.6q-7.2,3 -13.4,5.1" fill="none" stroke="#ffffff" stroke-width="2.3"></path><path d="M290.5,337.9q9.8-.3 17.8,0" fill="none" stroke="#ffffff" stroke-width="2.3"></path><path d="M292.9,341.5q8.5,.3 15.4,.6" fill="none" stroke="#ffffff" stroke-width="2.3"></path><path d="M362.5,337.3q-8.6,1.3 -6.1,5.3q2,3.2 10.1-1.7q.4-1.6 .3-3.1q.3,1.1 .8,3.2q.2,1.2 5,3.4" fill="none" stroke="#ffffff" stroke-width="2.3"></path><path d="M382.1,343.8q.7,7.6 1.7,6.3q6.9-8.4 9.6,7.4" fill="none" stroke="#ffffff" stroke-width="2.3"></path><path d="M438.8,333.1q9.3,.3 16.9,.6" fill="none" stroke="#ffffff" stroke-width="2.2"></path><path d="M440,339.3q9.2-.6 16.8-1.1" fill="none" stroke="#ffffff" stroke-width="2.2"></path><path d="M506.1,334.8q-7.7,3.3 -2.7,10.9q2.8,4.4 4.7-4.6q-.1-2.5 -.4-4.5q2.4,3.1 5.7,9.4" fill="none" stroke="#ffffff" stroke-width="2.2"></path><path d="M545.9,329.8q-3.3-3.3 -8.4-3q-2,.1 -2.4,6.5q-1.6,22.6 .8,22q9.4-2.1 6.7-3.1" fill="none" stroke="#ffffff" stroke-width="2.2"></path><path d="M548.2,336.5q1.2,10.9 1.4,10.2q3.7-13.5 11.1-1.1q.4,.5 .9,3.2" fill="none" stroke="#ffffff" stroke-width="2.2"></path><path d="M566.7,332.6q11.2,.5 10.8,1.5q-.8,12.7 -.1,23.3q-5.8,0 -13-3" fill="none" stroke="#ffffff" stroke-width="2.2"></path><path d="M873,75q-3.9,21.9 -.7,66.3q2.4,75.4 3.1,137.2q2.6,20.7 5.6,37.5" fill="none" stroke="#ffffff" stroke-width="2.6"></path><path d="M879,318q192.6-14.4 250.5-9.9q15.2,2.9 27.5,5.9" fill="none" stroke="#ffffff" stroke-width="2.6"></path><path d="M1162,301q13.3,4 11,13.6q-.1,.2 -6,4.4" fill="none" stroke="#ffffff" stroke-width="2.6"></path><path d="M1233,293q-2,15.4 -4,28" fill="none" stroke="#ffffff" stroke-width="2.6"></path><path d="M1223,311q9.4-2.2 17-4" fill="none" stroke="#ffffff" stroke-width="2.6"></path><path d="M873,18q3.5,10.9 6,20" fill="none" stroke="#ffffff" stroke-width="2.6"></path><path d="M861,20q20.2-9.3 21-6" fill="none" stroke="#ffffff" stroke-width="2.6"></path><path d="M861,77q8.7-15.1 13.4-11.2q4.2,3.5 5.6,13.4q-5.7,1.6 -13,.8" fill="none" stroke="#ffffff" stroke-width="2.6"></path><path d="M1336,54q3.1,20.6 1.4,33.2" fill="none" stroke="#ffffff" stroke-width="2.6"></path><path d="M1319,55q12.9-6.3 22-6.7q7.7,1.6 14,3.7" fill="none" stroke="#ffffff" stroke-width="2.6"></path><path d="M1381,56q-7.9,3.4 -11.2,11.6q-5.9,14.5 2.2,25.4" fill="none" stroke="#ffffff" stroke-width="2.6"></path><path d="M1391,63q-1,13.8 -2,25" fill="none" stroke="#ffffff" stroke-width="2.6"></path><path d="M1385,79q6.6-.5 12-1" fill="none" stroke="#ffffff" stroke-width="2.6"></path><path d="M1408,60q5.8,2.5 7.9,9.2q2.8,8.8 -9.8,30" fill="none" stroke="#ffffff" stroke-width="2.6"></path><path d="M912,224q2.1-22.1 10.2-34.2q18.9-28.3 59.3-22.5q76.6,10.9 116.7,1.6q57.9-13.4 96-73.8q1.5-1.7 2.8-3.1" fill="none" stroke="#ffffff" stroke-width="2.6"></path><path d="M844,342q.7,12.1 1,22" fill="none" stroke="#ffffff" stroke-width="2.6"></path><path d="M843,360q.5-1.1 1-2" fill="none" stroke="#ffffff" stroke-width="2.6"></path><path d="M859,363q1.6-5 3.9,0q2.3,4.8 -2.7,7.2q-1.1,.5 -4.2-4.2" fill="none" stroke="#ffffff" stroke-width="2.6"></path><path d="M930,315q.5,3.9 1,7" fill="none" stroke="#ffffff" stroke-width="2.6"></path><path d="M927,346q-2.2,11.6 -.2,18.5" fill="none" stroke="#ffffff" stroke-width="2.6"></path><path d="M920,361q.6-.6 1-1" fill="none" stroke="#ffffff" stroke-width="2.6"></path><path d="M931,361q3.7-1.5 5,1.1q.8,4.3 1,7.9" fill="none" stroke="#ffffff" stroke-width="2.6"></path><path d="M979,314q2,9.9 2,10" fill="none" stroke="#ffffff" stroke-width="2.6"></path><path d="M979,346q1.3,8.2 2,15" fill="none" stroke="#ffffff" stroke-width="2.6"></path><path d="M977,358q.8,0 4,0" fill="none" stroke="#ffffff" stroke-width="2.6"></path><path d="M987,360q6.7-2.2 5.4,2.1q-.5,1 -1,1.8q1,1.5 2.7,2.6q-2.8,3 -8.1,5.5" fill="none" stroke="#ffffff" stroke-width="2.6"></path><path d="M1038,307q.7,7.7 1,14" fill="none" stroke="#ffffff" stroke-width="2.6"></path><path d="M1035,320q.6-.2 3-1" fill="none" stroke="#ffffff" stroke-width="2.6"></path><path d="M1033,351q2,7.6 3,14" fill="none" stroke="#ffffff" stroke-width="2.6"></path><path d="M1031,362q.8,0 4,0" fill="none" stroke="#ffffff" stroke-width="2.6"></path><path d="M1046,361q-3.8,5.3 .1,8.2" fill="none" stroke="#ffffff" stroke-width="2.6"></path><path d="M1047,362q2.5,7.8 5,14" fill="none" stroke="#ffffff" stroke-width="2.6"></path><path d="M1088,306q.9,9.3 1,17" fill="none" stroke="#ffffff" stroke-width="2.6"></path><path d="M1087,356q3.2,0 2.4,6.5" fill="none" stroke="#ffffff" stroke-width="2.6"></path><path d="M1083,362q5.5-1.1 10-2" fill="none" stroke="#ffffff" stroke-width="2.6"></path><path d="M1097,368q.4-.6 1-1" fill="none" stroke="#ffffff" stroke-width="2.6"></path><path d="M1104,368q.6,0 1,0" fill="none" stroke="#ffffff" stroke-width="2.6"></path><path d="M1113,369q0,.6 0,1" fill="none" stroke="#ffffff" stroke-width="2.6"></path><path d="M1122,370q1.1,0 2,0" fill="none" stroke="#ffffff" stroke-width="2.6"></path><path d="M983,296q3.9-11.3 12-7.5q6.2,2.8 11.1-3.6q1.4-1.9 1.9-.2q2.2,8.3 18.7,3.8q4.1,1.3 7.3,3.5" fill="none" stroke="#ffffff" stroke-width="2.6"></path><path d="M999,268q5.7-7.7 6.7-5.4q4,10.2 -2.1,6.6q-1.7-1 -1.6-1.2" fill="none" stroke="#ffffff" stroke-width="2.6"></path><path d="M1019,260q-.4,5.5 -1,10" fill="none" stroke="#ffffff" stroke-width="2.6"></path><path d="M1009,266q6.6-1 12-2" fill="none" stroke="#ffffff" stroke-width="2.6"></path><path d="M1314,374q1.6-38 1.8-38.5q4.2,7.9 8.2,22.7q3.3,6 6.7,10.5q.8-11.6 -2.4-31.5q-.4-2.2 -.3-11.2" fill="none" stroke="#ffffff" stroke-width="2.6"></path><path d="M1317,352q5,22 5,22" fill="none" stroke="#ffffff" stroke-width="2.6"></path><path d="M1347,366q-10.6,6.1 -.7,13.3q6,4.4 5.3-4.7q-.3-4.3 -8.8-6.8" fill="none" stroke="#ffffff" stroke-width="2.6"></path><path d="M1406,348q25.3-.6 46-1" fill="none" stroke="#ffffff" stroke-width="2.7"></path><path d="M1454,340q27,2 21.2,9.6q-6.8,3.1 -13.2,4.4" fill="none" stroke="#ffffff" stroke-width="2.7"></path><path d="M1524,333q1.7,30.7 6.1,29q.5-2.9 -.1-6" fill="none" stroke="#ffffff" stroke-width="2.7"></path><path d="M1536,338q0,13.2 0,24" fill="none" stroke="#ffffff" stroke-width="2.7"></path><path d="M1523,335q11.9-9.6 19.1-4.6q3.8,2.7 -1.9,12.2q-3.7,6.1 23,20.1q2.8,2.3 4.8,4.3" fill="none" stroke="#ffffff" stroke-width="2.7"></path><path d="M1319,422q2.8,20.4 2.9,18.1q.5-12.6 17.3-3.4q2.8,3.2 4.8,6.3" fill="none" stroke="#ffffff" stroke-width="2.7"></path><path d="M1417,434q.2,.4 .7,1q33.8,5.7 65.3,2" fill="none" stroke="#ffffff" stroke-width="2.7"></path><path d="M1476,425q23.3,13.4 16.1,16q-6.4,2.3 -11.1,0" fill="none" stroke="#ffffff" stroke-width="2.7"></path><path d="M1546,420q1.6-1.4 2.4,3.8q2.3,16 -2.4,20.2" fill="none" stroke="#ffffff" stroke-width="2.7"></path><path d="M1540,437q5,.5 9,1" fill="none" stroke="#ffffff" stroke-width="2.7"></path><path d="M1561,436q-.2,12 3.2,9.6q4.9-3.4 8.7,.3q1.5,1.5 4.1,10.1" fill="none" stroke="#ffffff" stroke-width="2.7"></path><path d="M1333,489q1.9,18.1 3,33" fill="none" stroke="#ffffff" stroke-width="3"></path><path d="M1330,513q6.6,1.3 12,3" fill="none" stroke="#ffffff" stroke-width="3"></path><path d="M1357,498q6.2,41 7.1,42.9" fill="none" stroke="#ffffff" stroke-width="3"></path><path d="M1376,521q-11.1,8.1 -1.2,13.3q3.9,.7 7.2,.7" fill="none" stroke="#ffffff" stroke-width="3"></path><path d="M1434,508q5.8-2.3 20-.4" fill="none" stroke="#ffffff" stroke-width="3"></path><path d="M1438,514q4.9,1.1 9,2" fill="none" stroke="#ffffff" stroke-width="3"></path><path d="M1521,494q4.7,24.7 4,24" fill="none" stroke="#ffffff" stroke-width="3"></path><path d="M1536,505q-9.5,5.5 -5.6,9.8q4.4,1.2 8.6,1.2" fill="none" stroke="#ffffff" stroke-width="3"></path><path d="M1546,512q1.6,0 3,0" fill="none" stroke="#ffffff" stroke-width="3"></path><path d="M1573,522q12.6-24.9 13.7-21.6q4.1,12.2 7.6,22.1q-6.5,1.4 -15.5-.2" fill="none" stroke="#ffffff" stroke-width="3"></path><path d="M1609,498q.5,33.3 -4,33" fill="none" stroke="#ffffff" stroke-width="3"></path><path d="M1597,519q26.1-6 21-3" fill="none" stroke="#ffffff" stroke-width="3"></path><path d="M922.3,192.7l-2.6-1.4q-.5,.9 -1.1,2.1l2.8,1.2q.4-1 .9-1.9" fill="#d918d2"></path><path d="M941.3,172.7l-2.6-1.4q-.5,.9 -1,2l2.6,1.4q.6-1.1 1-2" fill="#d918d2"></path><path d="M971.7,165.3l2.6,1.4q.5-.9 1-2l-2.6-1.4q-.6,1.1 -1,2" fill="#d918d2"></path><path d="M1002.4,174q0,1.4 -1.4,1.4q-1.4,0 -1.4-1.4q0-1.4 1.4-1.4q1.4,0 1.4,1.4" fill="#d918d2"></path><path d="M1042.1,174.1l-2.2-2.2q-.4,.5 -1,1l2.2,2.2q.5-.6 1-1" fill="#d918d2"></path><path d="M1069.5,174l3,0q0-.4 0-1l-3,0q0,.6 0,1" fill="#d918d2"></path><path d="M1101.5,170l3,0q0-.9 0-2l-3,0q0,1.1 0,2" fill="#d918d2"></path><path d="M1140.6,152.4l-1.2-2.8q-4,1.6 -5,2l1.2,2.8q1-.4 5-2" fill="#d918d2"></path><path d="M1166.1,130.9l-2.2,2.2q.5,.4 1,1l2.2-2.2q-.6-.5 -1-1" fill="#d918d2"></path><path d="M918.5,196.2l3-.4q-1.7-1.8 -3.9,2.8l2.8,.8q-.4-2.4 -1.9-3.2" fill="#d918d2"></path><path d="M938.6,172.9l1.3,2.6q-1.8-.7 -4.2,1.7l2.6,1.6q2.4-5.4 .3-5.9" fill="#d918d2"></path><path d="M971.1,166.3l1.7,2.5q2.3-1.6 5.1-3.6l-1.8-2.4q-2.8,1.9 -5,3.5" fill="#d918d2"></path><path d="M995.7,175.3l2.6,1.4q.5-.9 1-2l-2.6-1.4q-.6,1.1 -1,2" fill="#d918d2"></path><path d="M1042.5,175.4l-1-2.8q-1.3,.4 -3,1l1,2.8q1.6-.5 3-1" fill="#d918d2"></path><path d="M1001.6,172.4l-1.2-2.8q-1.2,.5 -2.8,1l.8,2.8q1.7-.4 3.2-1" fill="#d918d2"></path><path d="M937,175.9l2.6,1.4q.2-3.1 -6.5,.5l1.8,2.4q3.2-3.5 2.1-4.3" fill="#d918d2"></path><path d="M919.7,192.7l-1.4,2.6q1.8,1 4.1,2l1.2-2.6q-2.1-1.1 -3.9-2" fill="#d918d2"></path><path d="M1042.2,173.8l-2.4-1.6q-.9,1.3 -2,3l2.4,1.6q1.1-1.6 2-3" fill="#d918d2"></path><path d="M1073.8,174.3l-1.6-2.6q-1.1,.7 -1.7,.9l1,2.8q.9-.3 2.3-1.1" fill="#d918d2"></path><path d="M1103.7,168.8l-3-.2q0,.5 -.1,1l2.8,.8q.3-.8 .3-1.6  M1098,169.9l2,2.2q2-2.7 .7-3.5l3,.2q-1.1-2.3 -5.7,1.1" fill="#d918d2"></path><path d="M1138,154.5l0-3q-2.4,0 -3,0l0,3q.6,0 3,0" fill="#d918d2"></path><path d="M913,456q3.7,35.2 4,35" fill="none" stroke="#ffffff" stroke-width="3"></path><path d="M901,456q17-2.1 31-3" fill="none" stroke="#ffffff" stroke-width="3"></path><path d="M960,454q-18,21.9 -9.9,44.7q2.9,3.1 5.9,5.3" fill="none" stroke="#ffffff" stroke-width="3"></path><path d="M988,460q3,21.4 4.1,39.1" fill="none" stroke="#ffffff" stroke-width="3"></path><path d="M981,492q3.8-3.9 15.8-6" fill="none" stroke="#ffffff" stroke-width="3"></path><path d="M1018,478q1,11.6 1.2,26.1q.8,8.2 1.8,14.9" fill="none" stroke="#ffffff" stroke-width="3"></path><path d="M1028,499q-5.9,7.7 -1.1,13.8q1.4,1.8 11.1,1.2" fill="none" stroke="#ffffff" stroke-width="3"></path><path d="M1052,464q3-1.8 6.3,3q6.6,9.5 1.7,34" fill="none" stroke="#ffffff" stroke-width="3"></path><path d="M1099,463q8.3-.5 15-1" fill="none" stroke="#ffffff" stroke-width="3"></path><path d="M1102,476q3.3,.5 6,1" fill="none" stroke="#ffffff" stroke-width="3"></path><path d="M1157,468q.8,36.9 1,37" fill="none" stroke="#ffffff" stroke-width="3"></path><path d="M1138,464q13.6-4.5 32.8-.3" fill="none" stroke="#ffffff" stroke-width="3"></path><path d="M1189,469q2.6,51.1 3,49" fill="none" stroke="#ffffff" stroke-width="3"></path><path d="M1208,492q-13.4,12 -8.1,19.6q2.6,3.7 15.1,4.4" fill="none" stroke="#ffffff" stroke-width="3"></path><path d="M1731,370q-1.6-48.2 -.3-43.3q4.9,25.9 8.2,47.2q1-.1 2.1-.8q3.2-19.2 0-38.1" fill="none" stroke="#ffffff" stroke-width="3"></path><path d="M1760,369q4.6,3.7 -.3,3.9q-2.7-1.3 -4.7-2.9" fill="none" stroke="#ffffff" stroke-width="3"></path><path d="M1783,353q39.9-6.4 44-2" fill="none" stroke="#ffffff" stroke-width="3"></path><path d="M1849,343q6.2,25.9 4,26" fill="none" stroke="#ffffff" stroke-width="3"></path><path d="M1857,344q4.7,23 4,23" fill="none" stroke="#ffffff" stroke-width="3"></path><path d="M1853,342q13.4,4.7 7.5,6.7q6.6,12.5 21.5,25.3" fill="none" stroke="#ffffff" stroke-width="3"></path><path d="M1733,431q1.9,13.2 2.6,12.4q12.1-13.7 25.5,9.5" fill="none" stroke="#ffffff" stroke-width="3"></path><path d="M1802,438q7-3.5 19.9-1.3" fill="none" stroke="#ffffff" stroke-width="3"></path><path d="M1837,427q16.7,6.3 7.1,10.7q-6.8,3.1 -6.1,6.3" fill="none" stroke="#ffffff" stroke-width="3"></path><path d="M1876,428q1.6,12.5 2,23" fill="none" stroke="#ffffff" stroke-width="3"></path><path d="M1864,422q15.4-4.7 23.4-2.2" fill="none" stroke="#ffffff" stroke-width="3"></path><path d="M1892,435q.9,8.4 1.7,15.3q2.7-3 5.8-9.1q4.5-8.9 10.4,5.6q.8,3.9 1.1,7.2" fill="none" stroke="#ffffff" stroke-width="3"></path><path d="M1745,499q7.9,19.8 8.5,27.9" fill="none" stroke="#ffffff" stroke-width="3"></path><path d="M1739,501q5.3-5.3 22.9-4.2" fill="none" stroke="#ffffff" stroke-width="3"></path><path d="M1780,501q-5.8,24.1 0,27" fill="none" stroke="#ffffff" stroke-width="3"></path><path d="M1797,500q1.2,31.9 0,31" fill="none" stroke="#ffffff" stroke-width="3"></path><path d="M1789,519q6.1,.5 11,1" fill="none" stroke="#ffffff" stroke-width="3"></path><path d="M1809,501q-1.1,14.8 -2,27" fill="none" stroke="#ffffff" stroke-width="3"></path><path d="M1822,518q-9.2,6.9 -.1,8.8" fill="none" stroke="#ffffff" stroke-width="3"></path><path d="M1840,501q2.3,27 -3,33" fill="none" stroke="#ffffff" stroke-width="3"></path><path d="M1866,511q8.1-2.5 15-4" fill="none" stroke="#ffffff" stroke-width="3"></path><path d="M1862,518q9.9,0 18,0" fill="none" stroke="#ffffff" stroke-width="3"></path><path d="M1904,506q-1.8,26.7 -2,22" fill="none" stroke="#ffffff" stroke-width="3"></path><path d="M1889,501q9.3-.4 17,0" fill="none" stroke="#ffffff" stroke-width="3"></path><path d="M1919,511q-1,22.1 -2,22" fill="none" stroke="#ffffff" stroke-width="3"></path><path d="M1927,524q1.1,6.1 2,11" fill="none" stroke="#ffffff" stroke-width="3"></path><path d="M-48,744q25-77 40-70q1,16 -4,32q-1,26 0,48" fill="none" stroke="#ffffff" stroke-width="5"></path><path d="M-39,735q39-19 38-13" fill="none" stroke="#ffffff" stroke-width="5"></path><path d="M24,681q-13,42 -11,41q25-20 26,3q0,11 -14,10" fill="none" stroke="#ffffff" stroke-width="5"></path><path d="M68,713q-24,6 -13,10q14,7 5,14q-2,2 -12,2" fill="none" stroke="#ffffff" stroke-width="5"></path><path d="M70,718q24-5 23,4q-3,11 -7,21q-2,3 14,0" fill="none" stroke="#ffffff" stroke-width="5"></path><path d="M113,733q1,8 3,14" fill="none" stroke="#ffffff" stroke-width="5"></path><path d="M113,700q1,1 1,2" fill="none" stroke="#ffffff" stroke-width="5"></path><path d="M146,714q-12-1 -6,5q21,23 -4,24q-1,0 -3-6" fill="none" stroke="#ffffff" stroke-width="5"></path><path d="M172,717q-21,1 -12,8q36,26 -6,26" fill="none" stroke="#ffffff" stroke-width="5"></path><path d="M192,724q-25,13 21,27" fill="none" stroke="#ffffff" stroke-width="5"></path><path d="M266,720q29,0 29,0" fill="none" stroke="#ffffff" stroke-width="5"></path><path d="M266,729q11-1 20-1" fill="none" stroke="#ffffff" stroke-width="5"></path><path d="M-35,873q2-24 21-31q16-6 9,21q-5,24 -25,16" fill="none" stroke="#ffffff" stroke-width="5"></path><path d="M6,870Q15,881 11,880Q8,875 6,870" fill="none" stroke="#ffffff" stroke-width="5"></path><path d="M40,868q-13,11 -5,13q11-14 17-32" fill="none" stroke="#ffffff" stroke-width="5"></path><path d="M52,839q0,25 10,44" fill="none" stroke="#ffffff" stroke-width="5"></path><path d="M72,873q0,1 0,4" fill="none" stroke="#ffffff" stroke-width="5"></path><path d="M70,844q.5,.5 0,.5q-.5,0 -.5-.5q0-.5 .5-.5q.5,0 .5,.5" fill="none" stroke="#ffffff" stroke-width="5"></path><path d="M84,864q1,20 5,15q11-14 20,1" fill="none" stroke="#ffffff" stroke-width="5"></path><path d="M127,868q-15,9 -6,11q2,0 8-4" fill="none" stroke="#ffffff" stroke-width="5"></path><path d="M133,870q5,13 11,9" fill="none" stroke="#ffffff" stroke-width="5"></path><path d="M154,839q0,25 0,45" fill="none" stroke="#ffffff" stroke-width="5"></path><path d="M146,873q4,2 7,3" fill="none" stroke="#ffffff" stroke-width="5"></path><path d="M177,868q-18,4 -17,9q1,4 19,7" fill="none" stroke="#ffffff" stroke-width="5"></path><path d="M247,840q10,1 18,2" fill="none" stroke="#ffffff" stroke-width="5"></path><path d="M250,858q9-4 16-7" fill="none" stroke="#ffffff" stroke-width="5"></path><path d="M520,715q15-2 28-4" fill="none" stroke="#ffffff" stroke-width="5"></path><path d="M520,731q10,0 18,0" fill="none" stroke="#ffffff" stroke-width="5"></path><path d="M611,728q17-5 28-24q4-7 7-14q0,12 -2,34" fill="none" stroke="#ffffff" stroke-width="5"></path><path d="M633,724q7,1 12,2" fill="none" stroke="#ffffff" stroke-width="5"></path><path d="M667,717q3,16 11,6q4,2 7,5" fill="none" stroke="#ffffff" stroke-width="5"></path><path d="M704,717q-4-4 -4,0q2,6 3,12q-3,2 -7,4" fill="none" stroke="#ffffff" stroke-width="5"></path><path d="M738,713q-20,10 -8,12q10-5 18-12q1-1 -2,29q-1,19 -15,9q1-8 5-16" fill="none" stroke="#ffffff" stroke-width="5"></path><path d="M771,720q-12,9 1,10q18,2 11-12q2,4 6,10" fill="none" stroke="#ffffff" stroke-width="5"></path><path d="M795,720q-2,13 2,9q11-9 22,0" fill="none" stroke="#ffffff" stroke-width="5"></path><path d="M851,717q-23,10 -12,12q6-2 11-5q-1,9 -7,23q0,1 -7,4" fill="none" stroke="#ffffff" stroke-width="5"></path><path d="M876,714q-12,2 -8,8q5,8 -10,20" fill="none" stroke="#ffffff" stroke-width="5"></path><path d="M896,713q-11,21 -1,18q4-4 6-8q6,1 12,6" fill="none" stroke="#ffffff" stroke-width="5"></path><path d="M926,724q-17-7 -11,6q11,1 22-1" fill="none" stroke="#ffffff" stroke-width="5"></path><path d="M950,695q-11,46 -1,35q12-13 23-2" fill="none" stroke="#ffffff" stroke-width="5"></path><path d="M991,714q-12,1 -8,9q2,4 -2,11q-2-1 -4-3" fill="none" stroke="#ffffff" stroke-width="5"></path><path d="M1013,717q-9,3 -9,8q6,7 13,12" fill="none" stroke="#ffffff" stroke-width="5"></path><path d="M520,843q14-1 25-1" fill="none" stroke="#ffffff" stroke-width="5"></path><path d="M520,853q12,1 22,1" fill="none" stroke="#ffffff" stroke-width="5"></path><path d="M626,825q11-3 10,8q-1,19 0,19q19,13 16,1" fill="none" stroke="#ffffff" stroke-width="5"></path><path d="M663,842q-1,20 1,19" fill="none" stroke="#ffffff" stroke-width="5"></path><path d="M663,827q.5,.5 0,.5q-.5,0 -.5-.5q0-.5 .5-.5q.5,0 .5,.5" fill="none" stroke="#ffffff" stroke-width="5"></path><path d="M675,849q0,1 -1,2q-5,12 27,11" fill="none" stroke="#ffffff" stroke-width="5"></path><path d="M707,820q1,27 3,49" fill="none" stroke="#ffffff" stroke-width="5"></path><path d="M773,850q-12,6 -8,14q12,3 24,2" fill="none" stroke="#ffffff" stroke-width="5"></path><path d="M792,827q-5,59 4,41q10-19 27-2" fill="none" stroke="#ffffff" stroke-width="5"></path><path d="M832,849q-8,2 -8,15q0,7 -5,5" fill="none" stroke="#ffffff" stroke-width="5"></path><path d="M855,849q-20,10 -6,17q9,1 17,0" fill="none" stroke="#ffffff" stroke-width="5"></path><path d="M335,710q2-8 4-4q13,14 25,25" fill="none" stroke="#ffffff" stroke-width="5"></path><path d="M371,713q-18,10 -32,18" fill="none" stroke="#ffffff" stroke-width="5"></path><path d="M406,709q2,9 3,17" fill="none" stroke="#ffffff" stroke-width="5"></path><path d="M395,706q12-15 15-13q3,5 5,10" fill="none" stroke="#ffffff" stroke-width="5"></path><path d="M397,728q7,9 11,8q2-1 7-11" fill="none" stroke="#ffffff" stroke-width="5"></path><path d="M332,829q20,10 22,15" fill="none" stroke="#ffffff" stroke-width="5"></path><path d="M367,831q-31,30 -28,39" fill="none" stroke="#ffffff" stroke-width="5"></path><path d="M399,831q1,9 2,16" fill="none" stroke="#ffffff" stroke-width="5"></path><path d="M383,828q18-21 21-11" fill="none" stroke="#ffffff" stroke-width="5"></path><path d="M387,855q9,9 16,9q3,0 9-9" fill="none" stroke="#ffffff" stroke-width="5"></path><path d="M1350,787q1,1 -1,16q-2,20 1,13" fill="none" stroke="#ffffff" stroke-width="3"></path><path d="M1365,804q-1,11 -1,16" fill="none" stroke="#ffffff" stroke-width="3"></path><path d="M1366,784q-1,1 -1,2" fill="none" stroke="#ffffff" stroke-width="3"></path><path d="M1383,803q-1,13 0,10q7-14 10-5q1,4 1,4q14-8 21,1q1,2 3,10" fill="none" stroke="#ffffff" stroke-width="3"></path><path d="M1345,846q-2,20 0,15q9-23 21,7" fill="none" stroke="#ffffff" stroke-width="3"></path><path d="M1372,853q18,3 18,2" fill="none" stroke="#ffffff" stroke-width="3"></path><path d="M1394,848q20,6 12,11q-4,1 -7,2" fill="none" stroke="#ffffff" stroke-width="3"></path><path d="M1446,846q-3,20 -13,17q-5-1 -4-10q9,0 20,5q10,5 14-6q-4-4 -10-6" fill="none" stroke="#ffffff" stroke-width="3"></path><path d="M1545,816q-1-6 -5,1q-7,13 4,11q4-1 5-13q-1,0 -1,0q2,5 9,12" fill="none" stroke="#ffffff" stroke-width="3"></path><path d="M1563,826q2,9 4,7q4-7 18,7" fill="none" stroke="#ffffff" stroke-width="3"></path><path d="M1605,817q18-3 19,0" fill="none" stroke="#ffffff" stroke-width="3"></path><path d="M1604,825q22-1 23,0" fill="none" stroke="#ffffff" stroke-width="3"></path><path d="M1661,815q19-10 23-1q0,7 -1,13" fill="none" stroke="#ffffff" stroke-width="3"></path><path d="M1395,674q-22,18 -11,19q5,0 9-10q-1-1 -2-2q1,4 4,10" fill="none" stroke="#ffffff" stroke-width="3"></path><path d="M1407,685q-1,10 -1,10q1,1 5-5" fill="none" stroke="#ffffff" stroke-width="3"></path><path d="M1413,690q3,7 5,12" fill="none" stroke="#ffffff" stroke-width="3"></path><path d="M1453,691q7,1 12,2" fill="none" stroke="#ffffff" stroke-width="3"></path><path d="M1455,679q6,2 10,4" fill="none" stroke="#ffffff" stroke-width="3"></path><path d="M1556,675q25-12 25,1q0,3 -6,12" fill="none" stroke="#ffffff" stroke-width="3"></path><path d="M1533,696q17-1 47,1q8,0 39,0" fill="none" stroke="#ffffff" stroke-width="3"></path><path d="M1538,716q-3,21 -2,21q3-5 5-9" fill="none" stroke="#ffffff" stroke-width="3"></path><path d="M1549,723q5,14 6,14" fill="none" stroke="#ffffff" stroke-width="3"></path><path d="M1571,717q-2,16 -2,19" fill="none" stroke="#ffffff" stroke-width="3"></path><path d="M1562,730q4,1 8,2" fill="none" stroke="#ffffff" stroke-width="3"></path><path d="M1586,729q24-14 22-2q-3,7 -6,13" fill="none" stroke="#ffffff" stroke-width="3"></path><path d="M1541,729q3-2 6-4" fill="none" stroke="#ffffff" stroke-width="3"></path><path d="M739.8,858q-9.3,0 -10.5,9.4q-.8,6 6.4,3.7q7.8-2.6 3.8-12.5q-.3,.3 -.5,1.1q4.6,5.9 11.2,9.9" fill="none" stroke="#ffffff" stroke-width="2.5"></path></svg>