<svg viewBox="-224.3 130.7 1867.3 622.8" width="1867.3" height="622.8" version="1.1" baseProfile="full" xmlns="http://www.w3.org/2000/svg" class="js-draw--autoresize"><style id="js-draw-style-sheet">path{stroke-linecap:round;stroke-linejoin:round;}text{white-space:pre;}</style><g class="js-draw-image-background js-draw-image-background-grid js-draw-image-background-grid-25"><path d="M1643,753.5l0-622.8l-1867.3-5.684341886080802e-14l0,622.8l1867.3,0" fill="#03035e"></path><path d="M-224.65,150l1868,0m-1868,25l1868,0m-1868,25l1868,0m-1868,25l1868,0m-1868,25l1868,0m-1868,25l1868,0m-1868,25l1868,0m-1868,25l1868,0m-1868,25l1868,0m-1868,25l1868,0m-1868,25l1868,0m-1868,25l1868,0m-1868,25l1868,0m-1868,25l1868,0m-1868,25l1868,0m-1868,25l1868,0m-1868,25l1868,0m-1868,25l1868,0m-1868,25l1868,0m-1868,25l1868,0m-1868,25l1868,0m-1868,25l1868,0m-1868,25l1868,0m-1868,25l1868,0m-1868,25l1868,0m-1843.35-619.65l0,623.5m25-623.5l0,623.5m25-623.5l0,623.5m25-623.5l0,623.5m25-623.5l0,623.5m25-623.5l0,623.5m25-623.5l0,623.5m25-623.5l0,623.5m25-623.5l0,623.5m25-623.5l0,623.5m25-623.5l0,623.5m25-623.5l0,623.5m25-623.5l0,623.5m25-623.5l0,623.5m25-623.5l0,623.5m25-623.5l0,623.5m25-623.5l0,623.5m25-623.5l0,623.5m25-623.5l0,623.5m25-623.5l0,623.5m25-623.5l0,623.5m25-623.5l0,623.5m25-623.5l0,623.5m25-623.5l0,623.5m25-623.5l0,623.5m25-623.5l0,623.5m25-623.5l0,623.5m25-623.5l0,623.5m25-623.5l0,623.5m25-623.5l0,623.5m25-623.5l0,623.5m25-623.5l0,623.5m25-623.5l0,623.5m25-623.5l0,623.5m25-623.5l0,623.5m25-623.5l0,623.5m25-623.5l0,623.5m25-623.5l0,623.5m25-623.5l0,623.5m25-623.5l0,623.5m25-623.5l0,623.5m25-623.5l0,623.5m25-623.5l0,623.5m25-623.5l0,623.5m25-623.5l0,623.5m25-623.5l0,623.5m25-623.5l0,623.5m25-623.5l0,623.5m25-623.5l0,623.5m25-623.5l0,623.5m25-623.5l0,623.5m25-623.5l0,623.5m25-623.5l0,623.5m25-623.5l0,623.5m25-623.5l0,623.5m25-623.5l0,623.5m25-623.5l0,623.5m25-623.5l0,623.5m25-623.5l0,623.5m25-623.5l0,623.5m25-623.5l0,623.5m25-623.5l0,623.5m25-623.5l0,623.5m25-623.5l0,623.5m25-623.5l0,623.5m25-623.5l0,623.5m25-623.5l0,623.5m25-623.5l0,623.5m25-623.5l0,623.5m25-623.5l0,623.5m25-623.5l0,623.5m25-623.5l0,623.5m25-623.5l0,623.5m25-623.5l0,623.5" fill="none" stroke="#fcfca133" stroke-width=".7"></path></g><path d="M-208,132q-3.6,27.8 4.8,35.7q8.6,8.2 10.2-24.5" fill="none" stroke="#f0f0f0" stroke-width="2.6"></path><path d="M-174,142q11.5-.9 21-1" fill="none" stroke="#f0f0f0" stroke-width="2.6"></path><path d="M-173,149q6.1,1.6 11,3" fill="none" stroke="#f0f0f0" stroke-width="2.6"></path><path d="M-206,216q-.6,18.7 -1,34" fill="none" stroke="#f0f0f0" stroke-width="2.6"></path><path d="M-182,218q7.7,.9 14,2" fill="none" stroke="#f0f0f0" stroke-width="2.6"></path><path d="M-183,227q7.6-.4 14,0" fill="none" stroke="#f0f0f0" stroke-width="2.6"></path><path d="M-219,342q1.4,13.8 3,25" fill="none" stroke="#f0f0f0" stroke-width="2.6"></path><path d="M-223,349q24.3-13.1 17.9-2q-4.2,6.3 -7.9,11.4q-2.1,2.9 16,9.2q1.2,1.2 2,2.4" fill="none" stroke="#f0f0f0" stroke-width="2.6"></path><path d="M-177,349q9.3-1.2 17-2" fill="none" stroke="#f0f0f0" stroke-width="2.6"></path><path d="M-176,360q6.5-1 12-1" fill="none" stroke="#f0f0f0" stroke-width="2.6"></path><path d="M-109,343q-2.5,7.1 .9,20.2" fill="none" stroke="#f0f0f0" stroke-width="2.6"></path><path d="M-135,378q14.4-2.5 38.9,1.9" fill="none" stroke="#f0f0f0" stroke-width="2.6"></path><path d="M-121,397q-2.2,20 7.2,20.6q7.2-8.7 11-19.7q2.4,6.8 3.8,19.1" fill="none" stroke="#f0f0f0" stroke-width="2.6"></path><path d="M-113,148q-.1-5.3 -.9-4.5q-6.2,6.1 2.2,25.4q4,9.3 11.3-7.7q.9-6.5 .9-11.9q1.6,4.1 3.5,11.7" fill="none" stroke="#f0f0f0" stroke-width="2.6"></path><path d="M-91,174q2.7-11.8 8.1-7.6q6.2,4.9 -.8,7.3q-1.5,.5 -7.3-3.7" fill="none" stroke="#f0f0f0" stroke-width="2.6"></path><path d="M-57,154q8.8-.5 16-1" fill="none" stroke="#f0f0f0" stroke-width="2.6"></path><path d="M-9,144Q-4.2,164.6 -5,164" fill="none" stroke="#f0f0f0" stroke-width="2.6"></path><path d="M-11,149q7.7-8.8 14-4.3q5.5,3.9 -1.6,9.1q-1.9,.9 -3.4,1.4q4.8,7.9 15.4,15.9" fill="none" stroke="#f0f0f0" stroke-width="2.6"></path><path d="M21,166q-.5,4.4 -1,8" fill="none" stroke="#f0f0f0" stroke-width="2.6"></path><path d="M21,156q-.6-1.1 -1-2" fill="none" stroke="#f0f0f0" stroke-width="2.6"></path><path d="M43,158q.3,.3 0,.3q-.3,0 -.3-.3q0-.3 .3-.3q.3,0 .3,.3" fill="none" stroke="#f0f0f0" stroke-width="2.6"></path><path d="M69,151q1.4,10.4 2,19" fill="none" stroke="#f0f0f0" stroke-width="2.6"></path><path d="M59,144q22.7-4.9 23-2" fill="none" stroke="#f0f0f0" stroke-width="2.6"></path><path d="M65,176q5-.5 9-1" fill="none" stroke="#f0f0f0" stroke-width="2.6"></path><path d="M308.1,323.7q9.5-12.2 10.3-23q.1,1.9 0,5.5q0,2.7 5,12.4" fill="none" stroke="#f0f0f0" stroke-width="2.5"></path><path d="M294,298.9q-2.9,7.3 -.4,12.9q4.7,10.7 21.5,1.7" fill="none" stroke="#f0f0f0" stroke-width="2.5"></path><path d="M334.2,320.5q7.4-6.1 10.3-2.8q2,4.9 3.1,9.2" fill="none" stroke="#f0f0f0" stroke-width="2.5"></path><path d="M361.6,310.3q14.3-3.1 14.7-1.9" fill="none" stroke="#f0f0f0" stroke-width="2.5"></path><path d="M366.1,314.2q20.4-3.1 19.8-2" fill="none" stroke="#f0f0f0" stroke-width="2.5"></path><path d="M436.9,305.2q.6,15 6.9,13.5q3.1-5.4 4.2-11.5q3.2,2.2 6.8,7" fill="none" stroke="#f0f0f0" stroke-width="2.5"></path><path d="M460.5,317.4q4.3-4.4 11.4,.3q5,3.4 0,5.5q-6.4-2.4 -11.4-6.5" fill="none" stroke="#f0f0f0" stroke-width="2.5"></path><path d="M507,311q.2,.2 0,.2q-.2,0 -.2-.2q0-.2 .2-.2q.2,0 .2,.2" fill="none" stroke="#f0f0f0" stroke-width="2.5"></path><path d="M583.6,300.8q-.1,11.5 2.5,14.6" fill="none" stroke="#f0f0f0" stroke-width="2.5"></path><path d="M582.9,302q5.5-4.9 11-3.8q7,1.4 1.4,14q-1.4,3.2 4.2,1.3" fill="none" stroke="#f0f0f0" stroke-width="2.5"></path><path d="M609.7,312.2q12.1-6 17.9-.4q1.3,2.9 1.9,5.6" fill="none" stroke="#f0f0f0" stroke-width="2.5"></path><path d="M545.3,328.2q45.3-2.8 103.3,0" fill="none" stroke="#f0f0f0" stroke-width="2.5"></path><path d="M553,344.1q-5.2,17.4 -4.5,23.6" fill="none" stroke="#f0f0f0" stroke-width="2.5"></path><path d="M544.7,351.8q14.3-10 18.6-5q-2,4.9 -6,9.1q-5.2,5.4 11.6,9.3" fill="none" stroke="#f0f0f0" stroke-width="2.5"></path><path d="M572.1,362.6q10.5-6.4 11.7-.6q-.3,3.1 -.9,5.7" fill="none" stroke="#f0f0f0" stroke-width="2.5"></path><path d="M613.6,353.7q.1,7 .6,12.8" fill="none" stroke="#f0f0f0" stroke-width="2.5"></path><path d="M603.4,363.3q5.6,.3 10.2,.6" fill="none" stroke="#f0f0f0" stroke-width="2.5"></path><path d="M625,357.5q9-3.3 11.6,2.6q-.9,4.9 -2.8,8.9q1.4,.3 3.4,0" fill="none" stroke="#f0f0f0" stroke-width="2.5"></path><path d="M649.9,363.3q.8,8.9 1.1,16.2q1.8,.9 4,1" fill="none" stroke="#f0f0f0" stroke-width="2.5"></path><path d="M903,348q-.9,23 0,22" fill="none" stroke="#f0f0f0" stroke-width="2.6"></path><path d="M904,348q5.4-1.4 5.6,6.7q.2,11 3.6,13.9q6.4,5.3 9.8,1.4" fill="none" stroke="#f0f0f0" stroke-width="2.6"></path><path d="M897,334q5.2,7.5 12.8,8.3q11.7,1.9 21.2,3.7" fill="none" stroke="#f0f0f0" stroke-width="2.6"></path><path d="M882,324q11.2-1.4 49.2,3.8" fill="none" stroke="#f0f0f0" stroke-width="2.6"></path><path d="M901,290q-2.4,10.9 -4,20" fill="none" stroke="#f0f0f0" stroke-width="2.6"></path><path d="M898,292q13-5.3 15.9,2.1q-4.5,6.9 -11.4,11.9q4.6,1.2 12.5,1" fill="none" stroke="#f0f0f0" stroke-width="2.6"></path><path d="M922,304q4.8-5.7 10.1-5.3q5.2,.4 2.4,15.7" fill="none" stroke="#f0f0f0" stroke-width="2.6"></path><path d="M805,308q-2.7,7.1 6,12.7q11.5,7.5 17.8-10.9q-.5-2 -1.5-3.6q-.1,.9 0,2.6q.9,5.1 1.7,9.2" fill="none" stroke="#f0f0f0" stroke-width="2.6"></path><path d="M845,319q-1.1-.6 -2-1" fill="none" stroke="#f0f0f0" stroke-width="2.6"></path><path d="M853,315q12.7-10.1 16.4-2q1.6,3.6 -8.2,2.8" fill="none" stroke="#f0f0f0" stroke-width="2.6"></path><path d="M768,308q-2-5 6-4" fill="none" stroke="#f0f0f0" stroke-width="3"></path><path d="M763,314q4-1 8-1" fill="none" stroke="#f0f0f0" stroke-width="3"></path><path d="M711,305q-4,5 0,10q5,9 16,1q3-2 -2-11" fill="none" stroke="#f0f0f0" stroke-width="3"></path><path d="M730,318q13-5 15,5" fill="none" stroke="#f0f0f0" stroke-width="3"></path><path d="M1156,295q-3,17 4,29q6,10 10-14q1-9 -2-13" fill="none" stroke="#f0f0f0" stroke-width="3"></path><path d="M1182,320q0-2 5-2q3,4 5,8q-5-1 -12-6" fill="none" stroke="#f0f0f0" stroke-width="3"></path><path d="M1209,313q.3,.3 0,.3q-.3,0 -.3-.3q0-.3 .3-.3q.3,0 .3,.3" fill="none" stroke="#f0f0f0" stroke-width="3"></path><path d="M1253,300q0,15 0,15" fill="none" stroke="#f0f0f0" stroke-width="3"></path><path d="M1253,298q13-3 15,5q0,1 -1,11q0,1 4,1" fill="none" stroke="#f0f0f0" stroke-width="3"></path><path d="M1289,308q9-5 16,3q2,5 3,9" fill="none" stroke="#f0f0f0" stroke-width="3"></path><path d="M1144,341q117-6 158,1" fill="none" stroke="#f0f0f0" stroke-width="3"></path><path d="M1162,358q1,17 2,30" fill="none" stroke="#f0f0f0" stroke-width="3"></path><path d="M1164,366q6-8 7-7q-1,7 -3,12q-4,9 20,17" fill="none" stroke="#f0f0f0" stroke-width="3"></path><path d="M1147,355q42-4 42-1" fill="none" stroke="#f0f0f0" stroke-width="3"></path><path d="M1383,315q31-13 28-8" fill="none" stroke="#f0f0f0" stroke-width="4"></path><path d="M1383,326q12,0 21,0" fill="none" stroke="#f0f0f0" stroke-width="4"></path><path d="M1515,290q3,21 4,39" fill="none" stroke="#f0f0f0" stroke-width="4"></path><path d="M1542,311q4-1 8-1" fill="none" stroke="#f0f0f0" stroke-width="4"></path><path d="M1592,303q-4,7 -5,27" fill="none" stroke="#f0f0f0" stroke-width="4"></path><path d="M1583,299q34-6 24,9q-7,8 -7,9q7,6 14,9" fill="none" stroke="#f0f0f0" stroke-width="4"></path><path d="M1625,326q12-6 15-1q1,2 -4,10" fill="none" stroke="#f0f0f0" stroke-width="4"></path><path d="M-130,217q-3,12 3,21q11,13 21-13q0-2 1-3" fill="none" stroke="#f0f0f0" stroke-width="4"></path><path d="M-137,255q21,0 38,0" fill="none" stroke="#f0f0f0" stroke-width="4"></path><path d="M-125,271q0,17 0,31" fill="none" stroke="#f0f0f0" stroke-width="4"></path><path d="M-126,277q10-6 16-2q12,6 -11,14q5,6 14,11q6,8 11,15" fill="none" stroke="#f0f0f0" stroke-width="4"></path><path d="M289,604q12-18 14-10q0,14 0,26" fill="none" stroke="#f0f0f0" stroke-width="4"></path><path d="M275,632q24-1 44,0" fill="none" stroke="#f0f0f0" stroke-width="4"></path><path d="M292,664q-1,45 1,28" fill="none" stroke="#f0f0f0" stroke-width="4"></path><path d="M291,671q7-20 16-12q-2,13 -8,24q7,1 16,0" fill="none" stroke="#f0f0f0" stroke-width="4"></path><path d="M322,686q9-8 13-2q3,10 5,19" fill="none" stroke="#f0f0f0" stroke-width="4"></path><path d="M371,625q2,14 3,25" fill="none" stroke="#f0f0f0" stroke-width="4"></path><path d="M370,645q0,0 2-2" fill="none" stroke="#f0f0f0" stroke-width="4"></path><path d="M444,614q20-19 28-17q4,1 0,25" fill="none" stroke="#f0f0f0" stroke-width="4"></path><path d="M450,628q13,0 24,0" fill="none" stroke="#f0f0f0" stroke-width="4"></path><path d="M451,664q1,14 1,26" fill="none" stroke="#f0f0f0" stroke-width="4"></path><path d="M449,663q21-13 22-2q-5,9 -12,17q-4,4 14,3" fill="none" stroke="#f0f0f0" stroke-width="4"></path><path d="M482,678q14-5 16,1q5,21 -2,20" fill="none" stroke="#f0f0f0" stroke-width="4"></path><path d="M483,678q17-4 22,4q-2,10 -7,19q9,0 24-5" fill="none" stroke="#f0f0f0" stroke-width="4"></path><path d="M274,563q68,3 214,1q26-1 25,0" fill="none" stroke="#f0f0f0" stroke-width="4"></path><path d="M369,515q28-10 37-6q1,1 -1,9" fill="none" stroke="#f0f0f0" stroke-width="4"></path><path d="M655,568q265-5 337-3q7,0 13,0" fill="none" stroke="#f0f0f0" stroke-width="3"></path><path d="M763,533q41-17 48-14q-1,3 -4,6" fill="none" stroke="#f0f0f0" stroke-width="3"></path><path d="M689,660q1,13 3,24" fill="none" stroke="#f0f0f0" stroke-width="3"></path><path d="M692,668q19-21 16-4q-2,15 -2,15q0,1 4,0" fill="none" stroke="#f0f0f0" stroke-width="3"></path><path d="M714,680q13-11 16,3q4,22 1,14" fill="none" stroke="#f0f0f0" stroke-width="3"></path><path d="M750,667q1,10 1,19" fill="none" stroke="#f0f0f0" stroke-width="3"></path><path d="M748,672q8-11 8-3q1,8 1,15q0,1 6,1" fill="none" stroke="#f0f0f0" stroke-width="3"></path><path d="M773,684q10-11 12-3q-1,7 -3,14q6,2 15,2" fill="none" stroke="#f0f0f0" stroke-width="3"></path><path d="M674,639q49-4 148-3q29,1 53,1" fill="none" stroke="#f0f0f0" stroke-width="3"></path><path d="M701,599q2,18 4,22" fill="none" stroke="#f0f0f0" stroke-width="3"></path><path d="M702,612q16-24 16-12q-4,8 -9,14q-1,1 14,7q2,0 8,6" fill="none" stroke="#f0f0f0" stroke-width="3"></path><path d="M732,609q8-10 13-4q5,6 2,16" fill="none" stroke="#f0f0f0" stroke-width="3"></path><path d="M778,600q-4,21 -2,18" fill="none" stroke="#f0f0f0" stroke-width="3"></path><path d="M774,614q3,0 6,0" fill="none" stroke="#f0f0f0" stroke-width="3"></path><path d="M808,604q-1,7 1,16" fill="none" stroke="#f0f0f0" stroke-width="3"></path><path d="M806,609q8-13 18-10q5,1 -10,16q6,3 16,5" fill="none" stroke="#f0f0f0" stroke-width="3"></path><path d="M833,616q17-6 17,2q1,11 2,13q5,3 9,5" fill="none" stroke="#f0f0f0" stroke-width="3"></path><path d="M1122,565q9,2 16,4" fill="none" stroke="#f0f0f0" stroke-width="3"></path><path d="M1130,587q6,0 11,0" fill="none" stroke="#f0f0f0" stroke-width="3"></path><path d="M1287,542q31-18 37-8q-1,9 -3,17" fill="none" stroke="#f0f0f0" stroke-width="3"></path><path d="M1272,566q97,15 93,8" fill="none" stroke="#f0f0f0" stroke-width="3"></path><path d="M1273,599q0,10 0,18" fill="none" stroke="#f0f0f0" stroke-width="3"></path><path d="M1274,607q13-15 17-9q-3,8 -8,14q5,5 14,9" fill="none" stroke="#f0f0f0" stroke-width="3"></path><path d="M1297,606q15-8 17-3q-1,12 -3,22" fill="none" stroke="#f0f0f0" stroke-width="3"></path><path d="M1327,602q-1,8 -1,14" fill="none" stroke="#f0f0f0" stroke-width="3"></path><path d="M1325,610q5,1 9,2" fill="none" stroke="#f0f0f0" stroke-width="3"></path><path d="M1347,604q1,6 2,11" fill="none" stroke="#f0f0f0" stroke-width="3"></path><path d="M1344,606q6-6 11-2q3,7 5,12q0,1 4,3" fill="none" stroke="#f0f0f0" stroke-width="3"></path><path d="M1366,604q17,1 18,8q0,6 -1,11q0,2 7,0" fill="none" stroke="#f0f0f0" stroke-width="3"></path><path d="M673,709q98-9 145-3" fill="none" stroke="#f0f0f0" stroke-width="3"></path><path d="M1395,575q.3,.3 0,.3q-.3,0 -.3-.3q0-.3 .3-.3q.3,0 .3,.3" fill="none" stroke="#f0f0f0" stroke-width="3"></path><path d="M1442,535q-7,22 -5,24" fill="none" stroke="#f0f0f0" stroke-width="3"></path><path d="M1439,537q10-6 18-1q8,4 -14,11q-3,1 11,12q1,1 2,3" fill="none" stroke="#f0f0f0" stroke-width="3"></path><path d="M1468,558q12-5 10,1q-2,14 -3,14" fill="none" stroke="#f0f0f0" stroke-width="3"></path><path d="M1501,544q-1,20 0,19" fill="none" stroke="#f0f0f0" stroke-width="3"></path><path d="M1499,546q9-7 8,1q-2,9 1,12q3,0 6-1" fill="none" stroke="#f0f0f0" stroke-width="3"></path><path d="M1523,553q9-3 7,3q-3,4 -6,7q8,1 21-2" fill="none" stroke="#f0f0f0" stroke-width="3"></path><path d="M1431,581q75-7 118-1" fill="none" stroke="#f0f0f0" stroke-width="3"></path><path d="M1477,603q18-10 23,0q0,10 -1,18" fill="none" stroke="#f0f0f0" stroke-width="3"></path><path d="M727,731q17-9 16,21" fill="none" stroke="#f0f0f0" stroke-width="3"></path></svg>