<svg viewBox="-236.5 92.7 550.8 1010.6" width="550.8" height="1010.6" version="1.1" baseProfile="full" xmlns="http://www.w3.org/2000/svg" class="js-draw--autoresize"><style id="js-draw-style-sheet">path{stroke-linecap:round;stroke-linejoin:round;}text{white-space:pre;}</style><g class="js-draw-image-background js-draw-image-background-grid js-draw-image-background-grid-25"><path d="M314.3,1103.3l0-1010.6l-550.8-4.263256414560601e-14l0,1010.6l550.8,0" fill="#03035e"></path><path d="M-236.85,100l551.5,0m-551.5,25l551.5,0m-551.5,25l551.5,0m-551.5,25l551.5,0m-551.5,25l551.5,0m-551.5,25l551.5,0m-551.5,25l551.5,0m-551.5,25l551.5,0m-551.5,25l551.5,0m-551.5,25l551.5,0m-551.5,25l551.5,0m-551.5,25l551.5,0m-551.5,25l551.5,0m-551.5,25l551.5,0m-551.5,25l551.5,0m-551.5,25l551.5,0m-551.5,25l551.5,0m-551.5,25l551.5,0m-551.5,25l551.5,0m-551.5,25l551.5,0m-551.5,25l551.5,0m-551.5,25l551.5,0m-551.5,25l551.5,0m-551.5,25l551.5,0m-551.5,25l551.5,0m-551.5,25l551.5,0m-551.5,25l551.5,0m-551.5,25l551.5,0m-551.5,25l551.5,0m-551.5,25l551.5,0m-551.5,25l551.5,0m-551.5,25l551.5,0m-551.5,25l551.5,0m-551.5,25l551.5,0m-551.5,25l551.5,0m-551.5,25l551.5,0m-551.5,25l551.5,0m-551.5,25l551.5,0m-551.5,25l551.5,0m-551.5,25l551.5,0m-551.5,25l551.5,0m-539.65-1007.65l0,1011.3m25-1011.3l0,1011.3m25-1011.3l0,1011.3m25-1011.3l0,1011.3m25-1011.3l0,1011.3m25-1011.3l0,1011.3m25-1011.3l0,1011.3m25-1011.3l0,1011.3m25-1011.3l0,1011.3m25-1011.3l0,1011.3m25-1011.3l0,1011.3m25-1011.3l0,1011.3m25-1011.3l0,1011.3m25-1011.3l0,1011.3m25-1011.3l0,1011.3m25-1011.3l0,1011.3m25-1011.3l0,1011.3m25-1011.3l0,1011.3m25-1011.3l0,1011.3m25-1011.3l0,1011.3m25-1011.3l0,1011.3m25-1011.3l0,1011.3" fill="none" stroke="#fcfca133" stroke-width=".7"></path></g><path d="M-186,102q3.6,29 4,27" fill="none" stroke="#f0f0f0" stroke-width="2.6"></path><path d="M-201,95q22-.8 40-1" fill="none" stroke="#f0f0f0" stroke-width="2.6"></path><path d="M-148,107q9.9-1.1 18-2" fill="none" stroke="#f0f0f0" stroke-width="2.6"></path><path d="M-144,115q7.7-.6 14-1" fill="none" stroke="#f0f0f0" stroke-width="2.6"></path><path d="M-61,116q9.1-16.7 9.4-10.1q-.1,8.3 -.4,15.1" fill="none" stroke="#f0f0f0" stroke-width="2.6"></path><path d="M-40,113q6-12.6 13.5-2.1q4.7,6.5 -8.6,9.4q-1,.2 -4.9-2.3" fill="none" stroke="#f0f0f0" stroke-width="2.6"></path><path d="M16,109q5,11.5 1.5,8.9q-2.3-1.8 5.9-6.8q5.2-3.2 8.1,6.2q.1,.4 .1,.7q3.1-.8 6.9-3.6q5.7,1.4 10.5,4.6" fill="none" stroke="#f0f0f0" stroke-width="2.6"></path><path d="M56,117q-8.1,4.7 -.9,5.7q5.8-1.3 10.5-3.2q2.5,1 4.4,2.5" fill="none" stroke="#f0f0f0" stroke-width="2.6"></path><path d="M78,105q.3,11.5 1,21" fill="none" stroke="#f0f0f0" stroke-width="2.6"></path><path d="M-192,170q19.7-1.3 28.5-3.2" fill="none" stroke="#f0f0f0" stroke-width="2.6"></path><path d="M-189,182q-.9-1.5 3.7-2.1q11.7-.3 21.3,.1" fill="none" stroke="#f0f0f0" stroke-width="2.6"></path><path d="M-177,183q1.9,9.9 4,18" fill="none" stroke="#f0f0f0" stroke-width="2.6"></path><path d="M-181,242q8.3-4.2 11.4,.5q7,10.5 -1.6,15.3q-5.5,3 -11.4-5.9q-.7-9.7 .7-18.1q7.4-2.9 15.9-2.8" fill="none" stroke="#f0f0f0" stroke-width="2.6"></path><path d="M-148,255q-1,3.9 -1,8" fill="none" stroke="#f0f0f0" stroke-width="2.6"></path><path d="M-152,256q4.4-.6 8-1" fill="none" stroke="#f0f0f0" stroke-width="2.6"></path><path d="M-116,253q-3.3,3.8 -6,7" fill="none" stroke="#f0f0f0" stroke-width="2.6"></path><path d="M-84,245q11.1-1.3 11.9,2.5q3.1,15.4 -6,11.8q-7.6-10.4 -11.9-21.1q-1.8-4.7 13-4.5q19.3,.2 17,1.3" fill="none" stroke="#f0f0f0" stroke-width="2.6"></path><path d="M-56,253q8.3,1.5 15,3" fill="none" stroke="#f0f0f0" stroke-width="2.6"></path><path d="M-56,260q7.7-.2 14,0" fill="none" stroke="#f0f0f0" stroke-width="2.6"></path><path d="M-46,263q-.8,7.1 -1,13" fill="none" stroke="#f0f0f0" stroke-width="2.6"></path><path d="M-180,314q.4,18.2 0,18" fill="none" stroke="#f0f0f0" stroke-width="2.6"></path><path d="M-194,315q6.9-3.3 21.7-1.8" fill="none" stroke="#f0f0f0" stroke-width="2.6"></path><path d="M-196,305q5.6-2.5 28.3-3.2" fill="none" stroke="#f0f0f0" stroke-width="2.6"></path><path d="M-144,310q1.1,4.4 2,8" fill="none" stroke="#f0f0f0" stroke-width="2.6"></path><path d="M-151,316q3.9,.5 7,1" fill="none" stroke="#f0f0f0" stroke-width="2.6"></path><path d="M-147,329q7.2-1.1 13-2" fill="none" stroke="#f0f0f0" stroke-width="2.6"></path><path d="M-86,313q13.7-1.2 8.9,4q-.8,.9 -.3,1.3q8.4,7.4 -1,12.7q-2.6,1.5 -2.6-1" fill="none" stroke="#f0f0f0" stroke-width="2.6"></path><path d="M-62,319q7.7,.7 7.7,1.4q-.3,18.6 -6.7,11.4q-8.4-9.5 2.2-20.6q5.6,0 10.8,1.8" fill="none" stroke="#f0f0f0" stroke-width="2.6"></path><path d="M-49,329q8.8-.8 16-1" fill="none" stroke="#f0f0f0" stroke-width="2.6"></path><path d="M-43,333q-.8,.3 -1.4,.6q3.7,1.1 10.4,1.4" fill="none" stroke="#f0f0f0" stroke-width="2.6"></path><path d="M-38,337q-.2,8.8 0,16" fill="none" stroke="#f0f0f0" stroke-width="2.6"></path><path d="M-177,415q2.4,21.8 2,21" fill="none" stroke="#f0f0f0" stroke-width="2.6"></path><path d="M-191,410q6.2-2.4 23.1-1.1" fill="none" stroke="#f0f0f0" stroke-width="2.6"></path><path d="M-154,420q6.9,.2 13,2" fill="none" stroke="#f0f0f0" stroke-width="2.6"></path><path d="M-154,430q7.1,0 13,0" fill="none" stroke="#f0f0f0" stroke-width="2.6"></path><path d="M-104,420q8.1-5.7 5,6q-2.2,8.5 -.3,9.3q1,.5 5.3-2.3" fill="none" stroke="#f0f0f0" stroke-width="2.6"></path><path d="M-78,418q.4,9.9 1,18" fill="none" stroke="#f0f0f0" stroke-width="2.6"></path><path d="M-66,416q0,9.9 0,18" fill="none" stroke="#f0f0f0" stroke-width="2.6"></path><path d="M-91,414q30.9-2.1 31-2" fill="none" stroke="#f0f0f0" stroke-width="2.6"></path><path d="M-48,409q2.7-1.9 3.8,2.7q2.9,13 5.4,23.5q.6,2.6 .9-9.1q1.9-60.3 17.3-49.8q8.7,5.9 40,1.9" fill="none" stroke="#f0f0f0" stroke-width="2.6"></path><path d="M-15,392q1,10 7,11.2q6-.3 11-1.2" fill="none" stroke="#f0f0f0" stroke-width="2.6"></path><path d="M-25,414q30.6-2.2 28,0" fill="none" stroke="#f0f0f0" stroke-width="2.6"></path><path d="M-11,428q-3.1,3.3 .7,4.2q2.5-1.6 4.3-3.9q.5,4.5 -.5,12q-.5,4 -11.4-4.1" fill="none" stroke="#f0f0f0" stroke-width="2.6"></path><path d="M45,416q2.3-2.5 20.4-3.1" fill="none" stroke="#f0f0f0" stroke-width="2.6"></path><path d="M77,408q10.3,5.4 4.4,9.6q-.4,.3 -2.4,.4" fill="none" stroke="#f0f0f0" stroke-width="2.6"></path><path d="M130,406q-4.6,4.4 -2.4,7.4q5,6.6 7.7-2.2q3.5-11.1 2.6,16.1q-.4,11 -15.1-2.4" fill="none" stroke="#f0f0f0" stroke-width="2.6"></path><path d="M159,404q8.8-.2 16,0" fill="none" stroke="#f0f0f0" stroke-width="2.6"></path><path d="M165,411q12.7-1.6 13-1" fill="none" stroke="#f0f0f0" stroke-width="2.6"></path><path d="M227,400q-14,8.6 -7.8,11.9q1.6,.9 8.8-1.9" fill="none" stroke="#f0f0f0" stroke-width="2.6"></path><path d="M229,398q-1.3,21.2 0,19" fill="none" stroke="#f0f0f0" stroke-width="2.6"></path><path d="M245,398q-.8,17.2 .1,20.4" fill="none" stroke="#f0f0f0" stroke-width="2.6"></path><path d="M259,397q-.7,4 -1.5,19.5" fill="none" stroke="#f0f0f0" stroke-width="2.6"></path><path d="M237,393q18.2-5.3 28-1" fill="none" stroke="#f0f0f0" stroke-width="2.6"></path><path d="M273,379q9.8-1.7 7.6,3.4q-3.7,8.4 -3.5,8.9q.3,.9 4.9,.7" fill="none" stroke="#f0f0f0" stroke-width="2.6"></path><path d="M298,384q-14.4,31.6 -10.7,34.9q8.3,0 15.9-2.3q5.3-.6 9.8-.6" fill="none" stroke="#f0f0f0" stroke-width="2.6"></path><path d="M219,432q49.4-2.1 89.8-3.4" fill="none" stroke="#f0f0f0" stroke-width="2.6"></path><path d="M247,444q.6,11 1,20" fill="none" stroke="#f0f0f0" stroke-width="2.6"></path><path d="M236,440q9-3.6 20.8-3.1" fill="none" stroke="#f0f0f0" stroke-width="2.6"></path><path d="M265,436q8,1 5.8,6.9q-2.6,6.9 -1.3,7.7q1.4,.9 8.5-.6" fill="none" stroke="#f0f0f0" stroke-width="2.6"></path><path d="M-179,496q2.1,.5 2,11.5q-.1,14.6 -1.9,15.8q-1.1,.7 -2.1-6.3" fill="none" stroke="#f0f0f0" stroke-width="2.6"></path><path d="M-187,494q16.1-9.7 19-4" fill="none" stroke="#f0f0f0" stroke-width="2.6"></path><path d="M-161,484q7.8,5.8 4.6,11.6q-2,3.9 -.8,5.2q3.2,.5 6.2,.2" fill="none" stroke="#f0f0f0" stroke-width="2.6"></path><path d="M-129,504q1.3-1.9 14.5-1" fill="none" stroke="#f0f0f0" stroke-width="2.6"></path><path d="M-128,511q8.2,0 15,0" fill="none" stroke="#f0f0f0" stroke-width="2.6"></path><path d="M-69,498q-12.6,7.6 -9.9,12.3q1.9,.2 3.9-.3" fill="none" stroke="#f0f0f0" stroke-width="2.6"></path><path d="M-71,500q-.1,12.1 0,22" fill="none" stroke="#f0f0f0" stroke-width="2.6"></path><path d="M-57,500q1.7,19 2.3,20" fill="none" stroke="#f0f0f0" stroke-width="2.6"></path><path d="M-43,503q-3.3,14.1 -2,14" fill="none" stroke="#f0f0f0" stroke-width="2.6"></path><path d="M-55,496q8.2,0 15,0" fill="none" stroke="#f0f0f0" stroke-width="2.6"></path><path d="M-26,492q7.5-3.1 7.9,1.7q-1.7,5 -3.9,8.9q-.8,1.4 6,.4" fill="none" stroke="#f0f0f0" stroke-width="2.6"></path><path d="M16,494q-2.8,16.3 2.6,17.8q16.4,4.3 14.4,.2" fill="none" stroke="#f0f0f0" stroke-width="2.6"></path><path d="M9,515Q23.3,515.3 35,516" fill="none" stroke="#f0f0f0" stroke-width="2.6"></path><path d="M17,525q-2.5,6.3 2.4,5.7q1.6-1.4 2.7-2.9q1.5,4.5 1.7,12.2q.1,7.3 -11,1" fill="none" stroke="#f0f0f0" stroke-width="2.6"></path><path d="M-183,650q12-30 15-22q1,11 0,20q-1,13 -15,1q1-1 3-2" fill="none" stroke="#f0f0f0" stroke-width="3"></path><path d="M-145,640q-7,0 -9,4q-3,8 8,4q4-4 6-7q1,5 1,13q1,7 -23,2" fill="none" stroke="#f0f0f0" stroke-width="3"></path><path d="M-185,671q41-5 44,0" fill="none" stroke="#f0f0f0" stroke-width="3"></path><path d="M-158,679q-6,6 -1,11q1-2 3-5q0,6 -1,15q-6,0 -14-3" fill="none" stroke="#f0f0f0" stroke-width="3"></path><path d="M-103,654q8-1 14-1" fill="none" stroke="#f0f0f0" stroke-width="3"></path><path d="M-102,660q10,1 11,1" fill="none" stroke="#f0f0f0" stroke-width="3"></path><path d="M-50,658q11-11 20-20q1-1 5,13q4,13 -21,5q4,0 10,1" fill="none" stroke="#f0f0f0" stroke-width="3"></path><path d="M-7,639q-5,22 0,23q11-1 19-2" fill="none" stroke="#f0f0f0" stroke-width="3"></path><path d="M-50,674q-1-1 9-1q29,1 53,1" fill="none" stroke="#f0f0f0" stroke-width="3"></path><path d="M-34,683q5-3 5,4q-1,9 -3,16q9,1 21-2q3,1 5,2" fill="none" stroke="#f0f0f0" stroke-width="3"></path><path d="M42,650q1,8 1,15" fill="none" stroke="#f0f0f0" stroke-width="3"></path><path d="M37,659q16-2 17-1" fill="none" stroke="#f0f0f0" stroke-width="3"></path><path d="M73,651q19,2 13,10q-6,7 8,7" fill="none" stroke="#f0f0f0" stroke-width="3"></path><path d="M110,669q12-23 13-22q6,13 13,23q-9,3 -22,2" fill="none" stroke="#f0f0f0" stroke-width="3"></path><path d="M149,652q5,5 5,15q0,2 1,3" fill="none" stroke="#f0f0f0" stroke-width="3"></path><path d="M134,646q8-4 18-4q10,2 18,4" fill="none" stroke="#f0f0f0" stroke-width="3"></path><path d="M121,698q3,21 2,23q0,0 -2-2" fill="none" stroke="#f0f0f0" stroke-width="3"></path><path d="M112,698q32-5 33-4" fill="none" stroke="#f0f0f0" stroke-width="3"></path><path d="M100,686q20-3 58,0" fill="none" stroke="#f0f0f0" stroke-width="3"></path><path d="M-176,799q0,1 0,1q-2,45 -2,109q-1,72 -2,75q-1,23 1,42q1,14 3,26" fill="none" stroke="#f0f0f0" stroke-width="3"></path><path d="M-170,1051q28,4 89,3q79-2 143-2q35-1 64-2" fill="none" stroke="#f0f0f0" stroke-width="3"></path><path d="M-184,810q6-19 15-13q8,6 3,17q-8,0 -16-4" fill="none" stroke="#f0f0f0" stroke-width="3"></path><path d="M-218,786q-1,15 -2,27" fill="none" stroke="#f0f0f0" stroke-width="3"></path><path d="M-235,784q14,2 25,4" fill="none" stroke="#f0f0f0" stroke-width="3"></path><path d="M-204,771q12,6 8,13q-4,5 -4,7q5,1 9,1" fill="none" stroke="#f0f0f0" stroke-width="3"></path><path d="M122,1040q10.7,13.5 9.4,14.3q-5.1,.3 -9.4-.3" fill="none" stroke="#f0f0f0" stroke-width="2.6"></path><path d="M120,1078q-.6,12.3 -1.5,22.3q5.8,1 13.2-.6q5.1,.8 9.3,2.3" fill="none" stroke="#f0f0f0" stroke-width="2.6"></path><path d="M-171,1048q4.4-13.5 19.3-27.8q44.9-43.1 118-78.7q85.1-41.5 124.8-43.8" fill="none" stroke="#f0f0f0" stroke-width="2.6"></path><path d="M-133.7,1003.7l1.4-1.4q-2.2-2.3 -5-5l-1.4,1.4q2.7,2.8 5,5" fill="#00ff8c"></path><path d="M-138.8,1006.4l1.6,1.2q3.1-4 7-9l-1.6-1.2q-3.9,4.9 -7,9" fill="#00ff8c"></path><path d="M-68.6,960.8l1.2-1.6q-6.8-5.2 -9.5-1.7l1.8,1q1-2.4 6.5,2.3" fill="#00ff8c"></path><path d="M-74.4,959.1l.8,1.8q4.4-2 9.9-3.9l-.6-2q-5.6,2.1 -10.1,4.1" fill="#00ff8c"></path><path d="M-6.4,933.9l.8-1.8q-5.3-2.5 -12-5l-.8,1.8q6.7,2.5 12,5" fill="#00ff8c"></path><path d="M-10,930.3l2-.6q-.9-1.9 4.5-4.8l-1-1.8q-6.2,3.8 -5.5,7.2" fill="#00ff8c"></path><path d="M65.4,904.8l1.2-1.6q-2.7-1.9 -6-4l-1.2,1.6q3.3,2.2 6,4" fill="#00ff8c"></path><path d="M62.6,906.8l-1.2-1.6q0,1.2 9.2-4.4l-1.2-1.6q-9.7,8.4 -6.8,7.6" fill="#00ff8c"></path><path d="M-172,1045q7-20.5 33.8-57.3q27.7-38.3 91.6-66.4q48.2-19.9 87.7-35.6q9.8-2.2 18-3.3" fill="none" stroke="#f0f0f0" stroke-width="2.6"></path><path d="M-163,1050q3-10.3 19.7-23.1q50.1-38.3 156.2-71.6q27.6-10.3 49.9-19.4q10-2.7 18.4-4.6q.8-.2 2.8-3.3" fill="none" stroke="#f0f0f0" stroke-width="2.6"></path><path d="M-133,983q-.6,27.2 0,29" fill="none" stroke="#f0f0f0" stroke-width="2.6"></path><path d="M-75,944q2.4,11.2 -1.9,41" fill="none" stroke="#f0f0f0" stroke-width="2.6"></path><path d="M-8,917Q-6.6,957.5 -7.8,969.9" fill="none" stroke="#f0f0f0" stroke-width="2.6"></path><path d="M64,893q.7,36.4 -8.2,43.4" fill="none" stroke="#f0f0f0" stroke-width="2.6"></path><path d="M53,883q6.1-.5 11-1" fill="none" stroke="#f0f0f0" stroke-width="2.6"></path><path d="M46,941q5-.5 9-1" fill="none" stroke="#f0f0f0" stroke-width="2.6"></path><path d="M-12,969q5-3.3 9-6" fill="none" stroke="#f0f0f0" stroke-width="2.6"></path><path d="M-22,912q7.2-2.7 13-5" fill="none" stroke="#f0f0f0" stroke-width="2.6"></path><path d="M-138,978q3.8-1.1 7-2" fill="none" stroke="#f0f0f0" stroke-width="2.6"></path><path d="M-137,1017q3.8-1.1 7-2" fill="none" stroke="#f0f0f0" stroke-width="2.6"></path><path d="M-78,985q-.8-2.1 1.6-2.8q7.9-1.4 14.4-2.2" fill="none" stroke="#f0f0f0" stroke-width="2.6"></path><path d="M-80,933q11-2.1 20-4" fill="none" stroke="#f0f0f0" stroke-width="2.6"></path><path d="M-12,904q11,.5 13,1" fill="none" stroke="#f0f0f0" stroke-width="2.6"></path><path d="M58,882q6,0 11,0" fill="none" stroke="#f0f0f0" stroke-width="2.6"></path><path d="M52,939q5.5-.2 10,0" fill="none" stroke="#f0f0f0" stroke-width="2.6"></path><path d="M69,883q-3.9-.5 -7-1" fill="none" stroke="#f0f0f0" stroke-width="2.6"></path><path d="M67,881q-.5,5 -1,9" fill="none" stroke="#f0f0f0" stroke-width="2.6"></path></svg>