<svg viewBox="-246.3 -159.3 1892.7 660.9" width="1892.7" height="660.9" version="1.1" baseProfile="full" xmlns="http://www.w3.org/2000/svg" class="js-draw--autoresize"><style id="js-draw-style-sheet">path{stroke-linecap:round;stroke-linejoin:round;}text{white-space:pre;}</style><g class="js-draw-image-background js-draw-image-background-grid js-draw-image-background-grid-25"><path d="M1646.4,501.6l0-660.9l-1892.7,0l0,660.9l1892.7,0" fill="#03035e"></path><path d="M-246.65,-150l1893.4,0m-1893.4,25l1893.4,0m-1893.4,25l1893.4,0m-1893.4,25l1893.4,0m-1893.4,25l1893.4,0m-1893.4,25l1893.4,0m-1893.4,25l1893.4,0m-1893.4,25l1893.4,0m-1893.4,25l1893.4,0m-1893.4,25l1893.4,0m-1893.4,25l1893.4,0m-1893.4,25l1893.4,0m-1893.4,25l1893.4,0m-1893.4,25l1893.4,0m-1893.4,25l1893.4,0m-1893.4,25l1893.4,0m-1893.4,25l1893.4,0m-1893.4,25l1893.4,0m-1893.4,25l1893.4,0m-1893.4,25l1893.4,0m-1893.4,25l1893.4,0m-1893.4,25l1893.4,0m-1893.4,25l1893.4,0m-1893.4,25l1893.4,0m-1893.4,25l1893.4,0m-1893.4,25l1893.4,0m-1893.4,25l1893.4,0m-1871.75-659.65l0,661.6m25-661.6l0,661.6m25-661.6l0,661.6m25-661.6l0,661.6m25-661.6l0,661.6m25-661.6l0,661.6m25-661.6l0,661.6m25-661.6l0,661.6m25-661.6l0,661.6m25-661.6l0,661.6m25-661.6l0,661.6m25-661.6l0,661.6m25-661.6l0,661.6m25-661.6l0,661.6m25-661.6l0,661.6m25-661.6l0,661.6m25-661.6l0,661.6m25-661.6l0,661.6m25-661.6l0,661.6m25-661.6l0,661.6m25-661.6l0,661.6m25-661.6l0,661.6m25-661.6l0,661.6m25-661.6l0,661.6m25-661.6l0,661.6m25-661.6l0,661.6m25-661.6l0,661.6m25-661.6l0,661.6m25-661.6l0,661.6m25-661.6l0,661.6m25-661.6l0,661.6m25-661.6l0,661.6m25-661.6l0,661.6m25-661.6l0,661.6m25-661.6l0,661.6m25-661.6l0,661.6m25-661.6l0,661.6m25-661.6l0,661.6m25-661.6l0,661.6m25-661.6l0,661.6m25-661.6l0,661.6m25-661.6l0,661.6m25-661.6l0,661.6m25-661.6l0,661.6m25-661.6l0,661.6m25-661.6l0,661.6m25-661.6l0,661.6m25-661.6l0,661.6m25-661.6l0,661.6m25-661.6l0,661.6m25-661.6l0,661.6m25-661.6l0,661.6m25-661.6l0,661.6m25-661.6l0,661.6m25-661.6l0,661.6m25-661.6l0,661.6m25-661.6l0,661.6m25-661.6l0,661.6m25-661.6l0,661.6m25-661.6l0,661.6m25-661.6l0,661.6m25-661.6l0,661.6m25-661.6l0,661.6m25-661.6l0,661.6m25-661.6l0,661.6m25-661.6l0,661.6m25-661.6l0,661.6m25-661.6l0,661.6m25-661.6l0,661.6m25-661.6l0,661.6m25-661.6l0,661.6m25-661.6l0,661.6m25-661.6l0,661.6m25-661.6l0,661.6m25-661.6l0,661.6" fill="none" stroke="#fcfca133" stroke-width=".7"></path></g><path d="M-245,-100q240.2-.6 369,4.9q59.6,1.6 108.5,2.6q252.5,5 330.1,20.2" fill="none" stroke="#f0f0f0" stroke-width="2.6"></path><path d="M67,-152q-3.7,35.5 0,33" fill="none" stroke="#f0f0f0" stroke-width="2.6"></path><path d="M73,-146q5.6-6.8 11.7-7.6q7.2-.9 5.9,6.8q-5.2,5.2 -10.9,8.6q4.6,5.9 13.5,11.2q4.7,2.7 -5.9,7.1q-12.4,5.1 -9.3-1.1" fill="none" stroke="#f0f0f0" stroke-width="2.6"></path><path d="M113,-135q-1.2,13.6 -1,14" fill="none" stroke="#f0f0f0" stroke-width="2.6"></path><path d="M114,-154q.6-.5 1-1" fill="none" stroke="#f0f0f0" stroke-width="2.6"></path><path d="M133,-158q2.1,2.5 2.7,20.7q.5,15.1 1.3,15.3" fill="none" stroke="#f0f0f0" stroke-width="2.6"></path><path d="M156,-138q-8.8,14.7 -2.3,16.1q4,.8 4-9.2q-.5,0 -1.1,.3q-2.6,1.4 12.4,7.8" fill="none" stroke="#f0f0f0" stroke-width="2.6"></path><path d="M173,-135q-.2,15.2 1.6,13.3q11-12.2 17.4,.7" fill="none" stroke="#f0f0f0" stroke-width="2.6"></path><path d="M204,-134q16.4-1.1 19,6.2q-2.7,5.5 -6.9,9.7q3.8,6.1 10.9,11.1" fill="none" stroke="#f0f0f0" stroke-width="2.6"></path><path d="M160,-86q3,70 -3,166q0,42 0,76q3,150 4,272q1,13 1,23" fill="none" stroke="#f0f0f0" stroke-width="3"></path><path d="M-198.8,-64.8q7.3,15 10.1,11.7q4.7-9.3 7.6-17.4" fill="none" stroke="#f0f0f0" stroke-width="2"></path><path d="M-211.6,172.2q12,21.9 16.2,18.7q4.1-9.3 5.8-18.1" fill="none" stroke="#f0f0f0" stroke-width="2.5"></path><path d="M205.3,-72q-3.9,28.7 -2,21.3" fill="none" stroke="#f0f0f0" stroke-width="2"></path><path d="M203.8,-69q10.6-.9 19.3-1.5" fill="none" stroke="#f0f0f0" stroke-width="2"></path><path d="M204.3,-60.4q7-.3 12.7-.5" fill="none" stroke="#f0f0f0" stroke-width="2"></path><path d="M234.2,-72q-2.9,16.5 -3,19.6" fill="none" stroke="#f0f0f0" stroke-width="2"></path><path d="M246.4,-66.4q-10.6,8.6 -10.7,13.1q4.8,4 10.7,6.1" fill="none" stroke="#f0f0f0" stroke-width="2"></path><path d="M210.5,320.5q-3.2,19 -2.3,29.4" fill="none" stroke="#f0f0f0" stroke-width="2.6"></path><path d="M213.5,322.5q15.1-3.2 17-2" fill="none" stroke="#f0f0f0" stroke-width="2.6"></path><path d="M211.5,333.5q18.1-3.9 18-3" fill="none" stroke="#f0f0f0" stroke-width="2.6"></path><path d="M208.5,346.5q8.8,.5 16,1" fill="none" stroke="#f0f0f0" stroke-width="2.6"></path><path d="M241.5,323.5q.4,14.3 1,26" fill="none" stroke="#f0f0f0" stroke-width="2.6"></path><path d="M292.3,-71.7q-5.2,13.8 -1.9,15.9q3.6,2.2 6.5-.4" fill="none" stroke="#f0f0f0" stroke-width="1.4"></path><path d="M259.5,326.5q-14.5,9.9 -10.6,13.3q1,.8 17.9,.2" fill="none" stroke="#f0f0f0" stroke-width="2.6"></path><path d="M305.4,-60.8q-8.9,4 -6.5,6.5q5-1.1 9.4-4.1q.4,.7 .6,1.8q2,2.1 4.2,3.5" fill="none" stroke="#f0f0f0" stroke-width="1.4"></path><path d="M317.3,-60.1q-2.2,7.5 -.7,6.7q4.3-2.6 7.7-4.9q4-2.8 4.3,5.2" fill="none" stroke="#f0f0f0" stroke-width="1.4"></path><path d="M338.8,-60.1q-5.2,7.1 -2.3,5.2q6-3.9 7,2q.2,1.5 -7.5,6.5" fill="none" stroke="#f0f0f0" stroke-width="1.4"></path><path d="M208.8,99.4q-4.4,11.2 -5,23.1" fill="none" stroke="#f0f0f0" stroke-width="1.5"></path><path d="M207.2,100.2q21.6,1.7 17.1,2" fill="none" stroke="#f0f0f0" stroke-width="1.5"></path><path d="M206.8,110.9q7.2,0 13.1,0" fill="none" stroke="#f0f0f0" stroke-width="1.5"></path><path d="M231.8,97.8q-7,19.2 -3.5,26.1" fill="none" stroke="#f0f0f0" stroke-width="1.5"></path><path d="M237.8,106.2q-5.2,6.4 -5.4,10.6q-.1,2.3 11.4,.9" fill="none" stroke="#f0f0f0" stroke-width="1.5"></path><path d="M285.5,101.4q.8-.7 .5,3.2q-2.5,29 .3,17.5" fill="none" stroke="#f0f0f0" stroke-width="1.5"></path><path d="M297.8,107.7q-10.7,7.7 -6.6,11.6q3.8,.5 7.4,0" fill="none" stroke="#f0f0f0" stroke-width="1.5"></path><path d="M304.2,112.1q.1,10.5 5.2,5.2" fill="none" stroke="#f0f0f0" stroke-width="1.5"></path><path d="M310.2,114.5q2.4,3.1 4.3,5.6" fill="none" stroke="#f0f0f0" stroke-width="1.5"></path><path d="M322.9,113.3q2.2,9 2.6,8.6q3.2-6.5 5.3-12.2" fill="none" stroke="#f0f0f0" stroke-width="1.5"></path><path d="M341.6,112.1q7.6-2.1 5.7,2.5q-2.1,5.2 -1.8,6.4q6.5,1.8 13.6,1.1" fill="none" stroke="#f0f0f0" stroke-width="1.5"></path><path d="M-225.8,228.4q.4,18.2 1.3,17.1" fill="none" stroke="#f0f0f0" stroke-width="1.7"></path><path d="M-223.6,231q3.2-5.6 6.9-2.9q3.5,2.6 -1.5,8.2q-2.2,2.4 -3.1,.2q-.3-.8 4.2-.4q5.4,.6 4.3,8q-.6,3.8 -6.4,1.4" fill="none" stroke="#f0f0f0" stroke-width="1.7"></path><path d="M-210.5,241.1q3-2.2 2.4-1.4q-3.7,5.5 3.2,8.5q3.2-1 5.8-2.7" fill="none" stroke="#f0f0f0" stroke-width="1.7"></path><path d="M-193.4,222.3q-3.6,17.9 .5,25.8" fill="none" stroke="#f0f0f0" stroke-width="1.7"></path><path d="M-199.9,243.7q20.5-2.5 16.5-6q-1.8-1.6 -4.5,4.8q-3,7.1 9.8,3" fill="none" stroke="#f0f0f0" stroke-width="1.7"></path><path d="M-176.3,243.3q.9,2.4 1.7,4.4" fill="none" stroke="#f0f0f0" stroke-width="1.7"></path><path d="M-176.3,230.6q.2,.2 0,.2q-.2,0 -.2-.2q0-.2 .2-.2q.2,0 .2,.2" fill="none" stroke="#f0f0f0" stroke-width="1.7"></path><path d="M-167.5,226.6q.1,12.3 .4,22.4" fill="none" stroke="#f0f0f0" stroke-width="1.7"></path><path d="M-161,242.4q1.2,2.6 2.2,4.8" fill="none" stroke="#f0f0f0" stroke-width="1.7"></path><path d="M-159.2,227.9q.1,.5 .4,2.7" fill="none" stroke="#f0f0f0" stroke-width="1.7"></path><path d="M-144.3,236.7q-7.9,4.6 -6.1,8q2.3-.1 4.5-1.3q2.7-1.3 3.5,8.1q.6,8.1 -6.4,5.8q-1.4-.5 -2.5-7" fill="none" stroke="#f0f0f0" stroke-width="1.7"></path><path d="M-139.1,238q1.9,10 8,10.4q4,.3 2.8-8.9q.6,1.2 1.5,3.5q2.5,2.1 5.2,3.3" fill="none" stroke="#f0f0f0" stroke-width="1.7"></path><path d="M-118.9,236.3q-1.1,12.9 -.3,11.1q4.1-8.5 9.2-3.4q.6,.7 2.9,3.7" fill="none" stroke="#f0f0f0" stroke-width="1.7"></path><path d="M-103.6,236.7q-.2,12.5 2.3,9.9q1.4-1.8 2.4-3.4q1.5-2.1 3.6,7.5q2.4,10.5 -19.3,10.5" fill="none" stroke="#f0f0f0" stroke-width="1.7"></path><path d="M60.1,232.8q1.7-4.1 4.8-1q.3,7.1 -1.4,13.7q-.9,3.6 8,0" fill="none" stroke="#f0f0f0" stroke-width="1.7"></path><path d="M86.4,231q-7.4,10.1 -2.4,15.1q2.2,2.2 5-2.2q1.6-2.5 -2.4-5.4q-1.3,.2 -2.4,.8" fill="none" stroke="#f0f0f0" stroke-width="1.7"></path><path d="M208.9,155.3q0-.4 .1-.7q1.4,6.5 2.3,18.4" fill="none" stroke="#f0f0f0" stroke-width="1.7"></path><path d="M222,153.5q-9.5,9.3 -7.9,14.5q.8,2.9 7.9-.6" fill="none" stroke="#f0f0f0" stroke-width="1.7"></path><path d="M226.7,163.5q.8,10.5 .1,11q-4.5,3 4.7-10.1" fill="none" stroke="#f0f0f0" stroke-width="1.7"></path><path d="M238,165.7q2.9-2.1 5.2-3.9q-1,1.4 -3.2,3.8q-3.1,3.5 1.8,7.6q1.9,1.5 7.5-2.8" fill="none" stroke="#f0f0f0" stroke-width="1.7"></path><path d="M254.1,164.8q-4.6,3.1 -3.7,6.4q1.4,5.3 6.2-3.4q2.9-5.2 3.1-16.5q0,4.1 0,11.9q1.6,5.7 3.5,10.3" fill="none" stroke="#f0f0f0" stroke-width="1.7"></path><path d="M267.5,165.7q.3,4.7 1.3,3.9" fill="none" stroke="#f0f0f0" stroke-width="1.7"></path><path d="M269.3,150.5q.3,0 1.3,0" fill="none" stroke="#f0f0f0" stroke-width="1.7"></path><path d="M277.9,150q1,12.9 1.8,23.5" fill="none" stroke="#f0f0f0" stroke-width="1.7"></path><path d="M274,166.1q3.1-.7 5.7-1.3" fill="none" stroke="#f0f0f0" stroke-width="1.7"></path><path d="M282.3,165.7q8.4-4.1 12.4-.3q4,3.9 -3,7.2q-1.2-1.9 -1.6-4.8" fill="none" stroke="#f0f0f0" stroke-width="1.7"></path><path d="M295.7,163.5q7,8.2 5.5,10.2q.9-2.4 3-6.5q3.8-2.9 7.6-4.6" fill="none" stroke="#f0f0f0" stroke-width="1.7"></path><path d="M418.6,156.1q5.8-2.4 5.6,2.1q-.9,5.2 -1.7,9.4q4.5,.9 10.4-.2" fill="none" stroke="#f0f0f0" stroke-width="1.7"></path><path d="M442.9,157q-6.1,6.5 -4.4,8.3q3.7,2.5 7,4.2q2,1 .1,2.3q-4.5-1.2 -8.4-4" fill="none" stroke="#f0f0f0" stroke-width="1.7"></path><path d="M444.2,152.6q6.9,.7 12.5,1.3" fill="none" stroke="#f0f0f0" stroke-width="1.7"></path><path d="M210.3,181.7q1.7,16.1 1.7,16.1" fill="none" stroke="#f0f0f0" stroke-width="1.7"></path><path d="M222.8,184.8q-7.1,3.8 -6.8,9.6q.3,4.7 9.4-2.3" fill="none" stroke="#f0f0f0" stroke-width="1.7"></path><path d="M228.9,190.4q4.7,6.7 3.3,7.6q1.5-3.4 5.4-8.9" fill="none" stroke="#f0f0f0" stroke-width="1.7"></path><path d="M243.2,191.3q1.8-1.5 3.2-2.7q-.1,1.7 -.9,4.5q2.1,1.5 5.1,2.1" fill="none" stroke="#f0f0f0" stroke-width="1.7"></path><path d="M256.7,189.1q-2.4,7.6 .3,6.2q2.9-7.6 3.4-15.3q.5,2.2 1.1,6.5q1.7,4.6 3.4,8.2" fill="none" stroke="#f0f0f0" stroke-width="1.7"></path><path d="M268,190.4q0,2.6 0,4.8" fill="none" stroke="#f0f0f0" stroke-width="1.7"></path><path d="M269.3,180q.2-.5 .4-.9" fill="none" stroke="#f0f0f0" stroke-width="1.7"></path><path d="M278.4,179.6q1,10.2 1.7,18.6" fill="none" stroke="#f0f0f0" stroke-width="1.7"></path><path d="M276.2,190.8q1.9-1.2 3.5-2.1" fill="none" stroke="#f0f0f0" stroke-width="1.7"></path><path d="M284,190.4q7.7-3.4 10.5,.8q1.4,2.1 -1.6,5.7q-1.1-1 -1.9-2.6" fill="none" stroke="#f0f0f0" stroke-width="1.7"></path><path d="M295.3,188.7q6.1,5.7 5.9,9q1.4-3.3 3.2-9.5" fill="none" stroke="#f0f0f0" stroke-width="1.7"></path><path d="M329.2,182.6q.1,8.6 .4,15.6" fill="none" stroke="#f0f0f0" stroke-width="1.7"></path><path d="M329.6,183.9q11.8-4.2 12.2,.4q.2,2.5 -9.6,5.2" fill="none" stroke="#f0f0f0" stroke-width="1.7"></path><path d="M342.2,190q4.6-1.3 8.4-2.4q-1,1.2 -3.2,2.8q-1.5,1.2 1.6,2.3q1,.3 4.9-1.9" fill="none" stroke="#f0f0f0" stroke-width="1.7"></path><path d="M356.1,188.7q-.9,4.9 -.4,4.5q3.7-3.3 9-.6" fill="none" stroke="#f0f0f0" stroke-width="1.7"></path><path d="M375.2,188.7q-1.1,9 -3.5,10.2q-.7,.4 -3.9-2" fill="none" stroke="#f0f0f0" stroke-width="1.7"></path><path d="M431.1,177.8q-6.9,6.9 -8,15.7q-.7,5.4 4.8,5q2.9-.2 2.2-9.1q-.8-1.1 -1.6-2" fill="none" stroke="#f0f0f0" stroke-width="1.7"></path><path d="M440.3,192.6q.2-3.7 3-5.2q4.5-2.3 3.6,5q-1.1,7.8 -11.4,.2" fill="none" stroke="#f0f0f0" stroke-width="1.7"></path><path d="M210.2,394.2q8.8-16.1 9.1-15.8q1.3,8.9 -.2,17.4q.3,1.2 .8,2.3" fill="none" stroke="#f0f0f0" stroke-width="1.6"></path><path d="M211.4,390.1q2.9-1.6 9-.4" fill="none" stroke="#f0f0f0" stroke-width="1.6"></path><path d="M228.2,379.8q.4,12.2 2.2,18.2" fill="none" stroke="#f0f0f0" stroke-width="1.6"></path><path d="M236.4,390.1q-7,.2 -5.2,4.4q.8,2 10.6-2.8" fill="none" stroke="#f0f0f0" stroke-width="1.6"></path><path d="M245.9,378.6q1.1,10 2.1,18.1" fill="none" stroke="#f0f0f0" stroke-width="1.6"></path><path d="M244.3,393.8q7.1-3.5 10.9-.5q1.2,1.7 2,3.2" fill="none" stroke="#f0f0f0" stroke-width="1.6"></path><path d="M255.3,383.1q.5,.2 .9,.4" fill="none" stroke="#f0f0f0" stroke-width="1.6"></path><path d="M261.9,390.9q5.9-2.8 4-2.6q-3.1,.2 -.5,4.5q2,3.2 6.4-1.1q.5-.8 .9-1.5q.7,1.6 1.3,4.5q2-.5 4.3-2.1q2.9,.9 5.4,2.8" fill="none" stroke="#f0f0f0" stroke-width="1.6"></path><path d="M291.1,376.9q-.4,12.7 .4,21.7" fill="none" stroke="#f0f0f0" stroke-width="1.6"></path><path d="M297.7,388.4q-3.1,1.5 -3.1,4.3q.1,2.3 8.4,2.3" fill="none" stroke="#f0f0f0" stroke-width="1.6"></path><path d="M307.1,390.1q-4.5,6.8 -.5,5.3q1.8-.6 2.6-4.8" fill="none" stroke="#f0f0f0" stroke-width="1.6"></path><path d="M317,393.4q.3-2.6 3.4-3.3q7-1.3 6.3,2.5q-2.5,1.7 -5.3,2.4q-5.4,1.5 -4.4,10.5q.2,2 2.8-2.3" fill="none" stroke="#f0f0f0" stroke-width="1.6"></path><path d="M329.7,390.5q-.3,4.5 -.4,8.2" fill="none" stroke="#f0f0f0" stroke-width="1.6"></path><path d="M330.1,381q.2-.4 .4-.8" fill="none" stroke="#f0f0f0" stroke-width="1.6"></path><path d="M347,376.9q-8.3,24.9 -5.8,21.4" fill="none" stroke="#f0f0f0" stroke-width="1.6"></path><path d="M339.2,390.9q4.3-.2 7.8-.4" fill="none" stroke="#f0f0f0" stroke-width="1.6"></path><path d="M352.7,390.1q-3.2,1.8 -3,4.8q.3,4.4 5.1-.9q.6-2 .8-3.8q1,1.4 2.1,4.3q.3,.9 4.5,1.3" fill="none" stroke="#f0f0f0" stroke-width="1.6"></path><path d="M367.5,379.4q-2.8,20.2 -2.5,20.5" fill="none" stroke="#f0f0f0" stroke-width="1.6"></path><path d="M401.6,383.9q6.7-6.7 7.7-3.7q.6,1.6 -.3,12.7" fill="none" stroke="#f0f0f0" stroke-width="1.6"></path><path d="M414.3,383.1q5-4.4 5.3-.7q-.1,5.2 -.5,9.4q4.1,1 9.2,.3" fill="none" stroke="#f0f0f0" stroke-width="1.6"></path><path d="M430.4,387.2q1.5-4.6 6.3-1.8q5.6,3.2 -.7,9.2q-3.7,3.6 -6.5-4.5" fill="none" stroke="#f0f0f0" stroke-width="1.6"></path><path d="M-220,-58q.6-.5 1-1" fill="none" stroke="#f0f0f0" stroke-width="2.6"></path><path d="M-219,-66q1.5,11.9 9.3,9.4q3.2-5 4.7-10.4" fill="none" stroke="#f0f0f0" stroke-width="2.6"></path><path d="M-239,195q17.6-20.9 19.8-11.7q1.9,7.8 -.8,13.7" fill="none" stroke="#f0f0f0" stroke-width="2.6"></path><path d="M-235,193q7.7-1.1 14-2" fill="none" stroke="#f0f0f0" stroke-width="2.6"></path><path d="M-223,256.9q.6,10 1.4,18.1" fill="none" stroke="#f0f0f0" stroke-width="1.8"></path><path d="M-222.5,260.6q4.6-4.1 8.6-3.3q5.8,1.3 0,8.5q-3.7,1.5 -7.3,2" fill="none" stroke="#f0f0f0" stroke-width="1.8"></path><path d="M-206.3,267.8q-4-.2 -3,4.3q1.4,6.3 9.1-2.2q.8-.9 1.4-1.6q2.1,1.7 3.8,4.9" fill="none" stroke="#f0f0f0" stroke-width="1.8"></path><path d="M-190.5,256.5q1.9,11.2 3.6,20.3" fill="none" stroke="#f0f0f0" stroke-width="1.8"></path><path d="M-190.5,270.9q5.2-4.1 4.8-2.3q-1.2,5 6.5,2.9q3.4-3 5.7-6.1q.7,2.6 .6,7.2q1.1-.7 2.3-2.4q3.2,1.8 6.1,5.5q.4,.6 2.8-2.5" fill="none" stroke="#f0f0f0" stroke-width="1.8"></path><path d="M-159.9,256.5q1.1,20.2 1.8,18.5" fill="none" stroke="#f0f0f0" stroke-width="1.8"></path><path d="M-158.5,273.2q2.3-3.6 4-6.6q1.3,1.5 2.4,4.4q4.3,2.5 8.9,3.5" fill="none" stroke="#f0f0f0" stroke-width="1.8"></path><path d="M62.3,257.8q12.6,.7 10.5,4.4q-2.3,.2 -4.6-.4q1.5,1.9 4.9,4.7q2.9,2.4 -1.9,4.8q-2.8,1.4 -7.5-3.5" fill="none" stroke="#f0f0f0" stroke-width="1.8"></path><path d="M84.9,266.9q1.9-4.6 6.3-6.2q6.3-2.4 5.9,7q-.3,5.4 -9.4,2.6q-2.4-1.9 -4.2-3.9" fill="none" stroke="#f0f0f0" stroke-width="1.8"></path><path d="M-223,296.6q5-16.7 7.7-13.6q2.2,6.4 3,12q.4,2.8 1.9,.3q1.8-5.6 2.7-10.4q1.3,3 2.6,8.7q2,1.4 4.2,2.1" fill="none" stroke="#f0f0f0" stroke-width="1.8"></path><path d="M-196.4,288.5q-3.6,10.8 .7,7.2q.5-2.3 .4-4.5q2.1,.7 4.8,2.7" fill="none" stroke="#f0f0f0" stroke-width="1.8"></path><path d="M-184.2,289.4q-2.1-.5 0,3q3.5,5.8 -2,5.3q-.5-.1 -.3-2.4" fill="none" stroke="#f0f0f0" stroke-width="1.8"></path><path d="M-176.6,291.2q-2.2,5.8 3.2,5.6q4.4-.2 3.6-4.2" fill="none" stroke="#f0f0f0" stroke-width="1.8"></path><path d="M-171.6,281.3q-.1,17.9 .6,17.7q4.4-2.8 7.6-5.9q1.3-1.2 4.4,2.6" fill="none" stroke="#f0f0f0" stroke-width="1.8"></path><path d="M-154.9,292.1q1.7,2.5 3.1,4.5" fill="none" stroke="#f0f0f0" stroke-width="1.8"></path><path d="M-158.1,284.4q.4-.6 .5-.9" fill="none" stroke="#f0f0f0" stroke-width="1.8"></path><path d="M-147.3,289.4q1,7.3 1.4,6.9q5.2-6.6 11.7-.5q.3,.3 .4,1.7" fill="none" stroke="#f0f0f0" stroke-width="1.8"></path><path d="M-127.4,293q-7.5-2.9 -5.8,1.8q1.3,3.6 7.3,.1q1.7-2.8 2.6-5.6q-.1,2.1 -.7,5.8q1.5-.4 3.6-1.8q2-1.4 7.8,6.9" fill="none" stroke="#f0f0f0" stroke-width="1.8"></path><path d="M-98.6,280.4q-1.2,9.4 -2.2,17.1" fill="none" stroke="#f0f0f0" stroke-width="1.8"></path><path d="M-92.7,297.1q4.8-13.8 6-13.7q2.7,5.4 3.2,11.9q.5,6.7 5.8,.1q2.2-6 3.3-11.4q1.1,4.1 1.9,11.7" fill="none" stroke="#f0f0f0" stroke-width="1.8"></path><path d="M-69.7,295.3q-.2-5.1 2.3-5.8q1.8-.4 3.8,4.4q1,2.3 -3.1,3.8q-1.1-1 -1.7-2.4" fill="none" stroke="#f0f0f0" stroke-width="1.8"></path><path d="M-60.3,281.3q0,13.8 1.4,14.4q3.7-.3 6.8-1.1q-.2,1 -1.1,2.3q-1.8,3 -3.9-2.1" fill="none" stroke="#f0f0f0" stroke-width="1.8"></path><path d="M-49,291.7q1,5.7 1.3,5.8" fill="none" stroke="#f0f0f0" stroke-width="1.8"></path><path d="M-49.9,282.2q0,.4 0,1.8" fill="none" stroke="#f0f0f0" stroke-width="1.8"></path><path d="M-44.1,281.7q1.1,7.2 3.6,15.8" fill="none" stroke="#f0f0f0" stroke-width="1.8"></path><path d="M-37.7,281.7q.9,8.7 1.8,15.8" fill="none" stroke="#f0f0f0" stroke-width="1.8"></path><path d="M-33.2,291.7q1.7,2.5 3.1,4.5" fill="none" stroke="#f0f0f0" stroke-width="1.8"></path><path d="M-30.5,280.8q.2,.8 .4,1.4" fill="none" stroke="#f0f0f0" stroke-width="1.8"></path><path d="M-24.7,289.4q-2.5,7 1.1,5.2q1-2 1.3-4.1q2.3,.7 4.9,2.6q1.4-.4 2.6-1.4" fill="none" stroke="#f0f0f0" stroke-width="1.8"></path><path d="M-13.4,292.1q.9,1.3 1.4,.5q2.7-3.5 4.9-6.4" fill="none" stroke="#f0f0f0" stroke-width="1.8"></path><path d="M65.9,281.7q3.8-1.3 2.3-.1q-6.6,5.7 -3.5,9.2q.7,.8 4.8-1.4" fill="none" stroke="#f0f0f0" stroke-width="1.8"></path><path d="M73.1,280.4q-.4,8.4 -.4,15.3" fill="none" stroke="#f0f0f0" stroke-width="1.8"></path><path d="M84.9,289.4q2.8-8.2 6.7-5q4.2,3.3 -2.7,9.1q-3.2,2.7 -5.9-5.9" fill="none" stroke="#f0f0f0" stroke-width="1.8"></path><path d="M219.3,431.3q-3.6,.3 -5.7,5q-3.7,8 1.9,9.1q2.1-2 3.5-4.8q.2-.5 7.6,1.9" fill="none" stroke="#f0f0f0" stroke-width="1.9"></path><path d="M230,439.1q-2.4-.8 -3.3,1.9q-1.2,4.1 12.6,1.5" fill="none" stroke="#f0f0f0" stroke-width="1.9"></path><path d="M239.3,439.6q1.9,5 3.6,2.7q.6-.7 8-.9q5.3-.2 5.5,.1q.7,1.3 1.3,2.5" fill="none" stroke="#f0f0f0" stroke-width="1.9"></path><path d="M253.9,428.4q.5,.3 .9,.5" fill="none" stroke="#f0f0f0" stroke-width="1.9"></path><path d="M265.5,438.2q.9,4.4 2.2,2.4q3.6,1.1 7.1,3.9" fill="none" stroke="#f0f0f0" stroke-width="1.9"></path><path d="M279.1,441.6q-.2,2 .7,1.2q3.7,.3 7.1,1.7" fill="none" stroke="#f0f0f0" stroke-width="1.9"></path><path d="M-215.9,-21.9q.2,16.5 3.7,23" fill="none" stroke="#f0f0f0" stroke-width=".9"></path><path d="M-208.6,-17q-5.4,4.8 -5.1,9.6q.1,2.6 6.3,.7" fill="none" stroke="#f0f0f0" stroke-width=".9"></path><path d="M-202.1,-11.7q-4.8,3.5 -3.3,6.4q.9,1.8 3.4-.7q1.3-1.3 -.2-3.8q-.4,.1 -.8,.4q1.3,1 3.6,1.6" fill="none" stroke="#f0f0f0" stroke-width=".9"></path><path d="M-193.8,-11.7q2.6,5 .9,7.3q-1.7,2.5 -2.5-3" fill="none" stroke="#f0f0f0" stroke-width=".9"></path><path d="M-183.7,-12.6q-2.2,1.5 -2.1,3.4q.8,2.7 1.7,4.9q.7,1.8 -2.3,1.5q-1-1.1 -1.7-2.3" fill="none" stroke="#f0f0f0" stroke-width=".9"></path><path d="M-180.9,-8.7Q-178.5,-9.7 -178.9,-9.4Q-184.1,-5.2 -174.3,-1.8" fill="none" stroke="#f0f0f0" stroke-width=".9"></path><path d="M86.7,-17q7.5-3.6 7.8,1.5q-.4,3.4 -.8,6.2q2.8,2.3 6.5,3.5" fill="none" stroke="#f0f0f0" stroke-width="1.5"></path><path d="M108.6,-10.5q1.2-3.7 4.8-4.5q5.4-1.2 4.7,7.1q-.3,3.8 -5.7,1.8q-1.8-3.1 -2.6-6.3" fill="none" stroke="#f0f0f0" stroke-width="1.5"></path><path d="M-220.2,21.6Q-213,5.6 -211.1,9.4Q-210.5,15.6 -210.9,20.8" fill="none" stroke="#f0f0f0" stroke-width="1.6"></path><path d="M-218.2,17.5q2.6,0 4.8,0" fill="none" stroke="#f0f0f0" stroke-width="1.6"></path><path d="M-204.5,6.6Q-206.3,27.2 -202.9,19.5" fill="none" stroke="#f0f0f0" stroke-width="1.6"></path><path d="M-200.4,13.9q-4.7,6.5 .4,6.5q4.6-2.8 8-6.1" fill="none" stroke="#f0f0f0" stroke-width="1.6"></path><path d="M-189.5,5Q-194,23.6 -192.4,22.4" fill="none" stroke="#f0f0f0" stroke-width="1.6"></path><path d="M-190.3,16.7q3.5,3.1 3.6,6.1" fill="none" stroke="#f0f0f0" stroke-width="1.6"></path><path d="M-186.3,8.6Q-186,8.8 -184.7,9.4" fill="none" stroke="#f0f0f0" stroke-width="1.6"></path><path d="M-181.5,17.1q3.3,5.2 4.5,3.2q.7-1.9 1.2-3.6" fill="none" stroke="#f0f0f0" stroke-width="1.6"></path><path d="M-168.9,18.3q.8-2.4 -1.1-2q-2.6,.6 -1,2.8q.4,.6 10.1,1.7" fill="none" stroke="#f0f0f0" stroke-width="1.6"></path><path d="M-137,8.2Q-138.8,14.8 -137.4,22.8" fill="none" stroke="#f0f0f0" stroke-width="1.6"></path><path d="M-139,7.8Q-133.8,7.3 -132.6,9.5Q-132.4,14.6 -133.2,18.9Q-133.6,21.1 -128.5,19.5" fill="none" stroke="#f0f0f0" stroke-width="1.6"></path><path d="M-124.5,17.9q5.7-4.5 3.2-3.1q-7.9,4.3 3.7,6.4" fill="none" stroke="#f0f0f0" stroke-width="1.6"></path><path d="M-112.4,15.9q-1.4,1.6 -1.4,2.8q0,.7 3.4,1.6" fill="none" stroke="#f0f0f0" stroke-width="1.6"></path><path d="M-102.3,5.8Q-105.6,24.5 -103.9,22.8Q-98.4,17.4 -96.1,17.8Q-94.5,19.2 -93.4,20.8" fill="none" stroke="#f0f0f0" stroke-width="1.6"></path><path d="M-89,15.1q.7,5.7 4.8,4.8q3.1-.6 3.1-5.1" fill="none" stroke="#f0f0f0" stroke-width="1.6"></path><path d="M-77.7,16.7q-.8,4 .3,3q6.3-5.2 7.8,.6" fill="none" stroke="#f0f0f0" stroke-width="1.6"></path><path d="M-61.9,14.3q-4.3,5.2 -.8,5.3q1.5-2 2.2-4.4q.4,2.9 .4,8q-.1,4.5 -5.5,3.3q-.6-1.7 -.4-3.7" fill="none" stroke="#f0f0f0" stroke-width="1.6"></path><path d="M-48.2,9Q-51.6,13.8 -50.6,18.1Q-49.5,22.2 -48.6,25.5Q-52.3,24.9 -57.5,22" fill="none" stroke="#f0f0f0" stroke-width="1.6"></path><path d="M-37.7,17.9q-9.2,2.4 -6.2,5.7q5.3-1 10.2-4.1q1.7,1.4 2.9,3.7" fill="none" stroke="#f0f0f0" stroke-width="1.6"></path><path d="M-26.4,9.4Q-28.1,22 -27.2,21.5Q-22.6,18.6 -22.4,19.4Q-23.9,21.4 -26,22.8" fill="none" stroke="#f0f0f0" stroke-width="1.6"></path><path d="M-12.2,17.1q-2.8,3.1 -.3,3.2q.9-.4 1.6-1q1.6-1.3 -.5,8.7q-.5,2.3 -10.1,3.3" fill="none" stroke="#f0f0f0" stroke-width="1.6"></path><path d="M87.9,7Q92.8,5.6 95.2,7.4Q97.1,9 94.1,12.4Q91.7,15 90.8,12Q89.7,8.3 95.9,13.1Q103.5,19.1 92.4,21.6Q88.4,22.5 87.9,18.7" fill="none" stroke="#f0f0f0" stroke-width="1.6"></path><path d="M108.9,7.4Q103.1,16 104.2,21.5Q105.2,26.1 110.3,23.3Q112.8,21.9 110.2,17.8Q109.7,17 105.3,17.5" fill="none" stroke="#f0f0f0" stroke-width="1.6"></path><path d="M-217.8,55.3q1.4,9.3 2.4,17" fill="none" stroke="#f0f0f0" stroke-width="1.8"></path><path d="M-217.8,52.4q14.6-1.5 15.6-.5" fill="none" stroke="#f0f0f0" stroke-width="1.8"></path><path d="M-214.9,62.3q4.7-1.5 8.5-2.8" fill="none" stroke="#f0f0f0" stroke-width="1.8"></path><path d="M-205.5,68q10.7-7.4 11.1-2q.3,3.2 -8.6,2.2q-1.2-1 -2-2.1" fill="none" stroke="#f0f0f0" stroke-width="1.8"></path><path d="M-193.2,63.3q2.4,9.4 1.5,7.7q.1-4.2 .9-7.7" fill="none" stroke="#f0f0f0" stroke-width="1.8"></path><path d="M-174.7,64.2q-10,3.3 -6.9,5.5q3.2,2.3 8-13.5q1-3.4 -.5-3.8q-4-1.2 4.6,18" fill="none" stroke="#f0f0f0" stroke-width="1.8"></path><path d="M-165.8,63.8q-3,2.1 -2.1,4.8q1,2.6 7.8-1.1" fill="none" stroke="#f0f0f0" stroke-width="1.8"></path><path d="M-159.1,64.7q-1.4,5.7 -2.4,5.2q1.1-2.9 3.8-5.7" fill="none" stroke="#f0f0f0" stroke-width="1.8"></path><path d="M-153.5,65.7q3.5,6.6 8.1,3.3q1-2.8 1.3-5.4q1.8,2.3 3.9,6.8" fill="none" stroke="#f0f0f0" stroke-width="1.8"></path><path d="M-138.4,64.2q-1.1,6.6 .6,5.5q3.5-2.9 6.2-5.3q2.1,1.7 3.6,4.6" fill="none" stroke="#f0f0f0" stroke-width="1.8"></path><path d="M-120.4,63.3q-4.3,2.2 -.9,3.3q2-.4 3.8-1.2q1.5-.8 1.3,8.3q-.2,7.2 -13.6,4.2" fill="none" stroke="#f0f0f0" stroke-width="1.8"></path><path d="M-78.3,62.3q-12.2,9.3 -7.2,10q4.7,.7 7.2-8q.4,1.8 .6,5.2q1.5,1.2 3.2,1.8" fill="none" stroke="#f0f0f0" stroke-width="1.8"></path><path d="M-70.8,64.7q-4.8,8.6 -.7,6.6q2.3-2 4-3.8" fill="none" stroke="#f0f0f0" stroke-width="1.8"></path><path d="M-61.8,63.3q-2.2,.5 .9,3.6q5.5,5.6 -3.7,6.8" fill="none" stroke="#f0f0f0" stroke-width="1.8"></path><path d="M-36.7,55.3q-3.4,17.7 -1.4,18.8q.8,.5 2.8-3.7" fill="none" stroke="#f0f0f0" stroke-width="1.8"></path><path d="M-26.8,60q-.9,13.2 -.5,12.3" fill="none" stroke="#f0f0f0" stroke-width="1.8"></path><path d="M-29.2,65.2q.4,0 1.9,0" fill="none" stroke="#f0f0f0" stroke-width="1.8"></path><path d="M-17.8,57.6q-5.9,10 -2.8,14.5q4,.9 8,.6" fill="none" stroke="#f0f0f0" stroke-width="1.8"></path><path d="M63,62.8q12-8.5 15.4-5.3q.7,6 -.3,11.5" fill="none" stroke="#f0f0f0" stroke-width="1.8"></path><path d="M87.6,64.2q.8-5.7 4-6.5q3.4-.9 4.6,4.6q.6,2.7 -4.2,3.3q-.5,.1 -1.6-2.3" fill="none" stroke="#f0f0f0" stroke-width="1.8"></path><path d="M106.5,65.2q3.2-4.3 9.5-3q4.3,.9 2.6,3.4q-4.2-.3 -8.3-2.3" fill="none" stroke="#f0f0f0" stroke-width="1.8"></path><path d="M208.9,-20.5q2.2,8.7 3.7,15.9" fill="none" stroke="#f0f0f0" stroke-width="1.8"></path><path d="M212.6,-19.6q5.2-3.3 8-.2q6.5,6.9 -6.1,11.7q-5.5,2.1 -3.3-1.2" fill="none" stroke="#f0f0f0" stroke-width="1.8"></path><path d="M228,-13.5q-4.7,8.4 -.2,8.4q5-3 8.7-6.5q1.6,1.5 2.7,4.2" fill="none" stroke="#f0f0f0" stroke-width="1.8"></path><path d="M241,-10.2q2.8,6.1 2,5.8q-.5-4.4 .8-9.1" fill="none" stroke="#f0f0f0" stroke-width="1.8"></path><path d="M262.5,-21.9q.5,10.3 .9,18.7" fill="none" stroke="#f0f0f0" stroke-width="1.8"></path><path d="M272.3,-11.2q-5.6,.6 -3.9,3q1.7,2.5 14.2-1.6" fill="none" stroke="#f0f0f0" stroke-width="1.8"></path><path d="M281.6,-21.4q-2.6,19.2 .2,16.7q7.1-6.6 10.4-5.7q4.2,1.6 7.6,3" fill="none" stroke="#f0f0f0" stroke-width="1.8"></path><path d="M302.6,-12.1q-3.2,3 -1.5,5.3q1.4,1.8 7.1-2.5" fill="none" stroke="#f0f0f0" stroke-width="1.8"></path><path d="M307.8,-10.7q-3.3,3.9 -1.8,3.9q4.5-.8 8.1-1.9q2.3-.7 2.5,11.5" fill="none" stroke="#f0f0f0" stroke-width="1.8"></path><path d="M393.6,-21.4q-7.2,3.9 -6.3,9.3q1.4,.5 3,.5" fill="none" stroke="#f0f0f0" stroke-width="1.8"></path><path d="M394.1,-22.4q-3.5,14.5 -2.4,13.6" fill="none" stroke="#f0f0f0" stroke-width="1.8"></path><path d="M402,-14.9q2.8-4.1 6.2-3.6q6.5,.8 1.2,8.3q-2.3,3.3 -9.3,.9" fill="none" stroke="#f0f0f0" stroke-width="1.8"></path><path d="M214,8.4Q216.2,27.9 215.4,27.1" fill="none" stroke="#f0f0f0" stroke-width="1.8"></path><path d="M223.8,7Q223.7,15.2 223.8,22" fill="none" stroke="#f0f0f0" stroke-width="1.8"></path><path d="M215.4,18.7q5.1,.3 9.3,.5" fill="none" stroke="#f0f0f0" stroke-width="1.8"></path><path d="M228,16.8q6.4,2.9 11.6,5.6" fill="none" stroke="#f0f0f0" stroke-width="1.8"></path><path d="M242.4,16.8q-3.1,6.7 -5.6,12.2" fill="none" stroke="#f0f0f0" stroke-width="1.8"></path><path d="M244.8,18.2q8.9-4.4 9.2,.1q-2.5,3.1 -5.8,5.3q.7,2.7 2.6,5.4" fill="none" stroke="#f0f0f0" stroke-width="1.8"></path><path d="M256.4,16.8q9.1-3.1 10.4,1.9q1.1,4 -4.7,2.9q-1.4-1.1 -2.4-2.4" fill="none" stroke="#f0f0f0" stroke-width="1.8"></path><path d="M380.5,17.8Q392,4.2 391.4,13.3Q390.9,16.8 390.3,19.6" fill="none" stroke="#f0f0f0" stroke-width="1.8"></path><path d="M393.6,11.7Q399.2,9 401.3,11.1Q401,14.5 399.5,17.7Q402,18.3 405.7,17.8" fill="none" stroke="#f0f0f0" stroke-width="1.8"></path><path d="M414.6,15.9q3.9-5 5.9-.6q2.3,5.1 -7.3,1.1" fill="none" stroke="#f0f0f0" stroke-width="1.8"></path><path d="M-218.4,305.8q-2.5,13.8 1,17.6q.8,.8 5.6,0" fill="none" stroke="#f0f0f0" stroke-width="1.6"></path><path d="M-200.7,313.6q-9.1,4.9 -7.3,10.2q1.2,3.6 6.3-4.3q1-1.9 1.7-3.5q1.4,1.8 2.5,5" fill="none" stroke="#f0f0f0" stroke-width="1.6"></path><path d="M-191.3,314.8q-.5,9.8 -.2,9.4q4.3-6.9 8.1-3.1q2.1,1.6 4,2.7" fill="none" stroke="#f0f0f0" stroke-width="1.6"></path><path d="M-177,316.9q-1.3,8.3 .8,5.3q4-5.8 .9-9.4" fill="none" stroke="#f0f0f0" stroke-width="1.6"></path><path d="M-176.2,309.1q4.8,18.6 8.2,16.8" fill="none" stroke="#f0f0f0" stroke-width="1.6"></path><path d="M-147.5,307.8q.2,9 .4,16.4" fill="none" stroke="#f0f0f0" stroke-width="1.6"></path><path d="M-140.9,315.2q.3,6.3 1.5,5q3.4-3.9 4.9,.5q.7,1.8 1,.9q2-5.1 2.9-4.4q2.9,3.6 4.9,7" fill="none" stroke="#f0f0f0" stroke-width="1.6"></path><path d="M-121.6,316q0,10.5 .5,8.8q2.1-8.3 5.4-2.2q.1,.1 2.4-3.6q1.4-.6 2.7-.9" fill="none" stroke="#f0f0f0" stroke-width="1.6"></path><path d="M-105.2,321.8q3.4-6.4 5.9-2.4q1.5,2.2 -5.5,3.6" fill="none" stroke="#f0f0f0" stroke-width="1.6"></path><path d="M49.3,310.7q5.8-6.5 5.7-1.1q0,11.8 0,11.8" fill="none" stroke="#f0f0f0" stroke-width="1.6"></path><path d="M67.3,305.4q-6.5,9.1 -1.3,12.1q4.3,2.5 4.3-4.1q0-2.4 -2.1-1.6q.3,1 1.1,2.2" fill="none" stroke="#f0f0f0" stroke-width="1.6"></path><path d="M78.4,313.2q6.4-2.9 10.4,1.7q2.3,2.7 -3.8,3.8q-4.5,.9 -5.4-5.5" fill="none" stroke="#f0f0f0" stroke-width="1.6"></path><path d="M-213.9,76.7q-1.1,10.8 -1.6,19.7" fill="none" stroke="#f0f0f0" stroke-width="1.6"></path><path d="M-212.6,82q3.4-2 6.4-.9q4.9,1.9 3,9.6q-.8,3.3 -9.4,3.2" fill="none" stroke="#f0f0f0" stroke-width="1.6"></path><path d="M-199.9,91.4q2.2-2 .6-1.7q-7.6,1.5 -1.6,5.6q2.9,.4 5.5,.2" fill="none" stroke="#f0f0f0" stroke-width="1.6"></path><path d="M-187.2,81.2q-5.8,21.1 -2.9,16" fill="none" stroke="#f0f0f0" stroke-width="1.6"></path><path d="M-179.4,81.2q-1.7,8.8 -2.9,16" fill="none" stroke="#f0f0f0" stroke-width="1.6"></path><path d="M-173.7,89.4q-3,.4 -3.7,3q-.6,2.3 7.8,3.1" fill="none" stroke="#f0f0f0" stroke-width="1.6"></path><path d="M-167.5,93.5q-.4,2.2 -.2,2.1q2.8-3.1 4.7-6.2" fill="none" stroke="#f0f0f0" stroke-width="1.6"></path><path d="M-154.8,93.5q4.4-5.4 2.4-5.4q-3.4,0 -4.1,6.3q-.3,2.1 4.9,1.1" fill="none" stroke="#f0f0f0" stroke-width="1.6"></path><path d="M-145.4,93.1q-2.4,3.4 -.3,2.7q3.6-6.9 4.8-14.2q1,6.4 1.6,18.4" fill="none" stroke="#f0f0f0" stroke-width="1.6"></path><path d="M-130.7,94.3q.1-1.8 -.9-1q-1.8,1.7 2.1,3.7q4.2-1.4 7.5-3.9q.7-.5 -.1,4.9q.2-1 .5-2.9" fill="none" stroke="#f0f0f0" stroke-width="1.6"></path><path d="M-110.6,92.3q-7,1.9 -4.9,4q4.5,1.4 8.6,1.7" fill="none" stroke="#f0f0f0" stroke-width="1.6"></path><path d="M64.6,89.2q.6,0 3,0" fill="none" stroke="#f0f0f0" stroke-width="1.4"></path><path d="M80.1,89.7q7.2-5.6 9.6-2.9q.2,3.8 -.7,7.3" fill="none" stroke="#f0f0f0" stroke-width="1.4"></path><path d="M99.4,88.3q-1.9,3.7 -1.5,5.6q.3,1.5 6.9,3.4" fill="none" stroke="#f0f0f0" stroke-width="1.4"></path><path d="M101.4,88q-3.1,6.2 -2.3,7.8q2.7,.8 5.5,.7" fill="none" stroke="#f0f0f0" stroke-width="2.1"></path><path d="M55.9,137.7q15.8-11.8 16.4-8q.1,.4 -4,18.1" fill="none" stroke="#f0f0f0" stroke-width="2.1"></path><path d="M83.5,129.8q-.9,2 1.4,4.2q5.6,5.5 -4.1,8" fill="none" stroke="#f0f0f0" stroke-width="2.1"></path><path d="M83.5,126.6q8.7,1.5 15.8,3.2" fill="none" stroke="#f0f0f0" stroke-width="2.1"></path><path d="M108.3,127.7q-5.6,1.9 -4.6,4.4q4.6-.5 9.4-3.2q2-1.2 1.9,10.9q-.1,5.4 -15.1,9" fill="none" stroke="#f0f0f0" stroke-width="2.1"></path><path d="M42,362.5q1-8.7 4.7-7.3q.4,6.9 -2.1,14.2q-1.6,4.8 9.4,.4" fill="none" stroke="#f0f0f0" stroke-width="2"></path><path d="M60.8,355.1q-5.1,12 -.7,13.2q5.4,1.4 3.8,2.5q-2.2,.5 -4.2,.5" fill="none" stroke="#f0f0f0" stroke-width="2"></path><path d="M59.7,355.7q6.6-.9 12.1-1.1" fill="none" stroke="#f0f0f0" stroke-width="2"></path><path d="M82.7,353.6q-6.3,12.1 -1.8,16.2q5,4.6 7.4-4.2q1.1-4.1 -9.2-5.8" fill="none" stroke="#f0f0f0" stroke-width="2"></path><path d="M370.3,56.9q16-4.9 16.7-1.2q.2,1.1 -4.9,15.2" fill="none" stroke="#f0f0f0" stroke-width="2.2"></path><path d="M403.2,52.8q-11.6,13.7 -5.8,17.7q3.9,2.7 5-6.6q-.4-.4 -.9-.7" fill="none" stroke="#f0f0f0" stroke-width="2.2"></path><path d="M415.9,67.3q-4.3-12.1 2.9-13.9q3.6-.9 6.1,7.6q2.4,7.8 -13,6.9" fill="none" stroke="#f0f0f0" stroke-width="2.2"></path><path d="M40,480q-17.7,4.3 -8.2,11.1q1.4,.9 8.2-2.1" fill="none" stroke="#f0f0f0" stroke-width="2.6"></path><path d="M41,482q-1.1,8.8 -2,16" fill="none" stroke="#f0f0f0" stroke-width="2.6"></path><path d="M417,219q13-14.7 13.5-8.9q-.5,8.8 -1.5,15.9" fill="none" stroke="#f0f0f0" stroke-width="2.6"></path><path d="M444,211q.6,6.7 1.4,12.2q-2.4,1.4 -5.4,1.8" fill="none" stroke="#f0f0f0" stroke-width="2.6"></path><path d="M443,209q11.5-1.1 21-2" fill="none" stroke="#f0f0f0" stroke-width="2.6"></path><path d="M213.6,205.7q-.2,10.2 0,18.5" fill="none" stroke="#f0f0f0" stroke-width="1.8"></path><path d="M220.2,207.1q-10.7,15.2 -1.4,12.4" fill="none" stroke="#f0f0f0" stroke-width="1.8"></path><path d="M226.4,215.7q0,4 2.8,2.2q1-.9 1.8-1.7q1.7,1.3 3,3.8" fill="none" stroke="#f0f0f0" stroke-width="1.8"></path><path d="M239.2,217.6q.2,.4 .5,.8q1.5,.6 2.9,.9q.7,.2 1.9,2.6" fill="none" stroke="#f0f0f0" stroke-width="1.8"></path><path d="M252.1,216.2q-5.2,8 -.7,5.6q1.6-.9 2-15.3q-.5-.7 -1-1.2q-1.9-1.8 2.2,11.7q.3,1 3.2,4.4" fill="none" stroke="#f0f0f0" stroke-width="1.8"></path><path d="M264.4,215.2q-4,2 -1,3.4q1.5,.7 2.1-2.2q.6,.7 1.2,2.1q1.3-.1 2.5-.8q1.2-.6 5.7,3.7" fill="none" stroke="#f0f0f0" stroke-width="1.8"></path><path d="M273,216.6q7.2,5.3 8.4,1.5q.4-1.9 .6-3.4" fill="none" stroke="#f0f0f0" stroke-width="1.8"></path><path d="M286.3,218.5q-2.2-4.4 1.5-3.8q3.1,.5 1.3,3q-1.7,.9 -3.3,1.3" fill="none" stroke="#f0f0f0" stroke-width="1.8"></path><path d="M292.4,217.1q2.4,4.1 2.1,2.1q.5-2.5 1.3-4.5" fill="none" stroke="#f0f0f0" stroke-width="1.8"></path><path d="M302.9,215.7q-5.1,3 -1.9,4.2q3.6,1.3 3.6-3.7q.7,1.6 1.6,4.7" fill="none" stroke="#f0f0f0" stroke-width="1.8"></path><path d="M308.1,216.6q.6,2.6 1.8,2.9q.4,.1 .6-1.9" fill="none" stroke="#f0f0f0" stroke-width="1.8"></path><path d="M316.7,214.3q-2.2,1.9 -.6,5.1q1.2,2.3 .2,2.2" fill="none" stroke="#f0f0f0" stroke-width="1.8"></path><path d="M319,215.2q5.4,.8 3.6,2.9q-1.3,1.5 2.1,1.4" fill="none" stroke="#f0f0f0" stroke-width="1.8"></path><path d="M330.4,215.7q-5.3,4.8 -1.3,4.3q1.4-1.4 2.3-2.9" fill="none" stroke="#f0f0f0" stroke-width="1.8"></path><path d="M332.3,216.6q.6,1.9 1,3.4" fill="none" stroke="#f0f0f0" stroke-width="1.8"></path><path d="M334.7,213.3q-1.6,8.4 .3,8.1q2.2-.3 4-.5q1-.2 1.9,4.3" fill="none" stroke="#f0f0f0" stroke-width="1.8"></path><path d="M345.6,208.1q-4.2,17.9 -1.4,13.3" fill="none" stroke="#f0f0f0" stroke-width="1.8"></path><path d="M349,215.7q-.9,5.7 3.1,5.5q1.1-.1 4-3.6" fill="none" stroke="#f0f0f0" stroke-width="1.8"></path><path d="M356.1,215.7q.5,2.6 .9,4.7" fill="none" stroke="#f0f0f0" stroke-width="1.8"></path><path d="M359.9,218.1q-.9,2.6 -.5,2q1.8-2.2 3.3-3.9" fill="none" stroke="#f0f0f0" stroke-width="1.8"></path><path d="M366.1,216.6q1.3,2.1 2.3,3.8" fill="none" stroke="#f0f0f0" stroke-width="1.8"></path><path d="M371.8,215.2q5.4,4.8 4.9,8q-.1,1.3 -5.4,3.4" fill="none" stroke="#f0f0f0" stroke-width="1.8"></path><path d="M405.3,262.5q.8-4.1 6.6-6.2q2.4-.9 1,11.5q.3,2.1 .7,3.9" fill="none" stroke="#f0f0f0" stroke-width="1.8"></path><path d="M424.1,263q.1-6.6 5.3-6.2q6.9,.5 1.1,7.8q-2.5,3.2 -8.2-2.1" fill="none" stroke="#f0f0f0" stroke-width="1.8"></path><path d="M441.1,260.7q3.1-4 6.8-2.6q4.5,1.8 -.4,8.2q-6.4-1.1 -12.4-4.7" fill="none" stroke="#f0f0f0" stroke-width="1.8"></path><path d="M54.5,485.5q1.1-4 4-3q4.8,1.7 -1.6,8.1q-5.8,5.7 -8-7.7" fill="none" stroke="#f0f0f0" stroke-width="2"></path><path d="M71.6,485.5q-2.9-3.3 .2-4.1q4.6-1.2 3.2,7.4q-.7,5 -10.1-4.3" fill="none" stroke="#f0f0f0" stroke-width="2"></path><path d="M399.6,479.3q-7.5,10 1,9.3" fill="none" stroke="#f0f0f0" stroke-width="2"></path><path d="M402.7,480.4q-.6,6.8 -1,12.4" fill="none" stroke="#f0f0f0" stroke-width="2"></path><path d="M409.4,491.7q-1.1-5.3 2.1-9.2q5.6-6.5 4.8,7.9q-.4,6.7 -6.7,4.3q-.6-.2 -1.2-3" fill="none" stroke="#f0f0f0" stroke-width="2"></path><path d="M425.5,490.7q3.4-11.7 6.9-7.6q2.9,3.5 -2.8,8.4q-3.3-.8 -6.2-2.9" fill="none" stroke="#f0f0f0" stroke-width="2"></path><path d="M410,430q4.7-3.3 3.3,3.7q-1.9,9.1 .2,11.7q2.3,.2 4.5-.4" fill="none" stroke="#f0f0f0" stroke-width="2.6"></path><path d="M430,435q5.5-7.8 11.3-2.5q3.5,3.2 -2.2,8q-3.1,2.7 -8.8-8" fill="none" stroke="#f0f0f0" stroke-width="2.6"></path><path d="M869.2,124.2q21.4,2.2 82.9,.7q82.1-2.2 153.3,8.4q49.7,4.5 90.5,7q10.4,1.4 18.8,2.8" fill="none" stroke="#f0f0f0" stroke-width="2"></path><path d="M1002.9,88.8q-.3,10.7 -.4,19.5" fill="none" stroke="#f0f0f0" stroke-width="1.5"></path><path d="M1009,91.5q6.6-2.3 9.1,1.9q2,3.5 -4.6,6.2q0,0 0,0q2.3,1 6.8,2.6q4.5,1.6 -.7,6q-2.1,1.8 -12.2-1.8" fill="none" stroke="#f0f0f0" stroke-width="1.5"></path><path d="M1032.2,101.8q-8.1,1.8 -6.8,5.6q1.2,3.8 6.7-2.1q1-1.8 1.6-3.3q3,2.4 5.8,7.1" fill="none" stroke="#f0f0f0" stroke-width="1.5"></path><path d="M1042.9,101.8q-1.5,9 -1.5,9q2.9-2.3 4.9-4.8q4.1-5.1 8.8,3.5q.5,1.4 .8,2.6" fill="none" stroke="#f0f0f0" stroke-width="1.5"></path><path d="M1064.7,89.6q.1,19.7 1.7,22.3" fill="none" stroke="#f0f0f0" stroke-width="1.5"></path><path d="M1074.6,101q-4.9,3.1 -2.8,5.7q1,1.3 7.4,3.5" fill="none" stroke="#f0f0f0" stroke-width="1.5"></path><path d="M887.6,106.4q-.3,.3 -1.5,1.5" fill="none" stroke="#f0f0f0" stroke-width="1.5"></path><path d="M882.7,109.4q9.3,8.3 4.9,9.4q-1.3,.3 -8-3.6" fill="none" stroke="#f0f0f0" stroke-width="1.5"></path><path d="M1197.8,121.7q-2.1,9.5 -1,7.7q2.8-4.5 6.2-.5q2.2,2.9 4,5.3" fill="none" stroke="#f0f0f0" stroke-width="1.5"></path><path d="M1352.7,132.2q26.8-.4 48.7-.6q47.4-.5 137.7,1.8q90.8,2.3 90.4,2.6" fill="none" stroke="#f0f0f0" stroke-width="1.5"></path><path d="M1403.6,108.5q6,16.9 6.6,9.7q.1-2.7 .2-4.8q1.1,.8 2.3,2.5q2.4,3.2 9.3-7" fill="none" stroke="#f0f0f0" stroke-width="1.5"></path><path d="M1430,112.7q-4.6,3.2 -3.9,5.8q.9,3.8 4.4-1q.6-1.5 .9-2.9q1.2,1.7 2.5,5" fill="none" stroke="#f0f0f0" stroke-width="1.5"></path><path d="M1438.1,113.1q1.2,8.6 1.7,7q2.3-4.4 4.4-7.8" fill="none" stroke="#f0f0f0" stroke-width="1.5"></path><path d="M1451.5,113.8q-7.1,2.5 -3.9,5.4q2.9,2.5 6.9-2.3" fill="none" stroke="#f0f0f0" stroke-width="1.5"></path><path d="M1456.8,113.4q-2.3,7.1 -1.1,5.9q2.6-2.9 4.6-5.5" fill="none" stroke="#f0f0f0" stroke-width="1.5"></path><path d="M1462.2,113.1q1.9,4 3.4,7.2" fill="none" stroke="#f0f0f0" stroke-width="1.5"></path><path d="M1472.1,105.8q-.5,11.6 .2,13.9q1.2,.5 2.5,.6" fill="none" stroke="#f0f0f0" stroke-width="1.5"></path><path d="M1491.7,112.3q-9.1,3.3 -6.5,6.5q1.7,2.2 7.2-2.5q.4-.6 .8-1.2q.9,1.5 1.5,4.1" fill="none" stroke="#f0f0f0" stroke-width="1.5"></path><path d="M1505.1,112.3q-4.4,5.4 -2.4,5.9q1.9-1.4 3.2-3.4q1.9-2.8 4.5,6.2q.9,3.1 -3.7,3.2q-1.2,0 -4.7-3.5" fill="none" stroke="#f0f0f0" stroke-width="1.5"></path><path d="M1518.8,115q.4-.2 .7-.4q-.4,1.5 -1.8,3.7q2.8,1.9 6.9,2.8" fill="none" stroke="#f0f0f0" stroke-width="1.5"></path><path d="M1530.3,111.9q.3,10.5 -2,10.5q3.4-3.4 10.4-7.8" fill="none" stroke="#f0f0f0" stroke-width="1.5"></path><path d="M1488.6,134.1q2.8,19.2 7.5,75q6.4,75.5 7.4,76.6" fill="none" stroke="#f0f0f0" stroke-width="1.5"></path><path d="M1364.6,114.6q-3.4,0 -4.1,2.3q2.8,6.5 7.1,11.4q4.1,5 -6.1,2" fill="none" stroke="#f0f0f0" stroke-width="1.5"></path><path d="M1609.9,111.5q0,7.6 0,13.8" fill="none" stroke="#f0f0f0" stroke-width="1.5"></path><path d="M1619.5,116.5q-.4,5.5 -.8,10" fill="none" stroke="#f0f0f0" stroke-width="1.5"></path><path d="M1608,121.1q6.3,.2 11.5,.4" fill="none" stroke="#f0f0f0" stroke-width="1.5"></path><path d="M1024.7,130.5q1.8-.7 .8,8.4q-10.3,97.7 -6.6,166.9q.2,2.8 .3,5" fill="none" stroke="#f0f0f0" stroke-width="1.9"></path><path d="M917,-43q0-1.9 -3.6,3.4q-7.1,12.8 -12.4,23.6" fill="none" stroke="#f0f0f0" stroke-width="2.6"></path><path d="M911,-41q17.8-.2 12.8,9.6q-4,4.1 -7.9,7.1q2.7,3.3 7.7,5.9q4.6,2.5 -6,2.5q-7.5-1.4 -13.6-3.1" fill="none" stroke="#f0f0f0" stroke-width="2.6"></path><path d="M931,-24q-11.3,3.9 -5.8,6.6q6.4-1.5 11.8-4.6" fill="none" stroke="#f0f0f0" stroke-width="2.6"></path><path d="M938,-22q.2,.8 1,4" fill="none" stroke="#f0f0f0" stroke-width="2.6"></path><path d="M946,-24q-.7,8.6 1.5,7.2q8.2-5.6 11.5-1.7q1.8,3.5 3,6.5" fill="none" stroke="#f0f0f0" stroke-width="2.6"></path><path d="M976,-41q-.1,13.2 0,24" fill="none" stroke="#f0f0f0" stroke-width="2.6"></path><path d="M991,-27q-13.6,5.1 -10.4,7.9q7,1.9 13.4,2.1" fill="none" stroke="#f0f0f0" stroke-width="2.6"></path><path d="M1035,-42q-8,40.9 -10,35" fill="none" stroke="#f0f0f0" stroke-width="2.6"></path><path d="M1070,-38q-.8,27.2 -1,27" fill="none" stroke="#f0f0f0" stroke-width="2.6"></path><path d="M1075,-40q11.9,3.7 10.9,11.5q-.5,3.5 -6.4,3.6q1.9,1 5.6,2.3q4.4,1.5 .1,7.5q-5.2,1.8 -10.2,2.1" fill="none" stroke="#f0f0f0" stroke-width="2.6"></path><path d="M1104,-21q-1.2,12.8 0,14" fill="none" stroke="#f0f0f0" stroke-width="2.6"></path><path d="M1105,-33q.2-.6 1-3" fill="none" stroke="#f0f0f0" stroke-width="2.6"></path><path d="M1122,-38q3.1,4.8 3.5,22q.3,13.2 .5,13" fill="none" stroke="#f0f0f0" stroke-width="2.6"></path><path d="M1146,-18q-11,5.2 -5.7,11.6q4.1,4.9 14.4-6.1q6.2-6.5 1.6-5.9q-.8,.1 3.1,11.6" fill="none" stroke="#f0f0f0" stroke-width="2.6"></path><path d="M1169,-17q-2.4,8.2 -1.3,9.1q3.9-1.3 7.3-4.1" fill="none" stroke="#f0f0f0" stroke-width="2.6"></path><path d="M1179,-14q1.7,3.8 3,7" fill="none" stroke="#f0f0f0" stroke-width="2.6"></path><path d="M1213,-11q-11.6,5.3 -8.5,7.8q2.6,2.1 16.5,1.2" fill="none" stroke="#f0f0f0" stroke-width="2.6"></path><path d="M1272.9,-38.5q-11.2,13.5 -14.4,30.7" fill="none" stroke="#f0f0f0" stroke-width="2.3"></path><path d="M1295.8,-21.7q14.7-9.3 16.6-7q-1.8,11.1 -7,20.9" fill="none" stroke="#f0f0f0" stroke-width="2.3"></path><path d="M1323.4,-15.6q9.4-7.6 15.4-6.7q5.6,.8 .5,9.8q-2.5,4.3 -12.1,2.1q-2.7-2.8 -4.4-5.8" fill="none" stroke="#f0f0f0" stroke-width="2.3"></path><path d="M1358.9,-35.5q-1.8,5.3 -3.6,9.6" fill="none" stroke="#f0f0f0" stroke-width="2.3"></path><path d="M1367.3,-15.6q8.4-13.1 16.5-9.1q5.4,2.7 .5,11.2q-3.6,6.5 -12.8-4.6" fill="none" stroke="#f0f0f0" stroke-width="2.3"></path><path d="M1392,-12q1.6-6.3 8.4-9.9q10.7-5.7 7.6,6.9q-1.4,5.5 -16,4.2" fill="none" stroke="#f0f0f0" stroke-width="2.3"></path><path d="M1417.8,-12q12.8-9.3 19.5-2.1q5.5,5.8 -20.1,1.5" fill="none" stroke="#f0f0f0" stroke-width="2.3"></path><path d="M874.8,160.1q7.8-7.5 8.4-2.4q.2,5.8 .2,10.6" fill="none" stroke="#f0f0f0" stroke-width="1.7"></path><path d="M892.5,163.5q-.5-3.7 3-5.1q5.9-2.4 7.3,4.7q.7,3.3 -11.2,0" fill="none" stroke="#f0f0f0" stroke-width="1.7"></path><path d="M913.6,148q-.9,2.1 -1.7,3.9" fill="none" stroke="#f0f0f0" stroke-width="1.7"></path><path d="M919.2,159.7q5.7-5.3 8.7-1.6q3.3,4.2 -2,7.1q-5.3,2.9 -8-2.5" fill="none" stroke="#f0f0f0" stroke-width="1.7"></path><path d="M936.8,163.1q1-6.5 6.9-5.2q3.7,.8 2,5.7q-.9,2.7 -8.9-.1" fill="none" stroke="#f0f0f0" stroke-width="1.7"></path><path d="M954.1,161.4q12.1-6.3 8.7,3.9q-2.3,6.8 -5.3-2.2" fill="none" stroke="#f0f0f0" stroke-width="1.7"></path><path d="M885.3,16.6q2.4,26.1 5.3,22.8q1-2.5 1.6-4.8q2.8-1.4 5.8-1.7q4.3-4.2 7.1-9" fill="none" stroke="#f0f0f0" stroke-width="2"></path><path d="M916.6,29.1q-15.5,9.5 -7.6,9.7q5-2.9 8.7-6.4q.7-.7 .5,4.5" fill="none" stroke="#f0f0f0" stroke-width="2"></path><path d="M928.6,44.2q.3-7.2 2.6-10.9" fill="none" stroke="#f0f0f0" stroke-width="2"></path><path d="M936.4,34.8q2,3.7 5.6,2.9q1.1-.3 4.4-3.9" fill="none" stroke="#f0f0f0" stroke-width="2"></path><path d="M946.4,33.3q-.4,6.2 1.4,5.8q5.5-1.4 8.6,.2q2.7,2.7 4.6,5.4" fill="none" stroke="#f0f0f0" stroke-width="2"></path><path d="M974,22.8q-1,15.1 2.1,24" fill="none" stroke="#f0f0f0" stroke-width="2"></path><path d="M986,33.8q-4.4,3.9 -3,7.3q1.9,4.3 6.5-3.2q-.1,.2 -.4,.6" fill="none" stroke="#f0f0f0" stroke-width="2"></path><path d="M1002.7,34.8q-4.2,7.8 -.8,5.6q2.3-1.6 4-2.9q.8-.6 2.2,3.6q2,5.5 -4.1,9.9q-1.3-.6 -2.4-1.6" fill="none" stroke="#f0f0f0" stroke-width="2"></path><path d="M1019.4,34.8q-1.3,6.8 2,9.1q4.8-1.4 8.9-4.4" fill="none" stroke="#f0f0f0" stroke-width="2"></path><path d="M1032.9,43.7q2.4,3.2 4,1q1.8-4.7 2.8-8.8" fill="none" stroke="#f0f0f0" stroke-width="2"></path><path d="M1071,24.4q-10.2,24.3 -9.4,24.5" fill="none" stroke="#f0f0f0" stroke-width="2"></path><path d="M1111.7,24.4q.5,8.9 1.1,16.2" fill="none" stroke="#f0f0f0" stroke-width="2"></path><path d="M1119,24.9q9.6,8.9 5.6,9.5q.9-.3 2.6-.7q3.3-.7 1.2,5.5q-4.5,1.8 -9.4,1.9" fill="none" stroke="#f0f0f0" stroke-width="2"></path><path d="M1136.2,35.3q-2.3,5.1 .9,6.7q4.4-.8 8.2-2.8q1.9-1 5,5" fill="none" stroke="#f0f0f0" stroke-width="2"></path><path d="M1157.6,37.4q.3,5.9 .6,10.7q1.4-1.6 3.1-4.9" fill="none" stroke="#f0f0f0" stroke-width="2"></path><path d="M1171.2,40.6q2,4 3.6,7.3" fill="none" stroke="#f0f0f0" stroke-width="2"></path><path d="M1186.3,29.1q-.3,17.3 3.8,18.1q2.4-3.3 3.5-7.7" fill="none" stroke="#f0f0f0" stroke-width="2"></path><path d="M1192,37.4q-.2,4.4 6.8,12" fill="none" stroke="#f0f0f0" stroke-width="2"></path><path d="M1262.9,29.4q-8.6,13 -14.8,24.2" fill="none" stroke="#f0f0f0" stroke-width="2.3"></path><path d="M1326.8,28.5q-1.3,5 1.5,10.7q5.1,10.6 -1.5,9.1q-4.3-4.6 -7-9.6" fill="none" stroke="#f0f0f0" stroke-width="1.6"></path><path d="M1326.4,26.8q7.7-.7 14-1.2" fill="none" stroke="#f0f0f0" stroke-width="1.6"></path><path d="M1344.5,40q-.1-3.8 3-5.9q3.2-2.2 8.3,2.1q2.9,2.5 -3.2,6.5q-3.2,2.1 -9.4-2.3" fill="none" stroke="#f0f0f0" stroke-width="1.6"></path><path d="M1368.3,34.2q7.5-1.3 9.9,4.2q2.4,5.5 -8.5,5.3q-3-1.9 -5.1-4.2" fill="none" stroke="#f0f0f0" stroke-width="1.6"></path><path d="M1383.1,38.7q2.3-5.6 10.5-4.1q5.8,1.1 4.4,6.9q-.4,1.5 -8.7,2.2" fill="none" stroke="#f0f0f0" stroke-width="1.6"></path><path d="M1373.5,162.9q4.3-2.1 5.5,1.6q1.1,3.1 -1.6,5.5q-.5,.4 -2.5-1.9" fill="none" stroke="#f0f0f0" stroke-width="1.8"></path><path d="M1375.8,156.8q2-1 13.6-5.6" fill="none" stroke="#f0f0f0" stroke-width="1.8"></path><path d="M1395.1,162.9q-.9-4.1 2.2-4.6q5.5-.8 3,7.4q-1.5,4.6 -8.6,.1q-.4-2.4 .1-4.8" fill="none" stroke="#f0f0f0" stroke-width="1.8"></path><path d="M1411.1,163.4q-2.3-2.7 -.1-5.4q4.2-4.9 8.6,3.7q1.7,3.2 -3.8,5.1q-2.6,1 -3.8-4.3" fill="none" stroke="#f0f0f0" stroke-width="1.8"></path><path d="M1427.5,160.6q5.5-1.9 9.9,1.2q7,5 -.8,7.9q-4-1.9 -7.2-4.9" fill="none" stroke="#f0f0f0" stroke-width="1.8"></path><path d="M1066.3,155.4q-.6-2.3 -.9-1.2q-2.2,7.6 4.7,15.1q-3.4-.3 -9-2.1" fill="none" stroke="#f0f0f0" stroke-width="1.8"></path><path d="M1062.5,153.5q12.4-.8 22.6-.9" fill="none" stroke="#f0f0f0" stroke-width="1.8"></path><path d="M1081.8,165.3q2.5-3.2 8-3.4q9.4-.4 5,7.1q-1.6,2.7 -7.8-.8q-1.1-.6 -2.4-5.7" fill="none" stroke="#f0f0f0" stroke-width="1.8"></path><path d="M1105.7,166.7q-.4-5.1 2.5-7q5.4-3.7 7.7,5.3q1.5,6.2 -8.2,3.5q-.9-.3 -2.9-3.7" fill="none" stroke="#f0f0f0" stroke-width="1.8"></path><path d="M1123.1,165.3q5.9-3.8 10.1-.2q4.5,3.8 -10.1,3.5" fill="none" stroke="#f0f0f0" stroke-width="1.8"></path><path d="M1059.1,207.1q-.5-3 3.1-4.3q7.5-2.8 7.5,5.3q-1.5,4.1 -3.4,7.3q-1.6,2.7 7.7-1.6" fill="none" stroke="#f0f0f0" stroke-width="2"></path><path d="M1085.3,207.6q.1,3.1 3.5,6.1q1.5,1.3 -.9,3.6q-2.4-.3 -4.6-1.4" fill="none" stroke="#f0f0f0" stroke-width="2"></path><path d="M1085.3,207.6q7.1-2.3 12.9-4.1" fill="none" stroke="#f0f0f0" stroke-width="2"></path><path d="M1100.8,212.8q1.4-4.3 5.8-4.7q4.1-.4 5.9,4.7q1.9,5 -9.3,1.7q-1.7-1.6 -2.9-3.3" fill="none" stroke="#f0f0f0" stroke-width="2"></path><path d="M1115.2,212.3q9.2-4.8 14.8-.4q5.3,4.2 -4.5,3.9q-1.8-.1 -8.8-2.5" fill="none" stroke="#f0f0f0" stroke-width="2"></path><path d="M1378.2,211.2q-2.5,2 -4.6,3.7" fill="none" stroke="#f0f0f0" stroke-width="2"></path><path d="M1367.4,209.2q11.1-2 10.6,2q-1.5,4.1 -3.1,7.3q-1.3,2.7 6.9,2.5" fill="none" stroke="#f0f0f0" stroke-width="2"></path><path d="M1398.3,209.2q-5.5,4.5 -2,5.3q5.9,1.2 4.9,4.7q-.3,1.2 -6,1.3" fill="none" stroke="#f0f0f0" stroke-width="2"></path><path d="M1395.2,208.7q7.6-1.4 13.9-2.6" fill="none" stroke="#f0f0f0" stroke-width="2"></path><path d="M1414.3,213.8q-.5-3.3 3.6-3.7q7.6-.7 5.8,6.5q-.8,2.9 -11.5-3.8" fill="none" stroke="#f0f0f0" stroke-width="2"></path><path d="M1429.7,213.3q11.3-6.1 17.2-1.2q6.3,5.3 -10.5,1.2" fill="none" stroke="#f0f0f0" stroke-width="2"></path><path d="M867.1,306.5q22.2-6.4 84.6-9.4q134.2-6.4 198.1-1.2q8.1,.7 14.8,1.3" fill="none" stroke="#f0f0f0" stroke-width="2"></path><path d="M1053.4,268q5-5.4 14.3-4.3q5.2,.6 -2.8,12.7q-2.8,4.2 6.5,2.9" fill="none" stroke="#f0f0f0" stroke-width="2"></path><path d="M1088.4,265.4q-6.6,3.6 -3.1,5.5q6.9,3.8 3.8,6.9q-2.6,.6 -4.9,.5" fill="none" stroke="#f0f0f0" stroke-width="2"></path><path d="M1080.1,265.4q25.8-5.5 23.2-2.1" fill="none" stroke="#f0f0f0" stroke-width="2"></path><path d="M1104.8,270.5q.5-4.9 4.7-5.7q7.3-1.6 6,7.2q-.5,3.9 -7.9,3.9q-1.5,0 -4.3-5.9" fill="none" stroke="#f0f0f0" stroke-width="2"></path><path d="M1119.8,270.5q10.9-6.6 15.1-2.2q2.5,2.6 -4,6q-1.7,.9 -9.6-1.7" fill="none" stroke="#f0f0f0" stroke-width="2"></path><path d="M1543.1,263.8q8.1,3.1 7.8,9.5q-1.4,3.9 -3.1,7" fill="none" stroke="#f0f0f0" stroke-width="2"></path><path d="M1545.7,277.2q17.3-6.9 16.5-5.2" fill="none" stroke="#f0f0f0" stroke-width="2"></path><path d="M1573,270q-8.3,8.6 -4.1,10.9q3.7,1.9 3.7,2.3q0,1.4 -6.8,.7" fill="none" stroke="#f0f0f0" stroke-width="2"></path><path d="M1567.3,267.4q7.4,0 13.4,0" fill="none" stroke="#f0f0f0" stroke-width="2"></path><path d="M1586.4,277.2q1.7-9 6-4.4q3.5,3.7 -2.8,8.6q-2.3,1.7 -7.9-3.2" fill="none" stroke="#f0f0f0" stroke-width="2"></path><path d="M1052,383q13.4,2.3 16.6,11.5q-.1,3 -.6,5.5" fill="none" stroke="#f0f0f0" stroke-width="2.6"></path><path d="M1602.3,279.8q1.2-6.6 5.7-8.2q4.1-1.6 7.2,6.1q1.6,3.9 -5.4,5q-3.3-1.2 -5.9-2.9" fill="none" stroke="#f0f0f0" stroke-width="2"></path><path d="M1058,399q8.8-3.9 16-7" fill="none" stroke="#f0f0f0" stroke-width="2.6"></path><path d="M1090,385q-5.3,10.7 -2.3,13.8q3.6,3 6.6,5.3q.6,.5 -2.3,2.9" fill="none" stroke="#f0f0f0" stroke-width="2.6"></path><path d="M1090,386q7.7-1.7 14-3" fill="none" stroke="#f0f0f0" stroke-width="2.6"></path><path d="M1113,400q1.1-10.9 7.3-14.1q4.5-2.4 6.1,6.7q.7,4.5 -8.5,7.8q-3.2-.9 -5.9-2.4" fill="none" stroke="#f0f0f0" stroke-width="2.6"></path><path d="M1136,390q6.6-5.6 12.9-4.9q6.3,.6 7.1,10q.4,5.9 -17.8-2.2" fill="none" stroke="#f0f0f0" stroke-width="2.6"></path><path d="M998,422q1.2,9.9 2,18" fill="none" stroke="#f0f0f0" stroke-width="2.6"></path><path d="M989,432q6.6-1.1 12-2" fill="none" stroke="#f0f0f0" stroke-width="2.6"></path><path d="M1041,428q16.1-1.9 17.1,6.4q-2.3,4.7 -5.4,8.4q2.8,.2 7.3-.8" fill="none" stroke="#f0f0f0" stroke-width="2.6"></path><path d="M1083,432q4.5,9.2 3.8,12.2q-.5,1.9 -9.8,1.8" fill="none" stroke="#f0f0f0" stroke-width="2.6"></path><path d="M1080,431q7.7,.6 14,1" fill="none" stroke="#f0f0f0" stroke-width="2.6"></path><path d="M1107,440q3-10.3 9.5-4.3q6.8,6.3 -4.4,9.5q-1.7,.4 -7.1-5.2" fill="none" stroke="#f0f0f0" stroke-width="2.6"></path><path d="M1132,440q-2.9-10.7 6.4-7.7q5.4,1.8 5.5,10.5q.2,7.2 -13.9-4.8" fill="none" stroke="#f0f0f0" stroke-width="2.6"></path><path d="M1034,466q69.7-6.3 128.9-2.4" fill="none" stroke="#f0f0f0" stroke-width="2.6"></path><path d="M1032,492q4.4-13.4 8.8-8.6q1.8,1.8 -.8,12.6" fill="none" stroke="#f0f0f0" stroke-width="2.6"></path><path d="M1052,490q5.3-10.8 13.3-5.4q4.8,3.3 0,8.9q-1.2,1.4 -9.3-1.5" fill="none" stroke="#f0f0f0" stroke-width="2.6"></path><path d="M1084,473q-3.3,1.7 -6,3" fill="none" stroke="#f0f0f0" stroke-width="2.6"></path><path d="M1092,488q1.9-6.4 7.4-7.8q8.7-2.3 8.4,10.9q0,4.5 -8.2,4.3q-2.7-2 -4.6-4.4" fill="none" stroke="#f0f0f0" stroke-width="2.6"></path><path d="M1110,490q7.8-13 14.8-7.6q6.9,5.2 -3,12.4q-1,.7 -5.8-.8" fill="none" stroke="#f0f0f0" stroke-width="2.6"></path><path d="M1141,488q0-4.5 2.6-2.7q9.6,6.9 1.8,12.8q-2.9,2.2 -8.5-13.2" fill="none" stroke="#f0f0f0" stroke-width="2.6"></path><path d="M1645,258q-7.8,2.5 -6,9.2q3.2,8 6.1,14.3q-5.7,1.5 -14.1,.5" fill="none" stroke="#f0f0f0" stroke-width="2.6"></path><path d="M1173,256q-6,6.9 -2.3,14.9q5.4,11.6 -.7,11.6q-15.7-.2 -14,.5" fill="none" stroke="#f0f0f0" stroke-width="2.6"></path></svg>