<svg viewBox="41.45 24.45 1177.45 788.15" width="1177.45" height="788.15" version="1.1" baseProfile="full" xmlns="http://www.w3.org/2000/svg" class="js-draw--autoresize"><style id="js-draw-style-sheet">path{stroke-linecap:round;stroke-linejoin:round;}text{white-space:pre;}</style><g class="js-draw-image-background js-draw-image-background-grid js-draw-image-background-grid-25"><path d="M1218.9,812.6l0-788.15l-1177.45-4.263256414560601e-14l0,788.15l1177.45,0" fill="#000000"></path><path d="M41.1,25l1178.15,0m-1178.15,25l1178.15,0m-1178.15,25l1178.15,0m-1178.15,25l1178.15,0m-1178.15,25l1178.15,0m-1178.15,25l1178.15,0m-1178.15,25l1178.15,0m-1178.15,25l1178.15,0m-1178.15,25l1178.15,0m-1178.15,25l1178.15,0m-1178.15,25l1178.15,0m-1178.15,25l1178.15,0m-1178.15,25l1178.15,0m-1178.15,25l1178.15,0m-1178.15,25l1178.15,0m-1178.15,25l1178.15,0m-1178.15,25l1178.15,0m-1178.15,25l1178.15,0m-1178.15,25l1178.15,0m-1178.15,25l1178.15,0m-1178.15,25l1178.15,0m-1178.15,25l1178.15,0m-1178.15,25l1178.15,0m-1178.15,25l1178.15,0m-1178.15,25l1178.15,0m-1178.15,25l1178.15,0m-1178.15,25l1178.15,0m-1178.15,25l1178.15,0m-1178.15,25l1178.15,0m-1178.15,25l1178.15,0m-1178.15,25l1178.15,0m-1178.15,25l1178.15,0m-1169.25-775.9l0,788.85m25-788.85l0,788.85m25-788.85l0,788.85m25-788.85l0,788.85m25-788.85l0,788.85m25-788.85l0,788.85m25-788.85l0,788.85m25-788.85l0,788.85m25-788.85l0,788.85m25-788.85l0,788.85m25-788.85l0,788.85m25-788.85l0,788.85m25-788.85l0,788.85m25-788.85l0,788.85m25-788.85l0,788.85m25-788.85l0,788.85m25-788.85l0,788.85m25-788.85l0,788.85m25-788.85l0,788.85m25-788.85l0,788.85m25-788.85l0,788.85m25-788.85l0,788.85m25-788.85l0,788.85m25-788.85l0,788.85m25-788.85l0,788.85m25-788.85l0,788.85m25-788.85l0,788.85m25-788.85l0,788.85m25-788.85l0,788.85m25-788.85l0,788.85m25-788.85l0,788.85m25-788.85l0,788.85m25-788.85l0,788.85m25-788.85l0,788.85m25-788.85l0,788.85m25-788.85l0,788.85m25-788.85l0,788.85m25-788.85l0,788.85m25-788.85l0,788.85m25-788.85l0,788.85m25-788.85l0,788.85m25-788.85l0,788.85m25-788.85l0,788.85m25-788.85l0,788.85m25-788.85l0,788.85m25-788.85l0,788.85m25-788.85l0,788.85" fill="none" stroke="#ffffff33" stroke-width=".7"></path></g><path d="M57.2,48.8q.8-2.6 2-4.1q4.1-5.2 7.2-12.9q2-2.5 4-4.4q.4-.4 .2,8.1q-.1,3.8 -.1,11" fill="none" stroke="#ffffff" stroke-width=".5"></path><path d="M63.3,39.7q2.6,.5 3.9,.6" fill="none" stroke="#ffffff" stroke-width=".5"></path><path d="M74.5,38q-1,4.7 -.8,6.9q.2,2.1 4.1,.6q.5-.2 1.7-4.7q.7,1.6 1.2,4.7q.3,1.6 2.7-1.4q.6-.7 1-4.3" fill="none" stroke="#ffffff" stroke-width=".5"></path><path d="M86.5,28.6q-.3,8.2 .1,10.9q.5,3.2 .9,5.9" fill="none" stroke="#ffffff" stroke-width=".5"></path><path d="M84.5,40.1q.2-.1 .8-.3q.5-.2 2.7,.7" fill="none" stroke="#ffffff" stroke-width=".5"></path><path d="M99.3,38.9q-1.2-.9 -1.9-.5q-1.7,1 -1.3,5.9q.2,2.6 3.6-3.3q1.3-2.3 3.3,2.7q1.8,4.5 1.7,7.8q-.1,2.9 -6.6,2.6q-1.6-.1 -1.8-2.5" fill="none" stroke="#ffffff" stroke-width=".5"></path><path d="M111.1,40.1q-3.3,2.4 -4.9,4.6q-1.4,2 3.8,2.2q2.1,.1 3.1-7.5q0,1.8 -.1,5q-.1,2.5 4.5,1.6" fill="none" stroke="#ffffff" stroke-width=".5"></path><path d="M120.5,30.8q-.5,9.5 -.5,14.6q0,.4 .2-2.2q.3-3.7 5.4-.1q3.2,2.3 -3.1,3.3" fill="none" stroke="#ffffff" stroke-width=".5"></path><path d="M130.5,41.3q.2-.4 1-1.9q.2-.5 -2.2,1.5q-2.8,2.3 -.7,5.5q.5,.7 14.7-.7" fill="none" stroke="#ffffff" stroke-width=".5"></path><path d="M161,32.1q0-.6 .2-3.1q.1-1 4.8-.2q3.3,.5 2.3,6.8q-.3,2 -5.1,2.4q-.8,.1 4,.7q4,.5 5,5.3q.4,1.8 -10.8,2.4q-.3,0 -1.4,.2" fill="none" stroke="#ffffff" stroke-width=".5"></path><path d="M205.9,35.2q.1-.2 .3-1q.3-.8 8.7,.7" fill="none" stroke="#ffffff" stroke-width=".5"></path><path d="M249.9,32.4q-.2,.7 -1.1,3.4q.8,4.2 2.3,7.6" fill="none" stroke="#ffffff" stroke-width=".5"></path><path d="M251.8,31.9q1.1-2.4 2.5-2.9q2.6-.9 6,3.3q1.3,1.6 -1.1,6.7q-.8,1.8 -6.4,1.8" fill="none" stroke="#ffffff" stroke-width=".5"></path><path d="M266.8,29.4q-.3,.4 -.5,.7q.1,5.6 1.5,10.5q0,.1 .2-.6q1.1-4.9 4.1-2.5q2.6,2.1 4.7,3.9" fill="none" stroke="#ffffff" stroke-width=".5"></path><path d="M278.4,37.8q3,2.9 4.8,3.8q1.5,.8 2.2,2.4" fill="none" stroke="#ffffff" stroke-width=".5"></path><path d="M289.2,40.2q-2.7,1.8 -3.8,3.8q-1.1,2 -1.1,6.3" fill="none" stroke="#ffffff" stroke-width=".5"></path><path d="M307,35.9q-2.3-1.2 -4.1-1.4q-2.9-.3 -1.6,6q1,2.6 2,4.6q1,2 -2.1,3.6q-2.8,1.4 -3.2-2.1q.3-.6 .8-1.1" fill="none" stroke="#ffffff" stroke-width=".5"></path><path d="M311.1,41.9q-.1,2.7 .3,3.4q.4,0 .9-.1" fill="none" stroke="#ffffff" stroke-width=".5"></path><path d="M314.7,30.1q-.4-.3 -1.8-1.3q-.3,.3 -.5,.9" fill="none" stroke="#ffffff" stroke-width=".5"></path><path d="M319.1,24.7q1.4,17.9 1.5,18.3q.1,.2 .9,.7" fill="none" stroke="#ffffff" stroke-width=".5"></path><path d="M328.9,35.2q-.5,0 -2.7,0q-1,0 -3.2,5q-1.4,3.3 9.5,2" fill="none" stroke="#ffffff" stroke-width=".5"></path><path d="M77.9,120.7q-1.3,11.6 -.4,22.3q2,25.2 .5,46.7q-1.7,23.9 .9,50q1.6,12.8 3,23.2q.6,4.7 -1.1,6.4" fill="none" stroke="#ffffff" stroke-width=".5"></path><path d="M83.5,270.4q17.2-1.5 51.4-2.6q40.5-1.9 73.7-3.6q25.6-1.3 40.7-.1q23.4,1.3 42.6,2.2q11.8,.5 23.4,1.4" fill="none" stroke="#ffffff" stroke-width=".5"></path><path d="M319.1,263q-1.1-.9 -.2-1q2.5-.3 5.7,4.8q.9,1.4 -3.4,4.7q-1.1,.9 -3.8,4.9" fill="none" stroke="#ffffff" stroke-width=".5"></path><path d="M69.9,127.1q2.8-6.7 6-10.7q3.1-4 7.2-1.8q2.7,3 4.6,5.9" fill="none" stroke="#ffffff" stroke-width=".5"></path><path d="M41.7,106.4q3.6,2 4.6,3.6q3.6,4.1 6.9,7.2" fill="none" stroke="#ffffff" stroke-width=".5"></path><path d="M57.5,110.1q-4.2,7.4 -7.1,10.7q-1.8,2.1 -4.6,9.2" fill="none" stroke="#ffffff" stroke-width=".5"></path><path d="M335.1,276.3q5.1,9.6 8.2,12.1" fill="none" stroke="#ffffff" stroke-width=".5"></path><path d="M344.5,280q-4.8,.8 -7.3,2q-3.2,2 -5.8,3.7" fill="none" stroke="#ffffff" stroke-width=".5"></path><path d="M124.1,139.3q2.5,3.1 6,4.9q3.6,1.8 12.5,8.1q1.2,.8 6.5,2.8q5.6,3.3 9.9,6.5q3.9,2.5 7.1,4.5q6.3,3.9 11.9,6.8q4.2,2.8 7.6,5.2q26,17.7 47.5,31.9q19.7,13 32.1,20.4q1.3,.8 6,5q3.2,2.4 5.9,4.2q8.1,4.7 14.8,8.4q.6,.3 2.7,2.1q2.4,1.3 4.4,2.1q3.4,3.1 5.9,6.1q.1,.1 .7,.2" fill="none" stroke="#ffffff" stroke-width=".5"></path><path d="M274.8,241.1q.1-1.8 -1-2.4q-2.5-1.3 -7.2,3.4q-.8,.8 -4.8,2.9q-3,1.6 -.6,13.4q.5,2.5 5.9,2.8" fill="none" stroke="#ffffff" stroke-width=".5"></path><path d="M285.7,251.7q-3.2,3.1 -5.5,3.4q-5.4,.7 -4.9-4.6q.1-1.3 6.8,1.6q2.9,2.9 4.9,5.7q.5,.7 5.1,2.7" fill="none" stroke="#ffffff" stroke-width=".5"></path><path d="M444.5,131.8q.05,.05 0,.05q-.05,0 -.05-.05q0-.05 .05-.05q.05,0 .05,.05" fill="none" stroke="#ffffff" stroke-width=".5"></path><path d="M444.6,131.6q-5,8.7 -6.8,9.4q-3,1.1 -2.2-4.2q.7-4.7 6.3,1.6q1.7,1.9 3.2,3.4" fill="none" stroke="#ffffff" stroke-width=".5"></path><path d="M461.3,132.6q6.3,.2 8.2,.4" fill="none" stroke="#ffffff" stroke-width=".5"></path><path d="M460.5,136.1q5.1,.2 9.1,.5" fill="none" stroke="#ffffff" stroke-width=".5"></path><path d="M494.5,130.5q3.4-1.4 5.5-1.1q1.7,.2 .7,3.2q-.6,2 -5.4,1q-.4-.1 1.9,0q3.5,.1 4.2,5.1q.2,1.8 -7,1.8" fill="none" stroke="#ffffff" stroke-width=".5"></path><path d="M507.8,137.4q1.1-3.5 2.3-4.5q1.3-1.1 5.3,.2q1.1,.4 1.1,5.8q0,2.7 -6.1,1.8q-2.5-.4 -2.2-4.1" fill="none" stroke="#ffffff" stroke-width=".5"></path><path d="M523.5,125.6q2.7-1.2 3.6-.3q1.3,1.3 -.7,4.1q-1.4,1.9 -4.4-1.1" fill="none" stroke="#ffffff" stroke-width=".5"></path><path d="M548.3,131.5q.05,.05 0,.05q-.05,0 -.05-.05q0-.05 .05-.05q.05,0 .05,.05" fill="none" stroke="#ffffff" stroke-width=".5"></path><path d="M548.3,131q5.9-.8 6.9-.1" fill="none" stroke="#ffffff" stroke-width=".5"></path><path d="M548.3,136.5q.05,.05 0,.05q-.05,0 -.05-.05q0-.05 .05-.05q.05,0 .05,.05" fill="none" stroke="#ffffff" stroke-width=".5"></path><path d="M548.2,136.3q6.6-.8 8.6-.8" fill="none" stroke="#ffffff" stroke-width=".5"></path><path d="M587.7,128.7q6-3.4 7.4-5.4q1.8-2.6 3.1-1q1.1,1.4 -.4,5.8q-.8,2.4 -.6,3" fill="none" stroke="#ffffff" stroke-width=".5"></path><path d="M586.3,134.9q15.4-1.7 19.6-.4q.5,.2 2.7,1" fill="none" stroke="#ffffff" stroke-width=".5"></path><path d="M599.7,136q-2.3,.9 -3.5,2.3q-3.1,3.6 -1.8,6.5q.8,1.8 4.3-1.4q1.2-1.1 -2.2-3.2q-.1-.1 0,.7" fill="none" stroke="#ffffff" stroke-width=".5"></path><path d="M620.2,126.6q0,4.5 -.4,8.9q-.2,2.6 .6,2.6" fill="none" stroke="#ffffff" stroke-width=".5"></path><path d="M628.1,125.5q-2.2,10.7 -2.8,10.7" fill="none" stroke="#ffffff" stroke-width=".5"></path><path d="M612.5,121.7q21.9,.2 22.8,.4" fill="none" stroke="#ffffff" stroke-width=".5"></path><path d="M434.8,184.9q.2-.3 .9-1.5q1-1.7 1,9.4q.3-1.6 .6-4.6q.5-4.8 3.7-1.9q.5,.4 2.6,4.7q1.4-1.3 2.6-3.9q.5-1 7.6,4.3q.2,.1 1.1,.5" fill="none" stroke="#ffffff" stroke-width=".5"></path><path d="M463.5,183.3q5.7-.2 8.9-.2" fill="none" stroke="#ffffff" stroke-width=".5"></path><path d="M465.9,184.9q.4,.1 1.9,.7q.9,.3 4.8,.3" fill="none" stroke="#ffffff" stroke-width=".5"></path><path d="M501.5,181.4q-2.4-1.2 -2.6-2q-.2-.7 5.1-1.3q4.4-.5 2.6,4.7q-1.6,2.3 -3.2,4q-2.3,2.4 6.8,3.3q.8,.1 1.5,.3" fill="none" stroke="#ffffff" stroke-width=".5"></path><path d="M520.5,176.4q.2,0 .8,0q.6,4 -.7,8.8q-1.3,5.2 1.8,6.2" fill="none" stroke="#ffffff" stroke-width=".5"></path><path d="M528.2,183.8q-2.8,.6 -4.6,1.5q-2.6,1.3 4.7,5q.8,.4 4.5,.5" fill="none" stroke="#ffffff" stroke-width=".5"></path><path d="M543.5,184.1q-2.7,.3 -4.1,1.3q-1.6,1.1 1.9,2.3q.4,.1 2.1-2.3q1.5-2.1 2.7,7.8q.7,5.4 -2.4,7.1q-3.3,1.8 -7.6-.9" fill="none" stroke="#ffffff" stroke-width=".5"></path><path d="M189.9,180.1q1.3,14.4 3.2,40.4q.1,1.4 .1,4.6" fill="none" stroke="#ffffff" stroke-width=".5"></path><path d="M190.3,222.9q2.2,5.9 3.2,5.9q2.1-2.2 3.4-5q.3-.6 2.5-1.8" fill="none" stroke="#ffffff" stroke-width=".5"></path><path d="M198.6,206.2q.3,5.4 .4,5.4" fill="none" stroke="#ffffff" stroke-width=".3"></path><path d="M198.7,206.2q3.6-.5 4.4-.1" fill="none" stroke="#ffffff" stroke-width=".3"></path><path d="M197.7,208.3q2.2-.2 2.9-.1" fill="none" stroke="#ffffff" stroke-width=".3"></path><path d="M203.4,210.2q1.3-1.6 3.2-1.7q1.5-.1 1.5,4.8" fill="none" stroke="#ffffff" stroke-width=".3"></path><path d="M190.1,182q-.1,.1 -.2,.2q-2.6,2.2 -4.7,4" fill="none" stroke="#ffffff" stroke-width=".4"></path><path d="M182.9,190.3q-3,2 -3.8,3.5q-.1,.5 -.2,.9" fill="none" stroke="#ffffff" stroke-width=".4"></path><path d="M175,198.6q-2,1.6 -2.8,3.2q-.2,.5 -1.4,2.2" fill="none" stroke="#ffffff" stroke-width=".4"></path><path d="M168,206.2q-2,3.2 -3,4.2" fill="none" stroke="#ffffff" stroke-width=".4"></path><path d="M160.4,210.1q-.7,4.2 -.5,5.1q2.9-.5 6.3-2.6" fill="none" stroke="#ffffff" stroke-width=".4"></path><path d="M153.9,183.7q.04,.04 0,.04q-.04,0 -.04-.04q0-.04 .04-.04q.04,0 .04,.04" fill="none" stroke="#ffffff" stroke-width=".4"></path><path d="M153.9,183.7q-.1,4.5 -.1,6.2q0,.1 .3,.4" fill="none" stroke="#ffffff" stroke-width=".4"></path><path d="M153.2,183.1q3.2,0 5.8,0" fill="none" stroke="#ffffff" stroke-width=".4"></path><path d="M153.7,185.2q2.9-.1 3.9-.1" fill="none" stroke="#ffffff" stroke-width=".4"></path><path d="M158.5,189.1q2.3-3.4 2.7-1.9q.3,1.9 .4,3.4" fill="none" stroke="#ffffff" stroke-width=".4"></path><path d="M163.3,187.4q.2,0 .8-.1q.9,1 1.3,2.4" fill="none" stroke="#ffffff" stroke-width=".4"></path><path d="M166.9,188.2q-2.7,3.8 -3.9,5.5" fill="none" stroke="#ffffff" stroke-width=".4"></path><path d="M165.2,217.8q3.6,2.5 6.5,4.6" fill="none" stroke="#ffffff" stroke-width=".4"></path><path d="M173.2,221.7q2.5,1.7 5,3.8" fill="none" stroke="#ffffff" stroke-width=".4"></path><path d="M179.4,224.6q4.6,4 5.4,5" fill="none" stroke="#ffffff" stroke-width=".4"></path><path d="M186.5,229.4q.2,.1 .4,.1q2.8,.7 3.1,3.8q.1,1.1 -5.4,.5q-.1,0 -.7,0" fill="none" stroke="#ffffff" stroke-width=".4"></path><path d="M159.5,232.4q-.2,6.4 .1,6.4" fill="none" stroke="#ffffff" stroke-width=".4"></path><path d="M158.5,232.5q4.1-1 6.2-1" fill="none" stroke="#ffffff" stroke-width=".4"></path><path d="M159.5,235.6q0-.1 .2-.5q.4-.9 4.3,.2" fill="none" stroke="#ffffff" stroke-width=".4"></path><path d="M165.9,236.7q2.3-2.1 3.3-1.6q.5,1.8 .4,3.7" fill="none" stroke="#ffffff" stroke-width=".4"></path><path d="M172.5,237.5q4.1,1.5 4.7,2.5" fill="none" stroke="#ffffff" stroke-width=".4"></path><path d="M178.3,237.9q-5.2,2.8 -7.2,5.2" fill="none" stroke="#ffffff" stroke-width=".4"></path><path d="M442.1,232.3q-1.1,10.8 -.1,12.2" fill="none" stroke="#ffffff" stroke-width=".4"></path><path d="M441.6,232.6q6.2-2.2 10.3-2.2q.2,0 .9,.3" fill="none" stroke="#ffffff" stroke-width=".4"></path><path d="M441.7,237.4q5.3,.2 9.4,.3" fill="none" stroke="#ffffff" stroke-width=".4"></path><path d="M457.8,243.9q4.7-2.6 7.5-3.2q1.9-.4 1.2,9.6" fill="none" stroke="#ffffff" stroke-width=".4"></path><path d="M489.2,233.9q2.3-.7 5.6-.7q1,.1 1.9,.2" fill="none" stroke="#ffffff" stroke-width=".4"></path><path d="M490.6,236.8q5.8-.1 8.3-.2" fill="none" stroke="#ffffff" stroke-width=".4"></path><path d="M524.1,235.8q.1-1.5 .1-2.7q1,2.9 2.1,8.3q-.3-.8 -.7-2.3q-.6-1.9 4.4-3.3q1.9-.5 2.3,3.5q.1,.5 2.1-1.6q.9-1 3.9-.6q2,.9 3.6,1.9q1,.2 1.9,.3" fill="none" stroke="#ffffff" stroke-width=".4"></path><path d="M553.4,237.9q.3-.1 .5-.1" fill="none" stroke="#ffffff" stroke-width=".4"></path><path d="M575.6,236.1q-2.7,.4 -5.4,1.5q-2.5,1 .9,2.6q3.6,1.6 5-2.2q.1-.2 2.6,7.8q2.2,7 -6.2,4.5q-.7-.2 -3.3-1.9" fill="none" stroke="#ffffff" stroke-width=".4"></path><path d="M606,230.5q.04,.04 0,.04q-.04,0 -.04-.04q0-.04 .04-.04q.04,0 .04,.04" fill="none" stroke="#ffffff" stroke-width=".4"></path><path d="M605.8,230q6,.9 7.4,1.4" fill="none" stroke="#ffffff" stroke-width=".4"></path><path d="M607,233.6q.3,.1 .5,.1q1.1,.2 5.6,.3" fill="none" stroke="#ffffff" stroke-width=".4"></path><path d="M647.3,230.5q1.2-1 3-1.2q3-.3 3.7,4q-.7,4 -1.7,7.2q-.5,1.5 5.9,1.5" fill="none" stroke="#ffffff" stroke-width=".4"></path><path d="M667.3,227.8q.1,.2 .6,.9q.5,6.3 -.3,11.8q.1,.4 .3,.8" fill="none" stroke="#ffffff" stroke-width=".4"></path><path d="M674.2,234.1q-4.1,2.3 -5.5,4.5q-1.4,2.2 6.4,2.2" fill="none" stroke="#ffffff" stroke-width=".4"></path><path d="M684.6,234.3q-2.3,.7 -2.8,1.3q-.7,.8 .8,1.7q1.6-.2 3-.7q1.7-.7 3.7,7.1q.6,2.3 -.2,4.8q-.3,.9 -4.9-.5q-.3-.1 -.8-1.4" fill="none" stroke="#ffffff" stroke-width=".4"></path><path d="M696,239.5q0-.1 0-.2" fill="none" stroke="#ffffff" stroke-width=".4"></path><path d="M725.3,231.4q-.1-.2 -.6-1.2q-1.5,.9 -3,2.7q-2.3,2.9 3.2,4.5q1,.3 1.4-3.7q0-.2 .8,.9q3.6,5.3 3.4,7.5q-.1,1.2 -3.8,3.6q-1.7,1.1 -2.5-2" fill="none" stroke="#ffffff" stroke-width=".5"></path><path d="M736.5,243.6q.1-.3 .2-.6" fill="none" stroke="#ffffff" stroke-width=".4"></path><path d="M749.4,232.9q-1.2-1.3 -1.9-1.3q-2.1,0 .8,9.8q1.5,5.3 -1.5,5.7q-3.6,.5 .5-5.7q3.3-3.9 6.2-7q-.9-.6 -2.5-1" fill="none" stroke="#ffffff" stroke-width=".4"></path><path d="M755.4,242q.2-2.2 .9-4.1q.8-2.1 5.3-4.4q1.1-.6 1.1,8.4q0,.5 .1,2.6" fill="none" stroke="#ffffff" stroke-width=".4"></path><path d="M783,238.8q.1-2.6 .2-2q.8,4.6 1.7,6.6q0,0 -.1,0q1.3-2.1 4.2-4.4q.1,0 1.7,2.9q0,.1 .5,0q3.5-.7 3.9-.5q1.4,2 2.2,4.1q.1,.3 1.5,.1" fill="none" stroke="#ffffff" stroke-width=".5"></path><path d="M808.8,232.2q-5.1,9.4 -6.2,14.4q.1,.4 .2,.7" fill="none" stroke="#ffffff" stroke-width=".4"></path><path d="M813.3,241.1q-.1-.3 -.5-1.4q-.6-1.7 -1.8,1q-1.6,3.7 3.8,7.9q1.2,1 -1.1,1.4q-2.9-.4 -5.3-1" fill="none" stroke="#ffffff" stroke-width=".4"></path><path d="M817,232.8q3.9-.4 4.3,.6q-1,1.5 -2.6,2.5q-2.1,1.4 2.1,2.9q.5,.2 2.6,.4" fill="none" stroke="#ffffff" stroke-width=".4"></path><path d="M846.7,235.5q.2-.2 1.2-1.2q1-1 6.9,.6" fill="none" stroke="#ffffff" stroke-width=".4"></path><path d="M848.9,239.3q5.8,.2 8.2,.5" fill="none" stroke="#ffffff" stroke-width=".4"></path><path d="M890.4,236.1q.1-1.4 1.2-2.7q1.6-1.9 5.3-2.3q.2,0 -.7,13.7q-.1,1.3 .6,1.6" fill="none" stroke="#ffffff" stroke-width=".4"></path><path d="M907.9,233.5q-.1-.2 -.6-1q-1.2-2 -3.1,4.1q-.7,2.2 1.4,1.9q1-.2 1.6-3.6q0-.1 2.2,3.1q1.7,2.4 1.3,8.3q-.2,3.3 -5.1,.6q-.2-.1 .3-.9" fill="none" stroke="#ffffff" stroke-width=".4"></path><path d="M916,246.1q.5-.1 .9-.1" fill="none" stroke="#ffffff" stroke-width=".4"></path><path d="M929.1,229.5q-.1,.1 -.3,.5q-.6,1.1 -3.1,5.3q-5.9,10.2 .2,9.6q3.6-.3 3.8-4.8q0-.6 -2.4-1.4q-.1,0 .4,.4" fill="none" stroke="#ffffff" stroke-width=".4"></path><path d="M934.3,235.5q.3-1.1 .6-2q2-.6 4.1-.5q1.7,.1 1.2,4.5q-.1,.5 -5.6,7q-.7,.8 9.5,.8" fill="none" stroke="#ffffff" stroke-width=".4"></path><path d="M965.2,248.6q3.1-14.5 3.2-14.7q1.1-1.7 2.3,5.4q.5,2.9 2.9,9.3q.1,.4 1.9-7.1q1.9-5.1 3.8-9.2" fill="none" stroke="#ffffff" stroke-width=".5"></path><path d="M487.8,379.9q5.7-.2 6.5-.2" fill="none" stroke="#ffffff" stroke-width=".5"></path><path d="M485.1,383.4q4.2,.2 7.8,.3" fill="none" stroke="#ffffff" stroke-width=".5"></path><path d="M532.2,379q-.2,9 1,12.7" fill="none" stroke="#ffffff" stroke-width=".5"></path><path d="M531.6,379.6q.3-.5 1.4-2.7q.6-1.2 9.2-2.4q1.4,.1 2.6,.3" fill="none" stroke="#ffffff" stroke-width=".5"></path><path d="M531.7,383.5q6.4,.5 8.5,.8" fill="none" stroke="#ffffff" stroke-width=".5"></path><path d="M566.3,385.3q0-.2 0-.9" fill="none" stroke="#ffffff" stroke-width=".5"></path><path d="M608.6,379.6q-.3-2.1 -1.8-2.9q-1.3-.7 -11.3,4.7q-2.9,1.6 .3,7q.6,1 11.1,2.1" fill="none" stroke="#ffffff" stroke-width=".6"></path><path d="M191.8,197.1q1,1 2.5,1.2q9.5,1.27 10.5-5.7q.02-.12 .1-.6" fill="none" stroke="#ffffff" stroke-width=".28"></path><path d="M611.9,388q-.4-5.9 1.6-7.5q3.3-2.7 7.4,3.9q4.4,7.1 -4.4,6.3q-.4,0 -1.5-1.6q-.1-.2 .9-.5" fill="none" stroke="#ffffff" stroke-width=".5"></path><path d="M195.4,194.4q-.29-3.72 .7-5.2q.88-1.32 2.4,.2q1.07,1.07 -.7,2.4q-.1,.08 -.5-.4q.95,.2 2.5,.9q1.44,.65 -2.3,1.4q-.5,.1 -1.6,.1" fill="none" stroke="#ffffff" stroke-width=".28"></path><path d="M632.5,382.1q-.1-.3 -.5-1.4q-.5-1.4 -3.2,.1q-.7,.4 2.1,7.6q1.2,2 2.3,3.5q1.2,1.6 -5.7,.7q-1.2-.2 -2.1-.4" fill="none" stroke="#ffffff" stroke-width=".6"></path><path d="M179.8,194.3q-.4,1.2 -.1,2.1q.56,1.68 7,4.9q1.14,.57 5.5-3.3q.07-.07 .4-.3" fill="none" stroke="#ffffff" stroke-width=".28"></path><path d="M666.6,382.8q-.1,.1 -.5,.4q-.6,.5 -2,5.5q-.6,2.3 -6.4,2.8q-1.7,.1 -1.5-4.5q.2-3.2 8.9,3.1q1,.7 5.6,2.1q1.7,.5 2,3.8" fill="none" stroke="#ffffff" stroke-width=".4"></path><path d="M185.5,190.5q0-.05 0-.1" fill="none" stroke="#ffffff" stroke-width=".28"></path><path d="M185.5,189.9q-1.4,1.8 -1.9,2.8q-1,2 2.9,2q2.78,0 .9-5q-.36-.97 -.9,.1" fill="none" stroke="#ffffff" stroke-width=".28"></path><path d="M182.9,193q4-.5 6-.7" fill="none" stroke="#ffffff" stroke-width=".28"></path><path d="M440.6,296.8q.7-13.5 2.1-16.1q.5-1 4.5-1.5q1.9-.2 1.9,5.4q0,2.2 -1.9,2.4q-.3,0 1.2-.9q.3-.2 5.2,2.7q2.2,1.3 -6.1,1.3q-.2-.5 -.1-1.2q0-.5 5.3-2.9" fill="none" stroke="#ffffff" stroke-width=".5"></path><path d="M465.5,281.9q7.2-.5 8.7-.1" fill="none" stroke="#ffffff" stroke-width=".5"></path><path d="M466.8,286.7q6.5-.8 10.4-1.1" fill="none" stroke="#ffffff" stroke-width=".5"></path><path d="M510.5,287.1q-1.8-.8 -2-1.6q-.4-1.6 4.5-4.3q3.7-2.1 2,6.8q-.6,2.6 -1.2,4.8" fill="none" stroke="#ffffff" stroke-width=".5"></path><path d="M530.2,282.9q-.1-.3 -.7-1.7q-.1-.3 -.4,1.7q1.6,5 3.9,8.9q1.1,1.9 -2.2,3.9q-1.3,.8 -1.3-3.2q0-.8 5.3-4.5q2.2-1.6 1.7-6.5q-.9-.6 -2-.8" fill="none" stroke="#ffffff" stroke-width=".5"></path><path d="M544.1,288q-1-4.6 -.7-6.2q.6-3.1 8.8,2.2q2.2,1.4 2.2,6.5q0,3.9 -7.9,2q-1-.2 -1-1.6" fill="none" stroke="#ffffff" stroke-width=".5"></path><path d="M564.2,288.5q9.2-.8 12-.6" fill="none" stroke="#ffffff" stroke-width=".5"></path><path d="M604.7,281.5q.9-1.5 1.2-.7q.3,.7 -1.6,7.7q-.7,2.7 -6.1,1.8q-1.7-.3 -1.7-6.8q0-5 7.9,2.4q1.1,1 8.4,3.7" fill="none" stroke="#ffffff" stroke-width=".5"></path><path d="M625.4,286.5q3.5-.9 5.9-.5" fill="none" stroke="#ffffff" stroke-width=".5"></path><path d="M678.4,279.8q.6-2.4 -.2-3.5q-1.5-2.1 -6.3,2.1q-3.2,2.8 2.3,5.8q1.2,.7 2.6-3.4q1.2-3.5 6.2,6.5q2.7,5.3 -.7,8.1q-1.5,1.3 -5.8-1q-.8-2.6 -.8-5.2" fill="none" stroke="#ffffff" stroke-width=".5"></path><path d="M691.9,285.7q-.1-3.3 .8-4.9q.4-.7 4.2-.3q2.3,.3 2.8,7.3q.2,3.7 -6.5,2.2q-.4-.4 -.6-.9" fill="none" stroke="#ffffff" stroke-width=".5"></path><path d="M701.8,276.9q.2-3.7 1.3-4.7q1.9-1.7 4.9,0q1,.6 1,4.6q0,1.5 -4.1,.2" fill="none" stroke="#ffffff" stroke-width=".5"></path><path d="M725.8,278q9.1-.6 12-.4" fill="none" stroke="#ffffff" stroke-width=".5"></path><path d="M725.4,280.8q4.7-.1 8.5-.1" fill="none" stroke="#ffffff" stroke-width=".5"></path><path d="M777.1,278.4q-3.3,2.6 -5.8,5.8q-5,6.4 2.8,9.7q2.8,1.2 2.5-5.9q-.5-1.1 -1-2" fill="none" stroke="#ffffff" stroke-width=".5"></path><path d="M786.3,287.7q-1.4-2.5 -1.5-5.3q-.1-2.5 4.6-1.9q2.9,.4 3.4,7.2q.4,5.2 -7,1.9q-1.8-.8 -.6-2.8" fill="none" stroke="#ffffff" stroke-width=".5"></path><path d="M801.3,275.6q.5-2.8 1.3-3.4q4.7-3.6 5.4,5.1q.1,1.7 -5.7,1.7q-2,0 -1.4-2.4" fill="none" stroke="#ffffff" stroke-width=".5"></path><path d="M449.6,331q.1-1.8 -.6-2.1q-4.2-1.8 -7.4,7.8q-3.3,9.8 9.3,8.3q6.1-.7 7.7-8.8q1.3-6.3 -6.3-7.1q-.4,0 -1.8,1" fill="none" stroke="#ffffff" stroke-width=".5"></path><path d="M444.4,338q0-.2 -.1-.9q-.2-1.7 16.9,.4" fill="none" stroke="#ffffff" stroke-width=".5"></path><path d="M475.8,330.2q8.4-.3 10.2-.3" fill="none" stroke="#ffffff" stroke-width=".5"></path><path d="M475.7,335.7q3-.2 8.8,0" fill="none" stroke="#ffffff" stroke-width=".5"></path><path d="M527.2,328.3q-2.9,.6 -5.1,1.7q-2,1 .8,3.2q3.7,2.9 4.2-3.5q.2-2.6 2.6,.6q12.9,17.1 3,16.1q-3.4-.4 -4-5.9" fill="none" stroke="#ffffff" stroke-width=".5"></path><path d="M541.5,337.9q.8-5.3 1.7-7.1q1.6-3.1 4.3,.1q5.1,6 4.6,10.7q-.1,1 -4.6,2.4q-1.7,.5 -2.6-4.1" fill="none" stroke="#ffffff" stroke-width=".5"></path><path d="M561.9,324.1q-2.8-2.2 -3.5-3.2q-.9-1.2 4.2-.9q4.6,.3 5.4,5q.4,2.2 -4.4,2.2q-1,0 -1-1.5" fill="none" stroke="#ffffff" stroke-width=".5"></path><path d="M586.4,331.4q.3-.2 1.7-.9q1.2-.7 17.5,.2" fill="none" stroke="#ffffff" stroke-width=".5"></path><path d="M630.3,346.7q3.9-17.3 5.3-20.3q2.8-6.3 6.3-2.1q2.8,3.4 .7,7.9q0,.1 -.4-.4q-.2-.3 1.9,.9q.4,.2 2.8,4.4q1.4,2.3 -4.2,3.2q-2.5-.2 -4.6-.6" fill="none" stroke="#ffffff" stroke-width=".5"></path><path d="M667.9,331.1q11.6-.9 14.2-.2" fill="none" stroke="#ffffff" stroke-width=".5"></path><path d="M667.4,336.9q12.4-.6 13.5-.6" fill="none" stroke="#ffffff" stroke-width=".5"></path><path d="M715.9,328.7q4.2-.9 5.8,1q3.2,4 -1.5,6.4q-.3,.1 -1.5,0q-.4,0 2.1,.4q4.6,.8 5.5,6q.5,3 -6.3,3.5q-3.8,.3 -2.2-3.4" fill="none" stroke="#ffffff" stroke-width=".5"></path><path d="M732.4,337.2q-.3-.5 -1.4-2.5q-1.4-2.5 4.8-4.5q1.2-.4 3.6,5.1q1.4,3.3 .6,4.7q-1.8,3.2 -7.7,.8q-.5-.2 -.6-2.5" fill="none" stroke="#ffffff" stroke-width=".5"></path><path d="M746.3,327.2q-.3-2.4 .5-4.2q1.3-3 6.6,1q1.1,.8 1.1,3.8q0,1.8 -6.8,.1" fill="none" stroke="#ffffff" stroke-width=".5"></path><path d="M781.7,329.7q1.8-.8 5.1-1q4.7-.3 8.5,.1" fill="none" stroke="#ffffff" stroke-width=".5"></path><path d="M783,335.4q-.9-.5 -1.6-.9q1.9-.4 5.3-.4q2.4,.2 4.4,.4" fill="none" stroke="#ffffff" stroke-width=".5"></path><path d="M837.9,329.2q-2.9,9.5 -4.6,12q-3.8,5.4 -8.6-1.4q-2.2-3.2 -2.3-3.8q-.2-1.6 17.8,4.3q2,.7 8.8,6.3" fill="none" stroke="#ffffff" stroke-width=".5"></path><path d="M438,379.1q-1.2,15.4 .7,16.7" fill="none" stroke="#ffffff" stroke-width=".5"></path><path d="M435.5,380.2q.2-.3 .8-1.4q.3-.5 11.6-.8q.6,0 1.1,.1" fill="none" stroke="#ffffff" stroke-width=".5"></path><path d="M436.5,386.1q.6,0 1.1,0q3.1-.1 5.7-.2" fill="none" stroke="#ffffff" stroke-width=".5"></path><path d="M446.2,392q.2-.2 .8-.9q2.6-2.9 4.8-1.3q.6,3.4 .1,6.7" fill="none" stroke="#ffffff" stroke-width=".5"></path><path d="M459.9,389q2.4,1.5 3.2,2.7q1.5,2.2 4.3,3.9" fill="none" stroke="#ffffff" stroke-width=".5"></path><path d="M472.5,389.6q-4.2,8.9 -9.3,14.9q-.8,1.2 -1.4,2.2" fill="none" stroke="#ffffff" stroke-width=".6"></path><path d="M542.7,390.6q.7-2.4 3-3.8q3.2-1.9 4.1-.1q.2,.4 1.1,12" fill="none" stroke="#ffffff" stroke-width=".5"></path><path d="M699.4,386.1q0-.2 -.1-1.2q-.1-1.2 10.2-.2" fill="none" stroke="#ffffff" stroke-width=".5"></path><path d="M703,387.7q-1-.2 -4.8-.8q-1.8-.3 10.3-.3q2.8,0 5.1,.1" fill="none" stroke="#ffffff" stroke-width=".5"></path><path d="M744.5,386q.2-1.5 1.2-2.2q.8-.6 7.2-2.4q1.9-.5 -.2,10q-.2,1 -.2,6" fill="none" stroke="#ffffff" stroke-width=".5"></path><path d="M768.5,381.5q-2.6-.1 -4.1,1q-2.2,1.6 -3.3,9.9q-.8,6 7,2.5q2.8-1.3 1.1-4.3q0-.1 -.1,.4" fill="none" stroke="#ffffff" stroke-width=".5"></path><path d="M778.7,397.9q-.9-2.6 -.2-3.3" fill="none" stroke="#ffffff" stroke-width=".5"></path><path d="M795.4,382.9q-1.6-1.4 -3.3-1.2q-4.3,.5 -1.2,4.4q1.6,2 3.8-.2q1.1-1.1 0-4.9q1.2,3.9 3.4,11.2q1.4,4.7 -2.3,3.9q-.7-.2 -3.3-3.8" fill="none" stroke="#ffffff" stroke-width=".5"></path><path d="M811.3,381.8q-2.9,.2 -4.2,1.3q-1.8,1.6 1.3,5.5q1.9,.5 3.7,.4q1.6-3.1 2-6.8q1.4,4.2 2.8,12.1q.7,4.2 -4.4,3.8q-.8-.1 -3.7-1.6" fill="none" stroke="#ffffff" stroke-width=".5"></path><path d="M839.5,397.1q1.4-10.6 2.6-14q.6-1.7 1.2,5.8q2,4.7 4.2,8.3q.8,1.2 2.3-10.9q1-7.8 1-9.7" fill="none" stroke="#ffffff" stroke-width=".8"></path><path d="M437.9,426.5q.1-.2 .5-1.2q.5-1.3 .1,7.5q-.6,11.2 1.4,12.3" fill="none" stroke="#ffffff" stroke-width=".5"></path><path d="M438.2,428.2q6.5-2 11.6-1.8q.2,0 1.1,.5" fill="none" stroke="#ffffff" stroke-width=".5"></path><path d="M437.2,434.3q-2,.6 -1.4,.7q6.9-.2 12.5-1" fill="none" stroke="#ffffff" stroke-width=".5"></path><path d="M449.5,445q.2-2.2 1-3.4q1-1.5 4.5-1q1.2,3.7 .8,8" fill="none" stroke="#ffffff" stroke-width=".5"></path><path d="M463.3,440.9q5.3,5.3 8.9,6.6" fill="none" stroke="#ffffff" stroke-width=".5"></path><path d="M477.1,439.9q-9.3,6.4 -11.9,9.9" fill="none" stroke="#ffffff" stroke-width=".5"></path><path d="M495.7,434.3q0-.5 -.2-2.7q-.1-1.5 7.6,1.6" fill="none" stroke="#ffffff" stroke-width=".5"></path><path d="M495.9,438.6q6.9-.4 8.6-.4" fill="none" stroke="#ffffff" stroke-width=".5"></path><path d="M533.4,428.1q.3,.1 1.3,.6q0,0 -.6,10.9q-.2,3.9 1.4,5.5" fill="none" stroke="#ffffff" stroke-width=".5"></path><path d="M533.1,429.8q.8-.3 3.9-1.3q2-.7 9.9,.4" fill="none" stroke="#ffffff" stroke-width=".5"></path><path d="M534.3,437.2q.2-.2 .8-.8q.5-.5 6.3-.5" fill="none" stroke="#ffffff" stroke-width=".5"></path><path d="M549.6,439.2q4.2-2 7-1.5q.2,0 .6,6.4" fill="none" stroke="#ffffff" stroke-width=".5"></path><path d="M567.6,437.7q-.1-.1 -.2-.2" fill="none" stroke="#ffffff" stroke-width=".5"></path><path d="M604.1,432.4q-.4-.2 -2.1-1.2q-2.7,1.4 -4.8,3.7q-1.2,1.3 5.5,5.2q2,1.2 1.7,5.4q-.1,1.2 -7.3,1.2q-.2,0 -.1-.9" fill="none" stroke="#ffffff" stroke-width=".5"></path><path d="M613.5,444.2q-1,1.5 -.9,1.5" fill="none" stroke="#ffffff" stroke-width=".5"></path><path d="M613.6,431.8q-.2-1.3 -.3-1.8" fill="none" stroke="#ffffff" stroke-width=".5"></path><path d="M622.7,436.8q1,6.7 1.1,7.2q.5-1 .9-2.9q.4-1.7 5.5-1.4q.2,0 3.8,6.2q.1,.2 .9,.6" fill="none" stroke="#ffffff" stroke-width=".5"></path><path d="M666.3,434.2q0,0 .2-.1q-1.5,3.9 -5.6,9.9q-2.6,3.8 -5.7-2.3q-3.6-7.2 10.7-.6q3,2.2 5.3,4.3q1.7,.9 3.2,1.4" fill="none" stroke="#ffffff" stroke-width=".5"></path><path d="M701.5,431.8q.4-.3 2.1-1.4q.2-.1 8.5,1.2" fill="none" stroke="#ffffff" stroke-width=".5"></path><path d="M700.9,437.7q6.9-.2 11.2-.2" fill="none" stroke="#ffffff" stroke-width=".5"></path><path d="M764.9,429.9q.9-3.4 -.2-3.6q-1.7-.3 -5.2,5.5q-.8,1.3 3.9,1.9q1.8,.2 2.5-5.3q1.6,1.4 3.3,4.4q2.6,3.4 4.9,6q4.2,4.8 -2.9,7q-2.7,.8 -4.6-.7" fill="none" stroke="#ffffff" stroke-width=".6"></path><path d="M780.7,445.1q-.3-.3 -.6-.6" fill="none" stroke="#ffffff" stroke-width=".6"></path><path d="M800,426.4q-1.7-1.2 -2.7-.4q-2.3,1.9 2.1,11q4.3,8.8 3.3,9.9q-1.8,2 -3.9-2.5q-2.3-5 6.2-12.3q.3-.2 -.9-1.5q-.2-.2 -.4,1.4" fill="none" stroke="#ffffff" stroke-width=".6"></path><path d="M812.5,438.8q3.7-4.9 5.9-6.5q2-2.7 3.4-5.1q1.3,5.9 1,16.4q.1,.8 .3,1.5" fill="none" stroke="#ffffff" stroke-width=".6"></path><path d="M843.4,443.5q2.1-9.7 4.5-13q.9-1.2 2.4,4.3q3,10.8 4.3,9.5q1.6-1.6 5.1-20.5" fill="none" stroke="#ffffff" stroke-width="1"></path><path d="M194.6,177q5.7-6.4 6.3-7.1q3-3.5 5.6-6.3q2.4-2.5 4.4-4.6q1-1.4 1.7-2.6q1.6-1.5 3.2-2.5" fill="none" stroke="#ffffff" stroke-width=".3"></path><path d="M213.5,149.8q3-1.6 3.9-1.1q.3,.2 .8,5.4q.3,.6 .6,1.1" fill="none" stroke="#ffffff" stroke-width=".3"></path><path d="M214.5,166.5q-.4,3.6 -.7,6.6" fill="none" stroke="#ffffff" stroke-width=".3"></path><path d="M213.6,167.5q1.5-1.1 2.4-1.3q.9-.2 3,0" fill="none" stroke="#ffffff" stroke-width=".3"></path><path d="M213.7,170.5q.2-.1 1.1-.3q.5-.1 2.6-.6" fill="none" stroke="#ffffff" stroke-width=".3"></path><path d="M220,176.1q.8-3.8 1.2-4.2q.9,1.2 1.4,3.1q.4-.1 .8-.5q.3-.3 .2-1.9q0-.5 1.6-1.8q.3-.2 .7-1.6" fill="none" stroke="#ffffff" stroke-width=".3"></path><path d="M439.2,483.5q.7,.7 .5,3.4q-.7,9.5 .2,10.9" fill="none" stroke="#ffffff" stroke-width=".6"></path><path d="M438.3,482.6q3.3-2.3 6.9-3q2.4-.5 5.7,.5" fill="none" stroke="#ffffff" stroke-width=".6"></path><path d="M439.4,488q10.6-1 12.8-1.2" fill="none" stroke="#ffffff" stroke-width=".6"></path><path d="M454.2,506.1q-.6-4.2 -.1-7.6q.7-4.8 2.2-3.5q1.9,5.2 2.6,10q.1,.4 1.7-1q.9-.8 .6-6q-.1-.9 2.4-8.3" fill="none" stroke="#ffffff" stroke-width=".6"></path><path d="M484.7,486.1q.1-.4 .2-.7q5.1-1.1 10.7-.2q.9,.2 4.6-.6" fill="none" stroke="#ffffff" stroke-width=".6"></path><path d="M485.9,489q-.1-.3 -.6-1.5q-.4-.9 11-.9" fill="none" stroke="#ffffff" stroke-width=".6"></path><path d="M534.3,478.9q-1.1,10.4 -.5,16q.2,.6 .4,1.1" fill="none" stroke="#ffffff" stroke-width=".6"></path><path d="M532.6,482.8q.4-2.7 1.6-3.6q1.3-1 8.2,.5" fill="none" stroke="#ffffff" stroke-width=".6"></path><path d="M532.6,487.6q4-.6 7.9-.6" fill="none" stroke="#ffffff" stroke-width=".6"></path><path d="M546.1,491.3q1.9-1.8 5.1-3.1q2.7-1.1 3.3-.1q.4,4.4 0,8.1q0,.2 .4,.9" fill="none" stroke="#ffffff" stroke-width=".6"></path><path d="M562.1,489.3q4.2,5.6 6.9,7.1q1.3,.7 2.4,1.3" fill="none" stroke="#ffffff" stroke-width=".6"></path><path d="M575.9,492.8q-11.4,15.4 -13.1,20.1" fill="none" stroke="#ffffff" stroke-width=".6"></path><path d="M442.6,560.9q-.6-1.1 -1.1-2q-.5-.9 -6.8,7.7q-3.4,4.6 3.9,5.2q5.5,.5 6.1-9q.2,1.5 .4,4.3q.1,2.1 9.7,2.1" fill="none" stroke="#ffffff" stroke-width=".9"></path><path d="M459.5,555.4q3.9,1.7 5.3,3.8q3.8,5.7 -.2,20.2q-.2,.8 -3.3,2.3" fill="none" stroke="#ffffff" stroke-width=".8"></path><path d="M516.2,580.2q-.7,16 .9,17.6" fill="none" stroke="#ffffff" stroke-width=".8"></path><path d="M515.1,579.6q.4-.5 1.9-2.4q.9-1.1 10.2-1.1q.4,0 2,.7" fill="none" stroke="#ffffff" stroke-width=".8"></path><path d="M513.6,585.4q5.5,.4 10.3,.8" fill="none" stroke="#ffffff" stroke-width=".8"></path><path d="M531.9,595.7q.1-.2 .3-1q3-2.5 6.1-4.1q.4-.2 1.6,11" fill="none" stroke="#ffffff" stroke-width=".8"></path><path d="M552.8,589.1q.2,0 1,.2q1.6,.3 6.3,5.5q.7,.8 4.2,2.8" fill="none" stroke="#ffffff" stroke-width=".8"></path><path d="M569.3,586.3q-7.3,8.6 -14.9,12.5q-.9,.5 -3,4.4" fill="none" stroke="#ffffff" stroke-width=".8"></path><path d="M592.1,582.2q13.7-1.7 22.4-1.9" fill="none" stroke="#ffffff" stroke-width=".8"></path><path d="M598.9,585q10.1-.7 17.2-.9" fill="none" stroke="#ffffff" stroke-width=".8"></path><path d="M657.9,575.3q-2.4,.2 -4.3,.4q-2.4,2.3 -3.9,4.9q-2.1,3.6 5.1,2.5q1-.2 2.2-5.1q.3-1.4 4.4,5.4q2.3,3.3 4.3,5.9q5.4,7.1 -6.7,7.5q-4.1,.1 -3.5-3.6" fill="none" stroke="#ffffff" stroke-width=".8"></path><path d="M672.1,594.5q1.3-4 3.5-5.1" fill="none" stroke="#ffffff" stroke-width=".8"></path><path d="M692.3,580.2q-4.6-2.4 -6.9-2.1q-4.4,.6 2.1,6.6q9.7,8.9 1.9,11.7q-5.9,2.1 -5.1-3.9q5.8-6.4 12.5-10.6q.3-.2 -.5-1.8q-.1-.2 -.6,.8" fill="none" stroke="#ffffff" stroke-width=".8"></path><path d="M706.8,585.6q2.8-8.6 5.6-10.6q4.1-2.9 4.6,12.2q0,1.2 .6,5.8" fill="none" stroke="#ffffff" stroke-width=".8"></path><path d="M732,597.7q5.9-12.1 7-13.4q2.3-2.7 2.7,2.5q.6,8.2 4.5,9.9q2.9-4.6 4-11.4q2.9-6.1 6-10.9" fill="none" stroke="#ffffff" stroke-width="1.3"></path><path d="M640.9,603.5q11-1.3 19.2-1.3q24.6,0 67.5,5.6" fill="none" stroke="#ffffff" stroke-width=".8"></path><path d="M635.9,611q22.6,1 73.8,1.3q3.2,0 16,1" fill="none" stroke="#ffffff" stroke-width=".8"></path><path d="M435.3,652.6q-.4,10.6 0,14.6q.5-1.4 1-3.9q.3-1.5 8.4,2.6q2.5,1.3 2.5,9q0,3.1 -9.1,1.9q-.9-.7 -1.5-1.6" fill="none" stroke="#ffffff" stroke-width=".8"></path><path d="M458.4,651.1q3.2,2.1 5.3,6.3q3.3,6.5 3.5,9.5q.5,6.8 -5.5,11.2" fill="none" stroke="#ffffff" stroke-width=".8"></path><path d="M527.9,662.9q.1-2.5 -.9-3.4q-.4-.3 -6.3,7.2q-2.9,3.7 5.5,5q6.8,1 4.8-9.2q-.1-.3 -1.6,.6q-4.3,2.6 10.2,5.1" fill="none" stroke="#ffffff" stroke-width=".8"></path><path d="M565.5,656.4q5.4-.7 10.4-.1q.5,.1 .9,.1" fill="none" stroke="#ffffff" stroke-width=".8"></path><path d="M566.1,660.7q0-.1 0-.5q0-1 12.3,.1" fill="none" stroke="#ffffff" stroke-width=".8"></path><path d="M623.5,654q-2.9,11.1 -2,14.6" fill="none" stroke="#ffffff" stroke-width=".8"></path><path d="M620.8,652.1q1.6-2.3 4.8-2.8q2.7-.4 10.3,2.3" fill="none" stroke="#ffffff" stroke-width=".8"></path><path d="M621.1,657.8q9.1,0 10.8,.2" fill="none" stroke="#ffffff" stroke-width=".8"></path><path d="M635.4,667.1q5.4-3.4 9.8-6.3q1.3,4.5 .7,11.5" fill="none" stroke="#ffffff" stroke-width=".8"></path><path d="M658.1,660.8q2.4,3.8 5.3,5.7q6.2,4.1 6.7,4.7" fill="none" stroke="#ffffff" stroke-width=".8"></path><path d="M675.5,659.3q-8,7.6 -12.8,9.8q-1.3,.6 -5.6,4.4" fill="none" stroke="#ffffff" stroke-width=".8"></path><path d="M606.9,682.8q59.4-2.6 84-2" fill="none" stroke="#ffffff" stroke-width=".8"></path><path d="M633.8,701.2q.1-.5 .3-2.3q2,5.1 3.9,14.6q.1,.3 0-1.4q-.1-4.3 5.7-7.2q2.3-1.2 3.7,4.3q3.8-1.4 8-5.2q.1-.1 5.4,3q4,.8 7.4,1" fill="none" stroke="#ffffff" stroke-width=".9"></path><path d="M720.5,669.4q11.8-1.1 16-.9" fill="none" stroke="#ffffff" stroke-width=".8"></path><path d="M722.3,674.6q8.5-.9 11-.9" fill="none" stroke="#ffffff" stroke-width=".8"></path><path d="M801.2,650.8q-.2-.4 -1.1-2.2q-1.9-3.8 -3.9,5.5q-.3,1.6 3.8,1.6q.6,0 .7-2.8q.1-1.7 7.2,11.7q1.9,3.6 .5,6.5q-2.2,4.3 -7.8,0q-.6-1.1 -1-2.1" fill="none" stroke="#ffffff" stroke-width=".8"></path><path d="M815.2,668.8q.4-.4 .8-.8" fill="none" stroke="#ffffff" stroke-width=".8"></path><path d="M836.2,654.5q-2.1-1.1 -4.6-.8q-7,.8 4,13.8q3.7,4.4 -5.7,3.7q-2.4-.2 -1.8-2.7q3.1-2.2 6.5-3.4q3.6-1.2 4.2-9.3q-.6-.2 -1.4-.1" fill="none" stroke="#ffffff" stroke-width=".8"></path><path d="M845.4,664.5q2.3-4.9 4.1-6.7q3.7-3.7 3.7,1.3q0,5.7 1.4,8.5" fill="none" stroke="#ffffff" stroke-width=".8"></path><path d="M873,670q2.5-7.3 4.3-13.4q.3-1 2.1,8.9q.9,5.1 6.9,2.1q2.8-1.4 5-16.5" fill="none" stroke="#ffffff" stroke-width="1.2"></path><path d="M788.8,681.9q1.2-.3 2.2-.6q31.8-.3 58.1,2.7q23.7,1.3 43.1,1.9q1.9,.1 9.2,1.1" fill="none" stroke="#ffffff" stroke-width=".8"></path><path d="M813.6,698q.3-.4 1.6-1.9q1.3-1.5 13.2-.6q4.4,.3 1.1,5.4q-4.2,6.4 -2.8,7.2q1.9,1.1 11.2,.1" fill="none" stroke="#ffffff" stroke-width=".8"></path><path d="M851.4,691.8q-2.2,10.3 -.9,14.5q.2,.7 2.6,1.5" fill="none" stroke="#ffffff" stroke-width=".8"></path><path d="M863.6,698.7q-4.6,.1 -8.4,2q-4.2,2.1 -.5,6.1q.7,.8 13.6,.8" fill="none" stroke="#ffffff" stroke-width=".8"></path><path d="M888.5,701.4q-.2-.4 -.9-2.2q-.4-1 -4.9,1.7q-4.5,2.6 .8,6q3.9,2.5 7.2-.9q.7-1.5 1-2.8q2.7,3 5.4,8.9q2.2,4.7 -5.9,7.7q-6.8,2.5 -12.7-1.1" fill="none" stroke="#ffffff" stroke-width=".8"></path><path d="M953.3,663.1q1.3-1.4 3.1-1.6q1.2-.1 6.1,.3" fill="none" stroke="#ffffff" stroke-width=".8"></path><path d="M953.2,669.3q-1.5-.3 -2.8-.5q4.2,0 12,.4" fill="none" stroke="#ffffff" stroke-width=".8"></path><path d="M1019.9,657.2q-.1-.3 -.6-1.7q-.8-2.2 -10.9,3.4q-3.4,1.9 2.8,3q1.6,.1 2.9,0" fill="none" stroke="#ffffff" stroke-width=".8"></path><path d="M1021.6,656.5q-2.3,8.5 -1,13.8q.1,.4 1,1.9" fill="none" stroke="#ffffff" stroke-width=".8"></path><path d="M1024,670.6q.08,.08 0,.08q-.08,0 -.08-.08q0-.08 .08-.08q.08,0 .08,.08" fill="none" stroke="#ffffff" stroke-width=".8"></path><path d="M1046.6,658.2q-8.4,2.5 -9,3.7q-1.6,3.2 5.1,0q1.5-.7 2.4-3.7q.7-2.3 4.2,6.2q5.2,12.6 -2.5,9.6q-.5-.2 -1.1-2.2" fill="none" stroke="#ffffff" stroke-width=".8"></path><path d="M1060.1,667.9q-.1-6.7 1.1-7.7q3.8-3.2 8.5,5.4q3.4,6.3 -5.8,6.6q-4.3,.1 -3.3-4.2" fill="none" stroke="#ffffff" stroke-width=".8"></path><path d="M1077.9,657.4q-2.1,5 -1.3,6.6q3.8,3.3 7.5,5.5q4.3,2.5 -6.4,2.5q-.9,0 -3.5-3" fill="none" stroke="#ffffff" stroke-width=".8"></path><path d="M1075.7,655.9q5.7-2 10-2.2q1.7-.1 8.3,1.7" fill="none" stroke="#ffffff" stroke-width=".8"></path><path d="M1139.5,661.4q-.2,5.6 .8,9.2q.1,.3 1.2-.8q1-1 3-6.3q.9-2.4 3.4,5.5q.2,.5 2.5-.5q3.1-2.3 5.4-4.5q2.6-2.4 5,5.7q.8,2.7 4.5,2.9" fill="none" stroke="#ffffff" stroke-width=".8"></path><path d="M1184.5,653.8q-3.1,6.7 -6.9,11.3q-1.5,1.8 -3.9,9.9" fill="none" stroke="#ffffff" stroke-width=".8"></path><path d="M1196.4,662.6q-6.7-.5 -8.9,.5q-2.6,1.2 3.3,8.4q.9,1.1 5.9,4.5q4.6,3.1 -1.2,4.4q-2.1,.5 -6.8-1.9" fill="none" stroke="#ffffff" stroke-width=".8"></path><path d="M1212,649.4q3.3,.7 2.9,1.9q-2.3,3.4 -4.6,5.9q-2.1,2.3 8.2,4.5" fill="none" stroke="#ffffff" stroke-width=".8"></path><path d="M440.9,781.1q.4-.7 2-3.5q-4.2,1.8 -10.6,6.5q-4.9,3.6 1.2,10.1q2.5,2.7 16.3,0" fill="none" stroke="#ffffff" stroke-width=".9"></path><path d="M459.4,769.3q2.3,4.9 5.9,8.8q10.6,11.5 -1.6,24.2q-.5,.5 -1.8,2.7" fill="none" stroke="#ffffff" stroke-width=".8"></path><path d="M537.2,781q.1-2.3 .2-4.1q-.2,7.7 -.7,21.9" fill="none" stroke="#ffffff" stroke-width=".8"></path><path d="M536.2,778q2.7-2.4 5.5-3q5.9-1.3 10.3,.5" fill="none" stroke="#ffffff" stroke-width=".8"></path><path d="M537.8,785.8q10.7-1 13.8-1.1" fill="none" stroke="#ffffff" stroke-width=".8"></path><path d="M554,806.6q.2-6.6 1-11.7q1.4,2.3 2.8,6.7q.3,1 4.9,3.1q2.1-5.2 2-12.8q0-.5 1.1-2.2" fill="none" stroke="#ffffff" stroke-width=".9"></path><path d="M581.6,785.5q10.2-.3 13.2,0" fill="none" stroke="#ffffff" stroke-width=".8"></path><path d="M584.6,789.5q8.1-.4 10-.3" fill="none" stroke="#ffffff" stroke-width=".8"></path><path d="M622.6,779.8q-2.9,16 -1,18.2" fill="none" stroke="#ffffff" stroke-width=".8"></path><path d="M620.6,783q2.9-3.9 5.6-5.2q5.5-2.6 11.1,1.7" fill="none" stroke="#ffffff" stroke-width=".8"></path><path d="M621.9,788.7q.1-.2 .3-.8q.4-1 9.1,.1" fill="none" stroke="#ffffff" stroke-width=".8"></path><path d="M639.7,790.7q2.2-2.8 4.6-3.3q3.6-.8 1.7,6.3q-.2,.8 .9,4" fill="none" stroke="#ffffff" stroke-width=".8"></path><path d="M654.1,789.5q8.4,7.5 9.7,8.7" fill="none" stroke="#ffffff" stroke-width=".8"></path><path d="M669.9,790.6q-5.1,10.2 -8.7,13.5q-3.2,4.3 -5.5,8.1" fill="none" stroke="#ffffff" stroke-width=".8"></path><path d="M684.9,787.2q.7-.4 1.2-.7q0,0 19.8,.6" fill="none" stroke="#ffffff" stroke-width=".8"></path><path d="M694.8,789.7q-3.4-.3 -2.2-.7q1.3-.4 12.9,.1" fill="none" stroke="#ffffff" stroke-width=".8"></path><path d="M741.2,788.9q8.6-5.9 11.1-9.2q3.2-4.2 1.3,12.2q-.4,3.8 .4,9.3" fill="none" stroke="#ffffff" stroke-width=".8"></path><path d="M772.7,778.7q-.8,1.1 -3.8,5.5q-4.9,7.1 -.1,14q1.6,2.3 5-3.9q2.3-4.2 -4.3-4.2q.4,1.5 1.8,3.4" fill="none" stroke="#ffffff" stroke-width=".8"></path><path d="M785.8,794.3q-.6-.4 -2.8-1.9" fill="none" stroke="#ffffff" stroke-width=".8"></path><path d="M805.7,779q-3-.2 -5.5,1.4q-4.3,2.8 -.9,5.8q1.5,1.3 5.4-3.4q2.8-3.4 5.7,7.1q3.8,13.6 -7.6,8.5q-.9-.4 -2.2-4.1" fill="none" stroke="#ffffff" stroke-width=".8"></path><path d="M824,781.1q-.4-.1 -2.1-.3q-1.1-.2 -2.1,5.2q-.2,1.3 3.4,1.5q1,.1 2.4-4q.8-2.3 7.8,7.6q6.5,9.2 -6.6,9.2q-2.4,0 -4.6-2.4" fill="none" stroke="#ffffff" stroke-width=".9"></path><path d="M855.3,797.3q3.8-7.6 5.3-9.8q.5-.8 1.9-4.4q1.1-3 3.9,11.7q.1,.4 1.8-.4q.6-.2 5.1-18.4" fill="none" stroke="#ffffff" stroke-width="1.1"></path></svg>