<svg viewBox="-109.8 14.4 1575.9 881.1" width="1575.9" height="881.1" version="1.1" baseProfile="full" xmlns="http://www.w3.org/2000/svg" class="js-draw--autoresize"><style id="js-draw-style-sheet">path{stroke-linecap:round;stroke-linejoin:round;}text{white-space:pre;}</style><g class="js-draw-image-background js-draw-image-background-grid js-draw-image-background-grid-25"><path d="M1466.1,895.5l0-881.1l-1575.9,1.7763568394002505e-14l0,881.1l1575.9,0" fill="#000000"></path><path d="M-110.15,25l1576.6,0m-1576.6,25l1576.6,0m-1576.6,25l1576.6,0m-1576.6,25l1576.6,0m-1576.6,25l1576.6,0m-1576.6,25l1576.6,0m-1576.6,25l1576.6,0m-1576.6,25l1576.6,0m-1576.6,25l1576.6,0m-1576.6,25l1576.6,0m-1576.6,25l1576.6,0m-1576.6,25l1576.6,0m-1576.6,25l1576.6,0m-1576.6,25l1576.6,0m-1576.6,25l1576.6,0m-1576.6,25l1576.6,0m-1576.6,25l1576.6,0m-1576.6,25l1576.6,0m-1576.6,25l1576.6,0m-1576.6,25l1576.6,0m-1576.6,25l1576.6,0m-1576.6,25l1576.6,0m-1576.6,25l1576.6,0m-1576.6,25l1576.6,0m-1576.6,25l1576.6,0m-1576.6,25l1576.6,0m-1576.6,25l1576.6,0m-1576.6,25l1576.6,0m-1576.6,25l1576.6,0m-1576.6,25l1576.6,0m-1576.6,25l1576.6,0m-1576.6,25l1576.6,0m-1576.6,25l1576.6,0m-1576.6,25l1576.6,0m-1576.6,25l1576.6,0m-1566.45-860.95l0,881.8m25-881.8l0,881.8m25-881.8l0,881.8m25-881.8l0,881.8m25-881.8l0,881.8m25-881.8l0,881.8m25-881.8l0,881.8m25-881.8l0,881.8m25-881.8l0,881.8m25-881.8l0,881.8m25-881.8l0,881.8m25-881.8l0,881.8m25-881.8l0,881.8m25-881.8l0,881.8m25-881.8l0,881.8m25-881.8l0,881.8m25-881.8l0,881.8m25-881.8l0,881.8m25-881.8l0,881.8m25-881.8l0,881.8m25-881.8l0,881.8m25-881.8l0,881.8m25-881.8l0,881.8m25-881.8l0,881.8m25-881.8l0,881.8m25-881.8l0,881.8m25-881.8l0,881.8m25-881.8l0,881.8m25-881.8l0,881.8m25-881.8l0,881.8m25-881.8l0,881.8m25-881.8l0,881.8m25-881.8l0,881.8m25-881.8l0,881.8m25-881.8l0,881.8m25-881.8l0,881.8m25-881.8l0,881.8m25-881.8l0,881.8m25-881.8l0,881.8m25-881.8l0,881.8m25-881.8l0,881.8m25-881.8l0,881.8m25-881.8l0,881.8m25-881.8l0,881.8m25-881.8l0,881.8m25-881.8l0,881.8m25-881.8l0,881.8m25-881.8l0,881.8m25-881.8l0,881.8m25-881.8l0,881.8m25-881.8l0,881.8m25-881.8l0,881.8m25-881.8l0,881.8m25-881.8l0,881.8m25-881.8l0,881.8m25-881.8l0,881.8m25-881.8l0,881.8m25-881.8l0,881.8m25-881.8l0,881.8m25-881.8l0,881.8m25-881.8l0,881.8m25-881.8l0,881.8m25-881.8l0,881.8" fill="none" stroke="#ffffff33" stroke-width=".7"></path></g><path d="M-99,38.5l1,2.8q1.4-1.1 2.2,2.3l2.8-1q-2.2-5 -6-4.1  M-108.7,50.2l2.8,.8q2.4-7.8 7.9-9.7l-1-2.8q-6.7,2.8 -9.7,11.7  M-97.3,63.4l1.8-2.4q-6.3-4.7 -10.6-11.2l.2,1.2l-2.8-.8q4.7,8.1 11.4,13.2  M-96.9,72.9l1.4,2.6q9.8-6.3 0-14.5l-1.8,2.4q8.7,5.7 .4,9.5  M-104.2,71.5l-1.4,2.6q6.1,3.3 10.1,1.4l-1.4-2.6q-2.4,1.6 -7.3-1.4  M-102.8,72.5l-2-2.2q-1.9,2.1 -.8,3.8l1.4-2.6q.4,1.4 1.4,1" fill="#ffffff"></path><path d="M-74.5,76l-1.4-2.6q1.1,.9 2.8-10.3l-3-.4q-1.1,13.2 1.6,13.3" fill="#ffffff"></path><path d="M-77.5,46.6l3,.2q.7-7.2 .9-9.1l-3-.2q-.1,1.8 -.9,9.1" fill="#ffffff"></path><path d="M-61.1,67.9l2.8,.8q.7-2.4 2.6-8.1l-2.8-1q-1.9,5.9 -2.6,8.3  M-45.7,53l-2.4-1.6q-7.6,10.7 -12.6,15.9l2.4,1.4l-2.8-.8q7.7-3.9 15.4-14.9  M-40.2,62.5l2.8-1.2q-6.4-14.3 -10.7-9.9l2.4,1.6q1-3.2 5.5,9.5  M-31.9,73.4l2.2-2q-6.9-7.9 -7.7-10.1l-2.8,1.2q1.2,2.7 8.3,10.9" fill="#ffffff"></path><path d="M-17.3,40.4l2.4,1.6q6.7-10.3 13.7-15.6l-1.8-2.4q-7.4,5.7 -14.3,16.4  M-8.9,63.1l1.8-2.4q-13.7-10.3 -7.8-18.7l-2.4-1.6q-6.4,10.7 8.4,22.7" fill="#ffffff"></path><path d="M26.3,36.9l-3,0q0,2 0,4.4l3,0q0-2.4 0-4.4  M19.3,55.7l3,.6q2.1-12.4 3.9-19l-2.9-.4l3,0q-4.7,6.3 -7,18.8  M25.3,60.4l1-2.8q-4.6-1.5 -4-1.3l-3-.6q.2,2.5 6,4.7  M32.8,53.1l-2.6-1.4q-2.1,3.7 -5.3,6.1l1.4-.2l-1,2.8q5-3.1 7.5-7.3  M31.4,58.4l3-.4q-1.7-8 -4.2-6.3l2.6,1.4q-1.3-.4 -1.4,5.3  M50,62.3l-.8-2.8q-14.8,5 -14.8-1.5l-3,.4q1.8,8.8 18.6,3.9  M64.7,50.3l-2.2-2q-8.5,9.8 -13.3,11.2l.8,2.8q5.7-1.9 14.7-12  M65.6,44.7l-3,0q.1,2 -.4,4.3l.3-.7l2.2,2q.9-3.3 .9-5.6" fill="#ffffff"></path><path d="M71.8,70.1l2.8-.6q-2-10.5 -3.4-23.5q.4-10.5 3.1-19.6l-2.8-.8q-2.9,9.5 -3.3,20.5q1.5,13.3 3.6,24" fill="#ffffff"></path><path d="M69.1,48.5l-2.6-1.4q-2.1,3.7 -2.6,4.7l2.6,1.4q.5-.9 2.6-4.7  M74.9,49.1l.6-2.8q-7.3-1.2 -9,.8l2.6,1.4q-.2-.6 5.8,.6" fill="#ffffff"></path><path d="M119.8,52.4l3-.2q-.2-3.8 .6-21.9l-3-.2q-.8,18.3 -.6,22.3" fill="#ffffff"></path><path d="M122.5,47.3l.2-3q-4-.2 -7.7,3.2l2,2.2q2.7-2.8 5.5-2.4" fill="#ffffff"></path><path d="M148.8,33.9l3,.4q.1-2.8 3.4-5l-1.6-2.4q-4.1,3 -4.8,7  M170.2,49.3l0-3q-20.4-.2 -18.4-12l-3-.4q-1.1,14.3 21.4,15.4  M177.9,45l-2.2-2q-2.9,3.6 -5.5,3.3l0,3q3.9-.1 7.7-4.3" fill="#ffffff"></path><path d="M166.9,61.2l3,0q.3-11 1.6-32.5l-3-.2q-1.3,21.5 -1.6,32.7" fill="#ffffff"></path><path d="M189.6,65l.4-3q-11-1.6 -13.9-1.8q-13.2-.8 -25.7,.6l.4,3q12.1-1.4 25.1-.6q2.7,.1 13.7,1.8" fill="#ffffff"></path><path d="M202.3,56.6l2.6-1.4q-1.6-2.9 2.6-28.4l-3-.4q-4.2,25.9 -2.2,30.2" fill="#ffffff"></path><path d="M209.9,50l.4-3q-2.4-.3 -5.3-.8q-7-.6 -8.8-.8l-.2,3q1.7,.1 8.7,.8q2.8,.4 5.2,.8" fill="#ffffff"></path><path d="M245,54.3l3-.2q-.9-13.8 -5.6-17.8q-11.1-9.1 -13.9-11.3l-1.8,2.2q2.8,2.3 13.9,11.3q3.7,2.9 4.4,15.8  M237.9,63.4l2.4,1.8q7.7-10.7 7.7-11.1l-3,.2q.1,.4 -7.1,9.1" fill="#ffffff"></path><path d="M318.7,44.2l.4-3q-1.8-.2 -19.4-.9l-.2,3q17.6,.7 19.2,.9" fill="#ffffff"></path><path d="M324.8,52.7l.8-2.8q-5.8-1.6 -24.3,.5l.4,3q18.1-2.1 23.1-.7" fill="#ffffff"></path><path d="M415.7,34.5l-1.8,2.2q2.6,2.2 3.3,2.7l1.8-2.2q-.6-.6 -3.3-2.7  M403.2,44.9l2.4,1.6q7.5-11.4 8.3-9.8l1.8-2.2q-3.7-2.1 -12.5,10.4  M415.2,60.1l1.6-2.4q-13.8-8.5 -11.2-11.2l-2.4-1.6q-2.9,5.4 12,15.2  M412.1,67.8l.8,2.8q14.2-5.3 3.9-12.9l-1.6,2.4q9,4.7 -3.1,7.7  M405,66.5l-.8,2.8q3.7,1 8.2,1.4l.5-.1l-.8-2.8q-3.7-.4 -7.1-1.3  M407.5,68.3l-.8-2.8q-4.1,2 -2.5,3.8l.8-2.8q.5,1.5 2.5,1.8" fill="#ffffff"></path><path d="M434.8,66.4l2.8,.8q.3-1 .3-5.8l-3,0q0,4.6 -.1,5" fill="#ffffff"></path><path d="M435.9,36.4l2.6,1.4q.9-1.7 1.1-2.1l-2.6-1.4q-.2,.4 -1.1,2.1" fill="#ffffff"></path><path d="M447.6,62.1l-.8-2.8q-.5,1.4 3.5-2.6l-2.4-1.8q-4.2,7.2 -.3,7.2  M464.2,58.1l.4-3q-3.3-.4 -17.8,4.2l.8,2.8q14.2-4.5 16.6-4  M469.1,64.9l2.6-1.4q-2.5-4.2 -6.3-8l-.8-.4l-.4,3q2.7,3 4.9,6.8" fill="#ffffff"></path><path d="M488.7,37.7l2.6,1.4q3.7-6.8 8.7-9.4l-1.4-2.6q-5.8,3.2 -9.9,10.6  M495.1,69.3l2-2.2q-14.1-13.5 -5.8-28l-2.6-1.4q-8.7,16.4 6.4,31.6" fill="#ffffff"></path><path d="M522.4,56l2.8,1q1-2.9 11.4-12.8l-2-2.2q-10.8,10.3 -12.2,14  M533.8,63.2l.4-3q-10.8-.7 -9-3.2l-2.8-1q-1.1,5.5 11.4,7.2  M539.9,54.7l-3-.2q0,6.6 -2.7,5.7l-.4,3q5.3-.1 6.1-8.5  M534.3,60.3l2.8,1q1.5-4 2.6-6l-2.8-.8l3,.2q-4,1.4 -5.6,5.6  M549.2,66.8l-.2-3q-14.6,2 -11.9-2.5l-2.8-1q-1.9,7.7 14.9,6.5  M563.1,55.8l-2.4-1.8q-7.3,9.6 -11.7,9.8l.2,3q5.8-.8 13.9-11" fill="#ffffff"></path><path d="M571.6,63.6l3,.4q1.9-14.9 4.4-33.1l-3-.4q-2.5,18.2 -4.4,33.1" fill="#ffffff"></path><path d="M583,57l.2-3q-2.1-.1 -16.2,.3l0,3q14.1-.4 16-.3" fill="#ffffff"></path><path d="M611.3,59.5l3,0q0-1.9 -8.7-30.8l-2.8,.8q8.5,28.1 8.5,30  M604.8,63.2l1.2,2.6q7.9-3.6 8.3-6.3l-3,0q.4,.7 -6.5,3.7" fill="#ffffff"></path><path d="M662,32.5l-2.8,.8q.9,3.4 1.2,4.3l2.8-.8q-.2-.9 -1.2-4.3  M641.7,42.3l2,2.2q15.8-14.1 15.5-11.2l2.8-.8q-2.5-5 -20.3,9.8  M653.7,59.9l.8-2.8q-20.4-5.5 -10.8-12.6l-2-2.2q-10.4,10.1 12,17.6  M665.1,63.1l.8-2.8q-5.1-1.4 -11.4-3.2l-.8,2.8q6.3,1.8 11.4,3.2" fill="#ffffff"></path><path d="M669.8,48.6l-2.6,1.6q1.5,2.3 8.4,6.6l1.6-2.4q-6.5-4.1 -7.4-5.8  M682.4,46.3l0-3q-17.8,.5 -15.2,6.9l2.6-1.6q-2.9-2.8 12.6-2.3  M687.4,56.3l2.8-.8q-3.2-11.7 -7.8-12.2l0,3q2.4-.5 5,10  M676.2,56.8l-1.2,2.8q17,6.4 15.2-4.1l-2.8,.8q2.9,7.3 -11.2,.5" fill="#ffffff"></path><path d="M704,37.3l2.4,1.8q1-1.9 14.6,0l.4-3q-14.6-1.7 -17.4,1.2  M717.6,59.1l2.2-2q-15.4-16.6 -13.4-18l-2.4-1.8q-2.4,4.1 13.6,21.8  M711,63.2l.6,2.8q12.1-3.3 8.2-8.9l-2.2,2q3.4,2.3 -6.6,4.1  M704.5,58.5l-2.6,1.4q4.4,7 9.7,6.1l-.6-2.8q-3.4,1.1 -6.5-4.7" fill="#ffffff"></path><path d="M750.7,17.2l-1.4,2.6q2.5,1.4 3.2,1.8l1.4-2.6q-.6-.3 -3.2-1.8  M734.4,33.5l2.6,1.4q8.7-17.9 12.3-15.1l1.4-2.6q-6.4-2.8 -16.3,16.3  M737,64.6l2.6-1.6q-9.3-15.2 -2.6-28.1l-2.6-1.4q-7,14.5 2.6,31.1  M739.9,67l1.6-2.4q-1.9-1.3 -1.9-1.6l-2.6,1.6q.6,.8 2.9,2.4" fill="#ffffff"></path><path d="M774.8,42.1l3-.2q-.6-5.2 4-13.2l-2.6-1.4q-4.8,8.6 -4.4,14.8  M805.2,47.9l-1.4-2.6q-25.2,14.8 -26-3.4l-3,.2q2.6,20.7 30.4,5.8  M811.2,36.7l-3,0q.2,6.3 -4.4,8.6l1.4,2.6q5.8-3.5 6-11.2" fill="#ffffff"></path><path d="M797.2,60l2.8-1.2q-2.3-5.4 -2.2-6.5q0-7.5 4.2-20.2l-2.8-1q-4.2,13.1 -4.4,21.2q.1,1.9 2.4,7.7" fill="#ffffff"></path><path d="M806.9,67.7l1-2.8q-8.3-2.7 -29.9-4.1l-.2,3q21.4,1.3 29.1,3.9" fill="#ffffff"></path><path d="M836.2,31.5l1.4-2.6q-2-1.2 -2.6-1.5l-1.4,2.6q.5,.3 2.6,1.5  M833.1,61.6l3,0q0-3.2 .3-7.1q3.2-12.1 2-24.4l-.8-1.2l-1.4,2.6q.4,10.7 -2.7,22.5q-.4,4.3 -.4,7.6" fill="#ffffff"></path><path d="M841.6,52.7l1-2.8q-10.1-3.7 -12.7-1.6q-1,1.1 -2.3,2.5l2.2,2q1.2-1.4 2.3-2.5q.5-1.2 9.5,2.4" fill="#ffffff"></path><path d="M872.9,61.1l3-.2q-1.2-11.9 -11.7-32.7l-2.6,1.4q10.3,20.3 11.3,31.5  M859.5,74l1.4,2.6q15.3-8.5 15-15.7l-3,.2q.9,5.3 -13.4,12.9" fill="#ffffff"></path><path d="M931,55.1l3,.2q.2-7.2 4.6-20.3l-2.8-1q-4.5,13.5 -4.8,21.1" fill="#ffffff"></path><path d="M931.7,49.9l0-3q-3.4,.1 -6.5,2.6l2,2.2q2.1-1.9 4.5-1.8" fill="#ffffff"></path><path d="M992.1,35.7l.4,3q6.5-1.1 14.6,2.1l1-2.8q-8.7-3.4 -16-2.3  M993,46.4l1.4-2.6q-10.7-4.8 -1.9-5.1l-.4-3q-11.3,2.9 .9,10.7  M1002.6,62.9l3-.2q-1.1-13.1 -11.2-18.9l-1.4,2.6q9,4.7 9.6,16.5  M986.7,62.6l-.8,2.8q19.3,4.4 19.7-2.7l-3,.2q1.2,4.3 -15.9-.3  M988.9,61l-1.4-2.6q-6.9,4.7 -1.6,7l.8-2.8q-3.1,.3 2.2-1.6" fill="#ffffff"></path><path d="M1024.1,65.5l-3,0q1.5-1.3 1.7-12l-3,.4q2.8,13.3 4.3,11.6" fill="#ffffff"></path><path d="M1023.3,35.2l-1.6-2.4q-1.7,1.1 -2.1,1.4l1.6,2.4q.4-.3 2.1-1.4" fill="#ffffff"></path><path d="M1043.6,64.3l3,0q0-2 -2.1-20.9l-3,.4q2.1,18.7 2.1,20.5  M1056,47.6l-2.6-1.2q-5.3,11.4 -9.5,17l2.7,.9l-3,0q7.1-5.1 12.4-16.7  M1064.9,60.7l2.6-1.4q-10.5-18.1 -14.1-12.9l2.6,1.2q.4-3.5 8.9,13.1  M1071.9,68.1l2-2.2q-3.2-2.9 -6.6-6.9l.2,.3l-2.6,1.4q3.7,4.3 7,7.4" fill="#ffffff"></path><path d="M1100.7,36.6l2.8,1q2.1-6 6.5-10.5l-2.2-2q-4.8,4.9 -7.1,11.5  M1098.6,75.6l2.4-1.8q-7.1-9.1 2.5-36.2l-2.8-1q-9.7,28.2 -2.1,39" fill="#ffffff"></path><path d="M1124.2,47.4l2.4-1.8q-1.4-1.6 1.1-12l-2.8-.6q-2.7,11.2 -.7,14.4  M1148.8,45.9l-1.2-2.6q-17.6,7.9 -21,2.3l-2.4,1.8q5.4,6.7 24.6-1.5  M1152.9,42l-2.2-2q-1.5,1.7 -3.5,3.5l.4-.2l1.2,2.6q2.5-2.1 4.1-3.9" fill="#ffffff"></path><path d="M1135.7,62.9l3-.4q-.6-4 -.6-27.7l-3,0q0,23.8 .6,28.1" fill="#ffffff"></path><path d="M1144.6,67l.2-3q-4.3-.2 -20.8,1.2l.2,3q16.5-1.4 20.4-1.2" fill="#ffffff"></path><path d="M1172.1,68.2l2.6-1.4q-6.3-10.7 -2.4-21.2q2.4-7 2.4-14.2q-1.3-1.7 -1.4-1.8l-1.8,2.4q.2,.1 .8,.6q-.5,5.6 -2.8,12q-4,11.8 2.6,23.6" fill="#ffffff"></path><path d="M1174.4,52.9l.6-2.8q-2.9-.7 -4.1-.4q-3.8,1.4 -4.7,1.7l1,2.8q.9-.4 4.7-1.7q.1-.2 2.5,.4" fill="#ffffff"></path><path d="M1200.7,67.2l2.6,1.2q3-6.5 -4.1-43.4l-2.8,.6q7,36.3 4.3,41.6  M1196.2,69l-1.4,2.6q5.4,2.3 8.5-3.2l-2.6-1.2q-1.5,3.9 -4.5,1.8" fill="#ffffff"></path><path d="M1227.4,42.2l-3-1.2q-1,2.6 -1.2,3.2l2.8,1.2q.3-.6 1.4-3.2" fill="#ffffff"></path><path d="M1237.4,43.2l1.6,2.4q10.4-7.2 12.9-6.9q1.9,.1 4.1,.2l.2-3q-2.3-.1 -4.1-.2q-3.8,0 -14.7,7.5  M1250.3,59.7l1.4-2.6q-17.7-9.2 -12.7-11.5l-1.6-2.4q-6.3,5.4 12.9,16.5  M1253.8,62.2l1.8-2.4q-1.7-1.2 -3.8-2.6l-.1-.1l-1.4,2.6q1.9,1.3 3.5,2.5" fill="#ffffff"></path><path d="M1278.5,43.9l-2.6-1.6q-1.9,3.4 -1.6,9.8l3-.2q-.5-5.6 1.2-8  M1294,46l1.4-2.6q-14.9-7.3 -19.5-1.1l2.6,1.6q2.3-4.9 15.5,2.1  M1291.4,57.3l2.2,2q9.3-11.3 1.8-15.9l-1.4,2.6q6,2.3 -2.6,11.3  M1280.1,56.9l-2,2q8.3,7.8 15.5,.4l-2.2-2q-5,6.4 -11.3-.4  M1280,52.5l-3,0q0,2.7 .7,5.7l.4,.7l2-2q-.2-2 -.1-4.4" fill="#ffffff"></path><path d="M1305.7,40.5l1.4,2.6q3.4-1.9 14.9-1.2l.2-3q-12.1-.7 -16.5,1.6  M1315.3,55l2-2.2q-12.1-9.8 -10.2-9.7l-1.4-2.6q-3.4,3 9.6,14.5  M1317.2,68l.2,3q17.3-2.2 -.1-18.2l-2,2.2q16.6,13 1.9,13  M1307.2,63.7l-3,.4q1.6,7.4 13.2,6.9l-.2-3q-9.8,1 -10-4.3" fill="#ffffff"></path><path d="M1335.4,39.9l3,2q3.7-6 11.9-13.4l-2-2.2q-8.6,7.4 -12.9,13.6  M1349.3,68l1.2-2.6q-22.3-9.4 -12.1-23.5l-3-2q-10.3,17.2 13.9,28.1" fill="#ffffff"></path><path d="M1362.5,46.9l2.8,1q.7-2.5 5.1-3.2l-.6-2.8q-5.6,1.1 -7.3,5  M1369.9,62.2l2.4-1.8q-8-10.7 -7-12.5l-2.8-1q-1,3.8 7.4,15.3  M1376.9,51.3l-3-.2q.4,13.9 -1.6,9.3l-2.4,1.8q5.6,5.5 7-10.9  M1374.5,60.5l3-.2q-2-12.4 -3.6-9.2l3,.2q-1.5-.5 -2.4,9.2  M1394.5,63.9l-.8-2.8q-16.7,4.9 -16.2-.8l-3,.2q1.2,8.2 20,3.4  M1401.5,46.3l-3,0q.2,13.8 -4.8,14.8l.8,2.8q6.8-2.3 7-17.6" fill="#ffffff"></path><path d="M1420.6,66.4l3-.4q-1.4-13 -2.2-29q.1-2.4 .3-5.5l-3-.2q-.1,3.2 -.3,5.7q.9,16.2 2.2,29.4" fill="#ffffff"></path><path d="M1426.6,54.2l.2-3q-3.1-.2 -14.5-1.2l-.2,3q11.4,1 14.5,1.2" fill="#ffffff"></path><path d="M1443,29.8l-.8-2.8q-3.5,1 -4.3,1.3l.8,2.8q.9-.3 4.3-1.3  M1445.5,58.9l3.6,0q-.4-32.9 -6.9-31.9l.8,2.8q2.9-1.8 2.5,29.1  M1437.7,68.6l.4,3q10.4-1.9 11-12.7l-3.6,0q.6,8.7 -7.8,9.7" fill="#ffffff"></path><path d="M-99.4,115.5l-1.8,2.4q4.2,3.2 5.2,4l1.8-2.4q-1-.8 -5.2-4  M-109.8,121.1l2.8,1q2.3-7.8 5.8-4.2l1.8-2.4q-6.3-4 -10.4,5.6  M-91.2,143.5l1.8-2.2q-10.7-8.7 -17.7-20.5l.1,1.3l-2.8-1q7.5,13.4 18.6,22.4  M-106.1,145.6l0,3q23.6-.3 16.7-7.3l-1.8,2.2q6,3.4 -14.9,2.1" fill="#ffffff"></path><path d="M-82,146.6l2.6-1.4q-1-1.7 -.9-8l-3,0q.1,6.9 1.3,9.4" fill="#ffffff"></path><path d="M-83.5,121.2l.8-2.8q-.9-.2 -1.9-.5l-.8,2.8q1.1,.3 1.9,.5" fill="#ffffff"></path><path d="M-60.8,145.9l2.6-1.4q-.7-1.2 -1.4-17.9l-3,.2q.7,16.9 1.8,19.1  M-44.4,130.9l-2.4-1.6q-6.6,9.9 -13.5,14.7l2.1,.5l-2.6,1.4q9.6-4.7 16.4-15  M-40.4,138.9l2.8-.8q-4.9-13.5 -9.2-8.8l2.4,1.6q1.1-3.5 4,8  M-36.8,143.2l2-2.2q-2.7-2.5 -2.8-2.9l-2.8,.8q.5,1.4 3.6,4.3" fill="#ffffff"></path><path d="M-16.9,145.7l2.6-1.2q-6-12.6 -5.4-15.4q1.3-9.3 7.3-25.2l-2.8-1q-6,16.1 -7.5,25.8q-.4,4 5.8,17" fill="#ffffff"></path><path d="M14.3,121l1.4,2.6q5.4-2.9 6.8-3.6l-1.4-2.6q-1.3,.7 -6.8,3.6  M18,139.3L20.2,137.5Q10,125.8 15.7,123.6L15.7,123.6L14.3,121Q7.1,125.6 18,139.3  M33.1,137.1l-2.8-1.6q-4.5,9.6 -10.1,2l-2.2,1.8q8.1,8.9 15.1-2.2  M34.2,126.2l-3-.2q-.5,9.1 -.9,9.5l2.8,1.6q.6-1.5 1.1-10.9  M32.1,138.4l3-.2q-.5-7.9 -.9-12.3l-3,.1l3,.2q-2.5,4.3 -2.1,12.2  M48.3,134.7l-2.2-2q-11.7,13.3 -11,5.5l-3,.2q1.6,10.4 16.2-3.7  M56.8,127.9l-1.8-2.4q-4,3.1 -8.8,7.1l-.1,.1l2.2,2q4.5-3.8 8.5-6.8" fill="#ffffff"></path><path d="M76.4,143.4l2.6-1.2q-3.8-8.2 -7.8-18.5q-1.7-6.9 1.1-22.8l-2.8-.6q-3,16.5 -1.1,24.2q4.1,10.6 8,18.9" fill="#ffffff"></path><path d="M74.3,131.6l-.2-3q-7.6,.4 -9.5,.5l.2,3q1.9-.1 9.5-.5" fill="#ffffff"></path><path d="M125.7,122.3l0-3q-2.1,0 -20.7,.4l0,3q18.6-.4 20.7-.4" fill="#ffffff"></path><path d="M152.9,103.3l1.6,2.4q2.3-1.5 2.9-1.9l-1.6-2.4q-.6,.3 -2.9,1.9  M156.4,117.2l2.6-1.4q-5.9-9.9 -4.5-10.1l-1.6-2.4q-2.8,2.6 3.5,13.9  M177.7,117.4l-.8-2.8q-16.5,4.6 -17.9,1.2l-2.6,1.4q3.4,4.9 21.3,.2  M182,113.2l-2.4-1.8q-2.3,3.2 -2.7,3.2l.8,2.8q1.5-.6 4.3-4.2" fill="#ffffff"></path><path d="M172.9,130.8l2.8-1q-2-5.9 -3.7-13.2q-.2-6.6 3-18.6l-2.8-.8q-3.4,12.4 -3.1,19.8q1.8,7.7 3.8,13.8" fill="#ffffff"></path><path d="M186,135.8l.4-3q-3.8-.4 -28.8-1.9l-.2,3q25,1.4 28.6,1.9" fill="#ffffff"></path><path d="M201.9,132.4l3,0q0-22 .4-33l-3-.2q-.4,11.1 -.4,33.2" fill="#ffffff"></path><path d="M211.4,124.2l.2-3q-3.1-.2 -10.2-.6l-.2,3q7.1,.4 10.2,.6" fill="#ffffff"></path><path d="M229.1,140.8l2.2,1.8q4.7-5.6 5.1-8.3q1.1-11.1 -7.5-34.3l-2.8,1q8.5,22.7 7.3,32.9q-.1,1.8 -4.3,6.9" fill="#ffffff"></path><path d="M303.5,110.2l-2.2-2q-.9,1 -1.9,2.2l2.2,2q1.1-1.2 1.9-2.2  M317.8,116l.2-3q-3.4-.2 -3.7-.5q-10.2-6.6 -13-4.3l2.2,2q.3-1.3 9.2,4.7q1.2,.7 5.1,1.1" fill="#ffffff"></path><path d="M322.5,121.8l.2-3q-7.7-.7 -19.6-.9l0,3q11.7,.2 19.4,.9" fill="#ffffff"></path><path d="M414.4,100.5l-.8,2.8q1.6,.1 1.3,4.2l3,0q-.1-5.7 -3.5-7  M404.8,109.1l2.4,1.8q6-8.2 6.4-7.6l.8-2.8q-2.8-.3 -9.6,8.6  M417,134.5l2.6,1.4q4.5-8.9 -1.2-14q-7.2-5.6 -11.1-12.6l-.1,1.6l-2.4-1.8q4.2,9.2 11.8,15.2q4.6,3.1 .4,10.2  M411.6,135.1l-1.2,2.6q6.3,2.5 9.2-1.8l-2.6-1.4q-1,2.9 -5.4,.6" fill="#ffffff"></path><path d="M440.8,138.3l3,0q0-1.7 -3-19.8l-3,.4q3,18.1 3,19.4" fill="#ffffff"></path><path d="M440.8,109.3l-2.6-1.2q-.7,1.3 -.8,1.7l2.6,1.2q.2-.3 .8-1.7" fill="#ffffff"></path><path d="M459.2,138.6l3-.4q-.8-6.4 -1-8q-1.4-8.5 -6-15.2l-2.4,1.6q4.2,6.1 5.4,14q.3,1.6 1,8  M467.7,123.2l-2.8-.8q-2.9,10.1 -5.5,15.3l2.8,.5l-3,.4q5.6-5.1 8.5-15.4  M482.4,136.1l2.2-1.8q-16.5-19.5 -19.7-11.9l2.8,.8q.4-5.4 14.7,12.9" fill="#ffffff"></path><path d="M514.7,100l-2.8,1.2q.4,.9 .5,1.2l2.8-1.2q-.1-.2 -.5-1.2  M507.5,124.6l3,.2q1.4-15.3 4.2-23.7l-2.8,.1l2.8-1.2q-5.7,8.9 -7.2,24.6  M522.4,140.8l.2-3q-13.7-.6 -12.1-13l-3-.2q-.9,14.6 14.9,16.2" fill="#ffffff"></path><path d="M531.5,118.2l.4,3q2.9-.4 3.7-.4l-.4-3q-.7,.1 -3.7,.4  M532.1,135l2.4-1.6q-8.5-12.5 -2.6-12.2l-.4-3q-8.3,1.8 .6,16.8  M550.4,127.9l-2.2-1.8q-10.7,13.4 -13.7,7.3l-2.4,1.6q5.6,7.4 18.3-7.1  M552.3,120.2l-3-.4q-.3,3.2 -1.4,6.8l.3-.5l2.2,1.8q1.5-4.3 1.9-7.7  M546.9,127.2l2.8,.8q1.5-4.9 2.5-7.5l-2.9-.7l3,.4q-3.9,2 -5.4,7  M559.3,137.3l.8-2.8q-12-3 -10.4-6.5l-2.8-.8q-1.2,6.1 12.4,10.1  M570.1,124.8l-2.6-1.4q-3.4,6.7 -8.8,11.4l1.4-.3l-.8,2.8q7.1-5.4 10.8-12.5" fill="#ffffff"></path><path d="M585,138.6l3-.2q-1.1-18.7 -2-41.7l-3,.2q.9,22.9 2,41.7" fill="#ffffff"></path><path d="M587.4,125.2l-2.2-2q-.9,1 -2,2.2l2.2,2q1.1-1.2 2-2.2" fill="#ffffff"></path><path d="M609.8,113l2.8-1q-2.6-6.7 -2.7-15.7l-3,0q.3,9.6 2.9,16.7  M614.8,138.9l.2,3q7.9-1.6 -2.4-29.9l-2.8,1q10.3,26.4 5,25.9" fill="#ffffff"></path><path d="M656,115.6q0,1.3 -1.3,1.3q-1.3,0 -1.3-1.3q0-1.3 1.3-1.3q1.3,0 1.3,1.3" fill="#ffffff"></path><path d="M691.3,108.6l-3,.4q.6,3.3 .7,4.1l3-.4q-.2-.9 -.7-4.1  M678.5,117.6l2.6,1.4q7.3-16.6 7.2-10l3-.4q-2.8-9.1 -12.8,9  M692.8,134.5l1.2-2.6q-16.2-7.6 -12.9-12.9l-2.6-1.4q-3.3,8 14.3,16.9  M702.9,136.4l.4-3q-4.4-.5 -9.6-1.6l.3,.1l-1.2,2.6q5.6,1.3 10.1,1.9" fill="#ffffff"></path><path d="M710.6,113.7l-2.4-1.6q-1.6,2.8 .8,8.3l2.6-1.2q-2-4.3 -1-5.5  M721.1,118.6l1.6-2.6q-11.8-6.8 -14.5-3.9l2.4,1.6q.2-1.6 10.5,4.9  M713,128.4l.8,2.8q21-6.8 8.9-15.2l-1.6,2.6q10.8,5.3 -8.1,9.8  M710.1,124.3l-3-.2q.2,8.3 6.7,7.1l-.8-2.8q-3.7,1.7 -2.9-4.1" fill="#ffffff"></path><path d="M729.5,110.6l1,2.8q1.5-.6 7.8,.5l.4-3q-6.7-1.1 -9.2-.3  M742.3,123.8l1.6-2.6q-15.1-8.5 -13.4-7.8l-1-2.8q-3.6,2.6 12.8,13.2  M739.2,138.3l.4,3q26.9-5.2 4.3-20.1l-1.6,2.6q21.3,11.8 -3.1,14.5  M732.8,134.3l-2.8,.8q2.4,6.9 9.6,6.2l-.4-3q-5.2,1.2 -6.4-4" fill="#ffffff"></path><path d="M755.3,98.5l2.4,1.8q2.3-3.4 5.4-2.5l.6-2.8q-4.7-.9 -8.4,3.5  M757.7,138.4l2.6-1.2q-12.3-24.8 -2.6-36.9l-2.4-1.8q-10.2,13.8 2.4,39.9" fill="#ffffff"></path><path d="M778.2,121l.4-3q-5.2-.8 -15.6-.3l.2,3q10-.5 15,.3" fill="#ffffff"></path><path d="M790.5,105.3l2,2.2q4.6-4.4 5.7-5.5l-2-2.2q-1.2,1.1 -5.7,5.5  M801.2,117.9l.4-3q-16.5-1.6 -9.1-7.4l-2-2.2q-8.1,9.1 10.7,12.6  M812.8,112.6l-2-2q-5,5.1 -9.2,4.3l-.4,3q5.6,.6 11.6-5.3" fill="#ffffff"></path><path d="M802.5,132.2l3,0q-.3-11.6 1.3-29.8l-3-.2q-1.6,18.3 -1.3,30" fill="#ffffff"></path><path d="M807.2,136.2l1.4-2.6q-3-1.7 -6.8-3.5q-7.7-2.5 -13.8-.7l.8,2.8q5.3-1.6 11.9,.6q3.6,1.7 6.5,3.4" fill="#ffffff"></path><path d="M829.4,132.9l3,0q-.2-10.9 -.2-24.1q.1-1.9 .2-4.2l-3-.2q-.1,2.4 -.2,4.3q0,13.4 .2,24.2" fill="#ffffff"></path><path d="M836.9,125l.8-2.8q-6.6-2 -8.3-2.5l-.8,2.8q1.6,.5 8.3,2.5" fill="#ffffff"></path><path d="M852.7,139.4l2,2.2q6.2-6.3 -2.1-37.9l-2.8,.8q8.1,30.4 2.9,34.9" fill="#ffffff"></path><path d="M928.2,126.9l3-.4q-.9-6.2 -.4-21.4l-3,0q-.4,15.3 .4,21.8" fill="#ffffff"></path><path d="M934.9,117.4l-.2-3q-10.4,.5 -13,.6l.2,3q2.6-.1 13-.6" fill="#ffffff"></path><path d="M997.5,98.5l-2,2.2q1.6,1.5 3.6,3.3l2-2.2q-2-1.8 -3.6-3.3  M981.7,104.7l1.6,2.6q12.1-7.5 12.2-6.6l2-2.2q-2.6-1.6 -15.8,6.2  M992.8,119.6l2.2-2q-11.4-12 -11.7-10.3l-1.6-2.6q-.8,2 11.1,14.9  M992.9,132.7l0,3q17-1 2.1-18.1l-2.2,2q14.3,14.1 .1,13.1" fill="#ffffff"></path><path d="M1018.3,132.7l-.4,3q2.1-.7 3.4-10l-3-.4q-.9,8.3 0,7.4" fill="#ffffff"></path><path d="M1018.8,107.5l-1.8-2.4q-.5,.4 -1.2,.9l1.8,2.4q.6-.5 1.2-.9" fill="#ffffff"></path><path d="M1044.4,134.4l0-3q-.4,1 3.1-16.3l-2.8-.6q-3.5,18.9 -.3,19.9" fill="#ffffff"></path><path d="M1049.1,134.4l-2.8-1q.8,2.2 2.7-17.8l-3-.2q.3,23 3.1,19  M1070.3,134.1l2.4-1.8q-17.7-22.4 -26.4,1.1l2.8,1q6.3-21.6 21.2-.3" fill="#ffffff"></path><path d="M1100.1,110.3l2.2,2q3.7-4.2 10.6-6.7l-1-2.8q-7.5,2.9 -11.8,7.5  M1096.9,133.9l2.8-.8q-4.3-13.6 2.6-20.8l-2.2-2q-7.6,8.7 -3.2,23.6  M1107.7,139.3l.4-3q-8-.8 -8.4-3.2l-2.8,.8q1.6,4.1 10.8,5.4" fill="#ffffff"></path><path d="M1119.6,124.3l1.6-2.4q-1.6-1.1 -3.6-2.5l-1.6,2.4q1.9,1.4 3.6,2.5" fill="#ffffff"></path><path d="M1123.4,116.8l.4-3q-4-.3 -7.2,3.2l2.2,2q2.2-2.7 4.6-2.2  M1140.7,126l1.6-2.4q-14.7-9.2 -18.5-9.8l-.4,3q3,.3 17.3,9.2" fill="#ffffff"></path><path d="M1146.4,117.2l2.6-1.2q-1.4-3 -1.2-9.7l-3,0q-.2,7.1 1.6,10.9  M1165.2,116.2l-1.4-2.6q-12.9,7.8 -14.8,2.4l-2.6,1.2q4,7.1 18.8-1  M1167.5,109.3l-2.8,1q1.2,2.5 -.9,3.3l1.4,2.6q3.5-2.4 2.3-6.9" fill="#ffffff"></path><path d="M1157.7,132.9l2-2.2q-4.9-4.3 -4.8-5.2q-.8-8.2 .7-16.4l-2.8-.6q-1.7,8.6 -.9,17.2q.4,2.4 5.8,7.2" fill="#ffffff"></path><path d="M1164.9,135.5l.2-3q-3.8-.3 -17.7-.4l0,3q13.9,.1 17.5,.4" fill="#ffffff"></path><path d="M1186.4,130.3l3-.2q-.1-1.6 -.9-23.5l-3,.2q.8,21.9 .9,23.5" fill="#ffffff"></path><path d="M1190.6,124.4l1-2.8q-3.3-1.3 -4.2-1.6l-1,2.8q.8,.3 4.2,1.6" fill="#ffffff"></path><path d="M1212,120.7l2.8-1q-2.7-7.9 -11.7-16.9l-2,2q8.6,8.6 10.9,15.9  M1207.8,135.6l.2,3q11.9-1.8 6.8-18.9l-2.8,1q5.3,14.7 -4.2,14.9" fill="#ffffff"></path><path d="M1235.5,119.9l2.8,1q.2-.6 .5-1.3l-2.8-1q-.2,.7 -.5,1.3" fill="#ffffff"></path><path d="M1282.1,105.4l-.2,3q3.2-.3 2.5,2.9l3,.2q-.1-5.4 -5.3-6.1  M1263.9,124.8l3,.4q1.4-17.9 15-16.8l.2-3q-15.8-.3 -18.2,19.4  M1284.2,134.2l.4-3q-18.8-1.8 -17.7-6l-3-.4q0,6.8 20.3,9.4" fill="#ffffff"></path><path d="M1294,120.7l-2.8-.8q-1,3.7 2.2,10.3l2.6-1.2q-2.8-5.8 -2-8.3  M1310.6,120.8l1-2.8q-17.3-6.4 -20.4,1.9l2.8,.8q1.2-6.3 16.6,.1  M1312,129.2l2.8,.8q2.6-9.2 -3.2-12l-1,2.8q4.1,1 1.4,8.4  M1298.8,129.6l-.4,3q14.6,1.4 16.4-2.6l-2.8-.8q-.1,2 -13.2,.4  M1298.5,127.6l-2.8,.8q1.1,3.5 2.7,4.2l.4-3q.3,.5 -.3-2" fill="#ffffff"></path><path d="M1330.5,109.5l-.2,3q3.1,.1 9.3,2.8l1.2-2.8q-6.6-2.7 -10.3-3  M1320.5,126.9l3.2-1.4q-7.4-14.5 6.6-13l.2-3q-16.9-.3 -10,17.4  M1326.6,133.4l2.6-3.2q-2.9-2.1 -5.8-5.2l.3,.5l-3.2,1.4q3.2,3.9 6.1,6.5  M1319.5,133.4l0,3q13.7-.8 9.7-6.2l-2.6,3.2q3.6,.8 -7.1,0" fill="#ffffff"></path><path d="M1362.5,103l-1.8,2.4q.7,.5 1.6,1.2l1.8-2.4q-.9-.6 -1.6-1.2  M1348.9,123.6l2.8,1q7.7-21.4 9-19.2l1.8-2.4q-4.7-2.3 -13.6,20.6  M1356.4,136l1.8-2.4q-8.3-5.6 -6.5-9l-2.8-1q-1.7,5.6 7.5,12.4" fill="#ffffff"></path><path d="M1383.9,131.4l1.4-2.6q-2.8-1.1 -.4-17.3l-3-.4q-2.3,17.3 2,20.3  M1389.7,119.5l-3-.4q-1.3,10.9 -1.4,9.7l-1.4,2.6q3.5,.8 5.8-11.9  M1389.9,130.3l2.8-.6q-1.5-7.1 -3.1-11l-2.9,.4l3,.4q-1.3,3.9 .2,10.8  M1403.7,131.8l-.8-2.8q-10.2,3.5 -10.2,.7l-2.8,.6q1.8,5 13.8,1.5  M1409.8,116.3l-2.8-.6q-1.3,7.3 -5,14l.9-.7l.8,2.8q4.7-7.8 6.1-15.5  M1411.3,116.6l-.4-3q-3.2,.6 -3.9,2.1l2.8,.6q-.5,.4 1.5,.3" fill="#ffffff"></path><path d="M1416.4,133.6l3,0q-.4-13.2 -.9-29.3l-3,0q.5,16.2 .9,29.3" fill="#ffffff"></path><path d="M1420.2,121.3l-2.6-1.4q-2.4,4.2 -3,5.3l2.6,1.4q.6-1 3-5.3  M1428.8,124.2l1.2-2.6q-10.2-4.3 -12.4-1.7l2.6,1.4q-.1-1.1 8.6,2.9" fill="#ffffff"></path><path d="M1437.5,107.4l1.4-2.6q-2-1.1 -2.5-1.4l-1.4,2.6q.5,.3 2.5,1.4  M1436.6,131.7l2.8,.6q4.9-23.9 -.5-27.5l-1.4,2.6q4,1.7 -.9,24.3  M1434.4,135.6l2.4,1.6q1.3-2 2.5-4.6l.1-.3l-2.8-.6q-1.1,2.1 -2.2,3.9" fill="#ffffff"></path><path d="M415.9,183.8l.2,3q1.7-.5 2.9,3.7l2.8-1q-2.2-5.4 -5.9-5.7  M421.9,209.7l2.2-2q-19.3-21.5 -8-20.9l-.2-3q-14,1.6 6,25.9  M412.6,213.5l.8,2.8q12.9-4.5 10.7-8.6l-2.2,2q1.8,.6 -9.3,3.8" fill="#ffffff"></path><path d="M441.5,216.1l3,0q0-2.5 -.7-10.2l-3,.2q.7,7.7 .7,10" fill="#ffffff"></path><path d="M442.8,185.9q0,1.3 -1.3,1.3q-1.3,0 -1.3-1.3q0-1.3 1.3-1.3q1.3,0 1.3,1.3" fill="#ffffff"></path><path d="M462.6,211.4l3,0q0-2.2 0-4.8l-3,0q0,2.6 0,4.8  M471.9,198.5l-2.8-1q-3.4,8.7 -6.2,13.1l2.7,.8l-3,0q5.7-3.9 9.3-12.9  M485.4,214l2.4-1.8q-8.2-10.5 -16.6-15.5l-2.1,.8l2.8,1q5.7,5.3 13.5,15.5" fill="#ffffff"></path><path d="M516.7,183.6l1.4,2.6q.7-.6 6.2,1.8l1.2-2.6q-6.3-2.8 -8.8-1.8  M514.5,211.7l3-.4q-3.4-23.6 .6-25.1l-1.4-2.6q-5.5,3.3 -2.2,28.1  M518.8,218.9l2.4-1.8q-2-2.7 -3.9-6.3l.2,.5l-3,.4q2.2,4.3 4.3,7.2" fill="#ffffff"></path><path d="M587.3,208.4l3-.2q-.1-.9 -.1-2.1q-1.2-15.2 1-34.3l-3-.4q-2.2,19.5 -1,34.9q.1,1.1 .1,2.1" fill="#ffffff"></path><path d="M588.1,200.1l1-2.8q-1.1-.4 -2.4-.9l-1,2.8q1.3,.5 2.4,.9" fill="#ffffff"></path><path d="M614.5,211.2l2.8,.8q1.7-6.2 -5.9-39.8l-2.8,.6q7.5,33.2 5.9,38.4" fill="#ffffff"></path><path d="M644.8,194.5q0,1.3 -1.3,1.3q-1.3,0 -1.3-1.3q0-1.3 1.3-1.3q1.3,0 1.3,1.3" fill="#ffffff"></path><path d="M677.6,196.6l2.6,1.4q2.6-5 9.1-7.7l-1.2-2.8q-7.3,3.3 -10.5,9.1  M686.7,211.8l.8-2.8q-12.1-3.3 -7.3-11l-2.6-1.4q-4.9,10.3 9.1,15.2" fill="#ffffff"></path><path d="M710.6,190.7l-2.6-1.4q-1.4,3.5 3.9,9l2-2.2q-4.5-4.1 -3.3-5.4  M729,188.7l.2-3q-18.1-1.3 -21.2,3.6l2.6,1.4q1.5-3.5 18.4-2  M727.5,202.7l2.8,.6q1.8-8.9 .2-16.4l-1.3-1.2l-.2,3q.1,5.7 -1.5,14  M713.6,204.7l-.2,3q15.2,1.3 16.9-4.4l-2.8-.6q-.2,3.6 -13.9,2  M715.2,204.3l-2.8-.8q-.5,1.5 -.4,2.8l1.4,1.4l.2-3q1.3,.6 1.6-.4" fill="#ffffff"></path><path d="M738.1,189.6l2.4-1.6q-1.3,.3 9.7,4.1l.8-2.8q-13.8-3.2 -12.9,.3  M757,210.1l3-.2q-.7-12.7 -7-15.6q-6.2-2.5 -12.9-6.7l.4,.4l-2.4,1.6q7.3,4.8 13.9,7.5q4.8,1.6 5,13  M744,211.2l-.2,3q15.6,.3 16.2-4.3l-3,.2q.9,1.8 -13,1.1  M743.1,208.6l-2.8,1q1.7,4.1 3.5,4.6l.2-3q.1,.5 -.9-2.6" fill="#ffffff"></path><path d="M759.8,181.4l1.2,2.8q5.3-2.2 6.7-2.7l-1.2-2.8q-1.3,.6 -6.7,2.7  M758.2,212.6l2.6-1.4q-13-22.4 .2-27l-1.2-2.8q-14.8,6.7 -1.6,31.2  M771.4,219.3l1-2.8q-10.8-3.4 -11.6-5.3l-2.6,1.4q1.9,3 13.2,6.7" fill="#ffffff"></path><path d="M786.1,181.6l2.6,1.2q.7-1.4 .8-1.8l-2.6-1.2q-.2,.4 -.8,1.8  M802.5,195.5l0-3q-19.1,.4 -13.8-9.7l-2.6-1.2q-5,13.1 16.4,13.9  M812.9,184.9l-2.6-1.2q-4.1,9.2 -7.8,8.8l0,3q5.6-.3 10.4-10.6" fill="#ffffff"></path><path d="M801.5,214.3l1.8-2.2q-3.3-2.7 -3.2-3.1q-1.5-8.6 4-25.1l-2.8-1q-5.7,17.1 -4.2,26.5q.5,1.8 4.4,4.9" fill="#ffffff"></path><path d="M811.2,215.3l0-3q-6.1,0 -28.2,4.1l.6,2.8q21.9-3.9 27.6-3.9" fill="#ffffff"></path><path d="M828.1,214.4l2.4-1.6q-.7-1.1 -2.3-29.4l-3,.2q2.2,29.8 2.9,30.8" fill="#ffffff"></path><path d="M829,205.1l-1.6-2.4q-1.8,1.1 -4.1,2.6l1.6,2.4q2.2-1.4 4.1-2.6" fill="#ffffff"></path><path d="M852.4,217.4l3,0q-.1-13.2 -6.3-31.8l-2.8,1q6.2,18.1 6.1,30.8" fill="#ffffff"></path><path d="M947.5,203.8l.4-3q-16.2-2.6 -35.7-2.8q-7.3,2.3 -9,2.9l1,2.8q1.7-.6 8.5-2.8q18.7,.2 34.8,2.9" fill="#ffffff"></path><path d="M997.8,182.2l-.6,3q1.7,.1 3.4,3.2l2.6-1.4q-2.5-4.1 -5.4-4.8  M992.2,188.6l2.6,1.2q2.3-5.2 2.4-4.6l.6-3q-2.6,.1 -5.6,6.4  M999.5,196.1l1.4-2.6q-6.9-3.5 -6.1-3.7l-2.6-1.2q-.7,3 7.3,7.5  M1002.2,206.5l3,.2q.4-10.3 -4.3-13.2l-1.4,2.6q3.4,1.5 2.7,10.4  M995.8,206.8l-.6,2.8q9,1.7 10-2.9l-3-.2q.6,2.3 -6.4,.3" fill="#ffffff"></path><path d="M1023,211.1l2.6,1.4q.1-.2 .7-15.1l-3,0q-.2,13.5 -.3,13.7" fill="#ffffff"></path><path d="M1023.4,179.8l-2.8,1q.4,1 .8,2.3l2.8-1q-.4-1.2 -.8-2.3" fill="#ffffff"></path><path d="M1038.1,206.6l3,0q0-2.3 -2.9-13.8l-2.8,.8q2.7,11.1 2.7,13  M1050.6,194.7l-2.4-1.6q-5.3,8.5 -9.6,12.4l2.5,1.1l-3,0q7.1-3.2 12.5-11.9  M1067.3,209.1l2.6-1.4q-13.8-25.4 -21.7-14.6l2.4,1.6q4.9-9.5 16.7,14.4" fill="#ffffff"></path><path d="M1082,194.5l2.6,1.4q7.2-14.1 12-15.1q2.4-.5 2.9-.7l-.6-2.8q-.6,.1 -2.9,.7q-6.3,1.7 -14,16.5  M1096.3,214.7l1-2.8q-18.1-6.8 -12.7-16l-2.6-1.4q-5.5,11.9 14.3,20.2" fill="#ffffff"></path><path d="M1144.3,183.4l-.8-2.8q-3,.9 -3.7,1.1l.8,2.8q.8-.2 3.7-1.1  M1145.4,193.1l3,0q-.4-12.9 -4.9-12.5l.8,2.8q1.5-1.3 1.1,9.7" fill="#ffffff"></path><path d="M1130.6,186.8l2.6,1.4q2.1-3.6 2.7-4.6l-2.6-1.4q-.5,.9 -2.7,4.6  M1159,191.6l-.2-3q-28.9,3 -25.6-.4l-2.6-1.4q-2.7,6.9 28.4,4.8  M1166.9,189.7l-.8-2.8q-5.9,1.6 -7.3,1.7l.2,3q1.8-.2 7.9-1.9" fill="#ffffff"></path><path d="M1148.5,200.7l2.8-.6q-.1-.9 -1.8-12.2l-3,.4q1.7,11.3 2,12.4" fill="#ffffff"></path><path d="M1162.3,207.2l-.2-3q-23.2,.9 -26.3,3.5q-1.5,1.4 -1.8,1.7l2,2.2q.4-.4 1.8-1.7q1.8-2 24.5-2.7" fill="#ffffff"></path><path d="M1189.4,207.4l3,0q.2-9.8 -.9-26.7l-3,.2q1.2,16.7 .9,26.5" fill="#ffffff"></path><path d="M1185.6,197l.4-3q-2-.2 -4.4-.5l-.4,3q2.5,.2 4.4,.5" fill="#ffffff"></path><path d="M1218.7,200l2.8-1q-2.2-6.3 -11.4-18.1l-2.4,1.8q9,11.4 11,17.3  M1217.6,213.3l2.4,1.6q4.5-6.8 1.5-15.9l-2.8,1q2.8,7.8 -1.1,13.3" fill="#ffffff"></path><path d="M1229.2,193l.2-3q-1.1,0 -2.4-.1l-.2,3q1.4,0 2.4,.1" fill="#ffffff"></path><path d="M1269.6,193.2l2,2q2.3-2.4 15-5.8l-.8-2.8q-13.1,3.6 -16.2,6.6  M1276.6,210.6l1.8-2.4q-12.1-8.5 -6.8-13l-2-2q-6.2,7 7,17.4  M1283.3,211.8l.2-3q-4.7-.1 -5.1-.6l-1.8,2.4q1.5,.9 6.7,1.2" fill="#ffffff"></path><path d="M1296.1,192.7l-2.2-2q-1.8,2.4 .1,8.3l2.8-1q-1.7-4.7 -.7-5.3  M1311.6,195.2l1.4-2.6q-13.7-7.1 -19.1-1.9l2.2,2q3.3-4.2 15.5,2.5  M1309.7,209.1l2.4,1.6q8.2-13.5 .9-18.1l-1.4,2.6q5.8,2.4 -1.9,13.9  M1298.8,209.5l-1,2.8q10.5,3.7 14.3-1.6l-2.4-1.6q-2.1,4 -10.9,.4  M1300.4,207.2l-2.8-1q-.8,2.4 -.8,4.8l1,1.3l1-2.8q.9-.4 1.6-2.3" fill="#ffffff"></path><path d="M1320.6,188.1l1.8,2.2q.9-1 3.6,.3l1.2-2.8q-4.1-1.5 -6.6,.3  M1334.2,206.4l2.2-2q-14-15.4 -14-14.1l-1.8-2.2q-.9,2.1 13.6,18.3  M1335.2,214l1.8,2.4q5.3-4.8 -.6-12l-2.2,2q5.2,5.1 1,7.6  M1323.5,216l.2,3q10.8-.8 13.3-2.6l-1.8-2.4q-1.5,1.3 -11.7,2" fill="#ffffff"></path><path d="M1376,178.7l1.6-2.4q-1.2-.8 -2.7-1.7l-1.6,2.4q1.5,1 2.7,1.7  M1366.2,211.3l2.8-1.2q-6.6-15.5 -.5-20.2q6.5-5.6 9.6-11.7l-.5-1.9l-1.6,2.4q-3.3,3.7 -9.5,9q-7.1,6.5 -.3,23.6  M1368.9,214.3l2-2.2q-1.1-1 -2.2-2.3l.3,.3l-2.8,1.2q1.5,1.8 2.7,3" fill="#ffffff"></path><path d="M1389.7,206l3,.2q.3-9 3.7-14.8l-2.6-1.4q-3.6,6.4 -4.1,16  M1405.2,210.9l-1.6-2.4q-12.3,9.6 -10.9-2.3l-3-.2q.3,14.7 15.5,4.9  M1411.4,197l-2.8-.8q-1.9,6.2 -5.5,12.8l.5-.5l1.6,2.4q4.2-7.3 6.2-13.9  M1416.6,209.3l2.6-1.2q-4-8.3 -8.1-12.5l-2.5,.6l2.8,.8q1.4,4.5 5.2,12.3  M1428.7,208.1l-1.2-2.8q-8.5,3.8 -8.3,2.8l-2.6,1.2q2,2.7 12.1-1.2" fill="#ffffff"></path><path d="M1435.9,211l2.4,1.6q1.6-2.6 5.7-32.7l-3-.4q-3.9,29.9 -5.1,31.5" fill="#ffffff"></path><path d="M1442.7,198.2l-1.8-2.4q-.9,.7 -2.1,1.5l1.8,2.4q1.1-.8 2.1-1.5" fill="#ffffff"></path><path d="M1463,211.3l2.8,.8q.3-1 -2.3-23.9q-.7-5.6 -.7-8.7l-3,0q0,3.3 .7,9.1q2.8,21.6 2.5,22.7" fill="#ffffff"></path><path d="M442.1,337.9l-.4-3q-10.3,1.4 -16.1,6.3l1.8,2.2q5.2-4.3 14.7-5.5  M451,347.2l3,.2q.5-13.6 -12.3-12.5l.4,3q10.4-2 8.9,9.3  M445.5,365.8l2.8,1q2.9-8.6 5.6-19.1l.1-.3l-3-.2q-2.6,10.2 -5.5,18.6  M462.2,370l-.2-3q-15.3,1.4 -13.7-.2l-2.8-1q-.6,4.9 16.7,4.2" fill="#ffffff"></path><path d="M500.6,337l-2.4-1.6q-7.3,11.2 -16.3,24.9q-3.3,4.9 -3.8,11.4l3,.2q.3-5.7 3.2-10q9-13.7 16.3-24.9  M505.1,365.3l3,0q-.1-1 -.1-2.1q-2.5-17.6 -7.3-27.6l-2.5-.2l2.4,1.6q2.1,9.4 4.4,26.5q.1,1 .1,1.8" fill="#ffffff"></path><path d="M495,354.9l-2.8,.8q.2,.7 .4,1.6l2.8-.8q-.2-.8 -.4-1.6  M513.4,356.2l.4-3q-21.9-3 -21.6,2.5l2.8-.8q-1.6-2.2 18.4,1.3" fill="#ffffff"></path><path d="M545.1,345.5l1,2.8q1.9-1.1 3.2,2.9l2.8-1.2q-2.7-5.4 -7-4.5  M544.4,359.2l2.8-1q-3.9-9.7 -1.1-9.9l-1-2.8q-4.6,2.2 -.7,13.7  M551.5,367.6l2-2q-3.2-3.3 -6.5-7.8l.2,.4l-2.8,1q3.7,5 7.1,8.4  M546.8,368.3l.8,2.8q7.4-2.6 5.9-5.5l-2,2q.9-.4 -4.7,.7  M549.7,368l-2.4-1.6q-2,4 .3,4.7l-.8-2.8q1.2,1 2.9-.3" fill="#ffffff"></path><path d="M573.6,365.5l-3,0q1.5-1.3 1.8-4.6l-2.8,.6q2.5,5.7 4,4" fill="#ffffff"></path><path d="M572.6,339.4l-2.8-.6q-.1,.5 -.2,1.1l2.8,.6q.2-.6 .2-1.1" fill="#ffffff"></path><path d="M596,359.7l-2,2q1.2,1.3 1.6,1.6l2-2q-.3-.4 -1.6-1.6  M601.8,352.7l-2.2-2q-7.5,8.1 -5.6,11l2-2q-1.1-.2 5.8-7  M613.4,363.8l2.2-1.8q-12.1-14.2 -16-11.3l2.2,2q.8-2.1 11.6,11.1  M617.4,367.3l1.8-2.2q-1.7-1.4 -3.7-3.3l.1,.2l-2.2,1.8q2.2,2.1 4,3.5" fill="#ffffff"></path><path d="M627.3,335.3l2.4,1.6q4.4-6.3 11.4-10.3l-1.4-2.6q-7.6,4.4 -12.4,11.3  M632,360.2l2.6-1.4q-8.8-16.8 -4.9-21.9l-2.4-1.6q-4.4,6.9 4.7,24.9  M644.9,367.5l1-2.8q-10.6-4.2 -11.3-5.9l-2.6,1.4q1.6,2.7 12.9,7.3" fill="#ffffff"></path><path d="M654.5,343.5l1.2,2.6q2.2-1 4.9-2.3l-1.2-2.6q-2.7,1.2 -4.9,2.3  M657.5,356.9l2.6-1.4q-5.7-9.6 -4.4-9.4l-1.2-2.6q-3,2.2 3,13.4  M670.6,355.3l-2.4-1.6q-5.2,8.4 -8.1,1.8l-2.6,1.4q5.5,8.2 13.1-1.6  M671.3,346.9l-3,.2q.2,3.3 -.4,7.2l.3-.6l2.4,1.6q.9-4.7 .7-8.4  M668.6,355.7l3-.2q-.2-5.5 -.3-8.5l-3,.1l3-.2q-2.9,3.2 -2.7,8.8  M689.1,356.8l-.8-3q-17.4,5 -16.7,1.7l-3,.2q1.1,5.9 20.5,1.1  M696.4,345.2l-3-.6q-1.3,8.6 -5.1,9.2l.8,3q5.4-1.8 7.3-11.6" fill="#ffffff"></path><path d="M700.3,357.5l3,0q0-1.5 -4.5-30.8l-3,.4q4.5,28.9 4.5,30.4" fill="#ffffff"></path><path d="M718,344.1l0-3q-5.7,0 -21.1,1l.2,3q15.4-1 20.9-1" fill="#ffffff"></path><path d="M740,349.2l2.8-1q-3.2-8.4 -19.6-26.6l-2.2,2q16.2,17.8 19,25.6  M731.4,362.1l0,3q16.6-1.1 11.4-16.9l-2.8,1q5.5,13.1 -8.6,12.9" fill="#ffffff"></path><path d="M761,344.6l-.8,2.8q2,.5 2.4,.6l.8-2.8q-.5-.1 -2.4-.6" fill="#ffffff"></path><path d="M800.1,339.1l.4,3q6.4-.7 11.9,1.7l1.2-2.8q-6.3-2.6 -13.5-1.9  M792.5,357.3l2.8-.6q-3-14.4 5.2-14.6l-.4-3q-10.3,1.7 -7.6,18.2  M819.5,364.7l.2-3q-24.2-1.2 -24.4-5l-2.8,.6q1.6,5.8 27,7.4" fill="#ffffff"></path><path d="M821.3,344.4l-3,.4q.8,4.6 .9,5.7l3-.4q-.2-1.2 -.9-5.7  M840.7,345l.6-3q-23-3.6 -23,2.8l3-.4q-1.5-3.4 19.4,.6  M844.7,357.8l2.8,.6q3-14.2 -6.2-16.4l-.6,3q7.2,.6 4,12.8  M835.4,359.7l-.4,3q10.8,1 12.5-4.3l-2.8-.6q-.3,3.3 -9.3,1.9  M839,353.3l-2.6-1.4q-4.4,9.4 -1.4,10.8l.4-3q-.5,1 3.6-6.4" fill="#ffffff"></path><path d="M860.8,338.3l.2,3q3.9-.2 4.9-.2l-.2-3q-.9,.1 -4.9,.2  M867.6,354l2.2-1.8q-5.6-7.1 -7.5-12.9l-1.3,2l-.2-3q.8,8.3 6.8,15.7  M863,365.9l-.2,3q19.7,.4 7-16.7l-2.2,1.8q12.3,14 -4.6,11.9  M861.1,361.7l-2.8,1q2.3,5.6 4.5,6.2l.2-3q-.2,.4 -1.9-4.2" fill="#ffffff"></path><path d="M872.6,339.1l2.8,2.8q6.9-7.1 15.9-18.9l-2.4-1.8q-9.2,11.4 -16.3,17.9  M885.3,365.6l1.8-2.4q-20.3-14.4 -11.7-21.3l-2.8-2.8q-9.1,10.3 12.7,26.5  M888.2,366.9l1-2.8q-1.9-.7 -2.1-.9l-1.8,2.4q.7,.4 2.9,1.3" fill="#ffffff"></path><path d="M909.2,334.7l2.8-.8q-1-3.4 2.3-11.2l-2.8-1.2q-3.5,8.6 -2.3,13.2  M931.9,337l-.8-2.8q-18.1,5.8 -19.1-.3l-2.8,.8q2.9,8.1 22.7,2.3  M935.8,332.7l-2.4-1.6q-2,3.2 -2.3,3.1l.8,2.8q1.5-.6 3.9-4.3" fill="#ffffff"></path><path d="M922.1,349l2.6-1.2q-1.5-3.4 -3-7.8q-.4-2.5 4.4-14.4l-2.8-1q-4.8,12.3 -4.5,16.1q1.6,4.7 3.3,8.3" fill="#ffffff"></path><path d="M932.1,360.7l.4-3q-4.3-.5 -9.6-1q-8.4,0 -15.4,2.9l1.2,2.8q6.4-2.9 14.1-2.7q5.1,.4 9.3,1" fill="#ffffff"></path><path d="M961,351.3l3,.4q.4-3.7 -3.3-30.2l-3,.4q3.8,26.3 3.3,29.4" fill="#ffffff"></path><path d="M963.5,346.2l0-3q-2.8,0 -10.1,1.7l.6,2.8q7.1-1.5 9.5-1.5" fill="#ffffff"></path><path d="M999.3,362.1l2.8,2.2q10-13.3 .4-23.2q-5.7-5.6 -15.1-21.5l-2.6,1.6q9.6,16.1 15.7,22.1q8.3,7.7 -1.2,18.8  M994.6,365.2l-2,2q3.9,3.3 9.5-2.9l-2.8-2.2q-3.4,5.1 -4.7,3.1" fill="#ffffff"></path><path d="M711.9,404.8l-.2-3q-94,3.4 -208.9,9.1q-24.3,1.9 -45.4,6.2l.6,2.8q20.9-4.1 45-6q114.8-5.8 208.9-9.1" fill="#ffffff"></path><path d="M1007.4,415.8l.2-3q-24.9-2.1 -55.3-4.6q-48.7-3.8 -155.7-8.7l-.2,3q107,4.9 155.7,8.7q30.4,2.5 55.3,4.6" fill="#ffffff"></path><path d="M963,441.5l.2-3q-45.7-1.8 -101.5-4.2q-237.5-11.2 -321.3-5.3q-35.7,2.5 -59.7,7.5l.6,2.8q23.8-4.8 59.3-7.3q83.6-5.9 320.9,5.3q55.9,2.3 101.5,4.2" fill="#ffffff"></path><path d="M379.3,642.1l-2,.6q1.1,3.4 1.4,4.2l2-.6q-.3-.9 -1.4-4.2 M394.1,630.4l-1.4-1.6q-15.5,13.8 -15.4,13.9l2-.6q0-.2 14.8-11.7 M398.5,632.4l2.2-.4q-1.7-7.7 -8-3.2l1.4,1.6q4.1-4.1 4.4,2 M398.2,654l2-.6q-1.9-6.4 -1.8-6.6q1.5-6.6 2.3-14.5l0-.3l-2.2,.4q-.8,7.5 -2.3,13.8q0,.4 2,7.8" fill="#ffffff"></path><path d="M409.8,656.7l0-2.2q-15.8-.2 -27,2.5q-5.5,1.4 -6.9,1.7l.6,2.2q1.3-.4 6.9-1.7q10.8-2.7 26.4-2.5" fill="#ffffff"></path><path d="M380.2,672.3l-2-.8q-.2,.5 -.5,1.2l2,.8q.3-.6 .5-1.2 M397.8,671.9l.2-2.2q-17.7-2.2 -19.8,1.8l2,.8q.7-2.7 17.6-.4 M396,676l2,.8q2.1-6.1 0-7.1l-.2,2.2q.2-.7 -1.8,4.1 M385.6,692.1l1.8,1.2q5.1-7.2 10.5-16.4l.1-.1l-2-.8q-5.3,9 -10.4,16.1 M412.3,693.6l0-2.2q-25.6,1.1 -24.9,1.9l-1.8-1.2q-.2,2.1 26.7,1.5" fill="#ffffff"></path><path d="M462.2,666.6l1.8-1q-6.4-11 -6.6-13.2q-2.8-24.3 4.1-34.8q.9-1.4 2-3.1l-1.8-1.2q-1.1,1.7 -2,3.1q-7.2,11.3 -4.5,36.2q.4,2.9 7,14" fill="#ffffff"></path><path d="M484.8,651.9l-1.2-1.8q-3.5,2.5 -14.7,6l.6,2q11.4-3.5 15.3-6.2 M489,640.4l-1.6,1.4q3.8,3.3 -3.8,8.3l1.2,1.8q8.5-6.4 4.2-11.5 M476,652.3l2,1q7.2-14.7 9.4-11.5l1.6-1.4q-4.5-3.8 -13,11.9 M498.5,656.6l-.6-2q-26.3,9.3 -19.9-1.3l-2-1q-5.9,13.2 22.5,4.3" fill="#ffffff"></path><path d="M516.4,625.6l1.6-1.4q-3.7-4.5 -17-8.9l-.6,2q12.8,4.2 16,8.3" fill="#ffffff"></path><path d="M507.4,633.4l1.8,1.2q4.6-7.6 6-9.2q4.5-4.9 15.5-9.9l-1-2q-11.2,5.2 -16.1,10.5q-1.6,1.7 -6.2,9.4" fill="#ffffff"></path><path d="M603,649.8l-.8-2q-6.8,2.9 -33.1,4.4l.2,2.2q26.5-1.5 33.7-4.6 M603.6,646l-2.2,.4q.3,1.2 .1,2.2l.7-.8l.8,2q.9-2.3 .6-3.8 M590.6,647.3l.8,2q10.4-4.3 10-2.9l2.2-.4q-1.4-3.1 -13,1.3 M587.2,661.7l1.2-1.8q-10-6 3-10.6l-.8-2q-14.3,6.3 -3.4,14.4 M617.4,656.4l-.6-2q-25.8,7.5 -28.4,5.5l-1.2,1.8q3.9,2.4 30.2-5.3" fill="#ffffff"></path><path d="M625,631.7l1.8-1.4q-1.8-2.3 -4.2-5q-5.1-4.5 -15.9-9.6l-1,2q10.6,4.9 15.4,9.1q2.2,2.6 3.9,4.9" fill="#ffffff"></path><path d="M610.7,631.1l1.2,1.8q5.8-4.1 7.1-5.4q6.4-6.1 20-11.4l-.8-2q-14,5.5 -20.6,11.8q-1.2,1.2 -6.9,5.2" fill="#ffffff"></path><path d="M648.8,620.5l-1.4-1.6q-1.2,.9 -1.5,1.2l1.4,1.6q.3-.2 1.5-1.2 M657.7,640.2l2-.6q-6.4-24.5 -12.3-20.7l1.4,1.6q3.3-3.6 8.9,19.7 M652.4,669l2,1q8.7-16.6 5.3-30.4l-2,.6q3.3,12.9 -5.3,28.8 M650.1,670.2l.8,2q2.8-1.2 3.5-2.2l-2-1q0,.2 -2.3,1.2" fill="#ffffff"></path><path d="M213.5,670.9l2-.8q-2.9-7 -6.8-15.4q-3.1-5 -8-8.7l-1.2,1.8q4.5,3.3 7.3,8q3.8,8.2 6.7,15.1" fill="#ffffff"></path><path d="M212.1,667l1.6,1.4q7.6-8.4 17.8-16.9l-1.4-1.6q-10.2,8.5 -18,17.1 M202,686.1l-.2-2.2q-3.8,1.2 11.9-15.5l-1.6-1.4q-16.2,18.6 -10.1,19.1" fill="#ffffff"></path><path d="M246.6,679.8l2-.6q-1.7-6.2 -4.1-9q-8.6-9.8 -7.6-11.8q2.2-6 5.4-13.2q4.4-7.4 8.4-10.4l-1.4-1.8q-4.2,3.4 -8.9,11.2q-3.3,7.4 -5.5,13.4q-1.1,3.6 8,14q2.1,2.3 3.7,8.2" fill="#ffffff"></path><path d="M260,648.3l-.4-2.2q-.5,.1 -1.2,.2l.4,2.2q.6-.1 1.2-.2 M268.5,667.1l2-.8q-9.4-20.4 -10.9-20.2l.4,2.2q1.5-.3 8.5,18.8" fill="#ffffff"></path><path d="M253.3,667.1l1.8,1.2q5.9-8.1 14.4-15.9q9.2-2.8 11.6-3.6l-.6-2q-2.4,.7 -12,3.8q-9.1,8.2 -15.2,16.5" fill="#ffffff"></path><path d="M280,672.4l2.2,.2q.3-5.3 .8-11.6q1.1-8.3 1.7-22.3l-2.2,0q-.6,13.8 -1.7,22.1q-.5,6.4 -.8,11.6" fill="#ffffff"></path><path d="M323.2,646.1l.2-2.2q-7.5-.7 -9.5-.4q-4.6,.9 -9.5,4.2l1.2,1.8q4.5-3.1 8.7-3.8q1.6-.3 8.9,.4" fill="#ffffff"></path><path d="M324.1,653.1l.4-2.2q-4.3-.9 -15.3,.3l.2,2.2q10.8-1.2 14.7-.3" fill="#ffffff"></path><path d="M215.8,768.3l1-2q-7.9-3.9 -15.7-10.2q-.5-1.5 -1.4-3.8l-2,.8q.9,2.3 1.7,4.2q8.3,6.9 16.4,11" fill="#ffffff"></path><path d="M193.9,793.9l1.6,1.6q.5-.6 1.2-1.2q9.9-10.6 12.1-13.4q6.7-8.5 20-20.9l-1.4-1.6q-13.5,12.6 -20.2,21.1q-2.2,2.8 -12.1,13.3q-.6,.6 -1.2,1.1" fill="#ffffff"></path><path d="M230.5,748.7l2,.8q2.5-7 3.6-7.1q5.7-1.6 7.2-2l-.6-2q-1.4,.4 -7.2,2q-2.3,.8 -5,8.3" fill="#ffffff"></path><path d="M257.4,740.1l.6,2q4.3-1.3 5.4-1.7l-.6-2q-1.1,.3 -5.4,1.7 M247.2,766.9l2.2-.2q-2.7-21.3 8.6-24.6l-.6-2q-12.6,4.2 -10.2,26.8 M257.2,773.8l-.4-2.2q-7,1.6 -7.4-4.9l-2.2,.2q1.3,8 10,6.9" fill="#ffffff"></path><path d="M277.3,765.7l.8-2q-3.8-1.3 -8-3.5q-2.5-2.1 -6.4-13.3l-2,.8q4.1,11.4 7.2,14.3q4.6,2.4 8.4,3.7" fill="#ffffff"></path><path d="M264.3,767.7l2.2,.4q.7-4.3 21.6-21.3l-1.4-1.6q-21.2,17.2 -22.4,22.5" fill="#ffffff"></path><path d="M289.8,775.5l1.6,1.4q4.5-5.7 4.7-15q.1-6.7 -2.1-17.3l-2.2,.4q2.2,10.4 2.1,16.9q-.1,8.6 -4.1,13.6" fill="#ffffff"></path><path d="M334.1,745.8l0-2.2q-19.6,.6 -22.4,2.3q-.8,.5 -1.9,1.2l1.2,1.8q1-.6 1.9-1.2q2-1.3 21.2-1.9" fill="#ffffff"></path><path d="M313.3,757.7l1.2,1.8q1.4-1 1.8-1.2l-1.2-1.8q-.4,.2 -1.8,1.2 M326.3,760l-.2-2.2q-7.6,.5 -12-.3l.4,2l-1.2-1.8q5.1,2.8 13,2.3" fill="#ffffff"></path><path d="M401,740.6l0-2.2q-2.7,0 -6,.3q-9,3.3 -17.1,9.3q-1.1,3 -1.9,6l2,.6q.9-3 1.5-5.4q7.5-5.3 16-8.4q2.9-.3 5.5-.2 M394.8,759l2.2-.2q-.6-5.3 .2-11.2q6.7-8.3 3.8-9.2l0,2.2q.8-.9 -5.7,6.2q-1.1,6.7 -.5,12.2" fill="#ffffff"></path><path d="M406.2,764.6l0-2.2q-7,0 -28.9,.7l0,2.2q21.9-.7 28.9-.7" fill="#ffffff"></path><path d="M389.2,772l-2.2,.4q.2,.9 .2,1.1l2.2-.4q-.1-.2 -.2-1.1 M404,771.9l.2-2.2q-17.2-1.5 -17.2,2.7l2.2-.4q-1.1-1.9 14.8-.1 M404.9,777.6l2.2-.2q-.7-7 -2.9-7.7l-.2,2.2q.6-.4 .9,5.7 M390.1,794.2l2,.6q2.1-8.1 3.5-8.5q11.4-5.4 11.5-8.9l-2.2,.2q.5,1.8 -10.3,6.7q-2.2,1.3 -4.5,9.9 M407.2,796.8l-.2-2.2q-15.9,1.1 -14.9,.2l-2-.6q-.1,3.3 17.1,2.6 M409,796.3l-.6-2q-.7,.2 -1.5,.3l.1,0l.2,2.2q1-.2 1.8-.5" fill="#ffffff"></path><path d="M433.9,759.5q0,1 -1,1q-1,0 -1-1q0-1 1-1q1,0 1,1" fill="#ffffff"></path><path d="M482.7,737.8l-1,2q2.1,1.1 2.6,1.4l1-2q-.5-.2 -2.6-1.4 M474.3,750.5l2,.8q4.6-12.7 5.4-11.5l1-2q-3.1-.9 -8.4,12.7 M485.6,774.5l1-1.8q-15.5-8.4 -10.3-21.4l-2-.8q-5.2,14.6 11.3,24 M487.6,775.1l.4-2.2q-.7-.1 -1.6-.3l.2,.1l-1,1.8q1.2,.4 2,.6" fill="#ffffff"></path><path d="M514.7,755.6l-1.2-1.8q-.9,.6 -17.2,5.4q-1.2,.3 -2.7,.8l.6,2q1.5-.4 2.7-.8q17-5 17.8-5.6 M504.9,754.8l.4,2.2q9.4-2.8 8.2-3.2l1.2,1.8q1.8-2.5 -9.8-.8 M498.5,765.6l2.2-.4q-2-7.2 4.6-8.2l-.4-2.2q-8.1,2.1 -6.4,10.8 M520,766.7l-.6-2q-18,5.9 -18.7,.5l-2.2,.4q2.2,7.1 21.5,1.1" fill="#ffffff"></path><path d="M534.5,741.1l1.8-1.2q-4.4-6 -6.1-7.2q-4.9-3.4 -9-4.4l-.4,2.2q3.5,.8 8.2,4q1.3,.9 5.5,6.6" fill="#ffffff"></path><path d="M519.7,743.3l1,1.8q9.3-5.4 11.4-7.2q5.4-4.6 17.3-8.5l-.6-2q-12.3,3.9 -18.1,8.9q-1.9,1.6 -11,7" fill="#ffffff"></path><path d="M610.5,755.3l-1.4-1.6q-2.7,2.3 -21.9,7.3l.6,2q19.5-5 22.7-7.7 M593.1,758l.8,2q18.1-7.4 15.2-6.3l1.4,1.6q3.2-4 -17.4,2.7 M590.6,768.2l1.6-1.4q-5.1-4.8 1.7-6.8l-.8-2q-8.1,3.5 -2.5,10.2 M614.6,768.4l-.2-2.2q-20.6,2.7 -22.2,.6l-1.6,1.4q2.9,2.8 24,.2" fill="#ffffff"></path><path d="M625,739l2-.8q-2.5-6.3 -3.5-7.8q-1.2-1.8 -5.2-4l-1,1.8q3.6,2 4.4,3.4q.8,1.3 3.3,7.4" fill="#ffffff"></path><path d="M609.8,741.1l1,2q6-3.3 13.3-7.4q7-4.1 16.6-6.8l-.6-2q-9.8,2.7 -17.1,7q-7.2,4 -13.2,7.2" fill="#ffffff"></path><path d="M653.4,756.5l2,.8q6.1-17.2 .8-26.3q-1.2-2 -1.5-2.5l-1.8,1.2q.3,.5 1.5,2.5q4.9,8 -1,24.3 M647.5,761l1.2,1.8q5.9-3.6 6.7-5.5l-2-.8q-.3,1.1 -5.9,4.5" fill="#ffffff"></path><path d="M204.4,871.2l.6-1.8q-1.3-.4 -2.6-1.2q-2.5-3.2 -5.9-7.3q-2.9-3.1 -6.4-6.8l-1.4,1.2q3.5,3.8 6.4,6.8q3.4,4.1 6.1,7.5q1.8,1.1 3.2,1.6" fill="#ffffff"></path><path d="M188,894.5l1.6,1q5.3-8.6 28.5-36.9l-1.4-1.2q-23.3,28.4 -28.7,37.1" fill="#ffffff"></path><path d="M223.6,853.4l1.6-.8q-.1-.2 6.2-12.7l-1.6-.8q-6.3,14.1 -6.2,14.3" fill="#ffffff"></path><path d="M229.7,852.5l1.8,.4q.1-.5 .4-1.2q2.6-3.1 10.9-11.9l-1.4-1.2q-8.3,8.8 -11.1,12.2q-.5,1 -.6,1.7" fill="#ffffff"></path><path d="M246.1,840l-.8,1.6q3.5,1.9 4.4,2.3l.8-1.6q-.9-.5 -4.4-2.3 M241.3,853.4l1.8,.2q1.8-12.9 2.2-12l.8-1.6q-2.6-.6 -4.8,13.4 M254.2,871.8l.4-1.8q-13.8-2.7 -11.5-16.4l-1.8-.2q-2,15 12.9,18.4 M255.8,871.7l-.2-1.8q-1,.1 -1,.1l-.4,1.8q.5,.1 1.6-.1" fill="#ffffff"></path><path d="M272.5,864.6l1.6-1q-2.7-4 -12.2-14.7l-1.4,1.2q9.5,10.7 12,14.5" fill="#ffffff"></path><path d="M256.6,869.9l1.8,.6q1.9-5.9 13.2-14q4.9-3.6 12.3-6.1l-.6-1.8q-7.6,2.7 -12.7,6.3q-11.7,8.5 -14,15" fill="#ffffff"></path><path d="M301.2,865.5l1.8-.2q-1.2-20.7 -6.2-22.8q-3.3-1.2 -4.1-1.5l-.6,1.8q.8,.3 4.1,1.5q3.9,1.1 5,21.2 M298.4,876.4l1.6,1q3.4-5.4 3-12.1l-1.8,.2q.4,6 -2.8,10.9" fill="#ffffff"></path><path d="M332.9,846.3l-1.6,.8q.9,2.1 1.2,2.7l1.6-.8q-.2-.5 -1.2-2.7 M344.9,848.8l.4-1.8q-14.2-2.2 -14,.1l1.6-.8q-.8,.1 12,2.5" fill="#ffffff"></path><path d="M347.7,856.4l0-1.8q-8.5-.4 -14.3-1.8l-.4,1.8q6,1.4 14.7,1.8" fill="#ffffff"></path><path d="M399.7,837.5l-.4-1.8q-13.5,3.1 -15,6.3q-2.5,5.7 -3.1,7.1l1.6,.8q.7-1.4 3.1-7.1q.9-2.4 13.8-5.3 M398.3,847.9l1.8,.4q3-12.8 -.8-12.6l.4,1.8q1.8-1.1 -1.4,10.4 M398.2,856l1.8,0q-.1-3.6 .1-7.8l0,.1l-1.8-.4q-.3,4.5 -.1,8.1" fill="#ffffff"></path><path d="M408.1,861.9l.4-1.8q-4.4-1.1 -9.9-2.1q-4.9-.1 -11.8,1.4l.4,1.8q6.7-1.5 11.2-1.4q5.3,1 9.7,2.1" fill="#ffffff"></path><path d="M410.9,868l1-1.6q-3.4-2.1 -26.1,.1l.2,1.8q22.3-2.2 24.9-.3 M398.3,882.7l1.2,1.4q15.7-14.8 12.4-17.7l-1,1.6q2.5,.9 -12.6,14.7 M413.3,885.6l0-1.8q-14.6-.1 -13.8,.3l-1.2-1.4q-1.1,2.1 15,2.9" fill="#ffffff"></path><path d="M473.2,859.3l1.8,0q.2-14.6 4.7-17.9q3.2-2.5 7.3-5.6l-1.2-1.4q-4,3 -7.3,5.6q-5,4 -5.3,19.3 M484.3,869.8l.2-1.8q-9.9-1.3 -9.5-8.7l-1.8,0q.1,8.6 11.1,10.5" fill="#ffffff"></path><path d="M514.3,852.4l-.6-1.8q-7.1,2.5 -15.5,7.3l1,1.6q8.2-4.7 15.1-7.1 M504.4,849.1l-.2,1.8q10.8,.2 9.5-.3l.6,1.8q2.4-1.8 -9.9-3.3 M498.6,856.3l1.6,.8q3.1-6.5 4-6.2l.2-1.8q-2.4,.1 -5.8,7.2 M507.8,866.3l.4-1.8q-10.6-2.7 -8-7.4l-1.6-.8q-2.6,6.4 9.2,10 M517.1,865.7l-.2-1.8q-7.2,1.1 -8.7,.6l-.4,1.8q1.9,.5 9.3-.6" fill="#ffffff"></path><path d="M534,838.1l1.2-1.4q-2.8-2.7 -13-11.8l-1.2,1.4q10.2,9.1 13,11.8" fill="#ffffff"></path><path d="M519.7,839l1.4,1.2q2.2-2.8 19.7-15.2l-1-1.6q-17.7,12.6 -20.1,15.6" fill="#ffffff"></path><path d="M582.4,851.1l0-1.8q-6-.2 -25.3,2.7l.2,1.8q19.2-2.9 25.1-2.7" fill="#ffffff"></path><path d="M611.5,849.5l-1.2-1.4q-2.5,2.1 -19.2,6.2l.4,1.8q17-4.1 20-6.6 M601.6,847.2l.2,1.8q11.1-2 8.5-.9l1.2,1.4q3-3.5 -9.9-2.3 M594.5,860.5l1.6-1q-6.8-9.2 5.7-10.5l-.2-1.8q-14,2.3 -7.1,13.3 M611.7,864.2l-.2-1.8q-13,1 -15.4-2.9l-1.6,1q3.4,4.7 17.2,3.7" fill="#ffffff"></path><path d="M628.4,834.8l1.6-1q-4-6 -5.5-7.2q-3.8-2.8 -6.7-3.6l-.4,1.8q2.5,.6 5.9,3.2q1.3,.9 5.1,6.8" fill="#ffffff"></path><path d="M616.1,835.6l1.4,1.2q3.1-3.2 7.2-6.9q6-4.4 18.5-8.1l-.6-1.8q-12.7,3.9 -19,8.5q-4.2,3.8 -7.5,7.1" fill="#ffffff"></path><path d="M649.4,867.6l1,1.6q10.6-6.8 7-27.3q-1.1-5.2 -1-18.2l-1.8,0q-.3,13.2 .6,18.6q3.9,19.4 -5.8,25.3" fill="#ffffff"></path><path d="M538.2,662l1.8-.6q-3.1-10.8 -2-12.9q1.3-2.6 5.7-6.1l-1.2-1.4q-4.6,3.7 -6.1,6.7q-1.4,2.9 1.8,14.3" fill="#ffffff"></path><path d="M546,657.7l.6-1.8q-5.1-1.8 -11.3-3l-.4,1.8q6.2,1.2 11.1,3" fill="#ffffff"></path><path d="M569.9,761l0-1.8q-4,0 -18.9-.9l-.2,1.8q15.1,.9 19.1,.9" fill="#ffffff"></path><path d="M569.3,858l1.8-.2q-1-8.6 .8-17.6q.3,.1 1.1-.6l-1-1.4q-.9,.6 -1.5,1.1q-2.2,9.8 -1.2,18.7" fill="#ffffff"></path><path d="M586.9,616.7q0,.8 -.8,.8q-.8,0 -.8-.8q0-.8 .8-.8q.8,0 .8,.8" fill="#ffffff"></path><path d="M605.9,617.2l.2-1.8q-8.3-.6 -21.3,.1l0,1.8q13-.7 21.1-.1" fill="#ffffff"></path><path d="M607.1,727.8l.2-1.8q-5.6-.5 -12.5,.6l.4,1.8q6.5-1.1 11.9-.6" fill="#ffffff"></path><path d="M610.4,827.3l.2-1.8q-3.3-.2 -9.1,.9l.4,1.8q5.6-1.1 8.5-.9" fill="#ffffff"></path></svg>