<svg viewBox="-269.15 36.5 2298.2 1239.85" width="2298.2" height="1239.85" version="1.1" baseProfile="full" xmlns="http://www.w3.org/2000/svg" class="js-draw--autoresize"><style id="js-draw-style-sheet">path{stroke-linecap:round;stroke-linejoin:round;}text{white-space:pre;}</style><g class="js-draw-image-background js-draw-image-background-grid js-draw-image-background-grid-25"><path d="M2029.05,1276.35l0-1239.85l-2298.2,0l0,1239.85l2298.2,0" fill="#000000"></path><path d="M-269.5,50l2298.9,0m-2298.9,25l2298.9,0m-2298.9,25l2298.9,0m-2298.9,25l2298.9,0m-2298.9,25l2298.9,0m-2298.9,25l2298.9,0m-2298.9,25l2298.9,0m-2298.9,25l2298.9,0m-2298.9,25l2298.9,0m-2298.9,25l2298.9,0m-2298.9,25l2298.9,0m-2298.9,25l2298.9,0m-2298.9,25l2298.9,0m-2298.9,25l2298.9,0m-2298.9,25l2298.9,0m-2298.9,25l2298.9,0m-2298.9,25l2298.9,0m-2298.9,25l2298.9,0m-2298.9,25l2298.9,0m-2298.9,25l2298.9,0m-2298.9,25l2298.9,0m-2298.9,25l2298.9,0m-2298.9,25l2298.9,0m-2298.9,25l2298.9,0m-2298.9,25l2298.9,0m-2298.9,25l2298.9,0m-2298.9,25l2298.9,0m-2298.9,25l2298.9,0m-2298.9,25l2298.9,0m-2298.9,25l2298.9,0m-2298.9,25l2298.9,0m-2298.9,25l2298.9,0m-2298.9,25l2298.9,0m-2298.9,25l2298.9,0m-2298.9,25l2298.9,0m-2298.9,25l2298.9,0m-2298.9,25l2298.9,0m-2298.9,25l2298.9,0m-2298.9,25l2298.9,0m-2298.9,25l2298.9,0m-2298.9,25l2298.9,0m-2298.9,25l2298.9,0m-2298.9,25l2298.9,0m-2298.9,25l2298.9,0m-2298.9,25l2298.9,0m-2298.9,25l2298.9,0m-2298.9,25l2298.9,0m-2298.9,25l2298.9,0m-2298.9,25l2298.9,0m-2298.9,25l2298.9,0m-2279.4-1238.85l0,1240.55m25-1240.55l0,1240.55m25-1240.55l0,1240.55m25-1240.55l0,1240.55m25-1240.55l0,1240.55m25-1240.55l0,1240.55m25-1240.55l0,1240.55m25-1240.55l0,1240.55m25-1240.55l0,1240.55m25-1240.55l0,1240.55m25-1240.55l0,1240.55m25-1240.55l0,1240.55m25-1240.55l0,1240.55m25-1240.55l0,1240.55m25-1240.55l0,1240.55m25-1240.55l0,1240.55m25-1240.55l0,1240.55m25-1240.55l0,1240.55m25-1240.55l0,1240.55m25-1240.55l0,1240.55m25-1240.55l0,1240.55m25-1240.55l0,1240.55m25-1240.55l0,1240.55m25-1240.55l0,1240.55m25-1240.55l0,1240.55m25-1240.55l0,1240.55m25-1240.55l0,1240.55m25-1240.55l0,1240.55m25-1240.55l0,1240.55m25-1240.55l0,1240.55m25-1240.55l0,1240.55m25-1240.55l0,1240.55m25-1240.55l0,1240.55m25-1240.55l0,1240.55m25-1240.55l0,1240.55m25-1240.55l0,1240.55m25-1240.55l0,1240.55m25-1240.55l0,1240.55m25-1240.55l0,1240.55m25-1240.55l0,1240.55m25-1240.55l0,1240.55m25-1240.55l0,1240.55m25-1240.55l0,1240.55m25-1240.55l0,1240.55m25-1240.55l0,1240.55m25-1240.55l0,1240.55m25-1240.55l0,1240.55m25-1240.55l0,1240.55m25-1240.55l0,1240.55m25-1240.55l0,1240.55m25-1240.55l0,1240.55m25-1240.55l0,1240.55m25-1240.55l0,1240.55m25-1240.55l0,1240.55m25-1240.55l0,1240.55m25-1240.55l0,1240.55m25-1240.55l0,1240.55m25-1240.55l0,1240.55m25-1240.55l0,1240.55m25-1240.55l0,1240.55m25-1240.55l0,1240.55m25-1240.55l0,1240.55m25-1240.55l0,1240.55m25-1240.55l0,1240.55m25-1240.55l0,1240.55m25-1240.55l0,1240.55m25-1240.55l0,1240.55m25-1240.55l0,1240.55m25-1240.55l0,1240.55m25-1240.55l0,1240.55m25-1240.55l0,1240.55m25-1240.55l0,1240.55m25-1240.55l0,1240.55m25-1240.55l0,1240.55m25-1240.55l0,1240.55m25-1240.55l0,1240.55m25-1240.55l0,1240.55m25-1240.55l0,1240.55m25-1240.55l0,1240.55m25-1240.55l0,1240.55m25-1240.55l0,1240.55m25-1240.55l0,1240.55m25-1240.55l0,1240.55m25-1240.55l0,1240.55m25-1240.55l0,1240.55m25-1240.55l0,1240.55m25-1240.55l0,1240.55m25-1240.55l0,1240.55m25-1240.55l0,1240.55m25-1240.55l0,1240.55m25-1240.55l0,1240.55m25-1240.55l0,1240.55" fill="none" stroke="#ffffff33" stroke-width=".7"></path></g><path d="M-256,228q1.3,26.4 7,35" fill="none" stroke="#ffffff" stroke-width="2.4"></path><path d="M-252,237q-2-9 1-13q5.9-7.9 15,8q7.4,13 -15,13" fill="none" stroke="#ffffff" stroke-width="2.4"></path><path d="M-226,224q-.6,.2 -3,1q-.4,.1 12,31q-.8,1.2 -2,2q-3.5,2.4 2-14q1.4-4.1 11,12q.3,.5 2,2" fill="none" stroke="#ffffff" stroke-width="2.4"></path><path d="M-198,243q12.7,10.4 17,19" fill="none" stroke="#ffffff" stroke-width="2.4"></path><path d="M-176,246q-13,24.8 -13,27" fill="none" stroke="#ffffff" stroke-width="2.4"></path><path d="M-149,238q-8,4.6 -8,8q3.2,5.2 7,9q3.4,3.3 -4,7q-7,3.5 -7-6q0-.3 1-1" fill="none" stroke="#ffffff" stroke-width="2.4"></path><path d="M-138,250q1,7 2,7" fill="none" stroke="#ffffff" stroke-width="2.4"></path><path d="M-141,226q.6-.5 1-1" fill="none" stroke="#ffffff" stroke-width="2.4"></path><path d="M-120,222q6.7,44 8,44" fill="none" stroke="#ffffff" stroke-width="2.4"></path><path d="M-100,244q-.6-.2 -3-1q-2.3-.8 -8,9q-5.3,9 17,9" fill="none" stroke="#ffffff" stroke-width="2.4"></path><path d="M-26,223q0,.4 0,2q0,15 6,27q1.3-3.2 2-9q1.5,3.8 3,11q0,1 11-13q4.8-9.1 8-17" fill="none" stroke="#ffffff" stroke-width="3"></path><path d="M13,242Q12.6,241.2 11,238Q8,232 8,248Q8,255 15,248Q16.1,246.9 15,240Q14.8,238.7 19,245Q19.2,245.4 21,246" fill="none" stroke="#ffffff" stroke-width="2.6"></path><path d="M32,244q3,10 2,8q-3.7-7.5 3-12" fill="none" stroke="#ffffff" stroke-width="2.5"></path><path d="M64,238q-2,6 0,11q.2,.4 2-1q1.1-.9 4-6q4-7.2 4,9q0,1.1 2-5q1.3-4 13-4q1.2,0 5,3" fill="none" stroke="#ffffff" stroke-width="2.8"></path><path d="M101,244q10-2 13-2" fill="none" stroke="#ffffff" stroke-width="2.4"></path><path d="M141,229q-2,11 0,15q7,13 11-4q1-7 1-13q0-2 -2,8q-1,5 14,10" fill="none" stroke="#ffffff" stroke-width="3"></path><path d="M171,242q-2.9-11.4 2-9q6,3 6,11q0,1.7 -8-1q-7-2 -7,17q0,1.1 2,5" fill="none" stroke="#ffffff" stroke-width="2.9"></path><path d="M-254.3,336.2q2.8-3.4 6.7-4.7q4-1.3 4,4.7q0,4.8 .7,9.3" fill="none" stroke="#ffffff" stroke-width="1.4"></path><path d="M-238,347.9q.1-.3 .7-1.7" fill="none" stroke="#ffffff" stroke-width="1.4"></path><path d="M-191.7,347.4q5-11 9.8-15.1q3.4-2.9 3.4,1.4q1,6.1 2.2,11.1q1.4-4.7 2.5-13.4q1.1,3.7 2.1,10.5q.2,1.3 3.7,5.5" fill="none" stroke="#ffffff" stroke-width="1.6"></path><path d="M-159.2,341.7q3.1-4.8 1.8-4.9q-2.2-.2 -3.5,8.4q-.5,3.4 9.2,3.7" fill="none" stroke="#ffffff" stroke-width="1.4"></path><path d="M-140.4,338.9q-2-1.5 -3.7-1.2q-4.7,.8 -4.2,8.8q.3,5.1 10.7,1.8" fill="none" stroke="#ffffff" stroke-width="1.4"></path><path d="M-131,328.7q-.7,1 -3.4,4.9q-.7,1 3.5,14.2q1.4-3.4 2.5-9.8q.1-.5 2.3-.2q3.1,4.1 4.7,8.9" fill="none" stroke="#ffffff" stroke-width="1.4"></path><path d="M-103,340.1q-2.7-2.1 -4.2-2.2q-4-.3 -3.3,8.7q.3,3.3 7.3-.4q1.2-.6 3.7-5.4q.9,1.4 1.5,3.9q.6,2.5 5.1,2.5" fill="none" stroke="#ffffff" stroke-width="1.8"></path><path d="M-91.3,338.2q-.8,9.3 -.4,10.5q1.3-2.6 2.3-7.3q.5-2.1 10.1,6.4q.6,.3 1.2,.5" fill="none" stroke="#ffffff" stroke-width="1.4"></path><path d="M-71.3,341.7q.1,6.1 1.3,7.3" fill="none" stroke="#ffffff" stroke-width="1.4"></path><path d="M-72,329.5q-.1-.4 -.4-2" fill="none" stroke="#ffffff" stroke-width="1.4"></path><path d="M-58.7,328.7q-.7,1 -1.3,1.9q-1.7,2.5 2.4,18.2" fill="none" stroke="#ffffff" stroke-width="1.4"></path><path d="M-47.2,336.3q-5.6,1.6 -8.9,4.3q-6.1,5 2.5,8.3q5.1,.6 9.4,.5" fill="none" stroke="#ffffff" stroke-width="1.6"></path><path d="M-180,411q10.2,.6 12.2-.5q.6-.4 .2-3.6q-4.1,1.7 -8.9,6.1q-.9,.8 5.7,2.3q3.2,.7 12.1-1.5" fill="none" stroke="#ffffff" stroke-width="1.5"></path><path d="M-153.2,409.8q.3,17.6 2.5,17" fill="none" stroke="#ffffff" stroke-width="1.4"></path><path d="M-146.3,417.9q-2.7,1.5 -3.8,4.2q-2,5 4.5,4.7q4.1-.2 6.6-1.2" fill="none" stroke="#ffffff" stroke-width="1.4"></path><path d="M-137,422.8q.3,4.4 1,4.6" fill="none" stroke="#ffffff" stroke-width="1.4"></path><path d="M-136.7,414.2q.1,.1 0,.1q-.1,0 -.1-.1q0-.1 .1-.1q.1,0 .1,.1" fill="none" stroke="#ffffff" stroke-width="1.4"></path><path d="M-130.4,418.7q-.8,7.9 -.3,9.3q1.7-1.1 3.5-3.6q3.1-4.3 8,2.7q.1,.2 1,.8" fill="none" stroke="#ffffff" stroke-width="1.4"></path><path d="M-98,412.2q7.9-.1 14.3-.3" fill="none" stroke="#ffffff" stroke-width="1.4"></path><path d="M-98.9,415.5q8.1-.4 11.2-.5" fill="none" stroke="#ffffff" stroke-width="1.4"></path><path d="M-50.2,411.1q-.4,5.8 0,7.6q1-1.8 1.9-5.3q.6-2.4 7.1-.9q.8,.2 2.2,3.6q2.3-.3 4.7-1.8q2.6,1.2 4.7,3.4" fill="none" stroke="#ffffff" stroke-width="1.4"></path><path d="M-17.7,415.5q.2-.3 .3-.5" fill="none" stroke="#ffffff" stroke-width="1.4"></path><path d="M.8,411.4Q5.9,420 7.5,421.2Q11.2,416.1 13.2,408" fill="none" stroke="#ffffff" stroke-width="1.6"></path><path d="M18.4,396.3q8.4-1.5 9.7-1.2q2.3,.5 -3,13.1q-1.1,2.6 8.2,.5" fill="none" stroke="#ffffff" stroke-width="1.4"></path><path d="M84,408.7q.4-.6 1.9-3.2q1-1.7 9.6,.5" fill="none" stroke="#ffffff" stroke-width="1.4"></path><path d="M82.9,414.1q9.8,.2 14.5,.2" fill="none" stroke="#ffffff" stroke-width="1.4"></path><path d="M69.9,334.8q1.8,6.4 2.3,8.2q1.5-1.7 2.9-5q.4-.9 4.9-1q.4,0 1.4,5.4q1.7-1.2 3.6-3.7q.7-1 12.3,1.9" fill="none" stroke="#ffffff" stroke-width="1.4"></path><path d="M108.1,336.4q8.4,.2 9.8,.2" fill="none" stroke="#ffffff" stroke-width="1.4"></path><path d="M109.5,339.6q6-.2 8.5,0" fill="none" stroke="#ffffff" stroke-width="1.4"></path><path d="M181.1,329.8q-.1,3.4 0,16.9" fill="none" stroke="#ffffff" stroke-width="1.4"></path><path d="M214.8,341.2q-4.4-.4 -8.1,1.5q-4.2,2.2 4.6,4q1.5-.4 2.7-1q3.4-1.7 3.4,12.6q0,3.8 -10,1.1" fill="none" stroke="#ffffff" stroke-width="1.4"></path><path d="M193,336.8q-7.1,3.2 -8.5,5.1q-2.3,3.1 9.7,5" fill="none" stroke="#ffffff" stroke-width="1.4"></path><path d="M291.9,334.1q.7,.8 1.3,1.5q2.4,6.4 3.5,12.2q.6,3.2 6-5.9q.6-1 7.8-8.2" fill="none" stroke="#ffffff" stroke-width="1.5"></path><path d="M341,334.5q8.2-.2 12.3,.1" fill="none" stroke="#ffffff" stroke-width="1.4"></path><path d="M340.2,339.4q2.3-.2 4.5-.3" fill="none" stroke="#ffffff" stroke-width="1.4"></path><path d="M389.6,333.9q-2.6,4.6 -.7,5.4q10.2,4.3 2.8,7q-.5,.2 -2.6,.1" fill="none" stroke="#ffffff" stroke-width="1.4"></path><path d="M383,329.9q8.6-2.4 13.7-1.6" fill="none" stroke="#ffffff" stroke-width="1.4"></path><path d="M409.1,337.7q.5,5.7 1.3,7.6q.2,.6 -.6-3.1q-.6-2.6 8.7-2.9q.5,0 2.8,3.6q.3,.4 1.6-1.8q.2-.4 5,3.6" fill="none" stroke="#ffffff" stroke-width="1.4"></path><path d="M450.5,332.6q-7.8,9.6 -7.5,11.2" fill="none" stroke="#ffffff" stroke-width="1.4"></path><path d="M464.8,338.2q-3.2-3.2 -6.1-3.7q-3.9-.7 -3.6,3.3q4.7,4.7 10.3,7.7q5.2,2.8 -5.2,5.6q-1.9,.5 -5.4-.2" fill="none" stroke="#ffffff" stroke-width="1.4"></path><path d="M189.4,399.3q-.2,10.7 .7,21.1" fill="none" stroke="#ffffff" stroke-width="1.4"></path><path d="M198.3,409.9q-.5-.2 -2.5-1.1q-3.2-1.4 -2.1,6.7q.5,4 5.1,1.1q2.1-2.6 3.5-5q.9-1.6 5.5,12.7q2.1,6.7 -11,4.9" fill="none" stroke="#ffffff" stroke-width="1.4"></path><path d="M244.3,412.8q-.4-.3 -.7-.5" fill="none" stroke="#ffffff" stroke-width="1.4"></path><path d="M279.4,407.3q.4,.3 2,1.5q4,2.1 7.4,3.6q2.5,1.1 1.7,8.4q-.2,1.6 -7,1.6" fill="none" stroke="#ffffff" stroke-width="1.4"></path><path d="M276.3,406.2q11.5-1.5 12.8-1.5" fill="none" stroke="#ffffff" stroke-width="1.4"></path><path d="M304.6,409.6q1,9.5 1.5,10.6q1.4-2.4 2.4-6.8q1.5,2.7 3,7.9q2.5-1.2 5.2-4.2q2.7-3 8.9,3.9" fill="none" stroke="#ffffff" stroke-width="1.4"></path><path d="M340.4,406q-5.6,11 -9.6,16.8" fill="none" stroke="#ffffff" stroke-width="1.4"></path><path d="M351.3,413.1q.2-.5 1-2.7q-3.3,.2 -7.9,2.2q-4.6,2 8.6,9.4q6,3.4 -8.3,4.4q-2.6,.1 -4.7,.1" fill="none" stroke="#ffffff" stroke-width="1.4"></path><path d="M272.1,405.8q-4.7,1 -7.8,3.9q-5.5,5.1 4.6,13.1q.8,.6 4.9,1.8" fill="none" stroke="#ffffff" stroke-width="1.4"></path><path d="M361.5,406.5q7.5,0 9.4,1.4q2.6,1.9 2.1,14.9q-.1,1.6 -1.4,2.9" fill="none" stroke="#ffffff" stroke-width="1.4"></path><path d="M373.3,391.7q4.6-.9 4.6,.3q-1.2,4.4 -2.7,7.9q-1.4,3.4 10.3,4.4" fill="none" stroke="#ffffff" stroke-width="1.4"></path><path d="M446.1,406.4q.1,.1 0,.1q-.1,0 -.1-.1q0-.1 .1-.1q.1,0 .1,.1" fill="none" stroke="#ffffff" stroke-width="1.4"></path><path d="M445.3,406.1q9.1-.8 13.2-.8" fill="none" stroke="#ffffff" stroke-width="1.4"></path><path d="M446.6,409.9q11.3-.2 12.4,0" fill="none" stroke="#ffffff" stroke-width="1.4"></path><path d="M543.9,403.9q-.4,14.8 .2,17.3" fill="none" stroke="#ffffff" stroke-width="1.4"></path><path d="M557.2,414.6q-.7-.2 -3.5-1.1q-1.4-.4 -5.9,4.6q-1.2,1.4 7.3,1.6q2,.1 2.2-3q1.4,2.9 2.9,8.3q1,3.6 -3.9,1.3q-.9-1.1 -1.4-2.2" fill="none" stroke="#ffffff" stroke-width="1.4"></path><path d="M573.2,415.5q-.5-.1 -2.4-.7q-1-.3 -3.1,4.1q2.8,1.6 6.9,2.2q2.7,.4 2,13.5q-.2,3.5 -5.1,1.4q-.4-.2 -1.3-1.4" fill="none" stroke="#ffffff" stroke-width="1.4"></path><path d="M590.9,415.3q.1,.1 0,.1q-.1,0 -.1-.1q0-.1 .1-.1q.1,0 .1,.1" fill="none" stroke="#ffffff" stroke-width="1.4"></path><path d="M636.1,404.6q3.2-2.3 6.1-2.3q6.5,0 4.4,5.9q-2.9,3.3 -5.9,5.6q-.6,.5 3.5,2q1.5,.5 7.9-.7" fill="none" stroke="#ffffff" stroke-width="1.4"></path><path d="M663.6,407.1q-4.8,4.9 -3.4,6.3q3.8,2.3 7.1,3.8q3.5,1.6 -1.3,4.3q-.2,.1 -1.4,0" fill="none" stroke="#ffffff" stroke-width="1.4"></path><path d="M662.5,401.4q5.9-1 8.2-.4" fill="none" stroke="#ffffff" stroke-width="1.4"></path><path d="M687.4,410.1q-.6,7.7 -.2,9.9q1.3-1.9 2.6-5.7q1.8-5.2 7.9,2q2,2.3 2.9,.2q.7-1.6 4.8,4.9q2.5,1.2 4.9,1.7" fill="none" stroke="#ffffff" stroke-width="1.4"></path><path d="M721.7,404.6q-8.5,19.1 -8.8,21.9" fill="none" stroke="#ffffff" stroke-width="1.4"></path><path d="M732,415.8q-5.1-.2 -7.8,.8q-3.6,1.4 .8,7.7q1,1.4 7.1,4.5q3.7,1.9 .3,4.7q-3,2.5 -9.5-3.4q-.4-.6 -.7-1.1" fill="none" stroke="#ffffff" stroke-width="1.4"></path><path d="M737.4,407.7q2.8-2 5.8-2.2q6.4-.4 5,4.6q-.2,.9 -3.5,2.9q-2.1,1.3 5.5,2.6" fill="none" stroke="#ffffff" stroke-width="1.4"></path><path d="M782.3,407.3q4.9-1.2 13.6-.5q3.9,.5 7.1,1" fill="none" stroke="#ffffff" stroke-width="1.4"></path><path d="M783.9,411.1q13.2-.1 16,.1" fill="none" stroke="#ffffff" stroke-width="1.4"></path><path d="M965.5,401.1q.3,15.7 2.1,17.5" fill="none" stroke="#ffffff" stroke-width="1.6"></path><path d="M982.2,410.4q-10.4,2.4 -12.3,4.1q-3.8,3.4 14.3,3.4" fill="none" stroke="#ffffff" stroke-width="1.8"></path><path d="M1002.9,411.9q-4.2-.4 -5.8,.8q-3.8,2.9 2.8,4.2q.5,.1 4-4.3q3.4-4.3 7.2,12.7q2.2,9.8 -13.3,3.4" fill="none" stroke="#ffffff" stroke-width="1.7"></path><path d="M1030.9,414.9q.1,.1 0,.1q-.1,0 -.1-.1q0-.1 .1-.1q.1,0 .1,.1" fill="none" stroke="#ffffff" stroke-width="1.4"></path><path d="M1059.2,411.8q-.4,5.6 .3,6.7q2.5-1.7 4.7-5.2q.9-1.5 1.9,4.7q.2,1 4.2-2.8q5.9-5.5 13,6.2" fill="none" stroke="#ffffff" stroke-width="1.6"></path><path d="M963.9,434.4q0-.3 0-1.4q0-.5 30.2,2.6q50.5,2.7 91.8,4q.7,0 3.2,.6" fill="none" stroke="#ffffff" stroke-width="1.4"></path><path d="M1015.7,454.9q-1.3-2 -4-2.1q-8.4-.3 1.4,8.4q7,6.2 1.1,7.2q-2.4,.4 -2-3.3" fill="none" stroke="#ffffff" stroke-width="1.7"></path><path d="M1031.5,447.7q12.3,.4 13,2.8q0,.1 -7.6,8.5q-1.3,1.4 9.2,1.3" fill="none" stroke="#ffffff" stroke-width="1.6"></path><path d="M-265,534q.1-2.7 3.7-5.2q7.8-5.4 7.8,3.3q-2,4.9 -4.4,8.8q-1,1.5 15.7,4.3" fill="none" stroke="#ffffff" stroke-width="1.6"></path><path d="M-237.8,547.4q0-1.3 0-2.3" fill="none" stroke="#ffffff" stroke-width="1.4"></path><path d="M1148.4,410.2q10-1.2 12.8-1" fill="none" stroke="#ffffff" stroke-width="1.4"></path><path d="M1148.5,414.7q12.5-.6 14.7-.6" fill="none" stroke="#ffffff" stroke-width="1.4"></path><path d="M1028.8,37.5q-.4-.2 -.7-.3" fill="none" stroke="#ffffff" stroke-width="1.4"></path><path d="M1286.8,405.6q.4,.2 1.8,.8q2.1,1.6 3.6,3.1q2.9,2.9 1.7-6.4q-.3,3.1 -.3,8.7q2.3,8.7 5.1,15.6q2.6,6.4 -8.4,6.4q-1.4,0 -6.9-1.6" fill="none" stroke="#ffffff" stroke-width="1.6"></path><path d="M-165.6,529.4q.1,.2 .4,1.1q.5,1.3 1.6,14.2" fill="none" stroke="#ffffff" stroke-width="1.7"></path><path d="M-164.2,529q2.3-.7 4.2-1.2" fill="none" stroke="#ffffff" stroke-width="1.7"></path><path d="M-165.3,539.7q8.1-2.5 15-3.6" fill="none" stroke="#ffffff" stroke-width="1.7"></path><path d="M-164.6,549.5q10.1-.5 18.1-1.3" fill="none" stroke="#ffffff" stroke-width="1.7"></path><path d="M-136.3,535.4q-.5,1.4 -2.5,7.1q-1.3,3.7 5.2,7.5q1.1,.7 1.4-6.3q.2-6 5.7-5q4.7,3.4 8,7.2" fill="none" stroke="#ffffff" stroke-width="1.7"></path><path d="M-107.8,537.3q-3.1,.3 -5.6,.6q-2.7,3.4 -4.2,7.3q-1.6,4.2 10.6,3.7q.9,0 3.4-2.9" fill="none" stroke="#ffffff" stroke-width="1.9"></path><path d="M-100.3,538.6q4.6,10.1 5.3,11.5q.6,1.2 -.9-6.7q-.7-3.9 7.1-7.8" fill="none" stroke="#ffffff" stroke-width="1.7"></path><path d="M-74,537.6q-5-.2 -8.4,1.9q-5.2,3.2 -.9,9.3q1.9,2.8 9.3-1.4q.6-.4 1.7-3.3q1.4,4.6 2.1,13.1q.4,5.1 -9.5,.7q-.6-.3 -2.1-2.6" fill="none" stroke="#ffffff" stroke-width="1.9"></path><path d="M-65.6,543.4q.5,9.7 4.1,8.2" fill="none" stroke="#ffffff" stroke-width="1.7"></path><path d="M-62.2,530.5q.1,.3 .2,.6" fill="none" stroke="#ffffff" stroke-width="1.7"></path><path d="M-60.9,543.5q18.2-5.3 14-6.3q-5.7-1.4 -3.5,10.7q.3,1.8 12.9,1.4" fill="none" stroke="#ffffff" stroke-width="1.7"></path><path d="M-31,538.7q2.6,8.7 2.3,10.2q-.3,1.7 -1.7-8.7q1.5-3 3.5-5.3" fill="none" stroke="#ffffff" stroke-width="1.8"></path><path d="M-10.8,526.9q1.8,17.2 1.9,20.7q0,1.6 1.1-8q.7-6.8 14.4,8.1" fill="none" stroke="#ffffff" stroke-width="1.8"></path><path d="M15.4,538.3Q12.5,538.6 10.2,538.8Q6.6,539.1 10.7,546Q12.5,548.9 17.9,545.9Q19.6,544.9 22.5,546.3Q24.3,546.5 25.9,546.5" fill="none" stroke="#ffffff" stroke-width="1.7"></path><path d="M30.8,528.4q-.1,7.8 2,12.1q2.2,4.2 4.1,7.6" fill="none" stroke="#ffffff" stroke-width="1.7"></path><path d="M43.9,519.9q-.4,11.7 2.2,20.3q1.5,5 1.5,8.6" fill="none" stroke="#ffffff" stroke-width="1.7"></path><path d="M43.8,538.2q4-.8 9.7-.2" fill="none" stroke="#ffffff" stroke-width="1.7"></path><path d="M64.6,536.2q-3.4,2.2 -4,5.6q-1.1,6.4 7.3,5q2.5-.4 3-7q.1-1.2 3.8,4.4q3.7,.5 7.4-.2" fill="none" stroke="#ffffff" stroke-width="1.7"></path><path d="M85.2,537.2q0,8.2 .3,9.8q1.9-2.9 3.8-8.5q.7-2.1 12,6.4" fill="none" stroke="#ffffff" stroke-width="1.7"></path><path d="M111.7,536.1q-.9,.3 -4.5,1.7q-2.7,1 1.9,5.9q3.8,.5 7.4-.2q1-.2 4.8,12.2q3.6,11.7 -16.1,8.2q-.4-.1 -1.6-1.1" fill="none" stroke="#ffffff" stroke-width="1.7"></path><path d="M250.8,525.5q.1,1.3 .7,6.7q.6,9.1 1,16.6q1.5-3 3.2-8.6q1.5-4.9 15.2,6.3" fill="none" stroke="#ffffff" stroke-width="1.7"></path><path d="M285.8,535.6q7.4-.6 10.8-.6" fill="none" stroke="#ffffff" stroke-width="1.7"></path><path d="M284.8,541.1q10.4-1.1 17.2-1.1" fill="none" stroke="#ffffff" stroke-width="1.7"></path><path d="M323.1,539.7q10.4-6.2 13.9-5.2q-.4,4.9 -3.2,10.3q-.9,1.8 4.5,8.9" fill="none" stroke="#ffffff" stroke-width="1.7"></path><path d="M348.1,541.2q-1.6-4.8 -.4-6.9q1.6-2.8 12,3.8q6.8,4.3 -4.5,11.4q-6.7,4.2 -5.6-4.3" fill="none" stroke="#ffffff" stroke-width="1.7"></path><path d="M375.4,537.9q6,9.1 6.7,11q.6-2.5 .8-7.1q0-1.1 3.8-4.3q.9-.8 1.7,5.9q.2,1.5 6.6-3.6q5.8-4.6 11.5,9.4" fill="none" stroke="#ffffff" stroke-width="1.7"></path><path d="M-86.2,625.8q.4,16.1 2.2,17.9" fill="none" stroke="#ffffff" stroke-width="1.7"></path><path d="M-86,625.9q-.1-.4 -.4-2q-.6-3.1 18.1-3.1" fill="none" stroke="#ffffff" stroke-width="1.7"></path><path d="M-84.1,635.7q1.2,.1 2.2,.2q8.2-.9 14.9-2.2" fill="none" stroke="#ffffff" stroke-width="1.7"></path><path d="M-83.2,644.7q11.1-2.1 16.3-2" fill="none" stroke="#ffffff" stroke-width="1.7"></path><path d="M-50.1,642q-2.9-2.1 -1.8-3.8q2.1-3.2 11.4-2.2q3.3,.4 3.3,8.3q0,1.5 -6.6-.4q-1.9-.5 -5.9,12.5q-.7,2.3 3.4,2.7" fill="none" stroke="#ffffff" stroke-width="1.7"></path><path d="M-31.9,645.7q1.5-3.7 5.5-5.5q8.4-3.8 8.1,11q-.1,7.2 -7.5,3.3q-.6-.3 -.6-3.1" fill="none" stroke="#ffffff" stroke-width="1.7"></path><path d="M-14,626.3q3.4,3.7 4.5,9.5q2.7,14.5 2.4,18" fill="none" stroke="#ffffff" stroke-width="1.7"></path><path d="M-15.7,641.3q9.4-1.9 11.3-1.9" fill="none" stroke="#ffffff" stroke-width="1.7"></path><path d="M16.2,635.7q7.9-2.3 15.3-2.5" fill="none" stroke="#ffffff" stroke-width="1.7"></path><path d="M17.7,639.4q1.7,0 8.4,.2" fill="none" stroke="#ffffff" stroke-width="1.7"></path><path d="M73.9,630.1q.2,.3 .8,1.7q1.2,6.1 1.5,11.2q.3-2.3 .6-6.7q4.2-.1 9.2,1.9q2.6-.5 4.7-1.5q5.6,1.4 10.2,4.2" fill="none" stroke="#ffffff" stroke-width="1.8"></path><path d="M113,637.7q.4-.2 1-.6" fill="none" stroke="#ffffff" stroke-width="1.7"></path><path d="M147.2,635q-6.5,3.7 -7.2,5.1q-2.2,4.3 7.3-.4q6.1-3 6.1,15.1q0,5.2 -6.7,1.8q-.7-.4 -1.1-3.9" fill="none" stroke="#ffffff" stroke-width="1.7"></path><path d="M165.1,639.4q1,.3 1.9,.6" fill="none" stroke="#ffffff" stroke-width="1.7"></path><path d="M195.3,621.4q-.9,13.5 .3,18.7q.3,1.1 1.8,5.4q.5,1.4 3.5-6.8q2.5-7 11,.3q4,3.3 7.2,6" fill="none" stroke="#ffffff" stroke-width="1.9"></path><path d="M503.6,545q.2,.2 0,.2q-.2,0 -.2-.2q0-.2 .2-.2q.2,0 .2,.2" fill="none" stroke="#ffffff" stroke-width="1.7"></path><path d="M502.2,546.8q6-5.1 9-11.1q2.1-4.2 3.1-2.7q.6,4.3 .3,8q.3,3.1 .7,5.6" fill="none" stroke="#ffffff" stroke-width="1.2"></path><path d="M506.7,542.2q.2,.3 .4,.5q4.5,.8 8.8,.3" fill="none" stroke="#ffffff" stroke-width="1"></path><path d="M527.3,538.2q-.7,6.7 -.1,7.5q.6,.8 3.6-3.8q2.1-3.3 4.9,2.6q.4,.6 .8,1" fill="none" stroke="#ffffff" stroke-width="1"></path><path d="M547.9,541.1q-.3-.1 -1.5-.3q-.9-.2 -2.1,3.8q-1.3,4.1 4.7-.5q.4-.3 1.4-2.3q.3-.7 1.8,3.2q.4,1 5.5,.5" fill="none" stroke="#ffffff" stroke-width="1.2"></path><path d="M559.3,531.7q-.6,12.9 .5,14.3q1.3-1.6 2.3-4.3q.9-2.5 5.3,2.2q.9,.8 1.7,1.4" fill="none" stroke="#ffffff" stroke-width="1.2"></path><path d="M574.3,539q-.3,3.1 1.1,5.1q3.1,4.4 6.1-3.6q1.1,1.5 2,4.3q2.7,.1 5.6-1q.3-.1 4.6,1.3" fill="none" stroke="#ffffff" stroke-width="1"></path><path d="M602.2,540q-1.6-1.1 -3.9-.3q-3.8,1.3 -3.1,6.2q3.9,1.2 8.4,.8" fill="none" stroke="#ffffff" stroke-width="1.1"></path><path d="M619.5,540.9q3.8-1.8 7.6-2q.5,0 2.1,1" fill="none" stroke="#ffffff" stroke-width="1"></path><path d="M633.9,535.6q6.4,.8 7,1.5q.6,.7 -2.2,5.1q-.6,1 -4.7,1.5" fill="none" stroke="#ffffff" stroke-width="1"></path><path d="M664.2,546.2q7.8-7.9 9.8-12.2q.8,3.5 .8,9.8q0,.3 1.5,.3q1.2,0 1.2-5.9q0-1.1 3-4.5q.1-.1 4.7,9.7q.1,.2 .3,.9" fill="none" stroke="#ffffff" stroke-width="1.5"></path><path d="M696.8,538.8q-3.3,.2 -5.6,1.9q-3.5,2.6 .9,4.6q3.8,1.8 3.8-2.8q.3,.6 .7,1.7q.1,.2 1.1,.4" fill="none" stroke="#ffffff" stroke-width="1.3"></path><path d="M702.4,536.5q-.1,.2 -.7,.9q1.9,4.8 5.7,8.8q-2.2,.6 -5.9,.4q-.3,0 -.1-1.5" fill="none" stroke="#ffffff" stroke-width="1.1"></path><path d="M713,537.4q-.3-.3 -1.6-1.5q-4.1-3.9 .1,8.8q1.4,4.1 -1.4,3q-.2-.1 -1-.9" fill="none" stroke="#ffffff" stroke-width="1.3"></path><path d="M721.6,541.3q1.5-4.1 .4-4q-.9,.1 -3.2,6.5q-1.1,3 10.8,3" fill="none" stroke="#ffffff" stroke-width="1.2"></path><path d="M750.7,539.2q6.3-1.3 9.4-1.6" fill="none" stroke="#ffffff" stroke-width="1"></path><path d="M752,540.5q8.7-.2 16.5-.2" fill="none" stroke="#ffffff" stroke-width="1"></path><path d="M783.6,532.3q1.5-.2 7.6-1q3.3-.4 4.5,6.4q-1.8,3.7 -4.2,6.5q-1.5,1.7 9.9,1.2" fill="none" stroke="#ffffff" stroke-width="1.1"></path><path d="M810.3,528.8q.7,.7 1.3,1.2q1.1,6.4 .4,12.3q-.5,4.4 2.3,6.5" fill="none" stroke="#ffffff" stroke-width="1.1"></path><path d="M821,539.2q-3.9,.5 -5.3,2.1q-2.6,3 8.3,3.9" fill="none" stroke="#ffffff" stroke-width="1.1"></path><path d="M839.7,538q-5.3,1.3 -7.3,2.5q-2.8,1.7 4.2,2.6q2.7-1.1 4.8-2.5q.2-.1 3.1,11.4q1.3,5.1 -6.2,5.1q-.7,0 -3.3-1.4" fill="none" stroke="#ffffff" stroke-width="1.1"></path><path d="M873.1,533.7q8.3-1.5 11.3-1.4" fill="none" stroke="#ffffff" stroke-width="1"></path><path d="M872.8,537.2q6-.5 8.6-.3" fill="none" stroke="#ffffff" stroke-width="1"></path><path d="M896.9,530.3q.1-.2 .4-1.1q.8-2.1 7.2,2q3,1.9 -5,8.2q-.8,.5 -1.5,.8" fill="none" stroke="#ffffff" stroke-width="1"></path><path d="M951.5,533.1q.3,7.4 1.3,10.8q.6-1.9 .9-5.3q.1-1.1 4.6-3.3q2.5,3.6 3.6,9q1.1-1.7 2.3-5.1q1.1-3.1 8.3-1.1q3.3,3.2 5.4,6.7" fill="none" stroke="#ffffff" stroke-width="1.3"></path><path d="M993.7,535.4q.6-.2 2.8-1q4.1-.3 7.6,0" fill="none" stroke="#ffffff" stroke-width="1"></path><path d="M996.5,538.4q.3-.1 1.5-.6q2.1-.9 11.5,.1" fill="none" stroke="#ffffff" stroke-width="1"></path><path d="M1024.8,532.5q0-.2 .2-.9q.6-2.9 9.7,2q3.8,2.1 -4.9,10.8q-.6,.6 9.5,.6" fill="none" stroke="#ffffff" stroke-width="1.1"></path><path d="M1050.3,527.5q-.6,10.3 1.8,16.8q.5,1.2 2.2,2.4" fill="none" stroke="#ffffff" stroke-width="1.1"></path><path d="M1060.5,539.7q-.3-.4 -1.6-2.1q-.4-.5 -2.6,2.2q-4.3,5.4 7.4,5.4" fill="none" stroke="#ffffff" stroke-width="1.3"></path><path d="M1073.1,538.3q-1.9-.5 -2.9,1q-2.4,3.7 1.5,4.1q.6,.1 2.5-1.2q1.4-.9 2.1,9.3q.3,4.7 -8.3,3.8" fill="none" stroke="#ffffff" stroke-width="1.2"></path><path d="M269.9,629.7q12.8-.7 15.7-.6" fill="none" stroke="#ffffff" stroke-width="1.2"></path><path d="M271.3,634q.3-.2 1.5-1q2-1.3 12.1,0" fill="none" stroke="#ffffff" stroke-width="1.2"></path><path d="M342.2,627.8q1.8-1.7 4.1-1.8q4.9-.2 7.5,6.2q-2.6,4.7 -6.6,8.2q-1.2,1.1 12.6,1.6" fill="none" stroke="#ffffff" stroke-width="1.3"></path><path d="M371.6,623.1q0,17 1.6,20.5" fill="none" stroke="#ffffff" stroke-width="1.3"></path><path d="M382.3,635.6q-3.5-.8 -6.1-.1q-3.3,.9 -2.8,5q.4,3.1 11.6,1.1" fill="none" stroke="#ffffff" stroke-width="1.4"></path><path d="M396.2,635.3q-5.6,1.9 -6.4,3.7q-2.1,4.8 7.1-.1q3.3-1.8 5.1,11.5q.6,4.4 -7.7,.3q-.2-.1 -.4-1.2" fill="none" stroke="#ffffff" stroke-width="1.3"></path><path d="M415,639q.1,.1 0,.1q-.1,0 -.1-.1q0-.1 .1-.1q.1,0 .1,.1" fill="none" stroke="#ffffff" stroke-width="1.2"></path><path d="M456.9,627.3q-6.9,3.9 -8.4,6.6q-1.2,2.2 6.7,1.9q3.2-.1 2.8-7q.3,2.5 .8,7.1q.1,1.1 2.4,5q2.7,4.5 -2.1,7.6q-1.8,1.2 -5.5-4.5q-.2-.3 .4-1.9" fill="none" stroke="#ffffff" stroke-width="1.3"></path><path d="M474.4,643.4q-.4,.1 -1.8,.3" fill="none" stroke="#ffffff" stroke-width="1.2"></path><path d="M490.6,627.5q-2-.7 -3.6-1.2q-2.4-.8 -1.6,7.6q1.5,4.5 3.2,8q1.5,3.1 -1.7,5.6q-1.8,1.4 -2.2-4.8q4.7-5 10.6-8.2q.6-.3 -.8-3.3q-.2-.4 -2,.7" fill="none" stroke="#ffffff" stroke-width="1.2"></path><path d="M501.6,636.3q.8-4.2 2.3-7.2q1.7-3.4 8-3.4q.8,6.1 -1.2,13.5q-1.8,6.7 -2.1,7.2" fill="none" stroke="#ffffff" stroke-width="1.3"></path><path d="M539.8,636.7q1.6,6.3 2.2,8.6q1.4-2.2 2.8-6.3q.2-.5 2.8,0q.3,.1 .7,5.3q4.5-1.4 9.8-5.5q2.7,1.8 4.8,5" fill="none" stroke="#ffffff" stroke-width="1.4"></path><path d="M578.5,628q-6.1,13.1 -6.1,18.5" fill="none" stroke="#ffffff" stroke-width="1.3"></path><path d="M587.6,637.9q-.3-.4 -1.4-2.1q-.5,1.1 -.8,3q.8,4.7 2,8.5q.3,.9 -7.2,3.2" fill="none" stroke="#ffffff" stroke-width="1.3"></path><path d="M604.5,636.7q.5-.1 2.3-.4" fill="none" stroke="#ffffff" stroke-width="1.2"></path><path d="M650.1,637.9q3.7-6.6 8.6-8.8q4.9-2.2 -1.1,7.2q-2.8,4.4 2.5,7.4" fill="none" stroke="#ffffff" stroke-width="1.3"></path><path d="M668.1,635.2q-.4-3.5 .8-6.6q.5-1.3 6.9-.8q6.2,.5 5.2,10.8q-.5,5.1 -9.7,2.5q-3.4-1 -1.5-4.4" fill="none" stroke="#ffffff" stroke-width="1.3"></path><path d="M700.7,636.3q1.8,1.9 3.2,3.4q1.2,1.3 1.1,8.6q1.4-3.4 3.2-9.9q1.3-4.7 1.8,7.9q0,1.2 2.2-5.4q1.4-4.3 10.3-2.1q1.5,.4 2.5,7.5q.2,1.2 4.1,4.4" fill="none" stroke="#ffffff" stroke-width="1.8"></path><path d="M769,634.5q12.4-1.1 17.4-1.5" fill="none" stroke="#ffffff" stroke-width="1.2"></path><path d="M765.9,639.9q11.5-1 15.1-.9" fill="none" stroke="#ffffff" stroke-width="1.2"></path><path d="M833.6,633.9q-.1-.5 -.6-2.4q-.7-2.8 9.2-4.3q2.1-.3 1.5,12.3q-.2,4.6 .3,5.3" fill="none" stroke="#ffffff" stroke-width="1.6"></path><path d="M863.1,628.7q-.2-.3 -1.2-1.5q-.7-.8 -3.3,4.1q-1.5,2.8 2.3,5.2q.7,.4 2.2-5.1q.8-3.1 3.7,10.6q.9,4.4 -5.4,6q-3.8,1 -4.2-4.7" fill="none" stroke="#ffffff" stroke-width="1.4"></path><path d="M878.9,627.5q-5,13.6 -3.5,16.5q1.2,2.5 5-1.9q1.7-2 -2.1-3.3q-.3-.1 -.7,1.3" fill="none" stroke="#ffffff" stroke-width="1.5"></path><path d="M894,647.6q0-.4 -.2-1.8" fill="none" stroke="#ffffff" stroke-width="1.2"></path><path d="M912,629.1q4.8-.1 6.5,.5q5.3,1.9 -2,10.8q-2.1,2.5 6,2.5q4.9-.1 8.9-.2" fill="none" stroke="#ffffff" stroke-width="1.4"></path><path d="M958.5,631.8q-.7,3.3 .3,4.7q2.6,3.7 4.4-4.9q1.1-5.2 -1-3.9q-.4,.3 5,20.1q2.7,9.8 -9.1,6.9q-1.1-.5 -1.9-.9" fill="none" stroke="#ffffff" stroke-width="1.7"></path><path d="M-84.2,704.5q-1,15.1 -.8,18.2q0,.3 .4,1.6" fill="none" stroke="#ffffff" stroke-width="1.4"></path><path d="M-83.4,703.2q9.2-.8 13.6-.6" fill="none" stroke="#ffffff" stroke-width="1.4"></path><path d="M-87.8,717.8q9.5-1.2 19.5-1.9" fill="none" stroke="#ffffff" stroke-width="1.4"></path><path d="M-86.8,724.3q.7-.1 3.6-.5q6.4-.4 11.7-.5" fill="none" stroke="#ffffff" stroke-width="1.4"></path><path d="M-51.8,703.9q-.1,3.8 -.1,21.8" fill="none" stroke="#ffffff" stroke-width="1.4"></path><path d="M-40.1,715q-.7-.1 -3.6-.5q-5.1-.7 -7,5.5q-1.1,3.4 13.2,2.5" fill="none" stroke="#ffffff" stroke-width="1.4"></path><path d="M-31.9,718.7q-1.5,3.2 -1.2,4.4" fill="none" stroke="#ffffff" stroke-width="1.4"></path><path d="M-32.6,709.5q.1,.1 0,.1q-.1,0 -.1-.1q0-.1 .1-.1q.1,0 .1,.1" fill="none" stroke="#ffffff" stroke-width="1.4"></path><path d="M-23,718q-2.3,5.1 -3.2,6q3.2-1.7 8.6-5.3q3.3-2.2 11.1,5" fill="none" stroke="#ffffff" stroke-width="1.4"></path><path d="M31.6,707.5q.1-.3 .4-1.4q.3-1.1 13.2,.7" fill="none" stroke="#ffffff" stroke-width="1.4"></path><path d="M30.6,714.9q8.6-.8 17.4-1.3" fill="none" stroke="#ffffff" stroke-width="1.4"></path><path d="M92.7,704.5q1.6,13 2.2,9.6q.2-1 1.7-4.9q2.3,2 4.5,5.9q5.1-1.6 10-5.9q0,0 7.3,5.4q1.4,.6 2.7,.9" fill="none" stroke="#ffffff" stroke-width="1.4"></path><path d="M129,711.2q.1-.4 .4-1.9" fill="none" stroke="#ffffff" stroke-width="1.4"></path><path d="M154.8,711.3q1.4,5 3.3,7.6q3.4,4.6 4.9,3.2q4-5.2 6.9-9.7q.5-.8 .9-1.5" fill="none" stroke="#ffffff" stroke-width="1.4"></path><path d="M172.8,696.8q.8-2 1.5-3.6q1.7-4.1 12,3.4q2.2,1.6 -3.9,4.4q-3,1.4 4.3,2.5" fill="none" stroke="#ffffff" stroke-width="1.4"></path><path d="M-73.8,404.4q3.3-6.1 5.7-4.4q.8,3.3 .5,6.5q-.1,1.6 2.4,3.6" fill="none" stroke="#ffffff" stroke-width="1.4"></path><path d="M-74.9,417.8q9.5-1.6 11.7-1.4" fill="none" stroke="#ffffff" stroke-width="1.4"></path><path d="M-70.8,421.6q8,.1 8.4,3.3q-1.1,4 -2.6,7.2q-1.2,2.5 8.7,.6" fill="none" stroke="#ffffff" stroke-width="1.4"></path><path d="M122.5,404q-2.3,.1 -4.1,.2q3.2-2.3 9.6-5.2q.5-.2 2.5,1.3q1.2,.9 0,7.3q-.2,.9 0,4.4" fill="none" stroke="#ffffff" stroke-width="1.4"></path><path d="M116.5,422.7q12.7-2.2 15.7-1.4" fill="none" stroke="#ffffff" stroke-width="1.4"></path><path d="M123.2,434q6.4-.6 8.2,.8q1.4,1.1 -3.1,13.1q-1.2,3.2 8.2,2.9q4.1-.2 7.4-.3" fill="none" stroke="#ffffff" stroke-width="1.4"></path><path d="M828.2,403.3q4.5-7.9 6.8-9q1.5-.7 2,10.4q1.2,4.7 2.6,8.5" fill="none" stroke="#ffffff" stroke-width="1.4"></path><path d="M826.8,419.7q11.4-.9 16.4-.7" fill="none" stroke="#ffffff" stroke-width="1.4"></path><path d="M828.2,426q14.2-.1 16.2,1.2q4,2.6 -1.3,10.5q-2.3,3.4 11.1,3.4" fill="none" stroke="#ffffff" stroke-width="1.4"></path><path d="M63.6,706.5q.1,.1 0,.1q-.1,0 -.1-.1q0-.1 .1-.1q.1,0 .1,.1" fill="none" stroke="#ffffff" stroke-width="1.3"></path><path d="M63.8,709.8q1.8-6.8 4.4-8.1q1.9-1 1.4,10.3" fill="none" stroke="#ffffff" stroke-width="1.3"></path><path d="M65.9,722.3q1-2.2 2.8-2.4q1.2-.1 5.9,0" fill="none" stroke="#ffffff" stroke-width="1.3"></path><path d="M66,727.9q7.4-1 9.8-.2q1.8,.6 -2.8,5q-3.6,3.4 .7,4.4q6.2-1.5 11.2-4" fill="none" stroke="#ffffff" stroke-width="1.3"></path><path d="M333.1,703.6q.1-.5 .4-2.6q5.6,5.2 11.7,15.8q1.2,2 7.8-6.4q1.9-4.7 2.9-8.9" fill="none" stroke="#ffffff" stroke-width="1.3"></path><path d="M361.5,685.3q5.5-1.6 7.1-1.1q2.7,.9 -2,11.9q-.6,1.4 9.7,.4" fill="none" stroke="#ffffff" stroke-width="1.3"></path><path d="M397.4,705.9q13.4-1.6 15.2-1.7" fill="none" stroke="#ffffff" stroke-width="1.3"></path><path d="M399,712.1q1.2-.5 6.2-2.6q3.9-.6 7.1-.7" fill="none" stroke="#ffffff" stroke-width="1.3"></path><path d="M460,704.3q5.6-2 7.9-1.9q3.4,.1 -.5,13.7q-.8,2.6 5.5,2.6q1.1,0 5.5-.1" fill="none" stroke="#ffffff" stroke-width="1.3"></path><path d="M497.3,704.1q-.6,13.1 0,15.7" fill="none" stroke="#ffffff" stroke-width="1.3"></path><path d="M496.5,704.6q2.2-1.5 5.5-1.8q1.8-.2 8.9-.3" fill="none" stroke="#ffffff" stroke-width="1.3"></path><path d="M496.8,712.8q10.3-2.2 14-2.6" fill="none" stroke="#ffffff" stroke-width="1.3"></path><path d="M496.5,720.5q12.1-.4 14.5-.3" fill="none" stroke="#ffffff" stroke-width="1.3"></path><path d="M522.3,706.6q.1,0 .5,0q1.3,5.8 0,12.8q-1,5.4 .7,4.9" fill="none" stroke="#ffffff" stroke-width="1.3"></path><path d="M530.9,717.7q-5.2,1.4 -6.4,2.8q-2.9,3.3 5.4,3.7" fill="none" stroke="#ffffff" stroke-width="1.3"></path><path d="M539.7,720.2q-1,2.1 -.6,3.2" fill="none" stroke="#ffffff" stroke-width="1.3"></path><path d="M539.1,710.5q-.2-.3 -.4-.6" fill="none" stroke="#ffffff" stroke-width="1.3"></path><path d="M545.5,718.1q-1,4.1 -.2,5.1q3.5-.7 6.8-2.9q1.8-1.2 6.5,8.2" fill="none" stroke="#ffffff" stroke-width="1.3"></path><path d="M240.3,705.1q8.5-1 11.1-1.1" fill="none" stroke="#ffffff" stroke-width="1.3"></path><path d="M240.1,710.4q7.1-1.8 16-1.8" fill="none" stroke="#ffffff" stroke-width="1.3"></path><path d="M259.9,702.6q6.2,0 9.5,.8q6.2,1.5 -5.1,10.5" fill="none" stroke="#ffffff" stroke-width="1.3"></path><path d="M460.3,734.1q36.3-1 66-2" fill="none" stroke="#ffffff" stroke-width="1.3"></path><path d="M496.7,743.8q-.4,.7 -2,3.4q1.5,4.5 4.3,8.3q.6-2 .7-5.4q.1-5.9 7.1-.4q1.7,1.4 5.9-.9q8.8-4.8 16.7,3.1" fill="none" stroke="#ffffff" stroke-width="1.3"></path><path d="M340,801.3q1.7,10.2 5.1,14.9q2.3,2.6 4.2,4.7q4.1-8 5.7-21.3" fill="none" stroke="#ffffff" stroke-width="1.3"></path><path d="M396,799.4q5.2-1.5 11-1.6q.6,0 3,.2" fill="none" stroke="#ffffff" stroke-width="1.3"></path><path d="M396.8,807.6q6.3-2.7 13.5-3.5" fill="none" stroke="#ffffff" stroke-width="1.3"></path><path d="M458.3,801.7q-.2-.5 -1-2.3q-.7-1.7 9.1-.9q6.1,.5 .1,15.1q-.9,2.2 16.4,2.2" fill="none" stroke="#ffffff" stroke-width="1.3"></path><path d="M498.7,799.4q-.6,16.7 -.1,18.5" fill="none" stroke="#ffffff" stroke-width="1.3"></path><path d="M498.5,800.2q8.8-1.8 11.4-1.6" fill="none" stroke="#ffffff" stroke-width="1.3"></path><path d="M498.4,816.9q12.2-.2 13.8-.4" fill="none" stroke="#ffffff" stroke-width="1.3"></path><path d="M497.7,810.7q5,0 9.1,0" fill="none" stroke="#ffffff" stroke-width="1.3"></path><path d="M519.1,802.4q3,14.3 3,17.3" fill="none" stroke="#ffffff" stroke-width="1.3"></path><path d="M527.4,813.1q-2.7,.1 -3.9,1.8q-2.9,4 7.4,2.9" fill="none" stroke="#ffffff" stroke-width="1.3"></path><path d="M538.5,814q-1.5,4.3 -.9,5.3" fill="none" stroke="#ffffff" stroke-width="1.3"></path><path d="M543.1,811.3q.7,3.2 1.9,4.4q4.8-.6 9.1-2.8q.7-.3 7.1,4.5" fill="none" stroke="#ffffff" stroke-width="1.3"></path><path d="M538.4,801.8q.1,.1 0,.1q-.1,0 -.1-.1q0-.1 .1-.1q.1,0 .1,.1" fill="none" stroke="#ffffff" stroke-width="1.3"></path><path d="M455.8,827.7q.1,.1 0,.1q-.1,0 -.1-.1q0-.1 .1-.1q.1,0 .1,.1" fill="none" stroke="#ffffff" stroke-width="1.3"></path><path d="M458,827.6q66.6,0 86.6-.3" fill="none" stroke="#ffffff" stroke-width="1.3"></path><path d="M494.7,841.1q.2,4 .7,5q.4,.8 2.4-3.9q.9-2.2 6.8-1.1q1.8,1.9 2.9,4.1q.4,.9 4.3-2.1q2.5-1.9 11,3.4" fill="none" stroke="#ffffff" stroke-width="1.3"></path><path d="M429.7,811.2q8.5,30.4 9.9,34q.5-11.6 -1.6-32.6q-1.9-19.4 .8-24.5q1-1.9 21.8-1.7q44.4-.2 80.8-.7q22.5,.3 40.9,.8" fill="none" stroke="#ffffff" stroke-width="1.3"></path><path d="M683.3,738q.1,.1 .3,.6q.4,5.2 0,9.6" fill="none" stroke="#ffffff" stroke-width="1.2"></path><path d="M683,736.6q-.2-2.5 1.3-4q2-2 11.1-.9" fill="none" stroke="#ffffff" stroke-width="1.2"></path><path d="M683.9,740.3q1.8-.2 8.9-.9" fill="none" stroke="#ffffff" stroke-width="1.2"></path><path d="M684,746q.6-.1 2.9-.7q1.7-.4 13.7-.4" fill="none" stroke="#ffffff" stroke-width="1.2"></path><path d="M707.6,733.6q-.4,5.1 .4,8.1q1.3,5.7 2.2,10.4" fill="none" stroke="#ffffff" stroke-width="1.2"></path><path d="M715.9,742.7q-3,.5 -4.8,2.2q-4.3,4.1 .8,6.2q1.9,.2 3.5,.1" fill="none" stroke="#ffffff" stroke-width="1.2"></path><path d="M723.1,745.6q0,4 .7,4.5" fill="none" stroke="#ffffff" stroke-width="1.2"></path><path d="M723.1,738.9q.1-.2 .2-.4" fill="none" stroke="#ffffff" stroke-width="1.2"></path><path d="M726.7,741.2q.9,6.3 .8,8.2q2.5-1 5.6-3.8q1.5-1.3 5.6,4.6" fill="none" stroke="#ffffff" stroke-width="1.2"></path><path d="M751.5,739.5q8.4-.9 11.5-.9" fill="none" stroke="#ffffff" stroke-width="1.2"></path><path d="M754.3,742.5q7.9,.4 10.2,.6" fill="none" stroke="#ffffff" stroke-width="1.2"></path><path d="M788.3,736.2q-2.6,4 -2.5,6.7q0,1 2.7,4" fill="none" stroke="#ffffff" stroke-width="1.2"></path><path d="M789.2,733.2q.4-.5 2.1-2.5q.9-1 8.3,.5" fill="none" stroke="#ffffff" stroke-width="1.2"></path><path d="M786.7,740q.3-.1 1.3-.5q2.3-.9 11.7-.9" fill="none" stroke="#ffffff" stroke-width="1.2"></path><path d="M788.5,744.9q9.1,.6 14.7,.6" fill="none" stroke="#ffffff" stroke-width="1.2"></path><path d="M807,746.4q-1.5-5.7 .4-7.1q3.7-2.8 5.6,4.6q-2.7,2.1 -6.3,3.2q-1,.3 -1.8,6.4q-.1,.5 1.7,1.6" fill="none" stroke="#ffffff" stroke-width="1.6"></path><path d="M821,743.1q.3-3.1 1.4-2.8q8.3,2.3 3.1,10.5q-2.6,4.1 -5.7,0q-.8-1 .9-6.3" fill="none" stroke="#ffffff" stroke-width="1.3"></path><path d="M835.9,732.6q-.4,16.5 -1,19" fill="none" stroke="#ffffff" stroke-width="1.2"></path><path d="M834.5,740.9q.7-.1 3.6-.3" fill="none" stroke="#ffffff" stroke-width="1.2"></path><path d="M862.9,747.1q.1-.6 .4-2.9" fill="none" stroke="#ffffff" stroke-width="1.2"></path><path d="M863.3,722.3q0,.2 .2,.8q.2,6.3 -.1,11.5" fill="none" stroke="#ffffff" stroke-width="1.5"></path><path d="M346.6,906.5q.5-4.7 1.5-5.3q2.3,4.8 2.7,12q.4,7.4 3.4,5.4q2.5-5.3 3.5-10.5q.2-1 2.9-4" fill="none" stroke="#ffffff" stroke-width="1.3"></path><path d="M391.2,909.1q.1-.2 .7-1.1q1.2-1.9 11,0" fill="none" stroke="#ffffff" stroke-width="1.1"></path><path d="M396.9,913.2q6.6-1.1 9.2-1.1" fill="none" stroke="#ffffff" stroke-width="1.1"></path><path d="M452.1,907.6q2.6-1.8 4.8-2.6q6.1-2.2 6.1,3.8q-2.2,4.1 -5,7.2q-4.2,4.7 8.2,4.7" fill="none" stroke="#ffffff" stroke-width="1.1"></path><path d="M482.9,911.2q-.3,.1 -.5,.2" fill="none" stroke="#ffffff" stroke-width="1.1"></path><path d="M511.2,902.8q8-1.5 9.9-1.4" fill="none" stroke="#ffffff" stroke-width="1.1"></path><path d="M442.5,935.2q7.6-2.5 15.6-3q47.8-3 125.6-.9" fill="none" stroke="#ffffff" stroke-width="1.1"></path><path d="M494.2,946.4q2.3-1.9 4.7-2q12.6-.5 4.2,9.8q-2.7,3.3 -2.1,4.1q1.1,1.5 9.1,.7" fill="none" stroke="#ffffff" stroke-width="1.1"></path><path d="M523.2,941.8q-.8,5.4 -.4,9.9q.5,4.3 .9,7.8" fill="none" stroke="#ffffff" stroke-width="1.1"></path><path d="M533.5,952.6q-3.4-.4 -6.1,.8q-6.5,2.9 1,4.9q1.2,.1 2.2,.2" fill="none" stroke="#ffffff" stroke-width="1.1"></path><path d="M547,953q-3.3-.3 -6.3,.8q-.6,.2 1.4,2.7q1.5,1.9 5.5-.5q.3-.2 1.6,.8q1.4,1.1 .7,7.6q-.4,3.8 -12.5,3.8" fill="none" stroke="#ffffff" stroke-width="1.2"></path><path d="M424.2,925.1q1.4,22.5 3.2,27.4q1.8,4.9 0-12.8q-3.5-34.9 -.5-41.3q2.1-4.6 39.3-5.6q61.9-1.2 112.5-1.9" fill="none" stroke="#ffffff" stroke-width="1.4"></path><path d="M501,913.1q-.1-.5 -.4-2.4q-.5-2.8 6.9-4.3q2-.4 2,14q0,2.9 1.8,2.3" fill="none" stroke="#ffffff" stroke-width="1.2"></path><path d="M522.8,906.1q-.7-.2 -3.6-1q-2.9-.8 -2.9,6.2q0,6.5 6.5,1.9q.9-.6 1.6-5.2q.1-1 2,4.5q3.3,9.8 .3,11.6q-1.3,.8 -5.3-1.6" fill="none" stroke="#ffffff" stroke-width="1.2"></path><path d="M542.4,904.7q-2.8,8.5 -3.3,14.9q-.3,4.6 4.3,.9q2.1-1.7 -1.3-6.9q-.6,.7 -1,2" fill="none" stroke="#ffffff" stroke-width="1.4"></path><path d="M554.5,921.9q.1-.3 .3-1.3" fill="none" stroke="#ffffff" stroke-width="1.3"></path><path d="M568.4,907.1q.6-1.4 2.1-1.8q4.5-1.2 .8,4.3q-5.6,8.5 .5,9.7q1.3,.3 6.7-.1" fill="none" stroke="#ffffff" stroke-width="1.2"></path><path d="M597,907.4q.3,.2 1.5,.9q3.6,2.1 4.2,10q.1,1.2 -4.8,3.3q-.5,.2 -2-2" fill="none" stroke="#ffffff" stroke-width="1.2"></path><path d="M586.9,905.7q10.8-2.2 14.2-1.9" fill="none" stroke="#ffffff" stroke-width="1.2"></path><path d="M667.4,912.5q8.9-1.5 12.5-1.6" fill="none" stroke="#ffffff" stroke-width="1.3"></path><path d="M668.7,916.2q11.6-.7 15.5-1" fill="none" stroke="#ffffff" stroke-width="1.3"></path><path d="M755.5,912.4q5.8-6.5 9.7-7.2q2.1,7 1.2,16.1q0,.3 1.6,.3" fill="none" stroke="#ffffff" stroke-width="1.4"></path><path d="M784.9,905.4q-.9,.1 -1.6,.1q-2.6,.2 -9.5,7.9q-1.6,1.8 9.1,1.4" fill="none" stroke="#ffffff" stroke-width="1.3"></path><path d="M788.4,903.6q-1.4,11.1 -1.1,21" fill="none" stroke="#ffffff" stroke-width="1.3"></path><path d="M803.2,921.5q.2-.7 .3-1.2" fill="none" stroke="#ffffff" stroke-width="1.3"></path><path d="M832.3,911.8q.7,6.2 1.5,10.1q.3,1.2 2.3-5.6q.6-2.1 5.1-2.1q.9,0 2.3,5.6q2.5-1.5 5.1-4.8q5.8,2.1 11.1,7" fill="none" stroke="#ffffff" stroke-width="1.6"></path><path d="M874.3,902.7q-4.7,20.2 -3.9,22.7" fill="none" stroke="#ffffff" stroke-width="1.3"></path><path d="M890.8,914.2q-1.8-2 -4.2-1.5q-4.3,.9 -1.8,3.1q12,10.5 2.2,11.6q-1.8,.2 -8.9-.9" fill="none" stroke="#ffffff" stroke-width="1.4"></path><path d="M-268.5,1002.6q.5-.6 2.3-2.8q1.7-2 5.5,6q1.5,3.1 -4.5,3.4q2,.5 5.6,1q5.4,.8 4.6,8.7q-.4,4.2 -12.6,4.2" fill="none" stroke="#ffffff" stroke-width="1.3"></path><path d="M-243,1024.4q-.4,.1 -.8,.2" fill="none" stroke="#ffffff" stroke-width="1.3"></path><path d="M-201.1,1006.4q0,12.8 2.8,17.2q.2,.3 1.3,.9" fill="none" stroke="#ffffff" stroke-width="1.3"></path><path d="M-200.7,1006.5q.9-2.1 1.6-3.8q1.4-3.2 9.7-3.5" fill="none" stroke="#ffffff" stroke-width="1.3"></path><path d="M-198.3,1014q6.4-2.2 12.4-3.3" fill="none" stroke="#ffffff" stroke-width="1.3"></path><path d="M-197.9,1024.6q.3,0 1.4,0q5-.3 9.1-.6" fill="none" stroke="#ffffff" stroke-width="1.3"></path><path d="M-171.2,1004q-.4,7.3 1.3,13q.5,1.7 4.2,7.7" fill="none" stroke="#ffffff" stroke-width="1.3"></path><path d="M-162.3,1018.9q3.6-4.8 4.5-5.6q1-.9 -4.7,4.9q-8.7,8.8 16.4,4.3" fill="none" stroke="#ffffff" stroke-width="1.3"></path><path d="M-143.5,1004.8q-.1,.1 -.5,.6q2.3,5.2 6.9,9.6q1.5,4.8 1.9,9.2" fill="none" stroke="#ffffff" stroke-width="1.3"></path><path d="M-129.4,1010.5q-3.1,.9 -5,3.2q-6.4,7.7 2,9.6q1.1,.3 5.6-.7" fill="none" stroke="#ffffff" stroke-width="1.3"></path><path d="M-116.8,999.5q-1.8,11.1 -.9,14.8q1.3,3.8 2.4,6.9" fill="none" stroke="#ffffff" stroke-width="1.3"></path><path d="M-119.8,1014.5q.4,0 2.1-.2" fill="none" stroke="#ffffff" stroke-width="1.3"></path><path d="M-103.6,1021.4q1-10.8 2.2-12.2" fill="none" stroke="#ffffff" stroke-width="1.3"></path><path d="M-91.3,1017q-.7-4.3 .5-6q4.9-7 6.4,8.6q.2,2.4 -3.6,2.4q-.5,0 -1.6-2.1" fill="none" stroke="#ffffff" stroke-width="1.3"></path><path d="M-58.5,1000q.7,12.9 1.3,23.4" fill="none" stroke="#ffffff" stroke-width="1.3"></path><path d="M-62.1,1013.8q1.9-1 3.9,.4" fill="none" stroke="#ffffff" stroke-width="1.3"></path><path d="M-43.8,1014.2q3.9-2 11.8-4.5q-2.5,.3 -7.2,1.1q-4,.7 -3.5,6q.1,1.4 12.9,2.3" fill="none" stroke="#ffffff" stroke-width="1.4"></path><path d="M-20.8,1009q-5.1,1.2 -7,3.7q-5.3,7 8.3,7.8q3.3-1.3 5.9-2.9" fill="none" stroke="#ffffff" stroke-width="1.3"></path><path d="M-9.6,995.2q-2.1,8.7 -2.1,14.1q.3,6.5 .7,11.8q.1,1.4 -.2-7q-.2-6.9 10.2-.2" fill="none" stroke="#ffffff" stroke-width="1.3"></path><path d="M2.7,1010.4Q3.5,1019.6 4.2,1021.1Q6.3,1018.6 8.2,1013.9Q10,1009.3 13.8,1014.9Q15.3,1018.6 16.3,1021.7" fill="none" stroke="#ffffff" stroke-width="1.3"></path><path d="M20.5,1015.3q-.3,6.3 1.5,7.1" fill="none" stroke="#ffffff" stroke-width="1.3"></path><path d="M21.3,1000.6q-.1-.2 -.3-1.1" fill="none" stroke="#ffffff" stroke-width="1.3"></path><path d="M32.2,999.9q.4,9.7 2.2,20.4q0,.3 .1,1.4" fill="none" stroke="#ffffff" stroke-width="1.3"></path><path d="M45,1008.3q-6.1,1.7 -8.9,3.8q-4.2,3.2 5.6,6.6q.8,.3 4.2,.4" fill="none" stroke="#ffffff" stroke-width="1.4"></path><path d="M978,802.5q.2,.1 .8,.5q1.6,7.7 .7,15.4q-.5,4 2.4,3.5" fill="none" stroke="#ffffff" stroke-width="1.3"></path><path d="M993.1,804.1q-9.9,6.1 -12.1,9.7q-4.1,6.7 11.3,4.6" fill="none" stroke="#ffffff" stroke-width="1.3"></path><path d="M995.7,817.7q-.6-3.6 .8-4.4q5.8-3.3 9.7,4.1q2,3.9 -7.3,2.3q-.4-.1 -.8-1.9" fill="none" stroke="#ffffff" stroke-width="1.3"></path><path d="M1008,814.8q.3,5.1 .3,6.3q0,.8 2-3.3q2.2-4.5 10.4,4.5" fill="none" stroke="#ffffff" stroke-width="1.3"></path><path d="M1027.2,803.2q-.5,13.2 1,18.8q.1,.3 0,1.4" fill="none" stroke="#ffffff" stroke-width="1.3"></path><path d="M1023,817.9q1-.3 2.1-.7" fill="none" stroke="#ffffff" stroke-width="1.3"></path><path d="M1036.8,816.3q.8,5 1.2,6.2q.6-2.8 .7-7.8q0-.4 .9-1.6" fill="none" stroke="#ffffff" stroke-width="1.3"></path><path d="M1048.2,819.9q-2.9-2.4 -3-4.1q-.2-3.9 5.8-.2q6.8,4.2 1.9,6.6q-6,3 -6-2.5q0-.3 1.2-1.1" fill="none" stroke="#ffffff" stroke-width="1.3"></path><path d="M1061.3,803.9q1.9,19.2 2.1,16.5" fill="none" stroke="#ffffff" stroke-width="1.3"></path><path d="M1067.4,801.9q.5,17.3 1.4,19.1" fill="none" stroke="#ffffff" stroke-width="1.3"></path><path d="M1079.6,812.4q-6.2,3.5 -7.9,5.7q-3.1,4 14.1,3.5q.6,0 2.9-.4" fill="none" stroke="#ffffff" stroke-width="1.5"></path><path d="M1113,809q8.9-1.5 11.8-1.5" fill="none" stroke="#ffffff" stroke-width="1.1"></path><path d="M1114.1,812.4q1.8-.4 9.2-1.8" fill="none" stroke="#ffffff" stroke-width="1.1"></path><path d="M1129.3,801.9q.1-.1 .5-.5q.5-.5 9.5,1.8q4.3,1.1 .8,7.6q-3.7,2.5 -7.3,3.9" fill="none" stroke="#ffffff" stroke-width="1.1"></path><path d="M1168.7,803.4q.6,4.9 2.3,8.3q1.1,2.2 7.7,4.7q3.2-4.9 4.5-11.8q.2-.9 4.2-1.9" fill="none" stroke="#ffffff" stroke-width="1.1"></path><path d="M1195.5,806.6q2.2-1.2 4-2.1q2-1 11.4,.4" fill="none" stroke="#ffffff" stroke-width="1.1"></path><path d="M1200.5,810.8q.9-.5 1.7-1q.8-.5 4.5,.1" fill="none" stroke="#ffffff" stroke-width="1.1"></path><path d="M1251.9,804.8q-.4-.5 -1.9-2.6q-.6-.8 5-.6q4.3,.2 -.1,10.3q-2.3,5.3 2.3,5.9q4.7,0 8.5-.2" fill="none" stroke="#ffffff" stroke-width="1.1"></path><path d="M1279.7,809q-.3-.2 -1.4-.9q-2.2-1.4 -5.2,8.6q-.5,1.7 5.2,1.4q3-.2 3.7-5.8q.1-.8 2.3,3q.5,.8 4.3,1.3" fill="none" stroke="#ffffff" stroke-width="1.1"></path><path d="M1304.5,808q-3-.6 -3.9-.3q1.8,5.1 6.5,10.5q1.9,2.2 -4.8,1.3q-1.1-.3 -1.9-.6" fill="none" stroke="#ffffff" stroke-width="1.1"></path><path d="M1330,807.7q1,8.6 .4,9.5" fill="none" stroke="#ffffff" stroke-width="1.1"></path><path d="M1326.5,813.7q.4-.1 2.1-.7q2.5,.4 4.6,1.3" fill="none" stroke="#ffffff" stroke-width="1.1"></path><path d="M1350.7,807.2q2.4,4.2 4.1,9.1q1,2.8 6.2,3.6q2.8-4.6 3.8-10.7" fill="none" stroke="#ffffff" stroke-width="1.3"></path><path d="M1373.1,817.8q-.5-5.4 .7-7.4q2.2-3.7 5.8,3.8q2.1,4.4 -3.3,6.2q-2.1,.7 -3.7-2.6" fill="none" stroke="#ffffff" stroke-width="1.1"></path><path d="M1235.4,809.5q0,.7 -.1,3.3q-.1,1.7 2,9.4q-.4-3.9 -1.6-11.1q-2.4-14.5 5.7-22.1q.2-.2 13.6,1.9q51.6,2.9 94.1,3.1q5.3,0 26.6,2.7" fill="none" stroke="#ffffff" stroke-width="1.1"></path><path d="M1422.5,806.7q2-1.7 3.9-1.5q1.8,.2 9,2.1" fill="none" stroke="#ffffff" stroke-width="1.1"></path><path d="M1422,811.8q3.5-.3 8.3-.1" fill="none" stroke="#ffffff" stroke-width="1.1"></path><path d="M1482.9,803.6q.1-.3 .6-1.3q.5-1.1 9.3-.2q9.6,1 -.2,12q-2.6,2.9 2.2,2.9q1.5,0 7.5-.6" fill="none" stroke="#ffffff" stroke-width="1.1"></path><path d="M1515.4,812.2q-.1,0 -.7,0" fill="none" stroke="#ffffff" stroke-width="1.1"></path><path d="M1541.3,802.6q-2.8,2.4 -3.4,4.5q-1.2,4.2 6.4-.4q5.4-3.2 .2-4.1q1.3,3.5 4.9,8.1q3.1,3.9 -.3,10.2q-2.3,4.3 -6.8-.5q0-1 .3-2" fill="none" stroke="#ffffff" stroke-width="1.1"></path><path d="M1556.3,817.9q-.2-.2 -1.1-.8" fill="none" stroke="#ffffff" stroke-width="1.1"></path><path d="M1570.7,808q-5.2-3.1 -6.2-3.1q-1.4,0 1.4,7q.5,1.2 4.5,4.8q3.1,2.8 -1.8,5.4q-2.7,1.4 -3-4.1q0-1 7.2-5.5q2.3-1.4 1.2-6.1q-.1-.3 -1.5,.6" fill="none" stroke="#ffffff" stroke-width="1.1"></path><path d="M1577.4,812.3q1.4-4.8 4.2-6.8q2.1-.7 4-1.1q1.5,5.7 .4,13.3q-.1,.5 .7,2.3" fill="none" stroke="#ffffff" stroke-width="1.1"></path><path d="M1602.2,812.9q-.5,3.8 .2,5.9q.1,.3 1.4,0q3.4-2.5 5.9-5.3q.6-.7 1.1,4.9q.1,.7 2.9-2.2q1.3-1.3 6.4,4.3" fill="none" stroke="#ffffff" stroke-width="1.1"></path><path d="M1633.1,805.4q-5.9,9.8 -5.5,13q1.4,1.7 3,2.8" fill="none" stroke="#ffffff" stroke-width="1.1"></path><path d="M1641.4,812.5q-4.2-.9 -4.7-.2q-1.2,1.6 5.4,5.4q6.3,3.6 -1.9,5.3q-2.4,.3 -4.4,.4" fill="none" stroke="#ffffff" stroke-width="1.1"></path><path d="M1664.7,812q.2-.5 .3-.9" fill="none" stroke="#ffffff" stroke-width="1.1"></path><path d="M1701.7,810.5q-1-2.9 .2-4.3q2.3-2.7 10.5-3.7q1.2-.1 -.6,8q-1.2,5.3 2.2,8.1" fill="none" stroke="#ffffff" stroke-width="1.1"></path><path d="M1718.3,814.7q-.2-4.8 1.9-8q1.6-2.4 5.8-2.4q1.3,0 2,10.9q.2,2.9 -8.6,.7q-.5-.1 -1.5-1.9" fill="none" stroke="#ffffff" stroke-width="1.1"></path><path d="M1735.2,809q4,11.6 2.3,8q-.4-1 3.8-4.9q2.2,2.2 3.8,6q1-.1 2-.6q.8-.4 3-3q2-2.3 9.6,4.9q.4,.4 1.2,2.3" fill="none" stroke="#ffffff" stroke-width="1.1"></path><path d="M1787.1,804.9q1.1,9.4 1.2,10.9" fill="none" stroke="#ffffff" stroke-width="1.1"></path><path d="M1786.1,812q8.3-.6 10.9-.2" fill="none" stroke="#ffffff" stroke-width="1.1"></path><path d="M1813.5,812.6q-.7-3.6 0-5.4q.8-2.1 7.9-1.3q1.7,.2 2.3,8.3q.3,3.9 -9.4,3.7q-1.8,0 -1.8-2.8" fill="none" stroke="#ffffff" stroke-width="1.1"></path><path d="M1465,812.8q3.3,11.8 6.1,14.9q1.7,1.9 1.5-10.6q-.4-19.2 3.8-21.6q6.9-.8 12.9-.4q20.1-1.3 36.6-3.4q18.5-2.4 97.2-2q53.6-.3 97.5-.8q37-.4 89.4,4.7" fill="none" stroke="#ffffff" stroke-width="1.1"></path><path d="M1854.3,807.8q3.9-.1 6.1,.9" fill="none" stroke="#ffffff" stroke-width="1.1"></path><path d="M1857.8,813q.8,0 4.1,0" fill="none" stroke="#ffffff" stroke-width="1.1"></path><path d="M1907.4,812.3q9.1-7.4 10.4-7.8q1.1,5.4 -.3,12.8q-.3,1.7 .9,2.3" fill="none" stroke="#ffffff" stroke-width="1.1"></path><path d="M1939.6,805.1q-.2-.8 -.4-1.5q-.2-.8 -9.5,6.3q-4.5,3.4 6.9,3" fill="none" stroke="#ffffff" stroke-width="1.1"></path><path d="M1940.4,802.8q-2.1,11.9 -1.2,17" fill="none" stroke="#ffffff" stroke-width="1.1"></path><path d="M1963.3,812.4q.3,11.5 .6,8.3q.7-7.4 3.1-5.5q.7,2.5 .6,4.9q2.1-1.2 4.8-4q2.1-2.2 4.2,5.1q.1,.2 .9,.3" fill="none" stroke="#ffffff" stroke-width="1.1"></path><path d="M1989.8,808.3q0,3 -1,5.5q-.7,1.6 -2.2,10.9" fill="none" stroke="#ffffff" stroke-width="1.2"></path><path d="M2002,815.6q-1.8-.2 -3.2-.3q.5,4.6 3.6,10.4q1.7,3.3 -9,2.2" fill="none" stroke="#ffffff" stroke-width="1.3"></path><path d="M746.5,937.9q.4-.3 1.9-1.7q3.2,.1 6,1.1q24.6,.7 45.2-1.8q3.8-.5 68.2,2.6" fill="none" stroke="#ffffff" stroke-width="1.1"></path><path d="M738.7,950.4q13.6-1.2 48.1-6.3q20.5-3 57.5-2.2" fill="none" stroke="#ffffff" stroke-width="1.1"></path><path d="M1904.7,836.7q82.6-2.8 100.5-1.3q7.2,.9 13.1,1.7" fill="none" stroke="#ffffff" stroke-width="1.1"></path><path d="M1912.7,843.1q89,1.6 115.8,3.5" fill="none" stroke="#ffffff" stroke-width="1.1"></path><path d="M-206,1103q.2,.2 .8,.8q1,5.2 .7,10q.5,2.1 1.1,3.8" fill="none" stroke="#ffffff" stroke-width="1.1"></path><path d="M-206.7,1107.3q.5-3.5 2.1-4.6q7.1-4.9 5.1,4.7q-1.2,3.5 -2.3,6.3q-.9,2.3 12,2.3" fill="none" stroke="#ffffff" stroke-width="1.1"></path><path d="M-179.2,1106.1q1.3-.7 2.3-1.3q.7-.4 8.5,1.4" fill="none" stroke="#ffffff" stroke-width="1.1"></path><path d="M-176.6,1110.7q7-.8 9.7-.5" fill="none" stroke="#ffffff" stroke-width="1.1"></path><path d="M-137.3,1109q-1.4-1.7 -.6-2.9q3.8-5.7 4.5,.8q-.2,5.9 -.6,10.8" fill="none" stroke="#ffffff" stroke-width="1.1"></path><path d="M-124.1,1110.6q0-3.3 1.2-5.5q1.3-2.3 5.1,2.2q4.7,5.6 5,6.5q.8,2.6 -5.4,3.5q-3.2,.4 -4.9-4.8" fill="none" stroke="#ffffff" stroke-width="1.1"></path><path d="M-87.2,1114.5q7.4,1.3 13.5,2.3q-1.6-2 -5-4.6q-1.4-1.1 9-4.6q8.9-3 11.9,3.5q-.4,3.4 -1.6,6.2q-1.1,2.8 14.3,2.8" fill="none" stroke="#ffffff" stroke-width="1.1"></path><path d="M36.3,1106.2q-.1,.2 -.4,1.1q-2,5.5 4.3,8.7q3.4,1.7 7.6-8.3q.1-.2 .8-.6q.8-.4 .6,4.3q0,.5 3.6,7.3" fill="none" stroke="#ffffff" stroke-width="1.1"></path><path d="M64.9,1108q10.6-.2 12,.1" fill="none" stroke="#ffffff" stroke-width="1.1"></path><path d="M65.7,1110.7q1.7,0 8.5-.1" fill="none" stroke="#ffffff" stroke-width="1.1"></path><path d="M113.4,1105.4q-2.9,4.4 -.3,4.8q9.2,1.4 6.1,6.6q-2.9,4.9 -9-.4q-.3-.3 -1.2-1.8" fill="none" stroke="#ffffff" stroke-width="1.1"></path><path d="M112,1103.7q.8-.6 4.1-2.8q5.2-.2 9.8,.9" fill="none" stroke="#ffffff" stroke-width="1.1"></path><path d="M137.9,1104.3q2.8,12.1 3,14.7q.1,1.4 1.7-6.7q.5-2.3 6.4-10.1" fill="none" stroke="#ffffff" stroke-width="1.1"></path><path d="M-199.2,1158.1q-.2,.5 -.9,2.3q-3.6,9.2 6.9,10.4q3.4,.4 5.9-10.7q.2-.7 .9,3.4q.2,1.3 5.6,3.8" fill="none" stroke="#ffffff" stroke-width="1.2"></path><path d="M-167.6,1160.6q3.8-.5 6.7-.7" fill="none" stroke="#ffffff" stroke-width="1.1"></path><path d="M-165.7,1162.5q.3-.3 .5-.5q.3-.3 11.6,.2" fill="none" stroke="#ffffff" stroke-width="1.1"></path><path d="M-134.4,1159.5q-1.6,6.7 -.1,9.4q.1,.2 .9,.5" fill="none" stroke="#ffffff" stroke-width="1.1"></path><path d="M-135.4,1159.3q2.4-1.4 4.3-2.5q5.5-3.2 5,2.7q-1.1,3.7 -2.4,6.7q-1.4,3.4 7.9,1.5" fill="none" stroke="#ffffff" stroke-width="1.1"></path><path d="M-112.8,1162q.1,.1 0,.1q-.1,0 -.1-.1q0-.1 .1-.1q.1,0 .1,.1" fill="none" stroke="#ffffff" stroke-width="1.1"></path><path d="M-98,1159.9q1.8,9.4 1.3,10.7" fill="none" stroke="#ffffff" stroke-width="1.1"></path><path d="M-101.7,1157.6q.5-.3 2.5-1.7q1.1-.7 6.5,1.2" fill="none" stroke="#ffffff" stroke-width="1.1"></path><path d="M-99.3,1172.5q7.4-.2 11.4,.1" fill="none" stroke="#ffffff" stroke-width="1.1"></path><path d="M-34.6,1156.2q10.3-.3 14.8,.1" fill="none" stroke="#ffffff" stroke-width="1.1"></path><path d="M-31.8,1160.1q9.7,.3 11,.3" fill="none" stroke="#ffffff" stroke-width="1.1"></path><path d="M-4.5,1156.2Q6.3,1158 7.1,1160Q3.1,1163.2 -2.7,1164.8" fill="none" stroke="#ffffff" stroke-width="1.1"></path><path d="M63.8,1154.6q.3,11.2 1.4,13.4" fill="none" stroke="#ffffff" stroke-width="1.1"></path><path d="M57.3,1152.9q7.6-.8 15.5-.5" fill="none" stroke="#ffffff" stroke-width="1.1"></path><path d="M54.3,1168.9q9.7,.7 15.6,.2q1.5-.1 7.6-.5" fill="none" stroke="#ffffff" stroke-width="1.1"></path><path d="M96,1156.4q8.5-.8 10.4-.9" fill="none" stroke="#ffffff" stroke-width="1.1"></path><path d="M102,1160.9q.9-.2 4.6-1" fill="none" stroke="#ffffff" stroke-width="1.1"></path><path d="M142.3,1154.4q-1.5,3.9 -.9,7.4q.8,4.5 10.1,3.5q2.9-.3 5.9-11.8q.2-.9 3.9,2.5q.8,.7 5,1.4" fill="none" stroke="#ffffff" stroke-width="1.1"></path><path d="M132.6,1168.7q33-2.9 38.5-2.2" fill="none" stroke="#ffffff" stroke-width="1.1"></path><path d="M146.8,1174.9q-.9,5.9 1.3,7.6" fill="none" stroke="#ffffff" stroke-width="1.1"></path><path d="M147.5,1176.6q.2-.7 1.1-3.7q1.7-5.7 12-3.6q3.8,.8 -2.3,6.9q-2.4,1.8 -4.4,3.2q-.5,.3 11.4,2.2q.7,.1 3.5,1.4" fill="none" stroke="#ffffff" stroke-width="1.1"></path><path d="M207.7,1155.4q8.4-1 12.9-1" fill="none" stroke="#ffffff" stroke-width="1.1"></path><path d="M207.3,1161.1q5.1,.3 9.2,.6" fill="none" stroke="#ffffff" stroke-width="1.1"></path><path d="M266.3,1153.6q-2.7,4.8 -3.1,6.8q-.2,1.1 5.4,.6q3.4-.3 5.1,5.3q.8,2.7 -8.3,2.7q-.3,0 -1.3-.3" fill="none" stroke="#ffffff" stroke-width="1.1"></path><path d="M262.3,1154.5q5.3-.9 7.5-.7" fill="none" stroke="#ffffff" stroke-width="1.1"></path><path d="M284.3,1150.9q5.2,11.8 7.2,13.7q1,.9 2.4-6.4q2.4-5.4 4.9-9.7" fill="none" stroke="#ffffff" stroke-width="1.1"></path><path d="M249.7,1177.7q1.3-2 6.3-3.3q26.8-7 53.8-2.2" fill="none" stroke="#ffffff" stroke-width="1.1"></path><path d="M264.6,1188.5q.5-2.7 2.7-4.4q7-5.4 6,2.1q-.7,5.4 -.4,8.3" fill="none" stroke="#ffffff" stroke-width="1.1"></path><path d="M280.9,1186.7q-2.1-3.3 -.7-4.9q4.1-4.6 8.8,.1q5.5,5.5 .4,10.9q-2.2,2.4 -6.3,.1" fill="none" stroke="#ffffff" stroke-width="1.1"></path><path d="M296.7,1192.2q12,.6 12.4-.7q.4-1.1 -3.4-4.8q-3.3-3.2 7.2-5q6.1-1.1 1.2,9.1q-1.8,3.7 10.5,3.1q2.7-.1 5-.2" fill="none" stroke="#ffffff" stroke-width="1.1"></path><path d="M350.1,1162.1q2.8-1.9 7.8-2.1q2.7,.6 4.9,1.3" fill="none" stroke="#ffffff" stroke-width="1.1"></path><path d="M349.9,1167q1.9,0 9.3-.2" fill="none" stroke="#ffffff" stroke-width="1.1"></path><path d="M412.1,1164q-.4-4.6 -.2-5.7q.6-3.3 8.8-3.3q4.1,0 5,11.3q.3,3.6 -8.5,3.9q-2.1,.1 -2.8-2.7" fill="none" stroke="#ffffff" stroke-width="1.1"></path><path d="M435.4,1169q.1,.1 0,.1q-.1,0 -.1-.1q0-.1 .1-.1q.1,0 .1,.1" fill="none" stroke="#ffffff" stroke-width="1.1"></path><path d="M447.1,1158.2q-.2,.5 -.9,2.6q1.4,1.5 3.3,2.4q2.7,1.3 2.2,6.4q-.1,1.3 -5.8,1.5" fill="none" stroke="#ffffff" stroke-width="1.1"></path><path d="M442.7,1156.7q10.2-1.6 17.6-1.7" fill="none" stroke="#ffffff" stroke-width="1.1"></path><path d="M471.6,1171.3q13.4-13.4 17.4-17.9q.7,4.3 -.2,11.4q0,4.8 .3,8.7" fill="none" stroke="#ffffff" stroke-width="1.2"></path><path d="M477.5,1165.7q6-1.8 13.2-2.1q4.6,0 8.4,.1" fill="none" stroke="#ffffff" stroke-width="1.1"></path><path d="M529.4,1156.1q6-.1 10,.7" fill="none" stroke="#ffffff" stroke-width="1.1"></path><path d="M528.7,1160.4q4.5,.1 8.2,.2" fill="none" stroke="#ffffff" stroke-width="1.1"></path><path d="M582.4,1156.8q-1,4.1 1.2,6.6q3.7,4.2 .1,9.9q-.4,.6 -3.5,1.2" fill="none" stroke="#ffffff" stroke-width="1.1"></path><path d="M577.6,1155.8q7.5-3.1 12.7-3q1.6,.3 2.9,.6" fill="none" stroke="#ffffff" stroke-width="1.1"></path><path d="M599.4,1163.8q.4-1.7 .7-3.1q.6-2.7 9.2,1.4q4.1,2 -1.2,8.3q-1.1,1.3 -8.3-.7q-3.1-.8 -2.2-4.9" fill="none" stroke="#ffffff" stroke-width="1.1"></path><path d="M614.9,1164.4q.2-.6 .9-2.9q1.3-4.2 11.2-.2q8.9,3.6 .7,9.4q-6,4.3 -8.8-3.7" fill="none" stroke="#ffffff" stroke-width="1.1"></path><path d="M641.9,1165.7q2,6.4 2.7,7.7q1.1-2.5 1.7-7q.1-.6 2.5-2q.9-.5 1.4,7.7q1.8-1.2 4-3.8q3.5-4.2 7.5,1.3" fill="none" stroke="#ffffff" stroke-width="1.3"></path><path d="M669.9,1173.8q3.1-1.6 5-4.2q4.9-5.1 9.1-9.1q.7-.6 1.8-4.4q.1,4 -.5,11.3q-.1,4.1 -.1,7.4" fill="none" stroke="#ffffff" stroke-width="1.4"></path><path d="M673.6,1168.4q.1-2.4 3.1-3q3-.6 15.5,.8" fill="none" stroke="#ffffff" stroke-width="1.2"></path><path d="M-199.1,1259.4q-.3,5.5 1.2,9q1.5,2.9 2.9,5.3" fill="none" stroke="#ffffff" stroke-width="1.1"></path><path d="M-196.5,1258.6q.7-.7 3.5-3.6q3.5-3.6 7.1,4.9q1.7,4.1 -5.4,4.1q-.2,0 -1.1-.3" fill="none" stroke="#ffffff" stroke-width="1.1"></path><path d="M-167,1261.5q7.7-1.3 12.7-1.6" fill="none" stroke="#ffffff" stroke-width="1.1"></path><path d="M-165.1,1264.1q3.1-.2 5.6-.4" fill="none" stroke="#ffffff" stroke-width="1.1"></path><path d="M-130.3,1260.1q-.5,.2 -.9,.4q-5.1,2.2 1.7,11.9q2.3,3.2 7.8-6.5q2.1-3.7 2.5-5.2q-.2,1 -.6,2.8q-.3,1.5 4.3,4.3" fill="none" stroke="#ffffff" stroke-width="1.1"></path><path d="M-110,1265q-.3,.2 -.6,.4" fill="none" stroke="#ffffff" stroke-width="1.1"></path><path d="M-100.5,1261.1q1.6,10.6 2.5,12.3" fill="none" stroke="#ffffff" stroke-width="1.1"></path><path d="M-106.5,1257q.3-.4 1.3-1.9q.5-.8 11.5-.8" fill="none" stroke="#ffffff" stroke-width="1.1"></path><path d="M-103.4,1275.8q13.8-2.3 18.7-2.7" fill="none" stroke="#ffffff" stroke-width="1.1"></path><path d="M-36.6,1257.8q8.1,.1 11.7,.1" fill="none" stroke="#ffffff" stroke-width="1.1"></path><path d="M-34.2,1263.5q7.7-.8 8.9-.9" fill="none" stroke="#ffffff" stroke-width="1.1"></path><path d="M55.2,1254.2q-2.8,5.1 -2.3,6q2.8,1.2 5.5,1.5q2.9,.3 1.5,4.6q-1.1,3.3 -8.3,2.1" fill="none" stroke="#ffffff" stroke-width="1.1"></path><path d="M49.5,1252.6q9.2-1.2 11.8-1.2" fill="none" stroke="#ffffff" stroke-width="1.1"></path><path d="M72.7,1254.1q2.7,8.7 5.6,11.6q.4,.4 2.6-1.3q3-6.1 4.5-11.8q.1-.4 1.5-1.4" fill="none" stroke="#ffffff" stroke-width="1.1"></path><path d="M102.4,1262.5q.2-.4 .8-2.2" fill="none" stroke="#ffffff" stroke-width="1.1"></path><path d="M122.3,1262.2q-1.9-4.9 -1.3-7q1.2-4.3 9.4-1.8q4,1.3 1.6,10.1q-1.4,5.2 -10.9,1" fill="none" stroke="#ffffff" stroke-width="1.1"></path><path d="M139.2,1267.6q-1.7-1.2 -1.5-1.5" fill="none" stroke="#ffffff" stroke-width="1.1"></path><path d="M149.7,1255.6q.8,1 1.5,1.9q3.5,4.1 6.4,7.5q-3.3,1.2 -8.6,1.3" fill="none" stroke="#ffffff" stroke-width="1.1"></path><path d="M148.1,1252.3q4.1-1.2 8-1.2" fill="none" stroke="#ffffff" stroke-width="1.1"></path><path d="M174,1265.6q9.2-7.1 12.7-13.6q1.4-2.6 1.2,3.7q.7,4.6 1.7,8.3" fill="none" stroke="#ffffff" stroke-width="1.1"></path><path d="M180.2,1261.7q.7-.4 3.6-1.8q1.7-.9 9.6,1" fill="none" stroke="#ffffff" stroke-width="1.1"></path><path d="M213.9,1257.3q8.1-.9 12.4-.9" fill="none" stroke="#ffffff" stroke-width="1.1"></path><path d="M219.2,1263.3q3.7-.2 6.8-.3" fill="none" stroke="#ffffff" stroke-width="1.1"></path><path d="M279,1257.8q.5-2.3 2.5-3.4q7.5-4.1 10.6,3.9q.6,1.5 -5.2,8.9q-.6,.8 8.2,3.3" fill="none" stroke="#ffffff" stroke-width="1.2"></path><path d="M303.9,1268.8q1.5-.4 2.7-.8" fill="none" stroke="#ffffff" stroke-width="1.1"></path><path d="M322.1,1258.9q-5.3,2.9 -6,3.6q2.9,1.9 7.8,2.9q2.2,.5 0,4.4q-1.9,3.3 -6.1,1.9" fill="none" stroke="#ffffff" stroke-width="1.1"></path><path d="M318.7,1253.9q7.4-.7 9.1-.5" fill="none" stroke="#ffffff" stroke-width="1.1"></path><path d="M345.8,1255.8q4.1,10.1 4.8,12.5q1-2 1.8-5.7q.1-.6 .6,2.8q.3,2.4 7.7,.8q5.3-5.8 8.6-12.2" fill="none" stroke="#ffffff" stroke-width="1.3"></path><path d="M141.2,334.2q4.1-6.4 8.3-9.6q7.6-5.8 6.6,10.2q-.8,7.3 -1.5,13.3q-.4,3.6 17.5,3.3" fill="none" stroke="#ffffff" stroke-width="2.1"></path><path d="M1199.8,401.9q.9-2.5 1.7-4.6q.4-1.1 11.6-1.1q7,0 -2.9,19.8q-1.1,2.3 7,1.5q.3,0 1.7-.3" fill="none" stroke="#ffffff" stroke-width="1.8"></path><path d="M1236.1,403.4q-1.6,5 0,6.6q8.5,8.5 .4,10q-.4,.1 -1.9-.5" fill="none" stroke="#ffffff" stroke-width="1.8"></path><path d="M1236.6,399.5q9.1-1.6 14.1-1.7" fill="none" stroke="#ffffff" stroke-width="1.8"></path><path d="M508.3,402.8q.2,.2 0,.2q-.2,0 -.2-.2q0-.2 .2-.2q.2,0 .2,.2" fill="none" stroke="#ffffff" stroke-width="1.8"></path><path d="M513.5,401.3q6.6-.8 8,.7q4.4,4.7 -7.2,15.6q-1.1,1 15.4,1" fill="none" stroke="#ffffff" stroke-width="1.8"></path><path d="M894.7,399.6q-1.5,8 .2,7.8q10.4-1.2 2.3,6.5q-5.5,5.2 -10.1,5.5" fill="none" stroke="#ffffff" stroke-width="1.7"></path><path d="M888.3,397.1q1.5-.9 7.7-4.6q3.5-.1 6.5,.5" fill="none" stroke="#ffffff" stroke-width="1.7"></path><path d="M920.1,405.9q2.3-3.8 5.5-4.9q8.2-2.8 7,15.7q-.2,3.1 -11.4-2.5q-5.1-2.6 -3.5-7.5" fill="none" stroke="#ffffff" stroke-width="1.7"></path><path d="M155.5,402.2q9.8-.6 8.2,2.9q-.8,1.8 -5.8,8.2q-5.5,7 7.8,7.8q2.2,.1 11,0" fill="none" stroke="#ffffff" stroke-width="1.7"></path></svg>