<svg viewBox="-702.8 -145.8 4990.65 3721.45" width="4990.65" height="3721.45" version="1.1" baseProfile="full" xmlns="http://www.w3.org/2000/svg" class="js-draw--autoresize"><style id="js-draw-style-sheet">path{stroke-linecap:round;stroke-linejoin:round;}text{white-space:pre;}</style><g class="js-draw-image-background js-draw-image-background-grid js-draw-image-background-grid-25"><path d="M4287.85,3575.65l0-3721.45l-4990.65,1.7053025658242404e-13l0,3721.45l4990.65,0" fill="#000000"></path><path d="M-703.15,-125l4991.35,0m-4991.35,25l4991.35,0m-4991.35,25l4991.35,0m-4991.35,25l4991.35,0m-4991.35,25l4991.35,0m-4991.35,25l4991.35,0m-4991.35,25l4991.35,0m-4991.35,25l4991.35,0m-4991.35,25l4991.35,0m-4991.35,25l4991.35,0m-4991.35,25l4991.35,0m-4991.35,25l4991.35,0m-4991.35,25l4991.35,0m-4991.35,25l4991.35,0m-4991.35,25l4991.35,0m-4991.35,25l4991.35,0m-4991.35,25l4991.35,0m-4991.35,25l4991.35,0m-4991.35,25l4991.35,0m-4991.35,25l4991.35,0m-4991.35,25l4991.35,0m-4991.35,25l4991.35,0m-4991.35,25l4991.35,0m-4991.35,25l4991.35,0m-4991.35,25l4991.35,0m-4991.35,25l4991.35,0m-4991.35,25l4991.35,0m-4991.35,25l4991.35,0m-4991.35,25l4991.35,0m-4991.35,25l4991.35,0m-4991.35,25l4991.35,0m-4991.35,25l4991.35,0m-4991.35,25l4991.35,0m-4991.35,25l4991.35,0m-4991.35,25l4991.35,0m-4991.35,25l4991.35,0m-4991.35,25l4991.35,0m-4991.35,25l4991.35,0m-4991.35,25l4991.35,0m-4991.35,25l4991.35,0m-4991.35,25l4991.35,0m-4991.35,25l4991.35,0m-4991.35,25l4991.35,0m-4991.35,25l4991.35,0m-4991.35,25l4991.35,0m-4991.35,25l4991.35,0m-4991.35,25l4991.35,0m-4991.35,25l4991.35,0m-4991.35,25l4991.35,0m-4991.35,25l4991.35,0m-4991.35,25l4991.35,0m-4991.35,25l4991.35,0m-4991.35,25l4991.35,0m-4991.35,25l4991.35,0m-4991.35,25l4991.35,0m-4991.35,25l4991.35,0m-4991.35,25l4991.35,0m-4991.35,25l4991.35,0m-4991.35,25l4991.35,0m-4991.35,25l4991.35,0m-4991.35,25l4991.35,0m-4991.35,25l4991.35,0m-4991.35,25l4991.35,0m-4991.35,25l4991.35,0m-4991.35,25l4991.35,0m-4991.35,25l4991.35,0m-4991.35,25l4991.35,0m-4991.35,25l4991.35,0m-4991.35,25l4991.35,0m-4991.35,25l4991.35,0m-4991.35,25l4991.35,0m-4991.35,25l4991.35,0m-4991.35,25l4991.35,0m-4991.35,25l4991.35,0m-4991.35,25l4991.35,0m-4991.35,25l4991.35,0m-4991.35,25l4991.35,0m-4991.35,25l4991.35,0m-4991.35,25l4991.35,0m-4991.35,25l4991.35,0m-4991.35,25l4991.35,0m-4991.35,25l4991.35,0m-4991.35,25l4991.35,0m-4991.35,25l4991.35,0m-4991.35,25l4991.35,0m-4991.35,25l4991.35,0m-4991.35,25l4991.35,0m-4991.35,25l4991.35,0m-4991.35,25l4991.35,0m-4991.35,25l4991.35,0m-4991.35,25l4991.35,0m-4991.35,25l4991.35,0m-4991.35,25l4991.35,0m-4991.35,25l4991.35,0m-4991.35,25l4991.35,0m-4991.35,25l4991.35,0m-4991.35,25l4991.35,0m-4991.35,25l4991.35,0m-4991.35,25l4991.35,0m-4991.35,25l4991.35,0m-4991.35,25l4991.35,0m-4991.35,25l4991.35,0m-4991.35,25l4991.35,0m-4991.35,25l4991.35,0m-4991.35,25l4991.35,0m-4991.35,25l4991.35,0m-4991.35,25l4991.35,0m-4991.35,25l4991.35,0m-4991.35,25l4991.35,0m-4991.35,25l4991.35,0m-4991.35,25l4991.35,0m-4991.35,25l4991.35,0m-4991.35,25l4991.35,0m-4991.35,25l4991.35,0m-4991.35,25l4991.35,0m-4991.35,25l4991.35,0m-4991.35,25l4991.35,0m-4991.35,25l4991.35,0m-4991.35,25l4991.35,0m-4991.35,25l4991.35,0m-4991.35,25l4991.35,0m-4991.35,25l4991.35,0m-4991.35,25l4991.35,0m-4991.35,25l4991.35,0m-4991.35,25l4991.35,0m-4991.35,25l4991.35,0m-4991.35,25l4991.35,0m-4991.35,25l4991.35,0m-4991.35,25l4991.35,0m-4991.35,25l4991.35,0m-4991.35,25l4991.35,0m-4991.35,25l4991.35,0m-4991.35,25l4991.35,0m-4991.35,25l4991.35,0m-4991.35,25l4991.35,0m-4991.35,25l4991.35,0m-4991.35,25l4991.35,0m-4991.35,25l4991.35,0m-4991.35,25l4991.35,0m-4991.35,25l4991.35,0m-4991.35,25l4991.35,0m-4991.35,25l4991.35,0m-4991.35,25l4991.35,0m-4991.35,25l4991.35,0m-4991.35,25l4991.35,0m-4991.35,25l4991.35,0m-4991.35,25l4991.35,0m-4991.35,25l4991.35,0m-4991.35,25l4991.35,0m-4988.2-3721.15l0,3722.15m25-3722.15l0,3722.15m25-3722.15l0,3722.15m25-3722.15l0,3722.15m25-3722.15l0,3722.15m25-3722.15l0,3722.15m25-3722.15l0,3722.15m25-3722.15l0,3722.15m25-3722.15l0,3722.15m25-3722.15l0,3722.15m25-3722.15l0,3722.15m25-3722.15l0,3722.15m25-3722.15l0,3722.15m25-3722.15l0,3722.15m25-3722.15l0,3722.15m25-3722.15l0,3722.15m25-3722.15l0,3722.15m25-3722.15l0,3722.15m25-3722.15l0,3722.15m25-3722.15l0,3722.15m25-3722.15l0,3722.15m25-3722.15l0,3722.15m25-3722.15l0,3722.15m25-3722.15l0,3722.15m25-3722.15l0,3722.15m25-3722.15l0,3722.15m25-3722.15l0,3722.15m25-3722.15l0,3722.15m25-3722.15l0,3722.15m25-3722.15l0,3722.15m25-3722.15l0,3722.15m25-3722.15l0,3722.15m25-3722.15l0,3722.15m25-3722.15l0,3722.15m25-3722.15l0,3722.15m25-3722.15l0,3722.15m25-3722.15l0,3722.15m25-3722.15l0,3722.15m25-3722.15l0,3722.15m25-3722.15l0,3722.15m25-3722.15l0,3722.15m25-3722.15l0,3722.15m25-3722.15l0,3722.15m25-3722.15l0,3722.15m25-3722.15l0,3722.15m25-3722.15l0,3722.15m25-3722.15l0,3722.15m25-3722.15l0,3722.15m25-3722.15l0,3722.15m25-3722.15l0,3722.15m25-3722.15l0,3722.15m25-3722.15l0,3722.15m25-3722.15l0,3722.15m25-3722.15l0,3722.15m25-3722.15l0,3722.15m25-3722.15l0,3722.15m25-3722.15l0,3722.15m25-3722.15l0,3722.15m25-3722.15l0,3722.15m25-3722.15l0,3722.15m25-3722.15l0,3722.15m25-3722.15l0,3722.15m25-3722.15l0,3722.15m25-3722.15l0,3722.15m25-3722.15l0,3722.15m25-3722.15l0,3722.15m25-3722.15l0,3722.15m25-3722.15l0,3722.15m25-3722.15l0,3722.15m25-3722.15l0,3722.15m25-3722.15l0,3722.15m25-3722.15l0,3722.15m25-3722.15l0,3722.15m25-3722.15l0,3722.15m25-3722.15l0,3722.15m25-3722.15l0,3722.15m25-3722.15l0,3722.15m25-3722.15l0,3722.15m25-3722.15l0,3722.15m25-3722.15l0,3722.15m25-3722.15l0,3722.15m25-3722.15l0,3722.15m25-3722.15l0,3722.15m25-3722.15l0,3722.15m25-3722.15l0,3722.15m25-3722.15l0,3722.15m25-3722.15l0,3722.15m25-3722.15l0,3722.15m25-3722.15l0,3722.15m25-3722.15l0,3722.15m25-3722.15l0,3722.15m25-3722.15l0,3722.15m25-3722.15l0,3722.15m25-3722.15l0,3722.15m25-3722.15l0,3722.15m25-3722.15l0,3722.15m25-3722.15l0,3722.15m25-3722.15l0,3722.15m25-3722.15l0,3722.15m25-3722.15l0,3722.15m25-3722.15l0,3722.15m25-3722.15l0,3722.15m25-3722.15l0,3722.15m25-3722.15l0,3722.15m25-3722.15l0,3722.15m25-3722.15l0,3722.15m25-3722.15l0,3722.15m25-3722.15l0,3722.15m25-3722.15l0,3722.15m25-3722.15l0,3722.15m25-3722.15l0,3722.15m25-3722.15l0,3722.15m25-3722.15l0,3722.15m25-3722.15l0,3722.15m25-3722.15l0,3722.15m25-3722.15l0,3722.15m25-3722.15l0,3722.15m25-3722.15l0,3722.15m25-3722.15l0,3722.15m25-3722.15l0,3722.15m25-3722.15l0,3722.15m25-3722.15l0,3722.15m25-3722.15l0,3722.15m25-3722.15l0,3722.15m25-3722.15l0,3722.15m25-3722.15l0,3722.15m25-3722.15l0,3722.15m25-3722.15l0,3722.15m25-3722.15l0,3722.15m25-3722.15l0,3722.15m25-3722.15l0,3722.15m25-3722.15l0,3722.15m25-3722.15l0,3722.15m25-3722.15l0,3722.15m25-3722.15l0,3722.15m25-3722.15l0,3722.15m25-3722.15l0,3722.15m25-3722.15l0,3722.15m25-3722.15l0,3722.15m25-3722.15l0,3722.15m25-3722.15l0,3722.15m25-3722.15l0,3722.15m25-3722.15l0,3722.15m25-3722.15l0,3722.15m25-3722.15l0,3722.15m25-3722.15l0,3722.15m25-3722.15l0,3722.15m25-3722.15l0,3722.15m25-3722.15l0,3722.15m25-3722.15l0,3722.15m25-3722.15l0,3722.15m25-3722.15l0,3722.15m25-3722.15l0,3722.15m25-3722.15l0,3722.15m25-3722.15l0,3722.15m25-3722.15l0,3722.15m25-3722.15l0,3722.15m25-3722.15l0,3722.15m25-3722.15l0,3722.15m25-3722.15l0,3722.15m25-3722.15l0,3722.15m25-3722.15l0,3722.15m25-3722.15l0,3722.15m25-3722.15l0,3722.15m25-3722.15l0,3722.15m25-3722.15l0,3722.15m25-3722.15l0,3722.15m25-3722.15l0,3722.15m25-3722.15l0,3722.15m25-3722.15l0,3722.15m25-3722.15l0,3722.15m25-3722.15l0,3722.15m25-3722.15l0,3722.15m25-3722.15l0,3722.15m25-3722.15l0,3722.15m25-3722.15l0,3722.15m25-3722.15l0,3722.15m25-3722.15l0,3722.15m25-3722.15l0,3722.15m25-3722.15l0,3722.15m25-3722.15l0,3722.15m25-3722.15l0,3722.15m25-3722.15l0,3722.15m25-3722.15l0,3722.15m25-3722.15l0,3722.15m25-3722.15l0,3722.15m25-3722.15l0,3722.15m25-3722.15l0,3722.15m25-3722.15l0,3722.15m25-3722.15l0,3722.15m25-3722.15l0,3722.15m25-3722.15l0,3722.15m25-3722.15l0,3722.15m25-3722.15l0,3722.15m25-3722.15l0,3722.15m25-3722.15l0,3722.15m25-3722.15l0,3722.15m25-3722.15l0,3722.15m25-3722.15l0,3722.15m25-3722.15l0,3722.15" fill="none" stroke="#ffffff33" stroke-width=".7"></path></g><path d="M-254,144q-3.8,3.8 -7,7q-8.3,8.3 5,15q16,8 16-18q-1.3,9.4 -3,27q1.2,8.8 3,16" fill="none" stroke="#ffffff" stroke-width="1.6"></path><path d="M-212,166q6-2 12-2q-.3,6.3 -4,14q.4,1.1 1,2" fill="none" stroke="#ffffff" stroke-width="1.6"></path><path d="M-162,141q-13,8 -17,15q-9.7,17 15,17q.7,0 3-2" fill="none" stroke="#ffffff" stroke-width="1.6"></path><path d="M-147,141q-5,14 -6,23q.3,5.5 1,10" fill="none" stroke="#ffffff" stroke-width="1.6"></path><path d="M-155,160q3.3,0 6,0" fill="none" stroke="#ffffff" stroke-width="1.6"></path><path d="M-130,144q9,24.4 9,27q0,3.5 -7,0" fill="none" stroke="#ffffff" stroke-width="1.6"></path><path d="M-83,150q7-1 12-1" fill="none" stroke="#ffffff" stroke-width="1.6"></path><path d="M-84,162q19-2 22-3" fill="none" stroke="#ffffff" stroke-width="1.6"></path><path d="M-20,168q23.7-27.8 26-37q.8,11.6 0,33q-.1,1.5 2,7" fill="none" stroke="#ffffff" stroke-width="1.6"></path><path d="M-13,168q1.7,.6 3,1q2.3,.8 12-2" fill="none" stroke="#ffffff" stroke-width="1.6"></path><path d="M25,166q-12,7 -13,10" fill="none" stroke="#ffffff" stroke-width="1.6"></path><path d="M11,171q5-4 9-4q4,0 4,7" fill="none" stroke="#ffffff" stroke-width="1.6"></path><path d="M83,146q-13,0 -16,2q-4.8,3.2 10,15q1,.8 4,5q-5.1,1.5 -13,1" fill="none" stroke="#ffffff" stroke-width="1.6"></path><path d="M90,162q1,6 1,7" fill="none" stroke="#ffffff" stroke-width="1.6"></path><path d="M91,144q0,.6 0,1" fill="none" stroke="#ffffff" stroke-width="1.6"></path><path d="M113,152q1,16 1,18q1.8-4.1 4-12q3.9,2.5 8,8q3.1,1.4 6,2" fill="none" stroke="#ffffff" stroke-width="1.6"></path><path d="M164,133q-12,8 -16,16q-7.6,15.2 10,24" fill="none" stroke="#ffffff" stroke-width="1.6"></path><path d="M187,143q-8,7 -10,15q-2.7,10.9 9,5q2.9-3 5-6q2.8,2.8 5,8q1.2,2.9 15-4q8.3-4.1 3-12q-.1-.2 -1,0" fill="none" stroke="#ffffff" stroke-width="1.6"></path><path d="M242,129q-7,8 -8,13q1.4,12.1 4,22q-.4,1.7 -1,3" fill="none" stroke="#ffffff" stroke-width="1.6"></path><path d="M225,153q17,0 23,2" fill="none" stroke="#ffffff" stroke-width="1.6"></path><path d="M279,139q2,14 2,20" fill="none" stroke="#ffffff" stroke-width="1.6"></path><path d="M277,147q1.2,.6 6,3" fill="none" stroke="#ffffff" stroke-width="1.6"></path><path d="M306,158q25.7-9 29-14q2.3-3.4 -3-6q-6.3-3.1 -17,14q-9,14.5 10,24" fill="none" stroke="#ffffff" stroke-width="1.6"></path><path d="M334,168q14-8 22-12q.8,5.7 -1,14q-.3,1.3 3,6" fill="none" stroke="#ffffff" stroke-width="1.6"></path><path d="M373,140q8,6 12,15q4.9,11.1 -3,27" fill="none" stroke="#ffffff" stroke-width="1.6"></path><path d="M-269,242q-4,10 -3,13q2.7,8 23-1q1.4-.6 4-11q.6,15.5 -1,44q-.6,11 1,11" fill="none" stroke="#ffffff" stroke-width="1.6"></path><path d="M-220,262q6-3 8-3q2,0 -3,20q-.5,2 10,2" fill="none" stroke="#ffffff" stroke-width="1.6"></path><path d="M-177,235q-7,21 -7,32q0,13 14,11" fill="none" stroke="#ffffff" stroke-width="1.6"></path><path d="M-155,235q-2.1,27.5 0,36" fill="none" stroke="#ffffff" stroke-width="1.6"></path><path d="M-160,255q1,.2 5,1" fill="none" stroke="#ffffff" stroke-width="1.6"></path><path d="M-138,242q.8-.2 4-1q2.5-.6 7,22q1.8,9.2 -1,12" fill="none" stroke="#ffffff" stroke-width="1.6"></path><path d="M-88,246q.6-1 3-5q2.5-4.2 18,1" fill="none" stroke="#ffffff" stroke-width="1.6"></path><path d="M-78,252q.2-.2 1-1q3.3-3.3 23,0" fill="none" stroke="#ffffff" stroke-width="1.6"></path><path d="M-3,266Q6.4,243.5 10,229Q11.1,238.5 11,256Q11,257 12,261" fill="none" stroke="#ffffff" stroke-width="1.6"></path><path d="M2,256Q6,255 8,255" fill="none" stroke="#ffffff" stroke-width="1.6"></path><path d="M21,254q1,0 5,0q7.4,0 4,17q-.8,4 8,4" fill="none" stroke="#ffffff" stroke-width="1.6"></path><path d="M86,241q-2.4,1.8 -12,9q3.7,5.9 11,11q5.8,4.1 -3,7q-4.4-.2 -8-1q-.6-.1 3,0" fill="none" stroke="#ffffff" stroke-width="1.6"></path><path d="M96,260q0,9 1,11" fill="none" stroke="#ffffff" stroke-width="1.6"></path><path d="M96,248q-.2-.2 -1-1" fill="none" stroke="#ffffff" stroke-width="1.6"></path><path d="M116,252q3,10 3,13q0,1.5 3-7q1.4-4 15-4q5.1,5.9 8,13" fill="none" stroke="#ffffff" stroke-width="1.6"></path><path d="M168,234q-4,18 -4,23q3.2,10 7,18" fill="none" stroke="#ffffff" stroke-width="1.6"></path><path d="M195,243q-6.8,13.6 -5,19q2.8,8.5 7-4q.4-1.2 2,6q2.4,10.7 18-1q3-2.2 3-10" fill="none" stroke="#ffffff" stroke-width="1.7"></path><path d="M241,230q-3,11 -3,20q0,3.6 8,16q.8,3.7 1,7" fill="none" stroke="#ffffff" stroke-width="1.6"></path><path d="M231,257q9-1 16,1" fill="none" stroke="#ffffff" stroke-width="1.6"></path><path d="M275,249q2,10 3,14" fill="none" stroke="#ffffff" stroke-width="1.6"></path><path d="M272,256q1.2,0 6,0" fill="none" stroke="#ffffff" stroke-width="1.6"></path><path d="M311,257q21.2-2.2 25-6q2-2 -3-7q-6.5,3.4 -12,10q-14.1,16.9 6,29q1.7,1.1 3,2" fill="none" stroke="#ffffff" stroke-width="1.8"></path><path d="M345,264q2-3 6-5q6-3 6,11q0,9.5 15,2" fill="none" stroke="#ffffff" stroke-width="1.6"></path><path d="M382,241q8,21.7 8,36q-.4,2.2 -1,4" fill="none" stroke="#ffffff" stroke-width="1.7"></path><path d="M470,138q6.6,.6 12,1" fill="none" stroke="#ffffff" stroke-width="1.6"></path><path d="M468,150q4.2-.4 21-2" fill="none" stroke="#ffffff" stroke-width="1.6"></path><path d="M562,168q13.1-17 18-35q2.9-10.7 8,2q1.7,11.4 2,21q1.8,7.2 4,13" fill="none" stroke="#ffffff" stroke-width="1.6"></path><path d="M570,159q6-3 14-3q2.4,0 12,2" fill="none" stroke="#ffffff" stroke-width="1.6"></path><path d="M614,172q10-9 12-8q2,1 2,18" fill="none" stroke="#ffffff" stroke-width="1.6"></path><path d="M665,153q-4-2 -8,0q-2.7,1.4 3,10q4.8,7.1 -3,11" fill="none" stroke="#ffffff" stroke-width="1.6"></path><path d="M684,160q-1,9 -2,9" fill="none" stroke="#ffffff" stroke-width="1.6"></path><path d="M684,141q-.2,0 -1,0" fill="none" stroke="#ffffff" stroke-width="1.6"></path><path d="M700,157q0,6 1,4q5.4-10.8 19-4q9,4.5 9,11" fill="none" stroke="#ffffff" stroke-width="1.6"></path><path d="M762,135q.2,.2 0,.2q-.2,0 -.2-.2q0-.2 .2-.2q.2,0 .2,.2" fill="none" stroke="#ffffff" stroke-width="1.6"></path><path d="M761,134q-10,11 -14,19q-3.7,7.3 5,16" fill="none" stroke="#ffffff" stroke-width="1.6"></path><path d="M770,145q-5.7,9.1 -4,16q1.4,5.6 10-3q.3-.3 0,2q3.1,2.6 7,4q5.1,1.8 11-10" fill="none" stroke="#ffffff" stroke-width="1.6"></path><path d="M817,136q-1,19 -1,28" fill="none" stroke="#ffffff" stroke-width="1.6"></path><path d="M805,155q14-1 15-1" fill="none" stroke="#ffffff" stroke-width="1.6"></path><path d="M834,131q10,25 10,32q0,8 -10,3" fill="none" stroke="#ffffff" stroke-width="1.6"></path><path d="M889,142q-7-1 -12,3q-12.3,9.8 -6,14q2.5,1.7 15,2" fill="none" stroke="#ffffff" stroke-width="1.6"></path><path d="M901,156q-2-4 -2-7q0-9 10,6q1.3,1.9 -8,5q-1,.3 -5-2" fill="none" stroke="#ffffff" stroke-width="1.6"></path><path d="M930,148q-1-5 -4-4q-6.8,2.3 3,17q6.4,9.5 -10,3q-1.6-.6 -6-6" fill="none" stroke="#ffffff" stroke-width="1.6"></path><path d="M955,130q-10,6 -15,14q-6.5,10.4 11,22q.8,.6 4,3" fill="none" stroke="#ffffff" stroke-width="1.6"></path><path d="M959,163q26.3-8 28-13q2.3-7 -5-7q-2.5,0 -9,9q-2,5.9 -3,11q-.8,4.2 13,18" fill="none" stroke="#ffffff" stroke-width="1.7"></path><path d="M991,166q4-5 11-8q9-3.9 10-1q.2,10.4 -1,19" fill="none" stroke="#ffffff" stroke-width="1.6"></path><path d="M1035,133q8.1,32.5 7,37q-1.5,2.3 -3,4" fill="none" stroke="#ffffff" stroke-width="1.7"></path><path d="M1086,130q-1.1,25.1 -3,27" fill="none" stroke="#ffffff" stroke-width="1.6"></path><path d="M1072,154q16-1 18-1" fill="none" stroke="#ffffff" stroke-width="1.6"></path><path d="M1118,158q21.3-14.2 27-27q1,.6 2,2q1.7,11.7 1,22" fill="none" stroke="#ffffff" stroke-width="1.6"></path><path d="M1131,152q-.2,0 -1,0q-2.6,0 13,1" fill="none" stroke="#ffffff" stroke-width="1.6"></path><path d="M1152,157q21.9-2.6 25-1q1.4,.7 0,8" fill="none" stroke="#ffffff" stroke-width="1.6"></path><path d="M1225,139q-7,2 -10,5q-7.4,7.4 4,15q4.3,1.4 8,2" fill="none" stroke="#ffffff" stroke-width="1.6"></path><path d="M1241,157q-3-8 -3-11q0-3.5 10-1q9.4,2.4 3,12q-1.3,2 -10,2" fill="none" stroke="#ffffff" stroke-width="1.6"></path><path d="M1272,142q-1-3 -3-2q-3.8,1.9 1,14q7.8,19.4 -9,11" fill="none" stroke="#ffffff" stroke-width="1.6"></path><path d="M1303,126q-15,16 -19,24q-4.1,8.3 12,19" fill="none" stroke="#ffffff" stroke-width="1.6"></path><path d="M1323,142q-4,10 -2,14q3.5,7 10-6q1.1-2.1 0,12q-.2,2.7 13,3q13,.3 13-26" fill="none" stroke="#ffffff" stroke-width="1.6"></path><path d="M1382,127q-2,18.7 -2,38" fill="none" stroke="#ffffff" stroke-width="1.6"></path><path d="M1367,149q15-1 18-1" fill="none" stroke="#ffffff" stroke-width="1.6"></path><path d="M1392,133q12,10 13,16q1.9,11.4 -2,14q-1.1,.7 -6,2" fill="none" stroke="#ffffff" stroke-width="1.6"></path><path d="M1454,141q-11.5-5.7 -15-4q-10,5 9,24q1.4,1.4 -9,4q-1.1-.4 -2-1" fill="none" stroke="#ffffff" stroke-width="1.6"></path><path d="M1462,160q-1,6 -1,7" fill="none" stroke="#ffffff" stroke-width="1.6"></path><path d="M1461,140q-.5-.6 -1-1" fill="none" stroke="#ffffff" stroke-width="1.6"></path><path d="M1478,147q4,14 5,17q.4,1.3 5-5" fill="none" stroke="#ffffff" stroke-width="1.6"></path><path d="M1493,156q12,8 17,9" fill="none" stroke="#ffffff" stroke-width="1.6"></path><path d="M1538,122q-7.7,7.7 -14,14q-4.9,4.9 -2,28q4.2,5.8 9,10" fill="none" stroke="#ffffff" stroke-width="1.7"></path><path d="M1547,158q21.5-10.7 25-16q.7-1.1 -2-6q-1.2-2.1 -10,7q-15.4,15.9 2,29" fill="none" stroke="#ffffff" stroke-width="1.6"></path><path d="M1573,164q17-15.7 22-14q-.3,9.7 -5,20q1.2,.7 3,1" fill="none" stroke="#ffffff" stroke-width="1.6"></path><path d="M1608,138q7,6 11,14q5,10 -10,25" fill="none" stroke="#ffffff" stroke-width="1.6"></path><path d="M469,247q1-.6 5-3q3.1-1.9 18-1" fill="none" stroke="#ffffff" stroke-width="1.6"></path><path d="M470,255q11,2 18,2" fill="none" stroke="#ffffff" stroke-width="1.6"></path><path d="M565,261q0-.6 0-3q0-2.6 7-11q4.8-9.1 8-17q1-2.5 1,35" fill="none" stroke="#ffffff" stroke-width="1.6"></path><path d="M576,255q4-3 6-2" fill="none" stroke="#ffffff" stroke-width="1.6"></path><path d="M609,257q1.8-.6 9-3q10.4-3.5 5,10q-2.6,6.4 -1,8q3,3 9,0" fill="none" stroke="#ffffff" stroke-width="1.6"></path><path d="M681,238q-6-1.1 -11-2q-7.1-1.3 -12,11q-3.3,8.3 10,15q4,2 -8,6q-.8,.3 0-4" fill="none" stroke="#ffffff" stroke-width="1.6"></path><path d="M687,258q0,3.9 0,7" fill="none" stroke="#ffffff" stroke-width="1.6"></path><path d="M687,241q0-.5 0-1" fill="none" stroke="#ffffff" stroke-width="1.6"></path><path d="M710,253q0,6.1 0,11q4.5-1.5 10-6q1.5-1.2 16,6" fill="none" stroke="#ffffff" stroke-width="1.6"></path><path d="M759,229q-9,4 -12,10q-13,26 3,26" fill="none" stroke="#ffffff" stroke-width="1.6"></path><path d="M775,243q-4,5 -5,11q-1.8,10.9 8,6q3.9-2.2 7-4q1.8,1.5 3,4q4,8 11-6q.8-4.3 1-8" fill="none" stroke="#ffffff" stroke-width="1.6"></path><path d="M822,229q-3,17 -2,23q.6,3.3 1,6" fill="none" stroke="#ffffff" stroke-width="1.6"></path><path d="M816,249q6,3 11,3" fill="none" stroke="#ffffff" stroke-width="1.6"></path><path d="M846,222q6.2,11.4 8,24q1.5,10.3 -6,14" fill="none" stroke="#ffffff" stroke-width="1.6"></path><path d="M900,236q-15,2 -20,4q-6.8,2.7 0,14q3,5 20,5" fill="none" stroke="#ffffff" stroke-width="1.6"></path><path d="M909,252q0-7 2-11q1.3-2.7 15,0q5,1 5,14q0,6.8 -19,3q-.6-.1 -2-2" fill="none" stroke="#ffffff" stroke-width="1.6"></path><path d="M952,238q-9-3 -12-3q-11.7,0 14,22q5.3,4.6 -2,7q-7.5,2.5 -15-5" fill="none" stroke="#ffffff" stroke-width="1.6"></path><path d="M973,237q-7,7 -7,18q0,15 3,15" fill="none" stroke="#ffffff" stroke-width="1.6"></path><path d="M996,251q22.5-4.5 26-8q2.8-2.7 -4-5q-6.9,4.4 -12,11q-8.3,10.7 2,21q2,2 8,2" fill="none" stroke="#ffffff" stroke-width="1.6"></path><path d="M1024,250q16-3 18-2q3.6,1.8 -12,16q-3.3,3 15,3" fill="none" stroke="#ffffff" stroke-width="1.6"></path><path d="M1059,239q10,2 12,6q4.2,8.4 -6,22q-4.2,3 -8,5" fill="none" stroke="#ffffff" stroke-width="1.6"></path><path d="M1100,240q1.3,14.3 2,26" fill="none" stroke="#ffffff" stroke-width="1.6"></path><path d="M1097,254q.6-.6 3-3q1.6-1.6 11,2" fill="none" stroke="#ffffff" stroke-width="1.6"></path><path d="M1150,270q12-19 23-27q7.1-5.1 9-9q.3,6.1 -1,17q-.4,2.9 4,16" fill="none" stroke="#ffffff" stroke-width="1.6"></path><path d="M1166,266q8-1 13-2" fill="none" stroke="#ffffff" stroke-width="1.6"></path><path d="M1189,254q19-3 23-2q5.2,1.3 0,17q-1,3 17,3" fill="none" stroke="#ffffff" stroke-width="1.6"></path><path d="M1263,247q-1.2-.6 -6-3q-9.1-4.6 -15,13q-3.7,11 25,11" fill="none" stroke="#ffffff" stroke-width="1.7"></path><path d="M1277,263q-5-9 -5-13q0-6 15-3q5,1 5,18q0,4.8 -17,2q-1.9-2.3 -3-5" fill="none" stroke="#ffffff" stroke-width="1.6"></path><path d="M1321,249q-19-3 -22-2q5,10.8 17,22q7.4,6.9 -16,3q-2.4-2.4 -4-5" fill="none" stroke="#ffffff" stroke-width="1.7"></path><path d="M1339,236q-9,2 -14,6q-7.8,6.3 -1,25q1.1,3.2 16,5" fill="none" stroke="#ffffff" stroke-width="1.8"></path><path d="M1357,246q-11,10 -13,14q-6.1,12.3 11,8q4.3-1.1 7-12q-.1,4.9 -1,14q-.3,3.1 19,1q9-1 9-17q-1.3-1.3 -3-2" fill="none" stroke="#ffffff" stroke-width="1.7"></path><path d="M1405,229q-4,11 -3,17q.5,3.1 7,14q.7,1.2 1,7" fill="none" stroke="#ffffff" stroke-width="1.6"></path><path d="M1395,260q5-1 11,1q2,.7 10,4" fill="none" stroke="#ffffff" stroke-width="1.6"></path><path d="M1433,234q5,4 7,10q7.5,22.5 -2,32" fill="none" stroke="#ffffff" stroke-width="1.6"></path><path d="M1481,247q-4-2 -7-1q-8.2,2.8 12,23q3,3 -14,3" fill="none" stroke="#ffffff" stroke-width="1.8"></path><path d="M1504,262q-1,9 -2,10" fill="none" stroke="#ffffff" stroke-width="1.6"></path><path d="M1503,244q.2,.2 0,.2q-.2,0 -.2-.2q0-.2 .2-.2q.2,0 .2,.2" fill="none" stroke="#ffffff" stroke-width="1.6"></path><path d="M1524,252q1,15 1,17q1.4-4.5 3-13q1-5 17,11q2.2,1.7 4,3" fill="none" stroke="#ffffff" stroke-width="1.6"></path><path d="M1576,228q-1.2,2.4 -6,12q-8.6,17.1 2,33q.2,.4 2,1" fill="none" stroke="#ffffff" stroke-width="1.9"></path><path d="M1581,252q26.3-3.6 28-7q2.8-5.6 -8-2q-13.9,4.6 -10,28q.8,5 9,5" fill="none" stroke="#ffffff" stroke-width="1.8"></path><path d="M1610,256q4-5 12-6q12.3-1.5 9,15q-.2,.9 2,4q.6,.8 5-1" fill="none" stroke="#ffffff" stroke-width="1.7"></path><path d="M1657,223q10.1,37.5 8,50q-1.9,2.4 -4,4" fill="none" stroke="#ffffff" stroke-width="2"></path><path d="M-263,396q-2,10 -1,20q1.2,12 25-5q2-1.4 2-13q0-.8 -4,0q-1.5,.3 7,43q2.2,11 5,11" fill="none" stroke="#ffffff" stroke-width="1.7"></path><path d="M-219,416q6-7 10-9q3.4,9.3 3,23" fill="none" stroke="#ffffff" stroke-width="1.6"></path><path d="M-176,377q-.4,0 -2,0q-3.3,0 -6,30q-1.3,14.2 10,17" fill="none" stroke="#ffffff" stroke-width="1.6"></path><path d="M-154,373q-5,20 -6,26q2.4,8.9 6,16" fill="none" stroke="#ffffff" stroke-width="1.6"></path><path d="M-167,403q9-2 11-2" fill="none" stroke="#ffffff" stroke-width="1.6"></path><path d="M-143,377q3,13 10,20q13.5,13.5 4,23q-.3,.3 -2,0" fill="none" stroke="#ffffff" stroke-width="1.6"></path><path d="M-74,383q-8,12 -9,17q-.4,1.9 7,7" fill="none" stroke="#ffffff" stroke-width="1.6"></path><path d="M-86,396q16-1 21-1" fill="none" stroke="#ffffff" stroke-width="1.6"></path><path d="M-34,393q-.6,0 -3,0q-2.2,0 -1,11q1.8,15.9 19,3q3-2.2 3-11q2.3,10.8 5,31q1.5,4.4 3,8" fill="none" stroke="#ffffff" stroke-width="1.6"></path><path d="M1,405Q14,401 16,403Q15.6,412.9 12,422Q10.3,426.2 23,422" fill="none" stroke="#ffffff" stroke-width="1.6"></path><path d="M41,373q-10,20 -12,30q-1.5,7.6 11,17q1.1,.9 5-3" fill="none" stroke="#ffffff" stroke-width="1.7"></path><path d="M56,369q-5,21 -5,28q2.7,10 6,18" fill="none" stroke="#ffffff" stroke-width="1.6"></path><path d="M47,398q9-1 16-2" fill="none" stroke="#ffffff" stroke-width="1.6"></path><path d="M71,373q5.4,18.7 10,34q-1.5,5.5 -4,10" fill="none" stroke="#ffffff" stroke-width="1.6"></path><path d="M130,389q11-1 19-2" fill="none" stroke="#ffffff" stroke-width="1.6"></path><path d="M129,398q17-1 26-1" fill="none" stroke="#ffffff" stroke-width="1.6"></path><path d="M199,420q18.2-33 19-34q13-15.2 13-1q2.3,14.9 5,27q.1,.4 -1,2" fill="none" stroke="#ffffff" stroke-width="1.6"></path><path d="M219,405q1.2-.2 6-1q4.4,.3 8,1" fill="none" stroke="#ffffff" stroke-width="1.6"></path><path d="M268,394q-8-3 -10-2q-2.7,1.3 13,17q7,7 -11,7q-.4,0 1-2" fill="none" stroke="#ffffff" stroke-width="1.6"></path><path d="M290,411q0,.8 0,4" fill="none" stroke="#ffffff" stroke-width="1.6"></path><path d="M286,391q-.2,.2 -1,1" fill="none" stroke="#ffffff" stroke-width="1.6"></path><path d="M307,405q4,9 5,7q6.4-12.8 16-7q13.9,8.3 15,10" fill="none" stroke="#ffffff" stroke-width="1.6"></path><path d="M374,372q-15,27.7 -15,40q0,10 10,10" fill="none" stroke="#ffffff" stroke-width="1.7"></path><path d="M389,391q-1.8,.8 -9,4q-4.7,2.1 -1,17q1.1,4.5 16,2q3-.5 3-8q0-1.2 1,6q1.1,7.9 21-2q2-1 0-11" fill="none" stroke="#ffffff" stroke-width="1.6"></path><path d="M433,374q-1.3,20.6 3,32q.7,1.8 5,8" fill="none" stroke="#ffffff" stroke-width="1.6"></path><path d="M430,400q9-2 18-1" fill="none" stroke="#ffffff" stroke-width="1.6"></path><path d="M478,391q0,11.6 0,21" fill="none" stroke="#ffffff" stroke-width="1.6"></path><path d="M467,409q11-2 14,0" fill="none" stroke="#ffffff" stroke-width="1.6"></path><path d="M494,409q13-2 18-5q17-10.2 17-15q0-2.2 -11-2q-9,.2 -9,30q0,21 22,21" fill="none" stroke="#ffffff" stroke-width="1.8"></path><path d="M549,375q1.2,1.6 6,8q7.9,10.5 4,34" fill="none" stroke="#ffffff" stroke-width="1.7"></path><path d="M606,396q12.6,.6 23,1" fill="none" stroke="#ffffff" stroke-width="1.6"></path><path d="M617,408q13.8,0 25,0" fill="none" stroke="#ffffff" stroke-width="1.6"></path><path d="M682,414q.5-2.7 1-5q.7-3.3 14-9q.6-.3 11-21q2.3,7.9 3,22q2.3,8.3 5,15q.3,.8 -2,4" fill="none" stroke="#ffffff" stroke-width="1.6"></path><path d="M695,406q9-3 18-4q1.2-.1 6,0" fill="none" stroke="#ffffff" stroke-width="1.6"></path><path d="M759,398q-5-3 -7-1q-.8,.8 -5,3q4.3,6.2 13,12q2.3,1.5 -1,8q-1,2 -7-4q-.4-.4 2-2" fill="none" stroke="#ffffff" stroke-width="1.6"></path><path d="M778,407q-1,11 -1,13" fill="none" stroke="#ffffff" stroke-width="1.6"></path><path d="M777,394q-.5-1.1 -1-2" fill="none" stroke="#ffffff" stroke-width="1.6"></path><path d="M792,403q3,8 3,10q1.4-2.4 3-7q2-5.7 12,1q1.5,1 6,7" fill="none" stroke="#ffffff" stroke-width="1.6"></path><path d="M838,379q-13,20 -14,25q5.4,9.2 13,16" fill="none" stroke="#ffffff" stroke-width="1.7"></path><path d="M858,399q-8,4 -9,8q-1.7,7 12,7q3,0 6-9q1.6,2.4 3,7q.9,3 15-4q2-1 2-6" fill="none" stroke="#ffffff" stroke-width="1.7"></path><path d="M896,381q2,21 4,27q.5,1.4 2,7" fill="none" stroke="#ffffff" stroke-width="1.6"></path><path d="M893,403q7-1 10-1" fill="none" stroke="#ffffff" stroke-width="1.6"></path><path d="M919,378q12,34.8 12,42q0,.6 -2,2" fill="none" stroke="#ffffff" stroke-width="1.9"></path><path d="M977,395q-1.6-1.6 -3-3q-2.5-2.5 -16,11q2.4,4.4 7,8q2.7,2.1 17,0" fill="none" stroke="#ffffff" stroke-width="1.6"></path><path d="M999,405q-3.3-1.6 -6-3q-2-1 10-5q5-1.7 5,9q0,7.5 -13,1" fill="none" stroke="#ffffff" stroke-width="1.6"></path><path d="M1034,389q-5-3 -8-2q-8.1,2.7 7,14q13.1,9.9 10,13q-7,7 -12-3" fill="none" stroke="#ffffff" stroke-width="1.6"></path><path d="M1062,375q-2.7,2.2 -5,4q-4,3.2 2,24q3.6,7.3 7,13" fill="none" stroke="#ffffff" stroke-width="1.7"></path><path d="M1080,401q21.6-9.4 25-14q4.2-5.6 -12-1q-4.6,1.3 -8,22q-1.8,11 16,11" fill="none" stroke="#ffffff" stroke-width="1.7"></path><path d="M1116,374q8.7,38.4 8,43q-2.4,5.1 -5,9" fill="none" stroke="#ffffff" stroke-width="1.6"></path><path d="M1166,388q.6-.2 3-1q2.3,7.9 1,19q.4,3.3 1,6" fill="none" stroke="#ffffff" stroke-width="1.6"></path><path d="M1163,401q17-2 24-2" fill="none" stroke="#ffffff" stroke-width="1.6"></path><path d="M1242,414q18-30 26-40q2,6.7 2,18q0,3.2 6,15q.6,1.2 0,7" fill="none" stroke="#ffffff" stroke-width="1.6"></path><path d="M1253,394q19,1 24,2" fill="none" stroke="#ffffff" stroke-width="1.6"></path><path d="M1322,394q0-.2 0-1q-5.4,1.8 -12,7q-7.6,6 4,13q2.9,1.8 17,2" fill="none" stroke="#ffffff" stroke-width="1.6"></path><path d="M1349,415q-6-8 -6-14q0-10.7 15-7q4,1 4,17q0,4 -18,4q-7.3,0 -2-8" fill="none" stroke="#ffffff" stroke-width="1.6"></path><path d="M1386,390q-1.2-.6 -6-3q-6,.4 -11,2q-3.8,1.2 16,12q11,6 -1,12q-6.7,3.3 -20,0" fill="none" stroke="#ffffff" stroke-width="1.6"></path><path d="M1425,375q-10,15 -10,21q0,21 5,21" fill="none" stroke="#ffffff" stroke-width="1.6"></path><path d="M1442,392q-4,6 -4,12q0,5.5 7,9q2.7,1.4 5-10q.4-1.9 5,8q4.3,9.2 15-5q3-4 3-12" fill="none" stroke="#ffffff" stroke-width="1.6"></path><path d="M1491,372q-2,17 -1,22q2.6,8.8 5,16" fill="none" stroke="#ffffff" stroke-width="1.6"></path><path d="M1481,398q9-1 15-2" fill="none" stroke="#ffffff" stroke-width="1.6"></path><path d="M1512,368q6,8 10,19q8.5,23.5 3,29" fill="none" stroke="#ffffff" stroke-width="1.7"></path><path d="M1616,394q-.2-1.2 -1-6q-.2-1.2 -16,2q-12.7,2.5 12,19q10.1,6.7 1,9q-12,3 -16-1q-.4-.4 3-1" fill="none" stroke="#ffffff" stroke-width="1.7"></path><path d="M1629,407q3,8 2,9" fill="none" stroke="#ffffff" stroke-width="1.6"></path><path d="M1626,381q-.5,0 -1,0q-.6,0 1,3" fill="none" stroke="#ffffff" stroke-width="1.6"></path><path d="M1648,393q2.3,19.7 4,18q3.2-6.8 5-13q.8-2.9 14-5q6.2-1 10,22" fill="none" stroke="#ffffff" stroke-width="1.6"></path><path d="M1718,376q-1.6,.8 -8,4q-8.7,4.3 -1,30q.3,1 3,4" fill="none" stroke="#ffffff" stroke-width="1.6"></path><path d="M1722,401q11.5-7.2 21-13q1.4-.9 -8-2q-6.7-.8 -9,13q-2.7,16 18,16" fill="none" stroke="#ffffff" stroke-width="1.6"></path><path d="M1761,365q7,49 7,54q-1.8,5 -4,9" fill="none" stroke="#ffffff" stroke-width="1.6"></path><path d="M5,503q-14.3,3.6 -16,7q6.4,4.7 16,7q6.5,1.5 -2,10q-.7,.7 -5,0q2.6,3 8,7q5.2,3.8 -9,18q-9,9 16,9" fill="none" stroke="#ffffff" stroke-width="1.6"></path><path d="M60,548q9.5-20.3 17-37q.2-.4 7,27q.2,.8 -1,4" fill="none" stroke="#ffffff" stroke-width="1.6"></path><path d="M67,540q1-.2 5-1" fill="none" stroke="#ffffff" stroke-width="1.6"></path><path d="M96,540q6-6 12-8q6-2 6,10q0,9.5 3,17" fill="none" stroke="#ffffff" stroke-width="1.6"></path><path d="M159,532q-5-2 -8,0q-15.5,10.3 -2,13q2.5,.5 13,0" fill="none" stroke="#ffffff" stroke-width="1.6"></path><path d="M170,540q1-5 5-6q2.1-.5 9,6q3.4,3.2 -8,7q-6,2 -6-4" fill="none" stroke="#ffffff" stroke-width="1.6"></path><path d="M203,530q-6-2 -8-1q3.4,7.1 11,14q1.6,1.4 -4,7q-4,4 -4-6" fill="none" stroke="#ffffff" stroke-width="1.6"></path><path d="M223,512q-6,8 -7,16q-.8,6.2 13,20" fill="none" stroke="#ffffff" stroke-width="1.6"></path><path d="M232,538q22-11.6 22-18q0-2.6 -11,7q-12,10.4 8,19q.4,.2 2,1" fill="none" stroke="#ffffff" stroke-width="1.6"></path><path d="M262,545q8-6 13-6q3,0 3,8q0,.6 2,2" fill="none" stroke="#ffffff" stroke-width="1.6"></path><path d="M288,520q5,1 11,8q9.1,10.6 7,23q-1.6,9.8 -6,12" fill="none" stroke="#ffffff" stroke-width="1.6"></path><path d="M341,520q2,21 2,25" fill="none" stroke="#ffffff" stroke-width="1.6"></path><path d="M335,540q10-4 20-4" fill="none" stroke="#ffffff" stroke-width="1.6"></path><path d="M373,544q15-7 19-12q2-2.5 5-15q1.4,7.4 2,21q.2,4.2 4,8" fill="none" stroke="#ffffff" stroke-width="1.6"></path><path d="M391,537q3.3,.5 6,1" fill="none" stroke="#ffffff" stroke-width="1.6"></path><path d="M412,537q-.2-.6 -1-3q-.7-2 13-2q6.3,0 1,8q-2.8,4.2 0,6q3,2 18,0" fill="none" stroke="#ffffff" stroke-width="1.6"></path><path d="M471,523q-17,8.5 -17,13q0,4 25,4" fill="none" stroke="#ffffff" stroke-width="1.6"></path><path d="M485,538q-1.1-2.7 -2-5q-1.6-4.1 14-8q8.3-2.1 4,15q-1.7,6.7 -15,0" fill="none" stroke="#ffffff" stroke-width="1.6"></path><path d="M527,522q-14.7,0 -16,4q6.1,7.7 15,13q6.7,4 -14,4" fill="none" stroke="#ffffff" stroke-width="1.6"></path><path d="M553,509q-9,2 -14,5q-6.2,3.7 -1,22q6.4,7.6 13,13" fill="none" stroke="#ffffff" stroke-width="1.6"></path><path d="M562,535q10,0 17-2q8.8-2.5 4-17q-3.2-9.5 -6,16q2,11 5,20" fill="none" stroke="#ffffff" stroke-width="1.6"></path><path d="M586,540q12-4 16-4q2.5,0 -9,9q6.3,.6 17-1" fill="none" stroke="#ffffff" stroke-width="1.6"></path><path d="M615,514q12.9,24.4 14,29q.5,2.1 -6,9" fill="none" stroke="#ffffff" stroke-width="1.6"></path><path d="M647,497q4-3 3-1q-8.7,17.4 -1,20q12.1,4 15,27q.9,7.4 -7,9q-2.7,.1 -5,0" fill="none" stroke="#ffffff" stroke-width="1.7"></path><path d="M682,521q-.6,.2 -3,1" fill="none" stroke="#ffffff" stroke-width="1.6"></path><path d="M728,523q-5-2 -7,1q2.3,7.6 7,14q7.4,10 -3,10q-.6,0 -3-1" fill="none" stroke="#ffffff" stroke-width="1.6"></path><path d="M748,545q-.4,.6 -2,3" fill="none" stroke="#ffffff" stroke-width="1.6"></path><path d="M744,522q-.6,0 -1,0" fill="none" stroke="#ffffff" stroke-width="1.6"></path><path d="M760,534q0,6.6 0,12q5-3.4 11-11q5.1-6.4 8,8q.2,1 3,4" fill="none" stroke="#ffffff" stroke-width="1.6"></path><path d="M808,503q-7,19 -8,26q-1.2,8.8 9,19" fill="none" stroke="#ffffff" stroke-width="1.7"></path><path d="M827,531q-1,1.8 -5,9q-3.8,6.8 9,10q1.8,.4 5-6q3.1,1.9 6,6q4.2,5.8 14-4q3.3-3.3 -1-12" fill="none" stroke="#ffffff" stroke-width="1.6"></path><path d="M878,505q5,27 8,42q.1,.4 0,2" fill="none" stroke="#ffffff" stroke-width="1.6"></path><path d="M874,536q10-4 14-5" fill="none" stroke="#ffffff" stroke-width="1.6"></path><path d="M900,503q13.7,22.4 15,33q1.6,12.5 -6,15" fill="none" stroke="#ffffff" stroke-width="1.6"></path><path d="M964,522q.5,9.9 1,18" fill="none" stroke="#ffffff" stroke-width="1.6"></path><path d="M954,533q19-2 28-2" fill="none" stroke="#ffffff" stroke-width="1.6"></path><path d="M1033,509q-12-1 -13,0q-6.3,6.3 11,15q8.3,4.2 -3,7q-1.6,.4 -8,0q2.5,3.1 8,7q1.5,9.1 0,18q-.2,1 17,1" fill="none" stroke="#ffffff" stroke-width="1.9"></path><path d="M1088,543q15.3-18.2 28-33q1.9,8.2 1,22q-.1,6.6 0,12" fill="none" stroke="#ffffff" stroke-width="1.6"></path><path d="M1097,541q.4-.6 2-3q1.6-2.3 14,1" fill="none" stroke="#ffffff" stroke-width="1.6"></path><path d="M1126,542q19-15 24-16q5-1 5,20" fill="none" stroke="#ffffff" stroke-width="1.6"></path><path d="M1203,517q-16,0 -19,3q-2.4,2.4 13,14q7.1,5.3 -1,8q-1.9,.6 -10,0q-1.5-.1 7-2" fill="none" stroke="#ffffff" stroke-width="1.6"></path><path d="M1207,532q1,8 1,9" fill="none" stroke="#ffffff" stroke-width="1.6"></path><path d="M1207,516q0-.5 0-1" fill="none" stroke="#ffffff" stroke-width="1.6"></path><path d="M1227,525q3,14 3,16q1.8-4.1 4-12q9.1,2.4 19,10" fill="none" stroke="#ffffff" stroke-width="1.6"></path><path d="M1267,503q-7,15 -6,24q5.2,8.6 11,15" fill="none" stroke="#ffffff" stroke-width="1.6"></path><path d="M1285,531q23-10.9 25-17q.3-.9 -3-4q-1.7-1.5 -8,8q-10,15 6,31" fill="none" stroke="#ffffff" stroke-width="1.6"></path><path d="M1311,540q8-14 12-15q3.3-.8 0,17q-.1,.7 3,2" fill="none" stroke="#ffffff" stroke-width="1.6"></path><path d="M1337,514q6,14 6,23q0,9 -3,12" fill="none" stroke="#ffffff" stroke-width="1.6"></path><path d="M1375,515q3,11 6,17q1.7,3.3 3,6" fill="none" stroke="#ffffff" stroke-width="1.6"></path><path d="M1370,536q10-2 13-2" fill="none" stroke="#ffffff" stroke-width="1.6"></path><path d="M1408,542q8-4 12-10q4.7-9.7 8-18q1.1-2.6 -2,14q-1.9,10.5 5,14" fill="none" stroke="#ffffff" stroke-width="1.6"></path><path d="M1421,539q.4-.8 2-4" fill="none" stroke="#ffffff" stroke-width="1.6"></path><path d="M1431,534q14-4 19-4q1,0 1,16q0,.6 3,0" fill="none" stroke="#ffffff" stroke-width="1.6"></path><path d="M1487,522q0-5 -2-7q-2.7-2.7 -5,9q2.3,9.4 6,17q-2.8,1.1 -7,1" fill="none" stroke="#ffffff" stroke-width="1.6"></path><path d="M1504,534q-3,6 -2,7" fill="none" stroke="#ffffff" stroke-width="1.6"></path><path d="M1504,510q-1.1,0 -2,0" fill="none" stroke="#ffffff" stroke-width="1.6"></path><path d="M1516,524q0,10 3,10q.4,0 2-1" fill="none" stroke="#ffffff" stroke-width="1.6"></path><path d="M1535,526q7,11 9,14" fill="none" stroke="#ffffff" stroke-width="1.6"></path><path d="M1565,508q-5,9 -7,19q-1.5,7.5 6,15" fill="none" stroke="#ffffff" stroke-width="1.6"></path><path d="M1569,535q19-6 23-9q3-2.2 3-13q0-1.5 -7,3q-7.7,5 2,34q.5,1.1 1,2" fill="none" stroke="#ffffff" stroke-width="1.6"></path><path d="M1593,539q3-6 7-7q18.2-4.5 8,9q-4.5,6 8,6q.6,0 3-1" fill="none" stroke="#ffffff" stroke-width="1.6"></path><path d="M1624,503q11.3,10.1 15,27q1.8,8.2 -7,17" fill="none" stroke="#ffffff" stroke-width="1.6"></path><path d="M1651,500q7-4 12-6q10.3-4.1 6,13q-.7,2.9 -11,8q3.9,2.3 11,4q3,.7 3,17q0,5.5 -17,14" fill="none" stroke="#ffffff" stroke-width="2.3"></path><path d="M1713,521q-8,3 -10,6q-5.3,8 19,8" fill="none" stroke="#ffffff" stroke-width="1.6"></path><path d="M1729,533q-2-4 -1-7q2.2-6.6 19,6q4.2,3.2 -15,7q-4,.8 -4-4" fill="none" stroke="#ffffff" stroke-width="1.6"></path><path d="M1756,525q-2-6 -4-4q-1.3,1.3 7,18q.7,1.4 -7,4q-7.1,2.4 -4-7" fill="none" stroke="#ffffff" stroke-width="1.6"></path><path d="M1780,506q-9,2 -14,6q-4.8,3.9 -1,23q.9,4.6 8,7" fill="none" stroke="#ffffff" stroke-width="1.7"></path><path d="M1785,527q-1.1,1.1 -2,2q-2.3,2.3 2,11q1.9,3.8 12-3q.8-.6 3-4q2.6,1.3 5,4q1.3,1.5 9-4" fill="none" stroke="#ffffff" stroke-width="1.9"></path><path d="M1832,506q0,25 2,31" fill="none" stroke="#ffffff" stroke-width="1.7"></path><path d="M1825,531q7-2 9-2" fill="none" stroke="#ffffff" stroke-width="1.6"></path><path d="M1851,507q1.4,1.6 7,8q5,5.7 5,23q-.9,1.2 -2,2" fill="none" stroke="#ffffff" stroke-width="1.7"></path><path d="M1926,508q22,0 27,1" fill="none" stroke="#ffffff" stroke-width="1.6"></path><path d="M1934,517q0-.2 0-1q0-1 24-1" fill="none" stroke="#ffffff" stroke-width="1.6"></path><path d="M2037,496q0-1.6 0-8q0-1.7 -16,1q-6.8,1.1 -9,12q7.6,9.6 18,16q5.9,3.7 -1,14q-2.1,3.1 -21,0q-2-.3 -2-7" fill="none" stroke="#ffffff" stroke-width="2"></path><path d="M2057,480q-18,12.8 -20,21" fill="none" stroke="#ffffff" stroke-width="1.6"></path><path d="M2006,520q-6.6,12 -14,17" fill="none" stroke="#ffffff" stroke-width="1.6"></path><path d="M2104,507q-10.2-2.5 -12,3q2.1,10.4 6,19q1.4,3 -6,3q-3,0 -6-3" fill="none" stroke="#ffffff" stroke-width="1.6"></path><path d="M2115,517q-2,10 -1,12" fill="none" stroke="#ffffff" stroke-width="1.6"></path><path d="M2114,504q.2,.2 0,.2q-.2,0 -.2-.2q0-.2 .2-.2q.2,0 .2,.2" fill="none" stroke="#ffffff" stroke-width="1.6"></path><path d="M2134,518q-3,9 -5,10q4.3-6.7 14-17q4.5,7.1 7,19" fill="none" stroke="#ffffff" stroke-width="1.6"></path><path d="M2174,489q-8.6,17.1 -7,28q2.9,8.9 6,16" fill="none" stroke="#ffffff" stroke-width="1.6"></path><path d="M2191,507q-6,1 -8,5q-3.7,7.3 6,17q3.5,3.5 9-13q.7-2.2 3,11q1.2,7.1 16-4q2-1.5 2-11" fill="none" stroke="#ffffff" stroke-width="1.9"></path><path d="M2229,486q2,23 4,37" fill="none" stroke="#ffffff" stroke-width="1.6"></path><path d="M2227,512q6.6-.5 12-1" fill="none" stroke="#ffffff" stroke-width="1.6"></path><path d="M2254,488q7.8,41.6 3,44" fill="none" stroke="#ffffff" stroke-width="1.8"></path><path d="M1964,-138q-.5-3.9 -1-7" fill="none" stroke="#ffffff" stroke-width="1.6"></path><path d="M2359,494q-1-7 -3-9q-.7-.7 -14,6q-5.5,2.7 -15,25q-4.2,9.9 8,16q3.5,1.7 20-3" fill="none" stroke="#ffffff" stroke-width="2.1"></path><path d="M2350,514q5,4 7,11q2.6,9 5,9" fill="none" stroke="#ffffff" stroke-width="1.6"></path><path d="M2373,490q-6,2 -9,6q-1.4,1.9 -8,9" fill="none" stroke="#ffffff" stroke-width="1.6"></path><path d="M2294,503q-5,5 -5,9q.5,1.1 1,2" fill="none" stroke="#ffffff" stroke-width="1.6"></path><path d="M2283,512q9-1 16-1" fill="none" stroke="#ffffff" stroke-width="1.6"></path><path d="M2411,504q-.2-.2 -1-1q-2.3-2.3 -15,7q-10.3,7.6 14,10q1.4,.1 7,0" fill="none" stroke="#ffffff" stroke-width="1.6"></path><path d="M2426,517q-4-4 -3-7q2.6-7.8 17-3q6.2,2.1 3,18q-.8,4.1 -15,0q-11.5-3.3 0-9" fill="none" stroke="#ffffff" stroke-width="1.6"></path><path d="M2455,509q3.8-1.6 7-3q-5-1 -14-1q4.7,8.6 16,19q5,4.6 -12,8q-2.3-1.3 -4-3" fill="none" stroke="#ffffff" stroke-width="1.6"></path><path d="M2478,491q-.8,.4 -4,2q-5.7,2.8 -2,25q1.4,8.5 9,11" fill="none" stroke="#ffffff" stroke-width="1.8"></path><path d="M2496,506q-1.2,12.8 3,17q1,1 6-9q.7-1.4 5,6q1.8,3.1 12-2q8-4 3-9" fill="none" stroke="#ffffff" stroke-width="1.9"></path><path d="M2548,486q-1.8,18.8 1,30q.3,1.2 0,6" fill="none" stroke="#ffffff" stroke-width="1.6"></path><path d="M2536,511q13-1 14-1" fill="none" stroke="#ffffff" stroke-width="1.6"></path><path d="M2560,486q16,22.9 16,31q0,11.5 -9,16" fill="none" stroke="#ffffff" stroke-width="1.8"></path><path d="M5,597Q5.2,597.2 5,597.2Q4.8,597.2 4.8,597Q4.8,596.8 5,596.8Q5.2,596.8 5.2,597" fill="none" stroke="#ffffff" stroke-width="1.6"></path><path d="M3,599Q32.7,610.6 41,612Q54,614.2 97,607Q133.2,604.1 163,603Q198.7,601.7 242,605Q285,608.3 302,618Q318.3,625.5 332,631Q331.8,628.1 330,624Q327.7,618.7 351,607Q383.9,602.9 412,604Q481.9,599.5 539,593Q563.8,590.2 581,573Q582.2,571.8 588,568" fill="none" stroke="#ffffff" stroke-width="1.6"></path><path d="M1025,595q.2,.2 0,.2q-.2,0 -.2-.2q0-.2 .2-.2q.2,0 .2,.2" fill="none" stroke="#ffffff" stroke-width="1.6"></path><path d="M1026,593q49,0 64-3q4.3-.9 21-6q9.8-3 109-3q49,0 76,9q34.4,5.2 63,7q42.1,2.7 46,22q.1,.4 2,0q.7-5.6 -1-12q-1.9-7 26-11q47.8-1.2 87,0q52.5,1.6 110-23q14-6 14-10" fill="none" stroke="#ffffff" stroke-width="1.6"></path><path d="M1375,669q-3.3,3.3 -6,6" fill="none" stroke="#ffffff" stroke-width="1.6"></path><path d="M1371,669q-2-3 -6-3q-11.6,0 -16,22q-3,15 29,15" fill="none" stroke="#ffffff" stroke-width="1.6"></path><path d="M1376,692q6,5 9,13q.6,1.6 5,7" fill="none" stroke="#ffffff" stroke-width="1.6"></path><path d="M299,668q-.5-2.2 -1-4q-.4-1.7 -8,3q-3.5,2.1 4,22q4.2,8.9 8,16q2.4,4.5 -8,8q-7.4,2.5 -13-6" fill="none" stroke="#ffffff" stroke-width="1.7"></path><path d="M314,665q-13,5 -16,9q-.7,1 -1,6" fill="none" stroke="#ffffff" stroke-width="1.6"></path><path d="M285,699q1.1-2.2 2-4q1.4-2.9 -6,15q-3.1,4.5 -6,8" fill="none" stroke="#ffffff" stroke-width="1.6"></path><path d="M-695,551q.6-2.7 1-5q3-15 3,55q.5-1.4 1-4" fill="none" stroke="#ffffff" stroke-width="1.6"></path><path d="M-669,563q-9,3 -17,10q-16,14 18,14" fill="none" stroke="#ffffff" stroke-width="1.6"></path><path d="M-657,586q-4-5 -3-8q1.3-3.9 16,1q10.5,3.5 4,10q-4.5,4.5 -18,0" fill="none" stroke="#ffffff" stroke-width="1.6"></path><path d="M-630,580q3.3-2.7 6-5q1.6-1.3 -9,5q-4.8,2.9 2,12q5.2,6.9 20-2q.7-.4 3-3" fill="none" stroke="#ffffff" stroke-width="1.6"></path><path d="M-587,545q-2.8,1.1 -5,2q-19.7,7.9 -6,42q.8,2.1 -1,11" fill="none" stroke="#ffffff" stroke-width="1.6"></path><path d="M-608,586q.6-.8 3-4q1.7-2.3 14-2q1.3,0 6-3" fill="none" stroke="#ffffff" stroke-width="1.6"></path><path d="M-573,553q-1.2,.2 -6,1q-3,.5 -3,27q0,6 -1,6" fill="none" stroke="#ffffff" stroke-width="1.6"></path><path d="M-584,584q7.1-4.4 20-7q4.6-.9 1,10" fill="none" stroke="#ffffff" stroke-width="1.6"></path><path d="M-565,565q-.2-.6 -1-3" fill="none" stroke="#ffffff" stroke-width="1.6"></path><path d="M-550,578q3-6 9-9q6-3 6,6q-5.8,6.7 -13,11q5.5,.3 15-1" fill="none" stroke="#ffffff" stroke-width="1.6"></path><path d="M-527,580q.6,1 3,5" fill="none" stroke="#ffffff" stroke-width="1.6"></path><path d="M-525,562q.2,0 1,0" fill="none" stroke="#ffffff" stroke-width="1.6"></path><path d="M-507,573q-10,4 -11,7q-1.7,5 13,5q.6,0 3-1" fill="none" stroke="#ffffff" stroke-width="1.6"></path><path d="M-497,573q0,5.5 0,10q5.9,.4 13-2q1.2-.4 5,4" fill="none" stroke="#ffffff" stroke-width="1.6"></path><path d="M-474,555q.8,5.6 4,28" fill="none" stroke="#ffffff" stroke-width="1.6"></path><path d="M-461,577q1-.6 5-3" fill="none" stroke="#ffffff" stroke-width="1.6"></path><path d="M-461,570q-5,8 -4,11q1.3,4 13,4" fill="none" stroke="#ffffff" stroke-width="1.6"></path><path d="M-446,578q-1,4 3,3q3.9-1.5 7-3q1.3-.6 2,7q.1,.7 3,2" fill="none" stroke="#ffffff" stroke-width="1.6"></path><path d="M-423,576q6,6 7,9q2,6 5-12q.2-1.4 0-7" fill="none" stroke="#ffffff" stroke-width="1.6"></path><path d="M-397,581q6-9 7-13q-2.8,4.4 -7,13q-3.5,7.2 9,3" fill="none" stroke="#ffffff" stroke-width="1.6"></path><path d="M-384,579q3.3,3.3 6,6q1.2,1.2 -3-8q-.4-.9 3-4" fill="none" stroke="#ffffff" stroke-width="1.6"></path><path d="M-361,567q-5,8 -5,11q0,2 9-1q.8-.2 12,11q7.5,7.5 -1,16q-4.7,4.7 -15-3q-2.1-4.6 -3-9" fill="none" stroke="#ffffff" stroke-width="1.6"></path><path d="M-338,548q1.6,21.5 3,39" fill="none" stroke="#ffffff" stroke-width="1.6"></path><path d="M-331,578q8-6 11-10q-4.5,3.3 -12,10q-3.2,2.9 5,7q5.9,0 11-1" fill="none" stroke="#ffffff" stroke-width="1.6"></path><path d="M-310,576q1,11 2,11" fill="none" stroke="#ffffff" stroke-width="1.6"></path><path d="M-307,554q-.2,.4 -1,2" fill="none" stroke="#ffffff" stroke-width="1.6"></path><path d="M-297,569q-7,9 -7,12q0,4 16,4q1.7-.9 3-2" fill="none" stroke="#ffffff" stroke-width="1.6"></path><path d="M-279,547q-3,14 -3,33q0,.3 1,1q1.9,1.4 4-11q.4-2.6 12-5q5.2,8.6 7,20" fill="none" stroke="#ffffff" stroke-width="1.6"></path><path d="M-253,585q.2,.2 0,.2q-.2,0 -.2-.2q0-.2 .2-.2q.2,0 .2,.2" fill="none" stroke="#ffffff" stroke-width="1.6"></path><path d="M2029,674q7-13 10-23q4.2-10 8-18q.2,5.4 -1,15q3.2,16.6 8,30q.2,.5 -2,2" fill="none" stroke="#ffffff" stroke-width="1.6"></path><path d="M2035,660q.6-.8 3-4q1.1-1.5 9,2" fill="none" stroke="#ffffff" stroke-width="1.6"></path><path d="M2101,653q-5-4 -8-3q-3.2,1.1 -16,16q-6,7 19,7q2.4,0 12-2" fill="none" stroke="#ffffff" stroke-width="1.6"></path><path d="M2113,670q-4-6 -4-11q0-9 9-3q5.4,7.2 9,14q2.1,4 -9,4q-.8,0 0-4" fill="none" stroke="#ffffff" stroke-width="1.6"></path><path d="M2153,651q-.6-.8 -3-4q-3.2-4.3 -6,4q5.4,13.4 14,24q3.2,4 -12,4q-.7,0 -3-2" fill="none" stroke="#ffffff" stroke-width="1.6"></path><path d="M2193,641q-11-4 -13-2q-3.9,3.9 1,31q1.1,6.1 7,12" fill="none" stroke="#ffffff" stroke-width="1.7"></path><path d="M2202,664q.4-.8 2-4q10.9-5.7 22-8q.9-.2 2-4q.6-2.1 -10,5q-2.7,1.8 -6,15q-1.1,4.2 18,12" fill="none" stroke="#ffffff" stroke-width="1.6"></path><path d="M2246,637q6,32 6,41q-1.3,1.8 -3,3" fill="none" stroke="#ffffff" stroke-width="1.7"></path><path d="M2283,655q2-3 9-4q10.5-1.5 23,1" fill="none" stroke="#ffffff" stroke-width="1.6"></path><path d="M2291,666q13-4 21-4q4.9,0 9,0" fill="none" stroke="#ffffff" stroke-width="1.6"></path><path d="M2387,642q3-8 1-8q-15.3,0 -19,11q6.7,13.1 17,23q10.3,10 -18,10q-5.5,0 -9-7" fill="none" stroke="#ffffff" stroke-width="2.2"></path><path d="M2362,664q-17,8.5 -17,12" fill="none" stroke="#ffffff" stroke-width="1.6"></path><path d="M2386,647q11-7 19-9q3.3-.6 6-1" fill="none" stroke="#ffffff" stroke-width="1.6"></path><path d="M2015,776q20.2-26.9 22-31q1-2.3 4-12q2.2,10.3 3,29q.1,3.2 -1,16" fill="none" stroke="#ffffff" stroke-width="1.6"></path><path d="M2035,761q.8-.4 4-2q.7-.4 4,1" fill="none" stroke="#ffffff" stroke-width="1.6"></path><path d="M2095,753q-11-1 -14-1q3.5,4.5 11,10q3.3,2.4 -1,11q-1.1,2.2 -14-3q-1.2-.5 5-4" fill="none" stroke="#ffffff" stroke-width="1.6"></path><path d="M2111,762q0,13 1,14" fill="none" stroke="#ffffff" stroke-width="1.6"></path><path d="M2111,749q-.6,.6 -1,1" fill="none" stroke="#ffffff" stroke-width="1.6"></path><path d="M2126,758q2,9 2,14q1.8-3.4 4-10q.7-2 9-5q1.4-.5 11,11" fill="none" stroke="#ffffff" stroke-width="1.6"></path><path d="M2194,728q-2,1.2 -10,6q-9.6,5.8 0,25q6.8,9.6 13,17" fill="none" stroke="#ffffff" stroke-width="1.6"></path><path d="M2202,757q22.9-8.6 24-13q1-4 -13,3q-14.2,7.1 -1,15q6.7,4 16,4" fill="none" stroke="#ffffff" stroke-width="1.6"></path><path d="M2241,729q0,1.8 0,9q4.5,12.3 10,22q6.2,10.9 -4,16" fill="none" stroke="#ffffff" stroke-width="1.6"></path><path d="M2280,741q.8-.8 4-4q3-3 18,3" fill="none" stroke="#ffffff" stroke-width="1.6"></path><path d="M2284,750q12-4 24-5" fill="none" stroke="#ffffff" stroke-width="1.6"></path><path d="M2371,731q1-4 -3-5q-6.1-1.5 -22,8q-2.7,8 -3,16q-.4,11 27,11q1.5,0 7-2" fill="none" stroke="#ffffff" stroke-width="1.8"></path><path d="M2388,726q-11,2 -17,6q-.8,.6 -3,4" fill="none" stroke="#ffffff" stroke-width="1.6"></path><path d="M2380,753q1.1,1.7 2,3q1.5,2.2 9,10" fill="none" stroke="#ffffff" stroke-width="1.6"></path><path d="M2445,611q4,87 4,150q-.4,4.4 -1,8q-.3,1.8 1-9" fill="none" stroke="#ffffff" stroke-width="1.6"></path><path d="M2468,639q-1-17 -2-20q.3,7.1 2,20q-2.9,27.5 -8,50q.1,41.1 4,75q.5,2.2 1,4" fill="none" stroke="#ffffff" stroke-width="1.7"></path><path d="M1902,940q4.7-18.7 13-27q7.5-7.5 14-40q3.4,13 6,37q1.9,5.6 4,10q2.8,6 -5,6" fill="none" stroke="#ffffff" stroke-width="1.6"></path><path d="M1912,914q10-2 14-1q2.8,1 5,2" fill="none" stroke="#ffffff" stroke-width="1.6"></path><path d="M1960,912q-1.6-1.6 -3-3q-1.3-1.3 -7,6q-6.2,8 21,8" fill="none" stroke="#ffffff" stroke-width="1.6"></path><path d="M1981,921q-4-8 -2-9q5.6-2.8 12,10q1.6,3.1 -7,6q-2.9-1.6 -5-4" fill="none" stroke="#ffffff" stroke-width="1.6"></path><path d="M2010,911q-7-1 -11,0q3.4,5.8 11,12q2.8,2.3 -3,10q-1,1.3 -8,0" fill="none" stroke="#ffffff" stroke-width="1.6"></path><path d="M2036,905q-6,13.1 -3,25q2,8 4,12" fill="none" stroke="#ffffff" stroke-width="1.6"></path><path d="M2036,925q18-8.3 18-9q0-6.5 -14,4q-7.1,5.3 3,18q1.6,2 16,2" fill="none" stroke="#ffffff" stroke-width="1.6"></path><path d="M2064,907q10.1,26.9 7,33q-1.5,1.7 -3,3" fill="none" stroke="#ffffff" stroke-width="1.6"></path><path d="M1904,869q-.6,0 -3,0q-1.6,0 -11,40q-8.6,36.4 31,62" fill="none" stroke="#ffffff" stroke-width="1.6"></path><path d="M2086,889q7,6 10,16q10,33.5 -1,39" fill="none" stroke="#ffffff" stroke-width="1.6"></path><path d="M2110,857q8-2 11,0q.9,13.7 -3,27q2.5,2 6,3" fill="none" stroke="#ffffff" stroke-width="1.6"></path><path d="M2140,902q.4-.4 2-2q2.5,8.7 2,23q-.1,1.6 -1,8" fill="none" stroke="#ffffff" stroke-width="1.6"></path><path d="M2127,922q17-2 20-1" fill="none" stroke="#ffffff" stroke-width="1.6"></path><path d="M2197,940q6.5-18.5 17-29q8-14.8 13-28q3.5,12.4 5,35q-.4,7.7 -1,14" fill="none" stroke="#ffffff" stroke-width="1.6"></path><path d="M2209,917q10.5,0 19,0" fill="none" stroke="#ffffff" stroke-width="1.6"></path><path d="M2277,910q-9-4 -14-4q-5.7,0 -3,8q6.8,5.6 14,9q6.2,2.9 -4,8q-8,4 -13-6" fill="none" stroke="#ffffff" stroke-width="1.6"></path><path d="M2288,919q0,6 -2,8" fill="none" stroke="#ffffff" stroke-width="1.6"></path><path d="M2283,900q.2-.4 1-2" fill="none" stroke="#ffffff" stroke-width="1.6"></path><path d="M2307,915q-1,8 -1,10q3.2-3.3 7-10q5.3-9.3 14,11q1.2,3.8 2,7" fill="none" stroke="#ffffff" stroke-width="1.6"></path><path d="M2356,885q-9,2 -13,5q-5.3,4 2,26q5,15 5,16" fill="none" stroke="#ffffff" stroke-width="1.6"></path><path d="M2358,916q21-7 26-10q1.2-.7 -6-4q-11-5 -16,15q-2.7,11 16,11" fill="none" stroke="#ffffff" stroke-width="1.6"></path><path d="M2393,887q5,21 10,29q4.2,6.7 -6,22" fill="none" stroke="#ffffff" stroke-width="1.6"></path><path d="M2198,871q-11,12 -16,22q-5.8,11.6 -4,44q8.3,12.2 18,21" fill="none" stroke="#ffffff" stroke-width="1.6"></path><path d="M2417,882q0,.4 0,2q2.7,21.5 6,39q2.1,11 -10,20" fill="none" stroke="#ffffff" stroke-width="1.6"></path><path d="M2439,859q10-4 12-4q4.5,0 -3,10q-6.2,8.2 13,14" fill="none" stroke="#ffffff" stroke-width="1.6"></path><path d="M2468,903q.2-1 1-5q.2-1 28-1" fill="none" stroke="#ffffff" stroke-width="1.6"></path><path d="M2469,916q18-1 25-1" fill="none" stroke="#ffffff" stroke-width="1.6"></path><path d="M2550,892q-20-2 -24-1q-4,1 14,21q1.6,1.8 9,8q3.4,2.9 -13,9q-7,2.6 -7-5" fill="none" stroke="#ffffff" stroke-width="1.6"></path><path d="M2561,873q.6-1.2 3-6q.5-1 14-1q4.3,0 -9,20q-1.4,2.1 12,3" fill="none" stroke="#ffffff" stroke-width="1.6"></path><path d="M2609,888q1.7,3.3 3,6q1,2 1,23" fill="none" stroke="#ffffff" stroke-width="1.6"></path><path d="M2609,908q2.8-2.7 5-5q1.8-1.8 13,0" fill="none" stroke="#ffffff" stroke-width="1.6"></path><path d="M2665,889q-6,1 -14,4q-12.7,4.7 -9,23q1.5,7.4 22,4q1.3-.2 6-3" fill="none" stroke="#ffffff" stroke-width="1.8"></path><path d="M2668,860q5-3 11-3q12,0 4,8q-7.5,7.5 10,11" fill="none" stroke="#ffffff" stroke-width="1.6"></path><path d="M2255,1066q5-10 11-15q6-5 16-25q3.4,9 5,25q1,6.6 2,12" fill="none" stroke="#ffffff" stroke-width="1.8"></path><path d="M2276,1055q.2-.4 1-2q.9-1.8 10,0" fill="none" stroke="#ffffff" stroke-width="1.6"></path><path d="M2298,1019q2.2-5.5 4-10q.8-2.1 10-5q4.6-1.5 0,17q-.4,1.7 -4,8q-2.1,3.7 23,2" fill="none" stroke="#ffffff" stroke-width="1.6"></path><path d="M2454,1019q13-5 21-6q2.3-.3 11,3" fill="none" stroke="#ffffff" stroke-width="1.6"></path><path d="M2462,1029q-.6,0 -1,0q9.8-.5 28-1" fill="none" stroke="#ffffff" stroke-width="1.6"></path><path d="M2540,1019q-8-4 -11-4q-9,0 4,13q6,5.6 11,10q5.4,4.9 -10,10q-8,2.7 -8-14" fill="none" stroke="#ffffff" stroke-width="1.6"></path><path d="M2555,997q15.1-6.9 19-3q1.8,1.8 -9,9q-6.2,4.1 18,11" fill="none" stroke="#ffffff" stroke-width="1.6"></path><path d="M2610,1008q6,21.6 6,23" fill="none" stroke="#ffffff" stroke-width="1.6"></path><path d="M2611,1025q6-2 10-2" fill="none" stroke="#ffffff" stroke-width="1.6"></path><path d="M2668,1006q-13,8 -19,14q-3,4.8 -5,9q-3.6,7.5 21,4q2.5-.4 12-4" fill="none" stroke="#ffffff" stroke-width="1.8"></path><path d="M2689,989q7-8 10-8q-.4,8.1 -5,18q-.9,2 13,2" fill="none" stroke="#ffffff" stroke-width="1.6"></path><path d="M2250,1149q3-5 2-3q-18.2,36.5 -14,45q.2,.4 2-1" fill="none" stroke="#ffffff" stroke-width="1.8"></path><path d="M2257,1144q-.2-.2 -1-1q3.4,12 13,32q.6,2.2 1,4" fill="none" stroke="#ffffff" stroke-width="1.7"></path><path d="M2247,1165q1.2-.6 6-3q17.3-.5 32,2" fill="none" stroke="#ffffff" stroke-width="1.6"></path><path d="M2429,1141q.8-1 4-5q15.4-.6 30,4" fill="none" stroke="#ffffff" stroke-width="1.6"></path><path d="M2437,1152q19-1 22-1" fill="none" stroke="#ffffff" stroke-width="1.6"></path><path d="M2516,1122q-3,5 -2,9q.6,3.8 1,7" fill="none" stroke="#ffffff" stroke-width="1.6"></path><path d="M2505,1136q6-2 13-1" fill="none" stroke="#ffffff" stroke-width="1.6"></path><path d="M2509,1153q11-.5 20-1" fill="none" stroke="#ffffff" stroke-width="1.6"></path><path d="M2536,1132q9.4,30.8 18,38q.7,.5 3-3q3.4-5.1 -6-30q-12.8-33.8 8-38q17.4-3.5 114,9q8.8,1.1 44,4" fill="none" stroke="#ffffff" stroke-width="1.6"></path><path d="M2590,1126q0-4 -3-3q-4.5,1.5 -12,14q-1.1,1.8 18,17q18.8,15 -3,15q-1,0 -3-4" fill="none" stroke="#ffffff" stroke-width="1.6"></path><path d="M2603,1119q3.8-2.2 7-4q9.2-5.2 7,10q-1.7,11.7 -1,13q.3,.6 3,1" fill="none" stroke="#ffffff" stroke-width="1.6"></path><path d="M2658,1126q0,13 2,16q2.2,2.8 4,5" fill="none" stroke="#ffffff" stroke-width="1.6"></path><path d="M2649,1144q16-3 22-4" fill="none" stroke="#ffffff" stroke-width="1.6"></path><path d="M2703,1134q-6-2 -13,0q-25.4,7.3 -5,16q11.8,5.1 21,2" fill="none" stroke="#ffffff" stroke-width="1.8"></path><path d="M2718,1122q8-3 11-3q3.3,0 -3,19q2.5,1 6,1" fill="none" stroke="#ffffff" stroke-width="1.6"></path><path d="M2142,1264q.8-1.2 4-6q1.6-2.4 -14,3q-8.8,3 -12,19q-2.4,12 33,12" fill="none" stroke="#ffffff" stroke-width="1.6"></path><path d="M2165,1280q-4-6 -3-9q1.6-4.9 13-3q7,1.2 7,17q0,6.7 -17,1q.2-1 1-2" fill="none" stroke="#ffffff" stroke-width="1.6"></path><path d="M2208,1265q-2.2-1.6 -4-3q-4.6-3.4 -17,9q8.2,6.2 22,10q4.7,1.3 -6,12q-1.6,1.6 -11,3" fill="none" stroke="#ffffff" stroke-width="1.6"></path><path d="M2241,1248q-6,3 -8,8q-6.9,17.1 14,38q.7,1.6 1,3" fill="none" stroke="#ffffff" stroke-width="1.6"></path><path d="M2244,1278q17-3 22-6q2.6-1.6 14-6q1-.4 -1-5q-1.2-2.7 -14,5q-10,6 -2,30q.5,1.4 7,2" fill="none" stroke="#ffffff" stroke-width="1.6"></path><path d="M2286,1249q2,14 7,22q4.6,7.4 0,26" fill="none" stroke="#ffffff" stroke-width="1.6"></path><path d="M2330,1263q26.6-7 36-7" fill="none" stroke="#ffffff" stroke-width="1.6"></path><path d="M2329,1276q23-2 29-3" fill="none" stroke="#ffffff" stroke-width="1.6"></path><path d="M2495,1236q-3-3 -9-1q-19.8,6.6 -11,11q3.2,1.6 17,6q10.4,3.3 5,14q-2.5,5 -26,5" fill="none" stroke="#ffffff" stroke-width="1.6"></path><path d="M2379,1296q10-5 29-9q40-.2 73,3q77.5-.9 141-5" fill="none" stroke="#ffffff" stroke-width="1.6"></path><path d="M2444,1319q.2,.2 0,.2q-.2,0 -.2-.2q0-.2 .2-.2q.2,0 .2,.2" fill="none" stroke="#ffffff" stroke-width="1.6"></path><path d="M2442,1317q-11,6 -12,9q5.3,7.6 13,13q2,1.4 -5,11q-7.1,.2 -14-2" fill="none" stroke="#ffffff" stroke-width="1.6"></path><path d="M2466,1307q.6,0 3,0q.4,7.7 -3,17q-.8,2.1 11,2" fill="none" stroke="#ffffff" stroke-width="1.6"></path><path d="M2516,1320q4,11 4,12" fill="none" stroke="#ffffff" stroke-width="1.6"></path><path d="M2510,1330q8-1 12,0" fill="none" stroke="#ffffff" stroke-width="1.6"></path><path d="M2551,1322q-14,7 -16,10q-2,3 16,6q1.4,.2 7-2" fill="none" stroke="#ffffff" stroke-width="1.6"></path><path d="M2573,1306q6-4 10-4q-1.2,10.4 -8,23q-1.1,2 7,2" fill="none" stroke="#ffffff" stroke-width="1.6"></path><path d="M2390,1350q1,1 5,5q4.4-11.3 5-30q.7-22.9 62-26q34.5-1.7 109-10" fill="none" stroke="#ffffff" stroke-width="1.6"></path><path d="M2135,1437q-3-5 -6-6q-16.2-5.4 -13,17q8.4,9.6 18,16q3.9,2.6 1,14q-.5,2 -18,2q-.3,0 -1-1" fill="none" stroke="#ffffff" stroke-width="1.6"></path><path d="M2155,1465q-3,11 -2,13q.2,.4 2,1" fill="none" stroke="#ffffff" stroke-width="1.6"></path><path d="M2158,1433q-4,4 -3,7" fill="none" stroke="#ffffff" stroke-width="1.6"></path><path d="M2182,1459q-1,14 -2,17q.9-4.9 3-14q2.3-10 9,10q1.6,3.3 3,6" fill="none" stroke="#ffffff" stroke-width="1.6"></path><path d="M2236,1430q-2,0 -10,0q-4.2,0 -2,24q1.1,12.1 17,28" fill="none" stroke="#ffffff" stroke-width="1.6"></path><path d="M2244,1461q12.6-6.1 23-11q1.6-.8 -9,0q-10.3,.7 -8,21q.9,8 21,8" fill="none" stroke="#ffffff" stroke-width="1.6"></path><path d="M2281,1429q0,19 6,37q2.6,7.8 -2,17" fill="none" stroke="#ffffff" stroke-width="1.6"></path><path d="M2310,1453q13.2,0 24,0" fill="none" stroke="#ffffff" stroke-width="1.6"></path><path d="M2322,1463q10.4,1.6 19,3" fill="none" stroke="#ffffff" stroke-width="1.6"></path><path d="M2478,1428q.2-.8 1-4q.6-2.3 -11,5q-7,4.4 -7,22q0,7 30,1q1.2-.2 6,0" fill="none" stroke="#ffffff" stroke-width="1.6"></path><path d="M2367,1486q134.9-5.5 173-2q46.2,3.9 84,7" fill="none" stroke="#ffffff" stroke-width="1.6"></path><path d="M2437,1532q2-5 3-8q.4-1.3 -7,1q-12.6,4 4,15q8.6,5.7 0,10q-2.7,1.3 -9-5" fill="none" stroke="#ffffff" stroke-width="1.6"></path><path d="M2462,1507q.8,.6 4,3q1.8,1.3 0,11q-.3,1.4 6,4" fill="none" stroke="#ffffff" stroke-width="1.6"></path><path d="M2499,1514q.6,.2 3,1q3,1 3,20" fill="none" stroke="#ffffff" stroke-width="1.6"></path><path d="M2499,1533q5.5-1.6 10-3" fill="none" stroke="#ffffff" stroke-width="1.6"></path><path d="M2551,1516q-1.6,0 -8,0q-10.7,0 -16,16q-2,6 34,6" fill="none" stroke="#ffffff" stroke-width="1.6"></path><path d="M2573,1507q8-3 10-1q-2.6,5.9 -8,11q-5.3,5 6,5" fill="none" stroke="#ffffff" stroke-width="1.6"></path><path d="M2385,1533q-1.7,1.1 -3,2q-.6,.4 4,19q.2,1 4,3q4.2,2.3 0-24q-2.5-15.4 13-22q49-21 253-21" fill="none" stroke="#ffffff" stroke-width="1.6"></path><path d="M2088,1237q.2,.2 0,.2q-.2,0 -.2-.2q0-.2 .2-.2q.2,0 .2,.2" fill="none" stroke="#ffffff" stroke-width="1.6"></path><path d="M2079,1235q-16,5 -21,10q-10.2,10.2 4,81q6.4,27 12,49q1.7,6.7 -17,2q-.6-.1 0-3q.2-.9 14,6q13,6.5 -4,66q-11.6,40.4 -7,70q1,6.8 23,35" fill="none" stroke="#ffffff" stroke-width="1.6"></path><path d="M1987,1370q23-1 32-1" fill="none" stroke="#ffffff" stroke-width="1.6"></path><path d="M1988,1390q26-6 38-6" fill="none" stroke="#ffffff" stroke-width="1.6"></path><path d="M1959,1377q-6,10 -6,12q11.7,4.4 26,4" fill="none" stroke="#ffffff" stroke-width="1.6"></path><path d="M1877,1391q.8-.4 4-2q3.2-1.6 18-1q4.8,.2 17-10q6.7-5.6 -11-10q-7-1.8 -10,34q-1.1,12.9 6,27" fill="none" stroke="#ffffff" stroke-width="1.6"></path><path d="M2849,882q1-6 1-9q0-4 -12,20q-3.1,6.3 8,10q5,1.7 5-16q.9,7 2,20q1.4,16 14,16q.8,0 3-3" fill="none" stroke="#ffffff" stroke-width="1.8"></path><path d="M2877,879q-3,14 -1,18q6.3,12.6 14,1q1.3-2 4-10q5,3.5 10,11q1.5,.7 3,1" fill="none" stroke="#ffffff" stroke-width="1.8"></path><path d="M2929,884q-1.1-2.2 -2-4q-3-6 -11,14q-2,5 12,5q1.4-2.2 2-5q.2-.8 6,5" fill="none" stroke="#ffffff" stroke-width="1.8"></path><path d="M2962,873q-10,17 -10,22q0,7 9,7q5,0 5-26q.4-7.2 1-13q.2-2 -2,10q-2.1,11.3 11,20q.8,.6 5,0" fill="none" stroke="#ffffff" stroke-width="2"></path><path d="M2988,871q3,21 6,27q-.7-5 -3-14" fill="none" stroke="#ffffff" stroke-width="1.8"></path><path d="M3015,882q1,10 2,10" fill="none" stroke="#ffffff" stroke-width="1.7"></path><path d="M3017,861q0-.5 0-1" fill="none" stroke="#ffffff" stroke-width="1.7"></path><path d="M3049,887q1-13 1-16q0-1.7 -6,6q-6.6,8.4 1,16q10,10 10-7" fill="none" stroke="#ffffff" stroke-width="1.8"></path><path d="M3074,897q-4-6 -4-10q0-12 9-12" fill="none" stroke="#ffffff" stroke-width="1.7"></path><path d="M3099,871q-10,1 -14,5q-7.7,7.7 9,14q5.4,.8 10,1" fill="none" stroke="#ffffff" stroke-width="1.7"></path><path d="M3110,878q-1,14 1,13q12-6 17-6q3.6,5.4 5,12" fill="none" stroke="#ffffff" stroke-width="1.7"></path><path d="M3192,873q-.6,1.1 -1,2q-.3,.6 3-1" fill="none" stroke="#ffffff" stroke-width="1.7"></path><path d="M3217,865q-1,22 -3,25q-6,9 -22,1q-11.2-20.9 -16-42q-1.7-7.3 -7-2q-5.6,5.6 19,24q23.1,17.3 49,21q.6,.1 3,1" fill="none" stroke="#ffffff" stroke-width="1.7"></path><path d="M3320,878q-2.2-2.2 -4-4q-4.7-4.8 -11,14q-2.8,8.4 14,6q3.5-5.6 5-12q2.1,3.8 4,11q.3,1 5,2" fill="none" stroke="#ffffff" stroke-width="1.7"></path><path d="M3354,868q-9,8 -11,13q-3.9,9.8 9,13q5,1.3 5-51q0-4.2 -1,21q-.3,7.4 12,32q.4,.7 4,1" fill="none" stroke="#ffffff" stroke-width="1.8"></path><path d="M3386,870q-6,20 -4,27q1.1,3.9 11-2q12.4-7.5 0-51q-.2-.8 -3,3q-4.5,6.2 16,37" fill="none" stroke="#ffffff" stroke-width="1.8"></path><path d="M3415,873q2,21 5,23" fill="none" stroke="#ffffff" stroke-width="1.7"></path><path d="M3421,844q-.6,.4 -3,2" fill="none" stroke="#ffffff" stroke-width="1.7"></path><path d="M3439,881q2-8 3-10q1.5-3 -4,16q-4.5,15.6 22,9q2.6-.7 6-12" fill="none" stroke="#ffffff" stroke-width="1.8"></path><path d="M3473,896q.6-.4 3-2q2.9-9.1 3-18q.1-5 6-5" fill="none" stroke="#ffffff" stroke-width="1.8"></path><path d="M3509,875q-7-2 -10-1q-6,2 -1,17q1.7,5 21,5q2,0 9-21q1.3-3.8 0,20q-.1,2.7 4-13q2.1-8 18-4q.3,.1 5,19" fill="none" stroke="#ffffff" stroke-width="1.8"></path><path d="M2258,1836q-1.4,0 -7,0q-2,0 -17,12q-4.2,3.4 14,7q9.9,1.3 18,2" fill="none" stroke="#ffffff" stroke-width="1.7"></path><path d="M2292,1847q-2-5 0-5q25.8,0 20,23q-1.3,5.2 -18-2q-1.8-.8 -6-8" fill="none" stroke="#ffffff" stroke-width="1.7"></path><path d="M2323,1821q4.9,40.2 11,54q.5,1.1 3,5" fill="none" stroke="#ffffff" stroke-width="1.7"></path><path d="M2325,1854q13-3 17-2" fill="none" stroke="#ffffff" stroke-width="1.7"></path><path d="M2374,1849q-.2-.8 -1-4q-1-3.8 28,1" fill="none" stroke="#ffffff" stroke-width="1.7"></path><path d="M2375,1859q3.2-1.2 16-6q3.4-1.3 18,0" fill="none" stroke="#ffffff" stroke-width="1.7"></path><path d="M2480,1809q-1.6,0 -8,0q-6.5,0 -12,11q-.6,1.2 22,4" fill="none" stroke="#ffffff" stroke-width="1.7"></path><path d="M2504,1818q-6.6-1.1 -12-2q-9.3-1.6 13-9q8.4-2.8 13,11q2.6,7.8 -9,2q-.6-.5 -1-1" fill="none" stroke="#ffffff" stroke-width="1.7"></path><path d="M2551,1793q-12.5,0 -14,3q-1.9,3.8 13,15q9.3,7 -10,7q-1.2,0 -6,1" fill="none" stroke="#ffffff" stroke-width="1.7"></path><path d="M2463,1845q59,0 77-2" fill="none" stroke="#ffffff" stroke-width="1.7"></path><path d="M2492,1867q4-7 6-9q-4.2,4.2 -12,12q-3.8,3.8 22,9q1.3,.3 4,5q1.2,2 -20,2q-1,0 -5-1" fill="none" stroke="#ffffff" stroke-width="1.7"></path><path d="M2522,1874q-3,6 -3,7" fill="none" stroke="#ffffff" stroke-width="1.7"></path><path d="M2514,1853q0,1.1 0,2" fill="none" stroke="#ffffff" stroke-width="1.7"></path><path d="M2543,1859q0,20 4,14q3.3-5 18-5q.8,0 9,11" fill="none" stroke="#ffffff" stroke-width="1.7"></path><path d="M1925,2147q11-12 21-24q2.2-2.7 16-7q2-.6 2,32q1.8,5.6 4,10" fill="none" stroke="#ffffff" stroke-width="1.8"></path><path d="M1774,2194q5.2,.2 26,1q8,.3 40,4q37.6,4.3 199-3q8.8-.4 44-4" fill="none" stroke="#ffffff" stroke-width="1.7"></path><path d="M1822,2269q12.4-17.8 24-25q3.2,.1 6,1q2.5,.8 -2,37q-.9,7 3,7" fill="none" stroke="#ffffff" stroke-width="1.7"></path><path d="M1877,2249q.5,13.8 1,25" fill="none" stroke="#ffffff" stroke-width="1.7"></path><path d="M1859,2264q17-1 28-1" fill="none" stroke="#ffffff" stroke-width="1.7"></path><path d="M1963,2244q-12,6 -19,13q-11.2,11.2 6,22q3.4,2.1 20-2" fill="none" stroke="#ffffff" stroke-width="1.7"></path><path d="M1995,2259q-2.2-1.4 -11-7q-1.8-1.1 10-3q2-.3 12,13q1.8,2.4 -11,12q-6.3,4.7 -9-6q1.2-2.3 3-4" fill="none" stroke="#ffffff" stroke-width="1.7"></path><path d="M2024,2230q3.2,24.8 7,40" fill="none" stroke="#ffffff" stroke-width="1.7"></path><path d="M2030,2247q15,2 21,6" fill="none" stroke="#ffffff" stroke-width="1.7"></path><path d="M1788,2261q2,28 3,33q.3,1.5 -3-48q-1.3-19 17-17q87.6,9.7 200-7q40.3-6 86-6" fill="none" stroke="#ffffff" stroke-width="1.7"></path><path d="M2038,2235q16.9-6.1 20-3q-.2,8.4 -3,16q-.4,1.1 6,0" fill="none" stroke="#ffffff" stroke-width="1.7"></path><path d="M2227,2217q27,1 38,2" fill="none" stroke="#ffffff" stroke-width="1.7"></path><path d="M2228,2230q.4-.8 2-4q3-5.9 33,0q1,.2 5,0" fill="none" stroke="#ffffff" stroke-width="1.7"></path><path d="M2453,2143q.8-1.2 4-6q14.7-6.6 29-9q7-1.2 13,23q2.7,10.7 6,14" fill="none" stroke="#ffffff" stroke-width="1.7"></path><path d="M2365,2182q.2-.6 1-3q22.2-1.7 46,6q26.3,8.5 204-12q12.5-1.4 63,2" fill="none" stroke="#ffffff" stroke-width="1.7"></path><path d="M2365,2229q2.2-2.2 4-4q3.8-3.8 8,26q.7,4.9 6,24q-1.9-4.9 -5-14q-9.3-27 17-48q.7-.6 76,5q42.9,3.2 215,0" fill="none" stroke="#ffffff" stroke-width="1.7"></path><path d="M2404,2249q19.2-8.4 22-7q3,1.5 3,30q-.4,1.7 -1,3" fill="none" stroke="#ffffff" stroke-width="1.7"></path><path d="M2469,2245q-2,20 -2,22" fill="none" stroke="#ffffff" stroke-width="1.7"></path><path d="M2456,2253q11-.6 20-1" fill="none" stroke="#ffffff" stroke-width="1.7"></path><path d="M2567,2243q-.8-.8 -4-4q-8.9,1.8 -17,7q-12.7,8.1 7,18q2.4,1.2 13,3" fill="none" stroke="#ffffff" stroke-width="1.7"></path><path d="M2581,2255q-3-3 -2-6q.9-2.6 14,4q5.8,2.9 -1,12q-5.4,7.2 -19-3q-8-6 0-6" fill="none" stroke="#ffffff" stroke-width="1.7"></path><path d="M2621,2247q-5.5-1.7 -10-3q-10-3 -7,3q9.5,6.4 19,10q8,3 -6,11q-8.9,5.1 -21-3" fill="none" stroke="#ffffff" stroke-width="1.7"></path><path d="M2646,2238q-5-6 -3-9q3.2-4.8 9,1q1.4,1.4 -2,15q-.7,2.7 14,2" fill="none" stroke="#ffffff" stroke-width="1.7"></path><path d="M2533,2281q.8-.6 4-3q7.6-5.7 121,3" fill="none" stroke="#ffffff" stroke-width="1.7"></path><path d="M2570,2302q-9-2 -18-1q-8,.9 -8,6q9.9,7.4 22,11q2.9,.9 -13,8q-1.8,.8 -10,0q-.6-.1 2-2" fill="none" stroke="#ffffff" stroke-width="1.7"></path><path d="M2594,2308q-4,7 -2,8" fill="none" stroke="#ffffff" stroke-width="1.7"></path><path d="M2591,2301q0-.6 0-3q0-.8 3,3" fill="none" stroke="#ffffff" stroke-width="1.7"></path><path d="M2609,2309q1.1,3.3 2,6q.6,1.9 7-7q4-5.5 9,2q2.1,1.8 4,3" fill="none" stroke="#ffffff" stroke-width="1.7"></path><path d="M2647,2301q9-7 13-6q5.4,1.4 1,19q-.3,1.2 6,2" fill="none" stroke="#ffffff" stroke-width="1.7"></path><path d="M2214,2411q11,0 21,5q4.8,2.4 26,7" fill="none" stroke="#ffffff" stroke-width="1.7"></path><path d="M2226,2434q-.6-.4 -3-2q-6.3-4.2 38,0q2.2,.2 11,0" fill="none" stroke="#ffffff" stroke-width="1.7"></path><path d="M2497,2399q1.6-1.4 8-7q16-14 25-11q7.3,13.5 10,28" fill="none" stroke="#ffffff" stroke-width="1.7"></path><path d="M2363,2426q338.2,2.7 417,11q18.2,3.1 33,6" fill="none" stroke="#ffffff" stroke-width="1.7"></path><path d="M2482,2491q-4.9-2.2 -20-6q-11.5-2.9 9,21q1.6,1.8 9,8q1.9,1.5 -16,6q-.6,.2 -1-3" fill="none" stroke="#ffffff" stroke-width="1.7"></path><path d="M2505,2502q3,14 4,16" fill="none" stroke="#ffffff" stroke-width="1.7"></path><path d="M2505,2490q1.7,0 3,0" fill="none" stroke="#ffffff" stroke-width="1.7"></path><path d="M2520,2493q1.1,18.3 3,22q.8,1.6 7-6q6.9-8.5 15,5q3.1,2.9 6,5" fill="none" stroke="#ffffff" stroke-width="1.7"></path><path d="M2546,2483q3-9 6-10q7-2.3 7,11q-3.1,5.2 -7,9q-3,3 17,3" fill="none" stroke="#ffffff" stroke-width="1.7"></path><path d="M2627,2489q3,19 4,23" fill="none" stroke="#ffffff" stroke-width="1.7"></path><path d="M2624,2502q3.3-2.7 6-5q1.1-.9 7,0" fill="none" stroke="#ffffff" stroke-width="1.7"></path><path d="M2692,2494q-1-.4 -5-2q-4.2-1.7 -10,20q-1.1,4 24,4" fill="none" stroke="#ffffff" stroke-width="1.7"></path><path d="M2713,2510q-3.3-5.5 -6-10q-3-5 12-5q16,0 7,15q-3.4,5.6 -11-2q.3-1.1 1-2" fill="none" stroke="#ffffff" stroke-width="1.7"></path><path d="M2753,2492q-13,0 -16,1q3.1,7.8 11,16q5.8,6 -3,6q-.9,0 -2-4" fill="none" stroke="#ffffff" stroke-width="1.7"></path><path d="M2761,2465q15-1 19,2q3.6,2.7 -5,20q-.5,.9 16,3" fill="none" stroke="#ffffff" stroke-width="1.7"></path><path d="M2449,2541q-6-5 -3-7q12.8,.9 24,5q10.1,3.7 185-1q60.6-1.6 157,8" fill="none" stroke="#ffffff" stroke-width="1.7"></path><path d="M2618,2569q-1-6 -5-8q-8-4 -14,14q-.4,1.1 13,10q6,4 -13,4q-.4,0 0-2" fill="none" stroke="#ffffff" stroke-width="1.7"></path><path d="M2633,2579q-.6,5 -1,9" fill="none" stroke="#ffffff" stroke-width="1.7"></path><path d="M2630,2565q.6,1.1 1,2" fill="none" stroke="#ffffff" stroke-width="1.7"></path><path d="M2647,2576q1,8 2,6q3.5-7 13-7q6.1,5.4 10,12" fill="none" stroke="#ffffff" stroke-width="1.7"></path><path d="M2687,2561q.4-.8 2-4q2.6-5.1 8,3q.6,.9 -8,18q-1.1,2.1 12,0" fill="none" stroke="#ffffff" stroke-width="1.7"></path><path d="M2404,2507q-1.2,46.4 3,61q1.5-24.8 -1-70q-1.1-20 7-24q7.6-3.8 60-6q98.5-6.1 179-12q47.1-3.4 99,4" fill="none" stroke="#ffffff" stroke-width="1.7"></path><path d="M2939,2428q14,0 23,2" fill="none" stroke="#ffffff" stroke-width="1.7"></path><path d="M2954,2446q10,1 35,1" fill="none" stroke="#ffffff" stroke-width="1.7"></path><path d="M3161,2387q21.1-10.7 38-20q13.2-7.3 15,9q1.7,15 3,19" fill="none" stroke="#ffffff" stroke-width="1.7"></path><path d="M3054,2432q1.1-3.3 2-6q.3-1 96-1q124.3-.4 226-1q12.5-.1 62,7" fill="none" stroke="#ffffff" stroke-width="1.7"></path><path d="M3157,2465q2-7 1-9q-1-2 -13,10q-4.7,4.7 12,13q6,3 0,5q-2.3,.8 -12,0q-1.6-.1 8-1" fill="none" stroke="#ffffff" stroke-width="1.7"></path><path d="M3185,2478q0,7 1,9" fill="none" stroke="#ffffff" stroke-width="1.7"></path><path d="M3184,2459q.4-.4 2-2" fill="none" stroke="#ffffff" stroke-width="1.7"></path><path d="M3205,2473q-.2,1.2 -1,6q7.8-.4 18-5q7.6-3.4 20,9" fill="none" stroke="#ffffff" stroke-width="1.7"></path><path d="M3243,2450q8-5 14-5q11,0 -1,12q-9,9 11,14" fill="none" stroke="#ffffff" stroke-width="1.7"></path><path d="M3307,2453q-3.8,16.3 0,22" fill="none" stroke="#ffffff" stroke-width="1.7"></path><path d="M3302,2465q.8-.6 4-3q1-.8 6,2" fill="none" stroke="#ffffff" stroke-width="1.7"></path><path d="M3383,2463q-13-3 -20-3q-4.6,0 -15,13q-2.2,2.8 17,6q1,.2 5,0" fill="none" stroke="#ffffff" stroke-width="1.7"></path><path d="M3385,2475q-8-6 -8-9q0-7.6 14-2q4.6,1.8 8,12q.7,2 -14,2q.1-1.3 1-3" fill="none" stroke="#ffffff" stroke-width="1.7"></path><path d="M3429,2458q-14-1 -16,1q2.3,9 8,17q2.8,3.9 -14,6" fill="none" stroke="#ffffff" stroke-width="1.7"></path><path d="M3127,2461q-2,18 -1,21q.5,1.5 0-8q-1.3-25 0-29q3.9-11.8 48-4q59.6,10.5 236,6q13.8-.4 69,4" fill="none" stroke="#ffffff" stroke-width="1.7"></path><path d="M3076,2503q91,5.8 187,4q116.7-2.2 147,0" fill="none" stroke="#ffffff" stroke-width="1.7"></path><path d="M3556,2414q28.4-1.2 43,2q.6,.1 3,0" fill="none" stroke="#ffffff" stroke-width="1.7"></path><path d="M3560,2423q25,0 46,4" fill="none" stroke="#ffffff" stroke-width="1.7"></path><path d="M3748,2363q-7.1,1.1 -13,2q-7.4,1.1 1,18q1,2 16,12q2.8,1.9 -17,1q-.9,0 -4-2" fill="none" stroke="#ffffff" stroke-width="1.7"></path><path d="M3768,2384q0,8.3 0,15" fill="none" stroke="#ffffff" stroke-width="1.7"></path><path d="M3764,2363q1-.2 5-1" fill="none" stroke="#ffffff" stroke-width="1.7"></path><path d="M3787,2369q-1,16 0,21q.4,2 6-8q9.4-16.7 33-1q12,8 17,13" fill="none" stroke="#ffffff" stroke-width="1.7"></path><path d="M3672,2408q73.2,6.3 133,12q15.9,1.5 80,3" fill="none" stroke="#ffffff" stroke-width="1.7"></path><path d="M3679,2444q5-5 8-6q-.1,1.7 -1,4q-.4,.9 -4-3q-1.1,1.1 -2,3" fill="none" stroke="#ffffff" stroke-width="1.7"></path><path d="M3691,2433q-11.3,33.9 -9,50q.1,1 -1-5q-7.9-41.7 6-51q3.5-2.4 21,3q10.2,3.1 186,17" fill="none" stroke="#ffffff" stroke-width="1.7"></path><path d="M3740,2464q-7-4 -11-2q-10,5 -13,8q6.8,8.5 19,15q13,7 -22,0q-.4-.1 2-1" fill="none" stroke="#ffffff" stroke-width="1.7"></path><path d="M3760,2476q-1,8 -2,10" fill="none" stroke="#ffffff" stroke-width="1.7"></path><path d="M3757,2455q.6,.6 1,1" fill="none" stroke="#ffffff" stroke-width="1.7"></path><path d="M3779,2477q-1.1,3.3 -2,6q1.6-2 4-6q1.6-2.6 13,6q1.2,.9 7,3" fill="none" stroke="#ffffff" stroke-width="1.7"></path><path d="M3796,2460q21.5-3.4 27-2q-1.7,8.6 -8,18q-.8,1.2 6,4" fill="none" stroke="#ffffff" stroke-width="1.7"></path><path d="M3843,2464q1.6,11.6 3,21" fill="none" stroke="#ffffff" stroke-width="1.7"></path><path d="M3843,2478q1.2,0 6,0" fill="none" stroke="#ffffff" stroke-width="1.7"></path><path d="M3887,2477q-15,0 -19,3q-6.5,4.9 10,9" fill="none" stroke="#ffffff" stroke-width="1.7"></path><path d="M3898,2482q-2-7 1-9q4.8-3.2 21,9q9.3,7 -17,7q-2.3-1.3 -4-3" fill="none" stroke="#ffffff" stroke-width="1.7"></path><path d="M3934,2476q-.8,.2 -4,1q-.6,.2 9,13q1.4,1.9 -7,4q-1.5,.4 -5-6" fill="none" stroke="#ffffff" stroke-width="1.7"></path><path d="M3951,2456q5-1.6 9-3q.1,0 -2,15q-1.3,9 17,9" fill="none" stroke="#ffffff" stroke-width="1.7"></path><path d="M3998,2396q12-4 30-3q19.3,1.5 35,3" fill="none" stroke="#ffffff" stroke-width="1.7"></path><path d="M4013,2415q2.4-.4 12-2q1-.2 5,0" fill="none" stroke="#ffffff" stroke-width="1.7"></path><path d="M4196,2382q-4-2 -11,0q-9.8,1.4 -18,2q4.8,5.5 15,12q9.8,6.2 2,18q-2.9,4.4 -22-2" fill="none" stroke="#ffffff" stroke-width="1.7"></path><path d="M4221,2391q-2,14 -3,20" fill="none" stroke="#ffffff" stroke-width="1.7"></path><path d="M4213,2370q.6,0 1,0" fill="none" stroke="#ffffff" stroke-width="1.7"></path><path d="M4240,2390q-2,11 -4,13q-1,1 2-7q2.7-7.2 36-5q7.2,.5 13,12" fill="none" stroke="#ffffff" stroke-width="1.7"></path><path d="M2223,2755q2-7 7-10q13.7-8.2 17-6q4,2.7 4,41" fill="none" stroke="#ffffff" stroke-width="1.7"></path><path d="M2283,2751q5-4 13-4q16,.4 29,1" fill="none" stroke="#ffffff" stroke-width="1.7"></path><path d="M2299,2766q.2-.6 1-3q1.6-4.8 25-3" fill="none" stroke="#ffffff" stroke-width="1.7"></path><path d="M2403,2733q-6-7 -10-8q-6-1.5 -6,11q0,2.3 19,7q10.4,2.6 -2,10q-10.7,6.4 -13-3" fill="none" stroke="#ffffff" stroke-width="1.7"></path><path d="M2421,2739q-3,10 -2,14q.1,.4 2,0" fill="none" stroke="#ffffff" stroke-width="1.7"></path><path d="M2418,2717q.2-.4 1-2" fill="none" stroke="#ffffff" stroke-width="1.7"></path><path d="M2442,2738q-1,7 -1,10q0,1.7 3-8q3.1-10.1 26-1q.4,.2 2,1" fill="none" stroke="#ffffff" stroke-width="1.7"></path><path d="M2471,2705q9-4 18-3q7.5,.8 5,11q-.4,1.5 -5,6q-2,1.9 14,0" fill="none" stroke="#ffffff" stroke-width="1.7"></path><path d="M2355,2781q1.8-1.6 9-8q4-3.6 79-7q22,2.5 40,6" fill="none" stroke="#ffffff" stroke-width="1.7"></path><path d="M2409,2800q-2.2-.6 -11-3q-10-2.7 -10,8q0,2.4 17,13q18.6,11.6 -12,15q-2.8-.4 -5-1" fill="none" stroke="#ffffff" stroke-width="1.7"></path><path d="M2417,2810q0,7.7 0,14" fill="none" stroke="#ffffff" stroke-width="1.7"></path><path d="M2417,2800q1.1-1.1 2-2" fill="none" stroke="#ffffff" stroke-width="1.7"></path><path d="M2439,2802q2.3,20.7 0,23q-2.5,2.5 8-16q1.9-3.4 19-5q3-.3 3,8" fill="none" stroke="#ffffff" stroke-width="1.7"></path><path d="M2492,2781q6-1 7,3q.8,3.4 -4,17q-.5,1.5 8,1" fill="none" stroke="#ffffff" stroke-width="1.7"></path><path d="M2353,3025q2.2-3 11-15q14.1-19.3 30-17q1.8,.3 -4,41q-.3,1.9 4,9" fill="none" stroke="#ffffff" stroke-width="1.9"></path><path d="M2430,3004q16-2 33-2q4,0 20,3" fill="none" stroke="#ffffff" stroke-width="1.9"></path><path d="M2572,2997q-2-5 -7-4q-24.5,4.9 -21,26q.6,3.3 30,7" fill="none" stroke="#ffffff" stroke-width="1.9"></path><path d="M2614,3017q-14-13 -20-16q-2.3-1.1 12-4q9.5-1.9 28,11q11.2,7.8 -26,14q-4.9-.3 -9-1q-.4-.1 2-1" fill="none" stroke="#ffffff" stroke-width="1.9"></path><path d="M2668,2992q-14,1 -19,3q5.6,12.4 19,25q5.1,4.8 -15,7q-9,1 -3-8" fill="none" stroke="#ffffff" stroke-width="1.9"></path><path d="M2692,2952q-1.1-2.7 -2-5q-1-2.6 13-5q9.9-1.7 6,14q-.5,1.8 -5,8q-2.2,3 20,3" fill="none" stroke="#ffffff" stroke-width="1.9"></path><path d="M2268,3440q5-11 13-18q14.8-13 8,28q-3.3,20 -2,20" fill="none" stroke="#ffffff" stroke-width="1.9"></path><path d="M2336,3435q19-2 42,1" fill="none" stroke="#ffffff" stroke-width="1.9"></path><path d="M3032,3036q-1.8,.2 -9,1q-5.6,.6 -15,24q-4.3,10.7 30,13" fill="none" stroke="#ffffff" stroke-width="1.9"></path><path d="M3066,3059q-9-7 -10-10q-1.7-5.2 23,3q18.6,6.2 3,14q-9.4,4.7 -21-3q-.8-.6 3-4" fill="none" stroke="#ffffff" stroke-width="1.9"></path><path d="M3118,3016q-9,34 -8,45q.2,1.7 3,8" fill="none" stroke="#ffffff" stroke-width="1.9"></path><path d="M3106,3043q12-3 23-3" fill="none" stroke="#ffffff" stroke-width="1.9"></path><path d="M3170,3041q-.6-1 -3-5q-2.6-4.3 25,3" fill="none" stroke="#ffffff" stroke-width="1.9"></path><path d="M3192,3049q-.6-1.2 -3-6q-1.8-3.6 20,1q1.1,.2 5,2" fill="none" stroke="#ffffff" stroke-width="1.9"></path><path d="M3290,3027q-16.3,3.8 -21,10q-4.5,6 8,21q9.8,1.9 19,1" fill="none" stroke="#ffffff" stroke-width="1.9"></path><path d="M3324,3044q-9-3 -10-5q-1.7-3.5 22,3q14,3.8 11,16q-.5,2.2 -20,0q-1.1-.1 -2-5" fill="none" stroke="#ffffff" stroke-width="1.9"></path><path d="M3380,3026q-21-1 -26,1q-7.5,3 13,15q29.1,17 17,23q-2.2,1.1 -12,2" fill="none" stroke="#ffffff" stroke-width="1.9"></path><path d="M3288,3073q39.1-2.7 65,1" fill="none" stroke="#ffffff" stroke-width="1.9"></path><path d="M3325,3095q-30,1 -32,2q7.7,6.1 22,11q9,3.1 12,15q-12.8,4.7 -30,4" fill="none" stroke="#ffffff" stroke-width="1.9"></path><path d="M3351,3110q-3,17 -3,18" fill="none" stroke="#ffffff" stroke-width="1.9"></path><path d="M3347,3090q.6,3.3 1,6" fill="none" stroke="#ffffff" stroke-width="1.9"></path><path d="M3357,3121q24-12 28-12q10.2,11.3 16,25" fill="none" stroke="#ffffff" stroke-width="1.9"></path><path d="M2490,3408q-2.2-2.7 -4-5q-7.1-8.8 -23,23q-4.9,9.9 6,13q10.3,2.9 34-1" fill="none" stroke="#ffffff" stroke-width="1.9"></path><path d="M2519,3433q-1-2.8 -5-14q-2.1-6 15-6q13.7,0 7,20q-2,6 -24,6" fill="none" stroke="#ffffff" stroke-width="1.9"></path><path d="M2565,3395q-1.2,36.1 4,43" fill="none" stroke="#ffffff" stroke-width="1.9"></path><path d="M2548,3430q5.5-2.7 10-5q.5-.3 3,0" fill="none" stroke="#ffffff" stroke-width="1.9"></path><path d="M2600,3386q1,11 -2,18q-4.7,11 7,16q2.6,1.1 14,2" fill="none" stroke="#ffffff" stroke-width="1.9"></path><path d="M3322,3316q-1.4-.6 -7-3q-10.9-4.7 -30,24q-6,9 42,9" fill="none" stroke="#ffffff" stroke-width="2"></path><path d="M3349,3346q-5-7 -2-14q7.6-17.8 18,3q2.4,6.5 4,12q1.5,5 -18,5q-1.6,0 -5-6" fill="none" stroke="#ffffff" stroke-width="2"></path><path d="M3395,3302q-3.3,42 0,52" fill="none" stroke="#ffffff" stroke-width="1.9"></path><path d="M3387,3335q2.8,.6 5,1" fill="none" stroke="#ffffff" stroke-width="1.9"></path><path d="M3423,3314q5-4 15-4q3,0 18,5" fill="none" stroke="#ffffff" stroke-width="1.9"></path><path d="M3423,3330q18,0 33,5" fill="none" stroke="#ffffff" stroke-width="1.9"></path><path d="M3549,3311q-11.5-.5 -21-1q-13-.6 -13,16q0,11.2 22,13" fill="none" stroke="#ffffff" stroke-width="1.9"></path><path d="M3549,3341q-5-12 -2-16q7.8-10.4 33-2q2.1,.7 0,11q-1.5,7.6 -23,4q-.9-1.9 -1-4" fill="none" stroke="#ffffff" stroke-width="1.9"></path><path d="M3623,3309q1-7 -3-8q-4.2-1.1 -21,6q-1.6,.7 -3,8q8.2,4.2 19,5q16.2,1.2 2,19q-10.3,2.9 -20,3" fill="none" stroke="#ffffff" stroke-width="1.9"></path><path d="M3494,3372q0-4.9 0-9q0-6 58-6q16,1.4 29,3" fill="none" stroke="#ffffff" stroke-width="1.9"></path><path d="M3543,3388q-18-2 -22,0q-9.3,4.7 29,20q11.4,4.5 -5,10q-27,9 -19,1" fill="none" stroke="#ffffff" stroke-width="1.9"></path><path d="M3569,3405q-4,11 -4,12" fill="none" stroke="#ffffff" stroke-width="1.9"></path><path d="M3562,3383q.6,1.1 1,2" fill="none" stroke="#ffffff" stroke-width="1.9"></path><path d="M3590,3391q0,22 -3,22q-2.3,0 8-8q13.5-10.5 32,8" fill="none" stroke="#ffffff" stroke-width="1.9"></path><path d="M3321,3532q-1.2-.2 -6-1q-5.2-.9 -18,19q-12.8,19.8 30,15q.6-.1 3-1" fill="none" stroke="#ffffff" stroke-width="1.9"></path><path d="M3353,3556q-.6-1.4 -3-7q-1-2.2 12-2q8,.1 8,15q0,10 -17,10q-1.8,0 -1-9" fill="none" stroke="#ffffff" stroke-width="1.9"></path><path d="M3405,3541q-12,3 -13,6q-.4,1.1 12,11q8.2,6.5 -6,16q-1.1,.7 -3-6" fill="none" stroke="#ffffff" stroke-width="1.9"></path><path d="M3429,3520q21,0 30,3q2,.7 10,3" fill="none" stroke="#ffffff" stroke-width="1.9"></path><path d="M3429,3550q29-3 40-2" fill="none" stroke="#ffffff" stroke-width="1.9"></path><path d="M3558,3519q-2.4-.4 -12-2q-14.2-2.4 -19,17q-2.7,10.8 32,14" fill="none" stroke="#ffffff" stroke-width="1.9"></path><path d="M3581,3540q-13-6 -14-12q-.7-4.4 21-8q5.3-.9 18,14q8.6,10 -21,10" fill="none" stroke="#ffffff" stroke-width="1.9"></path><path d="M3633,3506q7.5,36.5 11,40" fill="none" stroke="#ffffff" stroke-width="1.9"></path><path d="M3623,3531q2.2,0 4,0" fill="none" stroke="#ffffff" stroke-width="1.9"></path><path d="M3686,3519q-.5,0 -1,0" fill="none" stroke="#ffffff" stroke-width="1.9"></path><path d="M3745,3512q-16-4 -23-2q-17.4,5 13,31q9.3,8 -16,8q-5,0 -2-6" fill="none" stroke="#ffffff" stroke-width="1.9"></path><path d="M3765,3520q.6,2 3,10q-2.4,5.1 -6,9" fill="none" stroke="#ffffff" stroke-width="1.9"></path><path d="M3764,3487q.6,1 3,5q.7,1.2 4,6" fill="none" stroke="#ffffff" stroke-width="1.9"></path><path d="M3794,3518q-3,13 -5,17q-1.3,2.7 12-9q11.2-9.8 35,18" fill="none" stroke="#ffffff" stroke-width="1.9"></path><path d="M2653,3404q1.1,1.7 2,3" fill="none" stroke="#ffffff" stroke-width="1.9"></path><path d="M2694,3405q-15-1 -20,2q-11,6.6 20,19q9.3,3.7 -4,9q-2.6,1 -14,0q4.4-2.8 13-6" fill="none" stroke="#ffffff" stroke-width="1.9"></path><path d="M2710,3421q-2,13 -1,16" fill="none" stroke="#ffffff" stroke-width="1.9"></path><path d="M2712,3398q-.4,.2 -2,1" fill="none" stroke="#ffffff" stroke-width="1.9"></path><path d="M2733,3410q0,13.2 0,24q.9-3.5 2-10q1.5-8.8 15-3q2.4,1 7,11" fill="none" stroke="#ffffff" stroke-width="1.9"></path><path d="M2787,3399q-3.3,4.4 -6,8q7,3.7 18,5" fill="none" stroke="#ffffff" stroke-width="1.9"></path><path d="M2214,3440q-5,14 -5,28q0,16 13,16q6.8,0 15-53q3.5-22.6 16-32q45.6-34.2 185-24q54.5,4 166-6q85.5-7.7 146-3" fill="none" stroke="#ffffff" stroke-width="1.9"></path><path d="M3617,2647q-14-2 -22,1q-17.8,6.7 8,26q29.3,22 -5,22q-8.5,0 -3-11" fill="none" stroke="#ffffff" stroke-width="1.8"></path><path d="M3632,2681q-3,14 -3,16" fill="none" stroke="#ffffff" stroke-width="1.8"></path><path d="M3640,2642q-.8,.4 -4,2q-.6,.3 2,3" fill="none" stroke="#ffffff" stroke-width="1.8"></path><path d="M3657,2673q-1.1,4.9 -2,9q-.4,1.9 3-9q1.6-5 24-5q5.1,0 20,17" fill="none" stroke="#ffffff" stroke-width="1.8"></path><path d="M3568,2718q-1.4-.6 -7-3q-9.5-4.1 76-7q8.8-.3 44,4" fill="none" stroke="#ffffff" stroke-width="1.8"></path><path d="M3610,2740q-7-4 -11-4q-11.2,0 -6,21q11.9,8.6 25,13q11.1,3.7 -10,9q-12.9,3.2 -17-5q-.4-.8 3-3" fill="none" stroke="#ffffff" stroke-width="1.8"></path><path d="M3640,2766q-7,9 -10,10" fill="none" stroke="#ffffff" stroke-width="1.8"></path><path d="M3636,2734q-.6,1.2 -3,6" fill="none" stroke="#ffffff" stroke-width="1.8"></path><path d="M3670,2748q3.5,25.7 -1,28q-1.6,.8 2-9q4-10.7 29-19q9.1-3 39,16" fill="none" stroke="#ffffff" stroke-width="1.8"></path><path d="M3383,2816q22-8 55-10q123.8-7.5 507-14" fill="none" stroke="#ffffff" stroke-width="1.8"></path><path d="M3470,2838q1,.2 5,1q5.1,1 7,25q3.7,6.3 8,11q2.4,2.7 9-28q4.7-22 68-22q100.7,0 189,5" fill="none" stroke="#ffffff" stroke-width="1.8"></path><path d="M3568,2839q-12,8 -14,13q-3,7.4 15,11q21.4,4.3 8,11q-11.3,5.7 -20-3q-.5-.5 3-2" fill="none" stroke="#ffffff" stroke-width="1.8"></path><path d="M3598,2865q7,3 6,6q-2.6,7.8 -13-6" fill="none" stroke="#ffffff" stroke-width="1.8"></path><path d="M3586,2842q3.3,.6 6,1" fill="none" stroke="#ffffff" stroke-width="1.8"></path><path d="M3617,2846q3,21 4,24q4.9-2 10-7q10.1-9.8 29,2q1.1,.7 6,3" fill="none" stroke="#ffffff" stroke-width="1.8"></path><path d="M3643,2841q16-7 26-8q4.9-.5 -3,10q-1.2,1.6 8,6" fill="none" stroke="#ffffff" stroke-width="1.8"></path><path d="M3717,2845q1,1.4 5,7q1.4,8.5 1,16" fill="none" stroke="#ffffff" stroke-width="1.8"></path><path d="M3714,2860q14-1 19,0" fill="none" stroke="#ffffff" stroke-width="1.8"></path><path d="M3767,2850q-24,10 -25,13q-1,3 21,3" fill="none" stroke="#ffffff" stroke-width="1.8"></path><path d="M3791,2862q-2.4-1.4 -12-7q-13.7-8 17-8q8.5,0 18,19q-5.2,3 -13,4q-7,.9 -7-6" fill="none" stroke="#ffffff" stroke-width="1.8"></path><path d="M3851,2842q.6-1 3-5q4.5-7.6 -21,2q-19.4,7.3 25,27q15.8,7 -29,7" fill="none" stroke="#ffffff" stroke-width="1.8"></path><path d="M3494,2912q110.8-4.6 270-15" fill="none" stroke="#ffffff" stroke-width="1.8"></path><path d="M3641,2942q-9-3 -16,0q-2.8,7.4 -3,15q8.5,9.2 19,15q2.1,1.2 -12,1q-1,0 -4-3" fill="none" stroke="#ffffff" stroke-width="1.8"></path><path d="M3666,2961q-14,3 -14,1" fill="none" stroke="#ffffff" stroke-width="1.8"></path><path d="M3655,2933q1.4,2.4 7,12q6.8,8 13,14q.8,.8 -3,5q2.7,.1 7-1q13.8-4.7 25-9q4-1.6 21,12" fill="none" stroke="#ffffff" stroke-width="1.8"></path><path d="M3586,2786q2.4-4.2 12-21q3.1-5.5 83-34" fill="none" stroke="#ffffff" stroke-width="1.9"></path><path d="M3601,2986q22-8.8 40-16q9.1-3.6 47-14" fill="none" stroke="#ffffff" stroke-width="1.9"></path></svg>