<svg viewBox="-267.8 88.95 1763.6 283.45" width="1763.6" height="283.45" version="1.1" baseProfile="full" xmlns="http://www.w3.org/2000/svg" class="js-draw--autoresize"><style id="js-draw-style-sheet">path{stroke-linecap:round;stroke-linejoin:round;}text{white-space:pre;}</style><g class="js-draw-image-background js-draw-image-background-grid js-draw-image-background-grid-25"><path d="M1495.8,372.4l0-283.45l-1763.6-2.842170943040401e-14l0,283.45l1763.6,0" fill="#000000"></path><path d="M-268.15,100l1764.3,0m-1764.3,25l1764.3,0m-1764.3,25l1764.3,0m-1764.3,25l1764.3,0m-1764.3,25l1764.3,0m-1764.3,25l1764.3,0m-1764.3,25l1764.3,0m-1764.3,25l1764.3,0m-1764.3,25l1764.3,0m-1764.3,25l1764.3,0m-1764.3,25l1764.3,0m-1746.15-261.4l0,284.15m25-284.15l0,284.15m25-284.15l0,284.15m25-284.15l0,284.15m25-284.15l0,284.15m25-284.15l0,284.15m25-284.15l0,284.15m25-284.15l0,284.15m25-284.15l0,284.15m25-284.15l0,284.15m25-284.15l0,284.15m25-284.15l0,284.15m25-284.15l0,284.15m25-284.15l0,284.15m25-284.15l0,284.15m25-284.15l0,284.15m25-284.15l0,284.15m25-284.15l0,284.15m25-284.15l0,284.15m25-284.15l0,284.15m25-284.15l0,284.15m25-284.15l0,284.15m25-284.15l0,284.15m25-284.15l0,284.15m25-284.15l0,284.15m25-284.15l0,284.15m25-284.15l0,284.15m25-284.15l0,284.15m25-284.15l0,284.15m25-284.15l0,284.15m25-284.15l0,284.15m25-284.15l0,284.15m25-284.15l0,284.15m25-284.15l0,284.15m25-284.15l0,284.15m25-284.15l0,284.15m25-284.15l0,284.15m25-284.15l0,284.15m25-284.15l0,284.15m25-284.15l0,284.15m25-284.15l0,284.15m25-284.15l0,284.15m25-284.15l0,284.15m25-284.15l0,284.15m25-284.15l0,284.15m25-284.15l0,284.15m25-284.15l0,284.15m25-284.15l0,284.15m25-284.15l0,284.15m25-284.15l0,284.15m25-284.15l0,284.15m25-284.15l0,284.15m25-284.15l0,284.15m25-284.15l0,284.15m25-284.15l0,284.15m25-284.15l0,284.15m25-284.15l0,284.15m25-284.15l0,284.15m25-284.15l0,284.15m25-284.15l0,284.15m25-284.15l0,284.15m25-284.15l0,284.15m25-284.15l0,284.15m25-284.15l0,284.15m25-284.15l0,284.15m25-284.15l0,284.15m25-284.15l0,284.15m25-284.15l0,284.15m25-284.15l0,284.15m25-284.15l0,284.15" fill="none" stroke="#ffffff33" stroke-width=".7"></path></g><path d="M-266,91q-.3,10 0,50q1.4-2.7 3-8" fill="none" stroke="#ffffff" stroke-width="1.6"></path><path d="M-245,93q-1,28 -1,47q-.4,1.1 -1,2" fill="none" stroke="#ffffff" stroke-width="1.6"></path><path d="M-267,126q.2-.4 1-2q1-2 11,3" fill="none" stroke="#ffffff" stroke-width="1.6"></path><path d="M-229,125q-1.6-3.3 -3-6q-2.7-5.3 -8,8q-6,15 22,15q.4,0 2-1" fill="none" stroke="#ffffff" stroke-width="1.6"></path><path d="M-213,125q4,15 5,18q-1-3.2 -3-9q-3.6-10.8 9-14" fill="none" stroke="#ffffff" stroke-width="1.6"></path><path d="M-182,98q0,34 4,42" fill="none" stroke="#ffffff" stroke-width="1.6"></path><path d="M-171,133q9-10 10-13q-5.3,4.1 -13,13q-3.1,3.6 13,9q3.8-.2 7-1" fill="none" stroke="#ffffff" stroke-width="1.6"></path><path d="M-141,126q2.2,15.2 4,17" fill="none" stroke="#ffffff" stroke-width="1.6"></path><path d="M-141,113q-1.1-2.2 -2-4" fill="none" stroke="#ffffff" stroke-width="1.6"></path><path d="M-119,90q-1.8,19.9 0,38q-.3,8.2 -1,15" fill="none" stroke="#ffffff" stroke-width="1.6"></path><path d="M-127,127q.6-.2 3-1q8.8,2.2 16,6" fill="none" stroke="#ffffff" stroke-width="1.6"></path><path d="M-98,125q-2,8 1,12q2.8,3.8 14,1q2-.5 2-14q3.2,4 7,12" fill="none" stroke="#ffffff" stroke-width="1.6"></path><path d="M-65,122q4,12 5,16q.7,2.7 5-13q2.3-8.4 11,9q1,1.2 2,2" fill="none" stroke="#ffffff" stroke-width="1.6"></path><path d="M-22,123q-1-4 -5-1q-4.7,3.5 1,12q4.2,4 8,7q6,4.7 6,25q0,4 -18,4" fill="none" stroke="#ffffff" stroke-width="1.6"></path><path d="M63,148q14.3-9.6 20-22q4.5-11 8-20q0,8.9 -2,25q.2,9.9 1,18" fill="none" stroke="#ffffff" stroke-width="1.6"></path><path d="M83,135q8,0 11,1" fill="none" stroke="#ffffff" stroke-width="1.6"></path><path d="M121,123q-1.2,.6 -6,3q-5,2.5 -5,15q0,6.5 13,0q6.9-3.4 14-32q.1-.6 -3,0q-2.2,.4 6,33" fill="none" stroke="#ffffff" stroke-width="1.7"></path><path d="M166,124q-8,15 -7,18q3,9 11-3q2-3 2-31q1.8,9.8 4,28q.1,1 3,4" fill="none" stroke="#ffffff" stroke-width="1.6"></path><path d="M195,124q0,16 1,17" fill="none" stroke="#ffffff" stroke-width="1.6"></path><path d="M200,101q-.2-.6 -1-3" fill="none" stroke="#ffffff" stroke-width="1.6"></path><path d="M225,95q-2.3,44.8 -1,50" fill="none" stroke="#ffffff" stroke-width="1.6"></path><path d="M217,133q1.7-2.7 3-5q.5-.8 4,2" fill="none" stroke="#ffffff" stroke-width="1.6"></path><path d="M251,138q-2,5 -2,6" fill="none" stroke="#ffffff" stroke-width="1.6"></path><path d="M249,110q-.5-1.1 -1-2" fill="none" stroke="#ffffff" stroke-width="1.6"></path><path d="M266,132q-2-12 0-16q3.2-6.4 13,1q4,3 4,20q0,6 -12,3" fill="none" stroke="#ffffff" stroke-width="1.6"></path><path d="M295,126q-4,12 -7,13q-.9,.3 0-5q.5-3 15-3" fill="none" stroke="#ffffff" stroke-width="1.6"></path><path d="M337,121q-2-4 -6-5q-6.6-1.7 0,16q3,8 3,14q-9.4,1.7 -21-1" fill="none" stroke="#ffffff" stroke-width="1.6"></path><path d="M366,94q-4.2,25.3 -2,43q.2,1.4 0,7" fill="none" stroke="#ffffff" stroke-width="1.6"></path><path d="M357,128q1.2-.4 6-2q1.3-.4 7,0" fill="none" stroke="#ffffff" stroke-width="1.6"></path><path d="M390,107q1,19.8 2,36q.1,1.1 -4-4q-5.1-6.4 24-10q3.6-.4 9,5" fill="none" stroke="#ffffff" stroke-width="1.6"></path><path d="M447,122q-4.9,1.1 -9,2q-5.5,5.7 -9,12q-1.4,2.5 15,8q2.1,.7 11,0" fill="none" stroke="#ffffff" stroke-width="1.7"></path><path d="M467,139q1-11 3-17q1.9-5.8 11,1q9.3,7 6,17q-1.5,4.4 -15,1q-.7-.2 -2-3" fill="none" stroke="#ffffff" stroke-width="1.6"></path><path d="M500,123q6,16 10,19q.2,.1 -1,0q-3.5-.4 6-13q.7-.9 5-3" fill="none" stroke="#ffffff" stroke-width="1.6"></path><path d="M549,126q-1.2-1 -6-5q-2.3-1.9 -14,5q-1.9,1.1 1,11q1.8,6 22,6" fill="none" stroke="#ffffff" stroke-width="1.6"></path><path d="M571,127q-10.2,21.9 -8,13q6.3-7.6 13-13q3.1-2.5 5,9q.5,2.8 8-1q8-4 20,8" fill="none" stroke="#ffffff" stroke-width="1.6"></path><path d="M715,124q3,16 4,18q2-5.4 3-15q.1-1.4 7,0q4,.8 4,14q1.4-2.4 3-7q4.5-12.6 13-7q3.8,6.1 6,12" fill="none" stroke="#ffffff" stroke-width="1.6"></path><path d="M772,132q-1,7 0,9" fill="none" stroke="#ffffff" stroke-width="1.6"></path><path d="M769,117q.6-1.1 1-2" fill="none" stroke="#ffffff" stroke-width="1.6"></path><path d="M797,105q.5,20.9 1,38" fill="none" stroke="#ffffff" stroke-width="1.6"></path><path d="M797,126q1.4,0 7,0" fill="none" stroke="#ffffff" stroke-width="1.6"></path><path d="M870,110q.6,.6 3,3q4.2,17.2 4,33" fill="none" stroke="#ffffff" stroke-width="1.6"></path><path d="M891,123q-7,2 -11,7q-9.5,11.8 16,15" fill="none" stroke="#ffffff" stroke-width="1.6"></path><path d="M908,138q0-12 2-14q6.8,0 13,2q6,2 6,16q0,8.5 -23-3" fill="none" stroke="#ffffff" stroke-width="1.6"></path><path d="M945,128q-1,11 1,14q.5,.8 2-5q2.3-9.3 13-12q4-1 4,15q0,1.1 -2-5q-3-9 20-9q1.6,0 7,4" fill="none" stroke="#ffffff" stroke-width="1.6"></path><path d="M1009,140q-3-7 -3-12q0-8.5 13-2q5,2.5 5,14q0,1.4 -7,0q-2.4-2.4 -4-5q-3.5-5.9 -7,15q-.3,2 5,9" fill="none" stroke="#ffffff" stroke-width="1.6"></path><path d="M1047,107q-2.8,27.7 0,36q.5,1.7 1,3" fill="none" stroke="#ffffff" stroke-width="1.6"></path><path d="M1068,138q5.1-12.8 4-15q-5.8,5.5 -11,16q-3,6 14,6q.4,0 2-1" fill="none" stroke="#ffffff" stroke-width="1.6"></path><path d="M1081,124q20.3,18.9 21,20" fill="none" stroke="#ffffff" stroke-width="1.6"></path><path d="M1112,122q-10,6 -15,13q-6.4,9 -15,9" fill="none" stroke="#ffffff" stroke-width="1.6"></path><path d="M1124,137q16-8.6 16-11q0-3.8 -15,0q-9,2.2 -7,16q.7,5 31,5q.6,0 3-1" fill="none" stroke="#ffffff" stroke-width="1.6"></path><path d="M1160,130q-1,11 0,15q2.6-5.2 5-15q2.8-.1 6,1q6.6,6.4 11,13" fill="none" stroke="#ffffff" stroke-width="1.6"></path><path d="M1260,104q1-1.4 5-7q5.2-7.2 26-2q4.2,1 -15,33q-4.2,7 4,7q9.9,.4 18,1" fill="none" stroke="#ffffff" stroke-width="1.7"></path><path d="M1322,123q-5-2 -10-1q-10,2 -3,16q2.7,5.3 19-11q4.5,3.6 8,10" fill="none" stroke="#ffffff" stroke-width="1.7"></path><path d="M1359,98q-2,28 -2,36q0-1.1 0-3q0-4.5 11-10q7.6-3.8 17,15q1.6,2.2 3,4" fill="none" stroke="#ffffff" stroke-width="1.6"></path><path d="M1402,97q-5,26 -3,37q2.1,11.6 11,16" fill="none" stroke="#ffffff" stroke-width="1.6"></path><path d="M1414,139q9-13 7-15q-6-6 -6,13q0,15 20,7q4.5-6.4 7-13q-.8,5.7 -3,16q4.6-3 11-10q.6-.7 26,12q3.6,1.8 19,6" fill="none" stroke="#ffffff" stroke-width="1.6"></path><path d="M-239,256q1,3 5,4q22,5.5 22-8q0-5.9 -17-1q-14,4 -6,16q2.1,3.2 22,1q1.8-.2 8-4" fill="none" stroke="#ffffff" stroke-width="1.9"></path><path d="M-198,228q0,10 2,12" fill="none" stroke="#ffffff" stroke-width="1.6"></path><path d="M-203,215q.6-.5 1-1" fill="none" stroke="#ffffff" stroke-width="1.6"></path><path d="M-186,231q14-6.4 14-12q0-1 -5-1q-6,0 -6,19q0,8 7,15" fill="none" stroke="#ffffff" stroke-width="1.7"></path><path d="M-149,252q-.2,.4 -1,2" fill="none" stroke="#ffffff" stroke-width="1.6"></path><path d="M-109,257q11-7.3 11-11q-8.1,1.6 -18,8q-13.7,8.8 7,14q4,1 18-6" fill="none" stroke="#ffffff" stroke-width="1.7"></path><path d="M-74,234q-1,13 -1,16" fill="none" stroke="#ffffff" stroke-width="1.6"></path><path d="M-77,223q-.5-.6 -1-1" fill="none" stroke="#ffffff" stroke-width="1.6"></path><path d="M-52,223q-4,7 -2,11q7.3,14.5 16-3q2.3-4.7 0-7" fill="none" stroke="#ffffff" stroke-width="1.6"></path><path d="M-41,225q-2.7,16 -1,21" fill="none" stroke="#ffffff" stroke-width="1.6"></path><path d="M-56,246q21-3 31-2" fill="none" stroke="#ffffff" stroke-width="1.6"></path><path d="M31,257q0-.6 0-3q0-1 11-1" fill="none" stroke="#ffffff" stroke-width="1.6"></path><path d="M34,260q4.4,.6 8,1" fill="none" stroke="#ffffff" stroke-width="1.6"></path><path d="M108,260q12-3 15-4q1.5-.5 -8-1q-9.4-.5 -14,11q-2.8,7 27,7q3.1,0 15-4" fill="none" stroke="#ffffff" stroke-width="1.6"></path><path d="M147,238q-1,9 -1,12" fill="none" stroke="#ffffff" stroke-width="1.6"></path><path d="M144,220q0-.5 0-1" fill="none" stroke="#ffffff" stroke-width="1.6"></path><path d="M178,216q-5,12 -5,24q.9,5 2,9" fill="none" stroke="#ffffff" stroke-width="1.6"></path><path d="M178,233q21.6-3.6 25-7q.6-.6 -3-3q-1.8-1.2 -11,8q-7.6,7.6 9,20" fill="none" stroke="#ffffff" stroke-width="1.6"></path><path d="M227,225q-3.4,10.3 -2,16" fill="none" stroke="#ffffff" stroke-width="1.6"></path><path d="M220,231q5-2 10-2" fill="none" stroke="#ffffff" stroke-width="1.6"></path><path d="M254,224q-1.2,12.3 4,14q7.9,2.6 17-11" fill="none" stroke="#ffffff" stroke-width="1.6"></path><path d="M264,221q-3.1,15.5 -1,26" fill="none" stroke="#ffffff" stroke-width="1.6"></path><path d="M249,251q-1.1,0 -2,0q11.6,0 33,0" fill="none" stroke="#ffffff" stroke-width="1.6"></path><path d="M291,226q8.8,2.2 16,4q3,.8 3,20q0,3.5 -9,8" fill="none" stroke="#ffffff" stroke-width="1.6"></path><path d="M-236,341q-1,23 0,27" fill="none" stroke="#ffffff" stroke-width="1.6"></path><path d="M-240,346q4-7 8-9q4-2 16,4q1.2,4 1,8q-.1,2.4 -14,7" fill="none" stroke="#ffffff" stroke-width="1.6"></path><path d="M-206,363q-5-8 -6-15q-1-7 8-4q5,1.7 5,19q0,6 -12,3q-1.1-.3 -3-5" fill="none" stroke="#ffffff" stroke-width="1.6"></path><path d="M-186,336q0,26 2,32" fill="none" stroke="#ffffff" stroke-width="1.6"></path><path d="M-176,349q-5,8 -5,13q0,8.5 17,0q7.5-3.7 -3-9q.2,1.2 1,3" fill="none" stroke="#ffffff" stroke-width="1.6"></path><path d="M-150,359q3,10.5 3,7q0-2.1 -3-10q-3.4-8.9 6-12" fill="none" stroke="#ffffff" stroke-width="1.6"></path><path d="M-104,332q-1.8,.4 -9,2q-1.1,.3 3,21q3.5,8.9 7,16" fill="none" stroke="#ffffff" stroke-width="1.6"></path><path d="M-121,360q6-6 10-6" fill="none" stroke="#ffffff" stroke-width="1.6"></path><path d="M-97,361q1-8 4-13q3.9-6.6 13,7q11.1,16.6 -12,12q-4.1-.8 -2-5" fill="none" stroke="#ffffff" stroke-width="1.6"></path><path d="M-74,352q3.5,14 5,17q-.8-3.9 -3-11q1.5-4.5 4-8" fill="none" stroke="#ffffff" stroke-width="1.6"></path><path d="M-46,351q.8,0 4,0q3,0 3,17q0,1.6 1-8q.2-2.1 8-7q2.4-1.5 6,13q-.4-.3 -1-1q-3.2-3.8 9-13q1.7-1.3 6,9q1,2.4 11,7" fill="none" stroke="#ffffff" stroke-width="1.9"></path><path d="M35,369q1.1-.5 2-1" fill="none" stroke="#ffffff" stroke-width="1.6"></path><path d="M59,369q.6-.5 1-1" fill="none" stroke="#ffffff" stroke-width="1.6"></path><path d="M81,369q-.5,0 -1,0" fill="none" stroke="#ffffff" stroke-width="1.6"></path><path d="M119,366q.2,.2 0,.2q-.2,0 -.2-.2q0-.2 .2-.2q.2,0 .2,.2" fill="none" stroke="#ffffff" stroke-width="1.6"></path></svg>