<svg viewBox="-246.8 4 248.6 53.8" width="248.6" height="53.8" version="1.1" baseProfile="full" xmlns="http://www.w3.org/2000/svg" class="js-draw--autoresize"><style id="js-draw-style-sheet">path{stroke-linecap:round;stroke-linejoin:round;}text{white-space:pre;}</style><g class="js-draw-image-background js-draw-image-background-grid js-draw-image-background-grid-25"><path d="M1.8,57.8L1.8,4L-246.8,4L-246.8,57.8L1.8,57.8" fill="#000000"></path><path d="M-247.15,25L2.15,25M-247.15,50L2.15,50M-225,3.65L-225,58.15M-200,3.65L-200,58.15M-175,3.65L-175,58.15M-150,3.65L-150,58.15M-125,3.65L-125,58.15M-100,3.65L-100,58.15M-75,3.65L-75,58.15M-50,3.65L-50,58.15M-25,3.65L-25,58.15M0,3.65L0,58.15" fill="none" stroke="#ffffff33" stroke-width=".7"></path></g><path d="M-238,5Q-237.8,5.2 -238,5.2Q-238.2,5.2 -238.2,5Q-238.2,4.8 -238,4.8Q-237.8,4.8 -237.8,5" fill="none" stroke="#ffffff" stroke-width="1.6"></path><path d="M-238,5Q-243,47.5 -243,56Q-243,56.4 -241,57" fill="none" stroke="#ffffff" stroke-width="1.6"></path><path d="M-246,15Q-238,10 -228,8Q-224.5,7.3 -210,7" fill="none" stroke="#ffffff" stroke-width="1.6"></path><path d="M-191,30q-17,2 -23,5q-13.1,6.6 4,10q10.4,1.3 19,2" fill="none" stroke="#ffffff" stroke-width="1.6"></path><path d="M-245,38q9-4 20-5q1-.1 5,0" fill="none" stroke="#ffffff" stroke-width="1.6"></path><path d="M-178,33q3.3-1.1 6-2q1.5-.5 -8,0q-7,.4 -7,8q0,5 20,5" fill="none" stroke="#ffffff" stroke-width="1.6"></path><path d="M-150,27Q-157,32 -159,37Q-161.7,43.7 -155,47Q-154.2,47.4 -142,26Q-139.2,15.8 -138,7Q-137.7,5.2 -144,14Q-150.6,23.4 -133,41" fill="none" stroke="#ffffff" stroke-width="1.6"></path><path d="M-105,7Q-108,16 -107,25Q-104.2,49.7 -110,44Q-117.3,36.7 -104,30Q-95.7,25.8 -90,40Q-86,50 -105,50Q-106.3,50 -108,44" fill="none" stroke="#ffffff" stroke-width="1.6"></path><path d="M-72,30q-8,0 -10,2q-5.9,5.9 -2,11q10.4,13.9 14-4q.3-1.4 -1-7q-.6,2.5 -1,7q-.3,4 10,4" fill="none" stroke="#ffffff" stroke-width="1.6"></path><path d="M-44,31q-7,1 -11,4q-3.9,2.9 5,14q3.1,3.9 21-4q1.9-.8 5-9" fill="none" stroke="#ffffff" stroke-width="1.6"></path><path d="M-19,7Q-24,20 -25,28Q-27.2,45.8 -19,54" fill="none" stroke="#ffffff" stroke-width="1.6"></path><path d="M1,27q-12,2 -19,6q-7.2,4.1 -4,17" fill="none" stroke="#ffffff" stroke-width="1.6"></path></svg>