<svg viewBox="-471.8 142.2 1065.95 808.25" width="1065.95" height="808.25" version="1.1" baseProfile="full" xmlns="http://www.w3.org/2000/svg" class="js-draw--autoresize"><style id="js-draw-style-sheet">path{stroke-linecap:round;stroke-linejoin:round;}text{white-space:pre;}</style><g class="js-draw-image-background js-draw-image-background-grid js-draw-image-background-grid-25"><path d="M594.15,950.45l0-808.25l-1065.95-5.684341886080802e-14l0,808.25l1065.95,0" fill="#000000"></path><path d="M-472.15,150l1066.65,0m-1066.65,25l1066.65,0m-1066.65,25l1066.65,0m-1066.65,25l1066.65,0m-1066.65,25l1066.65,0m-1066.65,25l1066.65,0m-1066.65,25l1066.65,0m-1066.65,25l1066.65,0m-1066.65,25l1066.65,0m-1066.65,25l1066.65,0m-1066.65,25l1066.65,0m-1066.65,25l1066.65,0m-1066.65,25l1066.65,0m-1066.65,25l1066.65,0m-1066.65,25l1066.65,0m-1066.65,25l1066.65,0m-1066.65,25l1066.65,0m-1066.65,25l1066.65,0m-1066.65,25l1066.65,0m-1066.65,25l1066.65,0m-1066.65,25l1066.65,0m-1066.65,25l1066.65,0m-1066.65,25l1066.65,0m-1066.65,25l1066.65,0m-1066.65,25l1066.65,0m-1066.65,25l1066.65,0m-1066.65,25l1066.65,0m-1066.65,25l1066.65,0m-1066.65,25l1066.65,0m-1066.65,25l1066.65,0m-1066.65,25l1066.65,0m-1066.65,25l1066.65,0m-1066.65,25l1066.65,0m-1044.5-808.15l0,808.95m25-808.95l0,808.95m25-808.95l0,808.95m25-808.95l0,808.95m25-808.95l0,808.95m25-808.95l0,808.95m25-808.95l0,808.95m25-808.95l0,808.95m25-808.95l0,808.95m25-808.95l0,808.95m25-808.95l0,808.95m25-808.95l0,808.95m25-808.95l0,808.95m25-808.95l0,808.95m25-808.95l0,808.95m25-808.95l0,808.95m25-808.95l0,808.95m25-808.95l0,808.95m25-808.95l0,808.95m25-808.95l0,808.95m25-808.95l0,808.95m25-808.95l0,808.95m25-808.95l0,808.95m25-808.95l0,808.95m25-808.95l0,808.95m25-808.95l0,808.95m25-808.95l0,808.95m25-808.95l0,808.95m25-808.95l0,808.95m25-808.95l0,808.95m25-808.95l0,808.95m25-808.95l0,808.95m25-808.95l0,808.95m25-808.95l0,808.95m25-808.95l0,808.95m25-808.95l0,808.95m25-808.95l0,808.95m25-808.95l0,808.95m25-808.95l0,808.95m25-808.95l0,808.95m25-808.95l0,808.95m25-808.95l0,808.95" fill="none" stroke="#ffffff33" stroke-width=".7"></path></g><path d="M-437,150q0,.4 0,2q-.9,25.9 -2,47q-.3,5.6 13-1q9.2-.8 17,0" fill="none" stroke="#ffffff" stroke-width="1.7"></path><path d="M-406,191q8.8-7.7 16-14q1.4-1.2 -9,0q-3.5,.4 -9,15q-3.4,9.1 25,5q1.5-.2 5-6" fill="none" stroke="#ffffff" stroke-width="1.7"></path><path d="M-375,175q3.4,19.1 5,24q-1-4.2 -3-12q-2.6-10 8-10" fill="none" stroke="#ffffff" stroke-width="1.7"></path><path d="M-348,173q-4,3 -4,10q0,2.3 3,11q.7,2.1 0-11q-.4-8 11-8q4.7,0 14,14" fill="none" stroke="#ffffff" stroke-width="1.6"></path><path d="M-314,174q0-.4 0-2q0-2.6 13-1q12.7,1.6 -2,20q-1.2,1.5 -8,5q10.8,1.4 30,0" fill="none" stroke="#ffffff" stroke-width="1.8"></path><path d="M-268,181q0,9 -1,12q.8-1 2-3" fill="none" stroke="#ffffff" stroke-width="1.6"></path><path d="M-268,161q-.5-2.7 -1-5q-.2-.8 0,4" fill="none" stroke="#ffffff" stroke-width="1.6"></path><path d="M-245,177q-1.6-3.3 -3-6q-1.2-2.5 -13,5q-6.1,3.9 0,16q1.5,3 19,3q.9,0 4-2" fill="none" stroke="#ffffff" stroke-width="1.8"></path><path d="M-220,143q-6,12 -8,23q-2.4,13.2 6,30" fill="none" stroke="#ffffff" stroke-width="1.6"></path><path d="M-202,175q-.2-.8 -1-4q-2.6-10.6 -13,17q-6.3,16.8 32,12" fill="none" stroke="#ffffff" stroke-width="1.8"></path><path d="M-469,212q5.5-2.2 10-4q20.1,1.3 37,6q7.2,2 90,2q66.1-5.8 120-13q12.5-1.7 63-1" fill="none" stroke="#ffffff" stroke-width="1.6"></path><path d="M-457,278q13.2,0 24,0" fill="none" stroke="#ffffff" stroke-width="1.6"></path><path d="M-368,267q0-4.4 0-8q0-5.4 -13,5q-12.6,10.1 9,23q12.7,7.6 -2,15q-4,2 -16-10q.5-2.6 2-5" fill="none" stroke="#ffffff" stroke-width="1.6"></path><path d="M-347,256q0,28 3,37q.8,2.3 0,12" fill="none" stroke="#ffffff" stroke-width="1.6"></path><path d="M-354,283q12,1 17,2" fill="none" stroke="#ffffff" stroke-width="1.6"></path><path d="M-311,281q-1.6-.6 -8-3q-1.9-.7 -8,6q-5.1,5.6 5,9q7.1,2.4 12-10q5.4,.7 11,4" fill="none" stroke="#ffffff" stroke-width="1.8"></path><path d="M-290,277q1,9 6,16q1.2,1.7 5,9q-3-7.1 -9-20" fill="none" stroke="#ffffff" stroke-width="1.6"></path><path d="M-268,276q3.5,17.5 5,22q.1-6 -1-17q-.1-.7 3-2" fill="none" stroke="#ffffff" stroke-width="1.6"></path><path d="M-239,278q-4.4,.6 -8,1q-14.3,1.8 1,14q7.2,5.8 10,3" fill="none" stroke="#ffffff" stroke-width="1.7"></path><path d="M-218,292q1.1,4.4 2,8q-.5-6 -2-17q-.7-5 15-5" fill="none" stroke="#ffffff" stroke-width="1.9"></path><path d="M-154,253q1.1-3.3 2-6q2.3,10.6 3,30q.4,11.1 9,14q.5,.2 2-2" fill="none" stroke="#ffffff" stroke-width="1.7"></path><path d="M-113,257q-12,5 -17,13q-8,12.8 -8,15q0,3.1 29,1q2.2-.5 4-1" fill="none" stroke="#ffffff" stroke-width="1.6"></path><path d="M-99,286q-.2-1.2 -1-6q-.8-4.8 16-2q8.5,1.4 6,14q-.8,4 -15,2q-1.3-.2 -5-4" fill="none" stroke="#ffffff" stroke-width="1.6"></path><path d="M-99,261q16-1 24,0" fill="none" stroke="#ffffff" stroke-width="1.6"></path><path d="M-51,279q2,8 4,12q.9,1.9 -3-10q-1-3 5-9" fill="none" stroke="#ffffff" stroke-width="1.6"></path><path d="M-22,284q0-7 3-8q6.7-2.2 16,7q2,2 -8,4q-6.1-1.6 -11-4q-4.3-2.1 -1,24q.6,4.4 1,8" fill="none" stroke="#ffffff" stroke-width="1.6"></path><path d="M12,283Q21,279 24,278Q26.5,277.2 11,281Q.1,283.7 11,300Q18.6,302.6 26,303" fill="none" stroke="#ffffff" stroke-width="1.6"></path><path d="M42,278q1,7 4,12q3.4,6.6 6,12q.3-6.5 -1-18q-.9-8 19-8" fill="none" stroke="#ffffff" stroke-width="1.6"></path><path d="M-466,384q-2.7,0 -5,0q10.8,1.4 31,3q-8.8-.7 -25-2q-2.3,1.3 -4,3" fill="none" stroke="#ffffff" stroke-width="1.6"></path><path d="M-365,364q.5,20.4 1,37q0,.8 0-4" fill="none" stroke="#ffffff" stroke-width="1.6"></path><path d="M-348,370q-5,1 -9,5q-19,19 9,19q5,.5 9,1" fill="none" stroke="#ffffff" stroke-width="1.6"></path><path d="M-330,389q-.5,3.3 -1,6" fill="none" stroke="#ffffff" stroke-width="1.6"></path><path d="M-332,366q-.2,.4 -1,2" fill="none" stroke="#ffffff" stroke-width="1.6"></path><path d="M-307,374q-3,6 -3,14q.9,3.9 2,7q1.2-2.8 2-8q3.2-20.1 17,4q2,3.5 9,7" fill="none" stroke="#ffffff" stroke-width="1.6"></path><path d="M-274,390q9-9 9-12q0-13 -12,11q-2.5,5 27,5" fill="none" stroke="#ffffff" stroke-width="1.6"></path><path d="M-242,374q2,12 5,17q.7,1.2 6,3q.3-3.3 -1-8q1.5-5.5 4-10q3.5,5.3 6,15q3-3.4 6-10q3.7-8.3 22,10" fill="none" stroke="#ffffff" stroke-width="1.7"></path><path d="M-178,377q-7,0 -10,4q-10,13.3 6,8q1.7-.6 4-8q-.2,2.5 -1,7q-.3,1.7 7,5" fill="none" stroke="#ffffff" stroke-width="1.6"></path><path d="M-156,355q.4,7.2 4,36q.1,.9 2,4" fill="none" stroke="#ffffff" stroke-width="1.6"></path><path d="M-161,383q1-6 4-6q2.8,0 13,5" fill="none" stroke="#ffffff" stroke-width="1.6"></path><path d="M-125,374q-4.4,13.2 -2,18q.2,.4 2,1" fill="none" stroke="#ffffff" stroke-width="1.6"></path><path d="M-124,351q-3-5 -3-4" fill="none" stroke="#ffffff" stroke-width="1.6"></path><path d="M-105,356q-2,10 -1,16q3.4,20.2 5,21" fill="none" stroke="#ffffff" stroke-width="1.6"></path><path d="M-85,369q-7,4 -12,10q-9.2,11 14,11q8.8,0 16,0" fill="none" stroke="#ffffff" stroke-width="1.7"></path><path d="M6,372Q3,370 0,372Q-8,377.3 -8,393Q-8,401.1 13,388Q18.9,384.3 16,364Q15.7,361.8 8,356Q4.6,353.4 10,367Q14,377 21,391" fill="none" stroke="#ffffff" stroke-width="1.7"></path><path d="M28,383q4-4 10-10q1.5-1.5 -10,4q-2.2,1.1 -2,12q0,2.2 20,4q1.7,.2 8-3" fill="none" stroke="#ffffff" stroke-width="1.6"></path><path d="M55,375q0,2.2 0,4q0,7.3 7,16q0-5.6 -2-15q-1.6-7.6 19-11" fill="none" stroke="#ffffff" stroke-width="1.7"></path><path d="M137,357q4.2,35 7,35" fill="none" stroke="#ffffff" stroke-width="1.6"></path><path d="M136,363q1-9 5-13q9.5-9.5 14,4q.4,1.1 -8,22q-3.6,9 18,9" fill="none" stroke="#ffffff" stroke-width="1.6"></path><path d="M172,378q-2-6 -1-9q.7-2 14-2q7,0 7,20q0,6.5 -18,2q-6-1.5 -6-12" fill="none" stroke="#ffffff" stroke-width="1.6"></path><path d="M203,345q-.4,0 -2,0q-3.7,0 3,27q1,4 1,24" fill="none" stroke="#ffffff" stroke-width="1.6"></path><path d="M193,378q2-3 8-3q7.2,.9 13,2" fill="none" stroke="#ffffff" stroke-width="1.6"></path><path d="M240,373q-7-3 -13-3q-14.5,0 -6,17q2.9,5.8 15,1q4-1.6 4-15q1.4,5.9 3,17q.1,.6 2,2" fill="none" stroke="#ffffff" stroke-width="1.7"></path><path d="M263,339q0,24.5 3,44q-.3,6.6 -1,12" fill="none" stroke="#ffffff" stroke-width="1.7"></path><path d="M254,375q12-2 15-1" fill="none" stroke="#ffffff" stroke-width="1.6"></path><path d="M292,376q-3,14 -1,16" fill="none" stroke="#ffffff" stroke-width="1.6"></path><path d="M292,354q0-.6 0-3" fill="none" stroke="#ffffff" stroke-width="1.6"></path><path d="M306,386q-1-9 2-12q14.5-14.5 18,10q1.6,11.2 -11,7q-4.4-1.5 -1-10" fill="none" stroke="#ffffff" stroke-width="1.7"></path><path d="M348,366q-8,17 -8,26q3.6-6.1 8-18q3.9-10.5 18,12q4.2,4.6 8,8" fill="none" stroke="#ffffff" stroke-width="1.8"></path><path d="M-460,487q-3.8-.5 -7-1q13-.1 37,1q-12.6,.2 -36,0" fill="none" stroke="#ffffff" stroke-width="1.6"></path><path d="M-367,470q-1.3,17.3 0,24q.2,1 3,4" fill="none" stroke="#ffffff" stroke-width="1.6"></path><path d="M-366,472q2-6 9-7q17-2.4 17,29q0,4.7 -16,2q-.8-.1 -3-3" fill="none" stroke="#ffffff" stroke-width="1.6"></path><path d="M-324,488q5.9,15.3 5,18q-3,9 -3-14q0-5 6-8" fill="none" stroke="#ffffff" stroke-width="1.6"></path><path d="M-287,486q-.8-.6 -4-3q-5.5,2.4 -10,7q-4.5,4.6 16,8q1.8,.3 9-2" fill="none" stroke="#ffffff" stroke-width="1.6"></path><path d="M-265,461q3,43.5 3,30q0-15 7-8q8,5.3 15,9" fill="none" stroke="#ffffff" stroke-width="1.6"></path><path d="M-229,484q7,11 10,13q2.3-4.3 3-11q1-9.5 6-2q3.3,5 5,10q.5,1.4 4-6q4.8-10.1 29,2" fill="none" stroke="#ffffff" stroke-width="1.7"></path><path d="M-159,491q-5-4 -5-7q0-1.8 8-4q8-2.2 8,12q0,3.7 -11,0q-.6-.2 0-3" fill="none" stroke="#ffffff" stroke-width="1.7"></path><path d="M-126,484q4,11 4,13q1.4-5.6 3-16q5.2,4.2 11,13q.5,.8 0-5q-.4-4.4 10-7q6.2,2.8 11,7q1.7,1.5 11,2" fill="none" stroke="#ffffff" stroke-width="1.8"></path><path d="M-65,481q-.8-.8 -4-4q-2.2,4.1 -3,11q-.5,4 15,4" fill="none" stroke="#ffffff" stroke-width="1.6"></path><path d="M-40,477q-2,15 -1,17q2.9-5 5-14q1.6-6.8 11,5q4,5 10,8" fill="none" stroke="#ffffff" stroke-width="1.6"></path><path d="M-5,457Q-1.4,477.8 6,495Q6.5,496.1 5,501" fill="none" stroke="#ffffff" stroke-width="1.6"></path><path d="M-8,482Q-7,481 -3,477Q-.8,474.8 12,481" fill="none" stroke="#ffffff" stroke-width="1.6"></path><path d="M-457.5,609q2.5,17.6 4.5,32q.5,3.4 11.1-25.5q1.7-2.9 3.3-5.2" fill="none" stroke="#ffffff" stroke-width="1.5"></path><path d="M-433.8,634.8q3-5.7 3-7.6q-2.7,2.9 -6.1,8.8q-4.5,8 9.3,6.2q3.4-.4 8-4.5" fill="none" stroke="#ffffff" stroke-width="1.5"></path><path d="M-410.8,641.1q-.4-.6 -.7-1.1q-8.5-13.4 5.9-17" fill="none" stroke="#ffffff" stroke-width="1.5"></path><path d="M-377.5,619.2q-7.2,.6 -10.3,2.7q-9.1,6.2 1.8,14.8q7,5.5 0,7.6q-10.1,3 -14.2-2.7" fill="none" stroke="#ffffff" stroke-width="1.5"></path><path d="M-359.3,631.6q-1.5-4.4 -5.8-4.1q-12.6,.9 -13.9,12.4q-1.1,9.6 21.7,3.3q1.5-.4 6-4.8" fill="none" stroke="#ffffff" stroke-width="1.5"></path><path d="M-349,610.1q.5,16.7 1,30.3q0,.7 -1.6-3.3q-1.2-3 12.4-11.3q4.4-2.7 9.3,16.9" fill="none" stroke="#ffffff" stroke-width="1.5"></path><path d="M-316,634q1.4,5.1 3.3,6.4q.3,.2 1.9-.5" fill="none" stroke="#ffffff" stroke-width="1.5"></path><path d="M-309.6,609.3q0-.4 0-2" fill="none" stroke="#ffffff" stroke-width="1.5"></path><path d="M-295.7,628.7q6.7-3.2 9.2-4.6q-4.5,3.3 -13.1,9.1q-6.3,4.3 7.6,7q8.5,1.7 13.6-2.8" fill="none" stroke="#ffffff" stroke-width="1.5"></path><path d="M-266.4,630.7q-5.2-.4 -7.2,1.9q-4.8,5.5 -.4,9.9q2.4,2.4 13.9-11.8q4.3-5.2 5.8-23.1q.1-1.1 -2.2,5.2q-2.1,5.9 4,28.1" fill="none" stroke="#ffffff" stroke-width="1.5"></path><path d="M-241.4,629.6q-.5-.8 -2.3-3.9q-2.8-4.7 -5.2,8.7q-.8,4.5 16.9,4.1q2.9-.1 5.1-11.4q.1,4.3 -.3,12.3q-.1,1.4 4.3-5.8q4.1-6.9 18.9,4.2" fill="none" stroke="#ffffff" stroke-width="1.5"></path><path d="M-180.7,622.3q-14.7,12.7 -15.7,16q-2.8,9.2 31,9.2" fill="none" stroke="#ffffff" stroke-width="1.5"></path><path d="M-114.9,647.3q17.4-10.7 21.4-20.8q7.5-18.7 9.3-13q9.3,28.8 8.8,30.3" fill="none" stroke="#ffffff" stroke-width="1.5"></path><path d="M-95,634.1q3-.1 5.5-.1" fill="none" stroke="#ffffff" stroke-width="1.5"></path><path d="M-67.4,636q5.6,7.1 6.7,8.7q-1.8-3.9 -5.5-11q-7.3-13.8 17.4-12" fill="none" stroke="#ffffff" stroke-width="1.6"></path><path d="M-30.4,603.5q-.4,26.7 5.4,35.9q.5,.7 1.7,3.9" fill="none" stroke="#ffffff" stroke-width="1.5"></path><path d="M-37.2,634q6.4-2.9 12.5-3q3.8,.7 6.9,1.6" fill="none" stroke="#ffffff" stroke-width="1.5"></path><path d="M-1.8,628.2q-9.5-2.1 -13.1,.2q-7.9,5.1 7.1,9.1q8.8,2.4 14.2-1.1" fill="none" stroke="#ffffff" stroke-width="1.5"></path><path d="M9.1,626.1Q9.2,636.2 10.2,637.9Q11.2,639.5 17.9,632.4Q22.3,627.7 39.8,637.2Q43.2,638.3 46.1,639" fill="none" stroke="#ffffff" stroke-width="1.5"></path><path d="M112.7,629.3q2.2,10.7 4.9,13.2q12.6,11.7 17.9-19.9q.1-.9 1.6-4.2" fill="none" stroke="#ffffff" stroke-width="1.6"></path><path d="M152.4,638.2q-4.6-3.7 -5.1-6.8q-.3-2 7.8-6.2q3-1.6 8.2,14.1q3.3,9.9 -16.2,.6q-.6-.3 -.1-3.2" fill="none" stroke="#ffffff" stroke-width="1.5"></path><path d="M173.6,627.9q1.1,9.6 4.8,15.1q.7,1 3.2-5.2q2.3-5.7 23.7,5.6q.9,.5 3.1,4.1" fill="none" stroke="#ffffff" stroke-width="1.5"></path><path d="M292.1,612.6q-.1,.5 -.4,2.7q-2.9,19.8 2.1,28.2" fill="none" stroke="#ffffff" stroke-width="1.5"></path><path d="M294.5,607.8q13.7-4.8 19.7-4.3q4.7,.4 4.4,17.5q-.1,4.8 -7.7,5.5q2.3,2 6.9,4.3q2.8,1.4 4.1,15.7q.2,1.9 -25-1" fill="none" stroke="#ffffff" stroke-width="1.5"></path><path d="M335.9,630.7q4.4-4.7 6.4-5.6q2.9-1.3 -13.4,8.6q-10.6,6.5 7.7,9.8q14.5,.7 26.5,.6" fill="none" stroke="#ffffff" stroke-width="1.5"></path><path d="M366.5,622.5q2,15.4 3.7,19.4q.2,.5 4-12.4q.6-2.2 .6,11.5q0,7.4 13.1-1.9q5.7-8.3 9.4-16" fill="none" stroke="#ffffff" stroke-width="1.5"></path><path d="M404.1,631.7q10-5.7 13.1-7.5q2.7-1.5 -14.8,4.3q-7.8,2.6 1.2,10.7q2.3,2.1 21.5,2.1" fill="none" stroke="#ffffff" stroke-width="1.5"></path><path d="M445.9,625.2q-15.3,4.6 -15.9,6.7q-1.8,6.3 10.5,1q3.8-1.7 9.9,19.1q4.8,16.5 -8.8,16.1q-5.9-.2 -15-11" fill="none" stroke="#ffffff" stroke-width="1.5"></path><path d="M475.5,629.9q-2.2,10.4 .2,14.5q2.5,4.2 14.3-1.2q2.5-1.2 3.4-13.9q1.5,3 3.1,8.7q.4,1.3 5,4.9" fill="none" stroke="#ffffff" stroke-width="1.5"></path><path d="M517.7,630q.3,2.5 1.3,12.6q2.5-5.3 5.2-15.4q2.8-10.6 17.5,9.6q1.6,3.6 2.6,6.7" fill="none" stroke="#ffffff" stroke-width="1.5"></path><path d="M554.6,625.3q-5.5,5.5 -5.7,9.3q-.1,1.4 2.6,6.3q.8,1.5 3.2-7.6q1.1-4.3 9,18.3q5.6,16.1 -8.5,21.3q-2.2,.8 -4.9-10.4" fill="none" stroke="#ffffff" stroke-width="1.5"></path><path d="M589.9,617.6q-.3,.7 -1.5,3.7" fill="none" stroke="#ffffff" stroke-width="1.5"></path><path d="M593.4,645.6q-.1-2.5 -.1-4.5" fill="none" stroke="#ffffff" stroke-width="1.5"></path><path d="M-402,706.8q.5,.1 2.3,.4q2.5,11.4 .3,24.5q-.5,3 1.8,10.4q.1,.5 0-2.4" fill="none" stroke="#ffffff" stroke-width="1.5"></path><path d="M-424.6,704.6q0-.7 0-3.4q0-.4 28-1.3q2.6-.1 12.7,1.7" fill="none" stroke="#ffffff" stroke-width="1.5"></path><path d="M-377.4,719.1q3.6,14.8 7.8,22.4q.3,.5 -1.8,2.3q-1,.8 -2.3-5.9q-1.7-8.7 9.1-10" fill="none" stroke="#ffffff" stroke-width="1.5"></path><path d="M-349.1,726.8q-3.6-2.5 -6.2-.4q-8.6,7 5.4,12.2q4.2,1.5 6.1-9.3q5.4,.9 11.6,4.8" fill="none" stroke="#ffffff" stroke-width="1.5"></path><path d="M-326.3,728.8q.4,7.5 1.3,9.4q.6,1.3 3.7-6.1q3.3-7.9 17.3,2.7" fill="none" stroke="#ffffff" stroke-width="1.5"></path><path d="M-292.6,727q-2.8-4.6 -5.2-3.8q-7.2,2.4 .8,11.6q5.4,4 10.2,6.9q-5.2,4.4 -14.8,7.8" fill="none" stroke="#ffffff" stroke-width="1.5"></path><path d="M-270.5,707q2.3,22.9 5.3,30.9q.3,.8 .6,4.2" fill="none" stroke="#ffffff" stroke-width="1.5"></path><path d="M-245.1,730.3q-6.2,1.7 -8.9,4.8q-5.3,6.1 5.7,6.6q3.1,.1 7.7-8.7q.7-1.3 3.3,6.3q2.4,6.8 14.8,2" fill="none" stroke="#ffffff" stroke-width="1.5"></path><path d="M-209.8,699.9q-5.3,14.1 -5.6,25.4q2.1,10.3 4.7,18.6" fill="none" stroke="#ffffff" stroke-width="1.5"></path><path d="M-219.6,735.4q10.3-1.1 16.7-1.7" fill="none" stroke="#ffffff" stroke-width="1.5"></path><path d="M-196.3,732q4.1,9.8 5.2,11.7" fill="none" stroke="#ffffff" stroke-width="1.5"></path><path d="M-193.4,707.5q.4-4.1 1.5-3.1" fill="none" stroke="#ffffff" stroke-width="1.5"></path><path d="M-170.4,736.3q-4.5-7.9 -4.6-10.9q4.1,4.7 9.3,14.3q2.9,5.3 -5.5,7q-5.3,1.1 -5.3-13.1" fill="none" stroke="#ffffff" stroke-width="1.6"></path><path d="M-161.9,727.2q-.6,10.3 -2.4,9q-2.1-1.5 11-4.2q7.8,2.8 13.9,7" fill="none" stroke="#ffffff" stroke-width="1.5"></path><path d="M-126,731.3q-2.3-9.3 -6.2-11.1q-1.3-.6 -3,6.5q5.6,7.8 13.5,13.2q8,5.5 -8.7,12.4q-3.9,1.6 -11.8,1.6" fill="none" stroke="#ffffff" stroke-width="1.5"></path><path d="M-95.2,703.2q-.5,.6 -2.3,3.2q-2.6,3.7 2.1,29.8q1.4-3.7 2.7-10.7q.9-4.8 18.5,8.1q7.2,5.3 -10.3,6.7q-7.2,.6 -8.2-5.4" fill="none" stroke="#ffffff" stroke-width="1.5"></path><path d="M-60.6,733q8.8-4 12.5-7q7.4-6 -14.9,6.1q-10.7,5.8 9,8.4q8.3,1.1 15.1-2.6" fill="none" stroke="#ffffff" stroke-width="1.6"></path><path d="M-31.5,724.3q4.9,9.8 10.2,15.4q.5,.5 4.4-7.7q.4-.8 3.5,2.6q.8,.9 18.4-2.3" fill="none" stroke="#ffffff" stroke-width="1.5"></path><path d="M6.7,734.4Q10.8,731.4 12.9,729.8Q10.7,731.7 6.6,735.1Q2.2,738.8 24.9,740.2" fill="none" stroke="#ffffff" stroke-width="1.5"></path><path d="M40.2,732.3q-3.4-2.3 -5.2-1.4q.3,1.5 1.2,3q.9,1.5 8.6,1.6q8.6,.1 12.6,21.6q1.3,7.1 -18.8,5.2q-4.1-1.9 -7.2-4.1" fill="none" stroke="#ffffff" stroke-width="1.5"></path><path d="M74,729.8q-1.1,1.6 -5.7,7.8q-2.8,3.8 16.1,10q3,1 7.3-12.6q2.7,1.5 5.6,5q1.2,1.5 9.1,2.5" fill="none" stroke="#ffffff" stroke-width="1.5"></path><path d="M117.8,735.1q.4,4.3 .8,7.8q.2,1.6 2.9-7.3q1.5-4.9 14.9-2.1q1,.2 5.7,11.5" fill="none" stroke="#ffffff" stroke-width="1.5"></path><path d="M163,730.6q-4.6,4.4 -4.7,7.8q0,.9 2.6,3.9q2.6-4 4.1-10.8q1-4.4 10.3,19.9q4.6,11.9 -15.5,13.8q-3.8,.4 -6.9,.8" fill="none" stroke="#ffffff" stroke-width="1.7"></path><path d="M-397.8,812.6q-.3,0 -1.3-.2q-1.2-.2 .9,25.9q.1,1.1 2.4,4.8" fill="none" stroke="#ffffff" stroke-width="1.5"></path><path d="M-396.4,813.1q3.6-5.4 5.3-7.5q2,10.2 .6,27.4q-1.1,13.3 24.4,5.3" fill="none" stroke="#ffffff" stroke-width="1.5"></path><path d="M-363.4,839.1q-1.7-8.8 -1-13.1q.7-4.1 15.9,.1q5,1.4 6.3,13.1q.7,6.2 -15,1.4q-4.8-1.5 .1-11.7" fill="none" stroke="#ffffff" stroke-width="1.5"></path><path d="M-328.8,799q-2.5,16.5 -.4,24q1.2,4.2 8.1,19.2" fill="none" stroke="#ffffff" stroke-width="1.5"></path><path d="M-336.3,832.1q1-1.5 1.8-2.7q1.2-1.8 10.7,1.2" fill="none" stroke="#ffffff" stroke-width="1.5"></path><path d="M-287.9,827.1q-7.3-.5 -12.6,2.7q-15,9 4.1,12.6q10.3,1.9 9.7-10.9q-.1-1.6 -.7,7.8q-.2,3.4 16.4,2.7" fill="none" stroke="#ffffff" stroke-width="1.6"></path><path d="M-258.7,796.1q-4.3,34.5 -1.7,45.7q.1,.6 -2.5,1.4" fill="none" stroke="#ffffff" stroke-width="1.6"></path><path d="M-267.9,829.3q6.8-2.6 10.8-.7q2.5,1.2 12.6,5.3" fill="none" stroke="#ffffff" stroke-width="1.5"></path><path d="M-236,828.7q-.5,9.2 .3,11.1" fill="none" stroke="#ffffff" stroke-width="1.5"></path><path d="M-236.2,814.5q.1-.5 .7-2.4" fill="none" stroke="#ffffff" stroke-width="1.5"></path><path d="M-234.7,812.7q32.8,18.2 38.4,22.8" fill="none" stroke="#ffffff" stroke-width="1.5"></path><path d="M-221.5,828.8q.1-.8 .6-4.1q.4-2.7 9.2-2.7q3.9,0 3.9,14.5q0,5.4 -9.7,1.1q-1.5-2.4 -2.2-4.9" fill="none" stroke="#ffffff" stroke-width="1.5"></path><path d="M-189.5,825.5q-.3,11.3 -.1,13.6q2.4-5.7 4.9-16.4q.8-3.6 7.3,11.1q.8,1.8 8.3,5.2" fill="none" stroke="#ffffff" stroke-width="1.5"></path><path d="M-155.2,819.8q-.6-.6 -3-3.1q-8-8.2 -3.6,13.6q3.6,8.7 7.3,15.6q0,0 -15.4-3" fill="none" stroke="#ffffff" stroke-width="1.5"></path><path d="M-125.2,795.5q-5.4,25.7 -5.7,39.1q0,.2 -.8,.7q-2,1.2 .4-11.7q1.3-6.8 15.3-5.1q8.2,1 7.5,21.4q-.2,6.1 -21.1,0q-1-.3 -1.6-5.1" fill="none" stroke="#ffffff" stroke-width="1.5"></path><path d="M-97.5,825.8q10-5.1 11.3-6.5q-5.6,1.7 -15,6.5q-1.8,.9 -.9,9.8q.5,5.6 25-.3" fill="none" stroke="#ffffff" stroke-width="1.5"></path><path d="M-72.9,819.8q3.6,17.2 5.7,18.3q2.2,1.1 4.7-11.4q2.9,3.4 5.9,10.1q.2,.4 18.1-15.1" fill="none" stroke="#ffffff" stroke-width="1.6"></path><path d="M-34.4,835.9q5.6-10.6 6.8-12.8q-2.4,2.3 -6.3,6.9q-11.4,13.4 15.9,9.5" fill="none" stroke="#ffffff" stroke-width="1.5"></path><path d="M-2.7,821.2q-4.5,3.9 -5.7,8.6q-1.8,7.1 4.8,5.9q1.5-1.9 2.4-4.1q5.7,4.1 11.2,12.5q7,10.7 -7.3,17.1q-8.7,3.9 -11.6-9.7" fill="none" stroke="#ffffff" stroke-width="1.5"></path><path d="M24.3,827.9q-2.2,9.8 -.9,13.4q1.2,3.4 17.2,2.3q4.8-.3 5.8-17.2q.1-2.4 2.9,11.6q3.6,1.3 7.6,1.3" fill="none" stroke="#ffffff" stroke-width="1.5"></path><path d="M69,823.2q1.1,15.4 1.9,17.7q.9,2.5 2.5-12.9q.8-7.3 11.2-.4q7.9,7 13.9,13.3" fill="none" stroke="#ffffff" stroke-width="1.5"></path><path d="M127.6,833.3q-1.5-2.9 -2.7-5.3q-4.1-8 -4.1,12.9q0,.9 4.5,.2q1.7-3.7 1.9-7.9q5.1,10.1 10.9,29.5q1.5,4.9 -28.8,3.8" fill="none" stroke="#ffffff" stroke-width="1.8"></path><path d="M-406.1,919.8q11.3-23.9 18-31.3q.6,5 -.7,13.3q1.3,9 3.4,16.4" fill="none" stroke="#ffffff" stroke-width="1.5"></path><path d="M-402.1,911.5q9.7-.9 12.6-1.1" fill="none" stroke="#ffffff" stroke-width="1.5"></path><path d="M-372.5,890.4q-5.7,19.3 -4.7,26.1q1.6,.2 3.4-.2" fill="none" stroke="#ffffff" stroke-width="1.5"></path><path d="M-359.4,889.7q-5.3,21.2 -1.6,26.5" fill="none" stroke="#ffffff" stroke-width="1.5"></path><path d="M-334.8,906.7q-1.6-.8 -7.9-3.9q-6.1-3 -9.9,9.3q-1.5,4.8 11.2,2.3q4.2-1.5 7.5-2.9q3.6-1.6 6,20.7q1.7,16.3 -17,4.6" fill="none" stroke="#ffffff" stroke-width="1.5"></path><path d="M-312.5,913.1q9.9-1.4 11.2-5.1q2.2-6.4 -8.5-.3q-12.1,6.9 .2,10.5q4.1,1.2 23.9-2.9" fill="none" stroke="#ffffff" stroke-width="1.6"></path><path d="M-282.5,902.1q-2.8,14.8 -1.5,17.6q2.9-4.2 5.1-12q2.6,4.3 5,12.4q.3,1.2 .6-6q.2-4.8 21.9,1.9" fill="none" stroke="#ffffff" stroke-width="1.6"></path><path d="M-239.5,910.2q-4.4-1 -7.4,.8q-7.8,4.7 -.8,11.3q2.2,2.1 12.3-.8" fill="none" stroke="#ffffff" stroke-width="1.6"></path><path d="M-227.7,913.1q0,7 1.3,8.7" fill="none" stroke="#ffffff" stroke-width="1.5"></path><path d="M-228.5,893.5q.1-.3 .2-.6" fill="none" stroke="#ffffff" stroke-width="1.5"></path><path d="M-201.9,900.7q-2.7,16.7 -2.3,20.6q.5-2.9 .9-8.4q.1-1.7 8.3,4.2q6.5,1.9 12.2,2.6" fill="none" stroke="#ffffff" stroke-width="1.6"></path><path d="M-173,914.2q.4-1.2 2-6q-3.7,4.2 -9.4,12.7q-4,6 32,.2" fill="none" stroke="#ffffff" stroke-width="1.7"></path><path d="M-93.7,891.1q-2.6,4.6 -3,10.3q-.9,13.3 .2,14.6" fill="none" stroke="#ffffff" stroke-width="1.5"></path><path d="M-94.5,891.1q6.6-2.6 15.1-1.6q9.4,1.1 1.3,12.4q-3.9,5.4 -12.5,1.1q1.1-.9 3.1-1.7q4.4-1.7 14.5,10q10.5,12.1 -17.6,4.9q-1.5-.8 -2.6-1.6" fill="none" stroke="#ffffff" stroke-width="1.5"></path><path d="M-62,907.7q-.8-7.1 -2.1-8.5q-2.4-2.6 -7.9,11.2q-3.3,8.2 22.5,4.3q2.3-.7 4.2-1.5" fill="none" stroke="#ffffff" stroke-width="1.6"></path><path d="M-42.5,898.8q.2,13.8 2.1,16.7q4,6.1 5.2-1.6q.6-4 1.1-2.6q2.4,7.6 13.2,.2q.6-.4 4.7-8.6" fill="none" stroke="#ffffff" stroke-width="1.6"></path><path d="M-12.4,914.3q12.3-6.6 13.5-8.4q-5.9,2.6 -15.4,9.2q-9.8,6.8 19.7,1.4" fill="none" stroke="#ffffff" stroke-width="1.6"></path><path d="M23.3,902.6Q15.5,903.9 11.3,908.1Q5.4,914 14.5,914.4Q18.9,913 22.4,911.2Q27.7,908.5 31.9,931.7Q33.7,941.7 23.8,941.9Q14.7,942.1 11.8,937.9" fill="none" stroke="#ffffff" stroke-width="1.5"></path><path d="M54.2,905.3q-4,6.6 -3.4,9.3q1.6,7.1 10.1,2q1.5-.9 3-12.7q.2-1.8 2.8,8.7q.7,2.8 11.9,2.8" fill="none" stroke="#ffffff" stroke-width="1.5"></path><path d="M85,910.1q-.8,6 -.8,8.7q0,1.3 2.3-5.9q1.8-5.5 14.3-2.2q1.6,.4 6.9,9.1" fill="none" stroke="#ffffff" stroke-width="1.5"></path><path d="M129.4,909.7q-8.5,.1 -13.7,2.7q-7.7,3.8 5.7,8.5q10.5,3.7 10.9-9.6q0,0 3.7,13q5.3,18.8 -3.7,21.4q-13.3,3.9 -23.5-4.8" fill="none" stroke="#ffffff" stroke-width="1.7"></path></svg>